<?xml version="1.0" encoding="UTF-8" standalone="no"?>
<!DOCTYPE svg PUBLIC "-//W3C//DTD SVG 1.1//EN" "http://www.w3.org/Graphics/SVG/1.1/DTD/svg11.dtd">
<svg width="100%" height="100%" viewBox="0 0 1191 517" version="1.1" xmlns="http://www.w3.org/2000/svg" xmlns:xlink="http://www.w3.org/1999/xlink" xml:space="preserve" xmlns:serif="http://www.serif.com/" style="fill-rule:evenodd;clip-rule:evenodd;stroke-linejoin:round;stroke-miterlimit:2;">
    <path d="M126.742,152.724C142.604,152.724 155.463,139.865 155.463,124.003C155.463,108.14 142.604,95.281 126.742,95.281C110.879,95.281 98.021,108.14 98.021,124.003C98.021,139.865 110.879,152.724 126.742,152.724Z" style="fill:rgb(34,28,53);fill-rule:nonzero;"/>
    <path d="M217.785,152.724C233.647,152.724 246.506,139.865 246.506,124.003C246.506,108.14 233.647,95.281 217.785,95.281C201.922,95.281 189.063,108.14 189.063,124.003C189.063,139.865 201.922,152.724 217.785,152.724Z" style="fill:rgb(34,28,53);fill-rule:nonzero;"/>
    <path d="M344.525,344.525C344.525,313.134 336.124,283.761 321.47,258.427C312.548,242.991 301.215,229.054 288.125,217.07C287.864,216.81 287.539,216.615 287.278,216.354C286.041,215.247 284.803,214.14 283.501,213.033C283.11,212.707 282.654,212.381 282.263,211.99C281.677,211.535 281.091,211.014 280.505,210.558C280.049,210.232 279.593,209.841 279.202,209.516C278.811,209.19 277.965,208.539 277.965,208.539C256.147,191.54 230.226,179.687 201.831,174.803C197.858,174.086 193.82,175.649 191.215,178.71L172.198,200.984L153.18,178.71C150.575,175.649 146.537,174.151 142.564,174.803C113.127,179.883 86.229,192.517 63.89,210.558C59.331,197.662 56.987,183.79 57.378,169.267C58.941,107.265 110.066,57.443 172.132,57.443C235.502,57.378 287.018,108.959 287.018,172.263C287.018,178.189 286.562,183.986 285.715,189.717C285.129,193.364 286.627,197.076 289.492,199.421C300.955,208.734 311.245,219.22 320.168,230.812C324.336,236.218 332.867,234.785 335.147,228.338C341.204,210.753 344.46,191.931 344.46,172.263C344.46,129.148 328.634,89.746 302.453,59.592C299.652,56.335 299.587,51.581 302.388,48.325L324.205,22.73C327.397,19.017 324.726,13.286 319.842,13.286L266.893,13.286C250.937,13.286 235.046,11.072 219.741,6.708C204.696,2.345 188.74,0 172.263,0C155.785,0 139.764,2.345 124.654,6.643C109.349,11.072 93.458,13.221 77.502,13.221L24.618,13.221C19.734,13.221 17.063,18.952 20.255,22.664L42.073,48.26C44.873,51.516 44.808,56.27 42.007,59.527C15.826,89.746 0,129.148 0,172.263C0,198.509 5.861,223.323 16.347,245.596C17.194,247.355 18.04,249.113 18.952,250.872C19.278,251.458 19.538,252.044 19.864,252.565C20.19,253.151 20.515,253.802 20.841,254.389C21.557,255.691 22.274,257.059 23.055,258.361C22.209,259.794 21.427,261.292 20.645,262.725C20.124,263.637 19.669,264.614 19.148,265.591C18.887,266.046 18.627,266.567 18.431,267.023C17.78,268.261 17.194,269.563 16.608,270.801C16.542,270.931 16.477,271.061 16.412,271.192C15.761,272.559 15.11,273.992 14.524,275.425C5.145,296.591 0,319.907 0,344.525C0,385.816 14.524,423.72 38.751,453.354C70.338,492.039 118.337,516.723 172.132,516.723C179.622,516.723 186.916,516.267 194.146,515.355C202.286,514.313 204.436,503.502 197.337,499.399C179.817,489.239 163.666,476.8 149.142,462.276L149.077,462.211C145.039,458.173 140.155,454.917 134.749,453.093C113.713,445.799 95.412,432.578 81.866,415.384C66.495,395.846 57.312,371.228 57.312,344.525C57.312,331.109 59.657,318.214 63.89,306.23C63.825,306.1 63.63,305.905 63.434,305.774C63.63,305.905 63.825,306.1 63.955,306.23C70.533,287.604 81.8,271.192 96.324,258.361C116.578,240.516 143.151,229.64 172.198,229.64C201.244,229.64 227.817,240.516 248.071,258.361C262.595,271.192 273.862,287.604 280.44,306.23C284.673,318.214 287.018,331.109 287.018,344.525L287.018,456.675C254.389,450.748 223.909,435.313 200.137,411.607C169.137,380.671 152.073,339.51 152.073,295.745C152.073,282.654 153.571,269.824 156.632,257.254C158.065,251.197 152.464,245.792 146.472,247.355C131.558,251.328 117.621,258.752 105.832,269.107C104.986,269.824 104.139,270.605 103.358,271.387C98.017,276.402 94.956,283.37 94.761,290.665C94.696,292.358 94.696,294.051 94.696,295.745C94.696,325.573 100.557,354.555 112.085,381.778C123.222,408.09 139.178,431.731 159.432,452.051C179.752,472.371 203.394,488.262 229.705,499.399C256.994,510.926 285.91,516.788 315.739,516.788L335.863,516.788C340.618,516.788 344.46,512.945 344.46,508.191L344.525,344.525Z" style="fill:rgb(34,28,53);fill-rule:nonzero;"/>
    <path d="M397.929,172.26L440.001,172.26C442.737,172.26 445.081,174.214 445.537,176.949C447.882,189.714 459.539,199.353 474.193,199.353C489.889,199.353 501.612,189.649 501.612,177.275C501.612,161.579 482.53,153.178 460.842,147.512C427.432,139.175 395.324,119.051 395.324,75.285C395.324,36.143 428.734,6.706 472.891,6.706C515.614,6.706 547.918,33.669 551.174,70.596C551.5,73.983 548.83,76.913 545.443,76.913L503.37,76.913C500.57,76.913 498.29,74.894 497.769,72.159C495.62,60.892 485.786,52.816 472.826,52.816C458.758,52.816 448.403,61.478 448.403,73.201C448.403,87.92 463.773,95.931 486.177,101.987C521.281,111.366 554.756,128.429 554.756,173.888C554.756,214.658 519.978,245.464 473.477,245.464C429.385,245.464 395.519,217.133 392.132,178.512C391.937,175.191 394.542,172.26 397.929,172.26Z" style="fill:rgb(34,28,53);fill-rule:nonzero;"/>
    <path d="M714.905,129.471L714.905,235.889C714.905,239.016 712.365,241.555 709.239,241.555L674.396,241.555C671.27,241.555 668.73,239.016 668.73,235.889L668.73,231.526C658.049,240.188 643.981,245.593 628.285,245.593C594.158,245.593 567.456,221.171 567.456,189.063C567.456,156.629 594.224,132.206 628.285,132.206C642.679,132.206 655.704,136.57 666.059,144.255L666.059,129.862C666.059,116.12 657.397,107.458 643.981,107.458C634.082,107.458 626.527,112.017 623.661,119.311C622.684,121.851 620.34,123.479 617.604,123.479L581.198,123.479C576.9,123.479 573.643,119.311 574.816,115.143C582.826,86.747 608.552,66.948 644.567,66.948C685.142,66.883 714.905,92.348 714.905,129.471ZM666.059,188.932C666.059,177.926 655.378,169.199 641.636,169.199C628.285,169.199 617.539,177.861 617.539,188.932C617.539,199.613 628.22,208.34 641.636,208.34C655.378,208.34 666.059,199.678 666.059,188.932Z" style="fill:rgb(34,28,53);fill-rule:nonzero;"/>
    <path d="M1041.85,129.471L1041.85,235.889C1041.85,239.016 1039.31,241.555 1036.18,241.555L1001.34,241.555C998.211,241.555 995.671,239.016 995.671,235.889L995.671,231.526C984.99,240.188 970.922,245.593 955.227,245.593C921.1,245.593 894.397,221.171 894.397,189.063C894.397,156.629 921.165,132.206 955.227,132.206C969.62,132.206 982.645,136.57 993.001,144.255L993.001,129.862C993.001,116.12 984.339,107.458 970.922,107.458C961.023,107.458 953.468,112.017 950.603,119.311C949.626,121.851 947.281,123.479 944.546,123.479L908.139,123.479C903.841,123.479 900.585,119.311 901.757,115.143C909.768,86.747 935.493,66.948 971.509,66.948C1012.08,66.883 1041.85,92.348 1041.85,129.471ZM993.066,188.932C993.066,177.926 982.385,169.199 968.643,169.199C955.292,169.199 944.546,177.861 944.546,188.932C944.546,199.613 955.227,208.34 968.643,208.34C982.32,208.34 993.066,199.678 993.066,188.932Z" style="fill:rgb(34,28,53);fill-rule:nonzero;"/>
    <path d="M682.409,400.728L682.409,507.146C682.409,510.272 679.869,512.812 676.743,512.812L641.9,512.812C638.773,512.812 636.233,510.272 636.233,507.146L636.233,502.783C625.553,511.445 611.485,516.85 595.789,516.85C561.662,516.85 534.96,492.427 534.96,460.319C534.96,427.886 561.727,403.463 595.789,403.463C610.182,403.463 623.208,407.827 633.563,415.512L633.563,401.118C633.563,387.377 624.901,378.715 611.485,378.715C601.586,378.715 594.031,383.273 591.165,390.568C590.188,393.108 587.844,394.736 585.108,394.736L548.702,394.736C544.403,394.736 541.147,390.568 542.319,386.4C550.33,358.004 576.056,338.205 612.071,338.205C652.646,338.205 682.409,363.605 682.409,400.728ZM633.563,460.254C633.563,449.248 622.882,440.521 609.14,440.521C595.789,440.521 585.043,449.183 585.043,460.254C585.043,470.935 595.724,479.662 609.14,479.662C622.882,479.662 633.563,470.935 633.563,460.254Z" style="fill:rgb(34,28,53);fill-rule:nonzero;"/>
    <path d="M1067.51,189.648L1099.81,189.648C1103.59,189.648 1106.91,192.058 1108.28,195.575C1110.82,202.022 1117.39,206.646 1125.21,206.646C1134.59,206.646 1141.95,200.98 1141.95,193.621C1141.95,182.94 1128.6,177.925 1114.53,174.864C1088.8,168.872 1060.67,155.782 1060.67,120.678C1060.67,85.574 1090.43,66.817 1124.23,66.817C1156.67,66.817 1181.87,85.313 1187.34,110.062C1188.51,115.272 1184.54,120.287 1179.2,120.287L1145.98,120.287C1142.86,120.287 1139.86,118.528 1138.82,115.598C1136.8,109.801 1131.07,105.568 1123.91,105.568C1115.9,105.568 1109.51,110.909 1109.51,117.291C1109.51,126.995 1121.24,132.336 1137.91,136.373C1163.63,142.756 1190.73,154.739 1190.73,189.192C1190.73,224.947 1160.96,245.397 1124.82,245.397C1090.76,245.397 1064.77,225.663 1059.3,199.743C1058.26,194.598 1062.17,189.648 1067.51,189.648Z" style="fill:rgb(34,28,53);fill-rule:nonzero;"/>
    <path d="M907.945,460.908L940.249,460.908C944.026,460.908 947.348,463.318 948.715,466.835C951.255,473.282 957.833,477.906 965.648,477.906C975.027,477.906 982.386,472.24 982.386,464.881C982.386,454.2 969.035,449.185 954.968,446.124C929.242,440.132 901.107,427.042 901.107,391.938C901.107,356.834 930.87,338.077 964.671,338.077C997.105,338.077 1022.31,356.574 1027.78,381.322C1028.95,386.532 1024.98,391.547 1019.64,391.547L986.424,391.547C983.298,391.547 980.302,389.789 979.26,386.858C977.241,381.062 971.51,376.828 964.346,376.828C956.335,376.828 949.953,382.169 949.953,388.551C949.953,398.255 961.676,403.596 978.348,407.634C1004.07,414.016 1031.17,426 1031.17,460.452C1031.17,496.207 1001.4,516.657 965.258,516.657C931.196,516.657 905.21,496.924 899.739,471.003C898.697,465.858 902.605,460.908 907.945,460.908Z" style="fill:rgb(34,28,53);fill-rule:nonzero;"/>
    <path d="M528.381,470.479L528.381,506.234C528.381,509.816 525.45,512.747 521.868,512.747L410.174,512.747C406.592,512.747 403.661,509.816 403.661,506.234L403.661,288.513C403.661,284.931 406.592,282 410.174,282L448.925,282C452.507,282 455.438,284.931 455.438,288.513L455.438,463.901L521.803,463.901C525.45,463.901 528.381,466.832 528.381,470.479Z" style="fill:rgb(34,28,53);fill-rule:nonzero;"/>
    <path d="M891.138,427.494C891.138,478.294 856.035,516.784 808.882,516.784C787.781,516.784 770.066,508.122 757.366,493.729L757.366,504.28C757.366,508.969 753.524,512.811 748.835,512.811L717.052,512.811C712.363,512.811 708.521,508.969 708.521,504.28L708.521,280.501C708.521,275.812 712.363,271.969 717.052,271.969L748.769,271.969C753.459,271.969 757.301,275.812 757.301,280.501L757.301,361.259C770.001,346.866 787.716,338.204 808.817,338.204C856.035,338.204 891.138,376.63 891.138,427.494ZM840.99,427.494C840.99,403.397 823.275,385.357 799.178,385.357C775.081,385.357 757.366,403.397 757.366,427.494C757.366,451.591 775.081,469.632 799.178,469.632C823.275,469.632 840.99,451.526 840.99,427.494Z" style="fill:rgb(34,28,53);fill-rule:nonzero;"/>
    <path d="M833.437,78.869C832.395,118.597 823.733,162.949 808.818,197.532C793.904,162.949 785.242,118.597 784.2,78.869C784.07,74.44 780.553,70.924 776.124,70.924L740.565,70.924C736.071,70.924 732.359,74.636 732.424,79.195C733.726,135.4 748.119,188.479 772.607,235.371C774.561,239.148 778.534,241.493 782.832,241.493L834.804,241.493C839.038,241.493 843.01,239.148 845.029,235.371C869.583,188.414 883.911,135.4 885.213,79.195C885.343,74.701 881.566,70.924 877.072,70.924L841.513,70.924C837.084,70.924 833.567,74.44 833.437,78.869Z" style="fill:rgb(34,28,53);fill-rule:nonzero;"/>
</svg>
