<?xml version="1.0" encoding="utf-8"?>
<!-- Generator: Adobe Illustrator 23.0.2, SVG Export Plug-In . SVG Version: 6.00 Build 0)  -->
<svg version="1.1" id="Layer_1" xmlns="http://www.w3.org/2000/svg" xmlns:xlink="http://www.w3.org/1999/xlink" x="0px" y="0px"
	 viewBox="0 0 216 141.1" style="enable-background:new 0 0 216 141.1;" xml:space="preserve">
<style type="text/css">
	.st0{fill:#672A7A;}
</style>
<g>
	<path class="st0" d="M12.3,131.5c-1.6,0-2.9-0.6-4-1.7c-1.1-1.1-1.7-2.5-1.7-4.1c0-1.6,0.6-2.9,1.7-4.1c1.1-1.1,2.5-1.7,4-1.7
		c1.6,0,3,0.6,4.1,1.7c1.1,1.1,1.7,2.5,1.7,4.1c0,1.6-0.6,2.9-1.7,4.1C15.2,130.9,13.9,131.5,12.3,131.5z"/>
	<path class="st0" d="M92.5,130.4H81.9L44.1,71.7c-1-1.5-1.7-3-2.4-4.6h-0.3c0.3,1.6,0.4,4.9,0.4,10.1v53.1h-8.6V56.8h11.2
		l36.8,57.7c1.5,2.4,2.5,4,3,4.9h0.2c-0.3-2.1-0.5-5.7-0.5-10.8V56.8h8.6V130.4z"/>
	<path class="st0" d="M150.7,130.4h-39V56.8h37.3v7.8h-28.7v24.5h26.6v7.7h-26.6v25.7h30.4V130.4z"/>
	<path class="st0" d="M208.4,64.6h-21.2v65.7h-8.6V64.6h-21.2v-7.8h51V64.6z"/>
</g>
<g>
	<path class="st0" d="M64.5,48H61v-20c0-1.6,0.1-3.5,0.3-5.8h-0.1c-0.3,1.3-0.6,2.3-0.9,2.9L50.1,48h-1.7L38.2,25.2
		c-0.3-0.7-0.6-1.7-0.9-3.1h-0.1c0.1,1.2,0.2,3.1,0.2,5.9v20H34V18.1h4.6l9.2,20.8c0.7,1.6,1.2,2.8,1.4,3.6h0.1
		c0.6-1.6,1.1-2.9,1.4-3.7l9.4-20.8h4.4V48z"/>
	<path class="st0" d="M73.6,21.2c-0.6,0-1.1-0.2-1.6-0.6c-0.4-0.4-0.6-0.9-0.6-1.6s0.2-1.2,0.6-1.6c0.4-0.4,1-0.6,1.6-0.6
		c0.6,0,1.2,0.2,1.6,0.6c0.4,0.4,0.7,1,0.7,1.6c0,0.6-0.2,1.1-0.7,1.6C74.8,21,74.2,21.2,73.6,21.2z M75.3,48h-3.4V26.6h3.4V48z"/>
	<path class="st0" d="M96.7,47c-1.6,1-3.6,1.5-5.8,1.5c-3,0-5.5-1-7.4-3c-1.9-2-2.8-4.5-2.8-7.7c0-3.5,1-6.3,3-8.5
		c2-2.1,4.7-3.2,8.1-3.2c1.9,0,3.5,0.3,5,1v3.5c-1.6-1.1-3.3-1.7-5.1-1.7c-2.2,0-4,0.8-5.4,2.3c-1.4,1.6-2.1,3.6-2.1,6.2
		c0,2.5,0.7,4.5,2,5.9c1.3,1.4,3.1,2.2,5.3,2.2c1.9,0,3.6-0.6,5.3-1.9V47z"/>
	<path class="st0" d="M113,30.1c-0.6-0.5-1.5-0.7-2.6-0.7c-1.5,0-2.7,0.7-3.7,2.1c-1,1.4-1.5,3.3-1.5,5.6V48h-3.4V26.6h3.4V31h0.1
		c0.5-1.5,1.2-2.7,2.2-3.5c1-0.8,2.1-1.3,3.4-1.3c0.9,0,1.6,0.1,2,0.3V30.1z"/>
	<path class="st0" d="M125.7,48.5c-3.2,0-5.7-1-7.6-3s-2.8-4.6-2.8-7.9c0-3.6,1-6.4,2.9-8.4c2-2,4.6-3,7.9-3c3.2,0,5.7,1,7.4,2.9
		c1.8,2,2.7,4.7,2.7,8.1c0,3.4-1,6.1-2.9,8.2C131.5,47.4,128.9,48.5,125.7,48.5z M125.9,29c-2.2,0-3.9,0.7-5.2,2.2
		c-1.3,1.5-1.9,3.6-1.9,6.2c0,2.5,0.6,4.5,1.9,6c1.3,1.5,3,2.2,5.2,2.2c2.2,0,3.9-0.7,5.1-2.1c1.2-1.4,1.8-3.5,1.8-6.1
		c0-2.7-0.6-4.7-1.8-6.2C129.8,29.7,128.1,29,125.9,29z"/>
	<path class="st0" d="M140.4,47.2v-3.7c1.9,1.4,3.9,2.1,6.1,2.1c3,0,4.5-1,4.5-3c0-0.6-0.1-1.1-0.4-1.4c-0.3-0.4-0.6-0.7-1-1.1
		c-0.4-0.3-1-0.6-1.5-0.8c-0.6-0.2-1.2-0.5-1.9-0.8c-0.9-0.4-1.8-0.8-2.5-1.1s-1.3-0.8-1.8-1.3c-0.5-0.5-0.8-1-1.1-1.6
		c-0.2-0.6-0.4-1.3-0.4-2.1c0-1,0.2-1.9,0.7-2.7c0.5-0.8,1.1-1.4,1.8-1.9c0.8-0.5,1.6-0.9,2.6-1.2c1-0.3,2-0.4,3-0.4
		c1.8,0,3.5,0.3,5,1v3.5c-1.6-1-3.4-1.5-5.4-1.5c-0.6,0-1.2,0.1-1.7,0.2c-0.5,0.1-1,0.4-1.3,0.6c-0.4,0.3-0.7,0.6-0.9,0.9
		c-0.2,0.4-0.3,0.8-0.3,1.2c0,0.6,0.1,1,0.3,1.4c0.2,0.4,0.5,0.7,0.9,1c0.4,0.3,0.9,0.6,1.4,0.8c0.6,0.2,1.2,0.5,1.9,0.8
		c0.9,0.4,1.8,0.7,2.5,1.1c0.8,0.4,1.4,0.8,1.9,1.3c0.5,0.5,0.9,1,1.2,1.7c0.3,0.6,0.4,1.4,0.4,2.2c0,1.1-0.2,2-0.7,2.8
		c-0.5,0.8-1.1,1.4-1.9,1.9c-0.8,0.5-1.7,0.9-2.7,1.1s-2.1,0.4-3.2,0.4C144,48.5,142.1,48,140.4,47.2z"/>
	<path class="st0" d="M168.8,48.5c-3.2,0-5.7-1-7.6-3c-1.9-2-2.8-4.6-2.8-7.9c0-3.6,1-6.4,2.9-8.4c2-2,4.6-3,7.9-3
		c3.2,0,5.7,1,7.4,2.9c1.8,2,2.7,4.7,2.7,8.1c0,3.4-1,6.1-2.9,8.2C174.6,47.4,172,48.5,168.8,48.5z M169,29c-2.2,0-3.9,0.7-5.2,2.2
		c-1.3,1.5-1.9,3.6-1.9,6.2c0,2.5,0.6,4.5,1.9,6c1.3,1.5,3,2.2,5.2,2.2c2.2,0,3.9-0.7,5.1-2.1c1.2-1.4,1.8-3.5,1.8-6.1
		c0-2.7-0.6-4.7-1.8-6.2C172.9,29.7,171.2,29,169,29z"/>
	<path class="st0" d="M195.4,19.4c-0.7-0.4-1.4-0.6-2.3-0.6c-2.4,0-3.6,1.5-3.6,4.5v3.3h5v2.9h-5V48h-3.4V29.5h-3.6v-2.9h3.6v-3.5
		c0-2.2,0.6-4,1.9-5.3c1.3-1.3,2.9-1.9,4.8-1.9c1,0,1.9,0.1,2.5,0.4V19.4z"/>
	<path class="st0" d="M208.1,47.7c-0.8,0.4-1.9,0.7-3.2,0.7c-3.7,0-5.6-2.1-5.6-6.3V29.5h-3.7v-2.9h3.7v-5.2l3.4-1.1v6.3h5.4v2.9
		h-5.4v12c0,1.4,0.2,2.5,0.7,3.1c0.5,0.6,1.3,0.9,2.4,0.9c0.9,0,1.6-0.2,2.2-0.7V47.7z"/>
</g>
</svg>
