<?xml version="1.0" standalone="no"?>
<!DOCTYPE svg PUBLIC "-//W3C//DTD SVG 20010904//EN"
 "http://www.w3.org/TR/2001/REC-SVG-20010904/DTD/svg10.dtd">
<svg version="1.0" xmlns="http://www.w3.org/2000/svg"
 width="400.000000pt" height="400.000000pt" viewBox="0 0 400.000000 400.000000"
 preserveAspectRatio="xMidYMid meet">
<metadata>
Created by potrace 1.14, written by Peter Selinger 2001-2017
</metadata>
<g transform="translate(0.000000,400.000000) scale(0.100000,-0.100000)"
fill="#000000" stroke="none">
<path d="M3532 3545 c24 -29 138 -255 138 -275 0 -9 4 -20 9 -25 14 -15 61
-179 83 -290 23 -116 33 -382 17 -460 -6 -27 -12 -60 -15 -72 -19 -95 -118
-308 -204 -441 -115 -178 -280 -362 -435 -483 -217 -171 -561 -332 -930 -437
-77 -22 -153 -43 -170 -46 -16 -4 -39 -8 -50 -10 -11 -3 -54 -11 -95 -20 -41
-8 -100 -18 -130 -22 -30 -3 -66 -8 -80 -11 -44 -9 -423 -11 -495 -2 -64 7
-97 12 -180 25 -119 19 -327 87 -465 152 -146 69 -378 214 -372 234 1 5 -8 1
-21 -9 -20 -15 -23 -22 -16 -47 36 -126 227 -314 529 -520 252 -173 548 -275
910 -313 132 -14 445 -7 565 12 17 3 41 7 55 9 224 36 524 151 744 284 297
181 554 476 752 864 184 361 270 841 208 1161 -2 12 -6 39 -9 60 -17 108 -83
291 -152 417 -40 74 -165 251 -191 271 -16 13 -16 12 0 -6z"/>
<path d="M3310 3508 c-104 -66 -397 -263 -632 -424 -119 -82 -326 -224 -460
-315 -262 -179 -372 -254 -452 -309 -28 -20 -186 -128 -351 -240 -165 -112
-304 -208 -310 -213 -5 -4 -82 -56 -170 -115 -482 -324 -662 -446 -675 -460
-9 -9 -3 -7 15 4 60 37 857 574 865 583 3 3 95 66 205 140 110 74 234 158 275
186 41 28 138 94 215 147 77 52 246 167 375 255 129 88 296 201 370 251 166
112 320 217 510 346 80 55 178 121 218 148 39 27 72 51 72 54 0 6 0 6 -70 -38z"/>
<path d="M3105 3267 c-33 -24 -116 -81 -185 -127 -69 -47 -129 -89 -135 -93
-5 -5 -170 -118 -365 -252 -195 -134 -422 -290 -505 -347 -82 -57 -221 -152
-310 -212 -326 -221 -585 -397 -760 -516 -99 -67 -222 -150 -272 -184 -51 -33
-93 -64 -93 -67 0 -10 127 -84 200 -117 498 -223 1058 -248 1565 -70 300 105
594 283 779 472 210 214 348 465 432 786 49 186 25 318 -95 523 -57 97 -168
247 -184 247 -7 -1 -39 -20 -72 -43z m317 -407 c9 -27 14 -50 12 -50 -2 0 -54
-13 -116 -30 -164 -43 -310 -80 -331 -85 -10 -2 -129 -33 -265 -69 -398 -104
-719 -186 -729 -185 -11 1 1378 466 1398 468 10 1 21 -16 31 -49z m-1442 -424
c0 -2 -7 -7 -16 -10 -8 -3 -12 -2 -9 4 6 10 25 14 25 6z m517 -342 c332 -109
603 -203 603 -207 0 -5 -16 -25 -35 -45 -31 -34 -37 -36 -62 -26 -15 7 -253
107 -528 224 -275 117 -522 221 -550 232 -46 18 -79 38 -45 26 8 -2 286 -94
617 -204z m-783 115 c3 -19 7 -43 9 -54 5 -23 14 -74 22 -125 3 -19 12 -66 20
-105 7 -38 16 -88 20 -110 3 -22 12 -71 20 -110 7 -38 16 -90 20 -115 3 -25 8
-53 11 -62 6 -21 12 -53 20 -103 3 -22 9 -58 14 -80 5 -22 12 -61 15 -87 l7
-48 -39 -1 c-21 -1 -54 -2 -73 -3 -35 -1 -35 -1 -36 44 -1 52 -13 324 -19 450
-2 47 -7 141 -10 210 -3 69 -7 174 -10 235 -6 105 -1 137 9 64z"/>
</g>
</svg>
