<?xml version="1.0" encoding="utf-8"?>
<!-- Generator: Adobe Illustrator 23.0.1, SVG Export Plug-In . SVG Version: 6.00 Build 0)  -->
<svg version="1.1" id="b-52" xmlns="http://www.w3.org/2000/svg" xmlns:xlink="http://www.w3.org/1999/xlink" x="0px" y="0px"
	 viewBox="0 0 300 300" style="enable-background:new 0 0 300 300;" xml:space="preserve">
<style type="text/css">
	.st0{fill:#4E4236;}
	.st1{fill-rule:evenodd;clip-rule:evenodd;fill:#E3CAB9;}
	.st2{fill-rule:evenodd;clip-rule:evenodd;fill:#906751;}
	.st3{fill-rule:evenodd;clip-rule:evenodd;fill:#612F28;}
	.st4{fill-rule:evenodd;clip-rule:evenodd;fill:#C1A797;}
	.st5{fill-rule:evenodd;clip-rule:evenodd;fill:#6E442E;}
	.st6{fill-rule:evenodd;clip-rule:evenodd;fill:#3A1410;}
	.st7{fill-rule:evenodd;clip-rule:evenodd;fill:#FFFFFF;}
	.st8{fill:#FFFFFF;}
	.st9{fill-rule:evenodd;clip-rule:evenodd;fill:#4E4236;}
</style>
<path class="st0" d="M165.58,96.43c-0.67,0.21-1.19,0.12-1.54-0.24c-0.35-0.37-0.47-0.9-0.35-1.6c0.15-1.2,0.49-2.27,1.03-3.21
	c0.54-0.94,1.2-1.79,1.98-2.55c0.78-0.76,1.63-1.47,2.57-2.13c0.94-0.66,1.87-1.31,2.81-1.96c0.93-0.64,1.85-1.3,2.74-1.96
	c0.89-0.66,1.68-1.39,2.35-2.18c0.76-0.88,1.14-1.77,1.14-2.68c0-0.79-0.21-1.45-0.64-1.98c-0.42-0.53-0.93-0.82-1.52-0.88
	c-0.38-0.03-0.74,0.03-1.07,0.18c-0.34,0.15-0.62,0.35-0.86,0.62c-0.24,0.26-0.4,0.58-0.48,0.94c-0.09,0.37-0.07,0.77,0.04,1.21
	c0.12,0.44,0.05,0.7-0.22,0.79c-0.27,0.09-0.6,0.12-1.01,0.09c-0.71-0.03-1.33-0.25-1.87-0.66c-0.54-0.41-0.77-1-0.68-1.76
	c0.09-0.73,0.31-1.38,0.66-1.93c0.35-0.56,0.79-1.01,1.3-1.36c0.51-0.35,1.07-0.62,1.67-0.79c0.6-0.18,1.2-0.26,1.78-0.26
	c1.23,0,2.3,0.26,3.21,0.77c0.91,0.51,1.62,1.19,2.14,2.02c0.51,0.83,0.82,1.77,0.92,2.81c0.1,1.04-0.05,2.09-0.46,3.14
	c-0.5,1.32-1.3,2.48-2.42,3.5c-1.11,1.01-2.34,1.97-3.67,2.88c-1.33,0.91-2.67,1.78-4.02,2.61c-1.35,0.84-2.51,1.74-3.48,2.7
	c0.24-0.06,0.48-0.09,0.73-0.11c0.25-0.02,0.49-0.02,0.73-0.02c0.5,0,1.2,0.02,2.09,0.07c0.89,0.04,1.8,0.05,2.73,0.02
	c0.92-0.03,1.79-0.13,2.59-0.29c0.8-0.16,1.37-0.45,1.69-0.86c0.35-0.47,0.65-0.7,0.9-0.7c0.25,0,0.45,0.12,0.59,0.35
	c0.15,0.24,0.25,0.52,0.31,0.86c0.06,0.34,0.09,0.62,0.09,0.86c-0.03,0.44-0.11,0.89-0.24,1.34c-0.13,0.45-0.33,0.87-0.59,1.25
	c-0.27,0.38-0.61,0.71-1.03,0.99c-0.43,0.28-0.94,0.45-1.56,0.51c-0.61,0.09-1.31,0.1-2.08,0.02c-0.78-0.07-1.59-0.16-2.42-0.26
	c-0.84-0.1-1.65-0.2-2.44-0.31c-0.8-0.1-1.51-0.15-2.15-0.15c-0.3,0-0.62,0.01-0.97,0.04C166.24,96.19,165.9,96.28,165.58,96.43
	L165.58,96.43z M130.37,91.79c0.02-0.35-0.05-0.7-0.21-1.05c-0.16-0.35-0.42-0.67-0.75-0.95c-0.34-0.28-0.77-0.51-1.3-0.67
	c-0.53-0.16-1.13-0.22-1.81-0.18c-0.3,0.98-0.6,1.86-0.9,2.64c-0.3,0.78-0.57,1.38-0.8,1.82c0.54,0.39,1.14,0.66,1.79,0.8
	c0.65,0.14,1.25,0.15,1.82,0.02c0.57-0.13,1.06-0.4,1.46-0.8C130.07,93.01,130.3,92.47,130.37,91.79L130.37,91.79z M130.07,77.45
	c-0.11,0.2-0.27,0.59-0.47,1.16c-0.21,0.58-0.45,1.29-0.72,2.12c-0.27,0.83-0.58,1.77-0.9,2.82c-0.33,1.05-0.67,2.14-1.02,3.28
	c0.09,0,0.22,0.01,0.4,0.02c0.18,0.01,0.36,0.02,0.56,0.02c0.2,0,0.38,0,0.56-0.02c0.17-0.01,0.32-0.03,0.42-0.05
	c0.96-0.15,1.81-0.52,2.55-1.1c0.73-0.58,1.34-1.26,1.82-2.05c0.48-0.79,0.83-1.62,1.03-2.49c0.21-0.87,0.27-1.69,0.18-2.46
	c-0.11-0.85-0.38-1.61-0.82-2.28c-0.44-0.67-1-1.21-1.67-1.62c-0.68-0.42-1.44-0.69-2.29-0.82c-0.86-0.13-1.75-0.08-2.69,0.16
	c-0.89,0.24-1.69,0.68-2.38,1.31c-0.69,0.64-1.22,1.41-1.59,2.33c-0.2,0.46-0.33,0.97-0.41,1.54c-0.07,0.57-0.03,1.05,0.15,1.44
	c0.11,0.24,0.13,0.48,0.07,0.7c-0.07,0.23-0.33,0.45-0.79,0.67c-0.28,0.13-0.65,0.21-1.1,0.25c-0.45,0.03-0.87-0.03-1.27-0.2
	c-0.4-0.16-0.72-0.46-0.98-0.89c-0.27-0.43-0.36-1.02-0.3-1.79c0.13-1.23,0.52-2.29,1.16-3.2c0.65-0.91,1.42-1.67,2.32-2.28
	c0.89-0.61,1.83-1.08,2.82-1.41c0.98-0.33,1.87-0.54,2.66-0.62c1.47-0.17,2.87-0.15,4.2,0.08c1.34,0.23,2.52,0.64,3.55,1.23
	c1.03,0.59,1.87,1.34,2.54,2.25c0.67,0.91,1.08,1.95,1.23,3.13c0.09,0.77,0.09,1.65,0,2.64c-0.09,1-0.36,1.96-0.8,2.89
	c-0.45,0.93-1.12,1.77-2,2.51c-0.89,0.74-2.08,1.25-3.59,1.51c0.24,0.13,0.48,0.31,0.74,0.52c0.25,0.22,0.48,0.48,0.69,0.77
	c0.2,0.3,0.36,0.64,0.47,1.02c0.11,0.38,0.15,0.8,0.13,1.26c-0.07,0.98-0.32,1.82-0.75,2.49c-0.44,0.68-0.99,1.21-1.66,1.61
	c-0.67,0.39-1.41,0.66-2.23,0.79c-0.82,0.13-1.64,0.14-2.48,0.03c-0.74-0.07-1.47-0.25-2.16-0.56c-0.7-0.31-1.27-0.69-1.71-1.15
	c-0.22,0.33-0.48,0.6-0.79,0.8c-0.31,0.21-0.62,0.38-0.94,0.51c-0.32,0.13-0.62,0.23-0.9,0.3c-0.28,0.07-0.53,0.1-0.72,0.1
	c-0.63,0.07-1.26-0.01-1.87-0.23c-0.41-0.17-0.72-0.38-0.92-0.61c-0.2-0.23-0.31-0.46-0.33-0.69c-0.02-0.23,0.02-0.44,0.12-0.64
	c0.1-0.2,0.22-0.34,0.38-0.44c0.15-0.1,0.31-0.13,0.46-0.1c0.15,0.03,0.27,0.16,0.36,0.38c0.07,0.18,0.2,0.31,0.4,0.39
	c0.2,0.09,0.42,0.12,0.67,0.1c0.25-0.02,0.52-0.1,0.79-0.25c0.27-0.14,0.53-0.38,0.77-0.7c0.41-0.55,0.81-1.33,1.18-2.36
	c0.37-1.03,0.72-2.15,1.03-3.36c0.32-1.21,0.62-2.47,0.9-3.76c0.28-1.29,0.53-2.49,0.74-3.59c0.2-1.1,0.39-2.04,0.54-2.8
	c0.15-0.76,0.27-1.25,0.36-1.44c0.15-0.37,0.34-0.69,0.56-0.97c0.22-0.27,0.55-0.43,0.99-0.47c0.4-0.04,0.8-0.02,1.21,0.08
	c0.41,0.1,0.77,0.26,1.07,0.48c0.29,0.22,0.5,0.48,0.62,0.77C130.31,76.81,130.27,77.13,130.07,77.45L130.07,77.45z M139.07,89.34
	c-0.41,0.05-0.72-0.02-0.91-0.22c-0.2-0.2-0.29-0.43-0.29-0.69c0-0.36,0.18-0.75,0.53-1.15c0.35-0.4,0.77-0.61,1.25-0.64
	c0.25-0.02,0.51-0.04,0.8-0.04c0.29,0,0.57,0,0.84,0c1.12,0,2.2,0.03,3.24,0.09c1.04,0.06,1.87,0.1,2.48,0.13
	c0.14,0,0.27,0.01,0.38,0.02c0.11,0.01,0.2,0.02,0.27,0.02c0.17,0,0.28,0.13,0.34,0.38c0.06,0.26,0.07,0.55,0.02,0.87
	c-0.05,0.33-0.16,0.63-0.34,0.91c-0.18,0.28-0.42,0.44-0.71,0.49c-0.12,0.02-0.41,0.04-0.87,0.04c-0.53,0-1.21-0.01-2.02-0.04
	c-0.81-0.02-1.6-0.05-2.35-0.07c-0.65-0.05-1.22-0.08-1.71-0.09c-0.49-0.01-0.79-0.02-0.91-0.02H139.07L139.07,89.34z M163.69,84.03
	c0.18,1.14,0.14,2.41-0.11,3.8c-0.25,1.39-0.71,2.71-1.38,3.96c-0.67,1.25-1.55,2.32-2.64,3.23c-1.08,0.91-2.37,1.45-3.87,1.63
	c-0.82,0.09-1.6,0.04-2.33-0.15c-0.74-0.19-1.4-0.48-1.98-0.88c-0.59-0.4-1.07-0.87-1.45-1.43c-0.38-0.56-0.63-1.17-0.75-1.85
	c-0.2-0.97-0.07-1.88,0.4-2.73c0.47-0.85,1.32-1.39,2.55-1.63c0.53-0.09,1.06-0.05,1.61,0.11c0.54,0.16,0.86,0.49,0.94,0.99
	c0.03,0.15,0.01,0.26-0.04,0.35c-0.06,0.09-0.15,0.17-0.27,0.24c-0.12,0.07-0.25,0.16-0.4,0.26c-0.14,0.1-0.28,0.24-0.4,0.42
	c-0.2,0.26-0.36,0.59-0.46,0.99c-0.1,0.4-0.13,0.79-0.07,1.19c0.06,0.4,0.21,0.75,0.44,1.06c0.23,0.31,0.6,0.51,1.1,0.59
	c0.44,0.09,0.88-0.03,1.32-0.35c0.44-0.32,0.86-0.78,1.25-1.38c0.4-0.6,0.75-1.29,1.07-2.07c0.33-0.78,0.58-1.57,0.77-2.37
	c0.19-0.81,0.31-1.6,0.37-2.4c0.06-0.79,0.03-1.48-0.09-2.07c-0.09-0.44-0.23-0.78-0.42-1.03c-0.19-0.25-0.46-0.34-0.81-0.29
	c-0.41,0.09-0.95,0.35-1.61,0.79c-0.66,0.44-1.44,1.13-2.35,2.07c-0.14,0.18-0.32,0.31-0.53,0.39c-0.2,0.09-0.38,0.15-0.53,0.18
	c-0.35,0.06-0.66,0.01-0.92-0.15c-0.27-0.16-0.49-0.35-0.68-0.57c-0.19-0.22-0.34-0.44-0.44-0.66c-0.1-0.22-0.14-0.37-0.11-0.46
	v0.04c0.08-0.23,0.17-0.5,0.26-0.79c0.09-0.29,0.19-0.62,0.31-0.97c0.29-0.88,0.62-1.85,0.99-2.9c0.37-1.06,0.73-2.05,1.07-2.99
	c0.35-0.94,0.68-1.74,0.99-2.4c0.31-0.66,0.56-1.03,0.77-1.12c0.35-0.18,0.81-0.18,1.39,0c0.57,0.18,1.15,0.29,1.74,0.35
	c0.35,0.06,0.75,0.09,1.21,0.09c0.46,0,0.92-0.02,1.39-0.07c0.47-0.04,0.92-0.12,1.36-0.24c0.44-0.12,0.82-0.29,1.14-0.53
	c0.35-0.26,0.64-0.33,0.86-0.2c0.22,0.13,0.38,0.37,0.46,0.7c0.09,0.34,0.11,0.72,0.07,1.14c-0.05,0.42-0.15,0.81-0.33,1.17
	c-0.2,0.38-0.47,0.67-0.81,0.88c-0.33,0.2-0.73,0.35-1.16,0.44c-0.67,0.12-1.34,0.13-1.98,0.02c-0.65-0.1-1.23-0.21-1.76-0.33
	l-0.66-0.18c-0.09,0.15-0.24,0.4-0.46,0.77c-0.22,0.37-0.46,0.77-0.71,1.21c-0.25,0.44-0.47,0.89-0.68,1.34
	c-0.2,0.45-0.33,0.83-0.4,1.12c0.32-0.18,0.66-0.32,1.01-0.44c0.35-0.12,0.69-0.21,1.01-0.26C161.17,78.95,163.08,80.4,163.69,84.03
	L163.69,84.03z"/>
<path class="st1" d="M103.76,133.2H195c-5.05,15.65-8.35,32.06-10.35,48.63h-70.53C112.11,165.25,108.81,148.84,103.76,133.2
	L103.76,133.2z"/>
<path class="st2" d="M114.12,181.83h70.53c-1.97,16.24-2.69,32.64-2.6,48.63h-65.34C116.81,214.47,116.08,198.07,114.12,181.83
	L114.12,181.83z"/>
<path class="st3" d="M116.71,230.46h65.34c0.02,4.04,0.1,8.05,0.22,12.03c0.24,7.78,0.57,15.55,0.94,23.33
	c0.13,2.71,0.28,5.42,0.39,8.14c0.08,2.06-0.27,3.42-2.44,3.9c-1.39,0.31-3.28,0.44-4.7,0.56c-2.47,0.21-5.11,0.34-7.58,0.45
	c-2.28,0.1-4.57,0.17-6.86,0.23h-25.24c-2.29-0.05-4.58-0.13-6.86-0.23c-2.48-0.1-4.96-0.24-7.43-0.45
	c-1.42-0.12-3.51-0.25-4.9-0.56c-2.08-0.46-2.52-1.64-2.41-3.64c0.16-2.8,0.27-5.61,0.4-8.4c0.37-7.77,0.7-15.55,0.94-23.33
	C116.61,238.51,116.69,234.5,116.71,230.46L116.71,230.46z"/>
<path class="st4" d="M149.07,133.2H195c-5.05,15.65-8.35,32.06-10.35,48.63h-35.58V133.2L149.07,133.2z"/>
<path class="st5" d="M149.07,181.83h35.58c-1.97,16.24-2.69,32.64-2.6,48.63h-32.98V181.83L149.07,181.83z"/>
<path class="st6" d="M149.07,230.46h32.98c0.02,4.04,0.1,8.05,0.22,12.03c0.24,7.78,0.57,15.55,0.94,23.33
	c0.13,2.71,0.28,5.42,0.39,8.14c0.08,2.06-0.27,3.42-2.44,3.9c-1.39,0.31-3.28,0.44-4.7,0.56c-2.47,0.21-5.11,0.34-7.58,0.45
	c-2.28,0.1-4.57,0.17-6.86,0.23h-12.94V230.46L149.07,230.46z"/>
<path class="st7" d="M119.04,278c0.15-2.81,0.33-7.02,0.45-9.67c0.36-7.76,0.69-18.33,0.93-26.09
	c1.22-40.52-2.22-84.67-17.46-122.82h0.08h1.56h1.56h0.56c15.02,38.31,18.42,82.56,17.2,123.17c-0.23,7.83-0.56,18.48-0.92,26.31
	c-0.12,2.56-0.28,6.55-0.43,9.37c-0.8-0.05-1.61-0.12-2.41-0.18C119.81,278.06,119.43,278.03,119.04,278L119.04,278z"/>
<path class="st8" d="M160.3,255.36c0.17-0.13,0.35-0.23,0.54-0.29c0.19-0.06,0.37-0.09,0.54-0.09c0.27,0,0.5,0.06,0.71,0.17
	c0.21,0.12,0.36,0.3,0.46,0.55c0.03-0.08,0.06-0.13,0.07-0.16c0.02-0.03,0.06-0.09,0.11-0.18c0.08-0.14,0.22-0.21,0.44-0.21
	c0.21,0.01,0.42,0.05,0.62,0.14c0.2,0.09,0.37,0.2,0.52,0.34c0.14,0.14,0.18,0.27,0.12,0.4c-0.21,0.46-0.4,0.92-0.59,1.37
	c-0.18,0.45-0.33,0.88-0.47,1.27c-0.13,0.39-0.24,0.74-0.3,1.05c-0.07,0.31-0.09,0.54-0.07,0.7c0.02,0.09,0.06,0.13,0.11,0.14
	c0.05,0.01,0.1-0.01,0.16-0.05c0.06-0.04,0.12-0.09,0.17-0.15c0.06-0.06,0.1-0.11,0.13-0.14c0.22-0.24,0.46-0.56,0.71-0.96
	c0.25-0.4,0.49-0.81,0.73-1.24c0.23-0.43,0.45-0.83,0.64-1.22c0.19-0.39,0.34-0.69,0.45-0.91c0.02-0.05,0.07-0.08,0.14-0.08
	s0.14,0.01,0.2,0.04c0.07,0.03,0.13,0.07,0.17,0.12c0.05,0.05,0.07,0.1,0.04,0.15c-0.07,0.1-0.17,0.31-0.3,0.63
	c-0.14,0.32-0.3,0.7-0.49,1.12c-0.19,0.42-0.4,0.86-0.63,1.32c-0.23,0.46-0.47,0.88-0.73,1.27c-0.26,0.39-0.52,0.71-0.79,0.96
	c-0.27,0.25-0.53,0.38-0.8,0.38c-0.28,0-0.53-0.1-0.74-0.3c-0.21-0.2-0.35-0.46-0.42-0.79c-0.07,0.12-0.15,0.24-0.25,0.37
	c-0.1,0.13-0.21,0.24-0.33,0.34c-0.12,0.1-0.26,0.19-0.4,0.26c-0.15,0.07-0.31,0.11-0.48,0.12c-0.47,0-0.86-0.16-1.18-0.48
	c-0.23-0.23-0.38-0.55-0.44-0.96l-0.02,0.03c-0.25,0.39-0.51,0.72-0.77,0.98c-0.26,0.27-0.52,0.41-0.77,0.43
	c-0.44,0.04-0.78-0.08-1.01-0.36c-0.24-0.29-0.37-0.66-0.38-1.13c-0.1,0.19-0.21,0.37-0.33,0.54c-0.12,0.17-0.25,0.33-0.4,0.47
	c-0.14,0.14-0.29,0.25-0.45,0.34c-0.16,0.09-0.32,0.13-0.47,0.13c-0.13,0-0.27-0.02-0.43-0.07c-0.15-0.04-0.3-0.13-0.44-0.25
	c-0.14-0.12-0.26-0.29-0.36-0.52c-0.03-0.07-0.06-0.14-0.07-0.22c-0.2,0.27-0.4,0.5-0.6,0.69c-0.27,0.26-0.55,0.39-0.84,0.39
	c-0.2,0-0.38-0.03-0.56-0.08c-0.18-0.05-0.34-0.14-0.48-0.27c-0.13-0.13-0.25-0.3-0.33-0.51c-0.07-0.17-0.12-0.37-0.13-0.61
	l-0.02,0.03c-0.28,0.38-0.57,0.7-0.87,0.97c-0.3,0.26-0.6,0.42-0.89,0.46c-0.28,0.02-0.52,0-0.71-0.07
	c-0.19-0.07-0.33-0.17-0.45-0.31c-0.12-0.14-0.2-0.31-0.25-0.51c-0.05-0.2-0.07-0.41-0.07-0.64c0-0.35,0.06-0.74,0.16-1.16
	c0.1-0.42,0.2-0.84,0.3-1.25c0.07-0.3,0.08-0.5,0.04-0.62c-0.04-0.11-0.11-0.16-0.2-0.13c-0.1,0.03-0.21,0.11-0.33,0.25
	c-0.13,0.14-0.24,0.32-0.34,0.54c-0.1,0.22-0.2,0.47-0.31,0.74c-0.11,0.27-0.21,0.56-0.32,0.84c-0.11,0.29-0.2,0.57-0.28,0.85
	c-0.08,0.27-0.15,0.51-0.19,0.72c-0.04,0.21-0.14,0.39-0.28,0.56c-0.14,0.16-0.34,0.22-0.59,0.18c-0.08-0.01-0.17-0.05-0.24-0.11
	c-0.07-0.07-0.13-0.14-0.17-0.23c-0.04-0.09-0.07-0.18-0.1-0.28c-0.02-0.1-0.03-0.19-0.03-0.28c0-0.13,0.01-0.29,0.03-0.46
	l-0.02,0.03c-0.26,0.39-0.52,0.71-0.79,0.96c-0.27,0.25-0.54,0.38-0.8,0.38c-0.29,0-0.54-0.1-0.75-0.3
	c-0.21-0.2-0.35-0.46-0.42-0.79c-0.07,0.12-0.14,0.24-0.25,0.37c-0.1,0.13-0.2,0.24-0.33,0.34c-0.12,0.1-0.26,0.19-0.4,0.26
	c-0.14,0.07-0.31,0.11-0.48,0.12c-0.47,0-0.87-0.16-1.18-0.48c-0.28-0.28-0.43-0.68-0.47-1.21c-0.12,0.17-0.24,0.33-0.36,0.49
	c-0.28,0.36-0.57,0.65-0.86,0.87c-0.3,0.22-0.58,0.34-0.86,0.34c-0.31,0-0.52-0.07-0.64-0.21c-0.12-0.14-0.19-0.31-0.2-0.52
	c-0.02-0.21,0-0.43,0.03-0.66c0.04-0.23,0.06-0.45,0.07-0.66c0-0.2-0.03-0.37-0.11-0.5c-0.08-0.13-0.24-0.19-0.49-0.18
	c-0.12,0.12-0.22,0.23-0.31,0.32c-0.09,0.09-0.14,0.18-0.16,0.25c-0.06,0.12-0.09,0.26-0.11,0.43c-0.02,0.16-0.03,0.33-0.05,0.5
	c-0.01,0.17-0.04,0.33-0.07,0.48c-0.03,0.15-0.07,0.28-0.14,0.38c-0.08,0.12-0.2,0.21-0.33,0.27c-0.14,0.06-0.27,0.08-0.42,0.07
	c-0.14-0.01-0.27-0.06-0.4-0.14c-0.13-0.08-0.22-0.2-0.27-0.35c-0.06-0.39-0.05-0.9,0.03-1.51c0.07-0.61,0.2-1.27,0.36-1.98
	c0.17-0.71,0.36-1.44,0.58-2.2c0.23-0.75,0.47-1.48,0.73-2.16c0.26-0.69,0.51-1.32,0.77-1.89c0.26-0.57,0.5-1.02,0.72-1.35
	c0.05-0.07,0.13-0.12,0.21-0.16c0.09-0.04,0.18-0.06,0.27-0.06c0.17,0,0.36,0.03,0.56,0.09c0.2,0.06,0.36,0.14,0.51,0.25
	c0.14,0.11,0.24,0.23,0.29,0.37c0.06,0.14,0.03,0.28-0.07,0.44c-0.1,0.14-0.23,0.35-0.38,0.63c-0.16,0.28-0.33,0.6-0.51,0.96
	c-0.18,0.36-0.36,0.75-0.55,1.16c-0.19,0.41-0.36,0.81-0.53,1.21c-0.16,0.4-0.31,0.78-0.43,1.15c-0.13,0.37-0.22,0.68-0.27,0.94
	c0.11-0.12,0.24-0.27,0.39-0.43c0.14-0.17,0.3-0.36,0.47-0.57c0.16-0.21,0.33-0.44,0.48-0.68c0.16-0.25,0.3-0.52,0.44-0.81
	c0.07-0.14,0.16-0.2,0.3-0.18c0.13,0.02,0.27,0.09,0.42,0.2c0.14,0.12,0.27,0.26,0.38,0.43c0.11,0.17,0.17,0.33,0.18,0.47
	c0.01,0.16-0.03,0.34-0.14,0.53c-0.1,0.19-0.24,0.39-0.41,0.59c-0.17,0.2-0.36,0.41-0.59,0.62c-0.22,0.21-0.45,0.42-0.68,0.62
	c0.27,0.05,0.46,0.16,0.57,0.32c0.1,0.16,0.16,0.33,0.17,0.52c0.01,0.19,0,0.39-0.05,0.59c-0.04,0.2-0.07,0.38-0.08,0.52
	c-0.01,0.15,0,0.25,0.06,0.32c0.05,0.07,0.18,0.06,0.39-0.02c0.24-0.09,0.49-0.31,0.76-0.66c0.14-0.19,0.28-0.4,0.43-0.61
	c0.02-0.12,0.04-0.25,0.07-0.38c0.1-0.46,0.23-0.9,0.39-1.33c0.16-0.43,0.33-0.81,0.53-1.16c0.2-0.34,0.4-0.6,0.6-0.76
	c0.18-0.13,0.35-0.23,0.54-0.29c0.19-0.06,0.37-0.09,0.54-0.09c0.26,0,0.5,0.06,0.7,0.17c0.21,0.12,0.36,0.3,0.46,0.55
	c0.03-0.08,0.06-0.13,0.07-0.16c0.01-0.03,0.05-0.09,0.11-0.18c0.07-0.14,0.22-0.21,0.43-0.21c0.21,0.01,0.42,0.05,0.62,0.14
	c0.2,0.09,0.38,0.2,0.52,0.34c0.14,0.14,0.18,0.27,0.12,0.4c-0.21,0.46-0.4,0.92-0.58,1.37c-0.18,0.45-0.34,0.88-0.47,1.27
	c-0.14,0.39-0.24,0.74-0.31,1.05c-0.07,0.31-0.09,0.54-0.07,0.7c0.02,0.09,0.06,0.13,0.11,0.14c0.05,0.01,0.1-0.01,0.16-0.05
	c0.06-0.04,0.12-0.09,0.17-0.15c0.06-0.06,0.1-0.11,0.13-0.14c0.22-0.24,0.45-0.56,0.7-0.96c0.23-0.36,0.45-0.74,0.67-1.12
	c0.05-0.22,0.11-0.44,0.16-0.67c0.18-0.72,0.39-1.47,0.61-2.23c0.23-0.77,0.46-1.48,0.69-2.16c0.23-0.67,0.45-1.26,0.65-1.77
	c0.2-0.51,0.37-0.87,0.52-1.07c0.09-0.14,0.24-0.21,0.46-0.21c0.18,0,0.36,0.03,0.55,0.1c0.19,0.07,0.36,0.15,0.5,0.25
	c0.14,0.1,0.24,0.23,0.29,0.37c0.06,0.14,0.04,0.29-0.07,0.44c-0.07,0.1-0.18,0.33-0.35,0.69c-0.17,0.36-0.37,0.8-0.58,1.3
	c-0.22,0.51-0.45,1.06-0.68,1.67c-0.23,0.6-0.45,1.19-0.65,1.77c0.1-0.14,0.22-0.31,0.38-0.5c0.15-0.19,0.33-0.37,0.53-0.54
	c0.2-0.17,0.4-0.31,0.63-0.42c0.22-0.11,0.45-0.15,0.68-0.12c0.31,0.03,0.55,0.19,0.73,0.48c0.18,0.29,0.19,0.69,0.04,1.19
	c-0.07,0.21-0.14,0.45-0.22,0.71c-0.08,0.27-0.16,0.51-0.22,0.71c-0.15,0.45-0.29,0.87-0.41,1.28c-0.12,0.4-0.18,0.73-0.18,0.98
	c0,0.03,0.01,0.07,0.03,0.12c0.02,0.05,0.06,0.07,0.12,0.07c0.09,0,0.25-0.11,0.47-0.32c0.23-0.21,0.5-0.52,0.8-0.93
	c0.09-0.12,0.19-0.26,0.28-0.4c0.02-0.12,0.03-0.23,0.06-0.36c0.1-0.61,0.23-1.26,0.39-1.94c0.16-0.68,0.35-1.37,0.56-2.07
	c0.21-0.69,0.41-1.34,0.62-1.93c0.21-0.59,0.4-1.1,0.58-1.53c0.17-0.43,0.32-0.73,0.42-0.89c0.09-0.14,0.24-0.21,0.46-0.21
	c0.17,0,0.36,0.03,0.55,0.1c0.19,0.07,0.36,0.15,0.5,0.25c0.14,0.1,0.24,0.23,0.3,0.37c0.06,0.14,0.03,0.29-0.07,0.44
	c-0.09,0.12-0.23,0.4-0.42,0.84c-0.19,0.44-0.41,0.97-0.65,1.59c-0.24,0.62-0.49,1.28-0.74,1.98c-0.25,0.71-0.47,1.38-0.67,2.03
	c-0.19,0.65-0.34,1.23-0.43,1.75c-0.1,0.51-0.12,0.88-0.05,1.1c0.02,0.07,0.07,0.1,0.13,0.12c0.06,0.01,0.12,0,0.17-0.03
	c0.17-0.11,0.38-0.31,0.62-0.61c0.16-0.2,0.32-0.42,0.49-0.67c0.02-0.18,0.05-0.37,0.08-0.56c0.09-0.48,0.2-0.95,0.33-1.42
	c0.14-0.47,0.28-0.89,0.44-1.27c0.15-0.38,0.29-0.67,0.41-0.85c0.15-0.19,0.35-0.28,0.59-0.28c0.16,0,0.33,0.02,0.49,0.07
	c0.16,0.05,0.3,0.12,0.42,0.21c0.11,0.09,0.19,0.2,0.22,0.34c0.03,0.14,0,0.29-0.1,0.47c-0.1,0.18-0.22,0.45-0.37,0.78
	c-0.15,0.33-0.29,0.7-0.44,1.09c-0.14,0.39-0.27,0.79-0.39,1.18c-0.12,0.39-0.2,0.74-0.23,1.05c-0.04,0.28,0,0.45,0.13,0.51
	c0.13,0.05,0.28-0.08,0.47-0.41c0.14-0.24,0.29-0.55,0.45-0.93c0.16-0.38,0.32-0.78,0.47-1.19c0.16-0.41,0.31-0.81,0.46-1.21
	c0.15-0.39,0.27-0.73,0.37-1c0.06-0.16,0.11-0.31,0.15-0.43c0.04-0.12,0.08-0.2,0.12-0.25c0.12-0.19,0.31-0.28,0.56-0.28
	c0.16,0,0.33,0.02,0.5,0.06c0.17,0.04,0.32,0.1,0.44,0.17c0.12,0.08,0.2,0.17,0.24,0.29c0.05,0.12,0.02,0.27-0.07,0.44
	c-0.1,0.17-0.21,0.41-0.35,0.71c-0.14,0.3-0.28,0.63-0.42,0.98c-0.14,0.35-0.27,0.72-0.38,1.08c-0.11,0.37-0.19,0.71-0.23,1.02
	c0,0.03,0,0.1-0.01,0.19c-0.01,0.09-0.02,0.19-0.02,0.29c0,0.1,0.01,0.19,0.04,0.26c0.03,0.08,0.07,0.12,0.14,0.13
	c0.11,0,0.26-0.08,0.46-0.25c0.2-0.16,0.42-0.43,0.69-0.8c0.11-0.15,0.22-0.33,0.33-0.52c0.02-0.12,0.05-0.25,0.07-0.38
	c0.1-0.46,0.23-0.9,0.39-1.33c0.16-0.43,0.33-0.81,0.53-1.16C159.89,255.77,160.09,255.52,160.3,255.36L160.3,255.36z
	 M141.24,256.86c0-0.03,0-0.08,0-0.16c-0.01-0.07-0.02-0.14-0.04-0.2c-0.01-0.07-0.04-0.13-0.07-0.18
	c-0.03-0.05-0.06-0.08-0.11-0.08c-0.13,0-0.27,0.1-0.43,0.3c-0.16,0.2-0.31,0.46-0.46,0.76c-0.14,0.31-0.28,0.65-0.42,1.02
	c-0.13,0.37-0.23,0.72-0.31,1.05c-0.02,0.1-0.05,0.23-0.08,0.41c-0.03,0.17-0.05,0.35-0.06,0.52c0,0.17,0.01,0.32,0.04,0.44
	c0.03,0.13,0.11,0.19,0.21,0.19c0.14,0,0.28-0.08,0.43-0.24c0.14-0.16,0.27-0.36,0.4-0.62c0.13-0.25,0.24-0.53,0.35-0.84
	c0.11-0.3,0.2-0.61,0.29-0.91c0.08-0.3,0.14-0.58,0.19-0.84C141.22,257.23,141.24,257.02,141.24,256.86L141.24,256.86z
	 M156.84,254.01c-0.23,0.19-0.41,0.28-0.54,0.3c-0.13,0.01-0.22-0.03-0.27-0.12c-0.05-0.09-0.07-0.22-0.06-0.39
	c0.01-0.16,0.04-0.33,0.08-0.49c0.04-0.21,0.13-0.43,0.25-0.66c0.13-0.23,0.27-0.44,0.44-0.62c0.16-0.17,0.34-0.29,0.55-0.35
	c0.2-0.06,0.41-0.02,0.63,0.11c0.21,0.14,0.36,0.27,0.45,0.39c0.09,0.12,0.13,0.23,0.13,0.33c0,0.1-0.03,0.19-0.1,0.27
	c-0.07,0.08-0.14,0.15-0.23,0.2c-0.17,0.12-0.32,0.23-0.44,0.32c-0.12,0.09-0.25,0.2-0.39,0.32l-0.51,0.39H156.84L156.84,254.01z
	 M162.06,256.86c0-0.03,0-0.08-0.01-0.16c0-0.07-0.01-0.14-0.03-0.2c-0.01-0.07-0.04-0.13-0.07-0.18c-0.03-0.05-0.07-0.08-0.11-0.08
	c-0.13,0-0.27,0.1-0.43,0.3c-0.16,0.2-0.31,0.46-0.46,0.76c-0.15,0.31-0.29,0.65-0.42,1.02c-0.13,0.37-0.24,0.72-0.31,1.05
	c-0.02,0.1-0.05,0.23-0.08,0.41c-0.04,0.17-0.06,0.35-0.06,0.52c0,0.17,0.01,0.32,0.04,0.44c0.03,0.13,0.1,0.19,0.21,0.19
	c0.14,0,0.28-0.08,0.42-0.24c0.14-0.16,0.28-0.36,0.4-0.62c0.13-0.25,0.24-0.53,0.35-0.84c0.11-0.3,0.2-0.61,0.28-0.91
	c0.08-0.3,0.14-0.58,0.19-0.84C162.03,257.23,162.06,257.02,162.06,256.86L162.06,256.86z"/>
<path class="st8" d="M164.75,208.63c-0.19-0.63-0.21-1.17-0.07-1.6c0.14-0.43,0.37-0.77,0.67-1c0.31-0.23,0.66-0.37,1.05-0.42
	c0.39-0.04,0.74,0,1.07,0.15c0.23,0.1,0.41,0.24,0.55,0.44c0.14,0.19,0.23,0.4,0.28,0.62c0.05,0.22,0.05,0.45,0.01,0.68
	c-0.04,0.23-0.11,0.43-0.22,0.61c-0.07,0.11-0.16,0.18-0.28,0.21c-0.12,0.03-0.25,0.05-0.39,0.04c-0.14,0-0.27-0.03-0.4-0.07
	c-0.13-0.04-0.22-0.09-0.28-0.13c-0.08-0.05-0.12-0.12-0.12-0.2c0-0.08,0.02-0.16,0.06-0.24c0.12-0.2,0.13-0.35,0.01-0.46
	c-0.08-0.09-0.2-0.1-0.34-0.04c-0.14,0.06-0.22,0.2-0.24,0.42c0,0.26,0.05,0.54,0.14,0.84c0.1,0.3,0.21,0.59,0.34,0.89
	c0.13,0.3,0.26,0.59,0.38,0.87c0.12,0.28,0.2,0.53,0.23,0.76v0.23c0.47-0.38,0.97-0.94,1.51-1.66c0.54-0.73,1.03-1.69,1.47-2.88
	c0.01-0.04,0.05-0.07,0.12-0.07c0.07-0.01,0.13,0,0.2,0.02c0.07,0.02,0.12,0.06,0.17,0.1c0.04,0.04,0.06,0.09,0.05,0.13
	c-0.15,0.35-0.35,0.8-0.6,1.36c-0.24,0.56-0.55,1.12-0.93,1.7c-0.38,0.57-0.83,1.11-1.35,1.61c-0.52,0.5-1.13,0.86-1.83,1.09
	c-0.23,0.1-0.49,0.16-0.79,0.2c-0.27,0.02-0.51,0.02-0.7-0.02c-0.19-0.03-0.35-0.09-0.47-0.16c-0.13-0.08-0.22-0.17-0.28-0.28
	c-0.06-0.11-0.09-0.22-0.09-0.34c-0.01-0.17,0.03-0.33,0.13-0.45c0.1-0.13,0.21-0.21,0.33-0.25c0.13-0.04,0.25-0.04,0.36,0.02
	c0.12,0.05,0.19,0.18,0.22,0.38c0.02,0.12,0.09,0.18,0.21,0.18c0.18,0,0.3-0.07,0.36-0.2c0.07-0.14,0.09-0.31,0.08-0.53
	c-0.01-0.21-0.05-0.45-0.11-0.7c-0.06-0.25-0.13-0.5-0.2-0.74c-0.07-0.24-0.14-0.46-0.21-0.66
	C164.82,208.86,164.77,208.72,164.75,208.63L164.75,208.63z M132.47,211.17c0.02,0.13,0.09,0.22,0.21,0.28
	c0.12,0.06,0.24,0.06,0.36,0c0.24-0.08,0.49-0.34,0.75-0.79c0.26-0.45,0.48-1.03,0.66-1.71c-0.2-0.2-0.34-0.43-0.44-0.71
	c-0.1-0.28-0.15-0.54-0.15-0.8c0-0.13,0.02-0.27,0.06-0.43c0.04-0.15,0.09-0.3,0.17-0.43c0.07-0.13,0.17-0.24,0.27-0.33
	c0.11-0.09,0.24-0.15,0.38-0.16c0.24-0.01,0.47,0.05,0.67,0.17c0.2,0.13,0.37,0.31,0.49,0.54c0.13,0.24,0.21,0.51,0.26,0.82
	c0.04,0.31,0.03,0.64-0.03,0.99c0.17,0.01,0.37-0.01,0.58-0.07c0.21-0.06,0.42-0.17,0.63-0.32c0.04-0.03,0.07-0.06,0.11-0.09
	l0.03-0.08c0.16-0.43,0.34-0.81,0.54-1.16c0.2-0.34,0.4-0.6,0.61-0.76c0.17-0.13,0.35-0.23,0.54-0.29c0.19-0.06,0.37-0.09,0.54-0.09
	c0.27,0,0.5,0.06,0.71,0.17c0.2,0.12,0.36,0.3,0.46,0.55c0.04-0.08,0.06-0.13,0.07-0.16c0.02-0.03,0.06-0.09,0.11-0.18
	c0.08-0.14,0.22-0.21,0.44-0.21c0.21,0.01,0.42,0.05,0.62,0.14c0.2,0.09,0.37,0.2,0.52,0.34c0.14,0.14,0.18,0.27,0.11,0.4
	c-0.2,0.46-0.4,0.92-0.58,1.37c-0.18,0.45-0.34,0.88-0.47,1.27c-0.13,0.39-0.24,0.74-0.3,1.05c-0.07,0.31-0.09,0.54-0.07,0.7
	c0.02,0.09,0.06,0.13,0.11,0.14c0.05,0.01,0.1-0.01,0.16-0.05c0.06-0.04,0.12-0.09,0.17-0.15c0.06-0.06,0.1-0.11,0.13-0.14
	c0.22-0.24,0.46-0.56,0.71-0.96c0.25-0.4,0.49-0.81,0.73-1.24l0.06-0.11c0.03-0.12,0.06-0.24,0.09-0.35
	c0.12-0.43,0.25-0.84,0.39-1.22c0.13-0.38,0.27-0.69,0.4-0.92c0.1-0.19,0.27-0.29,0.53-0.32c0.25-0.03,0.49,0.01,0.72,0.11
	c0.23,0.1,0.41,0.24,0.54,0.43c0.14,0.19,0.14,0.41,0,0.65c-0.1,0.2-0.22,0.44-0.37,0.73c-0.15,0.29-0.29,0.6-0.43,0.93
	c-0.14,0.33-0.27,0.67-0.37,1.02c-0.1,0.35-0.17,0.67-0.2,0.97c0,0.05,0,0.12,0,0.19c0,0.07,0.01,0.14,0.03,0.21
	c0.01,0.07,0.04,0.13,0.07,0.19c0.04,0.05,0.08,0.09,0.15,0.1c0.13,0,0.29-0.08,0.47-0.24c0.19-0.16,0.38-0.37,0.58-0.64
	c0.2-0.27,0.41-0.57,0.63-0.92c0.13-0.21,0.25-0.42,0.37-0.63c0.09-0.5,0.2-1.01,0.33-1.55c0.17-0.68,0.35-1.37,0.56-2.07
	c0.21-0.69,0.42-1.34,0.62-1.93c0.21-0.59,0.4-1.1,0.58-1.53c0.17-0.43,0.32-0.73,0.42-0.89c0.09-0.14,0.24-0.21,0.46-0.21
	c0.18,0,0.36,0.03,0.55,0.1c0.19,0.07,0.36,0.15,0.5,0.25c0.14,0.1,0.24,0.23,0.29,0.37c0.06,0.14,0.03,0.29-0.07,0.44
	c-0.09,0.12-0.23,0.4-0.42,0.84c-0.19,0.44-0.4,0.97-0.65,1.59c-0.24,0.62-0.49,1.28-0.74,1.98c-0.25,0.71-0.47,1.38-0.67,2.03
	c-0.19,0.65-0.33,1.23-0.43,1.75c-0.1,0.51-0.12,0.88-0.05,1.1c0.02,0.07,0.07,0.1,0.13,0.12c0.06,0.01,0.12,0,0.17-0.03
	c0.17-0.11,0.38-0.31,0.62-0.61c0.15-0.18,0.3-0.39,0.46-0.62v0c0-0.46,0.07-0.95,0.2-1.47c0.14-0.52,0.34-0.99,0.6-1.43
	c0.27-0.43,0.58-0.79,0.96-1.08c0.37-0.29,0.81-0.43,1.3-0.43c0.2,0,0.4,0.04,0.6,0.11c0.2,0.07,0.38,0.18,0.54,0.32
	c0.15,0.14,0.28,0.32,0.39,0.55c0.1,0.22,0.15,0.49,0.15,0.8c-0.02,0.58-0.14,1.06-0.37,1.44c-0.22,0.38-0.5,0.69-0.83,0.92
	c-0.33,0.23-0.67,0.39-1.04,0.48c-0.37,0.09-0.7,0.14-1.01,0.14c-0.02,0.14-0.01,0.29,0.03,0.43c0.04,0.15,0.1,0.28,0.18,0.39
	c0.08,0.12,0.19,0.21,0.31,0.28c0.13,0.07,0.27,0.11,0.44,0.11c0.28,0,0.6-0.13,0.97-0.39c0.36-0.26,0.73-0.62,1.11-1.07
	c0.28-0.34,0.55-0.71,0.83-1.13c0.07-0.29,0.14-0.58,0.23-0.87c0.1-0.35,0.2-0.67,0.3-0.98c0.11-0.31,0.21-0.57,0.31-0.8
	c0.11-0.23,0.2-0.4,0.27-0.51c0.07-0.09,0.15-0.15,0.27-0.18c0.11-0.03,0.22-0.04,0.33-0.02c0.16,0.01,0.33,0.04,0.49,0.1
	c0.16,0.05,0.3,0.13,0.42,0.22c0.11,0.09,0.19,0.2,0.22,0.32c0.03,0.12,0,0.26-0.1,0.41c-0.1,0.16-0.23,0.42-0.4,0.76
	c-0.16,0.35-0.33,0.72-0.49,1.13c-0.17,0.41-0.32,0.82-0.45,1.24c-0.14,0.42-0.23,0.78-0.29,1.08c-0.04,0.22-0.04,0.37,0,0.46
	c0.04,0.09,0.09,0.13,0.15,0.13c0.16,0,0.32-0.12,0.47-0.34c0.15-0.23,0.31-0.53,0.46-0.89c0.15-0.37,0.3-0.77,0.44-1.21
	c0.14-0.44,0.29-0.87,0.43-1.3c0.15-0.42,0.29-0.8,0.43-1.15c0.13-0.34,0.27-0.6,0.42-0.76c0.07-0.09,0.17-0.14,0.29-0.17
	c0.12-0.03,0.24-0.03,0.36-0.01c0.14,0.02,0.29,0.06,0.45,0.12c0.16,0.05,0.3,0.13,0.42,0.23c0.12,0.1,0.2,0.21,0.24,0.34
	c0.04,0.13,0.01,0.27-0.09,0.43c-0.2,0.31-0.39,0.66-0.56,1.05c-0.18,0.39-0.34,0.8-0.49,1.21c-0.15,0.42-0.3,0.83-0.44,1.24
	c-0.14,0.41-0.27,0.78-0.4,1.11c-0.02,0.07-0.05,0.16-0.09,0.28c-0.04,0.12-0.07,0.21-0.09,0.26c0.32-0.19,0.65-0.47,1-0.84
	c0.35-0.37,0.7-0.8,1.04-1.29c0.34-0.49,0.67-1.01,0.99-1.56c0.31-0.55,0.59-1.11,0.83-1.66c0.03-0.04,0.08-0.07,0.15-0.07
	c0.07-0.01,0.14,0,0.21,0.03c0.07,0.03,0.13,0.07,0.17,0.12c0.04,0.05,0.06,0.1,0.05,0.14c-0.19,0.46-0.45,0.99-0.77,1.61
	c-0.33,0.61-0.71,1.22-1.13,1.81c-0.43,0.6-0.89,1.15-1.39,1.66c-0.5,0.51-1.01,0.89-1.54,1.16c-0.04,0.12-0.09,0.25-0.14,0.39
	c-0.05,0.14-0.09,0.27-0.12,0.39c-0.11,0.3-0.24,0.6-0.4,0.88c-0.16,0.28-0.34,0.52-0.55,0.74c-0.2,0.21-0.44,0.39-0.69,0.52
	c-0.26,0.13-0.54,0.2-0.85,0.2c-0.38,0-0.68-0.11-0.9-0.33c-0.22-0.22-0.33-0.48-0.33-0.79c0-0.33,0.07-0.63,0.23-0.89
	c0.15-0.27,0.35-0.51,0.6-0.71c0.24-0.21,0.52-0.39,0.82-0.54c0.3-0.15,0.6-0.27,0.89-0.36c0.01-0.07,0.03-0.15,0.06-0.24
	c0.03-0.09,0.06-0.18,0.08-0.25c0.03-0.08,0.05-0.14,0.06-0.18c0.01-0.04,0.01-0.05,0-0.03c-0.07,0.16-0.16,0.29-0.25,0.39
	c-0.09,0.09-0.18,0.16-0.27,0.21c-0.08,0.05-0.15,0.08-0.22,0.09c-0.07,0.01-0.12,0.02-0.15,0.02c-0.41,0-0.74-0.14-0.96-0.43
	c-0.22-0.28-0.34-0.67-0.35-1.16c-0.01-0.19,0-0.41,0.04-0.67c-0.29,0.4-0.6,0.76-0.93,1.09c-0.34,0.34-0.7,0.63-1.07,0.84
	c-0.37,0.22-0.74,0.33-1.11,0.34c-0.3,0-0.56-0.06-0.8-0.19c-0.24-0.13-0.45-0.3-0.63-0.52c-0.13-0.17-0.25-0.36-0.34-0.58
	c-0.23,0.35-0.48,0.65-0.74,0.89c-0.27,0.26-0.55,0.39-0.84,0.39c-0.2,0-0.38-0.03-0.56-0.08c-0.18-0.05-0.34-0.14-0.47-0.27
	c-0.14-0.13-0.25-0.29-0.34-0.51c-0.08-0.21-0.14-0.48-0.14-0.8c0-0.06,0-0.13,0-0.2c-0.12,0.2-0.25,0.38-0.38,0.56
	c-0.28,0.37-0.58,0.68-0.89,0.93c-0.32,0.24-0.64,0.37-0.97,0.37c-0.27,0-0.51-0.04-0.69-0.13c-0.19-0.09-0.34-0.21-0.45-0.37
	c-0.12-0.16-0.2-0.34-0.25-0.55c-0.05-0.21-0.07-0.44-0.07-0.69v-0.02c-0.08,0.14-0.17,0.27-0.26,0.4
	c-0.26,0.39-0.52,0.71-0.79,0.96c-0.27,0.25-0.54,0.38-0.8,0.38c-0.28,0-0.54-0.1-0.74-0.3c-0.21-0.2-0.35-0.46-0.42-0.79
	c-0.07,0.12-0.15,0.24-0.25,0.37c-0.1,0.13-0.21,0.24-0.33,0.34c-0.12,0.1-0.25,0.19-0.4,0.26c-0.15,0.07-0.31,0.11-0.48,0.12
	c-0.47,0-0.87-0.16-1.18-0.48c-0.32-0.32-0.47-0.81-0.47-1.45c0-0.39,0.05-0.82,0.15-1.28c0.01-0.07,0.03-0.15,0.05-0.22
	c-0.14,0.08-0.29,0.15-0.44,0.21c-0.29,0.11-0.56,0.15-0.79,0.13c-0.12,0.35-0.27,0.71-0.46,1.07c-0.19,0.37-0.4,0.7-0.64,1
	c-0.24,0.3-0.5,0.55-0.78,0.74c-0.28,0.19-0.57,0.29-0.87,0.29c-0.19,0-0.37-0.04-0.56-0.12c-0.19-0.08-0.33-0.19-0.41-0.34
	c-0.08,0.18-0.17,0.31-0.27,0.37c-0.1,0.06-0.2,0.09-0.31,0.09c-0.22,0-0.42-0.07-0.6-0.2c-0.19-0.13-0.27-0.34-0.25-0.62
	c0.04-0.37,0.13-0.87,0.27-1.49c0.13-0.62,0.3-1.29,0.5-2.03c0.2-0.73,0.41-1.48,0.65-2.25c0.23-0.77,0.47-1.5,0.69-2.17
	c0.22-0.68,0.43-1.27,0.63-1.77c0.2-0.5,0.36-0.85,0.49-1.05c0.09-0.14,0.24-0.21,0.46-0.21c0.18,0,0.36,0.03,0.55,0.1
	c0.19,0.07,0.36,0.15,0.5,0.25c0.14,0.1,0.24,0.23,0.29,0.37c0.06,0.14,0.03,0.29-0.07,0.44c-0.04,0.07-0.16,0.31-0.34,0.75
	c-0.19,0.43-0.4,0.96-0.66,1.57c-0.25,0.62-0.51,1.29-0.79,2.02c-0.27,0.73-0.52,1.42-0.75,2.07c-0.22,0.66-0.4,1.24-0.55,1.75
	C132.51,210.64,132.45,210.99,132.47,211.17L132.47,211.17z M140.38,207.64c0-0.03,0-0.08-0.01-0.15c0-0.07-0.02-0.14-0.03-0.2
	c-0.02-0.07-0.04-0.13-0.07-0.18c-0.03-0.05-0.07-0.08-0.11-0.08c-0.13,0-0.27,0.1-0.44,0.3c-0.16,0.2-0.31,0.46-0.46,0.76
	c-0.15,0.31-0.29,0.64-0.42,1.02c-0.13,0.37-0.24,0.72-0.31,1.05c-0.02,0.1-0.05,0.23-0.08,0.41c-0.03,0.17-0.05,0.35-0.06,0.52
	c0,0.17,0.01,0.32,0.04,0.44c0.03,0.13,0.1,0.19,0.21,0.19c0.14,0,0.28-0.08,0.42-0.24c0.14-0.16,0.27-0.36,0.4-0.62
	c0.13-0.25,0.24-0.53,0.35-0.84c0.11-0.31,0.2-0.61,0.29-0.91c0.08-0.3,0.14-0.58,0.19-0.85
	C140.35,208.01,140.38,207.8,140.38,207.64L140.38,207.64z M146.44,205.09c-0.1,0.09-0.23,0.13-0.39,0.12
	c-0.16,0-0.31-0.05-0.46-0.13c-0.15-0.08-0.27-0.2-0.35-0.35c-0.09-0.15-0.11-0.33-0.05-0.54c0.03-0.11,0.07-0.24,0.11-0.38
	c0.04-0.15,0.08-0.3,0.13-0.44c0.05-0.15,0.1-0.29,0.16-0.42c0.06-0.13,0.11-0.24,0.16-0.31c0.07-0.07,0.13-0.12,0.2-0.15
	c0.07-0.03,0.15-0.05,0.25-0.07c0.17-0.01,0.34,0.02,0.53,0.08c0.19,0.07,0.35,0.16,0.5,0.27c0.14,0.11,0.26,0.25,0.33,0.39
	c0.07,0.15,0.07,0.29,0.01,0.42L146.44,205.09L146.44,205.09z M152.58,207.24c-0.1,0.05-0.21,0.16-0.34,0.33
	c-0.14,0.17-0.27,0.36-0.4,0.6c-0.13,0.24-0.25,0.49-0.36,0.77c-0.11,0.28-0.19,0.56-0.24,0.84c0.18-0.02,0.37-0.1,0.56-0.23
	c0.19-0.13,0.37-0.29,0.53-0.48c0.16-0.19,0.29-0.41,0.4-0.66c0.11-0.25,0.18-0.5,0.2-0.75c0.01-0.13,0-0.23-0.03-0.29
	c-0.03-0.06-0.06-0.1-0.1-0.13c-0.04-0.03-0.07-0.04-0.11-0.03C152.64,207.22,152.61,207.23,152.58,207.24L152.58,207.24z
	 M156.28,213.78c-0.23,0.08-0.42,0.17-0.57,0.29c-0.15,0.12-0.27,0.24-0.36,0.35c-0.08,0.11-0.14,0.22-0.15,0.3
	c-0.02,0.09,0.01,0.15,0.07,0.18c0.03,0.02,0.08,0.03,0.15,0.02c0.07-0.01,0.15-0.04,0.25-0.12c0.09-0.07,0.19-0.19,0.3-0.35
	C156.07,214.3,156.18,214.07,156.28,213.78L156.28,213.78z M165.52,200.76c-0.13,0.43-0.29,0.77-0.48,1.02
	c-0.19,0.25-0.31,0.4-0.35,0.44c-0.09,0.09-0.19,0.14-0.32,0.14c-0.13,0.01-0.24-0.04-0.33-0.12c-0.07-0.07-0.12-0.14-0.16-0.23
	c-0.04-0.09-0.06-0.19-0.03-0.31c0.02-0.15,0.04-0.29,0.07-0.41c0.02-0.12,0.06-0.3,0.12-0.53l0.1-0.48
	c0.02-0.11,0.08-0.19,0.18-0.25c0.1-0.05,0.2-0.09,0.33-0.1c0.12-0.01,0.25,0,0.38,0.03c0.13,0.03,0.24,0.09,0.33,0.16
	C165.54,200.3,165.61,200.51,165.52,200.76L165.52,200.76z"/>
<path class="st0" d="M169.14,158.92c-0.1,0.19-0.22,0.45-0.37,0.78c-0.14,0.33-0.29,0.7-0.43,1.09c-0.14,0.39-0.27,0.79-0.4,1.18
	c-0.12,0.39-0.2,0.74-0.23,1.05c-0.05,0.28,0,0.45,0.12,0.51c0.13,0.05,0.28-0.08,0.47-0.41c0.14-0.24,0.29-0.55,0.45-0.93
	c0.16-0.38,0.32-0.78,0.47-1.19c0.16-0.41,0.31-0.81,0.46-1.21c0.15-0.39,0.27-0.73,0.37-1c0.06-0.16,0.1-0.31,0.15-0.43
	c0.04-0.12,0.08-0.2,0.11-0.25c0.12-0.19,0.31-0.28,0.56-0.28c0.17,0,0.33,0.02,0.5,0.06c0.17,0.04,0.31,0.1,0.43,0.17
	s0.2,0.17,0.25,0.3c0.05,0.12,0.02,0.27-0.07,0.44c-0.1,0.17-0.21,0.41-0.35,0.71c-0.13,0.3-0.27,0.63-0.42,0.98
	c-0.14,0.35-0.27,0.72-0.38,1.08c-0.11,0.37-0.19,0.71-0.23,1.02c0,0.03,0,0.1-0.02,0.19c-0.01,0.09-0.01,0.19-0.01,0.29
	c0,0.1,0.01,0.19,0.04,0.26c0.03,0.08,0.07,0.12,0.14,0.13c0.11,0,0.26-0.08,0.46-0.25c0.2-0.16,0.43-0.43,0.69-0.8
	c0.27-0.37,0.55-0.85,0.86-1.44c0.31-0.59,0.62-1.31,0.95-2.17c0.02-0.05,0.07-0.09,0.13-0.1c0.07-0.01,0.13-0.01,0.2,0.02
	c0.07,0.02,0.12,0.06,0.16,0.11c0.04,0.05,0.06,0.1,0.05,0.16c-0.06,0.11-0.15,0.32-0.27,0.64c-0.13,0.32-0.28,0.68-0.46,1.1
	c-0.18,0.42-0.39,0.85-0.62,1.31c-0.23,0.46-0.47,0.88-0.72,1.27c-0.25,0.39-0.51,0.72-0.77,0.98c-0.27,0.27-0.52,0.41-0.77,0.43
	c-0.44,0.04-0.78-0.08-1.02-0.36c-0.24-0.29-0.36-0.66-0.38-1.13c-0.1,0.19-0.2,0.37-0.33,0.54c-0.12,0.18-0.25,0.33-0.4,0.47
	c-0.14,0.14-0.29,0.25-0.45,0.33c-0.16,0.09-0.31,0.13-0.47,0.13c-0.13,0-0.27-0.02-0.43-0.07c-0.15-0.04-0.3-0.13-0.44-0.25
	c-0.14-0.12-0.27-0.3-0.36-0.52c-0.07-0.15-0.11-0.33-0.14-0.55l-0.04,0.05c-0.26,0.39-0.52,0.71-0.79,0.96
	c-0.27,0.25-0.53,0.38-0.8,0.38c-0.28,0-0.53-0.1-0.74-0.3c-0.21-0.2-0.35-0.46-0.42-0.79c-0.07,0.12-0.15,0.24-0.25,0.37
	c-0.1,0.13-0.21,0.24-0.33,0.34c-0.12,0.1-0.26,0.19-0.4,0.26c-0.15,0.07-0.31,0.11-0.48,0.12c-0.47,0-0.87-0.16-1.18-0.48
	c-0.32-0.32-0.47-0.81-0.47-1.45c0-0.09,0-0.19,0.01-0.28c-0.28,0.38-0.59,0.73-0.9,1.05c-0.34,0.34-0.7,0.63-1.07,0.84
	c-0.37,0.22-0.74,0.33-1.11,0.34c-0.3,0-0.56-0.06-0.8-0.19c-0.24-0.13-0.45-0.3-0.63-0.52c-0.18-0.22-0.32-0.49-0.42-0.79
	c-0.05-0.15-0.08-0.3-0.11-0.46c-0.15,0.21-0.3,0.42-0.46,0.62c-0.3,0.38-0.6,0.7-0.9,0.95c-0.3,0.25-0.58,0.38-0.85,0.38
	c-0.22,0-0.41-0.06-0.59-0.18c-0.17-0.12-0.32-0.28-0.43-0.47c-0.12-0.19-0.2-0.41-0.26-0.66c-0.06-0.25-0.09-0.51-0.09-0.78
	c0-0.26,0.03-0.54,0.07-0.83c0.05-0.29,0.12-0.58,0.2-0.86c0.08-0.28,0.18-0.56,0.29-0.82c0.11-0.26,0.22-0.5,0.33-0.72
	c-0.22-0.01-0.44-0.04-0.66-0.1l-0.01,0c-0.05,0.09-0.09,0.2-0.15,0.32c-0.13,0.31-0.3,0.68-0.49,1.1c-0.19,0.42-0.4,0.86-0.63,1.32
	c-0.23,0.46-0.47,0.89-0.72,1.28c-0.26,0.39-0.51,0.72-0.76,0.98c-0.25,0.26-0.5,0.39-0.74,0.4c-0.46,0.02-0.82-0.1-1.08-0.36
	c-0.26-0.26-0.42-0.64-0.47-1.13c-0.02-0.16-0.03-0.34-0.03-0.53c-0.13,0.21-0.26,0.41-0.4,0.6c-0.27,0.38-0.55,0.71-0.84,0.97
	c-0.28,0.26-0.57,0.42-0.85,0.46c-0.26,0.02-0.48,0-0.67-0.07c-0.18-0.07-0.33-0.17-0.43-0.31c-0.11-0.14-0.19-0.31-0.24-0.51
	c-0.05-0.2-0.07-0.41-0.07-0.64c0-0.35,0.05-0.74,0.15-1.16c0.11-0.42,0.2-0.84,0.29-1.25c0.07-0.3,0.08-0.5,0.04-0.62
	c-0.04-0.12-0.11-0.16-0.2-0.13c-0.1,0.03-0.21,0.11-0.33,0.25c-0.13,0.14-0.24,0.32-0.34,0.54c-0.1,0.22-0.2,0.47-0.33,0.75
	c-0.12,0.28-0.23,0.56-0.34,0.85c-0.1,0.29-0.2,0.57-0.29,0.84c-0.09,0.27-0.16,0.51-0.2,0.72c-0.04,0.2-0.13,0.38-0.28,0.54
	c-0.14,0.16-0.35,0.22-0.62,0.18c-0.2-0.02-0.34-0.13-0.43-0.34s-0.14-0.38-0.14-0.55c0-0.17,0.01-0.37,0.04-0.59
	c-0.05,0.07-0.1,0.14-0.14,0.2c-0.28,0.37-0.58,0.68-0.89,0.93c-0.32,0.24-0.64,0.36-0.97,0.36c-0.27,0-0.51-0.04-0.69-0.13
	c-0.19-0.09-0.34-0.21-0.45-0.37c-0.12-0.16-0.2-0.34-0.25-0.55c-0.05-0.21-0.07-0.44-0.07-0.69c0-0.36,0.04-0.76,0.12-1.21
	l0.01-0.06c-0.05,0.03-0.1,0.06-0.15,0.09c-0.31,0.18-0.62,0.26-0.91,0.24c-0.22,0.82-0.55,1.49-0.99,2.02
	c-0.45,0.53-0.98,0.79-1.6,0.79c-0.24,0-0.5-0.06-0.77-0.18c-0.36-0.19-0.62-0.48-0.8-0.89c-0.17-0.4-0.25-0.86-0.25-1.38v-0.02
	l-0.07,0.1c-0.3,0.42-0.61,0.79-0.94,1.11c-0.33,0.33-0.66,0.6-1,0.8c-0.34,0.21-0.69,0.31-1.03,0.31c-0.35,0-0.65-0.07-0.89-0.2
	c-0.25-0.14-0.45-0.32-0.61-0.55c-0.16-0.23-0.28-0.49-0.36-0.78c-0.08-0.29-0.12-0.59-0.12-0.91c0-0.54,0.08-1.09,0.26-1.66
	c0.17-0.57,0.4-1.08,0.7-1.53c0.3-0.45,0.66-0.8,1.07-1.05s0.87-0.33,1.36-0.23c0.24,0.05,0.45,0.15,0.64,0.29
	c0.19,0.14,0.34,0.32,0.44,0.53c0.11,0.21,0.18,0.46,0.2,0.74c0.02,0.28-0.01,0.58-0.1,0.89c-0.08,0.28-0.24,0.46-0.46,0.52
	c-0.22,0.06-0.42,0.08-0.61,0.06c-0.4-0.06-0.57-0.19-0.51-0.41c0.04-0.14,0.09-0.3,0.14-0.47c0.05-0.17,0.07-0.32,0.08-0.44
	c0-0.13-0.02-0.21-0.06-0.25c-0.05-0.04-0.16-0.01-0.32,0.1c-0.18,0.12-0.34,0.32-0.51,0.59c-0.16,0.27-0.31,0.58-0.43,0.92
	c-0.13,0.34-0.23,0.69-0.3,1.04c-0.08,0.36-0.12,0.67-0.12,0.94c0,0.34,0.05,0.59,0.15,0.75c0.1,0.16,0.23,0.25,0.39,0.27
	c0.16,0.02,0.34-0.01,0.55-0.1c0.21-0.09,0.42-0.21,0.64-0.38c0.31-0.23,0.61-0.52,0.9-0.88c0.3-0.36,0.58-0.74,0.86-1.15
	c0.08-0.11,0.15-0.23,0.23-0.34c0.02-0.07,0.03-0.13,0.05-0.2c0.15-0.54,0.35-1.04,0.61-1.49c0.27-0.45,0.57-0.82,0.91-1.12
	c0.34-0.29,0.71-0.43,1.11-0.43c0.07,0,0.15,0,0.26,0.02c0.1,0.01,0.21,0.05,0.32,0.11c0.11,0.06,0.21,0.15,0.33,0.26
	c0.11,0.12,0.2,0.27,0.26,0.47c0.25,0.11,0.45,0.35,0.59,0.74c0.14,0.38,0.15,0.94,0.03,1.66c0.09,0.01,0.22-0.01,0.39-0.07
	c0.17-0.05,0.36-0.16,0.56-0.32c0.05-0.04,0.1-0.08,0.15-0.13l0.02-0.06c0.12-0.43,0.25-0.84,0.39-1.22
	c0.14-0.38,0.27-0.69,0.4-0.92c0.1-0.19,0.27-0.29,0.53-0.32c0.25-0.03,0.49,0.01,0.72,0.11c0.23,0.1,0.41,0.24,0.54,0.44
	c0.13,0.19,0.13,0.41,0,0.65c-0.1,0.2-0.22,0.44-0.37,0.73c-0.15,0.29-0.29,0.6-0.43,0.94c-0.14,0.33-0.27,0.68-0.37,1.03
	c-0.11,0.35-0.18,0.67-0.21,0.97c0,0.05,0,0.12,0,0.19c0,0.07,0.01,0.14,0.03,0.21c0.01,0.07,0.04,0.13,0.07,0.19
	c0.03,0.05,0.08,0.09,0.14,0.1c0.13,0,0.29-0.08,0.48-0.24c0.18-0.16,0.38-0.37,0.58-0.64c0.2-0.27,0.41-0.57,0.62-0.92
	c0.13-0.2,0.25-0.41,0.36-0.61c0.13-0.48,0.27-0.98,0.42-1.49c0.16-0.54,0.33-1.05,0.49-1.53c0.04-0.12,0.17-0.2,0.38-0.23
	c0.21-0.03,0.42-0.03,0.63,0.02c0.21,0.04,0.39,0.12,0.54,0.23c0.15,0.11,0.18,0.25,0.11,0.41c-0.09,0.23-0.19,0.46-0.3,0.69
	c-0.11,0.23-0.2,0.45-0.27,0.66c0.07-0.12,0.18-0.26,0.3-0.42c0.13-0.16,0.26-0.32,0.41-0.48c0.15-0.16,0.3-0.32,0.46-0.48
	c0.16-0.15,0.32-0.29,0.49-0.39c0.2-0.13,0.41-0.18,0.62-0.16c0.2,0.02,0.38,0.1,0.53,0.24s0.26,0.33,0.32,0.57
	c0.07,0.25,0.06,0.53-0.02,0.86c-0.04,0.2-0.12,0.46-0.23,0.8c-0.11,0.33-0.22,0.68-0.33,1.04c-0.11,0.36-0.2,0.71-0.29,1.05
	c-0.09,0.34-0.13,0.61-0.13,0.8c0,0.03,0.01,0.07,0.02,0.12c0.02,0.05,0.05,0.07,0.11,0.07c0.09,0,0.24-0.1,0.45-0.3
	c0.21-0.2,0.46-0.49,0.74-0.89c0.25-0.34,0.52-0.76,0.8-1.25c0.11-0.58,0.24-1.19,0.39-1.84l-0.25-0.02
	c-0.19-0.01-0.31-0.04-0.39-0.09c-0.07-0.05-0.1-0.11-0.1-0.19c0-0.12,0.03-0.25,0.1-0.38c0.07-0.13,0.19-0.18,0.34-0.16
	c0.08,0.01,0.17,0.02,0.25,0.03c0.08,0,0.17,0.01,0.26,0.01c0.16-0.6,0.34-1.19,0.54-1.77c0.19-0.58,0.38-1.11,0.55-1.59
	c0.18-0.48,0.35-0.89,0.5-1.24c0.15-0.34,0.27-0.58,0.36-0.71c0.09-0.14,0.24-0.21,0.45-0.21c0.17,0,0.36,0.03,0.55,0.1
	c0.19,0.07,0.36,0.15,0.5,0.25c0.14,0.1,0.24,0.23,0.3,0.37c0.06,0.14,0.03,0.29-0.07,0.44c-0.07,0.09-0.16,0.27-0.29,0.55
	c-0.13,0.28-0.27,0.61-0.43,1.01c-0.17,0.39-0.34,0.83-0.53,1.32c-0.19,0.49-0.37,0.99-0.54,1.5h0.46c0.07,0,0.11,0.04,0.13,0.12
	c0.02,0.08,0.03,0.17,0.01,0.27c-0.01,0.1-0.06,0.19-0.12,0.28c-0.06,0.09-0.14,0.14-0.24,0.15c-0.09,0.01-0.17,0.02-0.26,0.02
	c-0.09,0-0.18,0.01-0.28,0.02c-0.15,0.45-0.29,0.88-0.41,1.3c-0.12,0.42-0.22,0.81-0.3,1.17c-0.08,0.36-0.14,0.68-0.17,0.95
	c-0.03,0.27-0.03,0.48,0.01,0.62c0.02,0.07,0.07,0.1,0.13,0.12c0.07,0.01,0.13,0,0.18-0.03c0.12-0.08,0.27-0.22,0.43-0.42
	c0.16-0.2,0.34-0.44,0.53-0.71c0.19-0.27,0.37-0.57,0.56-0.9c0.19-0.33,0.37-0.65,0.54-0.97c0.17-0.32,0.33-0.62,0.46-0.91
	c0.08-0.17,0.15-0.32,0.21-0.46l-0.05-0.03c-0.17-0.11-0.31-0.26-0.41-0.44c-0.11-0.18-0.17-0.4-0.18-0.65
	c-0.02-0.37,0.07-0.7,0.29-0.98c0.21-0.28,0.5-0.41,0.86-0.4c0.2,0,0.35,0.05,0.47,0.15c0.12,0.1,0.2,0.22,0.25,0.38
	c0.05,0.15,0.06,0.32,0.04,0.5c-0.02,0.18-0.07,0.36-0.15,0.53c0.02,0.15,0.12,0.26,0.29,0.31c0.17,0.06,0.33,0.03,0.48-0.08
	c0.15-0.09,0.3-0.13,0.46-0.13c0.17,0,0.33,0.04,0.5,0.12c0.17,0.08,0.31,0.17,0.41,0.3c0.1,0.12,0.17,0.26,0.2,0.41
	c0.03,0.15-0.01,0.31-0.12,0.48c-0.12,0.16-0.27,0.38-0.43,0.66c-0.16,0.28-0.32,0.58-0.47,0.91c-0.15,0.33-0.28,0.66-0.4,1
	c-0.11,0.34-0.17,0.65-0.18,0.92c0,0.18,0.02,0.32,0.07,0.41c0.04,0.09,0.17,0.05,0.39-0.1c0.25-0.19,0.54-0.48,0.86-0.88
	c0.25-0.3,0.49-0.63,0.74-0.96c0.03-0.24,0.08-0.48,0.15-0.72c0.13-0.52,0.33-0.99,0.6-1.43c0.27-0.43,0.59-0.79,0.96-1.08
	c0.38-0.29,0.81-0.43,1.3-0.43c0.2,0,0.4,0.04,0.6,0.11c0.2,0.07,0.38,0.18,0.53,0.32c0.15,0.14,0.28,0.32,0.39,0.55
	c0.1,0.22,0.16,0.49,0.16,0.8c-0.02,0.58-0.15,1.06-0.37,1.44c-0.22,0.38-0.5,0.69-0.83,0.92c-0.33,0.23-0.67,0.39-1.04,0.48
	c-0.36,0.09-0.7,0.14-1.01,0.14c-0.02,0.14-0.01,0.29,0.02,0.43c0.04,0.15,0.1,0.28,0.18,0.39c0.08,0.12,0.18,0.21,0.31,0.28
	c0.13,0.07,0.27,0.11,0.43,0.11c0.28,0,0.6-0.13,0.97-0.39c0.36-0.26,0.73-0.62,1.11-1.07c0.24-0.3,0.49-0.62,0.73-0.98
	c0.09-0.41,0.21-0.8,0.35-1.18c0.16-0.43,0.33-0.81,0.53-1.16c0.2-0.34,0.4-0.6,0.61-0.76c0.17-0.13,0.35-0.23,0.54-0.29
	c0.19-0.06,0.37-0.09,0.54-0.09c0.27,0,0.5,0.06,0.71,0.17c0.21,0.12,0.36,0.3,0.46,0.55c0.03-0.08,0.06-0.13,0.07-0.17
	c0.01-0.03,0.05-0.09,0.1-0.18c0.08-0.14,0.22-0.21,0.44-0.21c0.21,0.01,0.42,0.05,0.62,0.14c0.2,0.09,0.37,0.2,0.52,0.34
	c0.14,0.14,0.18,0.27,0.11,0.4c-0.2,0.46-0.4,0.92-0.58,1.37c-0.18,0.45-0.33,0.88-0.47,1.27c-0.13,0.39-0.24,0.74-0.3,1.05
	c-0.07,0.31-0.09,0.54-0.07,0.7c0.02,0.09,0.06,0.13,0.11,0.14c0.05,0,0.1-0.01,0.16-0.05c0.06-0.04,0.12-0.09,0.17-0.15
	c0.06-0.06,0.1-0.11,0.13-0.14c0.22-0.24,0.46-0.56,0.71-0.96c0.12-0.19,0.24-0.38,0.35-0.58c0.08-0.47,0.2-0.92,0.33-1.37
	c0.13-0.46,0.28-0.89,0.43-1.27c0.15-0.38,0.29-0.67,0.41-0.85c0.15-0.19,0.35-0.28,0.59-0.28c0.16,0,0.33,0.02,0.49,0.07
	c0.17,0.05,0.3,0.12,0.42,0.2c0.12,0.09,0.19,0.2,0.22,0.34C169.27,158.59,169.24,158.75,169.14,158.92L169.14,158.92z
	 M133.31,164.07c0.15,0,0.3-0.08,0.45-0.25c0.14-0.17,0.27-0.37,0.39-0.62c0.12-0.25,0.22-0.51,0.3-0.79
	c0.07-0.28,0.13-0.53,0.14-0.76c-0.1-0.07-0.18-0.16-0.25-0.3c-0.07-0.13-0.13-0.28-0.17-0.43c-0.04-0.16-0.06-0.32-0.07-0.48
	c0-0.16,0.02-0.31,0.07-0.43c-0.15,0.05-0.31,0.19-0.46,0.41c-0.15,0.22-0.29,0.48-0.42,0.78c-0.13,0.3-0.23,0.62-0.32,0.96
	c-0.09,0.34-0.14,0.65-0.16,0.93c-0.01,0.28,0.01,0.51,0.08,0.7C132.98,163.98,133.12,164.07,133.31,164.07L133.31,164.07z
	 M140.3,157.24c-0.1,0.09-0.23,0.13-0.39,0.12c-0.16,0-0.31-0.05-0.46-0.13c-0.15-0.08-0.27-0.2-0.35-0.35
	c-0.09-0.15-0.11-0.33-0.05-0.54c0.03-0.11,0.07-0.24,0.11-0.38c0.04-0.15,0.08-0.3,0.13-0.44c0.05-0.15,0.1-0.29,0.16-0.42
	c0.06-0.13,0.11-0.24,0.16-0.31c0.07-0.07,0.13-0.12,0.2-0.15c0.07-0.03,0.15-0.05,0.25-0.07c0.17-0.01,0.34,0.02,0.53,0.08
	c0.19,0.07,0.35,0.16,0.5,0.27c0.14,0.11,0.26,0.25,0.33,0.39c0.07,0.15,0.07,0.29,0.01,0.42L140.3,157.24L140.3,157.24z
	 M158.21,159.38c-0.1,0.05-0.21,0.16-0.34,0.33c-0.13,0.16-0.27,0.36-0.4,0.6c-0.13,0.24-0.25,0.49-0.36,0.77
	c-0.11,0.28-0.2,0.56-0.25,0.84c0.19-0.02,0.37-0.1,0.56-0.23c0.19-0.13,0.37-0.29,0.53-0.48c0.16-0.19,0.29-0.41,0.4-0.66
	c0.11-0.25,0.17-0.49,0.2-0.75c0.01-0.13,0-0.23-0.02-0.29c-0.03-0.06-0.07-0.1-0.1-0.13c-0.04-0.03-0.07-0.04-0.11-0.03
	C158.28,159.36,158.25,159.37,158.21,159.38L158.21,159.38z M163.77,159.79c0-0.03,0-0.08-0.01-0.15c0-0.07-0.01-0.14-0.03-0.21
	c-0.01-0.07-0.04-0.13-0.07-0.18c-0.03-0.05-0.06-0.08-0.11-0.08c-0.13,0-0.27,0.1-0.43,0.3c-0.16,0.2-0.31,0.46-0.46,0.76
	c-0.15,0.31-0.29,0.65-0.42,1.02c-0.13,0.37-0.24,0.72-0.31,1.05c-0.02,0.1-0.05,0.23-0.08,0.41c-0.03,0.17-0.05,0.35-0.06,0.52
	c0,0.17,0.01,0.32,0.04,0.44c0.03,0.13,0.1,0.19,0.21,0.19c0.14,0,0.28-0.08,0.42-0.24c0.14-0.16,0.28-0.36,0.4-0.62
	c0.13-0.25,0.24-0.53,0.35-0.84c0.11-0.31,0.2-0.61,0.28-0.91c0.08-0.3,0.14-0.58,0.19-0.84
	C163.75,160.15,163.77,159.95,163.77,159.79L163.77,159.79z"/>
<path class="st9" d="M93.77,115.57c14.01,32.14,20.97,73.98,19.38,126.55c-1.32,43.63-4.13,51.68,4.14,53.52
	c8.77,1.95,55.42,1.95,64.2,0c8.27-1.84,5.45-9.88,4.13-53.52c-1.59-52.57,5.37-94.41,19.39-126.55
	C167.92,115.57,130.84,115.57,93.77,115.57L93.77,115.57z M115.47,280.47c0.64,0.36,1.37,0.62,2.22,0.81
	c8.66,1.95,54.85,1.95,63.52,0c0.79-0.18,1.47-0.41,2.07-0.74c0.05,2.75,1.01,10.52-2.64,11.33c-1.39,0.31-2.99,0.44-4.41,0.56
	c-2.47,0.21-4.94,0.34-7.41,0.45c-6.47,0.27-12.97,0.36-19.44,0.36c-6.48,0-12.97-0.09-19.44-0.36c-2.47-0.1-4.95-0.23-7.42-0.45
	c-1.41-0.12-3.02-0.25-4.41-0.56C114.45,291.06,115.42,283.24,115.47,280.47L115.47,280.47z M183.07,273.63
	c0.07,2.06-0.27,3.42-2.4,3.9c-1.37,0.31-3.23,0.44-4.63,0.56c-2.43,0.21-5.03,0.34-7.47,0.45c-6.38,0.27-12.79,0.36-19.18,0.36
	c-6.39,0-12.8-0.09-19.19-0.36c-2.44-0.11-4.89-0.24-7.32-0.45c-1.4-0.12-3.45-0.25-4.82-0.56c-2.05-0.46-2.48-1.64-2.37-3.63
	c0.16-2.79,0.26-5.59,0.39-8.38c0.36-7.76,0.69-15.51,0.92-23.27c1.23-40.52-2.21-84.67-17.46-122.82c33.23,0,66.45,0,99.68,0
	c-15.24,38.15-18.68,82.3-17.46,122.82c0.24,7.76,0.56,15.52,0.93,23.27C182.82,268.21,182.97,270.92,183.07,273.63L183.07,273.63z"
	/>
</svg>
