<?xml version="1.0" encoding="utf-8"?>
<!-- Generator: Adobe Illustrator 23.0.1, SVG Export Plug-In . SVG Version: 6.00 Build 0)  -->
<svg version="1.1" id="Bloody_Mary" xmlns="http://www.w3.org/2000/svg" xmlns:xlink="http://www.w3.org/1999/xlink" x="0px"
	 y="0px" viewBox="0 0 300 300" style="enable-background:new 0 0 300 300;" xml:space="preserve">
<style type="text/css">
	.st0{fill:#4E4236;}
	.st1{fill-rule:evenodd;clip-rule:evenodd;fill:#4E4236;}
	.st2{fill-rule:evenodd;clip-rule:evenodd;fill:#FEE000;}
	.st3{fill-rule:evenodd;clip-rule:evenodd;fill:#BA3C26;}
	.st4{fill-rule:evenodd;clip-rule:evenodd;fill:#FFFFFF;}
	.st5{fill-rule:evenodd;clip-rule:evenodd;fill:#DBBE26;}
	.st6{fill-rule:evenodd;clip-rule:evenodd;fill:#971B1E;}
	.st7{fill-rule:evenodd;clip-rule:evenodd;fill:#DCDCDC;}
	.st8{fill:#FFFFFF;}
</style>
<path class="st0" d="M145.32,24.3c-0.05,0.14-0.11,0.33-0.19,0.58c-0.08,0.25-0.14,0.43-0.19,0.54c0.65-0.38,1.34-0.96,2.06-1.72
	c0.72-0.77,1.44-1.65,2.15-2.65c0.71-1,1.39-2.07,2.03-3.21c0.64-1.14,1.21-2.28,1.71-3.43c0.07-0.09,0.18-0.14,0.32-0.15
	c0.15-0.01,0.29,0.01,0.44,0.07c0.15,0.06,0.26,0.13,0.35,0.23c0.09,0.1,0.12,0.2,0.1,0.29c-0.38,0.95-0.91,2.05-1.59,3.31
	c-0.68,1.26-1.45,2.51-2.33,3.73c-0.88,1.23-1.83,2.37-2.86,3.41c-1.03,1.05-2.08,1.84-3.16,2.38c-0.09,0.25-0.19,0.52-0.29,0.81
	c-0.1,0.29-0.19,0.56-0.25,0.81c-0.23,0.63-0.5,1.23-0.83,1.81c-0.33,0.58-0.7,1.08-1.13,1.52c-0.43,0.44-0.91,0.8-1.44,1.07
	c-0.53,0.27-1.11,0.41-1.74,0.41c-0.79,0-1.41-0.23-1.86-0.68c-0.45-0.45-0.68-0.99-0.68-1.62c0-0.68,0.16-1.29,0.47-1.84
	c0.32-0.55,0.73-1.04,1.23-1.47c0.51-0.43,1.07-0.8,1.69-1.11c0.62-0.32,1.23-0.57,1.84-0.75c0.02-0.13,0.06-0.3,0.12-0.49
	c0.06-0.19,0.11-0.37,0.17-0.53c0.06-0.16,0.1-0.28,0.12-0.37c0.02-0.09,0.02-0.11,0-0.07c-0.16,0.34-0.33,0.6-0.52,0.79
	c-0.19,0.19-0.37,0.34-0.54,0.44c-0.17,0.1-0.32,0.16-0.46,0.18c-0.13,0.02-0.24,0.03-0.3,0.03c-0.86,0-1.52-0.29-1.98-0.88
	c-0.46-0.59-0.7-1.39-0.73-2.4c-0.01-0.13-0.01-0.26,0-0.4c-0.19,0.3-0.39,0.6-0.59,0.89c-0.55,0.8-1.12,1.46-1.69,1.98
	c-0.57,0.52-1.13,0.78-1.67,0.78c-0.56,0-1.06-0.2-1.5-0.61c-0.44-0.41-0.74-0.94-0.9-1.62c-0.14,0.25-0.31,0.5-0.51,0.76
	c-0.2,0.26-0.43,0.5-0.68,0.71c-0.25,0.21-0.52,0.39-0.83,0.54c-0.3,0.15-0.64,0.23-1,0.25c-0.97,0-1.78-0.33-2.43-1
	c-0.65-0.66-0.98-1.66-0.98-2.99c0-0.64,0.06-1.33,0.19-2.05l-0.07,0.04c-0.64,0.37-1.27,0.54-1.88,0.49
	c-0.45,1.69-1.13,3.08-2.04,4.16c-0.91,1.08-2.01,1.62-3.3,1.62c-0.5,0-1.03-0.12-1.59-0.37c-0.74-0.38-1.29-0.99-1.64-1.82
	c-0.35-0.83-0.52-1.78-0.52-2.84c0-0.36,0.02-0.73,0.06-1.11c-0.56,0.28-1.11,0.4-1.64,0.36c-0.45,1.69-1.13,3.08-2.05,4.16
	c-0.91,1.08-2.01,1.62-3.3,1.62c-0.5,0-1.02-0.12-1.59-0.37c-0.74-0.38-1.29-0.99-1.64-1.82c-0.09-0.22-0.17-0.45-0.24-0.68
	c-0.48,0.72-0.98,1.32-1.5,1.81c-0.56,0.53-1.14,0.79-1.72,0.79c-0.41,0-0.79-0.06-1.17-0.17c-0.37-0.11-0.7-0.3-0.98-0.56
	c-0.28-0.26-0.51-0.61-0.69-1.05c-0.18-0.44-0.28-0.99-0.3-1.64c-0.02-0.88,0.07-1.95,0.27-3.21c0.2-1.26,0.47-2.6,0.81-4.01
	c0.34-1.41,0.72-2.83,1.15-4.26c0.43-1.43,0.86-2.75,1.29-3.97s0.82-2.27,1.18-3.16c0.36-0.89,0.65-1.5,0.88-1.84
	c0.18-0.29,0.5-0.44,0.95-0.44c0.36,0,0.74,0.07,1.13,0.2c0.39,0.14,0.74,0.31,1.03,0.53c0.29,0.21,0.5,0.47,0.61,0.76
	c0.11,0.29,0.07,0.6-0.13,0.91c-0.18,0.25-0.47,0.83-0.86,1.74c-0.39,0.91-0.84,2.01-1.34,3.28c-0.5,1.27-1,2.64-1.52,4.09
	c-0.52,1.45-0.97,2.85-1.37,4.19c-0.39,1.34-0.69,2.54-0.9,3.6c-0.2,1.06-0.24,1.81-0.1,2.26c0.05,0.14,0.13,0.21,0.25,0.24
	c0.12,0.02,0.24,0,0.35-0.07c0.36-0.23,0.79-0.64,1.29-1.25c0.37-0.45,0.75-0.97,1.13-1.56c0.05-0.85,0.19-1.72,0.44-2.62
	c0.3-1.11,0.73-2.14,1.27-3.08c0.54-0.93,1.17-1.7,1.88-2.3c0.71-0.6,1.47-0.89,2.28-0.89c0.14,0,0.31,0.01,0.52,0.03
	c0.21,0.02,0.43,0.1,0.66,0.22c0.23,0.12,0.45,0.3,0.68,0.54c0.23,0.24,0.41,0.56,0.54,0.96c0.52,0.23,0.92,0.73,1.22,1.52
	c0.29,0.79,0.32,1.93,0.07,3.42c0.18,0.02,0.45-0.02,0.79-0.14c0.25-0.08,0.52-0.22,0.81-0.41c0.3-1.07,0.71-2.05,1.23-2.95
	c0.54-0.93,1.17-1.7,1.88-2.3c0.71-0.6,1.47-0.89,2.28-0.89c0.14,0,0.31,0.01,0.52,0.03c0.21,0.02,0.43,0.1,0.66,0.22
	c0.23,0.12,0.45,0.3,0.68,0.54c0.23,0.24,0.41,0.56,0.54,0.96c0.52,0.23,0.92,0.73,1.22,1.52c0.29,0.79,0.32,1.93,0.07,3.42
	c0.18,0.02,0.45-0.02,0.79-0.14c0.35-0.11,0.73-0.33,1.15-0.66c0.04-0.03,0.09-0.07,0.13-0.11c0.09-0.3,0.2-0.6,0.3-0.89
	c0.33-0.88,0.7-1.67,1.12-2.38c0.42-0.71,0.84-1.23,1.27-1.57c0.36-0.27,0.73-0.47,1.1-0.59c0.37-0.12,0.74-0.19,1.1-0.19
	c0.54,0,1.02,0.12,1.45,0.35c0.43,0.24,0.76,0.61,0.98,1.13c0.36-1.29,0.75-2.55,1.17-3.8c0.42-1.25,0.81-2.38,1.18-3.4
	c0.37-1.01,0.71-1.88,1.01-2.59c0.3-0.71,0.53-1.18,0.69-1.4c0.11-0.16,0.25-0.27,0.42-0.34c0.17-0.07,0.33-0.1,0.49-0.1
	c0.34,0,0.72,0.06,1.13,0.17c0.42,0.11,0.78,0.27,1.1,0.47c0.32,0.2,0.54,0.44,0.68,0.73c0.13,0.28,0.1,0.58-0.1,0.9
	c-0.23,0.36-0.56,1.02-1,1.98c-0.44,0.96-0.92,2.06-1.44,3.31c-0.52,1.25-1.05,2.59-1.59,4.01c-0.54,1.42-1.03,2.78-1.45,4.08
	c-0.43,1.29-0.78,2.45-1.05,3.48c-0.27,1.03-0.38,1.77-0.34,2.25c0.05,0.29,0.15,0.39,0.3,0.3c0.29-0.14,0.63-0.42,1.01-0.85
	c0.38-0.43,0.79-0.94,1.22-1.54c0.43-0.6,0.86-1.24,1.29-1.94c0.25-0.41,0.49-0.81,0.72-1.2c0.08-0.31,0.17-0.63,0.26-0.95
	c0.2-0.71,0.41-1.38,0.62-2.01c0.21-0.63,0.43-1.18,0.64-1.66c0.21-0.47,0.4-0.82,0.56-1.05c0.13-0.18,0.32-0.3,0.56-0.37
	c0.24-0.07,0.47-0.08,0.69-0.03c0.34,0.02,0.68,0.09,1.01,0.2c0.34,0.11,0.63,0.26,0.86,0.46c0.24,0.19,0.39,0.41,0.46,0.66
	c0.07,0.25,0,0.53-0.2,0.85c-0.2,0.34-0.47,0.86-0.81,1.57c-0.34,0.71-0.68,1.49-1.01,2.33c-0.34,0.85-0.65,1.7-0.93,2.55
	c-0.28,0.86-0.48,1.6-0.59,2.23c-0.09,0.45-0.09,0.76,0,0.94c0.09,0.18,0.19,0.27,0.3,0.27c0.34,0,0.66-0.24,0.98-0.71
	c0.32-0.47,0.63-1.09,0.95-1.84c0.32-0.75,0.62-1.59,0.91-2.5c0.29-0.91,0.59-1.8,0.9-2.67c0.3-0.87,0.6-1.66,0.88-2.37
	c0.28-0.71,0.57-1.23,0.86-1.57c0.16-0.18,0.36-0.3,0.61-0.35c0.25-0.06,0.5-0.06,0.74-0.02c0.29,0.05,0.6,0.12,0.93,0.24
	c0.33,0.11,0.61,0.27,0.86,0.47c0.25,0.2,0.41,0.44,0.49,0.71c0.08,0.27,0.02,0.56-0.19,0.88c-0.41,0.63-0.79,1.35-1.15,2.16
	c-0.36,0.81-0.7,1.64-1.01,2.5c-0.32,0.86-0.62,1.71-0.91,2.55C145.84,22.87,145.56,23.63,145.32,24.3L145.32,24.3z M88.43,6.73
	c-0.11,0.2-0.28,0.6-0.49,1.2c-0.21,0.6-0.46,1.33-0.74,2.18c-0.28,0.86-0.59,1.82-0.93,2.91c-0.34,1.08-0.69,2.21-1.05,3.38
	c0.09,0,0.23,0,0.41,0.02c0.18,0.01,0.37,0.02,0.57,0.02c0.2,0,0.39-0.01,0.58-0.02c0.18-0.01,0.33-0.03,0.44-0.05
	c0.99-0.16,1.87-0.54,2.62-1.13c0.76-0.6,1.38-1.3,1.88-2.11c0.5-0.81,0.85-1.67,1.07-2.57c0.21-0.9,0.28-1.75,0.19-2.53
	c-0.11-0.88-0.4-1.66-0.85-2.35c-0.45-0.69-1.02-1.24-1.72-1.67c-0.7-0.43-1.49-0.71-2.37-0.85c-0.88-0.13-1.8-0.08-2.77,0.17
	c-0.92,0.25-1.74,0.7-2.45,1.35c-0.71,0.65-1.26,1.45-1.64,2.4c-0.2,0.47-0.34,1-0.42,1.59c-0.08,0.58-0.03,1.08,0.15,1.49
	c0.11,0.25,0.14,0.49,0.07,0.73c-0.07,0.24-0.34,0.47-0.81,0.69c-0.29,0.14-0.67,0.22-1.13,0.25c-0.46,0.03-0.9-0.03-1.3-0.2
	c-0.41-0.17-0.74-0.47-1.01-0.91c-0.27-0.44-0.37-1.05-0.3-1.84c0.14-1.26,0.54-2.36,1.2-3.3c0.66-0.94,1.46-1.72,2.38-2.35
	c0.92-0.63,1.89-1.11,2.91-1.45c1.01-0.34,1.93-0.55,2.74-0.64c1.51-0.18,2.95-0.15,4.33,0.08c1.37,0.24,2.59,0.66,3.65,1.27
	c1.06,0.61,1.93,1.38,2.62,2.32c0.69,0.93,1.11,2.01,1.27,3.23c0.09,0.79,0.09,1.69,0,2.72c-0.09,1.02-0.37,2.02-0.83,2.97
	c-0.46,0.96-1.15,1.82-2.06,2.58c-0.91,0.77-2.15,1.29-3.7,1.56c0.25,0.14,0.5,0.32,0.76,0.54c0.26,0.23,0.5,0.49,0.71,0.79
	c0.21,0.3,0.38,0.65,0.49,1.05c0.11,0.4,0.16,0.83,0.14,1.3c-0.07,1.01-0.33,1.87-0.78,2.57c-0.45,0.7-1.02,1.25-1.71,1.66
	c-0.69,0.41-1.45,0.68-2.3,0.81c-0.85,0.13-1.7,0.15-2.55,0.03c-0.77-0.07-1.51-0.26-2.23-0.57c-0.72-0.32-1.31-0.71-1.76-1.18
	c-0.23,0.34-0.5,0.61-0.81,0.83c-0.32,0.21-0.64,0.39-0.96,0.52c-0.33,0.13-0.64,0.24-0.93,0.3c-0.29,0.07-0.54,0.1-0.74,0.1
	c-0.65,0.07-1.3-0.01-1.93-0.23c-0.43-0.18-0.74-0.39-0.95-0.63c-0.2-0.24-0.32-0.47-0.34-0.71c-0.02-0.24,0.02-0.46,0.12-0.66
	c0.1-0.2,0.23-0.35,0.39-0.46c0.16-0.1,0.32-0.13,0.47-0.1c0.16,0.03,0.28,0.16,0.37,0.39c0.07,0.18,0.2,0.32,0.41,0.41
	c0.2,0.09,0.43,0.12,0.69,0.1c0.26-0.02,0.53-0.11,0.81-0.25c0.28-0.15,0.55-0.39,0.79-0.73c0.43-0.56,0.83-1.38,1.22-2.44
	c0.38-1.06,0.74-2.21,1.06-3.46c0.33-1.25,0.64-2.54,0.93-3.87c0.29-1.33,0.55-2.56,0.76-3.7c0.21-1.14,0.4-2.1,0.56-2.89
	c0.16-0.79,0.28-1.29,0.37-1.49c0.16-0.38,0.35-0.71,0.57-1c0.23-0.28,0.56-0.45,1.01-0.49c0.41-0.05,0.82-0.02,1.25,0.08
	c0.43,0.1,0.79,0.27,1.1,0.49c0.3,0.23,0.52,0.49,0.64,0.79C88.67,6.07,88.63,6.39,88.43,6.73L88.43,6.73z M88.73,21.5
	c0.02-0.36-0.05-0.72-0.22-1.08c-0.17-0.36-0.43-0.69-0.78-0.98c-0.35-0.29-0.79-0.53-1.34-0.69c-0.54-0.17-1.16-0.23-1.86-0.19
	c-0.32,1.01-0.62,1.92-0.93,2.72c-0.3,0.8-0.58,1.43-0.83,1.88c0.56,0.41,1.18,0.68,1.84,0.83c0.66,0.15,1.29,0.15,1.88,0.02
	c0.59-0.13,1.09-0.41,1.5-0.83C88.42,22.76,88.66,22.2,88.73,21.5L88.73,21.5z M192.51,13.32c0.36-0.27,0.73-0.47,1.12-0.59
	c0.38-0.12,0.75-0.19,1.11-0.19c0.54,0,1.03,0.12,1.45,0.35c0.43,0.24,0.74,0.61,0.95,1.13c0.07-0.16,0.12-0.27,0.15-0.34
	c0.03-0.07,0.11-0.19,0.22-0.37c0.16-0.29,0.46-0.44,0.9-0.42c0.44,0.01,0.87,0.11,1.29,0.29c0.42,0.18,0.77,0.41,1.06,0.69
	c0.29,0.28,0.37,0.56,0.24,0.83c-0.43,0.94-0.83,1.89-1.2,2.82c-0.37,0.93-0.7,1.81-0.98,2.62c-0.28,0.81-0.49,1.53-0.63,2.16
	c-0.13,0.63-0.18,1.12-0.13,1.46c0.04,0.18,0.12,0.28,0.22,0.29c0.1,0.01,0.22-0.02,0.34-0.1c0.12-0.08,0.24-0.18,0.35-0.3
	c0.12-0.12,0.21-0.22,0.27-0.29c0.45-0.5,0.94-1.16,1.45-1.98c0.52-0.82,1.02-1.68,1.51-2.55c0.48-0.88,0.92-1.72,1.32-2.52
	c0.28-0.56,0.51-1.04,0.7-1.43c-0.3-0.23-0.56-0.5-0.76-0.84c-0.23-0.37-0.35-0.82-0.37-1.34c-0.05-0.77,0.15-1.44,0.59-2.01
	c0.44-0.58,1.03-0.85,1.77-0.83c0.41,0,0.73,0.1,0.96,0.3c0.23,0.2,0.41,0.46,0.51,0.78c0.1,0.32,0.13,0.66,0.08,1.03
	c-0.04,0.37-0.14,0.74-0.3,1.1c0.05,0.31,0.24,0.53,0.59,0.64c0.35,0.11,0.69,0.06,1-0.17c0.32-0.18,0.63-0.27,0.95-0.27
	c0.34,0,0.68,0.08,1.03,0.24c0.35,0.16,0.63,0.36,0.84,0.61c0.22,0.25,0.35,0.53,0.41,0.84c0.05,0.32-0.03,0.64-0.25,0.98
	c-0.25,0.34-0.54,0.8-0.88,1.37c-0.34,0.58-0.67,1.2-0.98,1.88c-0.32,0.68-0.58,1.36-0.81,2.06c-0.23,0.7-0.35,1.33-0.37,1.89
	c0,0.38,0.05,0.66,0.13,0.84c0.09,0.18,0.36,0.11,0.82-0.2c0.52-0.38,1.11-0.99,1.77-1.81c0.67-0.82,1.32-1.7,1.98-2.64
	c0.15-0.21,0.3-0.42,0.44-0.64c0.1-0.37,0.2-0.75,0.3-1.12c0.21-0.71,0.41-1.38,0.63-2.01c0.22-0.63,0.43-1.18,0.64-1.66
	c0.22-0.47,0.4-0.82,0.56-1.05c0.13-0.18,0.32-0.3,0.56-0.37c0.23-0.07,0.46-0.08,0.69-0.03c0.34,0.02,0.68,0.09,1.02,0.2
	c0.34,0.11,0.62,0.26,0.86,0.46c0.24,0.19,0.39,0.41,0.46,0.66c0.07,0.25,0,0.53-0.21,0.85c-0.2,0.34-0.47,0.86-0.81,1.57
	c-0.34,0.71-0.68,1.49-1.02,2.33c-0.34,0.85-0.65,1.7-0.93,2.55c-0.28,0.86-0.48,1.6-0.59,2.23c-0.09,0.45-0.09,0.76,0,0.94
	c0.09,0.18,0.19,0.27,0.31,0.27c0.34,0,0.66-0.24,0.98-0.71c0.32-0.47,0.63-1.09,0.95-1.84c0.31-0.75,0.62-1.59,0.91-2.5
	c0.29-0.91,0.59-1.8,0.9-2.67c0.3-0.87,0.59-1.66,0.88-2.37c0.28-0.71,0.57-1.23,0.86-1.57c0.16-0.18,0.36-0.3,0.61-0.35
	c0.25-0.06,0.49-0.06,0.74-0.02c0.29,0.05,0.6,0.12,0.93,0.24c0.33,0.11,0.61,0.27,0.86,0.47c0.24,0.2,0.41,0.44,0.49,0.71
	c0.08,0.27,0.01,0.56-0.19,0.88c-0.4,0.63-0.79,1.35-1.15,2.16c-0.36,0.81-0.7,1.64-1.01,2.5c-0.32,0.86-0.62,1.71-0.92,2.55
	c-0.29,0.85-0.56,1.61-0.81,2.28c-0.04,0.14-0.11,0.33-0.18,0.58c-0.08,0.25-0.14,0.43-0.19,0.54c0.65-0.38,1.34-0.96,2.06-1.72
	c0.72-0.77,1.44-1.65,2.15-2.65c0.71-1,1.39-2.07,2.03-3.21c0.64-1.14,1.21-2.28,1.71-3.43c0.07-0.09,0.17-0.14,0.32-0.15
	c0.14-0.01,0.29,0.01,0.44,0.07c0.15,0.06,0.26,0.13,0.35,0.23c0.09,0.1,0.12,0.2,0.1,0.29c-0.38,0.95-0.91,2.05-1.59,3.31
	c-0.68,1.26-1.45,2.51-2.33,3.73c-0.88,1.23-1.83,2.37-2.85,3.41c-1.03,1.05-2.08,1.84-3.16,2.38c-0.09,0.25-0.19,0.52-0.29,0.81
	c-0.1,0.29-0.19,0.56-0.25,0.81c-0.23,0.63-0.5,1.23-0.83,1.81c-0.33,0.58-0.7,1.08-1.13,1.52c-0.43,0.44-0.91,0.8-1.44,1.07
	c-0.53,0.27-1.11,0.41-1.74,0.41c-0.79,0-1.41-0.23-1.86-0.68c-0.45-0.45-0.68-0.99-0.68-1.62c0-0.68,0.16-1.29,0.47-1.84
	c0.32-0.55,0.73-1.04,1.23-1.47c0.51-0.43,1.07-0.8,1.69-1.11c0.62-0.32,1.23-0.57,1.84-0.75c0.02-0.13,0.06-0.3,0.12-0.49
	c0.05-0.19,0.11-0.37,0.17-0.53c0.06-0.16,0.1-0.28,0.12-0.37c0.02-0.09,0.02-0.11,0-0.07c-0.16,0.34-0.34,0.6-0.53,0.79
	c-0.19,0.19-0.37,0.34-0.54,0.44c-0.17,0.1-0.32,0.16-0.46,0.18c-0.13,0.02-0.23,0.03-0.3,0.03c-0.86,0-1.52-0.29-1.98-0.88
	c-0.46-0.59-0.7-1.39-0.73-2.4c-0.01-0.31,0-0.66,0.04-1.06c-0.38,0.56-0.78,1.1-1.17,1.6c-0.62,0.79-1.24,1.44-1.86,1.96
	c-0.62,0.52-1.2,0.78-1.74,0.78c-0.45,0-0.86-0.12-1.22-0.37c-0.36-0.25-0.66-0.57-0.9-0.96c-0.23-0.39-0.42-0.84-0.54-1.35
	c-0.12-0.51-0.18-1.04-0.18-1.6c0-0.54,0.05-1.11,0.15-1.71c0.1-0.6,0.24-1.19,0.41-1.77c0.17-0.58,0.36-1.15,0.59-1.69
	c0.23-0.54,0.45-1.04,0.68-1.49c-0.45-0.02-0.9-0.09-1.35-0.2c-0.07-0.02-0.14-0.04-0.21-0.06c-0.1,0.21-0.22,0.47-0.35,0.78
	c-0.28,0.67-0.62,1.43-1.02,2.3c-0.39,0.87-0.82,1.77-1.3,2.72c-0.47,0.95-0.97,1.82-1.51,2.62c-0.53,0.8-1.07,1.46-1.62,1.98
	c-0.55,0.52-1.1,0.78-1.64,0.78c-0.58,0-1.1-0.2-1.54-0.61c-0.44-0.41-0.72-0.94-0.86-1.62c-0.13,0.25-0.3,0.5-0.5,0.76
	c-0.21,0.26-0.43,0.5-0.68,0.71c-0.24,0.21-0.52,0.39-0.82,0.54c-0.31,0.15-0.64,0.23-1,0.25c-0.97,0-1.78-0.33-2.44-1
	c-0.65-0.66-0.98-1.66-0.98-2.99c0-0.17,0-0.35,0.01-0.53c-0.56,0.7-1.13,1.35-1.71,1.95c-0.7,0.72-1.4,1.31-2.1,1.77
	c-0.7,0.46-1.35,0.71-1.96,0.76c-0.99,0.09-1.77-0.16-2.33-0.74c-0.57-0.58-0.8-1.45-0.71-2.6c0.02-0.76,0.13-1.59,0.32-2.48
	c0.19-0.89,0.42-1.81,0.69-2.77c0.27-0.96,0.58-1.94,0.91-2.94c0.34-1,0.68-2,1.02-2.99c0.43-1.08,0.66-1.91,0.69-2.47
	c0.04-0.56-0.08-0.79-0.35-0.69c-0.27,0.1-0.66,0.55-1.17,1.35c-0.51,0.8-1.09,2.01-1.74,3.63c-0.36,0.88-0.76,1.87-1.2,2.96
	c-0.44,1.09-0.85,2.17-1.24,3.25c-0.38,1.07-0.69,2.07-0.93,2.99c-0.24,0.92-0.34,1.64-0.29,2.16c0.02,0.32-0.08,0.54-0.29,0.68
	c-0.22,0.14-0.47,0.21-0.78,0.22c-0.31,0.01-0.6-0.01-0.9-0.07c-0.29-0.06-0.51-0.12-0.64-0.19c-0.25-0.09-0.5-0.25-0.74-0.47
	c-0.25-0.23-0.45-0.51-0.61-0.86c-0.16-0.35-0.25-0.78-0.29-1.28c-0.03-0.51,0.03-1.1,0.19-1.77c0.45-1.94,1.09-3.96,1.92-6.05
	c0.83-2.1,1.68-4.27,2.54-6.52c0.05-0.18,0.09-0.43,0.13-0.75c0.05-0.32,0.01-0.51-0.1-0.58c-0.23-0.16-0.56,0.03-1.01,0.58
	c-0.45,0.54-0.96,1.3-1.52,2.28c-0.56,0.98-1.16,2.12-1.79,3.41c-0.63,1.3-1.25,2.62-1.86,3.97c-0.54,1.13-1.07,2.19-1.61,3.2
	c-0.53,1-1.09,1.89-1.67,2.67c-0.58,0.78-1.22,1.41-1.89,1.91c-0.68,0.5-1.43,0.8-2.26,0.91c-0.45,0.07-0.91,0.08-1.39,0.03
	c-0.47-0.04-0.86-0.15-1.15-0.3c-0.59-0.34-0.99-0.69-1.22-1.06c-0.23-0.37-0.34-0.73-0.34-1.06s0.09-0.64,0.25-0.9
	c0.17-0.26,0.35-0.44,0.54-0.54c0.19-0.1,0.36-0.11,0.49-0.02c0.13,0.09,0.19,0.3,0.17,0.64c-0.04,0.45,0.05,0.8,0.29,1.06
	c0.24,0.26,0.56,0.38,0.96,0.35c0.48-0.02,0.98-0.4,1.52-1.13c0.54-0.73,1.08-1.67,1.61-2.8c0.53-1.14,1.04-2.4,1.52-3.79
	c0.48-1.39,0.92-2.73,1.3-4.04c0.38-1.31,0.7-2.5,0.96-3.56c0.26-1.07,0.42-1.87,0.49-2.38c0.13-1.22,0.03-2.04-0.32-2.45
	c-0.35-0.42-0.83-0.57-1.44-0.46c-0.72,0.14-1.45,0.5-2.18,1.1c-0.73,0.6-1.4,1.3-2.01,2.11c-0.61,0.81-1.1,1.66-1.49,2.53
	c-0.38,0.88-0.58,1.67-0.58,2.37c0.02,0.45-0.06,0.77-0.25,0.96c-0.19,0.19-0.51,0.23-0.96,0.12c-0.29-0.09-0.6-0.24-0.93-0.44
	c-0.33-0.2-0.61-0.47-0.85-0.79c-0.24-0.33-0.4-0.72-0.49-1.17c-0.09-0.45-0.05-0.97,0.14-1.55c0.34-1.08,0.93-2.1,1.77-3.04
	c0.84-0.95,1.81-1.76,2.91-2.44c1.09-0.68,2.25-1.19,3.47-1.54c1.22-0.35,2.35-0.46,3.41-0.32c0.23,0.02,0.58,0.08,1.08,0.18
	c0.49,0.1,0.98,0.33,1.47,0.68c0.48,0.35,0.88,0.87,1.18,1.57c0.31,0.7,0.37,1.66,0.19,2.87c-0.04,0.11-0.07,0.23-0.07,0.34
	s-0.02,0.23-0.07,0.37c0.27-0.5,0.61-1.08,1.01-1.74c0.41-0.66,0.85-1.28,1.34-1.86c0.48-0.58,0.99-1.06,1.51-1.47
	c0.52-0.41,1.04-0.61,1.55-0.61c0.34,0,0.69,0.09,1.05,0.27c0.36,0.18,0.69,0.43,0.98,0.74c0.29,0.31,0.53,0.7,0.71,1.17
	c0.18,0.46,0.27,0.98,0.27,1.54c0,0.27-0.02,0.55-0.08,0.84c-0.06,0.29-0.14,0.6-0.25,0.91c-0.02,0.05-0.03,0.08-0.03,0.1
	c0.25-0.43,0.55-0.94,0.91-1.52c0.36-0.58,0.76-1.14,1.18-1.67c0.43-0.53,0.89-0.98,1.37-1.34c0.48-0.36,0.97-0.54,1.47-0.54
	c0.36,0,0.76,0.13,1.18,0.39c0.43,0.26,0.8,0.63,1.1,1.12c0.31,0.48,0.5,1.08,0.59,1.79c0.09,0.71-0.04,1.51-0.37,2.38
	c-0.41,1.06-0.86,2.21-1.37,3.45c-0.51,1.24-1.01,2.51-1.49,3.8c-0.48,1.3-0.93,2.58-1.33,3.85c-0.41,1.27-0.71,2.47-0.92,3.6
	c-0.09,0.5,0,0.75,0.25,0.76c0.26,0.01,0.65-0.14,1.17-0.46c0.41-0.23,0.92-0.65,1.52-1.29c0.61-0.63,1.24-1.37,1.89-2.21
	c0.15-0.2,0.31-0.41,0.47-0.62c0.18-0.75,0.4-1.47,0.67-2.17c0.33-0.88,0.69-1.67,1.1-2.38C191.66,14.18,192.08,13.66,192.51,13.32
	L192.51,13.32z M196.12,16.43c0-0.07,0-0.18-0.01-0.32c-0.01-0.15-0.03-0.29-0.07-0.42c-0.03-0.13-0.08-0.26-0.14-0.37
	c-0.05-0.11-0.13-0.17-0.22-0.17c-0.27,0-0.57,0.21-0.9,0.63c-0.33,0.42-0.64,0.94-0.95,1.57c-0.3,0.63-0.59,1.33-0.86,2.1
	c-0.27,0.76-0.49,1.49-0.64,2.16c-0.05,0.2-0.11,0.48-0.17,0.85c-0.07,0.36-0.11,0.71-0.11,1.06c-0.01,0.35,0.01,0.65,0.08,0.91
	c0.07,0.26,0.22,0.39,0.44,0.39c0.29,0,0.58-0.16,0.88-0.49c0.29-0.33,0.57-0.75,0.83-1.27c0.26-0.52,0.5-1.09,0.73-1.73
	c0.23-0.63,0.42-1.26,0.59-1.87c0.17-0.62,0.3-1.2,0.39-1.74C196.08,17.17,196.12,16.75,196.12,16.43L196.12,16.43z M215.87,29.07
	c-0.47,0.16-0.87,0.36-1.18,0.61c-0.32,0.25-0.57,0.49-0.74,0.73c-0.18,0.23-0.29,0.44-0.32,0.63c-0.03,0.18,0.01,0.3,0.15,0.37
	c0.07,0.04,0.17,0.06,0.32,0.05c0.14-0.01,0.31-0.09,0.5-0.24c0.19-0.15,0.4-0.39,0.61-0.73C215.42,30.15,215.64,29.68,215.87,29.07
	L215.87,29.07z M106.34,25.25c0.32,0,0.62-0.17,0.91-0.51c0.29-0.34,0.56-0.76,0.81-1.27c0.25-0.51,0.45-1.05,0.61-1.62
	c0.16-0.58,0.26-1.1,0.3-1.57c-0.2-0.13-0.38-0.34-0.53-0.61c-0.15-0.27-0.26-0.57-0.34-0.9c-0.08-0.33-0.12-0.66-0.13-1
	c-0.01-0.34,0.04-0.63,0.15-0.88c-0.32,0.11-0.63,0.4-0.95,0.85c-0.32,0.45-0.6,0.99-0.86,1.6c-0.26,0.62-0.48,1.28-0.66,1.98
	c-0.18,0.7-0.29,1.34-0.32,1.91c-0.03,0.58,0.02,1.05,0.17,1.44C105.66,25.06,105.94,25.25,106.34,25.25L106.34,25.25z
	 M117.02,25.25c0.32,0,0.62-0.17,0.91-0.51c0.29-0.34,0.56-0.76,0.81-1.27c0.25-0.51,0.45-1.05,0.61-1.62
	c0.16-0.58,0.26-1.1,0.3-1.57c-0.2-0.13-0.38-0.34-0.52-0.61c-0.15-0.27-0.26-0.57-0.34-0.9c-0.08-0.33-0.12-0.66-0.14-1
	c-0.01-0.34,0.04-0.63,0.15-0.88c-0.32,0.11-0.63,0.4-0.95,0.85c-0.32,0.45-0.6,0.99-0.86,1.6c-0.26,0.62-0.48,1.28-0.66,1.98
	c-0.18,0.7-0.29,1.34-0.32,1.91c-0.03,0.58,0.02,1.05,0.17,1.44C116.34,25.06,116.62,25.25,117.02,25.25L117.02,25.25z
	 M131.29,16.43c0-0.07-0.01-0.18-0.02-0.32c-0.01-0.15-0.03-0.29-0.07-0.42c-0.03-0.13-0.08-0.26-0.13-0.37
	c-0.06-0.11-0.13-0.17-0.22-0.17c-0.27,0-0.57,0.21-0.9,0.63c-0.33,0.42-0.64,0.94-0.95,1.57c-0.3,0.63-0.59,1.33-0.86,2.1
	c-0.27,0.76-0.48,1.49-0.64,2.16c-0.05,0.2-0.1,0.48-0.17,0.85c-0.07,0.36-0.11,0.71-0.12,1.06c-0.01,0.35,0.02,0.65,0.08,0.91
	c0.07,0.26,0.21,0.39,0.44,0.39c0.29,0,0.58-0.16,0.88-0.49c0.29-0.33,0.57-0.75,0.83-1.27c0.26-0.52,0.5-1.09,0.73-1.73
	c0.23-0.63,0.42-1.26,0.59-1.87c0.17-0.62,0.3-1.2,0.39-1.74C131.25,17.17,131.29,16.75,131.29,16.43L131.29,16.43z M140.31,29.07
	c-0.47,0.16-0.87,0.36-1.18,0.61c-0.32,0.25-0.56,0.49-0.74,0.73c-0.18,0.23-0.29,0.44-0.32,0.63c-0.03,0.18,0.02,0.3,0.15,0.37
	c0.07,0.04,0.18,0.06,0.32,0.05c0.15-0.01,0.32-0.09,0.51-0.24c0.19-0.15,0.39-0.39,0.61-0.73
	C139.87,30.15,140.09,29.68,140.31,29.07L140.31,29.07z"/>
<path class="st1" d="M201.07,72.37c-14.41,0-83.06,0-97.47,0v203.89c0,0.76,0.7,1.4,1.55,1.4c13.38,0,80.99,0,94.37,0
	c0.84,0,1.55-0.63,1.55-1.4V72.37L201.07,72.37z"/>
<polygon class="st2" points="103.6,72.37 201.07,72.37 201.07,92.97 103.6,92.97 103.6,72.37 "/>
<polygon class="st3" points="103.6,92.97 201.07,92.97 201.07,202 103.6,202 103.6,92.97 "/>
<path class="st4" d="M103.6,202h97.47v74.27c0,0.76-0.7,1.4-1.55,1.4c-13.38,0-80.99,0-94.37,0c-0.84,0-1.55-0.63-1.55-1.4V202
	L103.6,202z"/>
<polygon class="st5" points="152.33,72.37 201.07,72.37 201.07,92.97 152.33,92.97 152.33,72.37 "/>
<polygon class="st6" points="152.33,92.97 201.07,92.97 201.07,202 152.33,202 152.33,92.97 "/>
<path class="st7" d="M152.33,202h48.74v74.27c0,0.76-0.7,1.4-1.55,1.4h-47.19V202L152.33,202z"/>
<path class="st1" d="M201.07,49.63c-14.41,0-83.06,0-97.47,0v226.48c0,0.84,0.7,1.55,1.55,1.55c13.38,0,80.99,0,94.37,0
	c0.84,0,1.55-0.7,1.55-1.55V49.63L201.07,49.63z M103.6,280.79v13.28c0,0.85,0.7,1.55,1.55,1.55c13.38,0,80.99,0,94.37,0
	c0.84,0,1.55-0.7,1.55-1.55v-13.28c-0.49,0.16-1.01,0.25-1.55,0.25c-14.4,0-79.97,0-94.37,0
	C104.61,281.04,104.09,280.95,103.6,280.79L103.6,280.79z M105.15,299c-2.71,0-4.93-2.22-4.93-4.93v-17.96V46.25
	c16.67,0,87.56,0,104.23,0v229.86v17.96c0,2.71-2.22,4.93-4.93,4.93C185.12,299,119.55,299,105.15,299L105.15,299z"/>
<path class="st8" d="M168.91,148.1c0,0.06,0,0.12,0,0.19c0,0.07,0.01,0.15,0.03,0.22c0.01,0.07,0.04,0.14,0.07,0.19
	c0.04,0.05,0.09,0.09,0.15,0.1c0.13,0,0.3-0.08,0.49-0.24c0.19-0.16,0.39-0.38,0.6-0.66c0.2-0.27,0.41-0.58,0.62-0.92
	c0.04-0.39,0.12-0.78,0.23-1.18c0.18-0.58,0.42-1.11,0.73-1.57c0.31-0.46,0.68-0.82,1.11-1.08c0.43-0.26,0.9-0.34,1.4-0.24
	c0.24,0.06,0.47,0.16,0.66,0.3c0.19,0.15,0.35,0.33,0.46,0.55c0.12,0.22,0.18,0.47,0.21,0.76c0.02,0.29-0.01,0.59-0.11,0.92
	c-0.09,0.29-0.24,0.47-0.47,0.53c-0.23,0.06-0.44,0.08-0.63,0.06c-0.42-0.06-0.59-0.2-0.52-0.42c0.04-0.15,0.09-0.31,0.14-0.48
	c0.05-0.18,0.08-0.33,0.08-0.46c0.01-0.13-0.01-0.22-0.07-0.26c-0.05-0.05-0.16-0.01-0.33,0.1c-0.18,0.12-0.35,0.33-0.53,0.61
	c-0.17,0.28-0.32,0.6-0.45,0.95c-0.13,0.35-0.23,0.71-0.31,1.07c-0.08,0.37-0.12,0.69-0.12,0.97c0,0.35,0.05,0.6,0.15,0.77
	c0.1,0.16,0.23,0.26,0.4,0.28s0.35-0.01,0.57-0.1c0.21-0.09,0.43-0.22,0.66-0.39c0.32-0.23,0.63-0.54,0.93-0.9
	c0.31-0.36,0.6-0.76,0.89-1.18l0.07-0.1c0.03-0.17,0.07-0.35,0.12-0.52c0.14-0.53,0.35-1.03,0.62-1.47c0.27-0.45,0.6-0.82,0.99-1.12
	c0.39-0.3,0.83-0.45,1.34-0.45c0.2,0,0.41,0.04,0.62,0.11c0.21,0.07,0.39,0.18,0.55,0.33c0.16,0.15,0.29,0.33,0.4,0.57
	c0.11,0.23,0.16,0.5,0.16,0.82c-0.02,0.6-0.15,1.09-0.38,1.49c-0.23,0.4-0.51,0.71-0.85,0.95c-0.34,0.24-0.7,0.4-1.07,0.5
	c-0.37,0.1-0.72,0.14-1.04,0.14c-0.02,0.15-0.01,0.29,0.02,0.45c0.04,0.15,0.1,0.29,0.19,0.41c0.08,0.12,0.19,0.21,0.32,0.29
	c0.13,0.07,0.28,0.11,0.45,0.11c0.29,0,0.63-0.14,1-0.41c0.37-0.27,0.75-0.64,1.14-1.11c0.39-0.47,0.78-1.01,1.16-1.64
	c0.38-0.63,0.73-1.29,1.05-2c0.02-0.05,0.07-0.09,0.13-0.09c0.07,0,0.14,0.01,0.21,0.04c0.07,0.03,0.12,0.07,0.16,0.12
	c0.04,0.05,0.05,0.1,0.02,0.14c-0.12,0.26-0.29,0.58-0.5,0.97c-0.21,0.39-0.44,0.8-0.71,1.23c-0.26,0.43-0.55,0.87-0.87,1.3
	c-0.32,0.43-0.65,0.83-1.01,1.18c-0.35,0.35-0.72,0.64-1.1,0.87c-0.38,0.23-0.76,0.34-1.14,0.35c-0.31,0-0.58-0.06-0.83-0.19
	c-0.24-0.13-0.47-0.31-0.65-0.54c-0.18-0.23-0.33-0.5-0.43-0.81c-0.08-0.24-0.13-0.49-0.15-0.77c-0.31,0.43-0.63,0.81-0.96,1.15
	c-0.34,0.34-0.68,0.61-1.03,0.83c-0.35,0.21-0.71,0.32-1.06,0.32c-0.36,0-0.67-0.07-0.92-0.21c-0.25-0.14-0.47-0.33-0.63-0.57
	c-0.17-0.23-0.29-0.5-0.37-0.8c-0.01-0.04-0.02-0.09-0.03-0.13c-0.09,0.13-0.18,0.26-0.26,0.38c-0.29,0.39-0.59,0.7-0.92,0.95
	c-0.33,0.25-0.66,0.38-1,0.38c-0.28,0-0.52-0.05-0.71-0.13c-0.19-0.09-0.35-0.22-0.47-0.38c-0.11-0.16-0.2-0.35-0.25-0.57
	c-0.04-0.17-0.07-0.35-0.07-0.55l-0.11,0.17c-0.26,0.4-0.53,0.74-0.8,1.01c-0.27,0.28-0.54,0.42-0.8,0.45
	c-0.45,0.04-0.8-0.08-1.05-0.37c-0.25-0.29-0.38-0.68-0.39-1.17c-0.11,0.19-0.22,0.38-0.34,0.56c-0.12,0.18-0.26,0.34-0.41,0.48
	c-0.14,0.14-0.3,0.26-0.46,0.35c-0.16,0.09-0.32,0.13-0.48,0.13c-0.14,0-0.28-0.02-0.44-0.07c-0.16-0.05-0.31-0.13-0.46-0.25
	c-0.15-0.12-0.27-0.3-0.37-0.54c-0.05-0.11-0.08-0.23-0.11-0.37l-0.08,0.12c-0.3,0.41-0.61,0.76-0.95,1.07
	c-0.33,0.31-0.67,0.54-1.02,0.69c-0.08,0.23-0.18,0.53-0.3,0.89c-0.12,0.36-0.28,0.71-0.47,1.06c-0.19,0.34-0.43,0.64-0.71,0.89
	c-0.28,0.25-0.62,0.38-1.01,0.41c-0.38,0.02-0.7-0.11-0.94-0.39c-0.24-0.28-0.36-0.6-0.36-0.96c0-0.39,0.07-0.73,0.2-1
	c0.14-0.28,0.31-0.51,0.53-0.69c0.22-0.19,0.47-0.34,0.76-0.45c0.29-0.11,0.59-0.21,0.9-0.29c0.05-0.2,0.1-0.48,0.17-0.83
	c0.07-0.35,0.14-0.73,0.22-1.14c0.08-0.41,0.16-0.84,0.25-1.28c0.09-0.45,0.18-0.87,0.25-1.26c0.08-0.4,0.15-0.75,0.22-1.07
	c0.07-0.31,0.12-0.56,0.17-0.73c0.08-0.25,0.19-0.46,0.32-0.63c0.14-0.18,0.32-0.25,0.56-0.23c0.17,0.01,0.35,0.04,0.55,0.09
	c0.2,0.05,0.37,0.12,0.52,0.22c0.15,0.1,0.25,0.22,0.3,0.37c0.06,0.15,0.03,0.34-0.09,0.55c-0.13,0.27-0.29,0.64-0.46,1.1
	c-0.17,0.46-0.34,0.96-0.51,1.49c-0.17,0.53-0.33,1.06-0.48,1.58c-0.15,0.53-0.28,0.97-0.38,1.34c0.37-0.25,0.74-0.62,1.1-1.11
	c0.24-0.33,0.48-0.68,0.7-1.06c0.02-0.22,0.05-0.44,0.1-0.68c0.09-0.5,0.2-0.98,0.35-1.46c0.14-0.48,0.29-0.91,0.45-1.31
	c0.16-0.4,0.3-0.69,0.42-0.88c0.16-0.19,0.36-0.29,0.61-0.29c0.17,0,0.34,0.03,0.51,0.08c0.17,0.05,0.31,0.12,0.43,0.21
	c0.12,0.09,0.19,0.21,0.23,0.35c0.03,0.14,0,0.3-0.1,0.48c-0.1,0.19-0.23,0.46-0.38,0.8c-0.15,0.34-0.3,0.72-0.45,1.12
	c-0.14,0.41-0.28,0.81-0.4,1.22c-0.13,0.41-0.21,0.77-0.24,1.08c-0.05,0.29,0,0.47,0.13,0.53c0.13,0.06,0.29-0.08,0.48-0.42
	c0.15-0.25,0.3-0.57,0.47-0.96c0.16-0.4,0.33-0.8,0.49-1.23c0.16-0.42,0.32-0.83,0.47-1.24c0.15-0.41,0.28-0.75,0.38-1.03
	c0.06-0.17,0.11-0.31,0.15-0.44c0.05-0.12,0.09-0.21,0.12-0.25c0.12-0.19,0.32-0.29,0.58-0.29c0.17,0,0.34,0.02,0.51,0.06
	c0.17,0.04,0.33,0.1,0.45,0.18c0.12,0.08,0.21,0.18,0.25,0.3c0.04,0.12,0.02,0.28-0.07,0.46c-0.1,0.18-0.22,0.43-0.36,0.74
	c-0.14,0.31-0.29,0.65-0.43,1.01c-0.15,0.37-0.28,0.74-0.39,1.11c-0.12,0.38-0.19,0.73-0.24,1.06c0,0.03,0,0.1-0.01,0.19
	c-0.01,0.1-0.02,0.19-0.02,0.29c0,0.1,0.01,0.19,0.04,0.27c0.03,0.08,0.08,0.12,0.14,0.14c0.12,0,0.27-0.08,0.47-0.25
	c0.2-0.17,0.44-0.45,0.71-0.83c0.17-0.25,0.35-0.54,0.55-0.88c0.07-0.38,0.16-0.76,0.26-1.13c0.12-0.45,0.25-0.87,0.4-1.26
	c0.14-0.4,0.28-0.71,0.41-0.95c0.1-0.19,0.28-0.3,0.54-0.33c0.26-0.03,0.51,0.01,0.74,0.11c0.23,0.1,0.42,0.25,0.56,0.45
	c0.14,0.2,0.14,0.42,0,0.67c-0.1,0.2-0.23,0.45-0.38,0.75c-0.15,0.3-0.3,0.62-0.45,0.96c-0.15,0.35-0.27,0.7-0.38,1.06
	C169.01,147.47,168.94,147.8,168.91,148.1L168.91,148.1z M178.96,144.5c-0.1,0.06-0.22,0.17-0.35,0.34
	c-0.13,0.17-0.27,0.37-0.41,0.62c-0.13,0.24-0.26,0.51-0.37,0.8c-0.12,0.29-0.2,0.58-0.25,0.87c0.19-0.02,0.38-0.1,0.58-0.24
	c0.2-0.13,0.38-0.3,0.54-0.5c0.16-0.2,0.3-0.42,0.42-0.68c0.11-0.25,0.18-0.51,0.2-0.77c0.01-0.13,0-0.23-0.02-0.29
	c-0.03-0.06-0.06-0.11-0.11-0.13c-0.04-0.03-0.08-0.04-0.12-0.04C179.04,144.48,179,144.49,178.96,144.5L178.96,144.5z
	 M129.42,146.24c0.09,0.01,0.22-0.01,0.4-0.07c0.17-0.06,0.37-0.17,0.57-0.33c0.15-0.12,0.3-0.27,0.45-0.46
	c0.05-0.18,0.11-0.36,0.16-0.55c0.17-0.55,0.34-1.08,0.51-1.57c0.05-0.16,0.18-0.26,0.41-0.3c0.22-0.05,0.45-0.05,0.68,0
	c0.23,0.04,0.41,0.12,0.57,0.24c0.15,0.12,0.19,0.26,0.11,0.43c-0.09,0.23-0.19,0.47-0.3,0.71c-0.11,0.23-0.2,0.47-0.28,0.69
	c0.08-0.14,0.18-0.29,0.3-0.46c0.12-0.17,0.26-0.34,0.41-0.51c0.15-0.17,0.3-0.34,0.46-0.5c0.16-0.16,0.32-0.3,0.49-0.41
	c0.19-0.11,0.38-0.16,0.58-0.15c0.19,0.01,0.36,0.07,0.5,0.17c0.14,0.1,0.25,0.24,0.34,0.43c0.08,0.19,0.12,0.39,0.11,0.62
	c0.16-0.19,0.33-0.38,0.52-0.57c0.19-0.19,0.38-0.34,0.58-0.47c0.21-0.13,0.44-0.19,0.68-0.18c0.24,0.02,0.44,0.11,0.6,0.28
	c0.16,0.17,0.27,0.42,0.31,0.75c0.05,0.33-0.02,0.73-0.19,1.22c-0.03,0.11-0.06,0.21-0.09,0.28c-0.03,0.07-0.06,0.14-0.09,0.21
	c-0.03,0.07-0.05,0.14-0.08,0.21c-0.02,0.07-0.05,0.16-0.08,0.26c-0.16,0.47-0.29,0.92-0.41,1.34c-0.11,0.42-0.17,0.76-0.17,1.01
	c0,0.03,0.01,0.08,0.03,0.13c0.02,0.05,0.06,0.08,0.13,0.08c0.09,0,0.24-0.1,0.46-0.3c0.21-0.2,0.47-0.5,0.76-0.9
	c0.04-0.05,0.08-0.11,0.12-0.17c0.03-0.22,0.06-0.45,0.11-0.68c0.1-0.47,0.23-0.93,0.4-1.37c0.16-0.44,0.35-0.84,0.55-1.19
	c0.2-0.35,0.41-0.62,0.63-0.79c0.18-0.14,0.37-0.23,0.56-0.3c0.19-0.06,0.38-0.09,0.56-0.09c0.27,0,0.51,0.06,0.73,0.18
	c0.21,0.12,0.37,0.31,0.47,0.57c0.03-0.08,0.06-0.14,0.08-0.17c0.02-0.03,0.05-0.1,0.11-0.18c0.08-0.15,0.23-0.22,0.45-0.21
	c0.22,0,0.43,0.05,0.64,0.14c0.21,0.09,0.39,0.21,0.53,0.35c0.15,0.14,0.19,0.28,0.12,0.41c-0.21,0.47-0.41,0.94-0.6,1.41
	c-0.19,0.47-0.35,0.9-0.49,1.31c-0.14,0.41-0.25,0.77-0.31,1.08c-0.07,0.32-0.09,0.56-0.07,0.73c0.02,0.09,0.06,0.14,0.11,0.14
	c0.05,0,0.11-0.01,0.17-0.05c0.06-0.04,0.12-0.09,0.18-0.15c0.06-0.06,0.1-0.11,0.14-0.14c0.23-0.25,0.47-0.58,0.73-0.99
	c0.26-0.41,0.51-0.84,0.75-1.28c0.15-0.27,0.29-0.53,0.42-0.79c0.06-0.31,0.14-0.63,0.21-0.95l-0.25-0.02
	c-0.19-0.01-0.32-0.04-0.4-0.09c-0.07-0.05-0.11-0.11-0.11-0.19c0-0.12,0.04-0.25,0.11-0.39c0.07-0.14,0.19-0.19,0.35-0.17
	c0.09,0.01,0.18,0.02,0.26,0.03c0.09,0,0.17,0.01,0.26,0.01c0.17-0.62,0.35-1.23,0.55-1.82c0.2-0.6,0.39-1.14,0.58-1.64
	c0.19-0.5,0.36-0.92,0.52-1.28c0.16-0.35,0.28-0.6,0.37-0.73c0.09-0.15,0.24-0.22,0.46-0.22c0.18,0,0.37,0.03,0.57,0.1
	c0.2,0.07,0.37,0.15,0.52,0.26c0.15,0.11,0.25,0.23,0.3,0.38c0.06,0.14,0.03,0.3-0.07,0.46c-0.07,0.09-0.17,0.28-0.3,0.57
	c-0.13,0.29-0.28,0.63-0.45,1.04c-0.17,0.41-0.35,0.86-0.54,1.36c-0.19,0.5-0.38,1.02-0.56,1.55h0.47c0.07,0,0.11,0.04,0.14,0.13
	c0.02,0.09,0.03,0.18,0.01,0.28c-0.02,0.1-0.06,0.2-0.12,0.29c-0.06,0.09-0.15,0.14-0.25,0.15c-0.09,0.01-0.18,0.02-0.27,0.02
	c-0.09,0.01-0.18,0.01-0.29,0.03c-0.16,0.46-0.3,0.91-0.42,1.34c-0.12,0.44-0.23,0.84-0.31,1.21c-0.08,0.37-0.14,0.7-0.18,0.98
	c-0.03,0.28-0.03,0.5,0.02,0.64c0.02,0.07,0.07,0.11,0.14,0.12c0.07,0.01,0.13,0,0.19-0.03c0.12-0.08,0.27-0.22,0.44-0.43
	c0.17-0.21,0.35-0.45,0.54-0.74c0.11-0.15,0.21-0.32,0.32-0.49c0.04-0.34,0.1-0.69,0.2-1.04c0.15-0.56,0.36-1.07,0.63-1.54
	c0.27-0.47,0.58-0.85,0.94-1.15c0.35-0.3,0.73-0.45,1.14-0.45c0.07,0,0.16,0.01,0.26,0.02c0.11,0.01,0.22,0.05,0.33,0.11
	c0.11,0.06,0.23,0.15,0.34,0.27c0.11,0.12,0.2,0.28,0.27,0.48c0.26,0.11,0.46,0.37,0.61,0.76c0.15,0.4,0.16,0.96,0.03,1.71
	c0.09,0.01,0.22-0.01,0.4-0.07c0.18-0.06,0.37-0.17,0.58-0.33c0.21-0.17,0.42-0.4,0.63-0.69c0.21-0.3,0.41-0.69,0.59-1.16
	c0.04-0.08,0.11-0.13,0.19-0.15c0.08-0.02,0.15-0.02,0.22,0.01c0.07,0.03,0.12,0.07,0.17,0.13c0.05,0.06,0.06,0.14,0.05,0.24
	c-0.1,0.35-0.26,0.71-0.48,1.08c-0.22,0.37-0.47,0.7-0.74,1c-0.28,0.29-0.58,0.53-0.9,0.72c-0.32,0.19-0.63,0.27-0.94,0.24
	c-0.23,0.85-0.57,1.54-1.02,2.08c-0.46,0.54-1.01,0.81-1.65,0.81c-0.25,0-0.51-0.06-0.79-0.18c-0.37-0.19-0.64-0.5-0.82-0.91
	c-0.07-0.18-0.13-0.36-0.17-0.56l-0.05,0.08c-0.26,0.41-0.52,0.74-0.78,1.01c-0.26,0.26-0.51,0.4-0.76,0.41
	c-0.47,0.02-0.85-0.1-1.12-0.37c-0.27-0.27-0.43-0.66-0.49-1.17c-0.03-0.24-0.03-0.52-0.02-0.82c-0.18,0.35-0.38,0.67-0.58,0.98
	c-0.26,0.4-0.54,0.73-0.81,0.99c-0.28,0.26-0.55,0.39-0.82,0.39c-0.29,0-0.55-0.1-0.77-0.3c-0.22-0.2-0.36-0.47-0.43-0.81
	c-0.07,0.12-0.15,0.25-0.25,0.38c-0.1,0.13-0.21,0.25-0.34,0.35c-0.12,0.11-0.26,0.2-0.41,0.27c-0.15,0.07-0.32,0.12-0.5,0.13
	c-0.48,0-0.89-0.17-1.22-0.5c-0.21-0.22-0.36-0.51-0.43-0.87c-0.25,0.34-0.51,0.64-0.78,0.88c-0.3,0.27-0.59,0.43-0.89,0.47
	c-0.28,0.02-0.52,0-0.7-0.07c-0.19-0.07-0.34-0.18-0.45-0.32c-0.11-0.15-0.19-0.32-0.24-0.52c-0.05-0.2-0.08-0.42-0.08-0.66
	c0-0.36,0.05-0.76,0.16-1.2c0.11-0.44,0.21-0.87,0.3-1.3c0.07-0.31,0.09-0.51,0.06-0.63c-0.03-0.11-0.08-0.16-0.17-0.14
	c-0.09,0.02-0.19,0.11-0.3,0.26c-0.12,0.15-0.23,0.34-0.35,0.57c-0.1,0.23-0.2,0.5-0.3,0.82c-0.1,0.32-0.19,0.65-0.26,0.99
	c-0.07,0.34-0.13,0.66-0.18,0.96c-0.05,0.3-0.06,0.54-0.05,0.71c0.01,0.19-0.08,0.34-0.28,0.43c-0.2,0.1-0.42,0.13-0.66,0.09
	c-0.24-0.03-0.46-0.14-0.64-0.32c-0.19-0.18-0.26-0.45-0.21-0.8c0.06-0.34,0.14-0.71,0.24-1.13c0.11-0.42,0.22-0.84,0.35-1.27
	c0.09-0.3,0.17-0.58,0.23-0.85c0.06-0.26,0.05-0.41-0.04-0.47c-0.06-0.05-0.17-0.02-0.34,0.1c-0.17,0.12-0.34,0.37-0.52,0.73
	c-0.1,0.23-0.21,0.48-0.34,0.76c-0.12,0.28-0.24,0.57-0.35,0.87c-0.11,0.3-0.21,0.59-0.3,0.87c-0.09,0.28-0.16,0.53-0.2,0.74
	c-0.06,0.22-0.16,0.41-0.31,0.58c-0.15,0.17-0.37,0.23-0.65,0.18c-0.1-0.01-0.19-0.05-0.26-0.12c-0.07-0.07-0.14-0.15-0.19-0.24
	c-0.05-0.09-0.09-0.18-0.11-0.29c-0.02-0.1-0.03-0.2-0.03-0.29c0-0.32,0.04-0.7,0.12-1.16c0.06-0.36,0.14-0.73,0.23-1.13
	c-0.12,0.09-0.24,0.17-0.36,0.24c-0.32,0.19-0.63,0.27-0.94,0.24c-0.23,0.85-0.57,1.54-1.02,2.08c-0.46,0.54-1.01,0.81-1.65,0.81
	c-0.25,0-0.51-0.06-0.79-0.18c-0.37-0.19-0.64-0.5-0.82-0.91c-0.07-0.18-0.13-0.36-0.18-0.56l-0.05,0.08
	c-0.26,0.41-0.52,0.74-0.78,1.01c-0.26,0.26-0.51,0.4-0.76,0.41c-0.47,0.02-0.84-0.1-1.11-0.37c-0.27-0.27-0.43-0.66-0.49-1.17
	c-0.06-0.48-0.03-1.09,0.09-1.8c0.12-0.71,0.27-1.48,0.47-2.29l-0.25-0.02c-0.19-0.01-0.32-0.04-0.4-0.09
	c-0.07-0.05-0.11-0.11-0.11-0.19c0-0.12,0.04-0.25,0.11-0.39c0.07-0.14,0.19-0.19,0.35-0.17c0.09,0.01,0.18,0.02,0.26,0.03
	c0.09,0,0.17,0.01,0.26,0.01c0.17-0.62,0.35-1.23,0.55-1.82c0.2-0.6,0.39-1.14,0.58-1.64c0.19-0.5,0.36-0.92,0.52-1.28
	c0.16-0.35,0.28-0.6,0.37-0.73c0.09-0.15,0.24-0.22,0.46-0.22c0.18,0,0.37,0.03,0.57,0.1c0.2,0.07,0.37,0.15,0.52,0.26
	c0.15,0.11,0.25,0.23,0.3,0.38c0.06,0.14,0.03,0.3-0.07,0.46c-0.07,0.09-0.17,0.28-0.29,0.57c-0.13,0.29-0.28,0.63-0.45,1.04
	c-0.17,0.41-0.35,0.86-0.54,1.36c-0.19,0.5-0.38,1.02-0.56,1.55h0.47c0.07,0,0.11,0.04,0.13,0.13c0.02,0.09,0.03,0.18,0.01,0.28
	c-0.02,0.1-0.06,0.2-0.12,0.29c-0.06,0.09-0.14,0.14-0.24,0.15c-0.09,0.01-0.18,0.02-0.27,0.02c-0.09,0.01-0.19,0.01-0.29,0.03
	c-0.16,0.46-0.3,0.91-0.42,1.34c-0.12,0.44-0.23,0.84-0.31,1.21c-0.08,0.37-0.14,0.7-0.18,0.98c-0.03,0.28-0.03,0.5,0.02,0.64
	c0.02,0.07,0.07,0.11,0.14,0.12c0.07,0.01,0.13,0,0.19-0.03c0.12-0.08,0.27-0.22,0.44-0.43c0.17-0.21,0.35-0.45,0.54-0.74
	c0.11-0.15,0.21-0.32,0.32-0.49c0.04-0.34,0.1-0.69,0.2-1.04c0.15-0.56,0.36-1.07,0.63-1.54c0.27-0.47,0.58-0.85,0.94-1.15
	c0.35-0.3,0.73-0.45,1.14-0.45c0.07,0,0.15,0.01,0.26,0.02c0.11,0.01,0.22,0.05,0.33,0.11c0.11,0.06,0.23,0.15,0.34,0.27
	c0.11,0.12,0.2,0.28,0.27,0.48c0.26,0.11,0.46,0.37,0.61,0.76C129.54,144.93,129.55,145.5,129.42,146.24L129.42,146.24z
	 M126.43,149.34c0.16,0,0.31-0.09,0.46-0.25c0.15-0.17,0.28-0.38,0.41-0.63c0.12-0.25,0.23-0.52,0.3-0.81
	c0.08-0.29,0.13-0.55,0.15-0.79c-0.1-0.07-0.19-0.17-0.26-0.3c-0.07-0.13-0.13-0.28-0.17-0.45c-0.04-0.16-0.06-0.33-0.07-0.5
	c0-0.17,0.02-0.32,0.08-0.44c-0.16,0.06-0.32,0.2-0.47,0.42c-0.16,0.23-0.3,0.49-0.43,0.8c-0.13,0.31-0.24,0.64-0.33,0.99
	c-0.09,0.35-0.14,0.67-0.16,0.95c-0.02,0.29,0.01,0.53,0.08,0.72C126.09,149.24,126.23,149.34,126.43,149.34L126.43,149.34z
	 M142.46,144.93c0-0.03,0-0.09-0.01-0.16c-0.01-0.07-0.02-0.14-0.03-0.21c-0.02-0.07-0.04-0.13-0.07-0.18
	c-0.03-0.06-0.06-0.09-0.11-0.09c-0.13,0-0.28,0.11-0.45,0.31c-0.16,0.21-0.32,0.47-0.47,0.79c-0.15,0.31-0.3,0.66-0.43,1.05
	c-0.13,0.38-0.24,0.74-0.32,1.08c-0.02,0.1-0.05,0.24-0.08,0.42c-0.03,0.18-0.05,0.36-0.06,0.53c0,0.18,0.01,0.33,0.04,0.46
	c0.03,0.13,0.11,0.19,0.22,0.19c0.15,0,0.29-0.08,0.44-0.24c0.15-0.16,0.28-0.37,0.41-0.64c0.13-0.26,0.25-0.55,0.36-0.86
	c0.11-0.32,0.21-0.63,0.3-0.94c0.09-0.31,0.15-0.6,0.19-0.87C142.43,145.3,142.46,145.08,142.46,144.93L142.46,144.93z
	 M150.47,149.34c0.16,0,0.31-0.09,0.46-0.25c0.15-0.17,0.28-0.38,0.41-0.63c0.12-0.25,0.23-0.52,0.3-0.81
	c0.08-0.29,0.13-0.55,0.15-0.79c-0.1-0.07-0.19-0.17-0.26-0.3c-0.07-0.13-0.13-0.28-0.17-0.45c-0.04-0.16-0.06-0.33-0.07-0.5
	c-0.01-0.17,0.02-0.32,0.08-0.44c-0.16,0.06-0.32,0.2-0.47,0.42c-0.16,0.23-0.3,0.49-0.43,0.8c-0.13,0.31-0.24,0.64-0.33,0.99
	c-0.09,0.35-0.14,0.67-0.16,0.95c-0.02,0.29,0.01,0.53,0.08,0.72C150.13,149.24,150.26,149.34,150.47,149.34L150.47,149.34z
	 M157.28,151.26c-0.27,0.08-0.49,0.19-0.65,0.34c-0.16,0.15-0.28,0.29-0.35,0.44c-0.07,0.15-0.09,0.27-0.08,0.38
	c0.01,0.11,0.06,0.16,0.14,0.16c0.27-0.02,0.48-0.18,0.62-0.46C157.1,151.84,157.21,151.56,157.28,151.26L157.28,151.26z
	 M161.2,142.29c-0.1,0.09-0.23,0.13-0.4,0.12c-0.16,0-0.32-0.05-0.47-0.13c-0.15-0.08-0.27-0.21-0.36-0.36
	c-0.09-0.16-0.11-0.35-0.05-0.56c0.03-0.11,0.07-0.24,0.11-0.4c0.04-0.15,0.08-0.3,0.14-0.46c0.05-0.15,0.1-0.3,0.16-0.43
	c0.06-0.14,0.11-0.24,0.17-0.32c0.07-0.07,0.13-0.12,0.2-0.15c0.07-0.03,0.15-0.06,0.25-0.07c0.17-0.01,0.35,0.02,0.54,0.08
	c0.19,0.07,0.36,0.16,0.52,0.28c0.15,0.12,0.26,0.25,0.34,0.41c0.07,0.15,0.08,0.29,0.01,0.43L161.2,142.29L161.2,142.29z
	 M170.73,142.29c-0.1,0.09-0.23,0.13-0.4,0.12c-0.16,0-0.32-0.05-0.47-0.13c-0.15-0.08-0.28-0.21-0.36-0.36
	c-0.09-0.16-0.11-0.35-0.05-0.56c0.03-0.11,0.07-0.24,0.11-0.4c0.04-0.15,0.09-0.3,0.13-0.46c0.05-0.15,0.11-0.3,0.16-0.43
	c0.06-0.14,0.11-0.24,0.17-0.32c0.07-0.07,0.13-0.12,0.2-0.15c0.07-0.03,0.15-0.06,0.25-0.07c0.17-0.01,0.35,0.02,0.54,0.08
	c0.19,0.07,0.36,0.16,0.51,0.28c0.15,0.12,0.27,0.25,0.34,0.41c0.07,0.15,0.08,0.29,0.01,0.43L170.73,142.29L170.73,142.29z"/>
<path class="st0" d="M172.38,83.13c-0.42-0.06-0.59-0.2-0.52-0.42c0.04-0.15,0.09-0.31,0.14-0.48c0.05-0.18,0.08-0.33,0.08-0.46
	c0.01-0.13-0.01-0.22-0.07-0.26c-0.05-0.05-0.16-0.01-0.33,0.1c-0.18,0.12-0.36,0.33-0.53,0.61c-0.17,0.28-0.32,0.6-0.45,0.95
	c-0.13,0.35-0.23,0.71-0.31,1.07c-0.08,0.37-0.12,0.69-0.12,0.97c0,0.35,0.05,0.61,0.15,0.77c0.1,0.16,0.23,0.26,0.39,0.28
	c0.17,0.02,0.35-0.01,0.57-0.1c0.21-0.09,0.43-0.22,0.66-0.39c0.32-0.24,0.62-0.54,0.93-0.9c0.3-0.37,0.6-0.76,0.89-1.18l0.07-0.1
	c0.03-0.17,0.07-0.35,0.12-0.53c0.14-0.53,0.35-1.02,0.61-1.47c0.27-0.45,0.6-0.82,0.99-1.11c0.39-0.3,0.83-0.45,1.34-0.45
	c0.2,0,0.41,0.04,0.62,0.11c0.21,0.07,0.39,0.18,0.55,0.33c0.16,0.15,0.29,0.34,0.4,0.57c0.11,0.23,0.16,0.5,0.16,0.82
	c-0.02,0.6-0.15,1.09-0.38,1.49c-0.23,0.39-0.51,0.71-0.85,0.94c-0.34,0.24-0.7,0.4-1.07,0.5c-0.37,0.1-0.72,0.14-1.04,0.14
	c-0.02,0.15-0.01,0.3,0.03,0.45c0.04,0.15,0.1,0.29,0.19,0.41c0.08,0.12,0.19,0.22,0.32,0.29c0.13,0.07,0.28,0.11,0.45,0.11
	c0.29,0,0.62-0.13,1-0.41c0.37-0.27,0.75-0.64,1.14-1.11c0.39-0.47,0.78-1.01,1.16-1.64c0.38-0.63,0.73-1.29,1.05-2
	c0.02-0.06,0.07-0.09,0.13-0.09c0.07,0,0.13,0,0.21,0.03c0.07,0.03,0.12,0.07,0.16,0.12c0.04,0.05,0.05,0.1,0.02,0.14
	c-0.12,0.26-0.29,0.58-0.5,0.97c-0.21,0.39-0.44,0.8-0.71,1.23c-0.26,0.43-0.56,0.87-0.87,1.3c-0.32,0.43-0.65,0.83-1.01,1.18
	c-0.35,0.35-0.72,0.64-1.1,0.87c-0.38,0.23-0.76,0.34-1.14,0.35c-0.31,0-0.58-0.06-0.83-0.19c-0.25-0.13-0.46-0.31-0.65-0.54
	c-0.18-0.23-0.33-0.5-0.43-0.81c-0.08-0.24-0.13-0.49-0.15-0.77c-0.31,0.43-0.63,0.81-0.96,1.15c-0.34,0.34-0.68,0.62-1.03,0.83
	c-0.36,0.21-0.71,0.32-1.06,0.32c-0.36,0-0.67-0.07-0.92-0.21c-0.25-0.14-0.47-0.33-0.63-0.57c-0.17-0.24-0.29-0.51-0.37-0.8
	c-0.01-0.04-0.02-0.08-0.03-0.13c-0.09,0.13-0.18,0.26-0.26,0.38c-0.29,0.39-0.59,0.7-0.93,0.95c-0.33,0.25-0.66,0.38-0.99,0.38
	c-0.28,0-0.52-0.05-0.71-0.13c-0.19-0.09-0.35-0.22-0.47-0.38c-0.11-0.16-0.2-0.35-0.25-0.57c-0.04-0.17-0.07-0.35-0.08-0.55
	l-0.1,0.17c-0.26,0.4-0.53,0.74-0.8,1.01c-0.27,0.28-0.54,0.42-0.8,0.45c-0.45,0.05-0.8-0.08-1.05-0.37
	c-0.25-0.29-0.38-0.68-0.39-1.17c-0.1,0.19-0.22,0.38-0.34,0.56c-0.12,0.18-0.26,0.34-0.41,0.48c-0.15,0.14-0.3,0.26-0.47,0.35
	c-0.16,0.09-0.32,0.14-0.48,0.14c-0.14,0-0.28-0.02-0.44-0.07c-0.16-0.04-0.31-0.13-0.46-0.25c-0.15-0.12-0.27-0.3-0.37-0.54
	c-0.05-0.11-0.08-0.23-0.11-0.37l-0.08,0.12c-0.3,0.41-0.61,0.76-0.95,1.07c-0.33,0.31-0.67,0.54-1.02,0.69
	c-0.08,0.24-0.18,0.53-0.3,0.89c-0.12,0.36-0.28,0.71-0.47,1.06c-0.19,0.34-0.43,0.64-0.71,0.89c-0.28,0.25-0.62,0.38-1.01,0.41
	c-0.38,0.02-0.7-0.11-0.94-0.39c-0.24-0.28-0.36-0.6-0.36-0.96c0-0.39,0.07-0.73,0.2-1c0.13-0.28,0.31-0.51,0.53-0.69
	c0.22-0.19,0.47-0.34,0.76-0.45c0.29-0.11,0.59-0.21,0.91-0.29c0.05-0.2,0.1-0.48,0.17-0.83c0.07-0.35,0.14-0.73,0.22-1.14
	c0.08-0.41,0.16-0.84,0.25-1.28c0.09-0.45,0.17-0.87,0.25-1.26c0.08-0.4,0.15-0.75,0.22-1.06c0.07-0.32,0.12-0.56,0.17-0.73
	c0.08-0.25,0.19-0.46,0.32-0.63c0.14-0.18,0.32-0.25,0.56-0.23c0.17,0.01,0.35,0.04,0.55,0.09c0.2,0.05,0.37,0.12,0.52,0.22
	c0.15,0.1,0.25,0.22,0.3,0.37c0.06,0.15,0.03,0.34-0.09,0.55c-0.13,0.27-0.29,0.64-0.46,1.1c-0.17,0.46-0.34,0.96-0.51,1.49
	c-0.17,0.53-0.33,1.06-0.48,1.58c-0.15,0.53-0.28,0.97-0.38,1.34c0.37-0.25,0.74-0.62,1.1-1.11c0.24-0.33,0.48-0.68,0.7-1.06
	c0.02-0.22,0.05-0.44,0.09-0.68c0.09-0.49,0.21-0.98,0.35-1.46c0.14-0.48,0.29-0.91,0.45-1.31c0.16-0.39,0.3-0.69,0.42-0.88
	c0.16-0.19,0.36-0.29,0.61-0.29c0.17,0,0.34,0.02,0.51,0.07c0.17,0.05,0.31,0.12,0.43,0.21c0.12,0.09,0.19,0.2,0.23,0.35
	c0.03,0.14,0,0.3-0.1,0.48c-0.1,0.19-0.23,0.46-0.38,0.8c-0.15,0.34-0.3,0.72-0.45,1.12c-0.15,0.41-0.28,0.81-0.41,1.22
	c-0.12,0.41-0.2,0.77-0.24,1.08c-0.05,0.29,0,0.47,0.13,0.52c0.13,0.06,0.29-0.08,0.48-0.42c0.15-0.25,0.3-0.57,0.47-0.96
	c0.17-0.39,0.33-0.8,0.49-1.23c0.16-0.42,0.32-0.84,0.47-1.24c0.15-0.41,0.28-0.75,0.38-1.03c0.06-0.17,0.11-0.31,0.15-0.44
	c0.04-0.12,0.09-0.21,0.12-0.25c0.12-0.19,0.31-0.29,0.58-0.29c0.17,0,0.34,0.02,0.51,0.06c0.17,0.04,0.33,0.1,0.45,0.18
	c0.12,0.08,0.21,0.18,0.25,0.3c0.05,0.12,0.02,0.28-0.07,0.46c-0.1,0.18-0.22,0.42-0.36,0.73c-0.14,0.31-0.28,0.65-0.43,1.01
	c-0.15,0.37-0.28,0.74-0.39,1.12c-0.11,0.38-0.19,0.73-0.23,1.05c0,0.03,0,0.1-0.01,0.19c-0.01,0.1-0.02,0.2-0.02,0.3
	c0,0.1,0.01,0.19,0.04,0.27c0.03,0.08,0.08,0.12,0.14,0.14c0.11,0,0.27-0.08,0.47-0.25c0.2-0.17,0.44-0.44,0.71-0.83
	c0.17-0.25,0.35-0.54,0.55-0.88c0.07-0.38,0.16-0.76,0.26-1.13c0.12-0.44,0.25-0.86,0.4-1.26c0.14-0.4,0.28-0.71,0.41-0.95
	c0.1-0.19,0.28-0.3,0.54-0.33c0.26-0.03,0.51,0.01,0.74,0.11c0.23,0.1,0.42,0.25,0.56,0.45c0.14,0.2,0.14,0.42,0,0.67
	c-0.1,0.2-0.23,0.45-0.38,0.75c-0.15,0.3-0.3,0.62-0.45,0.96c-0.15,0.34-0.27,0.7-0.38,1.05c-0.11,0.36-0.18,0.69-0.21,1
	c0,0.06,0,0.12,0,0.19c0,0.07,0.01,0.15,0.02,0.22c0.02,0.07,0.04,0.14,0.08,0.19c0.03,0.05,0.09,0.09,0.15,0.1
	c0.13,0,0.3-0.08,0.49-0.24c0.19-0.16,0.39-0.38,0.6-0.66c0.21-0.27,0.41-0.58,0.63-0.92c0.04-0.39,0.12-0.78,0.23-1.18
	c0.18-0.58,0.42-1.11,0.73-1.57c0.31-0.46,0.68-0.82,1.11-1.08c0.43-0.26,0.9-0.34,1.4-0.23c0.25,0.05,0.47,0.16,0.66,0.3
	c0.19,0.15,0.35,0.33,0.46,0.55c0.12,0.22,0.18,0.47,0.2,0.76c0.02,0.29-0.01,0.59-0.1,0.92c-0.09,0.29-0.25,0.47-0.47,0.53
	C172.78,83.13,172.57,83.15,172.38,83.13L172.38,83.13z M176.88,81.59c-0.1,0.06-0.22,0.17-0.35,0.34
	c-0.13,0.17-0.27,0.38-0.41,0.62c-0.13,0.24-0.26,0.51-0.37,0.79c-0.12,0.29-0.2,0.58-0.25,0.87c0.19-0.02,0.38-0.1,0.58-0.24
	c0.2-0.13,0.38-0.3,0.54-0.5c0.16-0.2,0.3-0.42,0.42-0.68c0.11-0.25,0.18-0.51,0.2-0.77c0.01-0.13,0-0.23-0.03-0.29
	c-0.02-0.06-0.06-0.11-0.1-0.13c-0.04-0.03-0.08-0.04-0.12-0.03C176.95,81.57,176.91,81.58,176.88,81.59L176.88,81.59z M126.2,75.18
	c0.09-0.15,0.25-0.22,0.47-0.22c0.18,0,0.37,0.04,0.57,0.1c0.2,0.07,0.37,0.15,0.52,0.26c0.15,0.11,0.25,0.23,0.3,0.38
	c0.06,0.15,0.03,0.3-0.07,0.46c-0.09,0.12-0.23,0.41-0.43,0.87c-0.2,0.46-0.42,1-0.67,1.64c-0.25,0.64-0.5,1.32-0.76,2.04
	c-0.26,0.73-0.49,1.43-0.68,2.1c-0.2,0.67-0.35,1.27-0.45,1.8c-0.1,0.53-0.12,0.91-0.05,1.13c0.02,0.07,0.06,0.11,0.13,0.12
	c0.06,0.01,0.12,0,0.18-0.03c0.18-0.11,0.39-0.32,0.64-0.63c0.15-0.19,0.31-0.4,0.47-0.64v0c0-0.47,0.07-0.98,0.21-1.51
	c0.14-0.53,0.35-1.02,0.62-1.47c0.27-0.45,0.6-0.82,0.99-1.11c0.39-0.3,0.84-0.45,1.34-0.45c0.2,0,0.41,0.04,0.62,0.11
	c0.21,0.07,0.39,0.18,0.55,0.33c0.16,0.15,0.29,0.34,0.4,0.57c0.11,0.23,0.16,0.5,0.16,0.82c-0.02,0.6-0.15,1.09-0.38,1.49
	c-0.23,0.39-0.52,0.71-0.85,0.94c-0.34,0.24-0.7,0.4-1.07,0.5c-0.38,0.1-0.73,0.14-1.04,0.14c-0.02,0.15-0.01,0.3,0.03,0.45
	c0.04,0.15,0.1,0.29,0.19,0.41c0.08,0.12,0.19,0.22,0.32,0.29c0.13,0.07,0.28,0.11,0.45,0.11c0.29,0,0.63-0.13,1-0.41
	c0.37-0.27,0.75-0.64,1.14-1.11c0.39-0.47,0.77-1.01,1.16-1.64c0.05-0.08,0.09-0.15,0.14-0.23c0.08-0.28,0.16-0.57,0.25-0.86
	c0.17-0.55,0.34-1.07,0.51-1.57c0.05-0.16,0.18-0.26,0.41-0.3c0.23-0.05,0.45-0.05,0.68,0c0.23,0.04,0.41,0.13,0.57,0.24
	c0.15,0.12,0.19,0.26,0.11,0.43c-0.09,0.23-0.19,0.47-0.3,0.71c-0.11,0.24-0.2,0.47-0.28,0.69c0.08-0.13,0.18-0.29,0.31-0.46
	c0.12-0.17,0.26-0.34,0.41-0.51c0.15-0.17,0.3-0.34,0.46-0.5c0.16-0.16,0.32-0.3,0.49-0.41c0.19-0.11,0.38-0.16,0.57-0.15
	c0.19,0.01,0.36,0.07,0.5,0.17c0.14,0.1,0.25,0.25,0.34,0.43c0.08,0.19,0.12,0.39,0.11,0.62c0.16-0.19,0.33-0.38,0.52-0.57
	c0.19-0.18,0.38-0.34,0.57-0.46c0.21-0.14,0.44-0.19,0.68-0.18c0.24,0.02,0.44,0.11,0.6,0.28c0.16,0.17,0.27,0.42,0.31,0.74
	c0.04,0.33-0.02,0.73-0.19,1.22c-0.03,0.11-0.07,0.2-0.09,0.28c-0.03,0.07-0.06,0.14-0.08,0.21c-0.03,0.07-0.05,0.14-0.08,0.21
	c-0.02,0.07-0.05,0.16-0.08,0.26c-0.16,0.47-0.29,0.92-0.41,1.34c-0.11,0.41-0.17,0.75-0.17,1.01c0,0.03,0.01,0.07,0.03,0.12
	c0.02,0.05,0.06,0.08,0.13,0.08c0.09,0,0.24-0.1,0.46-0.3c0.21-0.2,0.47-0.5,0.76-0.9l0.03-0.05c0.01-0.48,0.09-0.98,0.23-1.49
	c0.15-0.56,0.36-1.07,0.63-1.54c0.27-0.47,0.58-0.85,0.94-1.15c0.35-0.3,0.74-0.45,1.14-0.45c0.07,0,0.15,0,0.26,0.02
	c0.11,0.01,0.22,0.05,0.33,0.11c0.11,0.06,0.22,0.15,0.34,0.27c0.11,0.12,0.2,0.28,0.27,0.48c0.26,0.11,0.46,0.37,0.61,0.76
	c0.15,0.39,0.16,0.96,0.03,1.71c0.09,0.01,0.22-0.01,0.4-0.07c0.17-0.06,0.37-0.17,0.57-0.33c0.04-0.03,0.08-0.07,0.12-0.11
	c0.09-0.31,0.18-0.62,0.27-0.94c0.17-0.56,0.34-1.09,0.51-1.58c0.05-0.12,0.18-0.2,0.39-0.23c0.21-0.03,0.43-0.03,0.65,0.02
	c0.22,0.05,0.41,0.12,0.56,0.23c0.15,0.11,0.19,0.25,0.11,0.42c-0.09,0.23-0.19,0.47-0.3,0.71c-0.11,0.24-0.21,0.46-0.29,0.68
	c0.08-0.12,0.18-0.27,0.31-0.43c0.13-0.16,0.27-0.33,0.42-0.5c0.15-0.17,0.31-0.33,0.47-0.49c0.16-0.16,0.33-0.29,0.5-0.41
	c0.21-0.13,0.43-0.19,0.64-0.17c0.21,0.02,0.4,0.1,0.55,0.24c0.15,0.14,0.26,0.34,0.33,0.59c0.07,0.25,0.06,0.55-0.02,0.89
	c-0.04,0.2-0.12,0.48-0.24,0.82c-0.11,0.35-0.23,0.7-0.34,1.07c-0.11,0.37-0.21,0.73-0.3,1.08c-0.09,0.35-0.14,0.63-0.14,0.83
	c0,0.03,0.01,0.07,0.03,0.12c0.02,0.05,0.05,0.08,0.11,0.08c0.09,0,0.25-0.1,0.46-0.3c0.22-0.2,0.48-0.51,0.77-0.91
	c0.29-0.41,0.61-0.91,0.95-1.51c0.34-0.6,0.68-1.28,1.01-2.06c0.02-0.06,0.07-0.09,0.14-0.09c0.07,0,0.14,0,0.2,0.03
	c0.07,0.03,0.12,0.07,0.16,0.13c0.04,0.06,0.05,0.11,0.04,0.15c-0.06,0.11-0.15,0.33-0.29,0.64c-0.14,0.32-0.3,0.68-0.51,1.1
	c-0.2,0.42-0.43,0.85-0.69,1.31c-0.25,0.46-0.52,0.88-0.8,1.28c-0.28,0.4-0.57,0.73-0.86,1c-0.29,0.27-0.59,0.43-0.88,0.47
	c-0.27,0.02-0.5,0-0.68-0.07c-0.19-0.07-0.34-0.17-0.45-0.32c-0.11-0.15-0.19-0.32-0.24-0.53s-0.08-0.42-0.08-0.66
	c0-0.36,0.05-0.76,0.16-1.19c0.11-0.43,0.21-0.87,0.3-1.29c0.07-0.3,0.08-0.52,0.04-0.64c-0.04-0.12-0.11-0.16-0.21-0.13
	c-0.1,0.03-0.22,0.12-0.35,0.26c-0.13,0.15-0.24,0.33-0.35,0.56c-0.1,0.23-0.21,0.48-0.34,0.77c-0.12,0.29-0.24,0.58-0.35,0.88
	c-0.11,0.3-0.21,0.59-0.3,0.87c-0.1,0.28-0.17,0.53-0.21,0.75c-0.05,0.2-0.14,0.39-0.29,0.56c-0.15,0.17-0.36,0.23-0.64,0.19
	c-0.2-0.02-0.35-0.14-0.45-0.35c-0.09-0.21-0.14-0.4-0.14-0.57c0-0.32,0.04-0.71,0.13-1.17c0.06-0.3,0.12-0.61,0.19-0.94l-0.08,0.05
	c-0.32,0.18-0.63,0.27-0.94,0.24c-0.23,0.85-0.57,1.54-1.02,2.08c-0.46,0.54-1.01,0.81-1.65,0.81c-0.25,0-0.51-0.06-0.79-0.18
	c-0.37-0.19-0.65-0.5-0.82-0.91c-0.06-0.13-0.1-0.27-0.14-0.42c-0.25,0.35-0.52,0.64-0.79,0.89c-0.3,0.27-0.59,0.43-0.89,0.47
	c-0.28,0.02-0.52,0-0.7-0.07c-0.19-0.07-0.34-0.17-0.45-0.32c-0.11-0.15-0.19-0.32-0.24-0.53c-0.05-0.2-0.08-0.42-0.08-0.66
	c0-0.36,0.05-0.76,0.16-1.2c0.11-0.44,0.21-0.87,0.3-1.3c0.07-0.3,0.09-0.51,0.06-0.63c-0.03-0.11-0.08-0.16-0.17-0.14
	c-0.08,0.02-0.19,0.11-0.3,0.26c-0.12,0.15-0.23,0.34-0.35,0.57c-0.1,0.23-0.2,0.5-0.3,0.82c-0.1,0.32-0.19,0.65-0.26,0.99
	c-0.07,0.34-0.13,0.66-0.18,0.96c-0.05,0.3-0.06,0.54-0.05,0.71c0.01,0.19-0.08,0.34-0.28,0.43c-0.2,0.1-0.42,0.13-0.66,0.09
	c-0.24-0.03-0.46-0.14-0.64-0.32c-0.19-0.18-0.26-0.45-0.21-0.8c0.06-0.34,0.14-0.71,0.25-1.13c0.11-0.42,0.22-0.84,0.35-1.27
	c0.09-0.3,0.17-0.58,0.23-0.84c0.06-0.26,0.05-0.42-0.04-0.47c-0.06-0.05-0.17-0.02-0.34,0.1c-0.17,0.12-0.34,0.37-0.52,0.73
	c-0.1,0.23-0.21,0.48-0.34,0.76c-0.12,0.28-0.24,0.57-0.35,0.87c-0.11,0.3-0.2,0.59-0.3,0.87c-0.09,0.28-0.16,0.53-0.2,0.75
	c-0.05,0.21-0.16,0.41-0.31,0.57c-0.15,0.17-0.37,0.23-0.65,0.19c-0.1-0.01-0.19-0.05-0.26-0.12c-0.07-0.07-0.13-0.15-0.19-0.24
	c-0.05-0.09-0.09-0.19-0.11-0.29c-0.02-0.1-0.03-0.2-0.03-0.29c0-0.32,0.04-0.7,0.12-1.16c0.04-0.21,0.08-0.43,0.12-0.65
	c-0.09,0.12-0.17,0.24-0.26,0.37c-0.32,0.43-0.65,0.83-1.01,1.18c-0.35,0.35-0.72,0.64-1.1,0.87c-0.38,0.23-0.76,0.34-1.14,0.35
	c-0.3,0-0.58-0.06-0.83-0.19c-0.25-0.13-0.46-0.31-0.65-0.54c-0.14-0.18-0.26-0.37-0.35-0.59c-0.24,0.36-0.5,0.67-0.76,0.92
	c-0.28,0.27-0.57,0.4-0.86,0.4c-0.2,0-0.4-0.03-0.58-0.09c-0.18-0.05-0.35-0.15-0.49-0.28c-0.14-0.13-0.26-0.3-0.35-0.52
	c-0.09-0.22-0.14-0.49-0.15-0.82c-0.01-0.44,0.03-0.98,0.13-1.61c0.1-0.63,0.24-1.3,0.41-2c0.17-0.71,0.36-1.42,0.57-2.13
	c0.21-0.71,0.43-1.38,0.64-1.98c0.21-0.61,0.41-1.14,0.59-1.58C125.95,75.66,126.09,75.35,126.2,75.18L126.2,75.18z M129.4,81.59
	c-0.1,0.06-0.22,0.17-0.35,0.34c-0.14,0.17-0.27,0.38-0.41,0.62c-0.14,0.24-0.26,0.51-0.37,0.79c-0.11,0.29-0.2,0.58-0.25,0.87
	c0.19-0.02,0.39-0.1,0.58-0.24c0.2-0.13,0.38-0.3,0.54-0.5c0.16-0.2,0.3-0.42,0.41-0.68c0.11-0.25,0.18-0.51,0.2-0.77
	c0.01-0.13,0-0.23-0.03-0.29c-0.03-0.06-0.06-0.11-0.1-0.13c-0.04-0.03-0.08-0.04-0.12-0.03C129.47,81.57,129.43,81.58,129.4,81.59
	L129.4,81.59z M142.23,86.42c0.16,0,0.31-0.08,0.46-0.25c0.15-0.17,0.28-0.38,0.41-0.63c0.12-0.25,0.22-0.52,0.3-0.81
	s0.13-0.55,0.15-0.79c-0.1-0.07-0.19-0.17-0.26-0.3c-0.07-0.13-0.13-0.28-0.17-0.45c-0.04-0.16-0.06-0.33-0.07-0.5
	c0-0.17,0.02-0.32,0.08-0.44c-0.16,0.06-0.32,0.2-0.47,0.42c-0.16,0.23-0.3,0.49-0.43,0.81c-0.13,0.31-0.24,0.64-0.33,0.99
	c-0.09,0.35-0.14,0.67-0.16,0.95c-0.02,0.29,0.01,0.53,0.08,0.72C141.89,86.33,142.03,86.42,142.23,86.42L142.23,86.42z
	 M155.19,88.35c-0.27,0.08-0.49,0.19-0.65,0.34c-0.16,0.15-0.28,0.29-0.35,0.44c-0.07,0.15-0.1,0.27-0.08,0.38
	c0.01,0.11,0.06,0.16,0.13,0.16c0.27-0.02,0.48-0.18,0.63-0.46C155.02,88.93,155.12,88.64,155.19,88.35L155.19,88.35z M159.11,79.38
	c-0.1,0.09-0.23,0.13-0.4,0.13c-0.16-0.01-0.32-0.05-0.47-0.14c-0.15-0.08-0.27-0.2-0.36-0.36c-0.09-0.16-0.11-0.35-0.05-0.56
	c0.03-0.11,0.07-0.24,0.11-0.4c0.04-0.15,0.08-0.3,0.13-0.46c0.05-0.15,0.1-0.3,0.16-0.43c0.06-0.13,0.11-0.24,0.17-0.32
	c0.07-0.07,0.14-0.12,0.2-0.15c0.07-0.04,0.15-0.06,0.25-0.07c0.17-0.01,0.35,0.01,0.54,0.08c0.19,0.07,0.36,0.16,0.52,0.28
	c0.15,0.12,0.26,0.25,0.34,0.41c0.07,0.15,0.08,0.3,0.01,0.43L159.11,79.38L159.11,79.38z M168.65,79.38
	c-0.1,0.09-0.23,0.13-0.4,0.13c-0.16-0.01-0.32-0.05-0.47-0.14c-0.15-0.08-0.27-0.2-0.36-0.36c-0.09-0.16-0.11-0.35-0.05-0.56
	c0.03-0.11,0.07-0.24,0.11-0.4c0.04-0.15,0.09-0.3,0.13-0.46c0.05-0.15,0.11-0.3,0.16-0.43c0.05-0.13,0.11-0.24,0.17-0.32
	c0.07-0.07,0.13-0.12,0.2-0.15c0.07-0.04,0.15-0.06,0.25-0.07c0.17-0.01,0.35,0.01,0.54,0.08c0.19,0.07,0.36,0.16,0.51,0.28
	c0.15,0.12,0.27,0.25,0.34,0.41c0.07,0.15,0.08,0.3,0.01,0.43L168.65,79.38L168.65,79.38z"/>
<path class="st0" d="M161.55,235.79c0.18-0.14,0.37-0.23,0.56-0.3c0.19-0.06,0.38-0.09,0.56-0.09c0.27,0,0.51,0.06,0.73,0.18
	c0.21,0.12,0.37,0.31,0.47,0.57c0.03-0.08,0.06-0.14,0.08-0.17c0.02-0.03,0.05-0.1,0.11-0.18c0.08-0.15,0.23-0.22,0.45-0.21
	c0.22,0.01,0.44,0.05,0.64,0.14c0.21,0.09,0.39,0.21,0.53,0.35c0.15,0.14,0.19,0.28,0.12,0.41c-0.21,0.47-0.41,0.94-0.6,1.41
	c-0.19,0.47-0.35,0.9-0.49,1.31c-0.14,0.41-0.24,0.76-0.32,1.08c-0.07,0.31-0.09,0.56-0.07,0.73c0.02,0.09,0.06,0.14,0.11,0.14
	c0.05,0,0.11-0.01,0.17-0.05c0.06-0.04,0.12-0.09,0.18-0.15c0.05-0.06,0.1-0.11,0.13-0.14c0.23-0.25,0.47-0.58,0.72-0.99
	c0.26-0.41,0.51-0.84,0.75-1.28c0.24-0.44,0.46-0.86,0.66-1.26c0.2-0.4,0.35-0.71,0.47-0.94c0.02-0.06,0.07-0.08,0.14-0.08
	c0.07,0,0.14,0.01,0.21,0.04c0.07,0.03,0.12,0.07,0.18,0.12c0.05,0.05,0.06,0.1,0.04,0.16c-0.07,0.1-0.17,0.32-0.32,0.65
	c-0.14,0.33-0.31,0.72-0.5,1.15c-0.2,0.43-0.42,0.89-0.65,1.36c-0.23,0.47-0.49,0.91-0.75,1.31s-0.54,0.73-0.81,0.99
	c-0.28,0.26-0.55,0.39-0.82,0.39c-0.29,0-0.55-0.1-0.77-0.3c-0.22-0.2-0.36-0.47-0.43-0.81c-0.07,0.12-0.15,0.25-0.25,0.38
	c-0.11,0.13-0.22,0.25-0.34,0.35c-0.12,0.11-0.26,0.2-0.41,0.27c-0.15,0.07-0.32,0.12-0.5,0.12c-0.48,0-0.89-0.17-1.22-0.5
	c-0.28-0.29-0.44-0.7-0.48-1.24c-0.12,0.17-0.25,0.34-0.37,0.5c-0.29,0.37-0.58,0.66-0.89,0.9c-0.3,0.23-0.6,0.35-0.88,0.35
	c-0.32,0-0.54-0.07-0.66-0.21c-0.12-0.14-0.2-0.32-0.21-0.53c-0.02-0.21,0-0.44,0.03-0.69c0.04-0.24,0.06-0.47,0.07-0.67
	c0.01-0.21-0.03-0.38-0.11-0.52c-0.08-0.14-0.25-0.2-0.51-0.19c-0.12,0.12-0.23,0.23-0.32,0.33c-0.09,0.1-0.15,0.18-0.17,0.26
	c-0.06,0.12-0.09,0.27-0.11,0.44c-0.02,0.17-0.03,0.34-0.05,0.52c-0.02,0.18-0.04,0.34-0.07,0.5c-0.03,0.16-0.08,0.29-0.14,0.39
	c-0.09,0.12-0.21,0.22-0.35,0.28c-0.14,0.06-0.28,0.09-0.43,0.07c-0.15-0.01-0.28-0.06-0.41-0.14c-0.13-0.08-0.22-0.2-0.28-0.36
	c-0.06-0.41-0.04-0.93,0.03-1.56l0.02-0.16c-0.18,0.3-0.35,0.58-0.54,0.84c-0.28,0.4-0.56,0.73-0.84,0.99
	c-0.29,0.26-0.57,0.39-0.84,0.39c-0.28,0-0.53-0.1-0.75-0.3c-0.22-0.2-0.37-0.47-0.45-0.81c-0.07,0.12-0.15,0.25-0.25,0.38
	c-0.1,0.13-0.21,0.25-0.34,0.35c-0.12,0.11-0.26,0.2-0.41,0.27c-0.15,0.07-0.32,0.12-0.5,0.12c-0.48,0-0.89-0.17-1.22-0.5
	c-0.33-0.33-0.49-0.83-0.49-1.5c0-0.32,0.03-0.66,0.09-1.03l-0.03,0.02c-0.32,0.19-0.63,0.27-0.94,0.24
	c-0.23,0.85-0.57,1.54-1.02,2.08c-0.46,0.54-1.01,0.81-1.65,0.81c-0.25,0-0.51-0.06-0.79-0.19c-0.37-0.19-0.64-0.49-0.82-0.91
	c-0.17-0.41-0.26-0.89-0.26-1.42c0-0.23,0.02-0.47,0.05-0.72c-0.05,0.03-0.1,0.06-0.15,0.09c-0.36,0.22-0.72,0.27-1.06,0.15
	c-0.19,0.35-0.4,0.69-0.62,1.03c-0.22,0.34-0.45,0.64-0.69,0.91c-0.24,0.27-0.49,0.49-0.74,0.66c-0.25,0.17-0.5,0.25-0.75,0.25
	c-0.26,0-0.5-0.1-0.73-0.29c-0.23-0.2-0.41-0.48-0.53-0.84c-0.11-0.34-0.17-0.72-0.17-1.15c0-0.38,0.03-0.81,0.1-1.27
	c0.07-0.46,0.16-0.91,0.27-1.35c0.11-0.44,0.24-0.84,0.37-1.21c0.14-0.37,0.26-0.64,0.39-0.82c0.07-0.1,0.16-0.18,0.27-0.22
	c0.11-0.05,0.23-0.07,0.35-0.07c0.17,0,0.34,0.02,0.51,0.07c0.17,0.05,0.31,0.12,0.43,0.21c0.12,0.09,0.19,0.21,0.21,0.35
	c0.02,0.14-0.02,0.3-0.14,0.47c-0.14,0.2-0.28,0.49-0.44,0.87c-0.16,0.38-0.3,0.78-0.43,1.22c-0.13,0.43-0.23,0.87-0.31,1.3
	c-0.08,0.43-0.11,0.81-0.08,1.12c0,0.12,0.02,0.19,0.06,0.23c0.04,0.04,0.08,0.06,0.13,0.06c0.04,0,0.09-0.01,0.13-0.04
	c0.05-0.03,0.09-0.06,0.12-0.09c0.23-0.24,0.45-0.57,0.67-1c0.22-0.44,0.43-0.93,0.62-1.48c-0.07-0.2-0.12-0.41-0.15-0.63
	c-0.03-0.23-0.04-0.49-0.01-0.8c0.03-0.3,0.09-0.59,0.19-0.86c0.1-0.27,0.23-0.5,0.4-0.69c0.17-0.19,0.38-0.3,0.64-0.32
	c0.28-0.02,0.51,0.05,0.68,0.23c0.18,0.18,0.29,0.42,0.34,0.73c0.05,0.31,0.04,0.67-0.04,1.07c-0.08,0.41-0.23,0.83-0.46,1.28
	c0.18,0.03,0.37,0,0.57-0.11c0.11-0.06,0.21-0.13,0.32-0.21c0.14-0.46,0.33-0.89,0.56-1.29c0.27-0.47,0.58-0.85,0.94-1.15
	c0.35-0.3,0.73-0.45,1.14-0.45c0.07,0,0.16,0.01,0.26,0.02c0.11,0.01,0.22,0.05,0.33,0.11s0.23,0.15,0.34,0.27
	c0.11,0.12,0.2,0.28,0.27,0.48c0.26,0.11,0.46,0.36,0.61,0.76c0.15,0.39,0.16,0.96,0.03,1.71c0.09,0.01,0.22-0.01,0.4-0.07
	c0.17-0.06,0.37-0.17,0.57-0.33l0.07-0.05c0.05-0.15,0.1-0.3,0.15-0.45c0.16-0.44,0.35-0.84,0.56-1.19
	c0.21-0.35,0.42-0.62,0.63-0.78c0.18-0.14,0.36-0.23,0.55-0.3c0.19-0.06,0.37-0.09,0.55-0.09c0.27,0,0.51,0.06,0.73,0.18
	c0.21,0.12,0.38,0.31,0.49,0.57c0.18-0.64,0.38-1.28,0.58-1.9c0.21-0.63,0.41-1.19,0.59-1.7c0.19-0.51,0.35-0.94,0.51-1.29
	c0.15-0.35,0.27-0.59,0.35-0.7c0.06-0.08,0.13-0.14,0.21-0.17c0.08-0.03,0.17-0.05,0.24-0.05c0.17,0,0.36,0.03,0.57,0.08
	c0.21,0.06,0.39,0.14,0.55,0.24c0.16,0.1,0.27,0.22,0.34,0.36c0.07,0.14,0.05,0.29-0.05,0.45c-0.11,0.18-0.28,0.51-0.5,0.99
	c-0.22,0.48-0.46,1.03-0.72,1.66c-0.26,0.63-0.52,1.29-0.79,2c-0.27,0.71-0.51,1.39-0.73,2.04c-0.21,0.65-0.39,1.23-0.52,1.74
	c-0.13,0.51-0.19,0.89-0.17,1.12c0.02,0.15,0.07,0.2,0.15,0.15c0.15-0.07,0.32-0.21,0.51-0.42c0.19-0.21,0.39-0.47,0.61-0.77
	c0.21-0.3,0.43-0.62,0.64-0.97c0.21-0.35,0.42-0.69,0.61-1.02l0.05-0.09c0.15-0.59,0.31-1.2,0.5-1.82c0.23-0.78,0.48-1.52,0.74-2.23
	c0.26-0.71,0.53-1.36,0.79-1.94c0.26-0.59,0.51-1.05,0.73-1.39c0.06-0.07,0.13-0.12,0.22-0.16c0.09-0.04,0.18-0.06,0.27-0.06
	c0.18,0,0.37,0.03,0.58,0.09c0.2,0.06,0.38,0.15,0.52,0.26c0.15,0.11,0.25,0.24,0.3,0.38c0.06,0.14,0.03,0.29-0.07,0.45
	c-0.1,0.15-0.23,0.36-0.4,0.65c-0.16,0.29-0.34,0.62-0.53,0.99c-0.18,0.37-0.37,0.77-0.57,1.19c-0.19,0.42-0.37,0.84-0.54,1.25
	c-0.17,0.41-0.32,0.81-0.45,1.18c-0.13,0.38-0.22,0.7-0.28,0.97c0.11-0.12,0.24-0.27,0.4-0.45c0.15-0.17,0.31-0.37,0.48-0.58
	c0.17-0.21,0.34-0.45,0.5-0.7c0.16-0.25,0.31-0.53,0.45-0.84c0.07-0.15,0.17-0.21,0.31-0.18c0.14,0.02,0.29,0.09,0.43,0.21
	c0.15,0.12,0.28,0.27,0.39,0.44c0.11,0.17,0.17,0.33,0.19,0.48c0.01,0.17-0.04,0.35-0.14,0.55c-0.11,0.2-0.25,0.4-0.42,0.61
	c-0.18,0.21-0.38,0.42-0.61,0.64c-0.23,0.22-0.46,0.43-0.7,0.64c0.28,0.05,0.48,0.17,0.58,0.33c0.11,0.16,0.17,0.34,0.18,0.54
	c0.01,0.2-0.01,0.4-0.05,0.61c-0.05,0.21-0.07,0.39-0.08,0.54c-0.01,0.15,0.01,0.26,0.06,0.33c0.05,0.07,0.18,0.06,0.4-0.02
	c0.25-0.09,0.51-0.32,0.79-0.68c0.15-0.2,0.29-0.41,0.44-0.63c0.02-0.13,0.05-0.26,0.07-0.39c0.1-0.47,0.23-0.93,0.4-1.37
	c0.16-0.44,0.35-0.84,0.55-1.19C161.13,236.22,161.33,235.96,161.55,235.79L161.55,235.79z M143.77,241.76
	c0.16,0,0.31-0.08,0.46-0.25c0.15-0.17,0.28-0.38,0.41-0.64c0.12-0.25,0.23-0.52,0.3-0.81c0.08-0.29,0.13-0.55,0.15-0.79
	c-0.1-0.07-0.19-0.17-0.26-0.3s-0.13-0.29-0.17-0.45s-0.06-0.33-0.07-0.5c-0.01-0.17,0.02-0.31,0.08-0.44
	c-0.16,0.06-0.32,0.2-0.47,0.42c-0.16,0.23-0.3,0.49-0.43,0.8c-0.13,0.31-0.24,0.64-0.33,0.99c-0.09,0.35-0.14,0.67-0.16,0.96
	c-0.02,0.29,0.01,0.53,0.08,0.72C143.43,241.67,143.56,241.76,143.77,241.76L143.77,241.76z M150.9,237.35c0-0.03,0-0.09-0.01-0.16
	c-0.01-0.07-0.02-0.14-0.03-0.21c-0.02-0.07-0.04-0.13-0.07-0.19c-0.03-0.05-0.06-0.08-0.11-0.08c-0.14,0-0.29,0.11-0.45,0.31
	c-0.16,0.21-0.32,0.47-0.47,0.78c-0.15,0.32-0.29,0.67-0.43,1.05c-0.14,0.38-0.24,0.74-0.32,1.08c-0.02,0.1-0.05,0.24-0.09,0.42
	c-0.03,0.18-0.05,0.36-0.06,0.53c-0.01,0.18,0.01,0.33,0.04,0.46c0.03,0.13,0.11,0.19,0.22,0.19c0.15,0,0.29-0.08,0.44-0.25
	c0.15-0.16,0.28-0.37,0.41-0.63c0.13-0.26,0.25-0.55,0.36-0.86c0.11-0.31,0.21-0.63,0.3-0.94c0.08-0.31,0.15-0.6,0.19-0.87
	C150.88,237.72,150.9,237.51,150.9,237.35L150.9,237.35z M163.36,237.35c0-0.03,0-0.09-0.01-0.16c-0.01-0.07-0.02-0.14-0.03-0.21
	c-0.02-0.07-0.04-0.13-0.07-0.19c-0.03-0.05-0.07-0.08-0.11-0.08c-0.13,0-0.29,0.11-0.45,0.31c-0.16,0.21-0.32,0.47-0.47,0.78
	c-0.15,0.32-0.3,0.67-0.43,1.05c-0.14,0.38-0.24,0.74-0.32,1.08c-0.02,0.1-0.05,0.24-0.08,0.42c-0.04,0.18-0.05,0.36-0.06,0.53
	c-0.01,0.18,0.01,0.33,0.04,0.46c0.04,0.13,0.11,0.19,0.22,0.19c0.15,0,0.29-0.08,0.44-0.25c0.15-0.16,0.28-0.37,0.41-0.63
	c0.13-0.26,0.25-0.55,0.36-0.86c0.12-0.31,0.21-0.63,0.3-0.94c0.08-0.31,0.15-0.6,0.19-0.87
	C163.33,237.72,163.36,237.51,163.36,237.35L163.36,237.35z"/>
<path class="st4" d="M197.3,49.63v228.03h-3.78V49.63h0.74h1.14h1.08H197.3L197.3,49.63z M107.37,49.63l3.66,136.84l1.88-136.84
	H107.37L107.37,49.63z"/>
</svg>
