<?xml version="1.0" encoding="utf-8"?>
<!-- Generator: Adobe Illustrator 23.0.1, SVG Export Plug-In . SVG Version: 6.00 Build 0)  -->
<svg version="1.1" id="Cuba_Libre" xmlns="http://www.w3.org/2000/svg" xmlns:xlink="http://www.w3.org/1999/xlink" x="0px" y="0px"
	 viewBox="0 0 300 300" style="enable-background:new 0 0 300 300;" xml:space="preserve">
<style type="text/css">
	.st0{fill-rule:evenodd;clip-rule:evenodd;fill:#61180F;}
	.st1{fill-rule:evenodd;clip-rule:evenodd;fill:#FFFFFF;}
	.st2{fill-rule:evenodd;clip-rule:evenodd;fill:#381313;}
	.st3{fill-rule:evenodd;clip-rule:evenodd;fill:#E1E2E1;}
	.st4{fill-rule:evenodd;clip-rule:evenodd;fill:#4E4236;}
	.st5{fill:#4E4236;}
	.st6{fill:#FFFFFF;}
</style>
<polygon class="st0" points="101.56,72.99 197.89,72.99 197.89,215.84 101.56,215.84 101.56,72.99 "/>
<path class="st1" d="M101.56,215.84h96.33v58.54c0,0.83-0.7,1.53-1.53,1.53c-13.23,0-80.04,0-93.27,0c-0.83,0-1.53-0.7-1.53-1.53
	V215.84L101.56,215.84z"/>
<polygon class="st2" points="149.71,72.99 197.89,72.99 197.89,215.84 149.71,215.84 149.71,72.99 "/>
<path class="st3" d="M149.71,215.84h48.18v58.54c0,0.83-0.7,1.53-1.53,1.53h-46.65V215.84L149.71,215.84z"/>
<path class="st1" d="M194.16,50.54v225.37h-3.74V50.54h0.73h1.13h1.06H194.16L194.16,50.54z M105.28,50.54l3.62,135.25l1.86-135.25
	H105.28L105.28,50.54z"/>
<path class="st4" d="M197.89,50.54c-14.24,0-82.08,0-96.33,0v223.84c0,0.83,0.7,1.53,1.53,1.53c13.22,0,80.04,0,93.27,0
	c0.83,0,1.53-0.7,1.53-1.53V50.54L197.89,50.54z M101.56,279v13.13c0,0.84,0.7,1.53,1.53,1.53c13.22,0,80.04,0,93.27,0
	c0.83,0,1.53-0.69,1.53-1.53V279c-0.48,0.16-1,0.25-1.53,0.25c-14.23,0-79.03,0-93.27,0C102.55,279.25,102.04,279.16,101.56,279
	L101.56,279z M103.09,297c-2.68,0-4.87-2.19-4.87-4.87v-17.75V47.2c16.47,0,86.54,0,103.01,0v227.18v17.75
	c0,2.68-2.19,4.87-4.87,4.87C182.12,297,117.32,297,103.09,297L103.09,297z"/>
<path class="st5" d="M211.42,15.9c0.04-0.11,0.13-0.17,0.27-0.18c0.13-0.01,0.27,0.01,0.4,0.07c0.13,0.06,0.24,0.13,0.32,0.23
	c0.08,0.1,0.09,0.19,0.05,0.28c-0.24,0.51-0.57,1.15-0.99,1.92c-0.41,0.77-0.88,1.58-1.4,2.44c-0.52,0.86-1.09,1.72-1.72,2.57
	c-0.63,0.86-1.28,1.64-1.99,2.34c-0.71,0.7-1.43,1.27-2.18,1.72c-0.74,0.45-1.5,0.68-2.26,0.7c-0.6,0-1.15-0.13-1.63-0.38
	c-0.49-0.26-0.92-0.61-1.29-1.07c-0.36-0.46-0.65-0.99-0.85-1.6c-0.1-0.3-0.17-0.61-0.22-0.94c-0.31,0.44-0.62,0.86-0.93,1.25
	c-0.61,0.78-1.22,1.43-1.83,1.94c-0.62,0.51-1.19,0.77-1.72,0.77c-0.45,0-0.84-0.12-1.2-0.37c-0.36-0.24-0.65-0.56-0.89-0.95
	c-0.23-0.39-0.41-0.83-0.54-1.34c-0.12-0.5-0.18-1.03-0.18-1.58c0-0.54,0.05-1.1,0.15-1.69c0.1-0.59,0.23-1.18,0.4-1.75
	c0.17-0.58,0.36-1.13,0.58-1.67s0.45-1.03,0.67-1.47c-0.45-0.02-0.89-0.09-1.34-0.2c-0.06-0.01-0.12-0.03-0.18-0.05
	c-0.22,0.67-0.53,1.28-0.93,1.82c-0.49,0.67-1.03,1.22-1.63,1.67c-0.6,0.45-1.2,0.78-1.81,1c-0.6,0.22-1.14,0.31-1.6,0.27
	c-0.25,0.71-0.56,1.44-0.94,2.19c-0.38,0.75-0.81,1.43-1.3,2.04c-0.49,0.61-1.02,1.11-1.59,1.5c-0.56,0.39-1.16,0.59-1.79,0.59
	c-0.38,0-0.76-0.08-1.14-0.23c-0.37-0.16-0.65-0.39-0.83-0.7c-0.16,0.38-0.33,0.63-0.54,0.75c-0.2,0.12-0.41,0.18-0.63,0.18
	c-0.45,0-0.86-0.13-1.24-0.4c-0.37-0.27-0.54-0.69-0.5-1.27c0.03-0.29,0.08-0.63,0.15-1l-0.03,0.04c-0.56,0.76-1.18,1.39-1.82,1.89
	c-0.64,0.5-1.3,0.74-1.97,0.74c-0.55,0-1.02-0.09-1.4-0.26c-0.38-0.18-0.69-0.42-0.92-0.75c-0.23-0.32-0.4-0.69-0.5-1.12
	c-0.1-0.43-0.15-0.9-0.15-1.41c0-0.74,0.08-1.55,0.23-2.46c0.16-0.9,0.36-1.79,0.6-2.67c0.25-0.88,0.51-1.71,0.79-2.49
	c0.27-0.78,0.55-1.4,0.81-1.87c0.2-0.38,0.56-0.6,1.07-0.65c0.51-0.06,1,0.02,1.47,0.22c0.47,0.2,0.83,0.5,1.1,0.88
	c0.27,0.39,0.27,0.83,0,1.32c-0.2,0.4-0.45,0.9-0.75,1.49c-0.3,0.59-0.6,1.22-0.89,1.9c-0.29,0.68-0.54,1.37-0.75,2.09
	c-0.21,0.71-0.35,1.37-0.42,1.97c0,0.11,0,0.24,0,0.38c0,0.14,0.01,0.29,0.05,0.43c0.03,0.14,0.09,0.27,0.15,0.38
	c0.07,0.11,0.17,0.18,0.3,0.2c0.27,0,0.59-0.16,0.97-0.49c0.38-0.32,0.77-0.76,1.18-1.3c0.41-0.54,0.83-1.17,1.27-1.87
	c0.18-0.3,0.36-0.6,0.54-0.9c0.15-0.6,0.31-1.22,0.48-1.86c0.4-1.49,0.84-3.02,1.32-4.6c0.48-1.57,0.94-3.04,1.4-4.43
	c0.45-1.38,0.89-2.58,1.28-3.61c0.4-1.02,0.73-1.74,1-2.14c0.18-0.29,0.49-0.43,0.93-0.43c0.36,0,0.73,0.07,1.12,0.2
	c0.39,0.13,0.73,0.31,1.02,0.52c0.29,0.21,0.49,0.46,0.6,0.75c0.11,0.29,0.07,0.59-0.13,0.9c-0.09,0.13-0.32,0.64-0.7,1.52
	c-0.38,0.88-0.82,1.95-1.34,3.21c-0.51,1.26-1.05,2.63-1.6,4.11c-0.56,1.48-1.07,2.89-1.52,4.22c-0.46,1.34-0.83,2.52-1.12,3.56
	c-0.29,1.04-0.41,1.74-0.37,2.12c0.04,0.27,0.19,0.45,0.44,0.57c0.24,0.11,0.49,0.11,0.73,0c0.49-0.16,1-0.69,1.54-1.62
	c0.54-0.92,0.98-2.09,1.34-3.49c-0.4-0.4-0.7-0.89-0.9-1.45c-0.2-0.57-0.3-1.11-0.3-1.62c0-0.27,0.04-0.56,0.12-0.87
	c0.08-0.31,0.19-0.6,0.35-0.87c0.16-0.27,0.35-0.5,0.57-0.68s0.48-0.29,0.77-0.32c0.49-0.02,0.94,0.09,1.36,0.35
	c0.41,0.26,0.74,0.62,1,1.1c0.26,0.48,0.43,1.04,0.52,1.67c0.09,0.63,0.07,1.31-0.07,2.02c0.36,0.02,0.75-0.03,1.19-0.15
	c0.43-0.12,0.86-0.34,1.28-0.65c0.42-0.31,0.81-0.72,1.15-1.23c0.29-0.43,0.53-0.94,0.71-1.53c-0.26-0.21-0.48-0.46-0.66-0.76
	c-0.22-0.37-0.35-0.81-0.37-1.32c-0.04-0.76,0.15-1.42,0.59-1.99c0.43-0.57,1.02-0.84,1.75-0.82c0.4,0,0.72,0.1,0.95,0.3
	c0.23,0.2,0.4,0.46,0.5,0.77c0.1,0.31,0.12,0.65,0.08,1.02c-0.04,0.37-0.14,0.73-0.3,1.09c0.04,0.31,0.24,0.52,0.58,0.63
	c0.35,0.11,0.67,0.05,0.99-0.17c0.31-0.18,0.63-0.27,0.93-0.27c0.34,0,0.68,0.08,1.02,0.23c0.34,0.16,0.62,0.36,0.83,0.6
	c0.21,0.24,0.35,0.52,0.4,0.83c0.06,0.31-0.02,0.64-0.25,0.97c-0.25,0.33-0.54,0.79-0.87,1.35c-0.33,0.57-0.65,1.18-0.97,1.85
	c-0.31,0.67-0.58,1.35-0.8,2.04c-0.22,0.69-0.35,1.31-0.37,1.87c0,0.38,0.04,0.66,0.13,0.83c0.09,0.18,0.36,0.11,0.8-0.2
	c0.52-0.38,1.1-0.97,1.76-1.79c0.5-0.62,1-1.28,1.5-1.97c0.07-0.48,0.17-0.97,0.3-1.47c0.28-1.06,0.69-2.03,1.22-2.91
	c0.53-0.88,1.18-1.62,1.95-2.21c0.77-0.59,1.65-0.88,2.66-0.88c0.4,0,0.81,0.07,1.22,0.22c0.41,0.14,0.77,0.36,1.09,0.65
	c0.31,0.29,0.57,0.66,0.79,1.12c0.21,0.45,0.32,1,0.32,1.62c-0.05,1.18-0.29,2.16-0.75,2.94c-0.45,0.78-1.02,1.4-1.69,1.87
	c-0.67,0.47-1.37,0.8-2.12,0.99c-0.74,0.19-1.43,0.28-2.05,0.28c-0.05,0.29-0.03,0.59,0.05,0.89c0.08,0.3,0.2,0.57,0.37,0.8
	c0.17,0.23,0.38,0.42,0.63,0.57c0.26,0.14,0.55,0.22,0.89,0.22c0.58,0,1.24-0.27,1.97-0.8c0.73-0.53,1.48-1.26,2.26-2.19
	c0.77-0.93,1.53-2.01,2.29-3.24C210.1,18.62,210.8,17.3,211.42,15.9L211.42,15.9z M101.73,24.75c-0.51,0.56-1.05,1.07-1.63,1.52
	c-0.78,0.61-1.63,1.11-2.54,1.49c-0.91,0.38-1.9,0.58-2.97,0.6c-1.25,0.02-2.35-0.21-3.29-0.7c-0.94-0.49-1.73-1.13-2.37-1.94
	c-0.64-0.8-1.11-1.71-1.44-2.72c-0.33-1.01-0.5-2.02-0.52-3.02c-0.02-1.29,0.1-2.61,0.37-3.94c0.27-1.34,0.66-2.62,1.17-3.86
	c0.51-1.23,1.13-2.39,1.85-3.46c0.72-1.07,1.53-1.98,2.41-2.74c0.88-0.76,1.82-1.33,2.84-1.7c1.01-0.38,2.08-0.5,3.19-0.37
	c0.56,0.07,1.11,0.24,1.65,0.53c0.54,0.29,1.04,0.67,1.47,1.14c0.44,0.47,0.79,1.01,1.06,1.62c0.27,0.61,0.4,1.27,0.4,1.95
	c0,0.94-0.18,1.67-0.55,2.19c-0.37,0.52-0.82,0.9-1.34,1.12c-0.53,0.22-1.06,0.33-1.61,0.32c-0.54-0.01-1-0.08-1.35-0.22
	c-0.43-0.14-0.64-0.31-0.67-0.54c-0.02-0.22,0.08-0.46,0.3-0.7c0.31-0.38,0.56-0.84,0.75-1.39c0.19-0.55,0.28-1.05,0.28-1.52
	c0-0.27-0.05-0.53-0.13-0.8c-0.09-0.27-0.23-0.49-0.42-0.67c-0.19-0.18-0.42-0.29-0.69-0.33c-0.27-0.05-0.58,0.01-0.93,0.17
	c-0.81,0.45-1.54,1.18-2.22,2.21c-0.68,1.02-1.26,2.17-1.74,3.42c-0.48,1.26-0.85,2.57-1.12,3.93c-0.27,1.36-0.38,2.59-0.34,3.71
	c0.05,0.78,0.18,1.54,0.4,2.27c0.22,0.73,0.54,1.38,0.95,1.94c0.41,0.56,0.92,0.97,1.54,1.25c0.62,0.28,1.32,0.34,2.12,0.18
	c1-0.2,1.94-0.63,2.82-1.3c0.85-0.65,1.66-1.42,2.42-2.31c0.02-0.13,0.04-0.26,0.07-0.4c0.18-0.98,0.41-1.94,0.69-2.89
	c0.27-0.95,0.57-1.81,0.88-2.59c0.31-0.78,0.59-1.36,0.84-1.74c0.31-0.38,0.71-0.57,1.2-0.57c0.34,0,0.67,0.05,1,0.15
	c0.33,0.1,0.62,0.24,0.85,0.42c0.23,0.18,0.38,0.41,0.45,0.69c0.07,0.28,0,0.59-0.2,0.95c-0.2,0.38-0.45,0.91-0.75,1.58
	c-0.3,0.68-0.6,1.42-0.89,2.22c-0.29,0.8-0.55,1.6-0.8,2.4c-0.25,0.8-0.4,1.52-0.47,2.14c-0.09,0.58,0,0.92,0.25,1.04
	c0.26,0.11,0.57-0.17,0.95-0.84c0.29-0.49,0.6-1.13,0.92-1.9c0.32-0.78,0.64-1.59,0.97-2.42c0.33-0.83,0.64-1.65,0.94-2.45
	c0.3-0.8,0.55-1.48,0.75-2.04c0.11-0.33,0.21-0.63,0.3-0.87c0.09-0.24,0.17-0.41,0.23-0.5c0.25-0.38,0.63-0.57,1.14-0.57
	c0.33,0,0.67,0.04,1.02,0.12s0.64,0.19,0.89,0.35c0.25,0.16,0.41,0.36,0.5,0.6c0.09,0.24,0.04,0.54-0.14,0.9
	c-0.2,0.36-0.44,0.84-0.72,1.45c-0.28,0.61-0.56,1.28-0.85,2c-0.29,0.73-0.54,1.46-0.77,2.21c-0.22,0.75-0.38,1.44-0.47,2.09
	c0,0.07-0.01,0.2-0.03,0.38c-0.02,0.19-0.03,0.38-0.03,0.59s0.03,0.38,0.09,0.54c0.05,0.16,0.15,0.24,0.28,0.27
	c0.22,0,0.53-0.17,0.93-0.5c0.4-0.33,0.87-0.88,1.4-1.64c0.23-0.32,0.46-0.68,0.7-1.08c0.23-0.95,0.48-1.96,0.77-3.03
	c0.4-1.49,0.84-3.02,1.32-4.6c0.48-1.57,0.95-3.04,1.4-4.43c0.45-1.38,0.89-2.58,1.28-3.61c0.4-1.02,0.74-1.74,1-2.14
	c0.18-0.29,0.49-0.43,0.93-0.43c0.36,0,0.73,0.07,1.12,0.2c0.39,0.13,0.73,0.31,1.02,0.52c0.29,0.21,0.49,0.46,0.6,0.75
	c0.11,0.29,0.07,0.59-0.14,0.9c-0.09,0.13-0.32,0.64-0.7,1.52c-0.38,0.88-0.82,1.95-1.34,3.21c-0.51,1.26-1.05,2.63-1.6,4.11
	c-0.56,1.48-1.07,2.89-1.52,4.22c-0.45,1.34-0.83,2.52-1.12,3.56c-0.29,1.04-0.41,1.74-0.37,2.12c0.05,0.27,0.19,0.45,0.44,0.57
	c0.25,0.11,0.49,0.11,0.73,0c0.49-0.16,1-0.69,1.54-1.62c0.54-0.92,0.98-2.09,1.34-3.49c-0.4-0.4-0.7-0.89-0.9-1.45
	c-0.2-0.57-0.3-1.11-0.3-1.62c0-0.27,0.04-0.56,0.11-0.87c0.08-0.31,0.19-0.6,0.35-0.87c0.16-0.27,0.35-0.5,0.57-0.68
	s0.48-0.29,0.77-0.32c0.49-0.02,0.94,0.09,1.36,0.35c0.41,0.26,0.74,0.62,1,1.1c0.26,0.48,0.43,1.04,0.52,1.67
	c0.09,0.63,0.07,1.31-0.07,2.02c0.36,0.02,0.75-0.03,1.18-0.15c0.44-0.12,0.86-0.34,1.28-0.65c0.08-0.06,0.16-0.12,0.23-0.18
	l0.06-0.15c0.32-0.87,0.69-1.65,1.09-2.36c0.4-0.7,0.81-1.22,1.24-1.55c0.36-0.27,0.72-0.46,1.1-0.58c0.38-0.12,0.74-0.18,1.1-0.18
	c0.53,0,1.01,0.12,1.44,0.35c0.42,0.23,0.73,0.61,0.93,1.12c0.07-0.16,0.12-0.27,0.15-0.34c0.03-0.07,0.1-0.19,0.22-0.37
	c0.16-0.29,0.45-0.43,0.89-0.42c0.43,0.01,0.86,0.11,1.27,0.28c0.41,0.18,0.76,0.41,1.06,0.68c0.29,0.28,0.36,0.55,0.23,0.82
	c-0.42,0.93-0.82,1.86-1.18,2.79c-0.37,0.92-0.69,1.79-0.97,2.59c-0.28,0.8-0.48,1.51-0.62,2.14c-0.13,0.63-0.18,1.1-0.13,1.44
	c0.04,0.18,0.11,0.27,0.21,0.28c0.1,0.01,0.21-0.02,0.34-0.1c0.12-0.08,0.24-0.18,0.35-0.3c0.11-0.12,0.2-0.22,0.27-0.28
	c0.45-0.49,0.92-1.14,1.44-1.95c0.52-0.81,1.01-1.65,1.49-2.52c0.48-0.87,0.91-1.7,1.3-2.49c0.39-0.79,0.7-1.41,0.92-1.85
	c0.04-0.11,0.14-0.17,0.28-0.17c0.15,0,0.28,0.03,0.42,0.09c0.13,0.05,0.25,0.13,0.35,0.23s0.13,0.21,0.09,0.32
	c-0.13,0.2-0.34,0.63-0.62,1.29c-0.27,0.66-0.61,1.41-1,2.27c-0.39,0.86-0.82,1.75-1.29,2.69c-0.46,0.94-0.96,1.8-1.48,2.59
	c-0.53,0.79-1.06,1.44-1.61,1.95c-0.54,0.51-1.09,0.77-1.62,0.77c-0.58,0-1.08-0.2-1.52-0.6c-0.44-0.4-0.72-0.93-0.85-1.6
	c-0.13,0.24-0.3,0.5-0.5,0.75c-0.2,0.26-0.42,0.49-0.67,0.7c-0.25,0.21-0.52,0.39-0.82,0.54c-0.3,0.14-0.63,0.23-0.99,0.25
	c-0.96,0-1.76-0.33-2.4-0.99c-0.65-0.66-0.97-1.64-0.97-2.96c0-0.8,0.1-1.67,0.3-2.6c0.03-0.15,0.07-0.3,0.1-0.45
	c-0.3,0.17-0.6,0.31-0.91,0.42c-0.6,0.22-1.13,0.31-1.6,0.27c-0.25,0.71-0.56,1.44-0.94,2.19c-0.37,0.75-0.81,1.43-1.3,2.04
	c-0.49,0.61-1.02,1.11-1.58,1.5c-0.57,0.39-1.17,0.59-1.79,0.59c-0.38,0-0.75-0.08-1.13-0.23c-0.38-0.16-0.66-0.39-0.84-0.7
	c-0.15,0.38-0.33,0.63-0.53,0.75c-0.2,0.12-0.41,0.18-0.63,0.18c-0.45,0-0.86-0.13-1.24-0.4c-0.38-0.27-0.54-0.69-0.5-1.27
	c0.01-0.1,0.02-0.21,0.04-0.32c-0.31,0.41-0.63,0.78-0.94,1.11c-0.54,0.54-1.06,0.84-1.57,0.88c-0.89,0.09-1.58-0.15-2.07-0.73
	c-0.49-0.58-0.74-1.35-0.77-2.31c-0.2,0.38-0.42,0.75-0.67,1.1c-0.25,0.36-0.51,0.67-0.8,0.95c-0.29,0.28-0.6,0.51-0.92,0.68
	c-0.32,0.18-0.64,0.27-0.95,0.27c-0.27,0-0.56-0.04-0.87-0.13c-0.31-0.09-0.62-0.26-0.9-0.5c-0.29-0.24-0.54-0.6-0.73-1.07
	C101.87,25.84,101.77,25.35,101.73,24.75L101.73,24.75z M132.78,17.87c0-0.07-0.01-0.17-0.02-0.32c-0.01-0.14-0.03-0.28-0.07-0.42
	c-0.03-0.14-0.08-0.26-0.13-0.37c-0.06-0.11-0.13-0.17-0.22-0.17c-0.27,0-0.56,0.21-0.89,0.62c-0.32,0.41-0.64,0.93-0.93,1.55
	c-0.3,0.62-0.59,1.31-0.85,2.07c-0.27,0.76-0.48,1.47-0.63,2.14c-0.04,0.2-0.1,0.48-0.17,0.84c-0.07,0.36-0.11,0.71-0.12,1.05
	c-0.01,0.35,0.02,0.65,0.09,0.9c0.07,0.26,0.21,0.38,0.43,0.38c0.29,0,0.58-0.16,0.87-0.49c0.29-0.32,0.56-0.74,0.81-1.25
	c0.26-0.51,0.5-1.08,0.72-1.71c0.22-0.62,0.42-1.24,0.58-1.85c0.17-0.61,0.3-1.19,0.38-1.72C132.73,18.6,132.78,18.18,132.78,17.87
	L132.78,17.87z M146.67,27.22c0.07-0.71,0.33-1.32,0.78-1.82c0.46-0.5,1.05-0.87,1.77-1.1c0.73-0.23,1.56-0.33,2.52-0.28
	c0.96,0.05,1.97,0.26,3.04,0.63c0.47-0.58,0.9-1.21,1.3-1.89c0.4-0.68,0.8-1.43,1.2-2.26c0.4-0.82,0.81-1.73,1.22-2.71
	c0.41-0.98,0.85-2.07,1.32-3.27c-0.6-0.2-1.29-0.54-2.06-1.02c-0.77-0.48-1.5-1.05-2.2-1.71c-0.7-0.66-1.29-1.37-1.77-2.14
	c-0.48-0.77-0.73-1.55-0.75-2.36c-0.02-0.56,0.06-1.03,0.25-1.42c0.19-0.39,0.44-0.72,0.73-0.99c0.3-0.27,0.63-0.47,0.99-0.62
	c0.36-0.14,0.69-0.26,1-0.35c0.6-0.16,0.99-0.09,1.18,0.22c0.19,0.3,0.23,0.65,0.12,1.05c-0.11,0.38-0.08,0.86,0.1,1.44
	c0.18,0.58,0.44,1.18,0.77,1.8c0.34,0.63,0.73,1.21,1.2,1.75c0.47,0.55,0.96,0.95,1.47,1.22c0.18-0.4,0.36-0.88,0.55-1.44
	c0.19-0.56,0.4-1.13,0.63-1.74c0.24-0.6,0.5-1.2,0.79-1.79c0.29-0.59,0.6-1.12,0.94-1.6c0.33-0.48,0.7-0.86,1.1-1.15
	c0.4-0.29,0.85-0.43,1.34-0.43c0.67,0,1.24,0.14,1.72,0.43c0.48,0.29,0.88,0.68,1.19,1.18c0.31,0.5,0.53,1.08,0.67,1.74
	c0.13,0.66,0.18,1.34,0.13,2.05c-0.09,1.09-0.32,2.05-0.7,2.89c-0.38,0.83-0.88,1.54-1.49,2.1c-0.61,0.57-1.32,0.98-2.12,1.24
	c-0.8,0.26-1.67,0.35-2.61,0.28c-0.27,0.78-0.61,1.69-1.03,2.74c-0.43,1.05-0.87,2.09-1.34,3.14c-0.47,1.05-0.94,2.02-1.42,2.92
	c-0.48,0.9-0.9,1.6-1.28,2.09c2.25,0.96,4.23,1.69,5.95,2.2c1.72,0.51,3.13,0.75,4.24,0.7c0.25-0.02,0.45-0.05,0.64-0.1
	c0.18-0.05,0.33-0.06,0.45-0.05c0.12,0.01,0.21,0.07,0.25,0.18c0.05,0.11,0.06,0.32,0.03,0.63c-0.02,0.36-0.08,0.74-0.17,1.15
	c-0.09,0.41-0.22,0.8-0.4,1.15c-0.18,0.36-0.41,0.67-0.7,0.94c-0.29,0.27-0.64,0.44-1.07,0.5c-0.49,0.09-1.07,0.04-1.72-0.15
	c-0.66-0.19-1.34-0.46-2.04-0.82c-0.71-0.36-1.41-0.76-2.12-1.22c-0.72-0.46-1.38-0.9-2-1.34c-0.63-0.43-1.18-0.83-1.67-1.19
	c-0.49-0.36-0.87-0.62-1.14-0.8c-1.2,1.27-2.36,2.14-3.49,2.61c-1.13,0.47-2.26,0.61-3.39,0.43c-0.93-0.16-1.68-0.54-2.24-1.17
	C146.78,29.14,146.56,28.29,146.67,27.22L146.67,27.22z M153.26,26.29c-0.34-0.13-0.7-0.22-1.09-0.25c-0.39-0.03-0.76-0.02-1.1,0.04
	c-0.35,0.05-0.66,0.14-0.95,0.27c-0.29,0.12-0.51,0.27-0.67,0.45c-0.2,0.22-0.3,0.43-0.3,0.63c0,0.2,0.06,0.37,0.18,0.52
	c0.12,0.14,0.3,0.24,0.54,0.28c0.23,0.04,0.48,0.02,0.75-0.07c0.45-0.16,0.9-0.41,1.38-0.75C152.48,27.06,152.9,26.69,153.26,26.29
	L153.26,26.29z M164.05,12.32c0.54,0.11,1.03,0.04,1.49-0.22c0.45-0.26,0.85-0.62,1.18-1.08c0.34-0.47,0.6-1.01,0.8-1.62
	c0.2-0.61,0.3-1.24,0.3-1.89c0-0.27-0.02-0.54-0.07-0.8c-0.05-0.27-0.11-0.49-0.18-0.65c-0.08-0.17-0.18-0.28-0.3-0.35
	c-0.12-0.07-0.25-0.03-0.38,0.1c-0.24,0.22-0.49,0.57-0.73,1.04c-0.25,0.47-0.48,1-0.72,1.6c-0.24,0.6-0.47,1.24-0.7,1.9
	C164.5,11.02,164.27,11.67,164.05,12.32L164.05,12.32z M174.7,12.66c-0.2,0.18-0.46,0.26-0.79,0.25c-0.32-0.01-0.63-0.1-0.93-0.27
	c-0.3-0.17-0.54-0.41-0.72-0.72c-0.18-0.31-0.21-0.68-0.1-1.1c0.07-0.22,0.14-0.48,0.22-0.78c0.08-0.3,0.17-0.6,0.27-0.9
	c0.1-0.3,0.2-0.58,0.31-0.85c0.11-0.27,0.22-0.48,0.34-0.64c0.13-0.13,0.27-0.23,0.4-0.3c0.13-0.07,0.3-0.11,0.5-0.13
	c0.34-0.02,0.69,0.04,1.07,0.17c0.38,0.14,0.72,0.32,1.02,0.55c0.3,0.23,0.52,0.5,0.67,0.8c0.15,0.3,0.15,0.59,0.02,0.85
	L174.7,12.66L174.7,12.66z M203.83,17.03c-0.2,0.11-0.43,0.33-0.7,0.67c-0.27,0.33-0.54,0.74-0.8,1.22c-0.27,0.48-0.51,1-0.73,1.57
	c-0.22,0.57-0.39,1.14-0.5,1.72c0.38-0.04,0.76-0.2,1.15-0.47c0.39-0.27,0.75-0.6,1.07-0.99c0.32-0.39,0.6-0.83,0.82-1.34
	c0.22-0.5,0.36-1.01,0.4-1.52c0.02-0.27,0-0.46-0.05-0.59c-0.06-0.12-0.12-0.21-0.2-0.27c-0.08-0.05-0.16-0.08-0.23-0.07
	C203.98,16.99,203.9,17.01,203.83,17.03L203.83,17.03z"/>
<path class="st6" d="M141.45,154.73c-0.41-0.05-0.59-0.19-0.52-0.42c0.05-0.14,0.09-0.3,0.14-0.48c0.05-0.17,0.08-0.32,0.09-0.45
	c0-0.13-0.02-0.21-0.07-0.26c-0.05-0.05-0.16-0.01-0.33,0.1c-0.18,0.12-0.35,0.32-0.52,0.6c-0.17,0.28-0.32,0.59-0.45,0.94
	c-0.13,0.35-0.23,0.7-0.31,1.06c-0.08,0.36-0.12,0.68-0.12,0.96c0,0.35,0.05,0.6,0.15,0.76c0.1,0.16,0.23,0.25,0.39,0.27
	c0.16,0.02,0.35-0.01,0.56-0.1c0.21-0.09,0.43-0.22,0.65-0.38c0.31-0.23,0.62-0.53,0.92-0.89c0.3-0.36,0.59-0.75,0.88-1.17
	c0.08-0.11,0.16-0.23,0.23-0.35c0.02-0.07,0.03-0.14,0.05-0.2c0.15-0.55,0.36-1.06,0.63-1.52c0.27-0.46,0.57-0.84,0.92-1.13
	c0.35-0.3,0.73-0.44,1.13-0.44c0.07,0,0.15,0,0.26,0.02c0.1,0.01,0.21,0.05,0.33,0.11c0.11,0.06,0.22,0.15,0.33,0.27
	c0.11,0.12,0.2,0.28,0.27,0.48c0.26,0.11,0.45,0.36,0.6,0.75c0.15,0.39,0.16,0.95,0.04,1.69c0.09,0.01,0.22-0.01,0.39-0.07
	c0.1-0.03,0.21-0.08,0.33-0.15c0.02-0.07,0.04-0.14,0.06-0.21c0.18-0.58,0.41-1.1,0.72-1.55c0.31-0.45,0.67-0.81,1.09-1.07
	s0.89-0.33,1.39-0.23c0.24,0.05,0.46,0.16,0.65,0.3c0.19,0.14,0.34,0.32,0.45,0.54c0.11,0.22,0.18,0.47,0.2,0.75
	c0.02,0.28-0.01,0.59-0.1,0.91c-0.09,0.29-0.24,0.47-0.46,0.53c-0.22,0.06-0.43,0.08-0.62,0.06c-0.41-0.05-0.58-0.19-0.52-0.42
	c0.04-0.14,0.09-0.3,0.14-0.48c0.05-0.17,0.08-0.32,0.08-0.45c0.01-0.13-0.01-0.21-0.07-0.26c-0.05-0.05-0.16-0.01-0.32,0.1
	c-0.18,0.12-0.35,0.32-0.52,0.6c-0.17,0.28-0.31,0.59-0.44,0.94c-0.13,0.35-0.23,0.7-0.31,1.06c-0.08,0.36-0.12,0.68-0.12,0.96
	c0,0.35,0.05,0.6,0.15,0.76c0.1,0.16,0.23,0.25,0.39,0.27c0.16,0.02,0.35-0.01,0.56-0.1c0.21-0.09,0.43-0.22,0.65-0.38
	c0.31-0.23,0.62-0.53,0.92-0.89c0.3-0.36,0.59-0.75,0.88-1.17c0.17-0.24,0.33-0.49,0.49-0.75c0.05-0.16,0.1-0.32,0.17-0.48
	c0.16-0.43,0.34-0.83,0.54-1.18c0.2-0.35,0.41-0.61,0.62-0.78c0.18-0.13,0.36-0.23,0.55-0.29c0.19-0.06,0.37-0.09,0.55-0.09
	c0.27,0,0.51,0.06,0.72,0.18c0.21,0.12,0.37,0.3,0.47,0.56c0.03-0.08,0.06-0.13,0.08-0.17c0.01-0.04,0.05-0.09,0.1-0.18
	c0.08-0.14,0.23-0.21,0.45-0.21c0.22,0,0.43,0.05,0.63,0.14c0.2,0.09,0.38,0.2,0.53,0.34c0.14,0.14,0.18,0.28,0.11,0.41
	c-0.21,0.47-0.41,0.93-0.59,1.4c-0.18,0.46-0.35,0.89-0.48,1.29c-0.14,0.4-0.24,0.76-0.31,1.07c-0.07,0.31-0.09,0.55-0.07,0.72
	c0.02,0.09,0.06,0.13,0.11,0.14c0.05,0,0.1-0.01,0.17-0.05c0.06-0.04,0.12-0.09,0.18-0.15c0.06-0.06,0.1-0.11,0.13-0.14
	c0.22-0.24,0.46-0.57,0.72-0.98c0.26-0.41,0.5-0.83,0.74-1.26c0.24-0.43,0.45-0.85,0.65-1.24s0.35-0.7,0.46-0.93
	c0.02-0.06,0.07-0.08,0.14-0.08c0.07,0,0.14,0.01,0.21,0.04c0.07,0.03,0.12,0.07,0.18,0.12c0.05,0.05,0.07,0.1,0.04,0.16
	c-0.07,0.1-0.17,0.32-0.31,0.64c-0.14,0.33-0.31,0.71-0.5,1.13c-0.19,0.43-0.41,0.88-0.64,1.35c-0.23,0.47-0.48,0.9-0.74,1.29
	c-0.26,0.4-0.53,0.72-0.8,0.98c-0.27,0.26-0.54,0.38-0.81,0.38c-0.29,0-0.54-0.1-0.76-0.3c-0.22-0.2-0.36-0.47-0.43-0.8
	c-0.07,0.12-0.15,0.25-0.25,0.38c-0.1,0.13-0.21,0.25-0.34,0.35c-0.12,0.11-0.26,0.2-0.41,0.27c-0.15,0.07-0.31,0.11-0.49,0.13
	c-0.48,0-0.88-0.16-1.2-0.49c-0.32-0.33-0.48-0.82-0.48-1.48c0-0.17,0.01-0.34,0.02-0.51l-0.15,0.21c-0.31,0.42-0.63,0.8-0.95,1.13
	c-0.33,0.34-0.67,0.61-1.02,0.82c-0.35,0.21-0.7,0.32-1.05,0.32c-0.36,0-0.66-0.07-0.91-0.21c-0.25-0.14-0.46-0.33-0.63-0.56
	c-0.17-0.23-0.29-0.5-0.37-0.79c-0.08-0.3-0.11-0.6-0.11-0.93c0-0.13,0-0.26,0.01-0.39c-0.26,0.12-0.52,0.18-0.77,0.16
	c-0.22,0.83-0.56,1.52-1.01,2.05c-0.45,0.54-0.99,0.8-1.63,0.8c-0.25,0-0.51-0.06-0.79-0.18c-0.36-0.19-0.63-0.49-0.81-0.9
	c-0.17-0.41-0.26-0.88-0.26-1.4v-0.02l-0.08,0.1c-0.31,0.42-0.63,0.8-0.95,1.13c-0.33,0.34-0.67,0.61-1.02,0.82
	c-0.35,0.21-0.7,0.32-1.04,0.32c-0.36,0-0.66-0.07-0.91-0.21c-0.25-0.14-0.45-0.33-0.63-0.56c-0.17-0.23-0.29-0.5-0.36-0.79
	c-0.08-0.3-0.12-0.6-0.12-0.93c0-0.55,0.09-1.11,0.26-1.69c0.17-0.58,0.41-1.1,0.72-1.55c0.31-0.45,0.67-0.81,1.09-1.07
	c0.42-0.26,0.89-0.33,1.39-0.23c0.25,0.05,0.46,0.16,0.65,0.3c0.19,0.14,0.34,0.32,0.45,0.54c0.11,0.22,0.18,0.47,0.2,0.75
	c0.02,0.28-0.01,0.59-0.1,0.91c-0.09,0.29-0.25,0.47-0.47,0.53C141.85,154.73,141.64,154.75,141.45,154.73L141.45,154.73z
	 M156.89,153.63c0-0.03,0-0.09-0.01-0.16c0-0.07-0.01-0.14-0.03-0.21c-0.01-0.07-0.04-0.13-0.07-0.18
	c-0.03-0.05-0.07-0.08-0.11-0.08c-0.13,0-0.28,0.1-0.44,0.31c-0.17,0.21-0.32,0.47-0.47,0.78c-0.15,0.31-0.29,0.66-0.43,1.04
	c-0.13,0.38-0.24,0.73-0.32,1.07c-0.02,0.1-0.05,0.24-0.09,0.42c-0.03,0.18-0.05,0.35-0.06,0.53c0,0.17,0.01,0.32,0.04,0.45
	c0.03,0.13,0.1,0.19,0.22,0.19c0.14,0,0.29-0.08,0.43-0.24c0.15-0.16,0.28-0.37,0.41-0.63c0.13-0.26,0.25-0.54,0.36-0.85
	c0.11-0.31,0.21-0.62,0.29-0.93c0.09-0.31,0.15-0.59,0.19-0.86C156.86,154,156.89,153.78,156.89,153.63L156.89,153.63z
	 M144.76,157.99c0.16,0,0.31-0.08,0.45-0.25c0.14-0.17,0.27-0.38,0.4-0.63c0.12-0.25,0.22-0.52,0.3-0.8
	c0.08-0.28,0.13-0.54,0.15-0.77c-0.1-0.07-0.18-0.17-0.26-0.3c-0.07-0.13-0.13-0.28-0.17-0.44c-0.04-0.16-0.06-0.33-0.07-0.49
	c0-0.17,0.02-0.31,0.08-0.43c-0.16,0.05-0.31,0.19-0.46,0.42c-0.16,0.22-0.3,0.49-0.43,0.79c-0.13,0.31-0.24,0.63-0.33,0.98
	c-0.09,0.35-0.14,0.66-0.16,0.94c-0.02,0.28,0.01,0.52,0.08,0.71C144.42,157.89,144.56,157.99,144.76,157.99L144.76,157.99z"/>
<path class="st5" d="M170.02,234.14c0.2-0.12,0.4-0.17,0.59-0.16c0.2,0.01,0.37,0.07,0.52,0.18c0.15,0.1,0.26,0.25,0.35,0.45
	c0.09,0.19,0.12,0.4,0.11,0.63c0.16-0.2,0.34-0.39,0.54-0.58c0.2-0.19,0.39-0.35,0.59-0.48c0.22-0.14,0.45-0.2,0.7-0.18
	c0.24,0.02,0.45,0.11,0.62,0.29c0.17,0.18,0.28,0.43,0.32,0.77c0.05,0.34-0.01,0.76-0.19,1.26c-0.03,0.12-0.07,0.21-0.09,0.29
	c-0.03,0.08-0.06,0.15-0.09,0.22c-0.03,0.07-0.05,0.14-0.08,0.22c-0.02,0.08-0.05,0.17-0.09,0.27c-0.16,0.49-0.3,0.95-0.42,1.38
	c-0.12,0.43-0.18,0.78-0.18,1.05c0,0.03,0.01,0.08,0.03,0.13c0.01,0.05,0.06,0.08,0.13,0.08c0.09,0,0.25-0.1,0.47-0.32
	c0.22-0.21,0.48-0.52,0.79-0.93c0.3-0.41,0.63-0.93,0.99-1.55c0.36-0.62,0.71-1.34,1.06-2.16c0.02-0.06,0.07-0.09,0.14-0.09
	c0.07-0.01,0.14,0,0.2,0.03c0.07,0.03,0.12,0.07,0.17,0.12c0.05,0.05,0.06,0.11,0.04,0.17c-0.06,0.1-0.16,0.32-0.3,0.65
	c-0.14,0.33-0.31,0.71-0.52,1.14c-0.21,0.43-0.45,0.88-0.71,1.36c-0.26,0.48-0.54,0.92-0.82,1.33c-0.28,0.41-0.58,0.75-0.89,1.03
	c-0.31,0.28-0.61,0.44-0.91,0.49c-0.29,0.02-0.54,0-0.72-0.07c-0.19-0.07-0.35-0.18-0.46-0.33c-0.11-0.15-0.2-0.33-0.25-0.54
	c-0.05-0.21-0.08-0.44-0.08-0.68c0-0.37,0.06-0.79,0.17-1.24c0.11-0.45,0.21-0.9,0.31-1.34c0.07-0.32,0.09-0.53,0.06-0.65
	c-0.03-0.12-0.09-0.16-0.18-0.14c-0.09,0.02-0.19,0.11-0.32,0.27c-0.12,0.16-0.24,0.35-0.36,0.58c-0.1,0.23-0.21,0.52-0.31,0.85
	c-0.1,0.33-0.19,0.67-0.27,1.02c-0.07,0.35-0.13,0.68-0.18,0.99c-0.05,0.32-0.07,0.56-0.05,0.73c0.01,0.2-0.09,0.35-0.29,0.45
	c-0.2,0.1-0.43,0.13-0.68,0.1c-0.25-0.04-0.47-0.14-0.66-0.33c-0.19-0.19-0.27-0.46-0.22-0.82c0.06-0.35,0.14-0.74,0.26-1.17
	c0.11-0.43,0.23-0.87,0.36-1.31c0.09-0.31,0.17-0.6,0.24-0.87c0.06-0.27,0.05-0.43-0.04-0.49c-0.06-0.06-0.18-0.02-0.35,0.1
	c-0.18,0.13-0.36,0.38-0.54,0.75c-0.1,0.23-0.22,0.5-0.35,0.79c-0.13,0.29-0.25,0.59-0.36,0.9c-0.11,0.31-0.21,0.61-0.31,0.9
	c-0.09,0.29-0.16,0.55-0.21,0.77c-0.06,0.22-0.17,0.42-0.32,0.59c-0.16,0.18-0.38,0.24-0.67,0.19c-0.1-0.01-0.19-0.05-0.27-0.12
	c-0.08-0.07-0.14-0.15-0.19-0.24c-0.05-0.09-0.09-0.19-0.11-0.3c-0.02-0.1-0.03-0.2-0.03-0.3c0-0.22,0.02-0.47,0.06-0.76
	c-0.05,0.08-0.09,0.15-0.15,0.23c-0.27,0.41-0.54,0.76-0.82,1.05c-0.28,0.28-0.55,0.44-0.82,0.46c-0.46,0.05-0.82-0.08-1.08-0.38
	c-0.26-0.3-0.39-0.7-0.4-1.2c-0.1,0.2-0.22,0.39-0.35,0.58c-0.13,0.19-0.27,0.35-0.42,0.5c-0.15,0.14-0.31,0.27-0.48,0.36
	c-0.17,0.09-0.33,0.14-0.49,0.14c-0.14,0-0.29-0.02-0.45-0.07c-0.17-0.04-0.32-0.13-0.47-0.26c-0.15-0.13-0.28-0.32-0.38-0.56
	c-0.1-0.24-0.16-0.57-0.18-0.98v-0.12c-0.15,0.21-0.29,0.4-0.45,0.59c-0.32,0.41-0.64,0.75-0.96,1.01c-0.32,0.27-0.62,0.4-0.9,0.4
	c-0.23,0-0.44-0.06-0.63-0.19c-0.18-0.13-0.34-0.29-0.46-0.5c-0.12-0.2-0.22-0.44-0.28-0.7c-0.07-0.26-0.1-0.54-0.1-0.83
	c0-0.28,0.03-0.57,0.08-0.88c0.05-0.31,0.12-0.61,0.21-0.91c0.09-0.3,0.19-0.59,0.31-0.87c0.11-0.28,0.23-0.54,0.35-0.77
	c-0.23-0.01-0.46-0.05-0.7-0.1c-0.23-0.06-0.44-0.15-0.62-0.27c-0.18-0.12-0.33-0.28-0.45-0.47c-0.11-0.19-0.18-0.42-0.19-0.69
	c-0.02-0.4,0.08-0.74,0.3-1.04c0.23-0.3,0.54-0.44,0.92-0.43c0.21,0,0.37,0.05,0.5,0.16c0.12,0.1,0.21,0.24,0.26,0.4
	c0.05,0.16,0.07,0.34,0.04,0.53c-0.02,0.19-0.08,0.38-0.16,0.57c0.02,0.16,0.12,0.27,0.3,0.33c0.18,0.06,0.36,0.03,0.52-0.09
	c0.16-0.09,0.33-0.14,0.49-0.14c0.18,0,0.36,0.04,0.54,0.12c0.18,0.08,0.32,0.19,0.44,0.32c0.11,0.13,0.18,0.27,0.21,0.44
	c0.03,0.16-0.01,0.33-0.13,0.51c-0.13,0.17-0.28,0.41-0.45,0.71c-0.18,0.3-0.35,0.62-0.51,0.97c-0.17,0.35-0.3,0.7-0.42,1.07
	c-0.11,0.36-0.18,0.68-0.19,0.98c0,0.2,0.02,0.34,0.07,0.44c0.05,0.09,0.19,0.06,0.42-0.1c0.27-0.2,0.57-0.51,0.91-0.93
	c0.31-0.38,0.61-0.78,0.91-1.2c0.08-0.4,0.18-0.8,0.3-1.19c0.14-0.5,0.3-0.95,0.46-1.36c0.17-0.41,0.31-0.71,0.44-0.91
	c0.17-0.2,0.37-0.3,0.63-0.3c0.18,0,0.35,0.03,0.53,0.08c0.17,0.05,0.32,0.13,0.44,0.22c0.12,0.09,0.2,0.21,0.24,0.36
	c0.04,0.15,0,0.31-0.1,0.5c-0.1,0.2-0.24,0.48-0.39,0.83c-0.16,0.36-0.31,0.74-0.46,1.16c-0.15,0.42-0.29,0.84-0.42,1.26
	c-0.13,0.42-0.21,0.79-0.24,1.12c-0.05,0.3,0,0.48,0.13,0.54c0.13,0.06,0.3-0.09,0.5-0.44c0.15-0.26,0.31-0.59,0.48-0.99
	c0.17-0.41,0.34-0.83,0.5-1.27c0.17-0.44,0.33-0.86,0.49-1.28c0.16-0.42,0.28-0.77,0.39-1.07c0.06-0.17,0.11-0.32,0.16-0.45
	c0.05-0.13,0.09-0.21,0.12-0.26c0.13-0.2,0.33-0.3,0.6-0.3c0.18,0,0.35,0.02,0.53,0.06c0.18,0.04,0.34,0.1,0.46,0.18
	c0.13,0.08,0.21,0.19,0.26,0.31c0.05,0.13,0.02,0.29-0.07,0.47c-0.1,0.18-0.23,0.44-0.37,0.76c-0.15,0.32-0.29,0.67-0.45,1.05
	c-0.15,0.38-0.28,0.76-0.4,1.15c-0.11,0.39-0.19,0.75-0.24,1.09c0,0.04-0.01,0.1-0.02,0.2s-0.02,0.2-0.02,0.31
	c0,0.1,0.01,0.2,0.05,0.28c0.03,0.08,0.08,0.13,0.15,0.14c0.11,0,0.28-0.09,0.49-0.26c0.21-0.17,0.45-0.46,0.73-0.86
	c0.28-0.39,0.58-0.91,0.91-1.53c0.11-0.45,0.24-0.9,0.39-1.37c0.17-0.57,0.35-1.11,0.52-1.62c0.05-0.16,0.18-0.27,0.42-0.32
	c0.24-0.05,0.47-0.05,0.7,0c0.23,0.05,0.43,0.13,0.58,0.25c0.16,0.12,0.2,0.27,0.11,0.45c-0.09,0.24-0.19,0.49-0.3,0.73
	c-0.11,0.24-0.21,0.48-0.29,0.72c0.08-0.14,0.18-0.3,0.31-0.47c0.13-0.17,0.27-0.35,0.42-0.52c0.15-0.17,0.31-0.35,0.47-0.51
	C169.68,234.4,169.85,234.26,170.02,234.14L170.02,234.14z M129.6,233.76c0.29-0.02,0.53,0.06,0.71,0.24
	c0.18,0.18,0.3,0.43,0.35,0.75c0.05,0.32,0.04,0.69-0.04,1.11c-0.08,0.42-0.24,0.86-0.47,1.33c0.19,0.04,0.38,0,0.59-0.11
	c0.21-0.11,0.42-0.27,0.61-0.49c0.07-0.07,0.13-0.15,0.2-0.23c0.18-0.69,0.37-1.4,0.59-2.12c0.25-0.81,0.49-1.58,0.73-2.3
	c0.25-0.72,0.47-1.34,0.69-1.89c0.21-0.54,0.4-0.92,0.55-1.14c0.09-0.15,0.26-0.23,0.49-0.23c0.18,0,0.38,0.03,0.58,0.1
	c0.2,0.07,0.38,0.16,0.54,0.27c0.15,0.11,0.26,0.24,0.31,0.39c0.06,0.15,0.03,0.31-0.07,0.47c-0.07,0.1-0.19,0.35-0.37,0.73
	c-0.18,0.39-0.39,0.85-0.62,1.39c-0.23,0.54-0.47,1.13-0.73,1.77c-0.25,0.64-0.48,1.27-0.69,1.89c0.1-0.15,0.24-0.33,0.4-0.53
	c0.16-0.2,0.35-0.39,0.55-0.58c0.21-0.18,0.44-0.33,0.67-0.45c0.24-0.12,0.48-0.16,0.72-0.12c0.33,0.03,0.59,0.21,0.78,0.51
	c0.19,0.31,0.21,0.73,0.04,1.27c-0.07,0.22-0.15,0.47-0.23,0.76c-0.09,0.28-0.17,0.54-0.24,0.76c-0.17,0.48-0.31,0.93-0.44,1.36
	c-0.13,0.43-0.19,0.78-0.19,1.05c0,0.03,0.01,0.08,0.04,0.13c0.02,0.05,0.06,0.08,0.12,0.08c0.09,0,0.27-0.11,0.51-0.34
	c0.25-0.23,0.53-0.55,0.85-0.99c0.1-0.13,0.2-0.28,0.31-0.44l0.01-0.08c0.08-0.47,0.18-0.94,0.31-1.4c0.13-0.46,0.27-0.89,0.41-1.3
	c0.15-0.41,0.29-0.73,0.43-0.98c0.1-0.2,0.29-0.31,0.56-0.34c0.27-0.03,0.53,0.01,0.77,0.11c0.25,0.11,0.44,0.26,0.58,0.46
	c0.14,0.2,0.14,0.43,0,0.69c-0.1,0.21-0.24,0.47-0.39,0.78c-0.16,0.31-0.31,0.64-0.46,1c-0.15,0.36-0.28,0.72-0.39,1.09
	c-0.11,0.37-0.18,0.72-0.22,1.03c0,0.06,0,0.13,0,0.2c0,0.08,0.01,0.15,0.03,0.23c0.02,0.08,0.04,0.14,0.08,0.2
	c0.04,0.06,0.09,0.09,0.16,0.11c0.14,0,0.31-0.09,0.51-0.25c0.19-0.17,0.4-0.4,0.62-0.68c0.22-0.29,0.44-0.61,0.66-0.98
	c0.23-0.37,0.44-0.74,0.63-1.11c0.08-0.14,0.14-0.28,0.21-0.42c0.08-0.37,0.16-0.74,0.25-1.13l-0.27-0.02
	c-0.19-0.01-0.33-0.04-0.41-0.09c-0.08-0.05-0.11-0.12-0.11-0.2c0-0.13,0.04-0.26,0.11-0.4c0.08-0.14,0.19-0.2,0.36-0.18
	c0.09,0.01,0.18,0.02,0.27,0.03c0.09,0.01,0.18,0.01,0.27,0.01c0.17-0.64,0.36-1.27,0.56-1.89c0.2-0.62,0.4-1.18,0.6-1.69
	c0.19-0.51,0.37-0.95,0.53-1.32c0.16-0.37,0.29-0.62,0.38-0.76c0.09-0.15,0.25-0.23,0.47-0.23c0.18,0,0.38,0.04,0.58,0.11
	c0.2,0.07,0.38,0.16,0.53,0.27c0.15,0.11,0.26,0.24,0.32,0.39c0.06,0.15,0.03,0.31-0.07,0.47c-0.07,0.09-0.17,0.29-0.31,0.58
	c-0.13,0.3-0.28,0.66-0.46,1.08c-0.18,0.42-0.36,0.89-0.56,1.4c-0.2,0.52-0.39,1.05-0.58,1.6h0.49c0.07,0,0.11,0.05,0.14,0.13
	c0.02,0.09,0.03,0.18,0.01,0.29c-0.02,0.1-0.06,0.2-0.12,0.3c-0.06,0.09-0.15,0.15-0.25,0.16c-0.09,0.01-0.19,0.02-0.28,0.03
	c-0.09,0-0.19,0.01-0.3,0.03c-0.16,0.48-0.31,0.94-0.44,1.39c-0.13,0.45-0.24,0.86-0.32,1.25c-0.09,0.38-0.15,0.72-0.18,1.01
	c-0.03,0.29-0.03,0.51,0.02,0.66c0.02,0.07,0.07,0.11,0.14,0.12c0.07,0.01,0.13,0,0.19-0.04c0.13-0.08,0.28-0.23,0.45-0.45
	c0.17-0.22,0.36-0.47,0.55-0.76c0.08-0.1,0.15-0.21,0.22-0.32c0.02-0.42,0.09-0.86,0.21-1.32c0.14-0.55,0.36-1.06,0.63-1.52
	c0.28-0.46,0.62-0.84,1.02-1.15c0.4-0.31,0.86-0.46,1.39-0.46c0.21,0,0.42,0.04,0.63,0.11c0.22,0.08,0.41,0.19,0.57,0.34
	c0.16,0.15,0.3,0.35,0.41,0.59c0.11,0.24,0.17,0.52,0.17,0.85c-0.02,0.62-0.16,1.13-0.39,1.54c-0.24,0.41-0.54,0.73-0.88,0.98
	c-0.35,0.24-0.72,0.42-1.11,0.52c-0.39,0.1-0.74,0.15-1.07,0.15c-0.02,0.15-0.01,0.31,0.02,0.46c0.04,0.16,0.11,0.3,0.19,0.42
	c0.09,0.12,0.2,0.22,0.33,0.3c0.13,0.08,0.29,0.11,0.46,0.11c0.3,0,0.64-0.14,1.03-0.42c0.38-0.28,0.78-0.66,1.18-1.14
	c0.4-0.48,0.8-1.05,1.19-1.69c0.4-0.64,0.76-1.33,1.09-2.07c0.02-0.06,0.07-0.09,0.14-0.09c0.07-0.01,0.14,0,0.21,0.03
	c0.07,0.03,0.13,0.07,0.17,0.12c0.04,0.05,0.05,0.1,0.03,0.15c-0.13,0.27-0.3,0.6-0.52,1c-0.21,0.4-0.46,0.83-0.73,1.27
	c-0.27,0.45-0.57,0.9-0.9,1.34c-0.33,0.45-0.67,0.86-1.04,1.22c-0.36,0.36-0.74,0.67-1.13,0.9c-0.39,0.23-0.78,0.36-1.18,0.37
	c-0.31,0-0.6-0.07-0.85-0.2c-0.26-0.13-0.48-0.32-0.67-0.56c-0.19-0.23-0.33-0.5-0.44-0.81l-0.04,0.07
	c-0.27,0.42-0.54,0.77-0.81,1.04c-0.27,0.27-0.53,0.42-0.79,0.43c-0.49,0.02-0.87-0.1-1.15-0.38c-0.28-0.28-0.45-0.68-0.51-1.21
	c-0.03-0.27-0.04-0.57-0.01-0.91c-0.23,0.41-0.47,0.8-0.73,1.14c-0.29,0.4-0.61,0.73-0.95,0.99c-0.34,0.26-0.68,0.39-1.03,0.39
	c-0.29,0-0.54-0.04-0.73-0.13c-0.19-0.09-0.36-0.22-0.48-0.39c-0.12-0.17-0.21-0.36-0.26-0.59c-0.03-0.13-0.05-0.28-0.07-0.43l0,0
	c-0.29,0.41-0.61,0.75-0.92,1.03c-0.32,0.28-0.64,0.44-0.95,0.49c-0.3,0.02-0.55,0-0.75-0.07c-0.2-0.07-0.36-0.18-0.48-0.33
	c-0.12-0.15-0.21-0.33-0.26-0.54c-0.05-0.21-0.08-0.44-0.08-0.68c0-0.37,0.06-0.78,0.17-1.23c0.11-0.45,0.22-0.89,0.33-1.34
	c0.07-0.31,0.08-0.53,0.04-0.65c-0.04-0.12-0.11-0.17-0.22-0.14c-0.1,0.03-0.22,0.12-0.36,0.27c-0.13,0.15-0.25,0.34-0.36,0.58
	c-0.1,0.23-0.22,0.5-0.33,0.79c-0.12,0.29-0.23,0.59-0.34,0.9c-0.11,0.31-0.21,0.61-0.3,0.9c-0.09,0.29-0.15,0.55-0.2,0.77
	c-0.05,0.22-0.15,0.42-0.3,0.59c-0.15,0.18-0.36,0.24-0.63,0.19c-0.09-0.01-0.18-0.05-0.26-0.12c-0.08-0.07-0.14-0.15-0.18-0.24
	c-0.04-0.09-0.08-0.19-0.1-0.3c-0.02-0.1-0.03-0.2-0.03-0.3c0-0.37,0.06-0.88,0.18-1.53c0.06-0.33,0.13-0.67,0.21-1.03
	c-0.18,0.15-0.36,0.29-0.55,0.41c-0.37,0.23-0.72,0.29-1.08,0.2c-0.18,0.34-0.36,0.67-0.57,0.99c-0.2,0.33-0.42,0.62-0.64,0.89
	c-0.23,0.27-0.46,0.5-0.71,0.68c-0.25,0.19-0.5,0.3-0.75,0.35c-0.2,0.04-0.38,0.02-0.56-0.04c-0.18-0.06-0.33-0.17-0.47-0.32
	c-0.14-0.15-0.26-0.32-0.37-0.52c-0.1-0.2-0.18-0.42-0.22-0.66c-0.11,0.19-0.21,0.37-0.32,0.55c-0.1,0.18-0.22,0.34-0.34,0.49
	c-0.12,0.14-0.26,0.27-0.4,0.36c-0.15,0.09-0.31,0.14-0.48,0.16c-0.3,0.02-0.56-0.02-0.77-0.13c-0.21-0.11-0.37-0.27-0.5-0.47
	c-0.12-0.2-0.2-0.44-0.25-0.72s-0.06-0.57-0.04-0.88c0.02-0.38,0.08-0.81,0.17-1.27c0.09-0.47,0.2-0.93,0.33-1.38
	c0.14-0.45,0.28-0.88,0.44-1.27c0.16-0.4,0.33-0.72,0.5-0.98c0.14-0.2,0.34-0.3,0.61-0.3c0.17,0,0.34,0.03,0.5,0.08
	c0.17,0.05,0.3,0.13,0.41,0.22c0.11,0.09,0.18,0.21,0.21,0.36c0.03,0.14-0.01,0.31-0.11,0.48c-0.1,0.2-0.24,0.48-0.41,0.85
	c-0.17,0.37-0.34,0.76-0.5,1.19c-0.17,0.43-0.3,0.85-0.42,1.28c-0.11,0.43-0.18,0.81-0.18,1.13c-0.01,0.4,0.03,0.59,0.13,0.59
	c0.1-0.01,0.24-0.18,0.43-0.53c0.17-0.32,0.34-0.72,0.54-1.22c0.19-0.5,0.38-1.01,0.56-1.54c0.19-0.53,0.36-1.02,0.54-1.49
	c0.17-0.46,0.32-0.82,0.45-1.06c0.14-0.19,0.35-0.28,0.63-0.28c0.18,0,0.35,0.03,0.51,0.08c0.17,0.05,0.3,0.13,0.41,0.23
	c0.11,0.11,0.18,0.23,0.22,0.37c0.03,0.14,0,0.3-0.09,0.47c-0.1,0.2-0.23,0.48-0.38,0.83c-0.15,0.36-0.29,0.74-0.43,1.15
	c-0.13,0.41-0.25,0.83-0.35,1.25c-0.09,0.42-0.15,0.79-0.17,1.12c0,0.22,0.01,0.38,0.05,0.47c0.03,0.09,0.07,0.14,0.13,0.14
	c0.06,0,0.13-0.04,0.22-0.13c0.09-0.09,0.18-0.2,0.29-0.34c0.2-0.27,0.39-0.59,0.58-0.98c0.19-0.38,0.38-0.79,0.55-1.22
	c-0.06-0.13-0.1-0.26-0.14-0.39c-0.03-0.14-0.06-0.27-0.09-0.41c-0.04-0.23-0.04-0.51-0.01-0.82c0.03-0.32,0.09-0.61,0.19-0.89
	c0.1-0.28,0.24-0.52,0.41-0.72C129.11,233.89,129.34,233.78,129.6,233.76L129.6,233.76z M140.93,233.23
	c-0.1,0.09-0.24,0.14-0.41,0.13c-0.17,0-0.33-0.05-0.49-0.14c-0.16-0.09-0.28-0.21-0.38-0.37c-0.09-0.16-0.11-0.36-0.05-0.58
	c0.04-0.12,0.08-0.25,0.11-0.41c0.04-0.16,0.09-0.32,0.14-0.47c0.05-0.16,0.1-0.31,0.17-0.45c0.06-0.14,0.11-0.25,0.18-0.33
	c0.07-0.07,0.14-0.12,0.21-0.16c0.07-0.03,0.16-0.06,0.26-0.07c0.18-0.01,0.36,0.02,0.56,0.09c0.2,0.07,0.37,0.17,0.53,0.29
	c0.16,0.12,0.27,0.26,0.35,0.42c0.08,0.16,0.08,0.31,0.01,0.45L140.93,233.23L140.93,233.23z M147.86,235.52
	c-0.1,0.06-0.23,0.17-0.36,0.35c-0.14,0.18-0.28,0.39-0.42,0.64c-0.14,0.25-0.27,0.52-0.38,0.82c-0.11,0.3-0.2,0.6-0.26,0.9
	c0.2-0.02,0.4-0.1,0.6-0.24c0.2-0.14,0.39-0.31,0.56-0.52c0.17-0.2,0.31-0.44,0.43-0.7c0.12-0.26,0.19-0.53,0.21-0.79
	c0.01-0.14,0-0.24-0.03-0.31c-0.03-0.06-0.06-0.11-0.1-0.14c-0.04-0.03-0.08-0.04-0.12-0.03
	C147.94,235.5,147.9,235.51,147.86,235.52L147.86,235.52z"/>
</svg>
