<?xml version="1.0" encoding="utf-8"?>
<!-- Generator: Adobe Illustrator 23.0.1, SVG Export Plug-In . SVG Version: 6.00 Build 0)  -->
<svg version="1.1" id="Daquiri" xmlns="http://www.w3.org/2000/svg" xmlns:xlink="http://www.w3.org/1999/xlink" x="0px" y="0px"
	 viewBox="0 0 300 300" style="enable-background:new 0 0 300 300;" xml:space="preserve">
<style type="text/css">
	.st0{fill:#4E4236;}
	.st1{fill-rule:evenodd;clip-rule:evenodd;fill:#FFFFFF;}
	.st2{fill-rule:evenodd;clip-rule:evenodd;fill:#DFC88E;}
	.st3{fill-rule:evenodd;clip-rule:evenodd;fill:#9ACA3C;}
	.st4{fill-rule:evenodd;clip-rule:evenodd;fill:#E1E2E1;}
	.st5{fill-rule:evenodd;clip-rule:evenodd;fill:#C2AA71;}
	.st6{fill-rule:evenodd;clip-rule:evenodd;fill:#7BAF42;}
	.st7{fill:#FFFFFF;}
</style>
<path class="st0" d="M190.84,21.69c0,0.11,0,0.24,0,0.39c0,0.15,0.02,0.29,0.05,0.44c0.03,0.15,0.08,0.28,0.15,0.39
	c0.07,0.11,0.17,0.18,0.3,0.2c0.27,0,0.6-0.16,0.98-0.49c0.38-0.33,0.79-0.77,1.21-1.32c0.42-0.55,0.85-1.19,1.29-1.9
	c0.44-0.71,0.85-1.43,1.22-2.15c0.38-0.72,0.72-1.42,1.02-2.1c0.3-0.68,0.54-1.28,0.69-1.8c0.05-0.14,0.14-0.21,0.27-0.22
	c0.13-0.01,0.28,0.01,0.42,0.07c0.15,0.06,0.27,0.14,0.38,0.24c0.1,0.1,0.14,0.21,0.12,0.32c-0.13,0.27-0.34,0.76-0.61,1.46
	c-0.27,0.7-0.6,1.49-1,2.36c-0.39,0.87-0.84,1.78-1.34,2.73c-0.5,0.95-1.03,1.81-1.61,2.59c-0.58,0.77-1.19,1.41-1.85,1.92
	c-0.66,0.5-1.32,0.75-2,0.75c-0.57,0-1.04-0.09-1.42-0.27c-0.38-0.18-0.7-0.43-0.93-0.76c-0.24-0.32-0.41-0.7-0.51-1.14
	c-0.1-0.44-0.15-0.92-0.15-1.44c0-0.36,0.02-0.73,0.06-1.13c-0.47,0.7-0.95,1.36-1.43,1.98c-0.63,0.79-1.25,1.45-1.87,1.97
	c-0.62,0.52-1.2,0.78-1.75,0.78c-0.45,0-0.86-0.13-1.22-0.37c-0.36-0.25-0.66-0.57-0.9-0.97c-0.24-0.4-0.42-0.85-0.54-1.36
	c-0.12-0.51-0.18-1.05-0.18-1.61c0-0.54,0.05-1.11,0.15-1.71c0.1-0.6,0.24-1.19,0.41-1.78c0.17-0.59,0.37-1.15,0.59-1.7
	c0.23-0.54,0.45-1.04,0.68-1.49c-0.45-0.02-0.9-0.09-1.36-0.2c-0.1-0.03-0.2-0.05-0.3-0.09c-0.11,0.25-0.23,0.56-0.38,0.94
	c-0.27,0.7-0.6,1.49-1,2.36c-0.39,0.87-0.84,1.78-1.34,2.73c-0.5,0.95-1.03,1.81-1.61,2.59c-0.58,0.77-1.19,1.41-1.85,1.92
	c-0.66,0.5-1.32,0.75-2,0.75c-0.57,0-1.04-0.09-1.43-0.27c-0.38-0.18-0.69-0.43-0.93-0.76c-0.24-0.32-0.41-0.7-0.51-1.14
	c-0.08-0.34-0.13-0.71-0.14-1.11c-0.07,0.11-0.14,0.22-0.21,0.33c-0.52,0.8-1.05,1.48-1.6,2.03c-0.54,0.55-1.07,0.85-1.59,0.9
	c-0.9,0.09-1.61-0.16-2.1-0.75c-0.5-0.59-0.76-1.37-0.78-2.34c-0.21,0.38-0.43,0.76-0.68,1.12c-0.25,0.36-0.52,0.68-0.81,0.97
	c-0.3,0.28-0.61,0.51-0.93,0.7c-0.33,0.18-0.65,0.27-0.97,0.27c-0.27,0-0.57-0.05-0.89-0.14c-0.31-0.09-0.62-0.26-0.91-0.51
	c-0.29-0.25-0.54-0.61-0.75-1.08c-0.2-0.47-0.32-1.11-0.34-1.9c0-0.12,0-0.25,0-0.38c-0.15,0.19-0.3,0.38-0.46,0.56
	c-0.46,0.55-0.9,0.99-1.3,1.31c0.09,0.57,0.15,1.1,0.17,1.61c0.02,0.51,0.04,0.99,0.04,1.44c0,2.1-0.27,3.78-0.8,5.04
	c-0.53,1.26-1.34,1.89-2.42,1.92c-0.68,0.02-1.23-0.19-1.66-0.63c-0.43-0.44-0.75-1.05-0.97-1.81c-0.22-0.77-0.32-1.67-0.32-2.71
	c0-1.04,0.09-2.16,0.27-3.36c-0.2,0.16-0.44,0.3-0.71,0.42c-0.27,0.12-0.58,0.2-0.92,0.22c-1.11,0-1.96-0.39-2.54-1.17
	c-0.34-0.45-0.58-0.97-0.73-1.56l-0.07,0.1c-0.58,0.77-1.19,1.41-1.85,1.92c-0.66,0.5-1.32,0.75-2,0.75c-0.57,0-1.04-0.09-1.42-0.27
	c-0.38-0.18-0.7-0.43-0.93-0.76c-0.24-0.32-0.41-0.7-0.51-1.14c-0.1-0.44-0.15-0.92-0.15-1.44v-0.04c-0.17,0.29-0.35,0.56-0.53,0.83
	c-0.53,0.8-1.08,1.46-1.63,1.98c-0.55,0.52-1.1,0.78-1.65,0.78c-0.59,0-1.1-0.2-1.54-0.61c-0.44-0.41-0.73-0.95-0.86-1.63
	c-0.14,0.25-0.31,0.5-0.51,0.76c-0.2,0.26-0.43,0.5-0.68,0.71c-0.25,0.22-0.53,0.4-0.83,0.54c-0.3,0.15-0.64,0.23-1,0.25
	c-0.97,0-1.79-0.33-2.44-1c-0.66-0.67-0.98-1.67-0.98-3c0-0.81,0.1-1.7,0.31-2.65c0.2-0.95,0.47-1.87,0.8-2.75
	c0.33-0.88,0.7-1.68,1.1-2.39c0.41-0.71,0.83-1.24,1.26-1.58c0.36-0.27,0.73-0.47,1.12-0.59c0.38-0.12,0.76-0.19,1.12-0.19
	c0.54,0,1.03,0.12,1.46,0.36c0.43,0.24,0.75,0.62,0.95,1.14c0.07-0.16,0.12-0.27,0.15-0.34c0.03-0.07,0.11-0.19,0.22-0.37
	c0.16-0.29,0.46-0.44,0.9-0.42c0.44,0.01,0.87,0.11,1.29,0.29c0.42,0.18,0.77,0.41,1.07,0.7c0.29,0.28,0.37,0.56,0.24,0.83
	c-0.43,0.95-0.83,1.89-1.2,2.83c-0.37,0.94-0.7,1.81-0.98,2.63c-0.28,0.81-0.49,1.54-0.63,2.17c-0.14,0.63-0.18,1.12-0.14,1.46
	c0.04,0.18,0.12,0.28,0.22,0.29c0.1,0.01,0.21-0.02,0.34-0.1c0.12-0.08,0.24-0.18,0.36-0.31c0.11-0.13,0.2-0.22,0.27-0.29
	c0.45-0.5,0.94-1.16,1.46-1.98c0.52-0.83,1.02-1.68,1.51-2.56l0.13-0.24c0.06-0.24,0.13-0.49,0.19-0.73
	c0.25-0.89,0.51-1.74,0.8-2.53c0.28-0.79,0.56-1.42,0.83-1.9c0.2-0.38,0.57-0.6,1.09-0.66c0.52-0.06,1.02,0.02,1.49,0.22
	c0.47,0.2,0.85,0.5,1.12,0.9c0.27,0.4,0.27,0.84,0,1.34c-0.2,0.41-0.46,0.91-0.76,1.51c-0.31,0.6-0.6,1.24-0.9,1.93
	c-0.29,0.69-0.55,1.4-0.76,2.12c-0.22,0.72-0.36,1.39-0.42,2c0,0.11,0,0.24,0,0.39c0,0.15,0.02,0.29,0.05,0.44
	c0.03,0.15,0.08,0.28,0.15,0.39c0.07,0.11,0.17,0.18,0.3,0.2c0.27,0,0.6-0.16,0.98-0.49c0.38-0.33,0.79-0.77,1.2-1.32
	c0.29-0.38,0.58-0.8,0.88-1.25c0.06-0.37,0.14-0.76,0.24-1.17c0.24-0.95,0.55-1.88,0.93-2.8c0.38-0.92,0.8-1.74,1.25-2.48
	c0.45-0.73,0.91-1.26,1.36-1.58c0.36-0.25,0.73-0.43,1.12-0.54c0.38-0.11,0.77-0.17,1.15-0.17c0.54,0,1.03,0.1,1.48,0.31
	c0.44,0.2,0.76,0.55,0.97,1.05c0.07-0.18,0.13-0.38,0.19-0.59c0.06-0.21,0.18-0.36,0.36-0.42c0.23-0.09,0.55-0.08,0.98,0.03
	s0.83,0.31,1.19,0.58c0.36,0.27,0.63,0.62,0.8,1.03c0.17,0.42,0.12,0.9-0.15,1.44c-0.75,1.47-1.32,2.76-1.71,3.87
	c-0.4,1.11-0.67,2-0.83,2.68c0.5-0.16,0.99-0.43,1.48-0.81c0.49-0.38,0.99-0.89,1.51-1.53c0.17-0.2,0.34-0.42,0.52-0.66
	c0.14-0.69,0.32-1.37,0.51-2.04c0.28-0.96,0.58-1.84,0.9-2.63c0.32-0.79,0.6-1.38,0.85-1.76c0.32-0.38,0.73-0.58,1.22-0.58
	c0.34,0,0.68,0.05,1.02,0.15c0.34,0.1,0.63,0.24,0.87,0.42c0.24,0.18,0.39,0.41,0.46,0.7c0.07,0.28,0,0.6-0.21,0.97
	c-0.2,0.38-0.46,0.92-0.76,1.61c-0.31,0.69-0.61,1.44-0.9,2.26c-0.29,0.81-0.57,1.63-0.81,2.44c-0.25,0.81-0.41,1.54-0.48,2.17
	c-0.09,0.59,0,0.94,0.25,1.05c0.26,0.11,0.58-0.17,0.97-0.85c0.29-0.5,0.61-1.14,0.93-1.93c0.33-0.79,0.65-1.61,0.98-2.46
	c0.33-0.85,0.64-1.68,0.95-2.49c0.3-0.81,0.56-1.5,0.76-2.07c0.12-0.34,0.22-0.63,0.31-0.88c0.09-0.25,0.17-0.42,0.24-0.51
	c0.25-0.38,0.64-0.58,1.15-0.58c0.34,0,0.68,0.04,1.03,0.12c0.35,0.08,0.65,0.2,0.9,0.36c0.25,0.16,0.42,0.36,0.5,0.61
	c0.09,0.25,0.05,0.55-0.13,0.92c-0.2,0.36-0.45,0.85-0.73,1.47c-0.28,0.62-0.57,1.3-0.87,2.04c-0.29,0.73-0.55,1.48-0.78,2.24
	c-0.23,0.76-0.38,1.46-0.48,2.12c0,0.07-0.01,0.2-0.03,0.39c-0.02,0.19-0.03,0.39-0.03,0.59c0,0.2,0.03,0.38,0.08,0.54
	c0.06,0.16,0.15,0.25,0.29,0.27c0.23,0,0.54-0.17,0.95-0.51c0.4-0.34,0.88-0.89,1.42-1.66c0.35-0.49,0.71-1.08,1.1-1.76
	c0.14-0.76,0.32-1.52,0.52-2.26c0.25-0.89,0.51-1.74,0.8-2.53c0.28-0.79,0.56-1.42,0.83-1.9c0.2-0.38,0.56-0.6,1.08-0.66
	c0.52-0.06,1.02,0.02,1.5,0.22c0.47,0.2,0.85,0.5,1.12,0.9c0.27,0.4,0.27,0.84,0,1.34c-0.2,0.41-0.46,0.91-0.76,1.51
	c-0.31,0.6-0.61,1.24-0.9,1.93c-0.29,0.69-0.55,1.4-0.76,2.12c-0.21,0.72-0.36,1.39-0.42,2c0,0.11,0,0.24,0,0.39
	c0,0.15,0.02,0.29,0.05,0.44c0.03,0.15,0.08,0.28,0.15,0.39c0.07,0.11,0.17,0.18,0.31,0.2c0.27,0,0.6-0.16,0.98-0.49
	c0.38-0.33,0.79-0.77,1.21-1.32c0.42-0.55,0.85-1.19,1.29-1.9c0.44-0.71,0.85-1.43,1.22-2.15c0.38-0.72,0.71-1.42,1.02-2.1
	c0.24-0.52,0.43-1,0.58-1.43c-0.27-0.22-0.51-0.48-0.7-0.79c-0.23-0.37-0.35-0.82-0.37-1.34c-0.05-0.77,0.15-1.44,0.59-2.02
	c0.44-0.58,1.03-0.85,1.78-0.83c0.41,0,0.73,0.1,0.97,0.31c0.24,0.2,0.41,0.46,0.51,0.78c0.1,0.32,0.13,0.66,0.08,1.03
	c-0.04,0.37-0.14,0.74-0.3,1.1c0.04,0.32,0.25,0.53,0.59,0.64c0.35,0.11,0.69,0.06,1-0.17c0.32-0.18,0.63-0.27,0.95-0.27
	c0.34,0,0.68,0.08,1.03,0.24c0.35,0.16,0.63,0.36,0.85,0.61c0.22,0.25,0.35,0.53,0.41,0.85c0.05,0.32-0.03,0.64-0.25,0.98
	c-0.25,0.34-0.54,0.8-0.88,1.37c-0.34,0.58-0.67,1.21-0.99,1.88c-0.32,0.68-0.59,1.37-0.81,2.07s-0.35,1.33-0.38,1.9
	c0,0.38,0.05,0.67,0.13,0.85c0.09,0.18,0.37,0.11,0.82-0.2c0.52-0.38,1.11-0.99,1.78-1.81c0.67-0.82,1.33-1.71,1.98-2.65
	c0.22-0.31,0.42-0.61,0.63-0.9c0.05-0.2,0.1-0.39,0.16-0.59c0.25-0.89,0.51-1.74,0.79-2.53c0.28-0.79,0.56-1.42,0.83-1.9
	c0.2-0.38,0.57-0.6,1.09-0.66c0.52-0.06,1.01,0.02,1.49,0.22c0.48,0.2,0.85,0.5,1.12,0.9c0.27,0.4,0.27,0.84,0,1.34
	c-0.2,0.41-0.46,0.91-0.76,1.51c-0.31,0.6-0.61,1.24-0.9,1.93c-0.29,0.69-0.55,1.4-0.77,2.12
	C191.05,20.41,190.91,21.08,190.84,21.69L190.84,21.69z M115.99,6.46c-0.16,0.25-0.37,0.71-0.64,1.39
	c-0.27,0.68-0.58,1.49-0.93,2.44c-0.35,0.95-0.73,2-1.15,3.14c-0.42,1.14-0.86,2.29-1.32,3.44c-0.46,1.15-0.94,2.27-1.43,3.36
	c-0.49,1.08-0.98,2.05-1.48,2.88c1.22,0.32,2.43,0.32,3.63,0c1.2-0.32,2.3-0.86,3.31-1.64c1.01-0.78,1.88-1.76,2.61-2.95
	c0.73-1.19,1.25-2.49,1.54-3.92c0.29-1.43,0.37-2.84,0.22-4.26c-0.15-1.41-0.52-2.68-1.12-3.8c-0.6-1.12-1.44-2.02-2.53-2.7
	c-1.09-0.68-2.42-0.98-4-0.92c-0.86,0.11-1.68,0.42-2.48,0.92c-0.79,0.5-1.42,1.11-1.9,1.83c-0.45,0.66-0.73,1.34-0.83,2.05
	c-0.1,0.71,0.04,1.4,0.42,2.05c0.16,0.25,0.18,0.49,0.05,0.71c-0.13,0.23-0.35,0.42-0.66,0.58c-0.32,0.14-0.74,0.22-1.27,0.24
	c-0.53,0.02-1.05-0.07-1.54-0.27c-0.5-0.2-0.92-0.53-1.26-0.97c-0.34-0.44-0.46-1.06-0.37-1.85c0.14-1.09,0.52-2.1,1.15-3.04
	c0.63-0.94,1.42-1.75,2.36-2.42c0.94-0.68,1.98-1.22,3.12-1.61c1.14-0.4,2.29-0.59,3.44-0.59c2.26,0,4.19,0.4,5.8,1.19
	c1.61,0.79,2.87,1.84,3.8,3.14c0.93,1.3,1.52,2.8,1.78,4.49c0.26,1.7,0.2,3.45-0.19,5.26c-0.38,1.74-0.97,3.25-1.75,4.53
	c-0.78,1.28-1.67,2.35-2.68,3.22c-1.01,0.87-2.09,1.55-3.24,2.04c-1.15,0.49-2.28,0.81-3.37,0.97c-1.1,0.16-2.14,0.16-3.12,0.02
	c-0.98-0.15-1.8-0.41-2.46-0.8c-0.97,0.63-2.01,0.95-3.12,0.95c-0.41,0-0.78-0.07-1.12-0.2c-0.34-0.13-0.64-0.3-0.9-0.51
	c-0.26-0.2-0.47-0.42-0.64-0.66c-0.17-0.24-0.29-0.47-0.36-0.7c-0.2-0.68-0.23-1.23-0.07-1.66c0.16-0.43,0.37-0.72,0.63-0.88
	c0.26-0.16,0.51-0.17,0.75-0.05c0.24,0.12,0.32,0.39,0.25,0.8c0,0.07-0.01,0.18-0.03,0.32c-0.02,0.15-0.03,0.31-0.02,0.48
	c0.01,0.17,0.06,0.33,0.14,0.48c0.08,0.15,0.21,0.25,0.39,0.32c0.34,0.16,0.77,0.2,1.29,0.12c0.52-0.08,0.98-0.35,1.39-0.8
	c0.2-0.23,0.42-0.59,0.64-1.1c0.23-0.51,0.44-1.06,0.64-1.66c0.2-0.6,0.39-1.2,0.56-1.8c0.17-0.6,0.31-1.11,0.42-1.54
	c0.45-1.81,0.84-3.33,1.17-4.56c0.33-1.23,0.61-2.24,0.85-3.04c0.24-0.79,0.44-1.41,0.59-1.87c0.16-0.45,0.29-0.8,0.41-1.05
	c0.11-0.25,0.21-0.44,0.29-0.58c0.08-0.13,0.16-0.29,0.25-0.47V5l0.17-0.27c0.11-0.25,0.28-0.43,0.49-0.54
	c0.22-0.11,0.46-0.18,0.73-0.2c0.36-0.02,0.75,0.03,1.15,0.15c0.41,0.13,0.76,0.31,1.05,0.54c0.29,0.24,0.5,0.51,0.61,0.83
	S116.19,6.15,115.99,6.46L115.99,6.46z M131.25,15.31c0-0.07-0.01-0.18-0.02-0.32c-0.01-0.15-0.03-0.29-0.07-0.42
	c-0.03-0.13-0.08-0.26-0.14-0.37c-0.06-0.11-0.13-0.17-0.22-0.17c-0.27,0-0.57,0.21-0.9,0.63c-0.33,0.42-0.64,0.94-0.95,1.58
	c-0.31,0.63-0.59,1.33-0.86,2.1c-0.27,0.77-0.49,1.49-0.64,2.17c-0.05,0.2-0.1,0.49-0.17,0.85c-0.07,0.36-0.11,0.72-0.12,1.07
	c-0.01,0.35,0.02,0.66,0.08,0.92c0.07,0.26,0.22,0.39,0.44,0.39c0.29,0,0.59-0.16,0.88-0.49c0.29-0.33,0.57-0.75,0.83-1.27
	c0.26-0.52,0.5-1.1,0.73-1.73c0.23-0.63,0.42-1.26,0.6-1.88c0.17-0.62,0.3-1.2,0.39-1.75C131.2,16.06,131.25,15.63,131.25,15.31
	L131.25,15.31z M143.8,10.02c-0.2,0.18-0.47,0.27-0.8,0.25c-0.33-0.01-0.64-0.1-0.95-0.27c-0.31-0.17-0.55-0.41-0.73-0.73
	c-0.18-0.32-0.22-0.69-0.1-1.12c0.07-0.23,0.14-0.49,0.22-0.8c0.08-0.31,0.17-0.61,0.27-0.92c0.1-0.31,0.21-0.59,0.32-0.87
	c0.11-0.27,0.23-0.49,0.34-0.64c0.13-0.14,0.27-0.24,0.41-0.31c0.14-0.07,0.31-0.11,0.51-0.14c0.34-0.02,0.7,0.03,1.09,0.17
	c0.38,0.14,0.73,0.32,1.03,0.56c0.31,0.24,0.53,0.51,0.68,0.81c0.15,0.31,0.15,0.59,0.02,0.86L143.8,10.02L143.8,10.02z
	 M151.63,31.12c0.25,0,0.46-0.25,0.64-0.76c0.18-0.51,0.3-1.14,0.37-1.88c0.07-0.75,0.09-1.53,0.05-2.36
	c-0.03-0.83-0.15-1.54-0.36-2.15c-0.27,0.99-0.48,1.98-0.61,2.97c-0.14,0.98-0.23,1.77-0.27,2.36c-0.02,0.45-0.02,0.87,0.02,1.26
	C151.51,30.93,151.57,31.12,151.63,31.12L151.63,31.12z M151.09,14.13c-0.09-0.32-0.22-0.47-0.37-0.47c-0.25,0-0.53,0.19-0.85,0.58
	c-0.32,0.38-0.63,0.87-0.95,1.46c-0.32,0.59-0.63,1.24-0.93,1.97c-0.3,0.72-0.57,1.43-0.8,2.14c-0.23,0.7-0.4,1.33-0.51,1.9
	c-0.11,0.57-0.13,0.99-0.07,1.29c0.09,0.52,0.26,0.78,0.51,0.78c0.27,0,0.59-0.2,0.95-0.61c0.36-0.41,0.72-0.92,1.08-1.53
	c0.14-0.25,0.32-0.67,0.56-1.27c0.24-0.6,0.46-1.24,0.68-1.93c0.21-0.69,0.4-1.37,0.56-2.03c0.16-0.67,0.24-1.19,0.24-1.58
	C151.19,14.56,151.16,14.33,151.09,14.13L151.09,14.13z M175.64,10.02c-0.2,0.18-0.47,0.27-0.79,0.25c-0.33-0.01-0.64-0.1-0.95-0.27
	c-0.3-0.17-0.55-0.41-0.73-0.73c-0.18-0.32-0.22-0.69-0.1-1.12c0.07-0.23,0.14-0.49,0.22-0.8c0.08-0.31,0.17-0.61,0.27-0.92
	c0.1-0.31,0.21-0.59,0.32-0.87c0.11-0.27,0.23-0.49,0.34-0.64c0.14-0.14,0.27-0.24,0.41-0.31c0.13-0.07,0.3-0.11,0.51-0.14
	c0.34-0.02,0.7,0.03,1.08,0.17c0.38,0.14,0.73,0.32,1.03,0.56c0.31,0.24,0.53,0.51,0.68,0.81c0.14,0.31,0.15,0.59,0.01,0.86
	L175.64,10.02L175.64,10.02z M194.51,10.02c-0.21,0.18-0.47,0.27-0.8,0.25c-0.33-0.01-0.64-0.1-0.95-0.27
	c-0.31-0.17-0.55-0.41-0.73-0.73c-0.18-0.32-0.22-0.69-0.1-1.12c0.07-0.23,0.14-0.49,0.22-0.8c0.08-0.31,0.17-0.61,0.27-0.92
	c0.1-0.31,0.21-0.59,0.32-0.87c0.11-0.27,0.23-0.49,0.34-0.64c0.14-0.14,0.27-0.24,0.41-0.31c0.13-0.07,0.31-0.11,0.51-0.14
	c0.34-0.02,0.7,0.03,1.09,0.17c0.38,0.14,0.73,0.32,1.03,0.56c0.3,0.24,0.53,0.51,0.68,0.81c0.14,0.31,0.15,0.59,0.01,0.86
	L194.51,10.02L194.51,10.02z"/>
<path class="st1" d="M89.54,98.82h121.06l-56.85,68.86c-0.99,1.14-2.34,1.69-3.68,1.74c-1.34-0.05-2.7-0.6-3.68-1.74L89.54,98.82
	L89.54,98.82z"/>
<polygon class="st2" points="74.33,80.39 225.82,80.39 210.61,98.82 89.54,98.82 74.33,80.39 "/>
<path class="st3" d="M225.82,80.39H74.33L55.27,57.3c67.26,0,122.35,0,189.61,0L225.82,80.39L225.82,80.39z"/>
<path class="st4" d="M149.9,98.82h60.71l-56.85,68.86c-0.99,1.14-2.34,1.69-3.68,1.74c-0.06,0-0.12,0-0.18-0.01V98.82L149.9,98.82z"
	/>
<polygon class="st5" points="149.9,80.39 225.82,80.39 210.61,98.82 149.9,98.82 149.9,80.39 "/>
<polygon class="st6" points="225.82,80.39 149.9,80.39 149.9,57.3 244.88,57.3 225.82,80.39 "/>
<path class="st7" d="M163.29,89.85c0-0.27,0.02-0.56,0.08-0.86c0.05-0.3,0.12-0.6,0.2-0.89c0.09-0.29,0.18-0.58,0.3-0.85
	c0.11-0.27,0.23-0.52,0.34-0.75c-0.15-0.01-0.31-0.03-0.46-0.06c-0.17,0.39-0.38,0.82-0.64,1.29c-0.34,0.63-0.73,1.26-1.17,1.87
	c-0.44,0.62-0.92,1.19-1.43,1.71c-0.51,0.53-1.04,0.92-1.59,1.2c-0.04,0.12-0.09,0.26-0.14,0.41c-0.05,0.15-0.09,0.28-0.13,0.41
	c-0.11,0.32-0.25,0.62-0.41,0.91c-0.16,0.29-0.36,0.54-0.57,0.76c-0.22,0.22-0.46,0.4-0.72,0.53c-0.27,0.13-0.56,0.2-0.88,0.2
	c-0.39,0-0.71-0.11-0.93-0.34c-0.23-0.23-0.34-0.5-0.34-0.81c0-0.34,0.08-0.65,0.24-0.92c0.16-0.28,0.36-0.52,0.62-0.74
	c0.25-0.21,0.53-0.4,0.85-0.56c0.31-0.16,0.62-0.28,0.92-0.37c0.01-0.07,0.03-0.15,0.06-0.25c0.02-0.1,0.05-0.18,0.08-0.26
	c0.03-0.08,0.05-0.14,0.06-0.19c0.01-0.04,0.01-0.06,0-0.03c-0.08,0.17-0.17,0.3-0.26,0.4c-0.1,0.1-0.19,0.17-0.27,0.22
	c-0.08,0.05-0.16,0.08-0.23,0.09c-0.07,0.01-0.12,0.02-0.15,0.02c-0.43,0-0.76-0.15-0.99-0.44c-0.23-0.29-0.36-0.7-0.37-1.2
	c0-0.1,0-0.2,0-0.32c-0.24,0.29-0.51,0.58-0.79,0.85c-0.54,0.51-1.17,0.89-1.89,1.13c-0.24,0.1-0.51,0.17-0.81,0.2
	c-0.28,0.02-0.52,0.02-0.72-0.02c-0.2-0.03-0.36-0.09-0.49-0.17c-0.13-0.08-0.22-0.18-0.29-0.29c-0.06-0.11-0.09-0.23-0.09-0.36
	c-0.01-0.18,0.03-0.34,0.14-0.47c0.1-0.13,0.22-0.22,0.35-0.26c0.13-0.04,0.25-0.04,0.37,0.02c0.12,0.06,0.19,0.19,0.23,0.39
	c0.02,0.12,0.1,0.19,0.22,0.19c0.18,0,0.3-0.07,0.37-0.21c0.07-0.14,0.1-0.32,0.09-0.54c-0.01-0.22-0.05-0.46-0.11-0.72
	c-0.06-0.26-0.13-0.51-0.21-0.76c-0.08-0.25-0.15-0.47-0.22-0.68c-0.07-0.2-0.11-0.35-0.13-0.44c-0.19-0.66-0.22-1.21-0.07-1.65
	c0.15-0.45,0.38-0.79,0.7-1.04c0.32-0.24,0.68-0.39,1.09-0.43c0.41-0.05,0.77,0,1.1,0.15c0.24,0.1,0.43,0.25,0.57,0.45
	c0.14,0.2,0.24,0.41,0.29,0.64c0.05,0.23,0.06,0.47,0.02,0.7c-0.04,0.24-0.12,0.45-0.23,0.63c-0.07,0.11-0.16,0.19-0.29,0.22
	c-0.13,0.03-0.26,0.05-0.4,0.04c-0.14,0-0.28-0.03-0.41-0.08c-0.13-0.05-0.23-0.09-0.3-0.13c-0.08-0.06-0.12-0.13-0.12-0.21
	c0-0.08,0.02-0.17,0.07-0.25c0.13-0.2,0.13-0.36,0.02-0.48c-0.09-0.09-0.21-0.1-0.36-0.04c-0.15,0.06-0.23,0.21-0.25,0.43
	c0,0.27,0.05,0.56,0.15,0.86c0.1,0.31,0.22,0.61,0.36,0.92c0.13,0.31,0.26,0.61,0.39,0.9c0.12,0.29,0.2,0.55,0.24,0.79v0.24
	c0.49-0.4,1.01-0.97,1.56-1.72l0.09-0.13l0.04-0.21c0.08-0.35,0.17-0.7,0.27-1.06c0.1-0.36,0.21-0.69,0.32-1.01
	c0.11-0.32,0.21-0.59,0.32-0.83c0.11-0.24,0.2-0.41,0.28-0.53c0.07-0.09,0.16-0.15,0.28-0.19c0.12-0.03,0.24-0.04,0.35-0.02
	c0.17,0.01,0.34,0.05,0.51,0.1c0.17,0.06,0.31,0.13,0.43,0.23c0.12,0.09,0.19,0.21,0.23,0.33c0.04,0.13,0,0.27-0.1,0.42
	c-0.1,0.17-0.24,0.43-0.4,0.79c-0.17,0.36-0.34,0.75-0.51,1.17c-0.17,0.42-0.33,0.85-0.47,1.28c-0.14,0.43-0.24,0.8-0.3,1.12
	c-0.04,0.23-0.04,0.38,0,0.48c0.05,0.09,0.1,0.13,0.15,0.13c0.17,0,0.33-0.12,0.49-0.36c0.16-0.24,0.32-0.54,0.48-0.92
	c0.16-0.38,0.31-0.8,0.46-1.26c0.15-0.46,0.3-0.9,0.45-1.34c0.15-0.44,0.3-0.83,0.44-1.19c0.14-0.36,0.29-0.62,0.43-0.79
	c0.08-0.09,0.18-0.15,0.31-0.18c0.12-0.03,0.25-0.03,0.37-0.01c0.15,0.02,0.3,0.06,0.47,0.12c0.16,0.06,0.31,0.14,0.43,0.24
	c0.13,0.1,0.21,0.22,0.25,0.36c0.04,0.14,0.01,0.28-0.09,0.44c-0.21,0.32-0.4,0.68-0.58,1.08c-0.18,0.41-0.35,0.83-0.51,1.25
	c-0.16,0.43-0.31,0.86-0.46,1.28c-0.15,0.42-0.28,0.81-0.41,1.14c-0.02,0.07-0.05,0.16-0.09,0.29c-0.04,0.12-0.07,0.22-0.1,0.27
	c0.33-0.19,0.67-0.48,1.04-0.86c0.36-0.38,0.72-0.83,1.07-1.33c0.36-0.5,0.7-1.04,1.02-1.61c0.25-0.44,0.48-0.89,0.68-1.33
	c-0.07-0.03-0.13-0.07-0.19-0.11c-0.17-0.12-0.32-0.27-0.43-0.46c-0.11-0.19-0.17-0.41-0.18-0.67c-0.02-0.38,0.07-0.72,0.29-1.01
	c0.22-0.29,0.52-0.43,0.89-0.42c0.21,0,0.37,0.05,0.49,0.15c0.12,0.1,0.2,0.23,0.26,0.39c0.05,0.16,0.06,0.33,0.04,0.52
	c-0.02,0.19-0.07,0.37-0.15,0.55c0.02,0.16,0.12,0.27,0.29,0.32c0.18,0.06,0.35,0.03,0.5-0.08c0.16-0.09,0.32-0.14,0.48-0.14
	c0.17,0,0.34,0.04,0.52,0.12c0.17,0.08,0.31,0.18,0.42,0.3c0.11,0.13,0.17,0.27,0.2,0.42c0.03,0.16-0.01,0.32-0.13,0.49
	c-0.13,0.17-0.27,0.4-0.44,0.69c-0.17,0.29-0.33,0.6-0.49,0.94c-0.16,0.34-0.29,0.68-0.41,1.03c-0.11,0.35-0.17,0.67-0.19,0.95
	c0,0.19,0.02,0.33,0.07,0.42c0.05,0.09,0.18,0.06,0.41-0.1c0.26-0.19,0.56-0.49,0.89-0.91c0.3-0.37,0.59-0.76,0.89-1.17
	c0.08-0.39,0.17-0.78,0.28-1.16c0.14-0.48,0.29-0.92,0.45-1.31c0.16-0.4,0.3-0.69,0.42-0.88c0.16-0.19,0.36-0.29,0.61-0.29
	c0.17,0,0.34,0.03,0.51,0.08c0.17,0.05,0.31,0.12,0.43,0.21c0.12,0.09,0.19,0.21,0.23,0.35c0.03,0.14,0,0.3-0.1,0.48
	c-0.1,0.19-0.23,0.46-0.38,0.8c-0.15,0.35-0.3,0.72-0.45,1.13c-0.14,0.41-0.28,0.81-0.4,1.22c-0.13,0.41-0.21,0.77-0.24,1.08
	c-0.04,0.29,0,0.47,0.13,0.53c0.13,0.06,0.29-0.09,0.48-0.42c0.15-0.25,0.3-0.57,0.47-0.97c0.16-0.4,0.33-0.81,0.49-1.23
	c0.17-0.42,0.32-0.84,0.48-1.25c0.15-0.41,0.28-0.75,0.38-1.03c0.06-0.17,0.11-0.32,0.15-0.44c0.05-0.12,0.09-0.21,0.12-0.25
	c0.13-0.19,0.32-0.29,0.58-0.29c0.17,0,0.34,0.02,0.51,0.06c0.17,0.04,0.33,0.1,0.45,0.18c0.13,0.08,0.21,0.18,0.25,0.31
	c0.04,0.13,0.02,0.28-0.07,0.46c-0.1,0.18-0.22,0.43-0.36,0.74c-0.14,0.31-0.29,0.65-0.43,1.02c-0.15,0.37-0.28,0.74-0.39,1.12
	c-0.12,0.38-0.19,0.73-0.24,1.06c0,0.03,0,0.1-0.01,0.19c-0.01,0.1-0.02,0.19-0.02,0.3c0,0.1,0.01,0.19,0.04,0.27
	c0.03,0.08,0.08,0.13,0.14,0.14c0.12,0,0.27-0.08,0.48-0.25c0.2-0.17,0.44-0.45,0.71-0.83c0.27-0.38,0.56-0.88,0.88-1.49
	c0.1-0.19,0.2-0.39,0.3-0.61c0.16-0.64,0.33-1.34,0.51-2.1c0.01-0.07,0.03-0.14,0.05-0.23c0.02-0.09,0.05-0.16,0.09-0.24
	c0.03-0.07,0.07-0.14,0.12-0.19c0.05-0.06,0.11-0.09,0.19-0.1c0.07-0.01,0.19-0.01,0.36,0.01c0.17,0.02,0.33,0.06,0.48,0.14
	c0.15,0.07,0.27,0.19,0.35,0.35c0.08,0.16,0.07,0.37-0.03,0.64c0.02-0.06,0.08-0.14,0.17-0.24c0.09-0.1,0.21-0.2,0.35-0.31
	c0.14-0.1,0.3-0.19,0.47-0.26c0.17-0.07,0.35-0.11,0.52-0.11c0.51,0,0.91,0.2,1.2,0.6c0.29,0.4,0.35,1.01,0.18,1.82
	c-0.07,0.29-0.16,0.62-0.29,0.97c-0.13,0.35-0.27,0.69-0.45,1.02c-0.18,0.33-0.37,0.64-0.58,0.92c-0.21,0.29-0.42,0.52-0.64,0.69
	c0.19,0,0.46-0.1,0.81-0.31c0.35-0.2,0.73-0.51,1.15-0.93c0.41-0.42,0.83-0.94,1.26-1.57c0.43-0.63,0.82-1.36,1.17-2.2
	c0.02-0.04,0.06-0.07,0.13-0.08c0.06,0,0.13,0,0.2,0.03c0.07,0.02,0.13,0.06,0.18,0.1c0.05,0.04,0.07,0.09,0.06,0.14
	c-0.12,0.26-0.25,0.58-0.43,0.96c-0.17,0.38-0.38,0.77-0.63,1.19c-0.25,0.41-0.53,0.83-0.85,1.25c-0.32,0.42-0.68,0.8-1.08,1.16
	c-0.4,0.36-0.85,0.66-1.33,0.91c-0.49,0.25-1.02,0.41-1.59,0.49c-0.03,0-0.12,0-0.24,0.01s-0.26-0.01-0.4-0.04
	c-0.15-0.03-0.29-0.1-0.42-0.19c-0.14-0.09-0.22-0.23-0.25-0.43c-0.02-0.11-0.02-0.23,0-0.35c0.02-0.13,0.07-0.24,0.13-0.34
	c0.07-0.1,0.16-0.18,0.28-0.25c0.12-0.06,0.26-0.08,0.43-0.04c0.11,0,0.25-0.1,0.4-0.31c0.15-0.21,0.3-0.47,0.45-0.78
	c0.15-0.31,0.28-0.65,0.41-1.01c0.13-0.36,0.22-0.7,0.29-1.03c0.07-0.32,0.1-0.59,0.08-0.81c-0.01-0.22-0.08-0.35-0.22-0.38
	c-0.23-0.06-0.44,0.04-0.64,0.3c-0.21,0.25-0.39,0.57-0.57,0.96c-0.17,0.38-0.33,0.79-0.46,1.21c-0.13,0.42-0.24,0.78-0.31,1.06
	c-0.12,0.49-0.25,0.99-0.37,1.51c-0.12,0.52-0.25,1.03-0.38,1.52c-0.13,0.49-0.25,0.94-0.38,1.36c-0.13,0.41-0.26,0.75-0.4,1.03
	c-0.06,0.11-0.19,0.18-0.41,0.19c-0.22,0.01-0.43-0.01-0.65-0.07c-0.22-0.06-0.4-0.15-0.55-0.26c-0.15-0.12-0.19-0.26-0.12-0.42
	c0.02-0.06,0.05-0.08,0.07-0.08c0.02,0,0.05-0.01,0.09-0.03c0.03-0.02,0.08-0.07,0.13-0.15c0.06-0.09,0.13-0.24,0.21-0.47
	c0.09-0.23,0.19-0.54,0.31-0.93c0.13-0.4,0.28-0.92,0.46-1.58c0.08-0.3,0.17-0.63,0.26-0.99c-0.07,0.11-0.13,0.21-0.2,0.32
	c-0.26,0.4-0.53,0.74-0.8,1.02c-0.27,0.28-0.54,0.43-0.8,0.45c-0.45,0.05-0.8-0.08-1.05-0.37c-0.25-0.29-0.38-0.68-0.39-1.17
	c-0.11,0.19-0.22,0.38-0.34,0.56c-0.13,0.18-0.26,0.34-0.41,0.48c-0.14,0.14-0.3,0.26-0.46,0.35c-0.16,0.09-0.33,0.14-0.49,0.14
	c-0.13,0-0.28-0.02-0.44-0.07c-0.16-0.05-0.31-0.13-0.46-0.25c-0.14-0.12-0.27-0.3-0.37-0.54c-0.11-0.24-0.16-0.55-0.17-0.95v-0.12
	c-0.14,0.2-0.28,0.39-0.43,0.58c-0.31,0.4-0.63,0.72-0.93,0.98c-0.31,0.26-0.6,0.39-0.88,0.39c-0.23,0-0.43-0.06-0.61-0.19
	c-0.18-0.13-0.33-0.29-0.45-0.48c-0.12-0.2-0.21-0.42-0.27-0.68C163.31,90.4,163.29,90.13,163.29,89.85L163.29,89.85z M156.98,93.22
	c-0.24,0.08-0.44,0.18-0.6,0.31c-0.16,0.13-0.28,0.25-0.37,0.36c-0.09,0.12-0.14,0.22-0.16,0.31c-0.01,0.09,0.01,0.15,0.08,0.19
	c0.03,0.02,0.09,0.03,0.16,0.03c0.08,0,0.16-0.04,0.25-0.12c0.1-0.07,0.2-0.19,0.31-0.36C156.75,93.76,156.86,93.53,156.98,93.22
	L156.98,93.22z M119.23,87.89c-0.19-0.66-0.22-1.21-0.07-1.65c0.15-0.45,0.38-0.79,0.7-1.04c0.32-0.24,0.68-0.39,1.09-0.43
	c0.41-0.05,0.77,0,1.1,0.15c0.24,0.1,0.43,0.25,0.57,0.45c0.14,0.2,0.24,0.41,0.29,0.64c0.05,0.23,0.06,0.47,0.02,0.7
	c-0.04,0.24-0.12,0.45-0.23,0.63c-0.07,0.11-0.16,0.19-0.29,0.22c-0.13,0.03-0.26,0.05-0.4,0.04c-0.14,0-0.28-0.03-0.41-0.08
	c-0.13-0.05-0.23-0.09-0.3-0.13c-0.08-0.06-0.12-0.13-0.12-0.21c0-0.08,0.02-0.17,0.07-0.25c0.12-0.2,0.13-0.36,0.02-0.48
	c-0.09-0.09-0.21-0.1-0.36-0.04c-0.15,0.06-0.23,0.21-0.25,0.43c0,0.27,0.05,0.56,0.15,0.86c0.1,0.31,0.22,0.61,0.36,0.92
	c0.14,0.31,0.27,0.61,0.39,0.9c0.13,0.29,0.2,0.55,0.24,0.79v0.24c0.43-0.35,0.89-0.84,1.38-1.48c0.01-0.09,0.03-0.19,0.05-0.28
	c0.09-0.5,0.21-0.99,0.35-1.47c0.14-0.48,0.29-0.92,0.45-1.31c0.16-0.4,0.3-0.69,0.42-0.88c0.16-0.19,0.36-0.29,0.61-0.29
	c0.17,0,0.34,0.03,0.51,0.08c0.17,0.05,0.31,0.12,0.43,0.21c0.12,0.09,0.19,0.21,0.23,0.35c0.03,0.14,0,0.3-0.1,0.48
	c-0.1,0.19-0.23,0.46-0.38,0.8c-0.15,0.35-0.3,0.72-0.45,1.13c-0.15,0.41-0.28,0.81-0.41,1.22c-0.12,0.41-0.2,0.77-0.24,1.08
	c-0.05,0.29,0,0.47,0.13,0.53c0.13,0.06,0.29-0.09,0.48-0.42c0.15-0.25,0.3-0.57,0.47-0.97c0.16-0.4,0.33-0.81,0.49-1.23
	c0.16-0.42,0.32-0.84,0.47-1.25c0.15-0.41,0.28-0.75,0.38-1.03c0.06-0.17,0.11-0.32,0.15-0.44c0.05-0.12,0.09-0.21,0.12-0.25
	c0.12-0.19,0.32-0.29,0.58-0.29c0.17,0,0.34,0.02,0.52,0.06c0.17,0.04,0.32,0.1,0.45,0.18c0.13,0.08,0.21,0.18,0.26,0.31
	c0.04,0.13,0.02,0.28-0.07,0.46c-0.1,0.18-0.22,0.43-0.36,0.74c-0.14,0.31-0.29,0.65-0.43,1.02c-0.15,0.37-0.28,0.74-0.39,1.12
	c-0.11,0.38-0.19,0.73-0.24,1.06c0,0.03-0.01,0.1-0.02,0.19c-0.01,0.1-0.02,0.19-0.02,0.3c0,0.1,0.01,0.19,0.04,0.27
	c0.03,0.08,0.08,0.13,0.15,0.14c0.11,0,0.27-0.08,0.47-0.25c0.2-0.17,0.44-0.45,0.71-0.83c0.06-0.08,0.11-0.16,0.17-0.25
	c0.03-0.2,0.08-0.42,0.13-0.65c0.13-0.49,0.28-0.96,0.47-1.42c0.19-0.46,0.39-0.88,0.63-1.26c0.23-0.37,0.45-0.64,0.65-0.8
	c0.18-0.12,0.36-0.21,0.55-0.27c0.19-0.06,0.36-0.09,0.53-0.09c0.26,0,0.51,0.06,0.76,0.19c0.25,0.12,0.42,0.32,0.53,0.59
	c0.02-0.07,0.06-0.14,0.1-0.2c0.04-0.07,0.08-0.13,0.1-0.19c0.07-0.1,0.2-0.14,0.41-0.13c0.2,0.02,0.4,0.08,0.6,0.18
	c0.2,0.1,0.36,0.23,0.49,0.39c0.13,0.16,0.16,0.33,0.08,0.51c-0.17,0.34-0.35,0.75-0.55,1.22c-0.2,0.48-0.4,0.97-0.59,1.49
	c-0.2,0.51-0.38,1.02-0.56,1.51c-0.17,0.49-0.32,0.92-0.43,1.3c0.37-0.23,0.73-0.55,1.09-0.98c0.35-0.42,0.69-0.9,1.01-1.43
	l0.04-0.07c0.03-0.19,0.06-0.38,0.1-0.57c0.1-0.47,0.23-0.93,0.4-1.37c0.16-0.44,0.35-0.84,0.55-1.2c0.2-0.36,0.41-0.62,0.63-0.79
	c0.18-0.14,0.37-0.23,0.56-0.3c0.19-0.06,0.38-0.09,0.56-0.09c0.27,0,0.51,0.06,0.73,0.18c0.22,0.12,0.37,0.31,0.48,0.57
	c0.03-0.08,0.06-0.14,0.08-0.17c0.02-0.03,0.05-0.1,0.11-0.19c0.08-0.15,0.23-0.22,0.45-0.21c0.22,0.01,0.43,0.05,0.64,0.14
	c0.21,0.09,0.39,0.21,0.54,0.35c0.15,0.14,0.19,0.28,0.12,0.41c-0.21,0.48-0.41,0.95-0.6,1.42c-0.19,0.47-0.35,0.91-0.49,1.32
	c-0.14,0.41-0.25,0.77-0.31,1.08c-0.07,0.32-0.09,0.56-0.07,0.73c0.02,0.09,0.06,0.14,0.11,0.14c0.05,0,0.11-0.01,0.17-0.05
	c0.06-0.04,0.12-0.09,0.18-0.15c0.06-0.06,0.1-0.11,0.14-0.14c0.23-0.25,0.47-0.58,0.73-0.99c0.26-0.41,0.51-0.84,0.75-1.28
	c0.24-0.44,0.46-0.86,0.66-1.26l0.35-0.72c-0.15-0.11-0.28-0.25-0.38-0.42c-0.11-0.19-0.18-0.41-0.19-0.67
	c-0.02-0.38,0.08-0.72,0.3-1.01c0.22-0.29,0.52-0.43,0.89-0.42c0.2,0,0.37,0.05,0.48,0.15c0.12,0.1,0.2,0.23,0.25,0.39
	c0.05,0.16,0.07,0.33,0.04,0.52c-0.02,0.19-0.07,0.37-0.15,0.55c0.02,0.16,0.12,0.27,0.3,0.32c0.18,0.06,0.34,0.03,0.5-0.08
	c0.16-0.09,0.32-0.14,0.48-0.14c0.17,0,0.34,0.04,0.52,0.12c0.18,0.08,0.32,0.18,0.42,0.3c0.11,0.13,0.17,0.27,0.2,0.42
	c0.03,0.16-0.01,0.32-0.13,0.49c-0.12,0.17-0.27,0.4-0.44,0.69c-0.17,0.29-0.33,0.6-0.49,0.94c-0.16,0.34-0.29,0.68-0.41,1.03
	c-0.11,0.35-0.18,0.67-0.19,0.95c0,0.19,0.02,0.33,0.07,0.42c0.05,0.09,0.18,0.06,0.41-0.1c0.26-0.19,0.56-0.49,0.89-0.91
	c0.33-0.41,0.66-0.85,0.99-1.32c0.33-0.47,0.63-0.92,0.91-1.36c0.28-0.44,0.49-0.77,0.64-1.01c0.03-0.06,0.09-0.08,0.15-0.08
	c0.07,0.01,0.13,0.03,0.19,0.07c0.06,0.04,0.11,0.09,0.15,0.15c0.04,0.06,0.04,0.12,0.01,0.16c-0.08,0.09-0.21,0.29-0.39,0.6
	c-0.18,0.31-0.4,0.68-0.64,1.1c-0.25,0.42-0.52,0.87-0.82,1.34c-0.3,0.47-0.6,0.9-0.92,1.3c-0.31,0.4-0.62,0.72-0.93,0.98
	c-0.31,0.26-0.6,0.39-0.87,0.39c-0.23,0-0.43-0.06-0.61-0.19c-0.18-0.13-0.33-0.29-0.45-0.48c-0.12-0.2-0.21-0.42-0.27-0.68
	s-0.09-0.52-0.09-0.81c0-0.27,0.03-0.56,0.08-0.86c0.05-0.3,0.12-0.6,0.2-0.89c0.09-0.29,0.18-0.58,0.3-0.85
	c0.11-0.27,0.23-0.52,0.34-0.75c-0.23-0.01-0.45-0.04-0.68-0.1c-0.04-0.01-0.07-0.02-0.1-0.03c-0.05,0.11-0.11,0.24-0.18,0.39
	c-0.14,0.33-0.31,0.72-0.51,1.15c-0.2,0.44-0.42,0.89-0.65,1.36c-0.24,0.48-0.49,0.91-0.76,1.31c-0.27,0.4-0.54,0.73-0.81,0.99
	c-0.28,0.26-0.55,0.39-0.82,0.39c-0.29,0-0.55-0.1-0.77-0.31c-0.22-0.2-0.36-0.48-0.43-0.81c-0.07,0.12-0.15,0.25-0.25,0.38
	c-0.1,0.13-0.22,0.25-0.34,0.36c-0.12,0.11-0.26,0.2-0.42,0.27c-0.15,0.07-0.32,0.12-0.5,0.13c-0.49,0-0.89-0.17-1.22-0.5
	c-0.24-0.24-0.39-0.57-0.45-0.99c-0.13,0.2-0.27,0.38-0.41,0.57c-0.29,0.38-0.6,0.71-0.93,0.99c-0.33,0.28-0.67,0.49-1.02,0.61
	c-0.08,0.24-0.19,0.53-0.32,0.88c-0.13,0.35-0.31,0.69-0.52,1.01c-0.22,0.32-0.47,0.59-0.76,0.81c-0.29,0.22-0.62,0.32-1.01,0.3
	c-0.27-0.01-0.5-0.09-0.69-0.24c-0.19-0.15-0.32-0.33-0.41-0.55c-0.09-0.22-0.12-0.46-0.11-0.72c0.01-0.26,0.08-0.5,0.2-0.73
	c0.2-0.38,0.52-0.68,0.95-0.9c0.43-0.22,0.87-0.38,1.32-0.49l0.2-0.7c-0.1,0.19-0.25,0.35-0.46,0.46c-0.2,0.11-0.39,0.17-0.56,0.17
	c-0.48-0.02-0.85-0.22-1.14-0.58c-0.16-0.21-0.28-0.45-0.35-0.73c-0.23,0.34-0.47,0.63-0.7,0.88c-0.27,0.28-0.54,0.43-0.8,0.45
	c-0.45,0.05-0.8-0.08-1.05-0.37c-0.25-0.29-0.38-0.68-0.39-1.17c-0.1,0.19-0.21,0.38-0.34,0.56c-0.12,0.18-0.26,0.34-0.41,0.48
	c-0.15,0.14-0.3,0.26-0.47,0.35c-0.16,0.09-0.32,0.14-0.48,0.14c-0.14,0-0.28-0.02-0.44-0.07c-0.16-0.05-0.31-0.13-0.46-0.25
	c-0.15-0.12-0.27-0.3-0.37-0.54c-0.1-0.23-0.15-0.53-0.17-0.92c-0.2,0.24-0.42,0.47-0.65,0.69c-0.54,0.51-1.17,0.89-1.89,1.13
	c-0.24,0.1-0.51,0.17-0.81,0.2c-0.28,0.02-0.52,0.02-0.72-0.02c-0.2-0.03-0.36-0.09-0.49-0.17c-0.13-0.08-0.23-0.18-0.29-0.29
	c-0.06-0.11-0.09-0.23-0.09-0.36c-0.01-0.18,0.03-0.34,0.14-0.47c0.1-0.13,0.22-0.22,0.35-0.26c0.13-0.04,0.26-0.04,0.37,0.02
	c0.12,0.06,0.19,0.19,0.23,0.39c0.02,0.12,0.09,0.19,0.22,0.19c0.18,0,0.31-0.07,0.37-0.21c0.07-0.14,0.1-0.32,0.09-0.54
	c-0.01-0.22-0.05-0.46-0.11-0.72c-0.06-0.26-0.13-0.51-0.21-0.76c-0.08-0.25-0.15-0.47-0.22-0.68
	C119.29,88.13,119.25,87.99,119.23,87.89L119.23,87.89z M131.13,93.19c-0.26,0.09-0.47,0.21-0.62,0.35
	c-0.15,0.14-0.26,0.28-0.33,0.42c-0.07,0.13-0.1,0.25-0.09,0.36c0,0.1,0.04,0.15,0.11,0.15c0.14,0,0.25-0.04,0.35-0.12
	c0.1-0.08,0.18-0.18,0.25-0.3c0.07-0.12,0.14-0.26,0.19-0.41C131.05,93.48,131.1,93.33,131.13,93.19L131.13,93.19z M138.68,86.88
	c0-0.03,0-0.09-0.01-0.16c-0.01-0.07-0.02-0.14-0.03-0.21c-0.02-0.07-0.04-0.13-0.07-0.19c-0.03-0.06-0.07-0.09-0.11-0.09
	c-0.14,0-0.29,0.11-0.45,0.31c-0.16,0.21-0.32,0.47-0.48,0.79c-0.15,0.32-0.3,0.67-0.43,1.05c-0.14,0.38-0.24,0.75-0.32,1.09
	c-0.02,0.1-0.05,0.24-0.08,0.42c-0.03,0.18-0.05,0.36-0.06,0.53c0,0.18,0.01,0.33,0.04,0.46c0.03,0.13,0.11,0.2,0.22,0.2
	c0.15,0,0.29-0.08,0.44-0.25c0.15-0.16,0.28-0.38,0.41-0.63c0.13-0.26,0.25-0.55,0.36-0.86c0.11-0.32,0.21-0.63,0.3-0.94
	c0.09-0.31,0.15-0.6,0.19-0.87C138.66,87.25,138.68,87.04,138.68,86.88L138.68,86.88z M132.81,86.62c0-0.03,0-0.08-0.01-0.14
	c-0.01-0.06-0.02-0.12-0.03-0.19c-0.02-0.06-0.04-0.12-0.07-0.17c-0.03-0.05-0.07-0.08-0.11-0.08c-0.12,0-0.26,0.1-0.42,0.29
	c-0.16,0.19-0.32,0.44-0.48,0.75c-0.16,0.31-0.31,0.64-0.47,1.01c-0.15,0.37-0.29,0.73-0.4,1.08c-0.05,0.13-0.09,0.32-0.14,0.55
	c-0.05,0.23-0.09,0.45-0.11,0.66c-0.02,0.21-0.02,0.38,0.01,0.53c0.03,0.14,0.11,0.19,0.23,0.16c0.19-0.04,0.38-0.17,0.55-0.37
	c0.18-0.2,0.34-0.45,0.48-0.73c0.15-0.28,0.28-0.59,0.4-0.92c0.12-0.33,0.22-0.66,0.31-0.97c0.09-0.31,0.15-0.6,0.19-0.86
	C132.79,86.96,132.81,86.76,132.81,86.62L132.81,86.62z"/>
<path class="st7" d="M174.7,67.7c0.02-0.06,0.07-0.09,0.13-0.09c0.07-0.01,0.13,0,0.2,0.03c0.07,0.03,0.12,0.07,0.16,0.12
	c0.04,0.05,0.05,0.1,0.02,0.14c-0.13,0.26-0.29,0.58-0.5,0.97c-0.21,0.39-0.45,0.8-0.71,1.24c-0.26,0.43-0.56,0.87-0.88,1.3
	c-0.32,0.44-0.65,0.83-1.01,1.19c-0.36,0.35-0.72,0.65-1.1,0.87c-0.38,0.23-0.76,0.35-1.15,0.36c-0.3,0-0.58-0.07-0.83-0.19
	c-0.25-0.13-0.47-0.31-0.65-0.54c-0.19-0.23-0.33-0.5-0.43-0.81c-0.08-0.24-0.13-0.5-0.14-0.77c-0.31,0.43-0.63,0.81-0.97,1.15
	c-0.33,0.34-0.68,0.62-1.03,0.83c-0.36,0.22-0.71,0.32-1.06,0.32c-0.36,0-0.67-0.07-0.92-0.21c-0.25-0.14-0.47-0.33-0.64-0.57
	c-0.17-0.24-0.29-0.51-0.37-0.81c-0.01-0.04-0.02-0.08-0.03-0.13c-0.09,0.13-0.17,0.26-0.26,0.38c-0.29,0.39-0.6,0.71-0.92,0.96
	c-0.33,0.25-0.66,0.38-1,0.38c-0.28,0-0.52-0.04-0.71-0.13c-0.19-0.09-0.35-0.21-0.47-0.38c-0.12-0.16-0.2-0.35-0.25-0.57
	c-0.04-0.17-0.06-0.35-0.07-0.55l-0.11,0.17c-0.26,0.4-0.52,0.74-0.8,1.02c-0.27,0.28-0.53,0.43-0.79,0.45
	c-0.45,0.04-0.8-0.08-1.05-0.37c-0.25-0.29-0.38-0.68-0.39-1.17c-0.1,0.19-0.22,0.38-0.34,0.56c-0.13,0.18-0.26,0.34-0.41,0.48
	c-0.15,0.14-0.3,0.26-0.47,0.35c-0.16,0.09-0.32,0.14-0.48,0.14c-0.14,0-0.28-0.02-0.44-0.07c-0.16-0.04-0.31-0.13-0.46-0.25
	c-0.15-0.12-0.27-0.3-0.37-0.54c-0.05-0.11-0.08-0.23-0.11-0.37l-0.09,0.12c-0.3,0.41-0.62,0.77-0.95,1.08
	c-0.33,0.31-0.68,0.54-1.03,0.69c-0.08,0.24-0.18,0.54-0.31,0.9c-0.12,0.36-0.28,0.72-0.47,1.06c-0.19,0.35-0.43,0.64-0.71,0.89
	c-0.28,0.25-0.62,0.38-1.02,0.41c-0.38,0.02-0.7-0.11-0.94-0.39c-0.24-0.28-0.36-0.61-0.36-0.97c0-0.4,0.07-0.73,0.2-1.01
	c0.14-0.28,0.31-0.51,0.53-0.7c0.22-0.19,0.48-0.34,0.76-0.45c0.29-0.11,0.59-0.21,0.91-0.29c0.05-0.2,0.1-0.48,0.17-0.83
	c0.07-0.35,0.14-0.73,0.22-1.14c0.08-0.41,0.16-0.84,0.25-1.29c0.09-0.45,0.18-0.87,0.25-1.26c0.08-0.4,0.15-0.75,0.22-1.07
	c0.07-0.32,0.12-0.56,0.17-0.73c0.08-0.25,0.19-0.46,0.32-0.64c0.13-0.18,0.32-0.25,0.56-0.23c0.17,0.01,0.35,0.04,0.55,0.09
	c0.2,0.05,0.37,0.12,0.52,0.22c0.15,0.1,0.25,0.22,0.31,0.37c0.06,0.15,0.03,0.34-0.08,0.55c-0.14,0.27-0.29,0.64-0.46,1.1
	c-0.17,0.46-0.34,0.96-0.51,1.49c-0.17,0.53-0.33,1.06-0.48,1.59c-0.15,0.53-0.28,0.97-0.38,1.35c0.37-0.25,0.74-0.62,1.1-1.11
	c0.24-0.33,0.48-0.68,0.7-1.06c0.02-0.22,0.05-0.44,0.09-0.68c0.09-0.5,0.21-0.99,0.35-1.47c0.14-0.48,0.29-0.92,0.45-1.31
	c0.16-0.4,0.3-0.69,0.42-0.88c0.16-0.19,0.36-0.29,0.61-0.29c0.17,0,0.34,0.03,0.51,0.08c0.17,0.05,0.31,0.12,0.43,0.21
	c0.12,0.09,0.2,0.21,0.23,0.35c0.04,0.14,0,0.3-0.1,0.48c-0.1,0.19-0.23,0.46-0.38,0.81c-0.15,0.34-0.3,0.72-0.45,1.13
	c-0.15,0.41-0.28,0.81-0.41,1.22c-0.12,0.41-0.2,0.77-0.24,1.08c-0.05,0.29,0,0.47,0.13,0.53c0.13,0.06,0.29-0.08,0.48-0.42
	c0.15-0.25,0.3-0.57,0.47-0.97c0.16-0.4,0.33-0.81,0.49-1.23c0.16-0.42,0.32-0.84,0.47-1.25c0.15-0.41,0.28-0.75,0.38-1.03
	c0.06-0.17,0.11-0.32,0.15-0.44c0.05-0.12,0.09-0.21,0.12-0.25c0.12-0.19,0.32-0.29,0.58-0.29c0.17,0,0.34,0.02,0.52,0.06
	c0.17,0.04,0.32,0.1,0.45,0.18c0.13,0.08,0.21,0.18,0.25,0.3c0.04,0.12,0.02,0.28-0.07,0.46c-0.1,0.18-0.23,0.43-0.37,0.74
	c-0.14,0.31-0.28,0.65-0.43,1.02c-0.14,0.37-0.27,0.74-0.39,1.12c-0.11,0.38-0.19,0.73-0.24,1.06c0,0.03-0.01,0.1-0.02,0.19
	c-0.01,0.1-0.01,0.19-0.01,0.3c0,0.1,0.01,0.19,0.04,0.27c0.03,0.08,0.08,0.13,0.14,0.14c0.12,0,0.27-0.09,0.48-0.25
	c0.2-0.17,0.44-0.45,0.71-0.83c0.17-0.25,0.36-0.54,0.55-0.88c0.08-0.38,0.16-0.76,0.26-1.13c0.13-0.45,0.26-0.87,0.4-1.26
	c0.14-0.4,0.28-0.71,0.42-0.95c0.1-0.19,0.28-0.3,0.54-0.33c0.26-0.03,0.51,0.01,0.75,0.11c0.24,0.1,0.42,0.25,0.56,0.45
	c0.13,0.2,0.13,0.42,0,0.67c-0.1,0.2-0.23,0.46-0.38,0.76c-0.15,0.3-0.3,0.62-0.45,0.97c-0.15,0.35-0.27,0.7-0.38,1.06
	c-0.11,0.36-0.18,0.7-0.21,1c0,0.06,0,0.12,0,0.19c0,0.07,0.01,0.15,0.02,0.22c0.02,0.07,0.04,0.14,0.08,0.2
	c0.03,0.06,0.09,0.09,0.15,0.1c0.13,0,0.3-0.08,0.49-0.25c0.19-0.16,0.39-0.38,0.6-0.66c0.2-0.27,0.41-0.58,0.63-0.92
	c0.04-0.39,0.12-0.79,0.24-1.19c0.17-0.59,0.42-1.11,0.73-1.58c0.31-0.46,0.68-0.82,1.11-1.08c0.43-0.26,0.9-0.34,1.41-0.24
	c0.25,0.06,0.47,0.16,0.66,0.31c0.19,0.15,0.35,0.33,0.46,0.55c0.11,0.22,0.18,0.47,0.2,0.76c0.02,0.29-0.01,0.6-0.1,0.92
	c-0.09,0.29-0.25,0.47-0.48,0.54c-0.23,0.06-0.43,0.08-0.63,0.06c-0.42-0.06-0.6-0.2-0.53-0.42c0.05-0.15,0.1-0.31,0.14-0.48
	c0.05-0.17,0.08-0.33,0.09-0.46c0-0.13-0.02-0.22-0.07-0.26c-0.05-0.04-0.16-0.01-0.33,0.1c-0.18,0.12-0.36,0.33-0.52,0.61
	c-0.17,0.28-0.32,0.6-0.45,0.95c-0.13,0.35-0.23,0.71-0.31,1.08c-0.08,0.37-0.12,0.69-0.12,0.97c0,0.35,0.05,0.61,0.15,0.77
	c0.1,0.16,0.24,0.26,0.4,0.28c0.16,0.02,0.35-0.01,0.57-0.1c0.22-0.09,0.44-0.22,0.66-0.39c0.31-0.24,0.63-0.54,0.93-0.91
	c0.3-0.37,0.6-0.76,0.89-1.19l0.07-0.1c0.03-0.17,0.07-0.35,0.12-0.53c0.14-0.54,0.35-1.03,0.62-1.48c0.27-0.45,0.6-0.82,0.99-1.12
	c0.39-0.3,0.84-0.45,1.35-0.45c0.2,0,0.41,0.04,0.62,0.11c0.21,0.07,0.39,0.18,0.55,0.33c0.16,0.15,0.29,0.34,0.4,0.57
	c0.11,0.23,0.16,0.51,0.16,0.82c-0.02,0.6-0.15,1.1-0.38,1.49c-0.23,0.4-0.52,0.71-0.86,0.95c-0.34,0.24-0.7,0.4-1.08,0.5
	c-0.38,0.1-0.73,0.14-1.04,0.14c-0.02,0.15-0.01,0.3,0.02,0.45c0.04,0.15,0.11,0.29,0.19,0.41c0.09,0.12,0.19,0.21,0.32,0.29
	c0.13,0.07,0.28,0.11,0.45,0.11c0.29,0,0.63-0.14,1-0.41c0.37-0.27,0.75-0.64,1.14-1.11c0.39-0.47,0.78-1.02,1.16-1.65
	C174.03,69.08,174.38,68.42,174.7,67.7L174.7,67.7z M127.72,61.85c0.09-0.15,0.25-0.22,0.48-0.22c0.18,0,0.37,0.03,0.57,0.1
	c0.2,0.07,0.37,0.16,0.52,0.26c0.15,0.11,0.25,0.23,0.31,0.38c0.06,0.15,0.03,0.3-0.07,0.46c-0.09,0.13-0.23,0.42-0.43,0.87
	c-0.2,0.46-0.42,1.01-0.67,1.65c-0.25,0.64-0.5,1.32-0.76,2.05c-0.26,0.73-0.49,1.43-0.69,2.1c-0.2,0.67-0.35,1.27-0.45,1.81
	c-0.1,0.53-0.12,0.91-0.05,1.14c0.02,0.07,0.06,0.11,0.13,0.12c0.06,0.01,0.12,0,0.18-0.03c0.18-0.11,0.4-0.32,0.64-0.63
	c0.25-0.31,0.51-0.67,0.77-1.1l0.1-0.17c0.08-0.41,0.17-0.81,0.28-1.21c0.12-0.45,0.26-0.87,0.4-1.26c0.14-0.4,0.28-0.71,0.41-0.95
	c0.1-0.19,0.28-0.3,0.54-0.33c0.26-0.03,0.51,0.01,0.75,0.11c0.24,0.1,0.42,0.25,0.56,0.45c0.14,0.2,0.14,0.42,0,0.67
	c-0.1,0.2-0.23,0.46-0.38,0.76c-0.15,0.3-0.3,0.62-0.45,0.97c-0.15,0.35-0.27,0.7-0.38,1.06c-0.11,0.36-0.18,0.7-0.21,1
	c0,0.06,0,0.12,0,0.19c0,0.07,0.01,0.15,0.03,0.22c0.02,0.07,0.04,0.14,0.08,0.2c0.04,0.06,0.09,0.09,0.15,0.1
	c0.14,0,0.3-0.08,0.49-0.25c0.19-0.16,0.39-0.38,0.6-0.66c0.21-0.28,0.42-0.59,0.64-0.95c0.22-0.36,0.42-0.72,0.61-1.08
	c0.09-0.17,0.17-0.34,0.25-0.51c0.05-0.18,0.11-0.36,0.16-0.54c0.17-0.55,0.34-1.08,0.51-1.58c0.05-0.16,0.18-0.26,0.41-0.31
	c0.23-0.04,0.45-0.04,0.68,0c0.23,0.05,0.42,0.13,0.57,0.25c0.15,0.12,0.19,0.26,0.11,0.43c-0.09,0.24-0.19,0.48-0.3,0.71
	c-0.11,0.24-0.2,0.47-0.28,0.69c0.08-0.13,0.18-0.29,0.31-0.46c0.12-0.17,0.26-0.34,0.41-0.51c0.15-0.17,0.3-0.34,0.46-0.5
	c0.16-0.16,0.32-0.3,0.49-0.42c0.19-0.11,0.38-0.16,0.58-0.15c0.19,0.01,0.36,0.07,0.5,0.17c0.14,0.1,0.25,0.25,0.34,0.43
	c0.09,0.19,0.12,0.39,0.11,0.62c0.16-0.19,0.33-0.38,0.53-0.57c0.19-0.19,0.38-0.34,0.58-0.47c0.21-0.14,0.44-0.19,0.68-0.18
	c0.24,0.02,0.44,0.11,0.6,0.28c0.16,0.17,0.27,0.42,0.31,0.75c0.05,0.33-0.02,0.73-0.19,1.22c-0.03,0.11-0.06,0.21-0.09,0.28
	c-0.03,0.07-0.06,0.14-0.08,0.21c-0.03,0.07-0.05,0.14-0.08,0.21c-0.02,0.07-0.05,0.16-0.09,0.26c-0.16,0.48-0.29,0.92-0.41,1.34
	c-0.11,0.42-0.17,0.76-0.17,1.02c0,0.03,0.01,0.08,0.03,0.13c0.02,0.05,0.06,0.08,0.13,0.08c0.09,0,0.24-0.1,0.46-0.3
	c0.2-0.19,0.44-0.47,0.72-0.84c0-0.05,0-0.1,0-0.16c0-0.48,0.07-0.98,0.21-1.52c0.14-0.54,0.35-1.03,0.62-1.48
	c0.27-0.45,0.6-0.82,0.99-1.12c0.39-0.3,0.84-0.45,1.35-0.45c0.2,0,0.41,0.04,0.62,0.11c0.21,0.07,0.39,0.18,0.55,0.33
	c0.16,0.15,0.29,0.34,0.4,0.57c0.11,0.23,0.16,0.51,0.16,0.82c-0.02,0.6-0.15,1.1-0.38,1.49c-0.23,0.4-0.52,0.71-0.85,0.95
	c-0.34,0.24-0.7,0.4-1.08,0.5c-0.38,0.1-0.73,0.14-1.04,0.14c-0.02,0.15-0.01,0.3,0.03,0.45c0.04,0.15,0.1,0.29,0.19,0.41
	c0.08,0.12,0.19,0.21,0.32,0.29c0.13,0.07,0.28,0.11,0.45,0.11c0.29,0,0.63-0.14,1-0.41c0.37-0.27,0.76-0.64,1.14-1.11
	c0.39-0.47,0.78-1.02,1.16-1.65c0.38-0.63,0.73-1.3,1.05-2.01c0.02-0.06,0.07-0.09,0.13-0.09c0.07-0.01,0.14,0,0.2,0.03
	c0.07,0.03,0.12,0.07,0.16,0.12c0.04,0.05,0.05,0.1,0.03,0.14c-0.13,0.26-0.29,0.58-0.5,0.97c-0.21,0.39-0.45,0.8-0.71,1.24
	c-0.27,0.43-0.56,0.87-0.87,1.3c-0.32,0.44-0.65,0.83-1.01,1.19c-0.36,0.35-0.72,0.65-1.1,0.87c-0.38,0.23-0.76,0.35-1.15,0.36
	c-0.31,0-0.58-0.07-0.83-0.19c-0.25-0.13-0.47-0.31-0.65-0.54c-0.16-0.19-0.28-0.42-0.38-0.67c-0.25,0.35-0.52,0.65-0.79,0.9
	c-0.3,0.27-0.6,0.43-0.89,0.48c-0.28,0.02-0.52,0-0.7-0.07c-0.19-0.07-0.34-0.17-0.45-0.32c-0.11-0.15-0.19-0.32-0.25-0.53
	c-0.05-0.2-0.08-0.42-0.08-0.66c0-0.36,0.05-0.76,0.16-1.2c0.11-0.44,0.21-0.88,0.3-1.31c0.07-0.3,0.09-0.51,0.06-0.63
	c-0.03-0.11-0.08-0.16-0.17-0.13c-0.09,0.02-0.19,0.11-0.31,0.26c-0.12,0.15-0.23,0.34-0.35,0.57c-0.1,0.23-0.2,0.5-0.31,0.82
	c-0.1,0.32-0.19,0.65-0.26,0.99c-0.07,0.34-0.13,0.66-0.18,0.97c-0.05,0.31-0.06,0.54-0.05,0.71c0.01,0.19-0.08,0.34-0.28,0.43
	c-0.2,0.1-0.42,0.13-0.66,0.09c-0.24-0.03-0.46-0.14-0.64-0.32c-0.19-0.18-0.26-0.45-0.21-0.8c0.06-0.34,0.14-0.72,0.25-1.14
	c0.11-0.42,0.22-0.84,0.35-1.27c0.09-0.3,0.17-0.59,0.23-0.85c0.06-0.26,0.05-0.42-0.04-0.47c-0.06-0.06-0.17-0.02-0.34,0.1
	c-0.17,0.13-0.34,0.37-0.53,0.73c-0.1,0.23-0.21,0.48-0.34,0.76c-0.12,0.28-0.24,0.57-0.35,0.87c-0.11,0.3-0.21,0.59-0.3,0.87
	c-0.09,0.28-0.16,0.53-0.2,0.75c-0.06,0.21-0.16,0.41-0.31,0.58c-0.15,0.17-0.37,0.23-0.65,0.19c-0.1-0.01-0.19-0.05-0.26-0.12
	c-0.07-0.07-0.14-0.15-0.19-0.24c-0.05-0.09-0.09-0.19-0.11-0.29c-0.02-0.1-0.03-0.2-0.03-0.29c0-0.3,0.04-0.66,0.11-1.08
	c-0.15,0.25-0.31,0.48-0.47,0.7c-0.29,0.39-0.6,0.71-0.92,0.96c-0.33,0.25-0.66,0.38-1,0.38c-0.28,0-0.52-0.04-0.71-0.13
	c-0.19-0.09-0.35-0.21-0.47-0.38c-0.12-0.16-0.2-0.35-0.25-0.57c-0.02-0.1-0.04-0.2-0.05-0.3c-0.26,0.39-0.52,0.72-0.8,0.98
	c-0.28,0.27-0.57,0.4-0.86,0.4c-0.2,0-0.4-0.03-0.59-0.09c-0.19-0.06-0.35-0.15-0.49-0.28c-0.14-0.13-0.26-0.31-0.35-0.53
	c-0.09-0.22-0.14-0.49-0.15-0.82c-0.01-0.44,0.03-0.98,0.13-1.61c0.1-0.63,0.24-1.3,0.41-2.01c0.17-0.71,0.36-1.42,0.58-2.14
	c0.22-0.72,0.43-1.38,0.64-1.99c0.22-0.61,0.41-1.14,0.59-1.59C127.46,62.33,127.6,62.02,127.72,61.85L127.72,61.85z M131.64,66.06
	c-0.1,0.09-0.23,0.13-0.4,0.13c-0.16-0.01-0.32-0.05-0.47-0.14c-0.15-0.08-0.27-0.21-0.36-0.36c-0.09-0.16-0.11-0.35-0.05-0.56
	c0.03-0.11,0.07-0.25,0.11-0.4c0.04-0.15,0.08-0.31,0.13-0.46c0.05-0.15,0.1-0.3,0.16-0.43c0.06-0.14,0.11-0.24,0.17-0.32
	c0.07-0.07,0.13-0.12,0.2-0.15c0.07-0.03,0.15-0.06,0.25-0.07c0.17-0.01,0.35,0.02,0.54,0.09c0.19,0.07,0.36,0.16,0.52,0.28
	c0.15,0.12,0.26,0.25,0.34,0.41c0.07,0.15,0.08,0.3,0.01,0.43L131.64,66.06L131.64,66.06z M143.66,68.28
	c-0.1,0.06-0.22,0.17-0.36,0.34c-0.14,0.17-0.27,0.38-0.41,0.62c-0.14,0.24-0.26,0.51-0.37,0.8c-0.11,0.29-0.2,0.58-0.26,0.87
	c0.19-0.02,0.39-0.1,0.59-0.24c0.2-0.14,0.38-0.3,0.54-0.5c0.16-0.2,0.3-0.42,0.42-0.68c0.11-0.26,0.18-0.51,0.2-0.77
	c0.01-0.14,0-0.23-0.03-0.3c-0.03-0.06-0.06-0.11-0.1-0.14c-0.04-0.03-0.08-0.04-0.12-0.03C143.73,68.26,143.69,68.27,143.66,68.28
	L143.66,68.28z M149.09,75.06c-0.27,0.08-0.49,0.19-0.65,0.34c-0.16,0.15-0.28,0.29-0.35,0.44c-0.07,0.15-0.1,0.27-0.09,0.38
	c0.01,0.11,0.06,0.16,0.14,0.16c0.27-0.02,0.48-0.18,0.63-0.46C148.91,75.64,149.02,75.36,149.09,75.06L149.09,75.06z M153.02,66.06
	c-0.1,0.09-0.24,0.13-0.4,0.13c-0.16-0.01-0.32-0.05-0.48-0.14c-0.15-0.08-0.27-0.21-0.36-0.36c-0.09-0.16-0.11-0.35-0.05-0.56
	c0.03-0.11,0.07-0.25,0.11-0.4c0.04-0.15,0.08-0.31,0.13-0.46c0.05-0.15,0.1-0.3,0.16-0.43c0.06-0.14,0.11-0.24,0.17-0.32
	c0.07-0.07,0.14-0.12,0.2-0.15c0.07-0.03,0.15-0.06,0.26-0.07c0.17-0.01,0.35,0.02,0.54,0.09c0.19,0.07,0.36,0.16,0.52,0.28
	c0.15,0.12,0.26,0.25,0.34,0.41c0.07,0.15,0.07,0.3,0.01,0.43L153.02,66.06L153.02,66.06z M162.58,66.06
	c-0.1,0.09-0.23,0.13-0.39,0.13c-0.17-0.01-0.32-0.05-0.48-0.14c-0.15-0.08-0.27-0.21-0.37-0.36c-0.09-0.16-0.11-0.35-0.05-0.56
	c0.03-0.11,0.07-0.25,0.11-0.4c0.04-0.15,0.09-0.31,0.14-0.46c0.05-0.15,0.1-0.3,0.16-0.43c0.06-0.14,0.12-0.24,0.17-0.32
	c0.07-0.07,0.14-0.12,0.21-0.15c0.07-0.03,0.15-0.06,0.25-0.07c0.17-0.01,0.35,0.02,0.54,0.09c0.19,0.07,0.37,0.16,0.52,0.28
	c0.15,0.12,0.26,0.25,0.34,0.41c0.08,0.15,0.08,0.3,0.01,0.43L162.58,66.06L162.58,66.06z M170.84,68.28
	c-0.1,0.06-0.22,0.17-0.36,0.34c-0.13,0.17-0.27,0.38-0.4,0.62c-0.14,0.24-0.26,0.51-0.38,0.8c-0.11,0.29-0.2,0.58-0.25,0.87
	c0.19-0.02,0.39-0.1,0.59-0.24c0.2-0.14,0.38-0.3,0.54-0.5c0.16-0.2,0.3-0.42,0.41-0.68c0.12-0.26,0.18-0.51,0.2-0.77
	c0.01-0.14,0-0.23-0.02-0.3c-0.03-0.06-0.06-0.11-0.1-0.14c-0.04-0.03-0.08-0.04-0.12-0.03C170.91,68.26,170.88,68.27,170.84,68.28
	L170.84,68.28z"/>
<path class="st0" d="M170.68,124.03c0.2-0.12,0.4-0.17,0.61-0.16c0.2,0.01,0.38,0.07,0.52,0.18c0.15,0.11,0.27,0.26,0.36,0.45
	c0.09,0.19,0.12,0.41,0.12,0.65c0.16-0.2,0.35-0.4,0.55-0.59c0.2-0.19,0.4-0.36,0.61-0.49c0.22-0.14,0.46-0.2,0.71-0.19
	c0.25,0.02,0.46,0.12,0.63,0.29c0.17,0.18,0.28,0.44,0.33,0.78c0.05,0.34-0.02,0.77-0.2,1.27c-0.03,0.12-0.07,0.22-0.1,0.29
	c-0.03,0.08-0.06,0.15-0.09,0.22c-0.03,0.07-0.06,0.14-0.08,0.22c-0.02,0.08-0.05,0.17-0.09,0.28c-0.17,0.5-0.31,0.96-0.43,1.4
	c-0.12,0.44-0.18,0.79-0.18,1.06c0,0.04,0.01,0.08,0.03,0.13c0.01,0.05,0.06,0.08,0.13,0.08c0.1,0,0.25-0.11,0.48-0.32
	c0.23-0.21,0.49-0.53,0.8-0.95c0.31-0.42,0.64-0.95,1-1.58c0.36-0.63,0.72-1.36,1.07-2.19c0.02-0.06,0.07-0.09,0.14-0.1
	c0.07,0,0.14,0,0.21,0.04c0.06,0.03,0.12,0.07,0.17,0.12c0.04,0.05,0.06,0.11,0.03,0.17c-0.06,0.11-0.16,0.33-0.3,0.67
	c-0.14,0.34-0.32,0.72-0.53,1.16c-0.21,0.44-0.45,0.9-0.72,1.38c-0.27,0.49-0.54,0.93-0.83,1.35c-0.29,0.41-0.59,0.76-0.9,1.05
	c-0.31,0.28-0.63,0.45-0.93,0.5c-0.29,0.02-0.54,0-0.74-0.07c-0.19-0.07-0.35-0.18-0.47-0.34c-0.12-0.15-0.21-0.34-0.26-0.55
	c-0.05-0.21-0.08-0.44-0.08-0.69c0-0.38,0.05-0.8,0.17-1.26c0.11-0.46,0.21-0.92,0.31-1.37c0.07-0.32,0.09-0.54,0.06-0.65
	c-0.03-0.12-0.09-0.17-0.18-0.14c-0.09,0.02-0.19,0.12-0.32,0.27c-0.12,0.16-0.25,0.36-0.37,0.59c-0.11,0.24-0.21,0.52-0.32,0.86
	c-0.11,0.34-0.2,0.68-0.27,1.04c-0.08,0.36-0.14,0.69-0.19,1.01c-0.05,0.32-0.06,0.57-0.05,0.75c0.01,0.2-0.09,0.35-0.29,0.45
	c-0.21,0.1-0.44,0.13-0.69,0.1c-0.25-0.04-0.48-0.15-0.67-0.34c-0.2-0.19-0.27-0.47-0.23-0.83c0.06-0.36,0.15-0.75,0.26-1.19
	c0.11-0.44,0.24-0.88,0.37-1.33c0.09-0.32,0.17-0.61,0.24-0.89c0.07-0.27,0.05-0.44-0.04-0.5c-0.06-0.06-0.18-0.02-0.36,0.11
	c-0.18,0.13-0.36,0.38-0.55,0.76c-0.11,0.24-0.23,0.5-0.36,0.8c-0.13,0.3-0.25,0.6-0.36,0.91c-0.11,0.31-0.22,0.62-0.31,0.91
	c-0.09,0.29-0.16,0.55-0.21,0.78c-0.06,0.22-0.17,0.43-0.33,0.6c-0.16,0.18-0.38,0.24-0.68,0.19c-0.11-0.01-0.2-0.05-0.27-0.12
	c-0.08-0.07-0.14-0.15-0.2-0.25c-0.05-0.1-0.09-0.2-0.11-0.3c-0.02-0.11-0.04-0.21-0.04-0.3c0-0.22,0.02-0.48,0.06-0.77
	c-0.05,0.08-0.1,0.15-0.14,0.23c-0.27,0.42-0.55,0.77-0.83,1.06c-0.28,0.29-0.56,0.45-0.84,0.47c-0.47,0.05-0.84-0.08-1.1-0.39
	c-0.26-0.31-0.39-0.72-0.41-1.22c-0.11,0.2-0.22,0.4-0.36,0.58c-0.13,0.19-0.27,0.36-0.42,0.5c-0.15,0.15-0.32,0.27-0.49,0.36
	c-0.17,0.1-0.34,0.14-0.51,0.14c-0.14,0-0.3-0.02-0.46-0.07c-0.16-0.05-0.33-0.14-0.48-0.27c-0.15-0.13-0.28-0.32-0.39-0.57
	c-0.11-0.25-0.16-0.58-0.17-0.99l0-0.13c-0.15,0.21-0.3,0.41-0.45,0.6c-0.33,0.41-0.65,0.76-0.98,1.03
	c-0.33,0.27-0.63,0.41-0.91,0.41c-0.24,0-0.45-0.06-0.63-0.19c-0.19-0.13-0.35-0.3-0.47-0.51c-0.13-0.21-0.22-0.44-0.28-0.71
	c-0.07-0.27-0.1-0.55-0.1-0.84c0-0.28,0.02-0.58,0.08-0.89c0.05-0.31,0.13-0.63,0.21-0.93c0.09-0.31,0.19-0.6,0.31-0.89
	c0.12-0.28,0.24-0.54,0.36-0.78c-0.24-0.01-0.48-0.05-0.71-0.11c-0.24-0.06-0.44-0.15-0.63-0.27c-0.18-0.13-0.33-0.28-0.45-0.48
	c-0.12-0.19-0.18-0.43-0.19-0.7c-0.02-0.4,0.08-0.75,0.31-1.05c0.23-0.3,0.54-0.45,0.93-0.44c0.21,0,0.38,0.06,0.51,0.16
	c0.13,0.11,0.21,0.24,0.26,0.41c0.05,0.17,0.07,0.35,0.04,0.54s-0.08,0.39-0.16,0.58c0.02,0.16,0.13,0.28,0.31,0.34
	c0.18,0.06,0.36,0.03,0.52-0.09c0.17-0.1,0.33-0.14,0.5-0.14c0.18,0,0.36,0.04,0.54,0.12c0.18,0.08,0.33,0.19,0.44,0.32
	c0.11,0.13,0.18,0.28,0.21,0.44c0.03,0.17-0.01,0.34-0.13,0.51c-0.13,0.18-0.28,0.42-0.46,0.72c-0.18,0.3-0.35,0.63-0.51,0.98
	c-0.16,0.36-0.31,0.72-0.42,1.08c-0.12,0.37-0.19,0.7-0.2,0.99c0,0.2,0.02,0.35,0.07,0.45c0.05,0.09,0.19,0.06,0.42-0.11
	c0.27-0.2,0.58-0.52,0.93-0.95c0.31-0.38,0.62-0.79,0.92-1.22c0.09-0.41,0.19-0.81,0.3-1.21c0.15-0.5,0.3-0.96,0.47-1.37
	c0.17-0.41,0.32-0.72,0.45-0.92c0.16-0.2,0.38-0.3,0.63-0.3c0.18,0,0.36,0.03,0.53,0.08c0.18,0.06,0.33,0.13,0.45,0.22
	c0.12,0.1,0.2,0.22,0.24,0.36c0.03,0.15,0,0.32-0.11,0.51c-0.11,0.2-0.24,0.48-0.4,0.84c-0.16,0.36-0.31,0.75-0.47,1.18
	c-0.15,0.42-0.3,0.85-0.43,1.27c-0.13,0.43-0.21,0.8-0.25,1.14c-0.05,0.31,0,0.49,0.13,0.55c0.14,0.06,0.31-0.09,0.51-0.44
	c0.15-0.26,0.31-0.6,0.49-1.01c0.17-0.41,0.34-0.84,0.51-1.28c0.17-0.45,0.34-0.88,0.5-1.3c0.16-0.43,0.29-0.79,0.4-1.08
	c0.06-0.18,0.11-0.33,0.16-0.46c0.05-0.13,0.09-0.22,0.13-0.27c0.13-0.2,0.33-0.3,0.6-0.3c0.18,0,0.36,0.02,0.54,0.06
	s0.34,0.1,0.47,0.18c0.13,0.08,0.22,0.19,0.26,0.32c0.05,0.13,0.02,0.29-0.07,0.48c-0.11,0.19-0.24,0.44-0.38,0.77
	c-0.14,0.32-0.3,0.68-0.45,1.07c-0.15,0.38-0.29,0.77-0.4,1.17c-0.12,0.4-0.2,0.76-0.25,1.11c0,0.03,0,0.1-0.02,0.2
	c-0.01,0.1-0.01,0.2-0.01,0.31s0.01,0.2,0.04,0.28c0.03,0.08,0.08,0.13,0.15,0.14c0.12,0,0.28-0.09,0.5-0.26
	c0.22-0.18,0.46-0.47,0.75-0.87c0.28-0.4,0.59-0.92,0.92-1.55c0.12-0.45,0.25-0.92,0.39-1.39c0.18-0.58,0.36-1.13,0.53-1.65
	c0.05-0.17,0.19-0.27,0.43-0.32c0.24-0.05,0.47-0.05,0.71,0c0.24,0.05,0.43,0.13,0.6,0.26c0.16,0.13,0.2,0.27,0.12,0.45
	c-0.1,0.25-0.2,0.5-0.31,0.75c-0.11,0.25-0.21,0.49-0.29,0.73c0.08-0.14,0.19-0.3,0.32-0.48c0.13-0.18,0.27-0.36,0.42-0.53
	c0.15-0.18,0.31-0.35,0.48-0.52C170.33,124.29,170.51,124.14,170.68,124.03L170.68,124.03z M129.65,123.63
	c0.3-0.02,0.53,0.06,0.72,0.24c0.18,0.18,0.3,0.44,0.35,0.76c0.05,0.32,0.04,0.7-0.04,1.13c-0.08,0.43-0.24,0.87-0.48,1.35
	c0.19,0.04,0.39,0,0.6-0.12c0.21-0.11,0.42-0.28,0.62-0.5c0.07-0.07,0.13-0.15,0.2-0.23c0.18-0.7,0.38-1.41,0.6-2.15
	c0.25-0.83,0.5-1.6,0.74-2.33c0.25-0.72,0.48-1.36,0.7-1.91c0.22-0.55,0.41-0.94,0.56-1.16c0.09-0.15,0.26-0.23,0.5-0.23
	c0.19,0,0.39,0.04,0.59,0.11c0.21,0.07,0.39,0.16,0.54,0.27c0.15,0.11,0.26,0.25,0.32,0.4c0.06,0.15,0.03,0.31-0.07,0.48
	c-0.07,0.11-0.2,0.36-0.38,0.75c-0.18,0.39-0.39,0.86-0.63,1.41c-0.24,0.55-0.48,1.15-0.74,1.8c-0.25,0.65-0.49,1.29-0.7,1.91
	c0.11-0.15,0.24-0.33,0.41-0.54c0.16-0.21,0.35-0.4,0.57-0.58c0.21-0.19,0.44-0.33,0.68-0.45c0.24-0.12,0.49-0.16,0.74-0.13
	c0.33,0.04,0.59,0.21,0.79,0.52c0.19,0.32,0.21,0.74,0.05,1.29c-0.07,0.22-0.15,0.48-0.24,0.77c-0.09,0.29-0.17,0.55-0.24,0.77
	c-0.17,0.48-0.31,0.95-0.44,1.38c-0.13,0.44-0.19,0.79-0.19,1.06c0,0.04,0.01,0.08,0.03,0.13c0.02,0.05,0.07,0.08,0.13,0.08
	c0.09,0,0.27-0.12,0.51-0.35c0.25-0.23,0.54-0.56,0.86-1c0.1-0.14,0.21-0.29,0.31-0.44l0.01-0.08c0.08-0.48,0.19-0.95,0.32-1.42
	c0.13-0.47,0.27-0.91,0.42-1.32c0.15-0.41,0.29-0.74,0.43-0.99c0.11-0.2,0.3-0.32,0.57-0.35c0.27-0.03,0.53,0.01,0.78,0.12
	c0.25,0.11,0.44,0.26,0.59,0.47c0.14,0.21,0.14,0.44,0,0.7c-0.11,0.21-0.24,0.48-0.4,0.79c-0.16,0.31-0.32,0.65-0.47,1.01
	c-0.15,0.36-0.29,0.73-0.4,1.11s-0.19,0.73-0.22,1.04c0,0.06,0,0.13,0,0.2c0,0.08,0.01,0.15,0.03,0.23c0.02,0.08,0.05,0.14,0.08,0.2
	c0.04,0.06,0.09,0.09,0.16,0.11c0.14,0,0.31-0.09,0.51-0.26c0.2-0.17,0.41-0.4,0.63-0.69c0.22-0.29,0.44-0.62,0.67-0.99
	c0.23-0.37,0.44-0.75,0.64-1.13c0.07-0.14,0.15-0.29,0.22-0.43c0.08-0.37,0.16-0.76,0.25-1.15l-0.27-0.02
	c-0.2-0.01-0.34-0.04-0.42-0.1c-0.08-0.05-0.12-0.12-0.12-0.2c0-0.13,0.04-0.27,0.12-0.41c0.08-0.14,0.2-0.2,0.36-0.18
	c0.1,0.01,0.19,0.02,0.28,0.03c0.09,0.01,0.18,0.01,0.28,0.01c0.18-0.65,0.37-1.29,0.58-1.91c0.21-0.63,0.41-1.2,0.6-1.72
	c0.19-0.52,0.38-0.96,0.54-1.34c0.16-0.37,0.29-0.63,0.39-0.77c0.1-0.15,0.25-0.23,0.48-0.23c0.19,0,0.39,0.03,0.59,0.11
	c0.21,0.07,0.39,0.16,0.54,0.27c0.15,0.11,0.26,0.25,0.32,0.4c0.06,0.15,0.03,0.31-0.07,0.48c-0.07,0.09-0.17,0.29-0.31,0.59
	c-0.14,0.3-0.29,0.66-0.47,1.09c-0.18,0.43-0.37,0.9-0.57,1.43c-0.2,0.53-0.4,1.07-0.59,1.62h0.5c0.07,0,0.12,0.04,0.14,0.13
	c0.02,0.09,0.03,0.19,0.01,0.29c-0.02,0.11-0.06,0.21-0.12,0.3c-0.07,0.09-0.15,0.15-0.26,0.16c-0.09,0.01-0.19,0.02-0.28,0.03
	c-0.1,0.01-0.2,0.01-0.3,0.03c-0.17,0.49-0.31,0.95-0.44,1.41c-0.13,0.45-0.24,0.88-0.33,1.27c-0.09,0.39-0.15,0.73-0.19,1.03
	c-0.03,0.3-0.03,0.52,0.02,0.67c0.02,0.07,0.07,0.11,0.14,0.13c0.07,0.01,0.13,0,0.19-0.04c0.13-0.08,0.28-0.23,0.46-0.45
	c0.18-0.22,0.37-0.47,0.57-0.77c0.07-0.11,0.15-0.22,0.22-0.33c0.02-0.43,0.09-0.87,0.22-1.34c0.15-0.56,0.36-1.08,0.65-1.54
	c0.28-0.47,0.63-0.86,1.04-1.17c0.41-0.31,0.88-0.47,1.41-0.47c0.21,0,0.43,0.04,0.65,0.12c0.22,0.07,0.41,0.19,0.58,0.34
	c0.17,0.15,0.3,0.35,0.42,0.59c0.11,0.24,0.17,0.53,0.17,0.86c-0.02,0.63-0.16,1.15-0.4,1.56c-0.24,0.41-0.54,0.75-0.89,0.99
	c-0.35,0.25-0.73,0.42-1.13,0.52c-0.4,0.1-0.76,0.15-1.09,0.15c-0.02,0.15-0.02,0.31,0.03,0.47c0.04,0.16,0.11,0.3,0.19,0.43
	c0.09,0.12,0.2,0.22,0.34,0.3c0.14,0.08,0.29,0.12,0.47,0.12c0.31,0,0.66-0.14,1.05-0.43c0.39-0.28,0.79-0.67,1.2-1.16
	c0.41-0.49,0.81-1.06,1.21-1.72c0.4-0.66,0.77-1.36,1.1-2.1c0.02-0.06,0.07-0.09,0.14-0.1c0.07-0.01,0.14,0,0.21,0.03
	c0.07,0.03,0.13,0.07,0.17,0.13c0.04,0.05,0.05,0.1,0.03,0.15c-0.13,0.27-0.31,0.61-0.52,1.02c-0.22,0.41-0.47,0.84-0.74,1.29
	c-0.28,0.45-0.58,0.91-0.91,1.37c-0.33,0.45-0.68,0.87-1.05,1.24c-0.37,0.37-0.76,0.68-1.15,0.91c-0.4,0.24-0.79,0.36-1.2,0.37
	c-0.32,0-0.61-0.07-0.87-0.2c-0.26-0.13-0.49-0.32-0.68-0.57c-0.19-0.23-0.34-0.51-0.44-0.82l-0.04,0.07
	c-0.27,0.43-0.54,0.78-0.82,1.06c-0.27,0.28-0.54,0.42-0.8,0.43c-0.5,0.02-0.89-0.11-1.17-0.39c-0.28-0.28-0.46-0.69-0.51-1.22
	c-0.03-0.27-0.04-0.58-0.02-0.92c-0.23,0.42-0.48,0.81-0.74,1.16c-0.3,0.4-0.62,0.74-0.97,1c-0.34,0.26-0.69,0.39-1.05,0.39
	c-0.3,0-0.54-0.05-0.74-0.14c-0.2-0.09-0.36-0.22-0.49-0.4c-0.12-0.17-0.21-0.37-0.27-0.59c-0.03-0.14-0.06-0.28-0.07-0.44l0,0
	c-0.3,0.41-0.61,0.76-0.94,1.05c-0.33,0.28-0.65,0.45-0.97,0.5c-0.31,0.02-0.56,0-0.76-0.07c-0.2-0.07-0.36-0.18-0.49-0.34
	c-0.12-0.15-0.21-0.34-0.27-0.55c-0.05-0.21-0.08-0.44-0.08-0.69c0-0.38,0.06-0.8,0.17-1.25c0.11-0.45,0.22-0.91,0.33-1.35
	c0.07-0.32,0.09-0.54,0.04-0.67c-0.04-0.12-0.12-0.17-0.22-0.14c-0.11,0.03-0.23,0.12-0.36,0.27c-0.14,0.15-0.26,0.35-0.36,0.59
	c-0.11,0.24-0.22,0.5-0.34,0.8c-0.12,0.3-0.23,0.6-0.35,0.91c-0.11,0.31-0.21,0.62-0.3,0.91c-0.09,0.29-0.16,0.55-0.2,0.78
	c-0.05,0.22-0.15,0.43-0.3,0.6c-0.15,0.18-0.37,0.24-0.64,0.19c-0.09-0.01-0.18-0.05-0.26-0.12c-0.08-0.07-0.14-0.15-0.19-0.25
	c-0.05-0.1-0.08-0.2-0.11-0.3c-0.02-0.11-0.03-0.21-0.03-0.3c0-0.38,0.06-0.89,0.19-1.55c0.06-0.33,0.13-0.68,0.22-1.05
	c-0.18,0.15-0.36,0.29-0.55,0.41c-0.37,0.23-0.73,0.3-1.09,0.2c-0.18,0.34-0.37,0.68-0.58,1.01c-0.21,0.33-0.43,0.63-0.66,0.9
	c-0.23,0.27-0.47,0.5-0.72,0.69c-0.25,0.19-0.5,0.31-0.76,0.35c-0.2,0.04-0.39,0.02-0.57-0.04c-0.18-0.06-0.34-0.17-0.48-0.32
	c-0.14-0.15-0.27-0.32-0.37-0.53c-0.11-0.21-0.18-0.43-0.23-0.66c-0.11,0.19-0.21,0.38-0.32,0.56c-0.11,0.18-0.22,0.35-0.35,0.5
	c-0.13,0.15-0.26,0.27-0.41,0.36c-0.15,0.1-0.31,0.15-0.49,0.16c-0.31,0.02-0.57-0.02-0.78-0.13c-0.21-0.11-0.38-0.27-0.5-0.48
	c-0.12-0.21-0.21-0.45-0.26-0.73c-0.05-0.28-0.06-0.57-0.04-0.89c0.02-0.39,0.08-0.82,0.17-1.29c0.09-0.47,0.2-0.94,0.34-1.4
	c0.14-0.46,0.28-0.89,0.44-1.29c0.16-0.4,0.33-0.73,0.5-0.99c0.14-0.2,0.35-0.3,0.62-0.3c0.18,0,0.35,0.03,0.51,0.08
	c0.17,0.05,0.3,0.13,0.42,0.22c0.11,0.1,0.18,0.22,0.21,0.36c0.03,0.15-0.01,0.31-0.11,0.49c-0.11,0.2-0.25,0.49-0.42,0.86
	c-0.17,0.37-0.34,0.77-0.5,1.21c-0.16,0.43-0.31,0.86-0.42,1.3c-0.12,0.44-0.18,0.82-0.18,1.15c-0.01,0.4,0.03,0.6,0.13,0.59
	c0.1,0,0.24-0.19,0.43-0.54c0.16-0.32,0.35-0.73,0.54-1.24c0.2-0.51,0.39-1.03,0.58-1.56c0.19-0.53,0.37-1.03,0.54-1.51
	c0.17-0.47,0.32-0.83,0.45-1.08c0.14-0.19,0.35-0.28,0.64-0.28c0.18,0,0.35,0.03,0.51,0.08c0.16,0.06,0.3,0.13,0.42,0.24
	c0.11,0.11,0.19,0.23,0.22,0.37c0.03,0.14,0,0.3-0.09,0.48c-0.11,0.2-0.24,0.48-0.39,0.84c-0.15,0.36-0.3,0.75-0.43,1.17
	c-0.14,0.42-0.25,0.84-0.35,1.27c-0.1,0.43-0.16,0.8-0.17,1.13c0,0.23,0.02,0.38,0.04,0.48c0.03,0.1,0.07,0.14,0.13,0.14
	c0.06,0,0.13-0.04,0.22-0.13c0.09-0.09,0.19-0.2,0.29-0.35c0.2-0.27,0.4-0.6,0.59-0.99s0.38-0.8,0.56-1.24
	c-0.06-0.13-0.11-0.26-0.14-0.4c-0.03-0.14-0.07-0.27-0.09-0.42c-0.03-0.24-0.04-0.51-0.01-0.83c0.03-0.32,0.09-0.62,0.19-0.9
	c0.1-0.28,0.24-0.53,0.42-0.73C129.15,123.77,129.37,123.66,129.65,123.63L129.65,123.63z M141.15,123.11
	c-0.11,0.09-0.25,0.14-0.42,0.13c-0.17-0.01-0.34-0.05-0.5-0.14c-0.16-0.09-0.29-0.22-0.38-0.38c-0.09-0.17-0.11-0.36-0.05-0.58
	c0.03-0.12,0.07-0.26,0.12-0.42c0.04-0.16,0.09-0.32,0.14-0.48c0.05-0.16,0.11-0.31,0.17-0.45c0.06-0.14,0.12-0.25,0.18-0.34
	c0.07-0.07,0.14-0.13,0.21-0.16c0.07-0.04,0.16-0.06,0.27-0.07c0.18-0.01,0.37,0.02,0.57,0.09c0.2,0.07,0.38,0.17,0.54,0.29
	c0.16,0.12,0.28,0.26,0.35,0.43c0.08,0.16,0.08,0.31,0.01,0.45L141.15,123.11L141.15,123.11z M148.19,125.43
	c-0.11,0.06-0.23,0.18-0.37,0.35c-0.14,0.18-0.28,0.39-0.43,0.65c-0.14,0.25-0.27,0.53-0.39,0.83c-0.12,0.3-0.21,0.6-0.27,0.91
	c0.2-0.02,0.4-0.11,0.61-0.25c0.21-0.14,0.4-0.32,0.57-0.52c0.17-0.2,0.32-0.44,0.43-0.71c0.12-0.27,0.19-0.54,0.21-0.81
	c0.01-0.14,0-0.25-0.03-0.31c-0.03-0.07-0.07-0.11-0.11-0.14c-0.04-0.03-0.08-0.04-0.12-0.03
	C148.26,125.4,148.22,125.41,148.19,125.43L148.19,125.43z"/>
<path class="st1" d="M57.17,46.8l47.88,59.7L65.31,46.8H57.17L57.17,46.8z M242.98,46.8l-75.01,97.57l66.88-97.57H242.98
	L242.98,46.8z"/>
<path class="st0" d="M42.15,44.4c34.12,42.26,68.24,84.52,102.36,126.77l-0.16,72.35c-3.39-0.09-4.21,18.24,0.67,18.25
	c1.49,17.36-48.03,27.78-53.51,29.9c-4.71,1.82-6.55,3.99-5.99,7.33h129.1c0.56-3.35-1.28-5.51-5.99-7.33
	c-5.48-2.12-55-12.54-53.51-29.9c4.89-0.01,4.06-18.34,0.67-18.25l-0.16-72.35C189.76,128.92,223.88,86.66,258,44.4
	C186.05,44.4,114.1,44.4,42.15,44.4L42.15,44.4z M89.5,296.94c-0.18-1.8,2.14-3.03,7-4.36c7.04-1.92,53.55-12.05,51.6-32.22
	c-4.89-0.01-3.74-15.67-0.35-15.58l-0.19-66.65c0-2.29,1.23-3.41,2.52-3.48c1.29,0.07,2.52,1.19,2.52,3.48l-0.2,66.65
	c3.39-0.09,4.53,15.57-0.35,15.58c-1.96,20.18,44.57,30.3,51.6,32.22c4.86,1.33,7.18,2.56,7,4.36
	C170.23,296.9,129.92,296.9,89.5,296.94L89.5,296.94z M150.08,169.42c-1.41-0.05-2.83-0.64-3.87-1.88L50.48,48.18
	c70.66,0,128.54,0,199.2,0l-95.73,119.36C152.91,168.78,151.48,169.37,150.08,169.42L150.08,169.42z"/>
</svg>
