<?xml version="1.0" encoding="utf-8"?>
<!-- Generator: Adobe Illustrator 23.0.1, SVG Export Plug-In . SVG Version: 6.00 Build 0)  -->
<svg version="1.1" id="Long_Island" xmlns="http://www.w3.org/2000/svg" xmlns:xlink="http://www.w3.org/1999/xlink" x="0px"
	 y="0px" viewBox="0 0 300 300" style="enable-background:new 0 0 300 300;" xml:space="preserve">
<style type="text/css">
	.st0{fill-rule:evenodd;clip-rule:evenodd;fill:#4E4236;}
	.st1{fill:#4E4236;}
	.st2{fill-rule:evenodd;clip-rule:evenodd;fill:#FEE000;}
	.st3{fill-rule:evenodd;clip-rule:evenodd;fill:#FFFFFF;}
	.st4{fill-rule:evenodd;clip-rule:evenodd;fill:#EEEABD;}
	.st5{fill-rule:evenodd;clip-rule:evenodd;fill:#DF9226;}
	.st6{fill-rule:evenodd;clip-rule:evenodd;fill:#F3EBB8;}
	.st7{fill-rule:evenodd;clip-rule:evenodd;fill:#FFC50F;}
	.st8{fill-rule:evenodd;clip-rule:evenodd;fill:#61180F;}
	.st9{fill-rule:evenodd;clip-rule:evenodd;fill:#DBBE26;}
	.st10{fill-rule:evenodd;clip-rule:evenodd;fill:#DCDCDC;}
	.st11{fill-rule:evenodd;clip-rule:evenodd;fill:#CBC79B;}
	.st12{fill-rule:evenodd;clip-rule:evenodd;fill:#BC7029;}
	.st13{fill-rule:evenodd;clip-rule:evenodd;fill:#D0C996;}
	.st14{fill-rule:evenodd;clip-rule:evenodd;fill:#DBA227;}
	.st15{fill-rule:evenodd;clip-rule:evenodd;fill:#381313;}
	.st16{fill:#FFFFFF;}
</style>
<path class="st0" d="M199.86,51c-14.33,0-82.6,0-96.93,0v225.24c0,0.84,0.7,1.54,1.54,1.54c13.31,0,80.55,0,93.85,0
	c0.84,0,1.54-0.7,1.54-1.54V51L199.86,51z M102.93,280.89v13.21c0,0.84,0.7,1.54,1.54,1.54c13.31,0,80.55,0,93.85,0
	c0.84,0,1.54-0.7,1.54-1.54v-13.21c-0.48,0.16-1,0.25-1.54,0.25c-14.32,0-79.53,0-93.85,0
	C103.94,281.14,103.42,281.05,102.93,280.89L102.93,280.89z M104.47,299c-2.69,0-4.9-2.21-4.9-4.9v-17.86V47.64
	c16.57,0,87.08,0,103.66,0v228.6v17.86c0,2.69-2.21,4.9-4.91,4.9C184,299,118.79,299,104.47,299L104.47,299z"/>
<path class="st1" d="M130.47,14.92c0.36-0.25,0.72-0.43,1.09-0.54c0.37-0.11,0.72-0.17,1.06-0.17c0.52,0,1.02,0.12,1.51,0.37
	c0.5,0.25,0.84,0.64,1.04,1.18c0.04-0.13,0.11-0.27,0.2-0.4c0.09-0.14,0.16-0.26,0.2-0.37c0.13-0.2,0.41-0.29,0.81-0.25
	c0.4,0.03,0.8,0.15,1.19,0.35c0.39,0.2,0.72,0.46,0.97,0.77c0.26,0.31,0.31,0.65,0.15,1.01c-0.34,0.67-0.7,1.48-1.09,2.42
	c-0.39,0.94-0.79,1.92-1.18,2.94c-0.39,1.02-0.76,2.02-1.11,2.99c-0.34,0.97-0.63,1.83-0.85,2.57c0.74-0.45,1.45-1.09,2.15-1.93
	c0.7-0.84,1.36-1.79,2-2.84c0.64-1.05,1.23-2.17,1.77-3.34c0.53-1.18,1.03-2.34,1.48-3.48c0.04-0.09,0.14-0.14,0.29-0.15
	c0.14-0.01,0.29,0,0.42,0.05c0.13,0.05,0.25,0.11,0.33,0.2c0.09,0.09,0.11,0.18,0.07,0.27c-0.24,0.67-0.53,1.43-0.87,2.27
	c-0.33,0.84-0.72,1.7-1.16,2.59c-0.44,0.89-0.92,1.76-1.43,2.64c-0.51,0.87-1.06,1.69-1.64,2.44c-0.58,0.75-1.2,1.41-1.85,1.97
	c-0.65,0.56-1.32,0.96-2.02,1.21c-0.16,0.47-0.37,1.05-0.64,1.75c-0.27,0.7-0.62,1.36-1.04,2c-0.42,0.64-0.92,1.18-1.49,1.61
	c-0.57,0.44-1.24,0.63-2,0.59c-0.54-0.02-0.99-0.18-1.36-0.47c-0.37-0.29-0.64-0.65-0.81-1.09c-0.17-0.44-0.24-0.91-0.22-1.43
	c0.02-0.51,0.16-1,0.41-1.44c0.41-0.76,1.03-1.36,1.88-1.78c0.85-0.42,1.73-0.75,2.62-0.98l0.41-1.38
	c-0.21,0.38-0.51,0.68-0.91,0.91c-0.4,0.22-0.77,0.34-1.11,0.34c-0.94-0.05-1.69-0.43-2.25-1.14c-0.33-0.42-0.57-0.93-0.7-1.51
	c-0.5,0.67-1,1.24-1.52,1.71c-0.58,0.54-1.17,0.85-1.75,0.94c-0.54,0.04-0.99,0-1.36-0.13c-0.37-0.14-0.67-0.35-0.89-0.64
	c-0.22-0.29-0.39-0.64-0.49-1.04c-0.1-0.4-0.15-0.84-0.15-1.31c0-0.72,0.1-1.51,0.32-2.37c0.21-0.86,0.41-1.72,0.59-2.57
	c0.13-0.61,0.16-1.03,0.09-1.26c-0.08-0.24-0.22-0.33-0.42-0.27c-0.21,0.05-0.43,0.23-0.69,0.52c-0.26,0.29-0.49,0.66-0.69,1.11
	c-0.2,0.45-0.43,0.96-0.67,1.53c-0.25,0.57-0.48,1.16-0.69,1.75c-0.21,0.59-0.41,1.17-0.61,1.73c-0.19,0.56-0.33,1.05-0.42,1.48
	c-0.09,0.4-0.28,0.77-0.57,1.11c-0.29,0.34-0.72,0.46-1.28,0.37c-0.4-0.05-0.7-0.27-0.89-0.69c-0.19-0.41-0.29-0.79-0.29-1.13
	c0-0.63,0.09-1.41,0.25-2.34c0.11-0.6,0.24-1.22,0.39-1.87c-0.05,0.03-0.1,0.06-0.15,0.09c-0.64,0.37-1.26,0.53-1.87,0.49
	c-0.45,1.68-1.13,3.06-2.03,4.14c-0.91,1.08-2,1.61-3.28,1.61c-0.49,0-1.02-0.12-1.58-0.37c-0.74-0.38-1.28-0.99-1.63-1.82
	c-0.35-0.83-0.52-1.77-0.52-2.82c0-1.03,0.15-2.1,0.45-3.21c0.3-1.11,0.72-2.13,1.26-3.06c0.54-0.93,1.16-1.69,1.87-2.29
	c0.71-0.59,1.46-0.89,2.27-0.89c0.13,0,0.31,0.01,0.52,0.03c0.21,0.02,0.43,0.1,0.65,0.22c0.22,0.12,0.45,0.3,0.67,0.54
	c0.22,0.24,0.41,0.56,0.54,0.96c0.51,0.22,0.92,0.73,1.21,1.51c0.29,0.78,0.31,1.92,0.07,3.39c0.18,0.02,0.44-0.02,0.79-0.13
	c0.35-0.11,0.72-0.33,1.14-0.66c0.08-0.06,0.16-0.13,0.24-0.21c0.17-0.62,0.35-1.24,0.54-1.87c0.34-1.11,0.67-2.16,1.01-3.14
	c0.09-0.25,0.34-0.4,0.77-0.47c0.42-0.07,0.86-0.06,1.29,0.03c0.44,0.09,0.81,0.25,1.11,0.47c0.3,0.22,0.38,0.51,0.22,0.84
	c-0.18,0.47-0.38,0.94-0.61,1.41c-0.22,0.47-0.42,0.92-0.57,1.34c0.16-0.25,0.36-0.53,0.62-0.86c0.26-0.32,0.53-0.66,0.84-0.99
	c0.3-0.34,0.62-0.66,0.94-0.98c0.32-0.31,0.66-0.58,0.99-0.81c0.42-0.27,0.85-0.38,1.28-0.34c0.42,0.05,0.79,0.21,1.09,0.49
	c0.31,0.28,0.52,0.67,0.66,1.18c0.13,0.51,0.12,1.09-0.03,1.76c-0.09,0.41-0.25,0.95-0.47,1.63c-0.22,0.68-0.45,1.39-0.67,2.14
	c-0.22,0.74-0.42,1.46-0.61,2.15c-0.18,0.7-0.27,1.24-0.27,1.65c0,0.07,0.01,0.15,0.05,0.25c0.03,0.1,0.11,0.15,0.22,0.15
	c0.18,0,0.49-0.2,0.93-0.6c0.44-0.41,0.94-1.01,1.53-1.82c0.06-0.09,0.13-0.18,0.2-0.28c0.06-0.41,0.15-0.86,0.27-1.34
	c0.25-0.96,0.56-1.9,0.93-2.82c0.37-0.92,0.79-1.75,1.24-2.49C129.63,15.76,130.06,15.23,130.47,14.92L130.47,14.92z M198.74,14.79
	c0.43-0.27,0.85-0.38,1.28-0.34c0.43,0.05,0.79,0.21,1.09,0.49c0.31,0.28,0.52,0.67,0.66,1.18c0.13,0.51,0.12,1.09-0.03,1.76
	c-0.09,0.41-0.25,0.95-0.47,1.63c-0.22,0.68-0.45,1.39-0.67,2.14c-0.22,0.74-0.42,1.46-0.61,2.15c-0.18,0.7-0.27,1.24-0.27,1.65
	c0,0.07,0.01,0.15,0.05,0.25c0.03,0.1,0.11,0.15,0.22,0.15c0.18,0,0.49-0.2,0.93-0.6c0.44-0.41,0.95-1.01,1.53-1.82
	c0.21-0.28,0.41-0.59,0.63-0.92c0.04-0.25,0.09-0.5,0.14-0.76c0.2-0.94,0.47-1.85,0.79-2.72c0.32-0.87,0.69-1.66,1.11-2.37
	c0.42-0.71,0.84-1.23,1.26-1.56c0.36-0.27,0.72-0.46,1.09-0.59c0.37-0.12,0.73-0.18,1.09-0.18c0.54,0,1.02,0.12,1.44,0.35
	c0.43,0.23,0.75,0.61,0.98,1.13c0.36-1.28,0.74-2.54,1.16-3.78c0.41-1.24,0.81-2.37,1.18-3.38c0.37-1.01,0.71-1.87,1.01-2.57
	c0.31-0.71,0.53-1.17,0.69-1.39c0.11-0.16,0.25-0.27,0.42-0.34c0.17-0.07,0.33-0.1,0.49-0.1c0.34,0,0.71,0.06,1.13,0.17
	c0.41,0.11,0.78,0.27,1.09,0.47c0.31,0.2,0.54,0.44,0.68,0.72c0.13,0.28,0.1,0.58-0.1,0.89c-0.22,0.36-0.55,1.02-0.99,1.97
	c-0.43,0.95-0.91,2.05-1.43,3.29c-0.51,1.24-1.04,2.57-1.58,3.98c-0.53,1.41-1.02,2.76-1.44,4.05c-0.42,1.29-0.77,2.44-1.04,3.46
	c-0.27,1.02-0.38,1.77-0.34,2.24c0.05,0.29,0.15,0.39,0.3,0.3c0.3-0.13,0.63-0.41,1.01-0.84c0.38-0.43,0.79-0.94,1.21-1.53
	c0.42-0.59,0.85-1.24,1.28-1.93c0.42-0.69,0.83-1.37,1.21-2.03c0.38-0.66,0.72-1.28,1.03-1.85c0.3-0.57,0.53-1.03,0.69-1.39
	c0.05-0.11,0.14-0.17,0.29-0.17c0.15,0,0.29,0.03,0.44,0.08c0.14,0.06,0.26,0.13,0.35,0.24c0.09,0.1,0.12,0.21,0.1,0.32
	c-0.13,0.2-0.35,0.63-0.66,1.29c-0.3,0.66-0.66,1.42-1.09,2.29c-0.42,0.86-0.9,1.76-1.41,2.71c-0.51,0.94-1.04,1.81-1.6,2.6
	c-0.55,0.8-1.11,1.45-1.68,1.97c-0.57,0.52-1.13,0.77-1.66,0.77c-0.56,0-1.06-0.2-1.5-0.61c-0.44-0.4-0.73-0.94-0.89-1.61
	c-0.13,0.25-0.3,0.5-0.51,0.76c-0.2,0.26-0.42,0.49-0.67,0.71c-0.24,0.21-0.52,0.39-0.82,0.54c-0.31,0.15-0.63,0.23-0.99,0.25
	c-0.96,0-1.77-0.33-2.42-0.99c-0.5-0.51-0.8-1.2-0.92-2.09l-0.09,0.12c-0.56,0.78-1.13,1.44-1.72,1.98
	c-0.58,0.54-1.16,0.85-1.75,0.94c-0.53,0.04-0.99,0-1.36-0.13c-0.37-0.14-0.67-0.35-0.89-0.64c-0.22-0.29-0.39-0.64-0.49-1.04
	c-0.1-0.4-0.15-0.84-0.15-1.31c0-0.72,0.1-1.51,0.32-2.37c0.21-0.86,0.41-1.72,0.59-2.57c0.14-0.61,0.16-1.03,0.09-1.26
	c-0.08-0.24-0.22-0.33-0.42-0.27c-0.2,0.05-0.43,0.23-0.69,0.52c-0.26,0.29-0.49,0.66-0.69,1.11c-0.21,0.45-0.43,0.96-0.67,1.53
	c-0.25,0.57-0.48,1.16-0.69,1.75c-0.21,0.59-0.41,1.17-0.61,1.73c-0.19,0.56-0.33,1.05-0.42,1.48c-0.09,0.4-0.28,0.77-0.57,1.11
	s-0.72,0.46-1.28,0.37c-0.4-0.05-0.7-0.27-0.89-0.69c-0.19-0.41-0.29-0.79-0.29-1.13c0-0.29,0.02-0.62,0.05-0.98l-0.04,0.06
	c-0.52,0.8-1.06,1.45-1.61,1.97c-0.55,0.52-1.09,0.77-1.63,0.77c-0.58,0-1.09-0.2-1.53-0.61c-0.44-0.4-0.72-0.94-0.86-1.61
	c-0.13,0.25-0.3,0.5-0.51,0.76c-0.2,0.26-0.42,0.49-0.67,0.71c-0.24,0.21-0.52,0.39-0.82,0.54c-0.31,0.15-0.63,0.23-0.99,0.25
	c-0.96,0-1.77-0.33-2.42-0.99c-0.39-0.4-0.67-0.92-0.82-1.56c-0.47,0.7-0.96,1.28-1.46,1.76c-0.56,0.52-1.13,0.79-1.72,0.79
	c-0.41,0-0.79-0.06-1.16-0.17c-0.37-0.11-0.7-0.3-0.98-0.56c-0.28-0.26-0.51-0.61-0.69-1.04c-0.18-0.44-0.28-0.98-0.31-1.63
	c0-0.26,0-0.54,0.01-0.83c-0.55,0.71-1.17,1.38-1.84,2.02c-1.06,1.02-2.31,1.77-3.75,2.24c-0.47,0.2-1.01,0.34-1.61,0.4
	c-0.56,0.05-1.04,0.03-1.43-0.03c-0.39-0.07-0.72-0.18-0.98-0.34c-0.26-0.16-0.45-0.35-0.57-0.57c-0.12-0.22-0.18-0.46-0.18-0.71
	c-0.02-0.36,0.07-0.67,0.27-0.93c0.2-0.26,0.43-0.43,0.69-0.52c0.26-0.09,0.5-0.08,0.74,0.03c0.23,0.11,0.39,0.37,0.45,0.77
	c0.04,0.25,0.19,0.37,0.44,0.37c0.36,0,0.6-0.14,0.74-0.42c0.13-0.28,0.19-0.64,0.17-1.08c-0.02-0.44-0.1-0.91-0.22-1.43
	c-0.12-0.51-0.26-1.02-0.42-1.51c-0.16-0.49-0.3-0.94-0.44-1.34c-0.13-0.4-0.22-0.69-0.27-0.87c-0.38-1.3-0.42-2.39-0.13-3.28
	c0.29-0.88,0.75-1.57,1.38-2.05c0.63-0.48,1.34-0.77,2.15-0.86c0.81-0.09,1.54,0.01,2.18,0.3c0.47,0.2,0.85,0.5,1.13,0.89
	c0.28,0.39,0.47,0.82,0.57,1.28c0.1,0.46,0.11,0.93,0.04,1.39c-0.08,0.47-0.23,0.89-0.46,1.24c-0.13,0.22-0.32,0.37-0.57,0.44
	c-0.24,0.07-0.51,0.1-0.79,0.09c-0.28-0.01-0.55-0.06-0.81-0.15c-0.26-0.09-0.46-0.18-0.59-0.27c-0.16-0.11-0.23-0.25-0.23-0.42
	c0-0.17,0.04-0.33,0.13-0.49c0.25-0.4,0.26-0.72,0.03-0.94c-0.18-0.18-0.42-0.21-0.71-0.08c-0.29,0.12-0.46,0.41-0.51,0.86
	c0,0.54,0.1,1.11,0.31,1.71c0.2,0.61,0.43,1.22,0.71,1.83c0.27,0.62,0.52,1.21,0.77,1.78c0.25,0.57,0.41,1.09,0.47,1.56v0.47
	c0.96-0.78,1.99-1.92,3.09-3.41c0.11-0.15,0.21-0.3,0.32-0.45c0.2-1.23,0.46-2.52,0.79-3.89c0.33-1.4,0.72-2.81,1.14-4.24
	c0.42-1.42,0.85-2.74,1.28-3.95c0.42-1.21,0.82-2.26,1.17-3.14c0.36-0.88,0.65-1.49,0.88-1.83c0.18-0.29,0.49-0.44,0.94-0.44
	c0.36,0,0.73,0.07,1.13,0.2c0.4,0.13,0.73,0.31,1.03,0.52c0.29,0.21,0.5,0.47,0.61,0.76c0.11,0.29,0.07,0.59-0.13,0.91
	c-0.18,0.25-0.47,0.82-0.86,1.73c-0.39,0.91-0.83,2-1.33,3.26c-0.5,1.27-1,2.62-1.52,4.07c-0.51,1.44-0.97,2.83-1.36,4.17
	c-0.39,1.33-0.69,2.53-0.89,3.58c-0.2,1.05-0.23,1.8-0.1,2.25c0.04,0.13,0.13,0.21,0.25,0.23c0.12,0.02,0.24,0,0.35-0.07
	c0.36-0.22,0.78-0.64,1.28-1.24c0.43-0.53,0.88-1.17,1.35-1.9c0.04-0.29,0.1-0.59,0.16-0.89c0.2-0.94,0.47-1.85,0.79-2.72
	c0.32-0.87,0.69-1.66,1.09-2.37c0.41-0.71,0.82-1.23,1.24-1.56c0.36-0.27,0.73-0.46,1.11-0.59c0.38-0.12,0.75-0.18,1.11-0.18
	c0.54,0,1.02,0.12,1.44,0.35c0.43,0.23,0.74,0.61,0.94,1.13c0.07-0.16,0.11-0.27,0.15-0.34c0.03-0.07,0.11-0.19,0.22-0.37
	c0.16-0.29,0.45-0.43,0.89-0.42c0.44,0.01,0.86,0.1,1.28,0.29c0.41,0.18,0.77,0.41,1.06,0.69c0.29,0.28,0.37,0.55,0.23,0.82
	c-0.42,0.94-0.82,1.88-1.19,2.81c-0.37,0.93-0.7,1.8-0.97,2.6c-0.28,0.81-0.49,1.53-0.62,2.15c-0.13,0.63-0.18,1.11-0.13,1.44
	c0.04,0.18,0.12,0.27,0.22,0.29c0.1,0.01,0.21-0.02,0.33-0.1c0.12-0.08,0.24-0.18,0.35-0.3c0.11-0.12,0.21-0.22,0.27-0.29
	c0.45-0.49,0.93-1.15,1.44-1.97c0.51-0.82,1.02-1.66,1.5-2.54l0.01-0.02c0.23-0.86,0.48-1.73,0.74-2.62
	c0.34-1.11,0.67-2.16,1.01-3.14c0.09-0.25,0.35-0.4,0.77-0.47c0.42-0.07,0.86-0.06,1.3,0.03c0.43,0.09,0.81,0.25,1.11,0.47
	c0.31,0.22,0.38,0.51,0.22,0.84c-0.18,0.47-0.38,0.94-0.61,1.41c-0.22,0.47-0.41,0.92-0.57,1.34c0.16-0.25,0.37-0.53,0.62-0.86
	c0.26-0.32,0.53-0.66,0.84-0.99c0.3-0.34,0.61-0.66,0.94-0.98C198.07,15.28,198.41,15.01,198.74,14.79L198.74,14.79z M209.87,18.18
	c0-0.07,0-0.17-0.01-0.32c-0.01-0.15-0.03-0.28-0.07-0.42c-0.03-0.13-0.08-0.26-0.13-0.37c-0.05-0.11-0.13-0.17-0.22-0.17
	c-0.27,0-0.56,0.21-0.89,0.62c-0.33,0.41-0.64,0.94-0.94,1.56c-0.3,0.63-0.59,1.32-0.86,2.08c-0.27,0.76-0.48,1.48-0.64,2.15
	c-0.04,0.2-0.1,0.48-0.17,0.84c-0.07,0.36-0.1,0.71-0.11,1.06c-0.01,0.35,0.01,0.65,0.08,0.91c0.07,0.26,0.21,0.39,0.44,0.39
	c0.29,0,0.58-0.16,0.87-0.49c0.29-0.32,0.57-0.75,0.82-1.26c0.26-0.51,0.5-1.09,0.72-1.71c0.22-0.63,0.42-1.25,0.59-1.87
	c0.17-0.61,0.3-1.19,0.39-1.73C209.83,18.92,209.87,18.5,209.87,18.18L209.87,18.18z M152.15,26.42c0.47-0.07,0.97-0.48,1.5-1.23
	c0.52-0.75,1.05-1.69,1.58-2.82c0.53-1.13,1.04-2.37,1.53-3.73c0.5-1.36,0.93-2.67,1.31-3.95c0.38-1.28,0.7-2.44,0.96-3.5
	c0.26-1.05,0.42-1.84,0.49-2.35c0.13-1.21,0.03-2.02-0.32-2.42c-0.35-0.4-0.83-0.56-1.46-0.47c-0.65,0.09-1.37,0.42-2.17,0.99
	c-0.8,0.57-1.54,1.25-2.26,2.04c-0.71,0.78-1.3,1.61-1.78,2.47c-0.48,0.86-0.71,1.64-0.69,2.34c0.02,0.45-0.06,0.77-0.25,0.96
	c-0.19,0.19-0.51,0.23-0.96,0.12c-0.29-0.09-0.6-0.23-0.92-0.44c-0.33-0.2-0.61-0.46-0.84-0.79c-0.23-0.33-0.4-0.71-0.49-1.16
	c-0.09-0.45-0.04-0.96,0.13-1.55c0.34-1.08,0.96-2.06,1.88-2.96c0.92-0.9,1.97-1.65,3.16-2.27c1.19-0.62,2.42-1.09,3.7-1.41
	c1.28-0.32,2.43-0.46,3.47-0.42c0.22,0,0.58,0.05,1.07,0.15c0.5,0.1,0.98,0.33,1.44,0.69c0.47,0.36,0.86,0.88,1.16,1.58
	c0.3,0.69,0.36,1.65,0.18,2.86c-0.07,0.54-0.21,1.34-0.45,2.4c-0.23,1.07-0.55,2.25-0.96,3.56c-0.4,1.31-0.88,2.67-1.44,4.08
	c-0.56,1.41-1.2,2.73-1.92,3.97c-0.72,1.24-1.52,2.31-2.4,3.23c-0.89,0.92-1.84,1.52-2.88,1.81c-0.45,0.14-0.97,0.2-1.58,0.19
	s-1.1-0.21-1.48-0.59c-0.5-0.47-0.75-0.93-0.77-1.38c-0.02-0.45,0.05-0.81,0.21-1.08c0.17-0.27,0.37-0.41,0.59-0.44
	c0.22-0.02,0.33,0.16,0.33,0.54c0,0.31,0.13,0.57,0.39,0.76C151.48,26.39,151.79,26.46,152.15,26.42L152.15,26.42z M185.33,18.18
	c0-0.07,0-0.17-0.01-0.32c-0.01-0.15-0.03-0.28-0.07-0.42c-0.04-0.13-0.08-0.26-0.14-0.37c-0.05-0.11-0.13-0.17-0.21-0.17
	c-0.27,0-0.57,0.21-0.89,0.62c-0.32,0.41-0.64,0.94-0.94,1.56c-0.3,0.63-0.59,1.32-0.86,2.08c-0.27,0.76-0.48,1.48-0.64,2.15
	c-0.04,0.2-0.1,0.48-0.17,0.84c-0.07,0.36-0.1,0.71-0.11,1.06c-0.01,0.35,0.01,0.65,0.08,0.91c0.07,0.26,0.21,0.39,0.44,0.39
	c0.29,0,0.58-0.16,0.87-0.49c0.29-0.32,0.57-0.75,0.82-1.26c0.26-0.51,0.5-1.09,0.72-1.71c0.22-0.63,0.42-1.25,0.59-1.87
	c0.17-0.61,0.3-1.19,0.39-1.73C185.28,18.92,185.33,18.5,185.33,18.18L185.33,18.18z M83.03,27.6c0.07-0.72,0.33-1.33,0.79-1.83
	c0.46-0.5,1.05-0.87,1.78-1.11c0.72-0.24,1.57-0.33,2.54-0.29s1.98,0.26,3.06,0.64c0.47-0.58,0.91-1.22,1.31-1.9
	c0.41-0.68,0.81-1.44,1.21-2.27c0.41-0.83,0.82-1.74,1.23-2.72c0.42-0.99,0.85-2.08,1.33-3.29c-0.61-0.2-1.29-0.54-2.06-1.03
	c-0.77-0.48-1.52-1.05-2.22-1.71c-0.71-0.66-1.3-1.38-1.78-2.15c-0.49-0.77-0.73-1.56-0.76-2.37C89.43,7,89.51,6.52,89.7,6.13
	c0.19-0.39,0.44-0.72,0.74-0.99c0.3-0.27,0.63-0.48,0.99-0.62c0.36-0.15,0.7-0.26,1.01-0.35c0.61-0.16,1.01-0.08,1.2,0.22
	c0.19,0.3,0.23,0.66,0.11,1.06c-0.11,0.38-0.08,0.86,0.1,1.44c0.18,0.58,0.43,1.19,0.77,1.82c0.33,0.63,0.74,1.22,1.21,1.76
	c0.47,0.55,0.96,0.96,1.48,1.23c0.18-0.41,0.36-0.89,0.55-1.44c0.19-0.56,0.41-1.14,0.64-1.75c0.23-0.61,0.5-1.2,0.79-1.8
	c0.29-0.59,0.61-1.13,0.94-1.61c0.34-0.48,0.71-0.87,1.11-1.16c0.4-0.29,0.85-0.44,1.34-0.44c0.67,0,1.25,0.15,1.73,0.44
	c0.48,0.29,0.88,0.69,1.19,1.19c0.31,0.51,0.54,1.09,0.67,1.75c0.13,0.66,0.18,1.35,0.13,2.07c-0.09,1.1-0.32,2.07-0.71,2.91
	c-0.38,0.84-0.88,1.55-1.49,2.12c-0.62,0.57-1.33,0.99-2.14,1.24c-0.81,0.26-1.68,0.35-2.62,0.29c-0.27,0.78-0.61,1.7-1.04,2.76
	c-0.42,1.05-0.87,2.11-1.34,3.16c-0.47,1.05-0.94,2.03-1.43,2.94c-0.48,0.91-0.92,1.61-1.3,2.1c2.26,0.97,4.26,1.7,5.98,2.22
	c1.73,0.51,3.15,0.75,4.27,0.71c0.24-0.02,0.46-0.06,0.64-0.1c0.18-0.05,0.33-0.06,0.45-0.05c0.12,0.01,0.21,0.07,0.25,0.18
	c0.04,0.11,0.05,0.33,0.03,0.64c-0.02,0.36-0.08,0.75-0.17,1.16c-0.09,0.41-0.22,0.8-0.41,1.16c-0.18,0.36-0.41,0.67-0.71,0.94
	c-0.29,0.27-0.65,0.44-1.08,0.5c-0.49,0.09-1.07,0.04-1.73-0.15c-0.66-0.19-1.34-0.46-2.05-0.82c-0.71-0.36-1.42-0.77-2.14-1.23
	c-0.72-0.46-1.39-0.91-2.02-1.34c-0.62-0.44-1.19-0.84-1.68-1.19c-0.5-0.36-0.88-0.63-1.14-0.81c-1.21,1.28-2.38,2.15-3.51,2.62
	c-1.13,0.47-2.27,0.62-3.41,0.44c-0.94-0.16-1.69-0.55-2.26-1.18C83.14,29.52,82.92,28.67,83.03,27.6L83.03,27.6z M100.51,12.6
	c0.54,0.11,1.04,0.04,1.5-0.22c0.46-0.26,0.86-0.62,1.2-1.09c0.33-0.47,0.6-1.01,0.81-1.63c0.2-0.62,0.3-1.25,0.3-1.9
	c0-0.27-0.02-0.54-0.07-0.81c-0.04-0.27-0.1-0.49-0.19-0.66c-0.08-0.17-0.18-0.28-0.3-0.35c-0.12-0.07-0.25-0.03-0.39,0.1
	c-0.25,0.22-0.5,0.57-0.74,1.04c-0.25,0.47-0.49,1.01-0.72,1.61c-0.23,0.61-0.47,1.24-0.71,1.92
	C100.96,11.29,100.74,11.95,100.51,12.6L100.51,12.6z M89.65,26.65c-0.33-0.14-0.7-0.22-1.09-0.25c-0.39-0.03-0.76-0.02-1.11,0.03
	c-0.34,0.06-0.66,0.15-0.95,0.27c-0.3,0.12-0.52,0.27-0.68,0.45c-0.2,0.22-0.3,0.44-0.3,0.64c0,0.2,0.06,0.38,0.19,0.52
	c0.12,0.15,0.3,0.24,0.54,0.29c0.23,0.05,0.49,0.02,0.75-0.07c0.45-0.15,0.92-0.41,1.4-0.76C88.87,27.43,89.29,27.06,89.65,26.65
	L89.65,26.65z M107.54,26.96c0.31,0,0.61-0.17,0.91-0.51c0.3-0.34,0.56-0.76,0.81-1.26c0.24-0.5,0.45-1.04,0.61-1.61
	c0.15-0.57,0.26-1.09,0.3-1.56c-0.2-0.14-0.38-0.34-0.52-0.61c-0.15-0.27-0.26-0.57-0.34-0.89c-0.08-0.32-0.12-0.66-0.13-0.99
	c-0.01-0.34,0.04-0.63,0.15-0.87c-0.31,0.11-0.63,0.39-0.94,0.84c-0.31,0.45-0.6,0.98-0.85,1.6c-0.26,0.62-0.48,1.27-0.66,1.97
	c-0.18,0.7-0.29,1.33-0.32,1.9c-0.03,0.57,0.02,1.05,0.17,1.43C106.86,26.77,107.13,26.96,107.54,26.96L107.54,26.96z M133.99,17.68
	c0-0.07,0-0.16-0.02-0.29c-0.01-0.12-0.03-0.25-0.07-0.37c-0.03-0.12-0.08-0.24-0.13-0.34c-0.06-0.1-0.13-0.15-0.22-0.15
	c-0.24,0-0.52,0.19-0.84,0.57c-0.31,0.38-0.63,0.87-0.94,1.48c-0.31,0.61-0.62,1.27-0.93,2c-0.31,0.73-0.57,1.44-0.79,2.13
	c-0.09,0.27-0.19,0.63-0.29,1.09c-0.1,0.46-0.17,0.9-0.22,1.31c-0.04,0.41-0.04,0.76,0.02,1.04c0.06,0.28,0.21,0.39,0.45,0.32
	c0.38-0.09,0.74-0.34,1.09-0.74c0.35-0.4,0.67-0.88,0.96-1.44c0.29-0.56,0.55-1.17,0.79-1.83c0.23-0.66,0.43-1.3,0.61-1.92
	c0.17-0.61,0.3-1.18,0.39-1.7C133.95,18.34,133.99,17.95,133.99,17.68L133.99,17.68z M130.67,30.69c-0.51,0.18-0.93,0.41-1.23,0.69
	c-0.31,0.28-0.52,0.56-0.66,0.82c-0.13,0.27-0.2,0.51-0.19,0.71c0.01,0.2,0.09,0.3,0.22,0.3c0.27,0,0.5-0.08,0.69-0.23
	c0.19-0.16,0.36-0.36,0.5-0.61c0.15-0.25,0.28-0.51,0.39-0.81C130.51,31.27,130.6,30.98,130.67,30.69L130.67,30.69z"/>
<polygon class="st2" points="102.93,73.41 103.64,73.41 104.43,73.41 105.29,73.41 106.22,73.41 107.23,73.41 108.29,73.41 
	109.43,73.41 110.62,73.41 111.88,73.41 113.19,73.41 114.55,73.41 115.97,73.41 117.44,73.41 118.95,73.41 120.51,73.41 
	122.11,73.41 123.75,73.41 125.42,73.41 127.13,73.41 128.88,73.41 130.65,73.41 132.45,73.41 134.27,73.41 136.12,73.41 
	137.98,73.41 139.87,73.41 141.77,73.41 143.68,73.41 145.6,73.41 147.53,73.41 149.46,73.41 151.4,73.41 153.33,73.41 
	155.26,73.41 157.2,73.41 159.11,73.41 161.02,73.41 162.92,73.41 164.81,73.41 166.67,73.41 168.52,73.41 170.35,73.41 
	172.14,73.41 173.92,73.41 175.66,73.41 177.37,73.41 179.05,73.41 180.69,73.41 182.29,73.41 183.84,73.41 185.36,73.41 
	186.82,73.41 188.24,73.41 189.6,73.41 190.92,73.41 192.17,73.41 193.37,73.41 194.5,73.41 195.57,73.41 196.57,73.41 
	197.51,73.41 198.36,73.41 199.15,73.41 199.86,73.41 199.86,94.5 102.93,94.5 102.93,73.41 "/>
<polygon class="st3" points="102.93,94.5 199.86,94.5 199.86,115.6 102.93,115.6 102.93,94.5 "/>
<polygon class="st4" points="102.93,115.6 199.86,115.6 199.86,136.7 102.93,136.7 102.93,115.6 "/>
<polygon class="st5" points="102.93,136.7 199.86,136.7 199.86,157.79 102.93,157.79 102.93,136.7 "/>
<polygon class="st6" points="102.93,157.79 199.86,157.79 199.86,178.89 102.93,178.89 102.93,157.79 "/>
<polygon class="st7" points="102.93,178.89 199.86,178.89 199.86,199.98 102.93,199.98 102.93,178.89 "/>
<path class="st8" d="M102.93,199.98h96.93v76.25c0,0.84-0.7,1.54-1.54,1.54c-13.3,0-80.54,0-93.85,0c-0.84,0-1.54-0.7-1.54-1.54
	V199.98L102.93,199.98z"/>
<polygon class="st9" points="151.32,73.41 151.4,73.41 153.33,73.41 155.26,73.41 157.2,73.41 159.11,73.41 161.02,73.41 
	162.92,73.41 164.81,73.41 166.67,73.41 168.52,73.41 170.35,73.41 172.14,73.41 173.92,73.41 175.66,73.41 177.37,73.41 
	179.05,73.41 180.69,73.41 182.29,73.41 183.84,73.41 185.36,73.41 186.82,73.41 188.24,73.41 189.6,73.41 190.92,73.41 
	192.17,73.41 193.37,73.41 194.5,73.41 195.57,73.41 196.57,73.41 197.51,73.41 198.36,73.41 199.15,73.41 199.86,73.41 
	199.86,94.5 151.32,94.5 151.32,73.41 "/>
<polygon class="st10" points="151.32,94.5 199.86,94.5 199.86,115.6 151.32,115.6 151.32,94.5 "/>
<polygon class="st11" points="151.32,115.6 199.86,115.6 199.86,136.7 151.32,136.7 151.32,115.6 "/>
<polygon class="st12" points="151.32,136.7 199.86,136.7 199.86,157.79 151.32,157.79 151.32,136.7 "/>
<polygon class="st13" points="151.32,157.79 199.86,157.79 199.86,178.89 151.32,178.89 151.32,157.79 "/>
<polygon class="st14" points="151.32,178.89 199.86,178.89 199.86,199.98 151.32,199.98 151.32,178.89 "/>
<path class="st15" d="M151.32,199.98h48.54v76.25c0,0.84-0.7,1.54-1.54,1.54h-47V199.98L151.32,199.98z"/>
<path class="st3" d="M196.12,51v226.78h-3.77V51h0.73h1.13h1.07H196.12L196.12,51z M106.68,51l3.64,136.09L112.19,51H106.68
	L106.68,51z"/>
<path class="st1" d="M160.56,103.77c0.18-0.13,0.36-0.23,0.55-0.29c0.19-0.06,0.38-0.09,0.56-0.09c0.27,0,0.51,0.06,0.72,0.18
	c0.21,0.12,0.37,0.31,0.47,0.56c0.03-0.08,0.06-0.13,0.08-0.17c0.01-0.04,0.05-0.1,0.11-0.19c0.08-0.15,0.22-0.21,0.44-0.21
	c0.22,0,0.43,0.05,0.64,0.14c0.21,0.09,0.39,0.21,0.53,0.35c0.15,0.14,0.19,0.28,0.12,0.41c-0.21,0.47-0.41,0.94-0.6,1.4
	c-0.19,0.47-0.35,0.9-0.49,1.3c-0.14,0.4-0.24,0.76-0.31,1.08c-0.07,0.31-0.09,0.55-0.07,0.72c0.02,0.09,0.06,0.14,0.11,0.14
	c0.05,0,0.1-0.01,0.17-0.05c0.06-0.04,0.12-0.09,0.18-0.15c0.06-0.06,0.1-0.11,0.13-0.14c0.22-0.25,0.47-0.57,0.72-0.98
	c0.26-0.41,0.51-0.83,0.75-1.27c0.24-0.44,0.46-0.85,0.65-1.25c0.2-0.4,0.35-0.71,0.46-0.93c0.02-0.06,0.07-0.08,0.14-0.08
	c0.08,0,0.14,0.01,0.21,0.04c0.07,0.03,0.13,0.07,0.18,0.12c0.05,0.05,0.07,0.1,0.04,0.16c-0.07,0.1-0.17,0.32-0.31,0.65
	c-0.14,0.33-0.31,0.71-0.51,1.14c-0.2,0.43-0.41,0.88-0.64,1.35c-0.24,0.47-0.49,0.91-0.75,1.3c-0.27,0.4-0.53,0.73-0.81,0.98
	c-0.27,0.26-0.54,0.39-0.82,0.39c-0.29,0-0.54-0.1-0.76-0.3c-0.22-0.2-0.36-0.47-0.43-0.81c-0.07,0.12-0.15,0.25-0.25,0.38
	c-0.1,0.13-0.21,0.25-0.33,0.35c-0.12,0.11-0.26,0.2-0.41,0.27c-0.15,0.07-0.31,0.11-0.5,0.13c-0.48,0-0.88-0.16-1.21-0.5
	c-0.28-0.29-0.44-0.7-0.48-1.24c-0.12,0.17-0.24,0.34-0.37,0.5c-0.29,0.36-0.58,0.66-0.89,0.89c-0.3,0.23-0.59,0.34-0.87,0.34
	c-0.31,0-0.53-0.07-0.65-0.21c-0.12-0.14-0.2-0.32-0.21-0.53c-0.01-0.21,0-0.44,0.04-0.68c0.04-0.24,0.06-0.47,0.07-0.67
	c0-0.21-0.03-0.38-0.11-0.51c-0.08-0.13-0.25-0.2-0.51-0.18c-0.12,0.12-0.23,0.23-0.32,0.33c-0.09,0.1-0.15,0.18-0.17,0.26
	c-0.06,0.12-0.1,0.27-0.11,0.44c-0.02,0.17-0.03,0.34-0.05,0.51c-0.01,0.17-0.04,0.34-0.07,0.5c-0.03,0.16-0.08,0.29-0.14,0.39
	c-0.09,0.12-0.21,0.21-0.34,0.28c-0.14,0.06-0.28,0.09-0.43,0.08c-0.14-0.01-0.28-0.06-0.41-0.14c-0.13-0.08-0.22-0.21-0.28-0.36
	c-0.05-0.41-0.04-0.92,0.04-1.55l0.02-0.15c-0.18,0.29-0.35,0.57-0.53,0.83c-0.28,0.4-0.55,0.73-0.84,0.98
	c-0.29,0.26-0.56,0.39-0.83,0.39c-0.28,0-0.53-0.1-0.75-0.3c-0.21-0.2-0.37-0.47-0.44-0.81c-0.07,0.12-0.15,0.25-0.25,0.38
	c-0.1,0.13-0.21,0.25-0.33,0.35c-0.12,0.11-0.26,0.2-0.41,0.27c-0.15,0.07-0.31,0.11-0.5,0.13c-0.48,0-0.88-0.16-1.21-0.5
	c-0.32-0.33-0.49-0.83-0.49-1.49c0-0.32,0.03-0.66,0.1-1.02l-0.03,0.02c-0.32,0.18-0.63,0.26-0.93,0.24
	c-0.22,0.84-0.56,1.53-1.02,2.07c-0.46,0.54-1,0.81-1.64,0.81c-0.25,0-0.51-0.06-0.79-0.18c-0.37-0.19-0.64-0.49-0.82-0.91
	c-0.17-0.41-0.26-0.88-0.26-1.41c0-0.23,0.01-0.47,0.04-0.72c-0.05,0.03-0.1,0.06-0.15,0.09c-0.36,0.21-0.71,0.26-1.06,0.15
	c-0.19,0.35-0.4,0.69-0.61,1.03c-0.22,0.33-0.45,0.64-0.69,0.91c-0.24,0.27-0.49,0.49-0.74,0.66c-0.25,0.17-0.5,0.25-0.75,0.25
	c-0.26,0-0.5-0.1-0.73-0.29c-0.23-0.2-0.41-0.47-0.53-0.83c-0.11-0.34-0.17-0.72-0.17-1.14c0-0.38,0.03-0.8,0.1-1.26
	c0.07-0.46,0.15-0.91,0.27-1.34c0.11-0.44,0.23-0.84,0.37-1.2c0.13-0.36,0.26-0.63,0.39-0.82c0.07-0.1,0.16-0.17,0.27-0.22
	c0.11-0.05,0.23-0.07,0.35-0.07c0.17,0,0.34,0.03,0.51,0.08c0.17,0.05,0.31,0.12,0.43,0.21c0.11,0.09,0.19,0.21,0.21,0.35
	c0.02,0.14-0.02,0.29-0.13,0.46c-0.14,0.2-0.28,0.49-0.44,0.87c-0.16,0.37-0.3,0.78-0.43,1.21c-0.13,0.43-0.23,0.86-0.31,1.29
	c-0.08,0.43-0.11,0.81-0.09,1.12c0,0.11,0.02,0.19,0.06,0.23c0.04,0.04,0.08,0.06,0.12,0.06s0.09-0.01,0.13-0.04
	c0.05-0.03,0.09-0.06,0.12-0.09c0.22-0.24,0.44-0.57,0.66-1c0.22-0.43,0.42-0.92,0.62-1.47c-0.07-0.2-0.12-0.41-0.15-0.62
	c-0.03-0.23-0.04-0.49-0.01-0.79c0.03-0.3,0.09-0.59,0.19-0.86c0.1-0.27,0.23-0.5,0.4-0.69c0.17-0.19,0.38-0.3,0.64-0.32
	c0.28-0.02,0.51,0.05,0.68,0.23c0.17,0.17,0.29,0.41,0.33,0.72c0.05,0.31,0.04,0.66-0.04,1.07c-0.08,0.4-0.23,0.83-0.45,1.28
	c0.18,0.03,0.37,0,0.57-0.11c0.1-0.06,0.21-0.13,0.31-0.21c0.14-0.46,0.33-0.89,0.56-1.29c0.27-0.46,0.58-0.85,0.93-1.14
	c0.35-0.3,0.73-0.45,1.13-0.45c0.07,0,0.15,0,0.26,0.02c0.1,0.01,0.21,0.05,0.32,0.11c0.11,0.06,0.22,0.15,0.34,0.27
	c0.11,0.12,0.2,0.28,0.27,0.48c0.26,0.11,0.46,0.36,0.61,0.76c0.15,0.39,0.16,0.96,0.03,1.7c0.09,0.01,0.22-0.01,0.4-0.07
	c0.17-0.06,0.36-0.17,0.57-0.33l0.07-0.05c0.05-0.15,0.1-0.3,0.15-0.44c0.16-0.44,0.35-0.83,0.55-1.18
	c0.21-0.35,0.42-0.61,0.63-0.78c0.18-0.13,0.36-0.23,0.55-0.29c0.19-0.06,0.37-0.09,0.55-0.09c0.27,0,0.51,0.06,0.72,0.18
	c0.21,0.12,0.38,0.31,0.49,0.56c0.18-0.64,0.37-1.27,0.58-1.89c0.2-0.62,0.4-1.18,0.59-1.69c0.19-0.5,0.35-0.93,0.51-1.29
	c0.15-0.35,0.27-0.58,0.34-0.7c0.06-0.08,0.13-0.14,0.21-0.17c0.09-0.03,0.17-0.05,0.24-0.05c0.17,0,0.36,0.03,0.56,0.08
	c0.21,0.06,0.39,0.14,0.55,0.24c0.16,0.1,0.27,0.22,0.34,0.36c0.07,0.14,0.05,0.29-0.05,0.45c-0.11,0.18-0.28,0.51-0.5,0.98
	c-0.22,0.48-0.46,1.03-0.72,1.65c-0.26,0.62-0.52,1.29-0.79,1.99c-0.27,0.71-0.51,1.38-0.72,2.03c-0.21,0.64-0.39,1.22-0.52,1.73
	c-0.13,0.51-0.19,0.88-0.17,1.12c0.02,0.15,0.08,0.2,0.15,0.15c0.15-0.07,0.31-0.21,0.51-0.42c0.19-0.21,0.39-0.47,0.61-0.77
	c0.21-0.3,0.42-0.62,0.64-0.97c0.21-0.35,0.41-0.69,0.61-1.02l0.05-0.09c0.14-0.59,0.31-1.19,0.49-1.81
	c0.23-0.77,0.48-1.51,0.74-2.22c0.27-0.71,0.53-1.35,0.79-1.93c0.26-0.58,0.51-1.04,0.73-1.38c0.06-0.07,0.13-0.12,0.22-0.16
	c0.09-0.04,0.18-0.06,0.27-0.06c0.18,0,0.37,0.03,0.57,0.09c0.2,0.06,0.37,0.15,0.52,0.26c0.14,0.11,0.24,0.24,0.3,0.38
	c0.06,0.14,0.03,0.29-0.07,0.45c-0.1,0.15-0.23,0.36-0.4,0.65c-0.16,0.28-0.33,0.61-0.52,0.98c-0.19,0.37-0.37,0.77-0.56,1.18
	c-0.19,0.42-0.37,0.83-0.54,1.24c-0.17,0.41-0.31,0.8-0.44,1.18c-0.13,0.37-0.22,0.7-0.28,0.97c0.11-0.12,0.24-0.27,0.39-0.45
	c0.15-0.17,0.31-0.37,0.48-0.58c0.17-0.21,0.33-0.45,0.5-0.7c0.16-0.25,0.31-0.53,0.44-0.83c0.07-0.15,0.17-0.21,0.31-0.18
	c0.14,0.02,0.29,0.09,0.43,0.21c0.15,0.12,0.28,0.26,0.39,0.44c0.11,0.17,0.18,0.33,0.19,0.48c0.01,0.17-0.03,0.35-0.14,0.55
	c-0.1,0.2-0.24,0.4-0.42,0.61c-0.17,0.21-0.38,0.42-0.61,0.64c-0.23,0.22-0.46,0.43-0.7,0.63c0.28,0.06,0.47,0.17,0.58,0.33
	c0.1,0.16,0.16,0.34,0.18,0.54c0.01,0.2-0.01,0.4-0.05,0.61c-0.04,0.21-0.07,0.39-0.09,0.54c-0.01,0.15,0.01,0.26,0.06,0.33
	c0.05,0.07,0.18,0.06,0.4-0.02c0.24-0.09,0.51-0.31,0.78-0.68c0.14-0.2,0.29-0.41,0.44-0.63c0.02-0.13,0.04-0.26,0.07-0.39
	c0.1-0.47,0.23-0.93,0.4-1.36s0.34-0.83,0.54-1.18C160.14,104.2,160.35,103.94,160.56,103.77L160.56,103.77z M142.88,109.7
	c0.16,0,0.31-0.08,0.45-0.25c0.15-0.17,0.28-0.38,0.41-0.63c0.12-0.25,0.22-0.52,0.3-0.81c0.08-0.28,0.13-0.55,0.15-0.78
	c-0.1-0.07-0.19-0.17-0.26-0.3c-0.08-0.14-0.13-0.28-0.17-0.45c-0.04-0.16-0.06-0.33-0.07-0.5c0-0.17,0.02-0.31,0.08-0.44
	c-0.16,0.06-0.31,0.2-0.47,0.42c-0.16,0.22-0.3,0.49-0.43,0.8c-0.13,0.31-0.23,0.63-0.32,0.98c-0.09,0.35-0.14,0.67-0.16,0.95
	c-0.01,0.28,0.01,0.52,0.09,0.71C142.54,109.61,142.68,109.7,142.88,109.7L142.88,109.7z M149.97,105.32c0-0.03,0-0.09-0.01-0.16
	c0-0.07-0.01-0.14-0.03-0.21c-0.01-0.07-0.04-0.13-0.07-0.19c-0.03-0.05-0.06-0.08-0.11-0.08c-0.13,0-0.28,0.1-0.44,0.31
	c-0.16,0.21-0.32,0.47-0.47,0.78c-0.15,0.31-0.3,0.66-0.43,1.04c-0.13,0.38-0.24,0.74-0.32,1.08c-0.02,0.1-0.05,0.24-0.09,0.42
	c-0.03,0.18-0.05,0.36-0.06,0.53c0,0.17,0.01,0.32,0.04,0.45c0.03,0.13,0.1,0.19,0.22,0.19c0.14,0,0.29-0.08,0.43-0.24
	c0.15-0.16,0.29-0.37,0.41-0.63c0.13-0.26,0.25-0.54,0.36-0.86c0.11-0.31,0.21-0.62,0.29-0.93c0.09-0.31,0.15-0.6,0.2-0.87
	C149.95,105.69,149.97,105.47,149.97,105.32L149.97,105.32z M162.36,105.32c0-0.03,0-0.09-0.01-0.16c0-0.07-0.01-0.14-0.03-0.21
	c-0.01-0.07-0.04-0.13-0.07-0.19c-0.03-0.05-0.06-0.08-0.11-0.08c-0.13,0-0.28,0.1-0.44,0.31c-0.16,0.21-0.32,0.47-0.47,0.78
	c-0.15,0.31-0.3,0.66-0.43,1.04c-0.13,0.38-0.24,0.74-0.32,1.08c-0.02,0.1-0.05,0.24-0.08,0.42c-0.03,0.18-0.06,0.36-0.06,0.53
	c0,0.17,0.01,0.32,0.04,0.45c0.03,0.13,0.1,0.19,0.22,0.19c0.15,0,0.29-0.08,0.44-0.24c0.14-0.16,0.28-0.37,0.41-0.63
	c0.13-0.26,0.25-0.54,0.36-0.86c0.11-0.31,0.21-0.62,0.29-0.93c0.09-0.31,0.15-0.6,0.2-0.87
	C162.34,105.69,162.36,105.47,162.36,105.32L162.36,105.32z"/>
<path class="st1" d="M167.53,187.15c0.18-0.14,0.36-0.23,0.55-0.29c0.19-0.06,0.37-0.09,0.54-0.09c0.27,0,0.51,0.06,0.72,0.18
	c0.21,0.12,0.38,0.31,0.49,0.56c0.18-0.64,0.37-1.27,0.58-1.89c0.21-0.62,0.4-1.19,0.59-1.69c0.19-0.5,0.35-0.93,0.51-1.29
	c0.15-0.35,0.27-0.59,0.34-0.7c0.06-0.08,0.13-0.13,0.21-0.17c0.09-0.03,0.17-0.05,0.24-0.05c0.17,0,0.36,0.03,0.56,0.08
	c0.21,0.06,0.39,0.13,0.55,0.24c0.16,0.1,0.27,0.22,0.33,0.36c0.07,0.14,0.05,0.29-0.05,0.45c-0.11,0.18-0.28,0.51-0.5,0.98
	c-0.22,0.47-0.46,1.03-0.72,1.65c-0.26,0.62-0.52,1.29-0.79,1.99c-0.27,0.71-0.51,1.38-0.72,2.02c-0.21,0.65-0.39,1.22-0.52,1.73
	c-0.14,0.51-0.19,0.88-0.17,1.12c0.02,0.15,0.08,0.2,0.15,0.15c0.15-0.07,0.31-0.21,0.51-0.42c0.19-0.21,0.39-0.47,0.61-0.77
	c0.21-0.3,0.42-0.62,0.64-0.97c0.21-0.35,0.41-0.69,0.61-1.02c0.19-0.33,0.36-0.64,0.51-0.93c0.15-0.29,0.27-0.52,0.34-0.7
	c0.02-0.06,0.07-0.09,0.14-0.09c0.08,0,0.15,0.01,0.22,0.04c0.07,0.03,0.13,0.07,0.18,0.12c0.05,0.05,0.06,0.1,0.05,0.16
	c-0.07,0.1-0.18,0.32-0.33,0.65c-0.15,0.33-0.33,0.71-0.55,1.14c-0.21,0.43-0.45,0.88-0.71,1.35c-0.26,0.47-0.52,0.9-0.8,1.3
	c-0.28,0.4-0.55,0.72-0.84,0.98c-0.29,0.26-0.56,0.39-0.83,0.39c-0.28,0-0.53-0.1-0.75-0.3c-0.22-0.2-0.37-0.47-0.44-0.81
	c-0.07,0.12-0.15,0.25-0.25,0.38c-0.1,0.13-0.21,0.25-0.34,0.35c-0.12,0.11-0.26,0.2-0.41,0.27c-0.15,0.07-0.31,0.11-0.5,0.13
	c-0.48,0-0.89-0.16-1.21-0.5c-0.2-0.21-0.34-0.48-0.42-0.82c-0.24,0.36-0.5,0.67-0.76,0.92c-0.28,0.26-0.56,0.4-0.85,0.4
	c-0.21,0-0.4-0.03-0.58-0.08c-0.19-0.06-0.35-0.15-0.49-0.28c-0.14-0.13-0.26-0.3-0.34-0.52c-0.09-0.22-0.14-0.49-0.15-0.82
	c-0.01-0.38,0.02-0.84,0.1-1.37c-0.05,0.03-0.1,0.06-0.14,0.09c-0.32,0.18-0.63,0.26-0.93,0.24c-0.22,0.84-0.56,1.53-1.02,2.07
	c-0.45,0.54-1,0.81-1.64,0.81c-0.24,0-0.51-0.06-0.79-0.18c-0.37-0.19-0.64-0.49-0.82-0.91c-0.07-0.17-0.13-0.34-0.17-0.53
	c-0.13,0.2-0.27,0.39-0.42,0.57c-0.29,0.37-0.6,0.7-0.93,0.98c-0.32,0.28-0.66,0.48-1.01,0.61c-0.08,0.24-0.19,0.53-0.32,0.87
	c-0.13,0.35-0.31,0.68-0.52,1c-0.21,0.32-0.46,0.59-0.74,0.81c-0.29,0.22-0.62,0.31-1,0.29c-0.27-0.01-0.5-0.09-0.68-0.24
	c-0.19-0.15-0.32-0.33-0.41-0.55c-0.08-0.22-0.12-0.46-0.11-0.72c0.01-0.26,0.08-0.5,0.21-0.72c0.2-0.38,0.52-0.68,0.94-0.89
	c0.43-0.21,0.86-0.37,1.31-0.49l0.2-0.69c-0.1,0.19-0.25,0.34-0.45,0.45c-0.2,0.11-0.39,0.17-0.55,0.17
	c-0.47-0.02-0.85-0.21-1.13-0.57c-0.28-0.36-0.42-0.83-0.42-1.41c0-0.36,0.06-0.78,0.18-1.26c0.12-0.48,0.28-0.95,0.46-1.41
	c0.19-0.46,0.4-0.87,0.62-1.24c0.23-0.37,0.44-0.63,0.64-0.79c0.18-0.12,0.36-0.21,0.55-0.27c0.19-0.05,0.36-0.08,0.53-0.08
	c0.26,0,0.51,0.06,0.76,0.18c0.24,0.12,0.42,0.32,0.52,0.59c0.02-0.07,0.06-0.13,0.1-0.2c0.05-0.07,0.08-0.13,0.1-0.18
	c0.07-0.1,0.21-0.14,0.41-0.13c0.2,0.02,0.4,0.08,0.6,0.18c0.2,0.1,0.36,0.23,0.49,0.39c0.13,0.16,0.16,0.32,0.08,0.51
	c-0.17,0.34-0.35,0.74-0.54,1.21c-0.2,0.47-0.4,0.96-0.59,1.47c-0.2,0.51-0.38,1.01-0.55,1.5c-0.18,0.49-0.31,0.92-0.43,1.29
	c0.37-0.22,0.73-0.55,1.08-0.97c0.32-0.4,0.64-0.84,0.94-1.33c0.01-0.46,0.09-0.93,0.22-1.41c0.15-0.55,0.36-1.06,0.63-1.53
	c0.27-0.47,0.58-0.85,0.93-1.14c0.35-0.3,0.73-0.44,1.13-0.44c0.07,0,0.16,0,0.26,0.02c0.1,0.01,0.21,0.05,0.33,0.11
	c0.11,0.06,0.22,0.15,0.33,0.27c0.11,0.12,0.2,0.28,0.27,0.48c0.26,0.11,0.46,0.36,0.61,0.76c0.14,0.39,0.16,0.96,0.03,1.7
	c0.09,0.01,0.22-0.01,0.4-0.07c0.17-0.05,0.36-0.16,0.57-0.33l0.08-0.06c0.07-0.35,0.15-0.7,0.24-1.06c0.17-0.7,0.36-1.41,0.57-2.12
	c0.21-0.71,0.42-1.37,0.64-1.97c0.21-0.61,0.41-1.13,0.59-1.57c0.18-0.44,0.32-0.75,0.43-0.92c0.09-0.15,0.25-0.22,0.47-0.22
	c0.18,0,0.37,0.04,0.56,0.1c0.2,0.07,0.37,0.15,0.52,0.26c0.14,0.11,0.25,0.23,0.3,0.38c0.06,0.15,0.03,0.3-0.07,0.45
	c-0.09,0.12-0.23,0.41-0.43,0.87c-0.2,0.46-0.41,1-0.66,1.63c-0.25,0.63-0.5,1.31-0.76,2.03c-0.26,0.72-0.48,1.42-0.68,2.08
	c-0.2,0.67-0.35,1.26-0.45,1.79c-0.1,0.53-0.11,0.9-0.05,1.13c0.02,0.07,0.06,0.1,0.12,0.12c0.06,0.01,0.12,0,0.18-0.03
	c0.18-0.11,0.39-0.32,0.64-0.62c0.23-0.28,0.47-0.62,0.72-1.02c0.02-0.12,0.04-0.25,0.07-0.38c0.1-0.47,0.23-0.93,0.4-1.36
	c0.16-0.44,0.35-0.83,0.55-1.18C167.11,187.58,167.32,187.32,167.53,187.15L167.53,187.15z M129.53,191.64
	c0-0.27,0.03-0.55,0.08-0.85c0.05-0.3,0.12-0.59,0.2-0.88c0.08-0.29,0.18-0.57,0.29-0.84c0.11-0.27,0.22-0.51,0.34-0.74
	c-0.22-0.01-0.45-0.04-0.67-0.1c-0.22-0.05-0.42-0.14-0.6-0.26c-0.18-0.12-0.32-0.27-0.43-0.45c-0.11-0.19-0.18-0.41-0.19-0.67
	c-0.02-0.38,0.08-0.72,0.3-1c0.21-0.28,0.51-0.42,0.88-0.41c0.2,0,0.36,0.05,0.48,0.15c0.12,0.1,0.2,0.23,0.25,0.39
	c0.05,0.16,0.07,0.33,0.04,0.51c-0.02,0.19-0.07,0.37-0.15,0.55c0.02,0.16,0.12,0.26,0.3,0.32c0.17,0.05,0.34,0.03,0.5-0.09
	c0.16-0.09,0.31-0.13,0.47-0.13c0.17,0,0.34,0.04,0.51,0.12c0.18,0.08,0.31,0.18,0.42,0.3c0.1,0.12,0.18,0.26,0.2,0.42
	c0.03,0.16-0.01,0.32-0.12,0.49c-0.12,0.17-0.27,0.4-0.44,0.68c-0.17,0.29-0.33,0.6-0.49,0.93c-0.16,0.34-0.29,0.68-0.41,1.03
	c-0.11,0.35-0.17,0.66-0.18,0.94c0,0.19,0.02,0.33,0.07,0.42c0.04,0.09,0.18,0.05,0.4-0.1c0.26-0.19,0.55-0.49,0.88-0.9
	c0.3-0.36,0.59-0.75,0.88-1.16c0.08-0.39,0.17-0.77,0.29-1.15c0.14-0.47,0.29-0.91,0.44-1.3c0.16-0.39,0.3-0.68,0.42-0.87
	c0.16-0.19,0.36-0.28,0.61-0.28c0.17,0,0.34,0.02,0.51,0.07c0.17,0.05,0.31,0.12,0.43,0.21c0.12,0.09,0.2,0.21,0.23,0.35
	c0.03,0.14,0,0.3-0.1,0.48c-0.1,0.19-0.22,0.46-0.38,0.8c-0.15,0.34-0.3,0.71-0.44,1.12c-0.15,0.4-0.28,0.81-0.41,1.21
	c-0.12,0.41-0.2,0.76-0.23,1.08c-0.05,0.29,0,0.47,0.12,0.52c0.13,0.06,0.29-0.08,0.48-0.42c0.14-0.25,0.3-0.56,0.46-0.96
	c0.17-0.39,0.33-0.8,0.49-1.22c0.16-0.42,0.32-0.83,0.47-1.23c0.15-0.41,0.28-0.75,0.38-1.03c0.05-0.17,0.1-0.31,0.15-0.44
	c0.05-0.12,0.09-0.21,0.12-0.25c0.12-0.19,0.31-0.28,0.57-0.28c0.17,0,0.34,0.02,0.51,0.06c0.17,0.04,0.32,0.1,0.44,0.18
	c0.12,0.08,0.21,0.18,0.25,0.3c0.04,0.12,0.02,0.27-0.07,0.46c-0.1,0.18-0.22,0.42-0.36,0.73c-0.14,0.31-0.28,0.65-0.43,1.01
	c-0.14,0.36-0.28,0.73-0.39,1.11c-0.11,0.37-0.19,0.72-0.23,1.05c0,0.03-0.01,0.1-0.02,0.2c-0.01,0.09-0.01,0.19-0.01,0.29
	c0,0.1,0.01,0.19,0.04,0.27c0.03,0.08,0.08,0.12,0.14,0.13c0.11,0,0.27-0.08,0.47-0.25c0.2-0.17,0.44-0.44,0.71-0.82
	c0.27-0.38,0.56-0.87,0.87-1.48c0.11-0.43,0.23-0.87,0.37-1.32c0.17-0.55,0.34-1.07,0.51-1.56c0.04-0.16,0.18-0.26,0.4-0.3
	c0.22-0.05,0.45-0.05,0.67,0c0.22,0.04,0.41,0.13,0.57,0.24c0.15,0.12,0.19,0.26,0.1,0.43c-0.09,0.23-0.19,0.47-0.29,0.71
	c-0.11,0.24-0.2,0.46-0.28,0.69c0.08-0.13,0.18-0.29,0.3-0.45c0.12-0.17,0.26-0.34,0.41-0.51c0.14-0.17,0.3-0.33,0.45-0.5
	c0.16-0.16,0.32-0.3,0.49-0.41c0.19-0.11,0.38-0.16,0.57-0.15c0.19,0.01,0.35,0.07,0.5,0.17c0.14,0.1,0.25,0.25,0.33,0.43
	c0.09,0.19,0.12,0.39,0.11,0.61c0.16-0.19,0.33-0.38,0.52-0.56c0.19-0.18,0.38-0.34,0.57-0.46c0.21-0.13,0.44-0.19,0.68-0.18
	c0.23,0.02,0.43,0.11,0.6,0.28c0.16,0.17,0.26,0.41,0.31,0.74c0.04,0.32-0.02,0.73-0.19,1.21c-0.03,0.11-0.06,0.2-0.09,0.28
	c-0.03,0.07-0.06,0.14-0.09,0.21c-0.03,0.07-0.05,0.14-0.08,0.21c-0.02,0.07-0.05,0.16-0.08,0.26c-0.16,0.47-0.3,0.91-0.41,1.33
	c-0.11,0.41-0.17,0.75-0.17,1.01c0,0.03,0,0.07,0.02,0.12c0.01,0.05,0.06,0.08,0.12,0.08c0.09,0,0.24-0.1,0.46-0.3
	c0.21-0.2,0.46-0.5,0.75-0.9c0.29-0.4,0.61-0.9,0.95-1.49c0.34-0.6,0.68-1.29,1.02-2.08c0.02-0.06,0.07-0.09,0.13-0.09
	c0.07,0,0.13,0,0.19,0.03c0.06,0.03,0.12,0.07,0.16,0.12c0.04,0.05,0.06,0.1,0.03,0.16c-0.06,0.1-0.15,0.31-0.29,0.63
	c-0.13,0.32-0.3,0.69-0.51,1.1c-0.2,0.42-0.43,0.85-0.68,1.31c-0.25,0.46-0.52,0.89-0.79,1.28c-0.28,0.39-0.56,0.72-0.86,0.99
	c-0.3,0.27-0.59,0.43-0.88,0.47c-0.28,0.02-0.52,0-0.7-0.07c-0.19-0.07-0.33-0.17-0.45-0.32c-0.11-0.15-0.19-0.32-0.24-0.52
	c-0.05-0.2-0.08-0.42-0.08-0.66c0-0.36,0.05-0.76,0.16-1.19c0.1-0.44,0.21-0.87,0.3-1.29c0.07-0.3,0.09-0.51,0.06-0.62
	c-0.03-0.11-0.09-0.16-0.17-0.14c-0.09,0.02-0.19,0.11-0.31,0.26c-0.12,0.15-0.23,0.34-0.34,0.56c-0.1,0.22-0.21,0.5-0.31,0.82
	c-0.1,0.32-0.19,0.65-0.26,0.98c-0.07,0.34-0.13,0.66-0.18,0.96c-0.05,0.3-0.06,0.54-0.05,0.71c0.01,0.19-0.08,0.33-0.28,0.43
	c-0.2,0.1-0.41,0.13-0.66,0.09c-0.24-0.03-0.45-0.14-0.63-0.32c-0.19-0.18-0.26-0.44-0.21-0.79c0.06-0.33,0.14-0.71,0.24-1.13
	c0.11-0.41,0.22-0.83,0.35-1.26c0.09-0.3,0.16-0.58,0.22-0.84c0.06-0.26,0.05-0.42-0.04-0.47c-0.06-0.05-0.17-0.02-0.34,0.1
	c-0.17,0.12-0.34,0.36-0.52,0.72c-0.1,0.22-0.21,0.48-0.34,0.76c-0.12,0.28-0.24,0.57-0.34,0.87c-0.1,0.3-0.2,0.59-0.3,0.87
	c-0.09,0.28-0.16,0.53-0.2,0.74c-0.06,0.21-0.16,0.4-0.31,0.57c-0.15,0.17-0.37,0.23-0.65,0.19c-0.1-0.01-0.19-0.05-0.26-0.12
	c-0.07-0.07-0.13-0.15-0.18-0.24c-0.05-0.09-0.09-0.19-0.11-0.29c-0.02-0.1-0.03-0.2-0.03-0.29c0-0.21,0.02-0.46,0.05-0.73
	c-0.05,0.07-0.09,0.15-0.14,0.22c-0.26,0.4-0.52,0.73-0.79,1.01c-0.27,0.27-0.53,0.42-0.79,0.45c-0.45,0.05-0.8-0.08-1.04-0.37
	c-0.25-0.29-0.38-0.68-0.39-1.16c-0.1,0.19-0.21,0.38-0.34,0.56c-0.12,0.18-0.26,0.34-0.4,0.48c-0.15,0.14-0.3,0.26-0.46,0.34
	c-0.16,0.09-0.32,0.14-0.48,0.14c-0.13,0-0.28-0.02-0.43-0.07c-0.16-0.05-0.31-0.13-0.45-0.25c-0.15-0.12-0.27-0.3-0.37-0.54
	c-0.1-0.23-0.16-0.55-0.17-0.94l0-0.12c-0.14,0.2-0.28,0.39-0.42,0.57c-0.31,0.39-0.61,0.72-0.93,0.98
	c-0.31,0.26-0.6,0.39-0.87,0.39c-0.22,0-0.42-0.06-0.6-0.19c-0.18-0.12-0.33-0.28-0.45-0.48c-0.12-0.2-0.2-0.42-0.27-0.67
	C129.56,192.19,129.53,191.92,129.53,191.64L129.53,191.64z M158.98,193.09c0.16,0,0.31-0.08,0.45-0.25
	c0.15-0.17,0.28-0.38,0.41-0.63c0.12-0.25,0.22-0.52,0.3-0.81c0.08-0.29,0.13-0.55,0.15-0.78c-0.1-0.07-0.19-0.17-0.26-0.3
	c-0.07-0.13-0.13-0.28-0.17-0.45c-0.04-0.16-0.06-0.33-0.07-0.49c0-0.17,0.02-0.31,0.08-0.44c-0.16,0.06-0.31,0.2-0.47,0.42
	c-0.16,0.22-0.3,0.49-0.43,0.8c-0.13,0.31-0.24,0.63-0.33,0.98c-0.09,0.35-0.14,0.66-0.16,0.95c-0.02,0.29,0.01,0.52,0.08,0.72
	C158.64,192.99,158.77,193.09,158.98,193.09L158.98,193.09z M154.94,188.45c0-0.03,0-0.08-0.01-0.14c0-0.06-0.02-0.12-0.03-0.19
	c-0.02-0.06-0.04-0.12-0.07-0.17s-0.07-0.08-0.11-0.08c-0.12,0-0.26,0.1-0.42,0.29c-0.16,0.19-0.31,0.44-0.47,0.74
	c-0.16,0.3-0.31,0.64-0.46,1c-0.15,0.36-0.28,0.72-0.4,1.07c-0.04,0.14-0.09,0.32-0.14,0.55c-0.05,0.23-0.09,0.45-0.11,0.65
	c-0.02,0.21-0.02,0.38,0.01,0.52c0.03,0.14,0.1,0.19,0.23,0.16c0.19-0.05,0.37-0.17,0.54-0.37c0.18-0.2,0.33-0.44,0.48-0.72
	c0.14-0.28,0.28-0.59,0.4-0.92c0.11-0.33,0.21-0.65,0.3-0.96c0.09-0.31,0.15-0.59,0.2-0.85
	C154.92,188.78,154.94,188.58,154.94,188.45L154.94,188.45z M153.28,194.95c-0.26,0.09-0.46,0.21-0.62,0.35
	c-0.15,0.14-0.26,0.28-0.33,0.41c-0.07,0.13-0.1,0.25-0.09,0.35c0,0.1,0.04,0.15,0.11,0.15c0.13,0,0.25-0.04,0.34-0.12
	c0.1-0.08,0.18-0.18,0.25-0.3c0.07-0.12,0.14-0.26,0.2-0.4C153.2,195.25,153.25,195.1,153.28,194.95L153.28,194.95z M169.28,188.7
	c0-0.03,0-0.09-0.01-0.16c0-0.07-0.01-0.14-0.03-0.21c-0.02-0.07-0.04-0.13-0.07-0.18c-0.03-0.06-0.07-0.08-0.11-0.08
	c-0.13,0-0.28,0.1-0.44,0.31c-0.17,0.21-0.32,0.47-0.47,0.78c-0.15,0.31-0.3,0.66-0.43,1.04c-0.13,0.38-0.24,0.74-0.32,1.08
	c-0.02,0.1-0.05,0.24-0.09,0.42c-0.03,0.18-0.05,0.36-0.06,0.53c0,0.17,0.01,0.32,0.04,0.45c0.03,0.13,0.1,0.19,0.22,0.19
	c0.14,0,0.29-0.08,0.43-0.24c0.15-0.16,0.29-0.37,0.42-0.63c0.13-0.26,0.25-0.54,0.36-0.86c0.11-0.31,0.21-0.62,0.29-0.93
	c0.09-0.31,0.15-0.6,0.2-0.87C169.26,189.07,169.28,188.86,169.28,188.7L169.28,188.7z"/>
<path class="st1" d="M125.41,76.15c0.09-0.15,0.25-0.22,0.47-0.22c0.18,0,0.37,0.03,0.56,0.1c0.2,0.07,0.37,0.16,0.51,0.26
	c0.14,0.1,0.24,0.23,0.3,0.38c0.06,0.15,0.03,0.3-0.07,0.46c-0.09,0.12-0.23,0.41-0.43,0.87c-0.2,0.45-0.41,1-0.66,1.63
	c-0.25,0.63-0.5,1.31-0.76,2.03c-0.26,0.72-0.48,1.42-0.68,2.08c-0.2,0.67-0.35,1.26-0.45,1.79s-0.12,0.9-0.05,1.13
	c0.02,0.07,0.07,0.11,0.13,0.12c0.06,0.01,0.12,0,0.18-0.03c0.18-0.11,0.39-0.32,0.64-0.62c0.25-0.3,0.5-0.67,0.76-1.09
	c0.27-0.43,0.52-0.9,0.78-1.43c0.26-0.53,0.5-1.08,0.71-1.65c0.02-0.05,0.07-0.08,0.14-0.08c0.08,0,0.15,0.01,0.22,0.04
	c0.07,0.03,0.13,0.07,0.19,0.12c0.05,0.05,0.07,0.1,0.06,0.16c-0.07,0.09-0.16,0.3-0.29,0.62c-0.13,0.32-0.29,0.7-0.47,1.13
	c-0.19,0.43-0.39,0.89-0.61,1.37c-0.22,0.48-0.46,0.92-0.72,1.32c-0.26,0.4-0.53,0.73-0.81,0.99c-0.28,0.26-0.56,0.39-0.85,0.39
	c-0.21,0-0.4-0.03-0.58-0.08c-0.19-0.05-0.35-0.15-0.49-0.28c-0.14-0.13-0.26-0.3-0.35-0.52c-0.09-0.22-0.14-0.49-0.15-0.82
	c-0.01-0.44,0.03-0.97,0.13-1.6c0.1-0.63,0.23-1.29,0.41-1.99c0.17-0.7,0.36-1.41,0.57-2.12c0.21-0.71,0.43-1.37,0.64-1.98
	c0.21-0.61,0.41-1.13,0.59-1.57C125.15,76.63,125.3,76.32,125.41,76.15L125.41,76.15z M132.41,81.95c0.02-0.05,0.07-0.09,0.13-0.09
	c0.07,0,0.13,0.01,0.2,0.03c0.07,0.03,0.12,0.07,0.16,0.12s0.05,0.1,0.02,0.14c-0.12,0.26-0.29,0.58-0.5,0.97
	c-0.21,0.39-0.44,0.8-0.71,1.23c-0.26,0.43-0.55,0.86-0.86,1.29c-0.31,0.43-0.65,0.82-1,1.18c-0.35,0.35-0.72,0.64-1.09,0.87
	c-0.38,0.22-0.75,0.34-1.13,0.36c-0.31,0-0.58-0.07-0.82-0.2c-0.25-0.13-0.46-0.31-0.65-0.54c-0.18-0.23-0.32-0.5-0.43-0.81
	c-0.1-0.31-0.15-0.65-0.15-1.02c0-0.47,0.07-0.97,0.21-1.5c0.14-0.53,0.34-1.02,0.61-1.46c0.27-0.44,0.6-0.81,0.99-1.11
	c0.39-0.3,0.83-0.45,1.34-0.45c0.2,0,0.41,0.04,0.61,0.11c0.21,0.07,0.39,0.18,0.54,0.33c0.16,0.15,0.29,0.33,0.4,0.56
	c0.1,0.23,0.16,0.5,0.16,0.82c-0.02,0.59-0.15,1.09-0.38,1.48c-0.23,0.39-0.51,0.71-0.85,0.94c-0.33,0.24-0.69,0.4-1.07,0.5
	c-0.38,0.1-0.72,0.14-1.03,0.14c-0.02,0.15-0.01,0.29,0.03,0.45c0.04,0.15,0.1,0.29,0.19,0.4c0.08,0.12,0.19,0.21,0.31,0.29
	c0.13,0.07,0.28,0.11,0.45,0.11c0.29,0,0.62-0.14,0.99-0.41c0.37-0.27,0.75-0.63,1.13-1.1c0.39-0.46,0.77-1.01,1.15-1.63
	C131.74,83.32,132.09,82.66,132.41,81.95L132.41,81.95z M128.59,82.52c-0.1,0.05-0.22,0.17-0.35,0.34
	c-0.14,0.17-0.27,0.37-0.41,0.61c-0.13,0.24-0.26,0.51-0.37,0.79c-0.11,0.28-0.2,0.57-0.25,0.87c0.19-0.02,0.38-0.1,0.58-0.24
	c0.2-0.13,0.38-0.3,0.54-0.5c0.16-0.2,0.3-0.42,0.41-0.67c0.11-0.25,0.18-0.51,0.21-0.77c0.01-0.13,0-0.23-0.03-0.29
	c-0.02-0.06-0.06-0.11-0.1-0.14c-0.04-0.03-0.08-0.04-0.11-0.03C128.66,82.5,128.62,82.51,128.59,82.52L128.59,82.52z M135.08,81.19
	c0.19-0.11,0.38-0.16,0.57-0.15c0.19,0.01,0.36,0.07,0.5,0.17c0.14,0.1,0.25,0.24,0.34,0.43c0.08,0.18,0.12,0.39,0.11,0.61
	c0.16-0.19,0.33-0.38,0.52-0.56c0.19-0.19,0.38-0.34,0.57-0.46c0.21-0.13,0.44-0.19,0.67-0.18c0.23,0.02,0.43,0.11,0.6,0.28
	c0.16,0.17,0.27,0.42,0.31,0.74c0.05,0.32-0.01,0.73-0.18,1.21c-0.04,0.11-0.07,0.2-0.1,0.28c-0.03,0.07-0.06,0.14-0.08,0.21
	c-0.03,0.07-0.06,0.14-0.08,0.21c-0.02,0.07-0.05,0.16-0.09,0.26c-0.16,0.47-0.29,0.91-0.41,1.33c-0.11,0.41-0.17,0.75-0.17,1.01
	c0,0.03,0.01,0.08,0.02,0.13c0.02,0.05,0.06,0.08,0.13,0.08c0.09,0,0.24-0.1,0.45-0.3c0.21-0.2,0.46-0.5,0.76-0.9
	c0.29-0.4,0.61-0.9,0.95-1.5c0.34-0.6,0.68-1.29,1.02-2.08c0.02-0.05,0.07-0.09,0.13-0.09c0.07-0.01,0.13,0,0.2,0.03
	c0.06,0.03,0.11,0.07,0.16,0.12c0.05,0.05,0.06,0.1,0.03,0.16c-0.05,0.1-0.15,0.31-0.28,0.63c-0.14,0.32-0.31,0.69-0.51,1.1
	c-0.21,0.41-0.43,0.85-0.68,1.31c-0.25,0.46-0.51,0.89-0.79,1.28c-0.27,0.39-0.56,0.72-0.85,0.99c-0.3,0.27-0.6,0.43-0.89,0.47
	c-0.28,0.02-0.51,0-0.7-0.07c-0.19-0.07-0.33-0.17-0.44-0.32c-0.11-0.15-0.2-0.32-0.25-0.52c-0.05-0.2-0.07-0.42-0.07-0.66
	c0-0.36,0.05-0.76,0.16-1.19c0.11-0.44,0.21-0.87,0.3-1.29c0.07-0.3,0.09-0.51,0.06-0.62c-0.03-0.11-0.08-0.16-0.17-0.13
	c-0.09,0.02-0.19,0.11-0.3,0.26c-0.12,0.15-0.23,0.34-0.35,0.56c-0.1,0.22-0.2,0.5-0.3,0.82c-0.1,0.32-0.19,0.65-0.26,0.98
	c-0.07,0.34-0.13,0.66-0.18,0.96c-0.04,0.3-0.06,0.54-0.05,0.71c0.01,0.19-0.08,0.33-0.28,0.43c-0.2,0.1-0.42,0.13-0.65,0.09
	c-0.24-0.03-0.45-0.14-0.64-0.32c-0.19-0.18-0.26-0.44-0.21-0.79c0.06-0.34,0.14-0.71,0.24-1.13c0.1-0.41,0.22-0.83,0.34-1.26
	c0.09-0.3,0.17-0.58,0.23-0.84c0.06-0.26,0.05-0.42-0.04-0.47c-0.06-0.05-0.17-0.02-0.33,0.1c-0.17,0.12-0.34,0.36-0.52,0.72
	c-0.1,0.22-0.21,0.48-0.33,0.76c-0.12,0.28-0.24,0.57-0.35,0.87c-0.1,0.3-0.2,0.58-0.29,0.87c-0.09,0.28-0.16,0.53-0.2,0.74
	c-0.05,0.21-0.16,0.4-0.31,0.57c-0.15,0.17-0.37,0.23-0.65,0.18c-0.1-0.01-0.19-0.05-0.26-0.12c-0.07-0.07-0.13-0.15-0.19-0.24
	c-0.05-0.09-0.09-0.18-0.11-0.28c-0.02-0.1-0.03-0.2-0.03-0.29c0-0.31,0.04-0.7,0.12-1.15c0.08-0.46,0.18-0.94,0.31-1.46
	c0.13-0.52,0.28-1.06,0.44-1.6c0.17-0.55,0.34-1.07,0.51-1.56c0.05-0.16,0.18-0.26,0.41-0.3c0.22-0.05,0.45-0.05,0.67,0
	c0.22,0.05,0.41,0.13,0.56,0.25c0.15,0.12,0.19,0.26,0.11,0.43c-0.09,0.23-0.19,0.47-0.3,0.71c-0.1,0.23-0.2,0.46-0.28,0.69
	c0.08-0.13,0.18-0.28,0.31-0.45c0.12-0.17,0.26-0.34,0.4-0.5c0.15-0.17,0.3-0.33,0.45-0.5C134.75,81.44,134.91,81.31,135.08,81.19
	L135.08,81.19z M144.32,84.25c0.09,0.01,0.22-0.01,0.4-0.07c0.18-0.06,0.37-0.16,0.57-0.33c0.21-0.16,0.42-0.39,0.63-0.69
	c0.21-0.3,0.41-0.68,0.59-1.15c0.04-0.08,0.1-0.13,0.18-0.15c0.08-0.02,0.15-0.02,0.22,0.01c0.07,0.03,0.12,0.07,0.17,0.13
	c0.04,0.06,0.06,0.14,0.05,0.24c-0.1,0.35-0.26,0.71-0.48,1.08c-0.22,0.37-0.47,0.7-0.74,0.99c-0.27,0.29-0.57,0.53-0.89,0.72
	c-0.32,0.19-0.63,0.27-0.93,0.24c-0.22,0.84-0.56,1.53-1.02,2.07c-0.45,0.54-1,0.81-1.64,0.81c-0.25,0-0.51-0.06-0.79-0.19
	c-0.37-0.19-0.64-0.49-0.82-0.91c-0.17-0.41-0.26-0.88-0.26-1.41c0-0.52,0.08-1.05,0.22-1.6c0.15-0.56,0.36-1.07,0.63-1.53
	c0.27-0.46,0.58-0.84,0.93-1.14c0.35-0.3,0.73-0.45,1.13-0.45c0.07,0,0.15,0.01,0.26,0.02c0.1,0.01,0.21,0.05,0.33,0.11
	c0.11,0.06,0.22,0.15,0.33,0.27c0.11,0.12,0.2,0.28,0.27,0.48c0.26,0.11,0.46,0.36,0.61,0.76
	C144.44,82.95,144.45,83.51,144.32,84.25L144.32,84.25z M141.35,87.33c0.16,0,0.31-0.08,0.46-0.25c0.14-0.17,0.28-0.38,0.4-0.63
	c0.12-0.25,0.22-0.52,0.31-0.81c0.08-0.29,0.13-0.55,0.15-0.78c-0.1-0.07-0.19-0.17-0.26-0.3c-0.07-0.13-0.13-0.28-0.17-0.45
	c-0.04-0.16-0.06-0.33-0.07-0.5c0-0.17,0.02-0.31,0.08-0.44c-0.16,0.06-0.31,0.2-0.47,0.42c-0.16,0.22-0.3,0.49-0.43,0.8
	c-0.13,0.31-0.24,0.64-0.33,0.98c-0.09,0.35-0.14,0.67-0.16,0.95c-0.01,0.29,0.01,0.52,0.09,0.71
	C141.01,87.24,141.15,87.33,141.35,87.33L141.35,87.33z M148.99,81.24c0.21-0.13,0.43-0.19,0.64-0.17c0.21,0.02,0.4,0.1,0.55,0.25
	c0.15,0.14,0.26,0.34,0.33,0.59c0.07,0.25,0.06,0.55-0.02,0.88c-0.04,0.2-0.12,0.47-0.23,0.82c-0.11,0.34-0.22,0.7-0.34,1.07
	c-0.11,0.37-0.21,0.73-0.3,1.08c-0.09,0.35-0.13,0.62-0.13,0.82c0,0.03,0,0.08,0.02,0.13c0.01,0.05,0.05,0.08,0.11,0.08
	c0.09,0,0.24-0.1,0.46-0.3c0.22-0.2,0.47-0.51,0.76-0.91c0.29-0.4,0.61-0.9,0.94-1.49c0.33-0.59,0.67-1.28,1.01-2.05
	c0.02-0.05,0.07-0.09,0.13-0.09c0.07-0.01,0.14,0,0.21,0.03c0.07,0.03,0.12,0.07,0.16,0.13c0.04,0.05,0.05,0.1,0.04,0.15
	c-0.06,0.11-0.15,0.32-0.29,0.64c-0.13,0.31-0.31,0.68-0.51,1.09c-0.2,0.41-0.43,0.85-0.68,1.3c-0.25,0.45-0.51,0.88-0.8,1.27
	c-0.28,0.39-0.57,0.72-0.86,0.99c-0.29,0.27-0.58,0.43-0.87,0.47c-0.27,0.02-0.5,0-0.68-0.07c-0.19-0.07-0.33-0.17-0.44-0.32
	c-0.11-0.15-0.2-0.32-0.24-0.52c-0.05-0.2-0.08-0.42-0.08-0.66c0-0.36,0.05-0.75,0.16-1.18c0.11-0.43,0.21-0.86,0.3-1.29
	c0.07-0.3,0.08-0.51,0.04-0.63c-0.04-0.12-0.11-0.16-0.21-0.14c-0.1,0.03-0.22,0.12-0.35,0.26c-0.13,0.15-0.24,0.33-0.34,0.55
	c-0.1,0.22-0.21,0.48-0.33,0.77c-0.12,0.29-0.24,0.58-0.35,0.87c-0.1,0.3-0.21,0.58-0.3,0.87c-0.1,0.28-0.17,0.53-0.21,0.74
	c-0.05,0.2-0.14,0.39-0.29,0.56c-0.15,0.17-0.36,0.23-0.64,0.18c-0.2-0.02-0.35-0.14-0.45-0.34c-0.09-0.21-0.14-0.4-0.14-0.56
	c0-0.31,0.04-0.7,0.12-1.17c0.09-0.46,0.19-0.96,0.33-1.49c0.13-0.53,0.29-1.07,0.45-1.62c0.17-0.56,0.33-1.08,0.51-1.57
	c0.04-0.12,0.17-0.2,0.39-0.24c0.21-0.03,0.43-0.03,0.64,0.02c0.22,0.04,0.41,0.12,0.56,0.23c0.15,0.11,0.19,0.25,0.11,0.42
	c-0.09,0.24-0.19,0.47-0.31,0.71c-0.11,0.23-0.21,0.46-0.29,0.67c0.08-0.12,0.19-0.26,0.31-0.43c0.13-0.16,0.27-0.33,0.42-0.5
	c0.15-0.17,0.31-0.33,0.47-0.49C148.66,81.49,148.83,81.36,148.99,81.24L148.99,81.24z M157.99,82.2c-0.13,0.27-0.28,0.63-0.45,1.09
	c-0.17,0.46-0.33,0.95-0.51,1.48c-0.17,0.53-0.32,1.05-0.48,1.57c-0.15,0.52-0.28,0.97-0.38,1.34c0.37-0.25,0.73-0.61,1.09-1.1
	c0.36-0.49,0.7-1.03,1.02-1.61c0.32-0.59,0.62-1.2,0.88-1.82c0.27-0.63,0.5-1.21,0.69-1.73c0.02-0.06,0.07-0.09,0.15-0.09
	c0.08-0.01,0.15,0,0.22,0.02c0.07,0.02,0.14,0.06,0.2,0.1c0.05,0.05,0.08,0.09,0.07,0.13c-0.11,0.35-0.26,0.74-0.43,1.18
	c-0.18,0.44-0.37,0.9-0.59,1.38c-0.21,0.48-0.46,0.95-0.72,1.43c-0.26,0.47-0.54,0.92-0.84,1.32c-0.3,0.4-0.61,0.76-0.94,1.07
	c-0.33,0.31-0.67,0.53-1.02,0.68c-0.08,0.24-0.18,0.53-0.31,0.89c-0.12,0.36-0.28,0.71-0.47,1.05c-0.19,0.34-0.43,0.63-0.71,0.88
	c-0.28,0.25-0.62,0.38-1.01,0.4c-0.38,0.02-0.69-0.11-0.93-0.39c-0.24-0.28-0.36-0.6-0.36-0.96c0-0.39,0.07-0.72,0.2-1
	c0.13-0.28,0.31-0.51,0.53-0.69c0.22-0.18,0.47-0.33,0.76-0.44c0.29-0.11,0.58-0.21,0.9-0.29c0.05-0.2,0.1-0.48,0.17-0.82
	c0.07-0.35,0.14-0.72,0.22-1.13c0.08-0.41,0.16-0.83,0.25-1.28c0.09-0.44,0.18-0.86,0.25-1.25c0.08-0.39,0.15-0.74,0.22-1.06
	c0.07-0.31,0.12-0.56,0.17-0.72c0.08-0.25,0.19-0.46,0.32-0.63c0.13-0.17,0.32-0.25,0.56-0.23c0.17,0.01,0.35,0.04,0.54,0.09
	s0.37,0.12,0.51,0.22c0.14,0.1,0.24,0.22,0.3,0.37C158.13,81.81,158.1,81.99,157.99,82.2L157.99,82.2z M154.24,89.24
	c-0.27,0.08-0.48,0.19-0.64,0.34c-0.17,0.15-0.28,0.29-0.35,0.44c-0.07,0.15-0.1,0.27-0.08,0.38c0.01,0.11,0.05,0.16,0.13,0.16
	c0.27-0.02,0.48-0.17,0.62-0.45C154.07,89.82,154.17,89.54,154.24,89.24L154.24,89.24z M158.14,80.32c-0.1,0.09-0.23,0.13-0.4,0.13
	c-0.16,0-0.32-0.05-0.47-0.13c-0.15-0.08-0.27-0.21-0.36-0.36c-0.09-0.16-0.11-0.34-0.05-0.56c0.03-0.11,0.07-0.24,0.11-0.39
	c0.04-0.15,0.09-0.3,0.13-0.45c0.05-0.15,0.1-0.3,0.16-0.43c0.06-0.14,0.11-0.24,0.17-0.32c0.07-0.07,0.13-0.12,0.2-0.15
	c0.07-0.03,0.15-0.05,0.25-0.07c0.17-0.01,0.35,0.02,0.54,0.08c0.19,0.07,0.36,0.16,0.51,0.28c0.15,0.12,0.26,0.25,0.33,0.4
	c0.07,0.15,0.08,0.29,0.01,0.43L158.14,80.32L158.14,80.32z M160.93,82.05c-0.1,0.19-0.22,0.46-0.38,0.8
	c-0.15,0.34-0.3,0.72-0.44,1.12c-0.15,0.4-0.28,0.81-0.41,1.21c-0.12,0.4-0.2,0.76-0.23,1.08c-0.05,0.29,0,0.46,0.12,0.52
	c0.13,0.05,0.29-0.09,0.48-0.42c0.14-0.25,0.3-0.56,0.46-0.96c0.16-0.39,0.32-0.8,0.49-1.22c0.16-0.42,0.32-0.83,0.47-1.24
	c0.15-0.4,0.28-0.74,0.38-1.03c0.06-0.17,0.1-0.31,0.15-0.44c0.04-0.12,0.08-0.21,0.11-0.25c0.12-0.19,0.31-0.29,0.57-0.29
	c0.17,0,0.34,0.02,0.51,0.06c0.17,0.04,0.32,0.1,0.44,0.18c0.12,0.08,0.21,0.18,0.25,0.3c0.04,0.12,0.02,0.27-0.07,0.45
	c-0.1,0.18-0.22,0.42-0.36,0.73c-0.14,0.31-0.28,0.64-0.43,1.01c-0.14,0.36-0.27,0.73-0.39,1.11c-0.11,0.38-0.19,0.73-0.23,1.05
	c0,0.03,0,0.1-0.02,0.19c-0.01,0.1-0.01,0.19-0.01,0.29c0,0.1,0.01,0.19,0.04,0.27c0.03,0.08,0.08,0.12,0.14,0.14
	c0.11,0,0.27-0.09,0.47-0.25c0.2-0.17,0.44-0.44,0.71-0.82c0.27-0.38,0.56-0.87,0.88-1.48c0.31-0.61,0.63-1.34,0.97-2.22
	c0.02-0.05,0.07-0.09,0.13-0.1c0.07-0.01,0.13,0,0.2,0.02c0.07,0.02,0.12,0.06,0.17,0.11c0.04,0.05,0.06,0.1,0.05,0.16
	c-0.06,0.11-0.15,0.33-0.28,0.66c-0.13,0.32-0.29,0.7-0.47,1.13c-0.18,0.43-0.39,0.87-0.63,1.34c-0.23,0.47-0.48,0.91-0.74,1.3
	c-0.26,0.4-0.52,0.73-0.79,1.01c-0.27,0.27-0.53,0.42-0.79,0.44c-0.45,0.05-0.8-0.08-1.04-0.37c-0.25-0.29-0.38-0.68-0.39-1.16
	c-0.1,0.19-0.21,0.37-0.33,0.55c-0.12,0.18-0.26,0.34-0.41,0.48c-0.15,0.14-0.3,0.25-0.46,0.34c-0.16,0.09-0.32,0.13-0.48,0.13
	c-0.14,0-0.28-0.02-0.44-0.07c-0.16-0.05-0.31-0.13-0.45-0.25c-0.15-0.12-0.27-0.3-0.37-0.54c-0.1-0.24-0.16-0.55-0.17-0.94
	c-0.01-0.4,0.03-0.85,0.12-1.34c0.09-0.49,0.21-0.98,0.34-1.45c0.14-0.48,0.29-0.91,0.44-1.3c0.16-0.39,0.3-0.68,0.42-0.87
	c0.16-0.19,0.36-0.29,0.61-0.29c0.17,0,0.34,0.03,0.51,0.08c0.17,0.05,0.31,0.12,0.43,0.21c0.12,0.09,0.2,0.21,0.23,0.35
	C161.07,81.71,161.03,81.87,160.93,82.05L160.93,82.05z M167.62,80.32c-0.1,0.09-0.23,0.13-0.39,0.13c-0.16,0-0.32-0.05-0.47-0.13
	c-0.15-0.08-0.27-0.21-0.36-0.36c-0.09-0.16-0.1-0.34-0.05-0.56c0.03-0.11,0.07-0.24,0.1-0.39c0.04-0.15,0.09-0.3,0.14-0.45
	c0.05-0.15,0.1-0.3,0.16-0.43c0.06-0.14,0.11-0.24,0.17-0.32c0.07-0.07,0.14-0.12,0.2-0.15c0.07-0.03,0.15-0.05,0.25-0.07
	c0.17-0.01,0.34,0.02,0.54,0.08c0.19,0.07,0.36,0.16,0.51,0.28c0.15,0.12,0.26,0.25,0.33,0.4c0.08,0.15,0.08,0.29,0.01,0.43
	L167.62,80.32L167.62,80.32z M165.81,86.1c0,0.05,0,0.12,0,0.19c0,0.07,0,0.15,0.02,0.22c0.02,0.07,0.04,0.14,0.08,0.2
	c0.03,0.05,0.09,0.09,0.15,0.1c0.13,0,0.3-0.08,0.49-0.24c0.19-0.16,0.39-0.38,0.6-0.66c0.21-0.28,0.42-0.59,0.64-0.94
	c0.22-0.35,0.42-0.71,0.61-1.07c0.19-0.36,0.35-0.71,0.51-1.04c0.15-0.34,0.26-0.63,0.34-0.89c0.02-0.07,0.07-0.1,0.13-0.11
	c0.07,0,0.14,0.01,0.21,0.03c0.07,0.03,0.13,0.07,0.19,0.12c0.05,0.05,0.07,0.1,0.06,0.16c-0.07,0.13-0.17,0.37-0.3,0.72
	c-0.13,0.35-0.3,0.74-0.5,1.17c-0.2,0.43-0.42,0.88-0.66,1.35c-0.25,0.47-0.51,0.9-0.8,1.28c-0.29,0.38-0.59,0.7-0.92,0.95
	c-0.32,0.25-0.65,0.37-0.99,0.37c-0.28,0-0.51-0.04-0.71-0.13c-0.19-0.09-0.34-0.21-0.46-0.37c-0.12-0.16-0.2-0.35-0.25-0.56
	c-0.05-0.22-0.08-0.46-0.08-0.71c0-0.37,0.04-0.78,0.12-1.24c0.08-0.46,0.18-0.9,0.3-1.34c0.12-0.44,0.26-0.86,0.4-1.25
	c0.14-0.39,0.28-0.71,0.42-0.94c0.1-0.19,0.28-0.3,0.53-0.33c0.26-0.03,0.51,0.01,0.74,0.11c0.23,0.1,0.42,0.25,0.55,0.45
	c0.13,0.2,0.13,0.42,0,0.66c-0.1,0.2-0.23,0.45-0.38,0.75c-0.15,0.3-0.3,0.62-0.45,0.96c-0.14,0.34-0.27,0.69-0.38,1.05
	C165.91,85.47,165.84,85.8,165.81,86.1L165.81,86.1z M171.34,84.05c-0.42-0.06-0.59-0.2-0.52-0.42c0.05-0.15,0.1-0.31,0.14-0.48
	c0.05-0.17,0.08-0.32,0.09-0.45c0-0.13-0.02-0.21-0.07-0.26c-0.05-0.05-0.16-0.01-0.33,0.1c-0.18,0.12-0.35,0.32-0.52,0.61
	c-0.17,0.28-0.32,0.59-0.45,0.94c-0.13,0.35-0.23,0.7-0.31,1.07c-0.08,0.36-0.11,0.69-0.11,0.97c0,0.35,0.05,0.6,0.15,0.77
	c0.1,0.16,0.23,0.26,0.4,0.28c0.16,0.02,0.35-0.01,0.56-0.1c0.21-0.09,0.43-0.22,0.66-0.39c0.31-0.23,0.62-0.53,0.92-0.9
	c0.31-0.36,0.6-0.76,0.89-1.18c0.28-0.42,0.56-0.86,0.83-1.32c0.27-0.46,0.53-0.9,0.77-1.33c0.03-0.05,0.09-0.07,0.15-0.07
	c0.07,0,0.13,0.02,0.2,0.05c0.07,0.03,0.12,0.08,0.17,0.13c0.04,0.05,0.05,0.1,0.03,0.14c-0.16,0.28-0.35,0.62-0.57,1.01
	c-0.22,0.39-0.47,0.8-0.74,1.24c-0.27,0.43-0.56,0.86-0.87,1.29c-0.31,0.42-0.63,0.81-0.96,1.14c-0.33,0.34-0.67,0.61-1.03,0.82
	c-0.35,0.21-0.7,0.32-1.05,0.32c-0.36,0-0.67-0.07-0.92-0.21c-0.25-0.14-0.46-0.33-0.63-0.56c-0.17-0.23-0.29-0.5-0.37-0.8
	c-0.08-0.3-0.12-0.61-0.12-0.93c0-0.55,0.09-1.12,0.26-1.7c0.17-0.58,0.41-1.1,0.72-1.56c0.31-0.46,0.68-0.82,1.1-1.08
	c0.43-0.26,0.89-0.34,1.4-0.24c0.25,0.06,0.47,0.16,0.65,0.3c0.19,0.15,0.34,0.33,0.46,0.55c0.11,0.22,0.18,0.47,0.2,0.76
	c0.02,0.29-0.01,0.59-0.1,0.92c-0.09,0.29-0.25,0.47-0.47,0.53C171.73,84.05,171.53,84.07,171.34,84.05L171.34,84.05z"/>
<path class="st1" d="M179.62,81.95c0.02-0.05,0.07-0.09,0.13-0.09c0.07,0,0.13,0.01,0.2,0.03c0.07,0.03,0.12,0.07,0.16,0.12
	c0.04,0.05,0.05,0.1,0.02,0.14c-0.12,0.26-0.29,0.58-0.5,0.97c-0.21,0.39-0.44,0.8-0.71,1.23c-0.26,0.43-0.55,0.86-0.87,1.29
	c-0.31,0.43-0.64,0.82-1,1.18c-0.35,0.35-0.72,0.64-1.1,0.87c-0.37,0.22-0.75,0.34-1.13,0.36c-0.3,0-0.58-0.07-0.82-0.2
	c-0.25-0.13-0.46-0.31-0.65-0.54c-0.19-0.23-0.33-0.5-0.43-0.81c-0.1-0.31-0.15-0.65-0.15-1.02c0-0.47,0.07-0.97,0.21-1.5
	c0.14-0.53,0.35-1.02,0.61-1.46c0.27-0.44,0.6-0.81,0.98-1.11c0.39-0.3,0.83-0.45,1.34-0.45c0.2,0,0.41,0.04,0.61,0.11
	c0.21,0.07,0.39,0.18,0.55,0.33c0.16,0.15,0.29,0.33,0.4,0.56c0.1,0.23,0.16,0.5,0.16,0.82c-0.02,0.59-0.15,1.09-0.38,1.48
	c-0.23,0.39-0.52,0.71-0.85,0.94c-0.34,0.24-0.69,0.4-1.07,0.5c-0.38,0.1-0.72,0.14-1.03,0.14c-0.02,0.15-0.01,0.29,0.02,0.45
	c0.04,0.15,0.1,0.29,0.19,0.4c0.09,0.12,0.19,0.21,0.32,0.29c0.13,0.07,0.28,0.11,0.45,0.11c0.29,0,0.62-0.14,0.99-0.41
	c0.37-0.27,0.74-0.63,1.13-1.1c0.39-0.46,0.77-1.01,1.15-1.63C178.96,83.32,179.31,82.66,179.62,81.95L179.62,81.95z M175.81,82.52
	c-0.1,0.05-0.22,0.17-0.35,0.34c-0.13,0.17-0.27,0.37-0.4,0.61c-0.13,0.24-0.26,0.51-0.37,0.79c-0.11,0.28-0.2,0.57-0.25,0.87
	c0.19-0.02,0.39-0.1,0.58-0.24c0.2-0.13,0.38-0.3,0.54-0.5c0.16-0.2,0.3-0.42,0.41-0.67c0.11-0.25,0.18-0.51,0.2-0.77
	c0.01-0.13,0-0.23-0.02-0.29c-0.03-0.06-0.06-0.11-0.1-0.14c-0.04-0.03-0.08-0.04-0.12-0.03C175.88,82.5,175.84,82.51,175.81,82.52
	L175.81,82.52z"/>
<path class="st16" d="M143.07,238.8c-0.41-0.06-0.59-0.2-0.52-0.42c0.04-0.15,0.09-0.31,0.14-0.48c0.05-0.17,0.08-0.32,0.09-0.45
	c0-0.13-0.01-0.22-0.07-0.26c-0.05-0.05-0.16-0.01-0.33,0.1c-0.18,0.12-0.35,0.32-0.52,0.61c-0.17,0.28-0.31,0.59-0.44,0.94
	c-0.13,0.35-0.23,0.7-0.31,1.07c-0.08,0.36-0.11,0.69-0.11,0.97c0,0.35,0.05,0.6,0.15,0.77c0.1,0.16,0.23,0.25,0.4,0.28
	c0.16,0.02,0.35-0.01,0.56-0.1c0.21-0.09,0.43-0.22,0.66-0.39c0.31-0.23,0.62-0.53,0.93-0.9c0.3-0.36,0.6-0.76,0.88-1.18
	c0.08-0.12,0.16-0.23,0.23-0.35c0.01-0.07,0.03-0.14,0.05-0.2c0.15-0.56,0.36-1.07,0.63-1.53c0.27-0.46,0.58-0.84,0.93-1.14
	c0.35-0.3,0.73-0.45,1.13-0.45c0.07,0,0.15,0.01,0.26,0.02c0.1,0.01,0.21,0.05,0.33,0.11c0.11,0.06,0.22,0.15,0.33,0.27
	c0.11,0.12,0.21,0.28,0.27,0.48c0.26,0.11,0.46,0.36,0.61,0.76c0.14,0.39,0.16,0.96,0.03,1.7c0.09,0.01,0.22-0.01,0.4-0.07
	c0.1-0.03,0.21-0.09,0.32-0.16c0.02-0.07,0.04-0.14,0.06-0.21c0.17-0.58,0.41-1.1,0.72-1.56c0.31-0.46,0.68-0.82,1.1-1.08
	c0.43-0.26,0.89-0.34,1.4-0.24c0.25,0.06,0.46,0.16,0.65,0.3c0.19,0.15,0.34,0.33,0.46,0.55c0.11,0.22,0.18,0.47,0.2,0.76
	c0.02,0.28-0.01,0.59-0.1,0.92c-0.09,0.29-0.25,0.47-0.47,0.53c-0.22,0.06-0.43,0.08-0.62,0.06c-0.41-0.06-0.59-0.2-0.52-0.42
	c0.05-0.15,0.1-0.31,0.14-0.48c0.05-0.17,0.08-0.32,0.09-0.45c0-0.13-0.02-0.22-0.07-0.26c-0.05-0.05-0.16-0.01-0.33,0.1
	c-0.18,0.12-0.35,0.32-0.52,0.61c-0.17,0.28-0.32,0.59-0.45,0.94c-0.13,0.35-0.23,0.7-0.31,1.07c-0.08,0.36-0.12,0.69-0.12,0.97
	c0,0.35,0.05,0.6,0.15,0.77c0.1,0.16,0.23,0.25,0.4,0.28c0.16,0.02,0.35-0.01,0.56-0.1c0.21-0.09,0.43-0.22,0.65-0.39
	c0.31-0.23,0.62-0.53,0.93-0.9c0.31-0.36,0.6-0.76,0.88-1.18c0.17-0.25,0.33-0.5,0.49-0.76c0.05-0.16,0.11-0.32,0.17-0.48
	c0.16-0.44,0.34-0.83,0.55-1.18c0.2-0.35,0.41-0.61,0.62-0.78c0.18-0.14,0.36-0.23,0.55-0.3c0.19-0.06,0.38-0.09,0.56-0.09
	c0.27,0,0.51,0.06,0.72,0.18c0.21,0.12,0.37,0.31,0.47,0.56c0.03-0.08,0.06-0.14,0.08-0.17c0.01-0.03,0.05-0.1,0.11-0.18
	c0.08-0.15,0.22-0.22,0.44-0.21c0.22,0.01,0.43,0.05,0.64,0.14c0.21,0.09,0.39,0.2,0.53,0.35c0.15,0.14,0.19,0.28,0.12,0.41
	c-0.21,0.47-0.42,0.94-0.6,1.4c-0.19,0.46-0.35,0.9-0.49,1.3c-0.14,0.4-0.24,0.76-0.31,1.08c-0.07,0.31-0.09,0.55-0.07,0.72
	c0.02,0.09,0.06,0.14,0.11,0.14c0.05,0,0.1-0.01,0.17-0.05c0.06-0.04,0.12-0.09,0.18-0.15c0.06-0.06,0.1-0.11,0.13-0.14
	c0.22-0.25,0.47-0.57,0.72-0.98c0.26-0.41,0.51-0.83,0.75-1.27c0.24-0.44,0.46-0.86,0.65-1.25c0.2-0.4,0.35-0.71,0.46-0.93
	c0.02-0.05,0.07-0.08,0.14-0.08c0.08,0,0.14,0.01,0.21,0.04c0.07,0.03,0.13,0.07,0.18,0.12c0.05,0.05,0.07,0.1,0.04,0.16
	c-0.07,0.1-0.17,0.32-0.31,0.65c-0.14,0.33-0.31,0.71-0.51,1.14c-0.2,0.43-0.41,0.88-0.64,1.35c-0.24,0.47-0.49,0.91-0.75,1.3
	c-0.27,0.4-0.53,0.72-0.81,0.98c-0.27,0.26-0.54,0.39-0.82,0.39c-0.29,0-0.54-0.1-0.76-0.3c-0.22-0.2-0.36-0.47-0.43-0.81
	c-0.07,0.12-0.15,0.25-0.25,0.38c-0.1,0.13-0.21,0.25-0.33,0.35c-0.12,0.1-0.26,0.2-0.42,0.27c-0.15,0.07-0.31,0.11-0.5,0.12
	c-0.48,0-0.88-0.16-1.21-0.49c-0.33-0.33-0.49-0.83-0.49-1.49c0-0.16,0.01-0.34,0.03-0.51l-0.15,0.21
	c-0.31,0.42-0.63,0.81-0.96,1.14c-0.33,0.34-0.67,0.61-1.03,0.82c-0.35,0.21-0.71,0.32-1.05,0.32c-0.36,0-0.67-0.07-0.92-0.21
	c-0.25-0.14-0.47-0.33-0.63-0.56c-0.17-0.24-0.29-0.5-0.37-0.8c-0.08-0.3-0.12-0.61-0.12-0.93c0-0.13,0-0.26,0.01-0.39
	c-0.26,0.12-0.52,0.18-0.77,0.16c-0.22,0.84-0.56,1.53-1.02,2.07c-0.45,0.54-1,0.81-1.64,0.81c-0.24,0-0.51-0.06-0.79-0.19
	c-0.37-0.19-0.64-0.49-0.82-0.91c-0.18-0.41-0.26-0.88-0.26-1.41v-0.02l-0.08,0.11c-0.31,0.42-0.62,0.81-0.96,1.14
	c-0.33,0.34-0.67,0.61-1.03,0.82c-0.35,0.21-0.7,0.32-1.05,0.32c-0.36,0-0.66-0.07-0.92-0.21c-0.25-0.14-0.46-0.33-0.63-0.56
	c-0.17-0.24-0.3-0.5-0.37-0.8c-0.08-0.3-0.12-0.61-0.12-0.93c0-0.55,0.09-1.12,0.26-1.7c0.17-0.58,0.42-1.1,0.72-1.56
	c0.31-0.46,0.67-0.82,1.1-1.08c0.43-0.26,0.89-0.34,1.4-0.24c0.25,0.06,0.47,0.16,0.66,0.3c0.19,0.15,0.34,0.33,0.45,0.55
	c0.11,0.22,0.18,0.47,0.2,0.76c0.02,0.28-0.01,0.59-0.1,0.92c-0.09,0.29-0.25,0.47-0.47,0.53
	C143.47,238.8,143.26,238.82,143.07,238.8L143.07,238.8z M158.6,237.69c0-0.03,0-0.09-0.01-0.16c0-0.07-0.01-0.14-0.03-0.21
	c-0.01-0.07-0.04-0.13-0.07-0.19c-0.03-0.05-0.06-0.08-0.11-0.08c-0.13,0-0.28,0.1-0.44,0.31c-0.16,0.21-0.32,0.47-0.47,0.78
	c-0.15,0.31-0.3,0.66-0.43,1.04c-0.13,0.38-0.24,0.74-0.32,1.08c-0.02,0.1-0.05,0.24-0.08,0.42c-0.03,0.18-0.06,0.36-0.06,0.53
	c0,0.17,0.01,0.33,0.04,0.46c0.03,0.13,0.1,0.19,0.22,0.19c0.15,0,0.29-0.08,0.44-0.25c0.14-0.16,0.28-0.37,0.41-0.63
	c0.13-0.26,0.25-0.54,0.36-0.86c0.11-0.31,0.21-0.62,0.29-0.93c0.09-0.31,0.15-0.6,0.2-0.87
	C158.58,238.06,158.6,237.84,158.6,237.69L158.6,237.69z M146.4,242.07c0.16,0,0.31-0.08,0.45-0.25c0.14-0.17,0.28-0.38,0.41-0.63
	c0.12-0.25,0.22-0.52,0.3-0.81c0.08-0.29,0.13-0.55,0.15-0.78c-0.1-0.07-0.19-0.17-0.26-0.3c-0.07-0.13-0.13-0.28-0.17-0.45
	c-0.04-0.16-0.06-0.33-0.07-0.5c0-0.17,0.02-0.31,0.08-0.44c-0.16,0.06-0.31,0.2-0.47,0.42c-0.16,0.22-0.3,0.49-0.43,0.8
	c-0.13,0.31-0.24,0.64-0.33,0.98c-0.09,0.35-0.14,0.67-0.16,0.95c-0.02,0.29,0.01,0.52,0.08,0.71
	C146.06,241.98,146.2,242.07,146.4,242.07L146.4,242.07z"/>
<path class="st1" d="M162.7,166.1c0.18-0.13,0.36-0.23,0.55-0.29c0.19-0.06,0.38-0.09,0.55-0.09c0.27,0,0.51,0.06,0.72,0.18
	c0.21,0.12,0.37,0.31,0.47,0.56c0.03-0.08,0.06-0.13,0.07-0.17c0.02-0.04,0.06-0.1,0.11-0.19c0.08-0.15,0.23-0.21,0.45-0.21
	c0.22,0,0.43,0.05,0.64,0.14c0.21,0.09,0.38,0.21,0.53,0.35c0.14,0.14,0.18,0.28,0.11,0.41c-0.21,0.47-0.41,0.94-0.6,1.4
	c-0.18,0.47-0.35,0.9-0.49,1.3c-0.14,0.41-0.24,0.76-0.31,1.08c-0.07,0.31-0.09,0.55-0.07,0.72c0.02,0.09,0.06,0.14,0.11,0.14
	c0.05,0,0.1-0.01,0.17-0.05c0.06-0.04,0.12-0.09,0.18-0.15c0.06-0.06,0.1-0.11,0.13-0.14c0.22-0.25,0.47-0.57,0.72-0.98
	c0.26-0.41,0.51-0.83,0.75-1.27c0.24-0.44,0.46-0.85,0.65-1.25c0.2-0.4,0.35-0.71,0.46-0.93c0.02-0.06,0.07-0.09,0.14-0.09
	c0.07,0,0.14,0.01,0.21,0.04c0.07,0.03,0.12,0.07,0.18,0.12c0.05,0.05,0.07,0.1,0.04,0.16c-0.07,0.1-0.17,0.32-0.31,0.65
	c-0.14,0.33-0.31,0.71-0.51,1.14c-0.2,0.43-0.41,0.88-0.65,1.35c-0.23,0.47-0.48,0.9-0.75,1.3c-0.26,0.4-0.53,0.73-0.81,0.98
	c-0.27,0.26-0.55,0.39-0.82,0.39c-0.29,0-0.54-0.1-0.76-0.3c-0.22-0.2-0.36-0.47-0.43-0.81c-0.07,0.12-0.15,0.25-0.25,0.38
	c-0.1,0.13-0.21,0.25-0.34,0.36c-0.12,0.1-0.26,0.2-0.41,0.27c-0.15,0.07-0.31,0.11-0.5,0.13c-0.48,0-0.89-0.16-1.21-0.5
	c-0.2-0.2-0.33-0.46-0.41-0.78c-0.23,0.35-0.48,0.64-0.73,0.88c-0.28,0.26-0.57,0.39-0.86,0.39c-0.21,0-0.4-0.03-0.58-0.08
	c-0.19-0.06-0.35-0.15-0.49-0.28c-0.14-0.13-0.26-0.3-0.34-0.52c-0.09-0.22-0.14-0.49-0.15-0.82c0-0.06,0-0.13,0-0.2
	c-0.13,0.2-0.26,0.4-0.4,0.58c-0.29,0.38-0.59,0.7-0.92,0.95c-0.32,0.25-0.66,0.37-0.99,0.37c-0.28,0-0.51-0.05-0.71-0.13
	c-0.19-0.09-0.34-0.21-0.46-0.38c-0.12-0.16-0.2-0.35-0.25-0.56c-0.04-0.17-0.06-0.35-0.07-0.55l-0.1,0.16
	c-0.26,0.4-0.52,0.73-0.79,1.01c-0.27,0.27-0.53,0.42-0.79,0.45c-0.45,0.05-0.8-0.08-1.04-0.37c-0.25-0.29-0.38-0.68-0.39-1.16
	c-0.1,0.19-0.21,0.38-0.34,0.56c-0.12,0.18-0.26,0.34-0.4,0.48c-0.15,0.14-0.3,0.26-0.46,0.34c-0.16,0.09-0.32,0.14-0.48,0.14
	c-0.13,0-0.28-0.02-0.43-0.07c-0.16-0.05-0.31-0.13-0.45-0.25c-0.15-0.12-0.27-0.3-0.37-0.54c-0.1-0.23-0.16-0.55-0.17-0.94
	c0-0.06,0-0.12,0-0.19c-0.07,0.1-0.15,0.19-0.22,0.28c-0.23,0.27-0.44,0.49-0.65,0.65c0.05,0.28,0.08,0.55,0.09,0.8
	c0.01,0.25,0.02,0.49,0.02,0.71c0,1.04-0.13,1.87-0.4,2.5s-0.67,0.94-1.2,0.95c-0.34,0.01-0.61-0.09-0.82-0.31
	c-0.21-0.22-0.37-0.52-0.48-0.9c-0.1-0.38-0.16-0.83-0.16-1.34c0-0.52,0.04-1.07,0.13-1.66c-0.1,0.08-0.22,0.15-0.35,0.21
	c-0.13,0.06-0.29,0.1-0.45,0.11c-0.55,0-0.97-0.19-1.26-0.58c-0.26-0.35-0.41-0.78-0.43-1.29c-0.2,0.24-0.41,0.47-0.62,0.68
	c-0.35,0.35-0.72,0.64-1.09,0.87c-0.38,0.22-0.75,0.34-1.13,0.35c-0.3,0-0.58-0.06-0.82-0.19c-0.24-0.13-0.46-0.31-0.64-0.54
	c-0.18-0.22-0.32-0.48-0.42-0.78l-0.04,0.07c-0.26,0.4-0.51,0.74-0.78,1c-0.26,0.26-0.51,0.4-0.75,0.41
	c-0.47,0.02-0.84-0.1-1.11-0.37c-0.27-0.27-0.43-0.66-0.49-1.16c-0.06-0.48-0.02-1.08,0.09-1.79c0.12-0.71,0.27-1.47,0.46-2.28
	l-0.25-0.02c-0.19-0.01-0.32-0.04-0.39-0.09c-0.08-0.05-0.11-0.11-0.11-0.19c0-0.12,0.03-0.25,0.11-0.39
	c0.07-0.13,0.19-0.19,0.34-0.17c0.09,0.01,0.18,0.02,0.26,0.03c0.08,0,0.17,0.01,0.26,0.01c0.17-0.62,0.35-1.22,0.55-1.82
	c0.2-0.59,0.39-1.14,0.57-1.63c0.18-0.49,0.35-0.92,0.51-1.27c0.16-0.35,0.28-0.6,0.37-0.73c0.09-0.15,0.24-0.22,0.45-0.22
	c0.18,0,0.37,0.03,0.56,0.1c0.2,0.07,0.37,0.16,0.51,0.26c0.15,0.11,0.25,0.23,0.31,0.38c0.06,0.15,0.03,0.3-0.07,0.45
	c-0.07,0.09-0.17,0.28-0.3,0.56c-0.13,0.29-0.28,0.63-0.44,1.03c-0.17,0.4-0.35,0.85-0.54,1.35c-0.19,0.5-0.38,1.01-0.55,1.54h0.47
	c0.07,0,0.11,0.04,0.13,0.13c0.02,0.08,0.03,0.18,0.01,0.28c-0.01,0.1-0.06,0.2-0.11,0.29c-0.06,0.09-0.14,0.14-0.25,0.15
	c-0.09,0.01-0.18,0.02-0.27,0.03c-0.09,0-0.19,0.01-0.29,0.02c-0.16,0.46-0.3,0.91-0.42,1.34c-0.12,0.43-0.23,0.83-0.31,1.2
	c-0.09,0.37-0.14,0.7-0.18,0.98c-0.03,0.28-0.03,0.49,0.01,0.64c0.02,0.07,0.07,0.1,0.13,0.12c0.07,0.01,0.13,0,0.19-0.03
	c0.12-0.08,0.27-0.22,0.44-0.43c0.17-0.21,0.35-0.45,0.54-0.73c0.07-0.1,0.14-0.21,0.21-0.31c0.02-0.4,0.09-0.83,0.21-1.28
	c0.14-0.53,0.34-1.02,0.62-1.46c0.27-0.44,0.6-0.81,0.98-1.11c0.39-0.3,0.83-0.45,1.34-0.45c0.2,0,0.41,0.04,0.61,0.11
	c0.21,0.07,0.39,0.18,0.54,0.33c0.16,0.15,0.29,0.33,0.4,0.56c0.11,0.23,0.16,0.5,0.16,0.82c-0.02,0.59-0.15,1.09-0.38,1.48
	c-0.23,0.39-0.51,0.71-0.84,0.94c-0.34,0.23-0.7,0.4-1.07,0.5c-0.38,0.1-0.72,0.14-1.03,0.14c-0.02,0.15-0.01,0.29,0.02,0.44
	c0.04,0.15,0.1,0.29,0.19,0.4c0.08,0.12,0.19,0.21,0.32,0.29c0.13,0.07,0.28,0.11,0.44,0.11c0.29,0,0.62-0.13,0.99-0.4
	c0.37-0.27,0.75-0.64,1.13-1.1c0.11-0.14,0.23-0.28,0.34-0.43c0.02-0.14,0.06-0.28,0.1-0.43c0.12-0.47,0.27-0.93,0.46-1.39
	c0.19-0.45,0.4-0.86,0.62-1.23c0.22-0.36,0.45-0.62,0.67-0.78c0.18-0.12,0.37-0.21,0.56-0.27c0.19-0.05,0.38-0.08,0.57-0.08
	c0.27,0,0.52,0.05,0.73,0.15c0.22,0.1,0.38,0.27,0.48,0.52c0.03-0.09,0.07-0.19,0.1-0.3c0.03-0.1,0.09-0.18,0.18-0.21
	c0.11-0.04,0.27-0.04,0.49,0.02c0.21,0.06,0.41,0.15,0.59,0.29c0.18,0.14,0.31,0.31,0.4,0.51c0.09,0.21,0.06,0.45-0.08,0.72
	c-0.37,0.73-0.65,1.37-0.85,1.92c-0.2,0.55-0.33,0.99-0.41,1.33c0.25-0.08,0.49-0.21,0.73-0.4c0.24-0.19,0.49-0.44,0.75-0.76
	c0.09-0.1,0.17-0.21,0.26-0.32c0.07-0.34,0.16-0.68,0.26-1.01c0.14-0.48,0.29-0.91,0.44-1.3c0.16-0.39,0.3-0.68,0.42-0.87
	c0.16-0.19,0.36-0.29,0.61-0.29c0.17,0,0.34,0.02,0.51,0.07c0.17,0.05,0.31,0.12,0.43,0.21c0.11,0.09,0.19,0.2,0.22,0.34
	c0.04,0.14,0,0.3-0.1,0.48c-0.1,0.19-0.22,0.46-0.38,0.8c-0.15,0.34-0.3,0.71-0.44,1.12c-0.15,0.4-0.28,0.81-0.41,1.21
	c-0.12,0.41-0.2,0.76-0.23,1.08c-0.05,0.29,0,0.46,0.12,0.52c0.13,0.06,0.29-0.08,0.48-0.42c0.15-0.25,0.3-0.57,0.46-0.96
	c0.16-0.39,0.33-0.8,0.49-1.22c0.16-0.42,0.32-0.83,0.47-1.24c0.15-0.4,0.28-0.75,0.38-1.03c0.05-0.17,0.1-0.31,0.15-0.44
	c0.05-0.12,0.09-0.21,0.12-0.25c0.12-0.19,0.31-0.29,0.57-0.29c0.17,0,0.34,0.02,0.51,0.06c0.18,0.04,0.32,0.1,0.45,0.18
	c0.12,0.08,0.21,0.18,0.25,0.3c0.04,0.12,0.02,0.27-0.07,0.46c-0.1,0.18-0.22,0.42-0.36,0.73c-0.14,0.31-0.29,0.65-0.43,1.01
	c-0.15,0.36-0.28,0.73-0.39,1.11c-0.11,0.37-0.19,0.72-0.24,1.05c0,0.03,0,0.1-0.01,0.19c-0.01,0.1-0.01,0.19-0.01,0.29
	s0.01,0.19,0.04,0.27c0.03,0.08,0.08,0.12,0.14,0.13c0.11,0,0.27-0.08,0.47-0.25c0.2-0.17,0.44-0.44,0.71-0.82
	c0.17-0.25,0.35-0.53,0.54-0.87c0.07-0.38,0.16-0.75,0.26-1.12c0.12-0.44,0.26-0.86,0.4-1.25c0.14-0.39,0.28-0.71,0.41-0.94
	c0.1-0.19,0.28-0.3,0.54-0.33c0.26-0.03,0.51,0.01,0.74,0.11c0.24,0.1,0.42,0.25,0.56,0.44c0.13,0.2,0.13,0.42,0,0.67
	c-0.1,0.2-0.23,0.45-0.38,0.75c-0.15,0.3-0.3,0.62-0.44,0.96c-0.15,0.34-0.27,0.69-0.38,1.05c-0.11,0.36-0.18,0.69-0.21,0.99
	c0,0.06,0,0.12,0,0.19c0,0.07,0,0.15,0.02,0.22c0.01,0.07,0.04,0.14,0.08,0.19c0.03,0.06,0.08,0.09,0.15,0.1
	c0.13,0,0.3-0.08,0.49-0.24c0.19-0.16,0.39-0.38,0.6-0.66c0.21-0.27,0.42-0.59,0.64-0.94c0.13-0.21,0.26-0.43,0.38-0.65
	c0.09-0.51,0.21-1.04,0.34-1.59c0.17-0.7,0.36-1.41,0.57-2.12c0.21-0.71,0.42-1.37,0.64-1.97c0.21-0.61,0.41-1.13,0.59-1.57
	c0.18-0.44,0.32-0.75,0.43-0.92c0.09-0.15,0.25-0.22,0.47-0.22c0.18,0,0.37,0.03,0.56,0.1c0.2,0.07,0.37,0.16,0.51,0.26
	c0.14,0.11,0.24,0.23,0.3,0.38c0.06,0.15,0.03,0.3-0.07,0.45c-0.09,0.12-0.23,0.41-0.43,0.87c-0.2,0.46-0.42,1-0.66,1.63
	c-0.25,0.63-0.5,1.31-0.76,2.03c-0.26,0.72-0.48,1.42-0.68,2.09c-0.2,0.67-0.35,1.26-0.45,1.79c-0.1,0.53-0.11,0.9-0.05,1.13
	c0.02,0.07,0.06,0.11,0.12,0.12c0.06,0.01,0.12,0,0.18-0.03c0.18-0.11,0.39-0.32,0.64-0.62c0.22-0.27,0.44-0.58,0.68-0.95
	c0.02-0.14,0.05-0.29,0.08-0.45c0.1-0.47,0.23-0.93,0.4-1.36c0.16-0.44,0.34-0.83,0.54-1.18
	C162.27,166.53,162.48,166.27,162.7,166.1L162.7,166.1z M139.8,167.23c-0.1,0.06-0.22,0.17-0.35,0.34
	c-0.13,0.17-0.27,0.37-0.41,0.61c-0.13,0.24-0.26,0.5-0.37,0.79c-0.11,0.29-0.2,0.57-0.25,0.87c0.19-0.02,0.39-0.1,0.58-0.23
	c0.2-0.14,0.37-0.3,0.53-0.5c0.16-0.2,0.3-0.42,0.41-0.67c0.11-0.25,0.18-0.51,0.2-0.77c0.01-0.14,0-0.23-0.02-0.3
	c-0.03-0.06-0.06-0.1-0.1-0.13c-0.04-0.03-0.08-0.04-0.12-0.03C139.87,167.21,139.83,167.22,139.8,167.23L139.8,167.23z
	 M145.4,167.06c-0.04-0.16-0.1-0.24-0.19-0.24c-0.12,0-0.26,0.1-0.42,0.29c-0.16,0.19-0.31,0.43-0.47,0.72
	c-0.16,0.29-0.31,0.62-0.46,0.98c-0.15,0.36-0.28,0.71-0.39,1.06c-0.11,0.35-0.2,0.66-0.25,0.94c-0.06,0.28-0.07,0.49-0.03,0.64
	c0.04,0.26,0.13,0.39,0.25,0.39c0.13,0,0.29-0.1,0.47-0.3c0.18-0.2,0.36-0.45,0.54-0.76c0.07-0.12,0.16-0.33,0.28-0.63
	c0.12-0.3,0.23-0.62,0.34-0.96c0.1-0.34,0.2-0.68,0.28-1.01c0.08-0.33,0.11-0.59,0.11-0.78
	C145.45,167.27,145.43,167.16,145.4,167.06L145.4,167.06z M145.67,175.48c0.12,0,0.23-0.12,0.32-0.38c0.09-0.25,0.15-0.56,0.19-0.93
	c0.03-0.37,0.04-0.76,0.02-1.17c-0.01-0.41-0.07-0.76-0.18-1.07c-0.13,0.49-0.23,0.98-0.3,1.47c-0.07,0.49-0.11,0.87-0.13,1.17
	c-0.01,0.22-0.01,0.43,0.01,0.62C145.61,175.39,145.63,175.48,145.67,175.48L145.67,175.48z M157.57,165.03
	c-0.1,0.09-0.23,0.13-0.4,0.13c-0.16,0-0.32-0.05-0.47-0.14c-0.15-0.08-0.27-0.2-0.36-0.36c-0.09-0.16-0.1-0.34-0.05-0.56
	c0.03-0.11,0.07-0.24,0.11-0.4c0.04-0.15,0.09-0.3,0.14-0.45c0.05-0.15,0.1-0.29,0.16-0.43c0.06-0.13,0.11-0.24,0.17-0.32
	c0.07-0.07,0.13-0.12,0.21-0.15c0.07-0.03,0.15-0.06,0.25-0.07c0.17-0.01,0.34,0.02,0.53,0.08s0.36,0.16,0.52,0.28
	c0.15,0.12,0.26,0.25,0.33,0.41c0.07,0.15,0.08,0.29,0.01,0.43L157.57,165.03L157.57,165.03z M164.5,167.65c0-0.03,0-0.09-0.01-0.16
	c0-0.07-0.02-0.14-0.03-0.21c-0.01-0.07-0.04-0.13-0.07-0.19c-0.03-0.05-0.07-0.08-0.11-0.08c-0.13,0-0.28,0.1-0.44,0.31
	c-0.17,0.21-0.32,0.47-0.47,0.78c-0.15,0.31-0.3,0.66-0.43,1.04c-0.13,0.38-0.24,0.74-0.32,1.08c-0.02,0.1-0.05,0.24-0.09,0.42
	s-0.05,0.36-0.06,0.53c0,0.17,0.01,0.32,0.04,0.45c0.03,0.13,0.1,0.19,0.22,0.19c0.14,0,0.29-0.08,0.43-0.24
	c0.15-0.16,0.29-0.37,0.41-0.63c0.13-0.26,0.25-0.54,0.36-0.86c0.11-0.31,0.21-0.62,0.3-0.93c0.09-0.31,0.15-0.6,0.2-0.87
	C164.47,168.02,164.5,167.81,164.5,167.65L164.5,167.65z"/>
<path class="st1" d="M144.38,131.29c-0.26,0.09-0.46,0.21-0.62,0.35c-0.15,0.14-0.26,0.28-0.33,0.41c-0.07,0.14-0.1,0.25-0.09,0.35
	c0,0.1,0.04,0.15,0.11,0.15c0.13,0,0.25-0.04,0.34-0.12c0.1-0.08,0.18-0.18,0.25-0.3c0.07-0.12,0.14-0.26,0.2-0.4
	C144.3,131.58,144.35,131.43,144.38,131.29L144.38,131.29z M156.19,123.34c0.21-0.13,0.43-0.19,0.64-0.17
	c0.21,0.02,0.4,0.1,0.55,0.25c0.15,0.14,0.26,0.34,0.33,0.59c0.07,0.25,0.06,0.54-0.02,0.88c-0.04,0.2-0.12,0.47-0.23,0.82
	c-0.11,0.34-0.22,0.7-0.34,1.07c-0.11,0.37-0.21,0.73-0.3,1.08c-0.09,0.35-0.14,0.62-0.14,0.82c0,0.03,0.01,0.08,0.03,0.13
	c0.01,0.05,0.05,0.08,0.11,0.08c0.09,0,0.24-0.1,0.46-0.3c0.21-0.2,0.47-0.51,0.76-0.91c0.29-0.4,0.61-0.9,0.94-1.5
	c0.34-0.59,0.67-1.28,1.01-2.05c0.02-0.05,0.07-0.09,0.13-0.09c0.07,0,0.13,0.01,0.2,0.04c0.07,0.03,0.12,0.07,0.16,0.13
	c0.04,0.05,0.05,0.1,0.04,0.15c-0.06,0.11-0.15,0.32-0.29,0.64c-0.13,0.31-0.31,0.68-0.51,1.09c-0.2,0.41-0.43,0.85-0.68,1.3
	c-0.25,0.45-0.52,0.87-0.8,1.27c-0.28,0.39-0.57,0.72-0.86,0.99c-0.29,0.27-0.58,0.42-0.87,0.47c-0.27,0.02-0.5,0-0.68-0.07
	c-0.19-0.07-0.33-0.17-0.44-0.32c-0.11-0.15-0.2-0.32-0.25-0.52c-0.05-0.2-0.07-0.42-0.07-0.65c0-0.36,0.05-0.75,0.16-1.19
	c0.1-0.43,0.2-0.86,0.3-1.28c0.07-0.3,0.08-0.51,0.04-0.63c-0.04-0.12-0.11-0.16-0.21-0.14c-0.1,0.03-0.21,0.11-0.34,0.26
	c-0.13,0.15-0.24,0.33-0.34,0.56c-0.1,0.22-0.21,0.48-0.34,0.77c-0.12,0.29-0.23,0.58-0.34,0.87c-0.1,0.3-0.21,0.58-0.3,0.87
	c-0.1,0.28-0.17,0.53-0.21,0.74c-0.05,0.2-0.14,0.39-0.29,0.56c-0.15,0.17-0.36,0.23-0.64,0.18c-0.21-0.02-0.35-0.14-0.45-0.34
	c-0.1-0.21-0.14-0.4-0.14-0.56c0-0.18,0.01-0.38,0.04-0.61c-0.05,0.07-0.1,0.14-0.15,0.21c-0.28,0.38-0.59,0.7-0.92,0.95
	c-0.32,0.25-0.65,0.37-0.99,0.37c-0.28,0-0.51-0.04-0.71-0.13c-0.19-0.09-0.34-0.21-0.46-0.37c-0.11-0.16-0.2-0.35-0.25-0.56
	c-0.04-0.17-0.06-0.34-0.07-0.53c-0.16,0.24-0.32,0.47-0.49,0.69c-0.29,0.38-0.6,0.7-0.93,0.98c-0.32,0.28-0.66,0.48-1.01,0.61
	c-0.08,0.24-0.19,0.53-0.32,0.87c-0.13,0.35-0.31,0.68-0.52,1c-0.21,0.32-0.46,0.59-0.75,0.81c-0.29,0.22-0.62,0.32-1,0.29
	c-0.27-0.01-0.5-0.09-0.68-0.23c-0.19-0.15-0.32-0.33-0.4-0.55c-0.09-0.22-0.12-0.46-0.11-0.72c0.01-0.26,0.08-0.5,0.2-0.72
	c0.2-0.38,0.52-0.68,0.94-0.89c0.43-0.21,0.86-0.38,1.31-0.49l0.21-0.69c-0.1,0.19-0.25,0.34-0.45,0.46
	c-0.2,0.11-0.39,0.17-0.56,0.17c-0.47-0.02-0.84-0.21-1.13-0.57c-0.28-0.36-0.42-0.83-0.42-1.41c0-0.36,0.06-0.78,0.19-1.26
	c0.12-0.48,0.28-0.95,0.46-1.41c0.18-0.46,0.39-0.87,0.62-1.24c0.23-0.37,0.44-0.63,0.65-0.79c0.18-0.12,0.36-0.21,0.54-0.27
	c0.19-0.05,0.36-0.08,0.53-0.08c0.26,0,0.51,0.06,0.76,0.18c0.25,0.12,0.42,0.32,0.52,0.59c0.02-0.07,0.06-0.13,0.1-0.2
	c0.05-0.07,0.08-0.13,0.1-0.19c0.07-0.1,0.2-0.14,0.4-0.13c0.2,0.02,0.4,0.08,0.6,0.18c0.2,0.1,0.36,0.23,0.49,0.39
	c0.13,0.16,0.15,0.33,0.07,0.51c-0.17,0.34-0.35,0.74-0.54,1.21c-0.2,0.47-0.39,0.96-0.59,1.47c-0.2,0.51-0.38,1.01-0.55,1.49
	c-0.17,0.49-0.31,0.92-0.43,1.29c0.37-0.22,0.73-0.55,1.08-0.97c0.35-0.42,0.68-0.89,1-1.42c0.08-0.13,0.16-0.26,0.23-0.4
	c0.08-0.44,0.18-0.88,0.3-1.31c0.12-0.44,0.25-0.86,0.4-1.25c0.14-0.39,0.28-0.71,0.41-0.94c0.1-0.19,0.28-0.3,0.54-0.33
	c0.26-0.03,0.5,0.01,0.74,0.11c0.23,0.1,0.42,0.25,0.55,0.45c0.13,0.2,0.13,0.42,0,0.66c-0.1,0.2-0.22,0.45-0.38,0.75
	c-0.15,0.3-0.3,0.62-0.45,0.96c-0.14,0.34-0.27,0.69-0.38,1.05c-0.1,0.36-0.18,0.69-0.21,0.99c0,0.05,0,0.12,0,0.19
	c0,0.07,0.01,0.15,0.02,0.22c0.02,0.07,0.04,0.14,0.08,0.2c0.03,0.05,0.09,0.09,0.15,0.1c0.13,0,0.3-0.08,0.49-0.25
	c0.19-0.16,0.39-0.38,0.6-0.65c0.21-0.28,0.42-0.59,0.64-0.94c0.13-0.21,0.25-0.42,0.37-0.63c0.13-0.5,0.27-1,0.43-1.52
	c0.17-0.55,0.33-1.08,0.5-1.57c0.05-0.12,0.18-0.2,0.39-0.24c0.21-0.03,0.42-0.03,0.64,0.02c0.22,0.05,0.41,0.12,0.56,0.24
	c0.15,0.11,0.19,0.25,0.11,0.42c-0.09,0.24-0.19,0.47-0.31,0.71c-0.11,0.24-0.21,0.46-0.29,0.67c0.08-0.12,0.18-0.27,0.31-0.43
	c0.13-0.16,0.27-0.33,0.42-0.5c0.15-0.17,0.31-0.33,0.47-0.49C155.86,123.58,156.03,123.45,156.19,123.34L156.19,123.34z
	 M146.04,124.78c0-0.03,0-0.08-0.01-0.14c0-0.06-0.01-0.12-0.03-0.18c-0.01-0.06-0.04-0.12-0.07-0.17
	c-0.03-0.05-0.07-0.08-0.11-0.08c-0.12,0-0.26,0.1-0.42,0.29c-0.16,0.19-0.31,0.44-0.47,0.74c-0.16,0.3-0.31,0.63-0.46,1
	c-0.15,0.36-0.28,0.72-0.4,1.07c-0.04,0.13-0.09,0.32-0.14,0.55c-0.05,0.23-0.09,0.45-0.11,0.66c-0.02,0.21-0.02,0.38,0,0.52
	c0.03,0.14,0.1,0.2,0.23,0.16c0.19-0.04,0.37-0.17,0.54-0.37c0.18-0.2,0.33-0.44,0.48-0.72c0.14-0.28,0.28-0.58,0.4-0.92
	c0.12-0.33,0.22-0.65,0.3-0.96c0.09-0.31,0.15-0.59,0.2-0.85C146.02,125.11,146.04,124.92,146.04,124.78L146.04,124.78z
	 M151.93,122.41c-0.1,0.09-0.23,0.13-0.4,0.13c-0.16,0-0.32-0.05-0.47-0.13c-0.15-0.09-0.27-0.21-0.36-0.36
	c-0.09-0.16-0.1-0.34-0.05-0.56c0.03-0.11,0.07-0.24,0.11-0.39c0.04-0.15,0.08-0.3,0.13-0.46c0.05-0.15,0.1-0.29,0.16-0.43
	c0.06-0.13,0.11-0.24,0.17-0.32c0.07-0.07,0.13-0.12,0.2-0.15c0.07-0.03,0.15-0.05,0.25-0.07c0.17-0.01,0.35,0.02,0.54,0.08
	c0.19,0.07,0.36,0.16,0.51,0.28c0.15,0.12,0.26,0.25,0.34,0.4c0.07,0.15,0.08,0.29,0,0.43L151.93,122.41L151.93,122.41z"/>
<path class="st16" d="M154.11,138.95c0.09-0.15,0.24-0.22,0.47-0.22c0.18,0,0.37,0.03,0.56,0.1c0.2,0.07,0.37,0.16,0.51,0.26
	c0.14,0.1,0.24,0.23,0.3,0.38c0.06,0.15,0.03,0.3-0.07,0.45c-0.09,0.12-0.23,0.41-0.43,0.87c-0.2,0.45-0.42,1-0.66,1.63
	c-0.25,0.63-0.5,1.31-0.76,2.04c-0.26,0.72-0.48,1.42-0.68,2.08c-0.2,0.67-0.35,1.26-0.45,1.79s-0.11,0.9-0.05,1.13
	c0.02,0.07,0.06,0.11,0.12,0.12c0.06,0.01,0.12,0,0.18-0.03c0.18-0.11,0.39-0.32,0.64-0.62c0.25-0.3,0.5-0.67,0.77-1.09l0.1-0.16
	c0.07-0.41,0.17-0.81,0.28-1.2c0.12-0.44,0.25-0.86,0.4-1.25c0.14-0.39,0.28-0.71,0.41-0.94c0.1-0.19,0.28-0.3,0.54-0.33
	c0.26-0.03,0.51,0.01,0.74,0.11c0.23,0.1,0.42,0.25,0.55,0.45c0.13,0.2,0.13,0.42,0,0.66c-0.1,0.2-0.22,0.45-0.38,0.75
	c-0.15,0.3-0.3,0.62-0.44,0.96c-0.15,0.34-0.27,0.69-0.38,1.05c-0.1,0.36-0.18,0.69-0.21,0.99c0,0.06,0,0.12,0,0.19
	c0,0.07,0.01,0.15,0.02,0.22c0.02,0.07,0.04,0.14,0.08,0.19c0.03,0.06,0.09,0.09,0.15,0.1c0.13,0,0.3-0.08,0.49-0.25
	c0.19-0.16,0.39-0.38,0.6-0.65c0.14-0.19,0.29-0.4,0.44-0.62c0.03-0.18,0.07-0.38,0.12-0.58c0.11-0.47,0.27-0.93,0.46-1.39
	c0.19-0.46,0.4-0.86,0.62-1.23c0.22-0.36,0.45-0.62,0.67-0.78c0.18-0.12,0.37-0.21,0.55-0.27c0.19-0.05,0.38-0.08,0.57-0.08
	c0.27,0,0.51,0.05,0.73,0.15c0.21,0.1,0.38,0.28,0.48,0.52c0.03-0.09,0.07-0.19,0.1-0.29c0.02-0.11,0.09-0.18,0.18-0.21
	c0.11-0.04,0.27-0.04,0.49,0.02c0.21,0.06,0.41,0.15,0.59,0.29c0.18,0.14,0.31,0.31,0.4,0.51c0.09,0.21,0.06,0.45-0.08,0.72
	c-0.37,0.73-0.65,1.37-0.85,1.92c-0.2,0.55-0.33,0.99-0.41,1.33c0.24-0.08,0.49-0.21,0.73-0.41c0.24-0.19,0.49-0.44,0.75-0.76
	c0.09-0.1,0.17-0.21,0.26-0.32c0.07-0.34,0.16-0.68,0.25-1.01c0.14-0.48,0.29-0.91,0.45-1.3c0.16-0.39,0.3-0.68,0.42-0.87
	c0.16-0.19,0.36-0.29,0.61-0.29c0.17,0,0.34,0.02,0.51,0.08c0.17,0.05,0.31,0.12,0.43,0.21c0.11,0.09,0.19,0.21,0.22,0.34
	c0.03,0.14,0,0.3-0.1,0.48c-0.1,0.19-0.23,0.46-0.38,0.8c-0.15,0.34-0.3,0.72-0.45,1.12c-0.14,0.4-0.28,0.81-0.4,1.21
	c-0.12,0.4-0.21,0.76-0.24,1.08c-0.04,0.29,0,0.46,0.13,0.52c0.13,0.06,0.29-0.08,0.48-0.42c0.15-0.25,0.3-0.57,0.46-0.96
	c0.16-0.39,0.32-0.8,0.49-1.22c0.16-0.42,0.31-0.83,0.47-1.24c0.15-0.4,0.28-0.75,0.38-1.03c0.06-0.17,0.11-0.31,0.15-0.44
	c0.05-0.12,0.09-0.21,0.12-0.25c0.12-0.19,0.31-0.29,0.57-0.29c0.17,0,0.34,0.02,0.51,0.06c0.18,0.04,0.32,0.1,0.45,0.18
	c0.12,0.08,0.21,0.18,0.25,0.3c0.04,0.12,0.02,0.28-0.07,0.46c-0.1,0.18-0.22,0.42-0.36,0.73c-0.14,0.31-0.29,0.64-0.43,1.01
	c-0.15,0.36-0.28,0.73-0.39,1.11c-0.11,0.37-0.19,0.72-0.24,1.05c0,0.03,0,0.1-0.01,0.19c-0.01,0.1-0.02,0.19-0.02,0.29
	s0.01,0.19,0.04,0.27c0.03,0.08,0.08,0.12,0.14,0.13c0.11,0,0.27-0.08,0.47-0.25c0.2-0.17,0.43-0.44,0.71-0.82
	c0.04-0.06,0.09-0.13,0.13-0.2c0-0.46,0.07-0.95,0.21-1.48c0.14-0.53,0.34-1.02,0.61-1.46c0.27-0.44,0.6-0.81,0.98-1.11
	c0.39-0.3,0.83-0.45,1.33-0.45c0.21,0,0.41,0.04,0.62,0.11c0.21,0.07,0.39,0.18,0.55,0.33c0.15,0.15,0.29,0.33,0.39,0.56
	c0.11,0.23,0.16,0.5,0.16,0.82c-0.02,0.59-0.15,1.08-0.38,1.48c-0.23,0.39-0.52,0.71-0.85,0.94c-0.34,0.23-0.7,0.4-1.07,0.5
	c-0.38,0.1-0.72,0.14-1.03,0.14c-0.02,0.15-0.01,0.29,0.02,0.44c0.04,0.15,0.1,0.29,0.19,0.41c0.09,0.12,0.19,0.21,0.32,0.29
	c0.13,0.07,0.28,0.11,0.44,0.11c0.3,0,0.62-0.13,0.99-0.4c0.37-0.27,0.75-0.63,1.13-1.1c0.19-0.22,0.37-0.46,0.55-0.71v0
	c0.09-0.49,0.21-0.98,0.34-1.45c0.14-0.48,0.29-0.91,0.45-1.3c0.15-0.39,0.3-0.68,0.42-0.87c0.16-0.19,0.36-0.29,0.61-0.29
	c0.17,0,0.33,0.02,0.5,0.08c0.17,0.05,0.31,0.12,0.43,0.21c0.12,0.09,0.2,0.21,0.23,0.34c0.03,0.14,0,0.3-0.1,0.48
	c-0.1,0.19-0.23,0.46-0.38,0.8c-0.15,0.34-0.3,0.72-0.44,1.12c-0.15,0.4-0.28,0.81-0.41,1.21c-0.12,0.4-0.2,0.76-0.23,1.08
	c-0.04,0.29,0,0.46,0.12,0.52c0.13,0.06,0.29-0.08,0.48-0.42c0.14-0.25,0.3-0.57,0.46-0.96c0.16-0.39,0.32-0.8,0.49-1.22
	c0.16-0.42,0.32-0.83,0.47-1.24c0.15-0.4,0.28-0.75,0.38-1.03c0.06-0.17,0.11-0.31,0.15-0.44c0.04-0.12,0.09-0.21,0.12-0.25
	c0.12-0.19,0.31-0.29,0.57-0.29c0.17,0,0.34,0.02,0.51,0.06c0.17,0.04,0.32,0.1,0.44,0.18c0.12,0.08,0.21,0.18,0.25,0.3
	c0.05,0.12,0.02,0.28-0.07,0.46c-0.1,0.18-0.22,0.42-0.36,0.73c-0.14,0.31-0.28,0.64-0.43,1.01c-0.14,0.36-0.27,0.73-0.39,1.11
	c-0.11,0.37-0.19,0.72-0.23,1.05c0,0.03,0,0.1-0.02,0.19c-0.01,0.1-0.01,0.19-0.01,0.29s0.01,0.19,0.04,0.27
	c0.03,0.08,0.08,0.12,0.14,0.13c0.11,0,0.27-0.08,0.47-0.25c0.21-0.17,0.44-0.44,0.71-0.82c0.27-0.38,0.56-0.87,0.87-1.48
	c0.28-0.54,0.57-1.18,0.86-1.94l-0.03-0.02c-0.17-0.12-0.31-0.27-0.42-0.45c-0.11-0.19-0.18-0.41-0.19-0.66
	c-0.02-0.38,0.08-0.72,0.29-1c0.22-0.29,0.52-0.42,0.88-0.41c0.21,0,0.36,0.05,0.48,0.15c0.12,0.1,0.2,0.23,0.25,0.39
	c0.05,0.16,0.06,0.33,0.04,0.51c-0.02,0.18-0.08,0.37-0.15,0.55c0.02,0.16,0.12,0.26,0.3,0.32c0.17,0.05,0.34,0.03,0.5-0.08
	c0.15-0.09,0.31-0.14,0.47-0.14c0.17,0,0.34,0.04,0.52,0.12c0.17,0.08,0.31,0.18,0.42,0.31c0.1,0.12,0.17,0.26,0.2,0.42
	c0.03,0.16-0.01,0.32-0.12,0.49c-0.12,0.17-0.27,0.4-0.44,0.68c-0.17,0.29-0.33,0.6-0.49,0.93c-0.16,0.34-0.29,0.68-0.41,1.03
	c-0.11,0.35-0.17,0.66-0.18,0.94c0,0.19,0.02,0.33,0.07,0.42c0.04,0.09,0.18,0.06,0.4-0.1c0.26-0.19,0.55-0.49,0.88-0.9
	c0.33-0.41,0.66-0.85,0.99-1.31c0.32-0.46,0.62-0.91,0.9-1.34c0.28-0.43,0.49-0.77,0.63-1c0.03-0.05,0.09-0.08,0.15-0.07
	c0.07,0,0.13,0.03,0.2,0.07c0.06,0.04,0.11,0.09,0.15,0.15c0.04,0.06,0.04,0.11,0.01,0.16c-0.08,0.09-0.21,0.29-0.39,0.6
	c-0.18,0.31-0.39,0.67-0.64,1.09c-0.25,0.42-0.52,0.86-0.82,1.33c-0.3,0.47-0.6,0.89-0.91,1.29c-0.31,0.39-0.62,0.72-0.93,0.98
	c-0.31,0.26-0.6,0.39-0.87,0.39c-0.22,0-0.42-0.06-0.61-0.18c-0.18-0.12-0.32-0.28-0.44-0.48c-0.12-0.2-0.21-0.42-0.27-0.67
	c-0.06-0.25-0.1-0.52-0.1-0.8c0-0.27,0.02-0.55,0.08-0.85c0.05-0.3,0.12-0.59,0.2-0.88c0.09-0.29,0.18-0.57,0.3-0.84
	c0.11-0.27,0.22-0.51,0.33-0.74c-0.22-0.01-0.45-0.05-0.67-0.1l-0.04-0.01c-0.04,0.09-0.08,0.2-0.13,0.33
	c-0.13,0.32-0.29,0.7-0.47,1.13c-0.19,0.43-0.4,0.87-0.63,1.34c-0.24,0.47-0.48,0.91-0.74,1.3c-0.26,0.4-0.52,0.73-0.79,1.01
	c-0.27,0.28-0.53,0.42-0.79,0.45c-0.45,0.05-0.8-0.08-1.04-0.37c-0.24-0.29-0.37-0.68-0.39-1.16c-0.1,0.19-0.21,0.38-0.33,0.56
	c-0.12,0.18-0.26,0.34-0.41,0.48c-0.14,0.14-0.3,0.26-0.46,0.35c-0.16,0.09-0.32,0.13-0.48,0.13c-0.13,0-0.28-0.02-0.44-0.07
	c-0.16-0.05-0.31-0.13-0.45-0.25c-0.14-0.12-0.27-0.3-0.37-0.54c-0.1-0.24-0.16-0.55-0.17-0.94c0-0.09,0-0.18,0-0.27
	c-0.25,0.32-0.51,0.61-0.78,0.89c-0.35,0.35-0.72,0.64-1.09,0.87c-0.38,0.22-0.75,0.34-1.13,0.35c-0.3,0-0.58-0.06-0.82-0.19
	c-0.25-0.13-0.46-0.31-0.65-0.54c-0.18-0.22-0.31-0.47-0.41-0.77l-0.01,0.02c-0.26,0.4-0.52,0.73-0.79,1.01
	c-0.27,0.28-0.53,0.42-0.79,0.45c-0.45,0.05-0.79-0.08-1.04-0.37c-0.25-0.29-0.38-0.68-0.39-1.16c-0.1,0.19-0.21,0.38-0.34,0.56
	c-0.12,0.18-0.26,0.34-0.4,0.48c-0.15,0.14-0.3,0.26-0.46,0.35c-0.16,0.09-0.32,0.13-0.48,0.13c-0.13,0-0.28-0.02-0.43-0.07
	c-0.16-0.05-0.31-0.13-0.46-0.25c-0.14-0.12-0.27-0.3-0.37-0.54c-0.1-0.24-0.16-0.55-0.17-0.94c0-0.06,0-0.12,0-0.19
	c-0.07,0.1-0.15,0.19-0.22,0.28c-0.23,0.28-0.44,0.49-0.65,0.65c0.05,0.28,0.07,0.55,0.09,0.8c0.01,0.25,0.01,0.49,0.01,0.71
	c0,1.04-0.13,1.88-0.39,2.5c-0.27,0.62-0.67,0.94-1.2,0.95c-0.34,0.01-0.62-0.09-0.82-0.31c-0.21-0.22-0.37-0.52-0.48-0.9
	c-0.1-0.38-0.16-0.83-0.16-1.34c0-0.52,0.04-1.07,0.13-1.66c-0.1,0.08-0.22,0.15-0.35,0.21c-0.13,0.06-0.29,0.1-0.45,0.11
	c-0.55,0-0.97-0.19-1.26-0.58c-0.17-0.22-0.29-0.48-0.36-0.77l-0.03,0.05c-0.29,0.38-0.59,0.7-0.92,0.95
	c-0.32,0.25-0.65,0.37-0.99,0.37c-0.28,0-0.51-0.05-0.71-0.13c-0.19-0.09-0.34-0.21-0.46-0.38c-0.11-0.16-0.2-0.35-0.25-0.56
	c-0.02-0.1-0.04-0.2-0.05-0.3c-0.26,0.39-0.52,0.72-0.8,0.98c-0.28,0.26-0.57,0.4-0.86,0.4c-0.21,0-0.4-0.03-0.58-0.08
	c-0.19-0.05-0.35-0.15-0.49-0.28c-0.14-0.13-0.26-0.3-0.35-0.52c-0.09-0.22-0.14-0.49-0.15-0.82c-0.01-0.44,0.03-0.97,0.13-1.6
	c0.1-0.63,0.23-1.29,0.41-1.99c0.17-0.7,0.36-1.41,0.57-2.12c0.21-0.71,0.42-1.37,0.63-1.97c0.21-0.61,0.41-1.13,0.59-1.57
	C153.85,139.42,154,139.11,154.11,138.95L154.11,138.95z M161.87,153.57c0.12,0,0.23-0.12,0.32-0.38c0.09-0.25,0.15-0.56,0.19-0.93
	c0.03-0.37,0.04-0.76,0.02-1.17c-0.01-0.41-0.08-0.77-0.18-1.07c-0.13,0.49-0.23,0.98-0.3,1.47c-0.07,0.49-0.11,0.88-0.13,1.17
	c-0.01,0.22-0.01,0.43,0,0.62C161.82,153.48,161.84,153.57,161.87,153.57L161.87,153.57z M173.07,145.32
	c-0.1,0.05-0.22,0.17-0.35,0.34c-0.13,0.17-0.27,0.37-0.4,0.61c-0.14,0.24-0.26,0.5-0.37,0.79c-0.11,0.29-0.2,0.57-0.25,0.87
	c0.19-0.02,0.39-0.1,0.58-0.23c0.2-0.14,0.37-0.3,0.54-0.5c0.16-0.2,0.3-0.42,0.41-0.67c0.11-0.25,0.18-0.51,0.2-0.77
	c0.01-0.14,0-0.23-0.02-0.29c-0.03-0.06-0.06-0.11-0.1-0.14c-0.04-0.03-0.08-0.04-0.12-0.03
	C173.14,145.3,173.1,145.31,173.07,145.32L173.07,145.32z M161.61,145.15c-0.05-0.16-0.1-0.24-0.19-0.24c-0.12,0-0.26,0.1-0.42,0.29
	c-0.16,0.19-0.31,0.43-0.47,0.72c-0.16,0.29-0.31,0.62-0.46,0.98c-0.15,0.36-0.28,0.71-0.4,1.06c-0.11,0.35-0.2,0.66-0.25,0.94
	c-0.06,0.28-0.07,0.49-0.04,0.64c0.05,0.26,0.13,0.39,0.25,0.39c0.14,0,0.29-0.1,0.47-0.3c0.18-0.2,0.36-0.46,0.54-0.76
	c0.07-0.12,0.16-0.33,0.28-0.63c0.12-0.3,0.23-0.62,0.34-0.96c0.1-0.34,0.2-0.68,0.28-1.01c0.08-0.33,0.11-0.59,0.11-0.78
	C161.65,145.36,161.64,145.25,161.61,145.15L161.61,145.15z M149.52,144.75c0.02-0.06,0.07-0.09,0.13-0.09
	c0.07,0,0.13,0.01,0.21,0.03c0.07,0.03,0.12,0.07,0.16,0.12c0.04,0.05,0.05,0.1,0.02,0.14c-0.12,0.26-0.29,0.58-0.5,0.97
	c-0.21,0.39-0.44,0.8-0.71,1.23c-0.26,0.43-0.55,0.86-0.86,1.29c-0.31,0.43-0.65,0.82-1,1.18c-0.35,0.35-0.72,0.64-1.09,0.87
	c-0.38,0.22-0.75,0.34-1.13,0.35c-0.31,0-0.58-0.06-0.82-0.19c-0.25-0.13-0.46-0.31-0.65-0.54c-0.17-0.22-0.31-0.47-0.41-0.76
	c-0.13,0.19-0.27,0.38-0.41,0.56c-0.29,0.37-0.6,0.7-0.93,0.98c-0.32,0.28-0.66,0.48-1.01,0.61c-0.08,0.24-0.19,0.53-0.32,0.87
	c-0.13,0.35-0.31,0.68-0.52,1c-0.21,0.32-0.46,0.59-0.75,0.81c-0.29,0.22-0.62,0.32-1,0.29c-0.27-0.01-0.5-0.09-0.68-0.23
	c-0.18-0.15-0.32-0.33-0.4-0.55c-0.09-0.22-0.12-0.46-0.11-0.71c0.01-0.26,0.08-0.5,0.2-0.72c0.2-0.38,0.51-0.68,0.94-0.89
	c0.43-0.21,0.86-0.38,1.31-0.49l0.21-0.69c-0.1,0.19-0.25,0.34-0.45,0.46c-0.21,0.11-0.39,0.17-0.56,0.17
	c-0.47-0.02-0.84-0.21-1.13-0.57c-0.17-0.21-0.28-0.46-0.35-0.75c-0.25,0.33-0.51,0.62-0.76,0.86c-0.29,0.27-0.58,0.42-0.87,0.47
	c-0.27,0.02-0.5,0-0.68-0.07c-0.19-0.07-0.33-0.17-0.44-0.32c-0.11-0.15-0.2-0.32-0.24-0.52c-0.05-0.2-0.08-0.42-0.08-0.65
	c0-0.36,0.05-0.76,0.16-1.19c0.11-0.43,0.21-0.86,0.3-1.29c0.07-0.3,0.08-0.51,0.04-0.63c-0.04-0.12-0.11-0.16-0.21-0.14
	s-0.21,0.11-0.34,0.26c-0.13,0.15-0.25,0.33-0.35,0.56c-0.1,0.22-0.21,0.48-0.33,0.77c-0.12,0.29-0.24,0.58-0.34,0.87
	c-0.11,0.3-0.21,0.58-0.31,0.87c-0.1,0.28-0.17,0.53-0.21,0.74c-0.04,0.2-0.14,0.39-0.29,0.55c-0.15,0.17-0.36,0.23-0.64,0.19
	c-0.2-0.02-0.35-0.14-0.44-0.34c-0.1-0.21-0.14-0.4-0.14-0.57c0-0.15,0.01-0.31,0.03-0.49l-0.02,0.03c-0.27,0.4-0.53,0.72-0.81,0.98
	c-0.27,0.26-0.54,0.39-0.82,0.39c-0.29,0-0.54-0.1-0.76-0.3c-0.22-0.2-0.36-0.47-0.43-0.81c-0.07,0.12-0.15,0.25-0.25,0.38
	c-0.1,0.13-0.21,0.25-0.33,0.35c-0.12,0.11-0.26,0.2-0.42,0.27c-0.15,0.07-0.31,0.12-0.5,0.13c-0.48,0-0.88-0.16-1.21-0.5
	c-0.32-0.33-0.49-0.82-0.49-1.49l0-0.15c-0.19,0.27-0.38,0.53-0.57,0.77c-0.31,0.39-0.61,0.72-0.93,0.98
	c-0.31,0.26-0.6,0.39-0.86,0.39c-0.22,0-0.43-0.06-0.61-0.18c-0.18-0.12-0.33-0.28-0.45-0.48c-0.11-0.2-0.21-0.42-0.27-0.67
	c-0.06-0.25-0.1-0.52-0.1-0.8c0-0.27,0.03-0.55,0.08-0.85c0.05-0.3,0.12-0.59,0.21-0.88c0.08-0.29,0.18-0.57,0.29-0.84
	c0.11-0.27,0.22-0.51,0.34-0.74c-0.2-0.01-0.39-0.04-0.58-0.08c-0.1,0.27-0.23,0.55-0.4,0.84c-0.22,0.37-0.47,0.7-0.74,0.99
	c-0.28,0.29-0.57,0.53-0.89,0.72c-0.32,0.18-0.63,0.26-0.93,0.24c-0.22,0.84-0.56,1.53-1.02,2.07c-0.45,0.54-1,0.81-1.64,0.81
	c-0.25,0-0.51-0.06-0.79-0.19c-0.37-0.19-0.64-0.49-0.82-0.91c-0.17-0.41-0.26-0.88-0.26-1.41c0-0.51,0.08-1.05,0.22-1.6
	c0.15-0.56,0.36-1.07,0.63-1.53c0.27-0.46,0.58-0.85,0.93-1.14c0.35-0.3,0.73-0.45,1.13-0.45c0.07,0,0.15,0,0.26,0.02
	c0.1,0.01,0.21,0.05,0.32,0.11c0.11,0.06,0.23,0.15,0.34,0.27c0.11,0.12,0.2,0.28,0.27,0.48c0.26,0.11,0.46,0.36,0.61,0.76
	c0.15,0.39,0.16,0.96,0.03,1.7c0.09,0.01,0.22-0.01,0.4-0.07c0.18-0.06,0.37-0.17,0.57-0.33c0.21-0.16,0.42-0.39,0.63-0.69
	c0.18-0.25,0.34-0.56,0.5-0.92l-0.05-0.04c-0.18-0.12-0.32-0.27-0.43-0.45c-0.11-0.19-0.18-0.41-0.19-0.66
	c-0.02-0.38,0.08-0.72,0.3-1c0.22-0.29,0.51-0.42,0.88-0.41c0.2,0,0.36,0.05,0.48,0.15c0.12,0.1,0.21,0.23,0.25,0.39
	c0.05,0.16,0.07,0.33,0.04,0.51c-0.02,0.18-0.07,0.37-0.15,0.55c0.02,0.16,0.12,0.26,0.3,0.32c0.17,0.05,0.34,0.03,0.5-0.08
	c0.16-0.09,0.31-0.14,0.47-0.14c0.17,0,0.34,0.04,0.51,0.12c0.18,0.08,0.31,0.18,0.42,0.31c0.11,0.12,0.18,0.26,0.21,0.42
	c0.02,0.16-0.01,0.32-0.13,0.49c-0.12,0.17-0.27,0.4-0.43,0.68c-0.17,0.29-0.33,0.6-0.49,0.93c-0.16,0.34-0.29,0.68-0.4,1.03
	c-0.11,0.35-0.18,0.66-0.19,0.94c0,0.19,0.02,0.33,0.07,0.42c0.04,0.09,0.18,0.06,0.41-0.1c0.26-0.19,0.55-0.49,0.88-0.9
	c0.33-0.41,0.66-0.85,0.98-1.31l0.12-0.17c0.08-0.29,0.17-0.58,0.28-0.86c0.16-0.44,0.34-0.83,0.54-1.18
	c0.21-0.35,0.41-0.61,0.62-0.78c0.18-0.13,0.36-0.23,0.55-0.29s0.38-0.09,0.55-0.09c0.27,0,0.51,0.06,0.72,0.18
	c0.21,0.12,0.37,0.31,0.47,0.56c0.03-0.08,0.06-0.13,0.08-0.17c0.01-0.03,0.05-0.1,0.11-0.19c0.08-0.15,0.22-0.21,0.44-0.21
	c0.22,0,0.43,0.05,0.64,0.14c0.21,0.09,0.38,0.21,0.53,0.35c0.14,0.14,0.19,0.28,0.12,0.41c-0.21,0.47-0.42,0.94-0.6,1.4
	c-0.18,0.46-0.34,0.9-0.49,1.3c-0.14,0.41-0.24,0.76-0.31,1.08c-0.07,0.31-0.09,0.55-0.07,0.72c0.02,0.09,0.06,0.14,0.11,0.14
	c0.05,0,0.1-0.01,0.17-0.05c0.06-0.04,0.12-0.09,0.18-0.15c0.06-0.06,0.1-0.11,0.13-0.14c0.22-0.25,0.47-0.57,0.72-0.98
	c0.26-0.41,0.51-0.83,0.75-1.27l0-0.01c0.11-0.43,0.24-0.86,0.37-1.31c0.17-0.55,0.34-1.08,0.51-1.57c0.04-0.12,0.17-0.2,0.39-0.24
	c0.21-0.03,0.43-0.03,0.65,0.02c0.22,0.05,0.4,0.12,0.55,0.24c0.15,0.11,0.19,0.25,0.11,0.42c-0.09,0.24-0.19,0.47-0.31,0.71
	c-0.11,0.24-0.21,0.46-0.29,0.67c0.08-0.12,0.19-0.26,0.31-0.43c0.13-0.16,0.27-0.33,0.42-0.5c0.15-0.17,0.31-0.33,0.47-0.49
	c0.16-0.16,0.32-0.29,0.5-0.4c0.21-0.14,0.42-0.19,0.64-0.17c0.21,0.02,0.39,0.1,0.54,0.24c0.15,0.14,0.26,0.34,0.33,0.59
	c0.07,0.25,0.06,0.55-0.02,0.88c-0.04,0.2-0.12,0.47-0.23,0.82c-0.11,0.34-0.22,0.7-0.33,1.07c-0.11,0.37-0.21,0.73-0.31,1.08
	c-0.09,0.35-0.13,0.62-0.13,0.82c0,0.03,0.01,0.07,0.02,0.13c0.02,0.05,0.05,0.07,0.11,0.07c0.09,0,0.24-0.1,0.46-0.3
	c0.22-0.2,0.47-0.5,0.76-0.91l0.1-0.14c0.03-0.21,0.08-0.43,0.14-0.67c0.12-0.48,0.28-0.95,0.46-1.41c0.18-0.46,0.39-0.87,0.62-1.24
	c0.23-0.37,0.45-0.63,0.65-0.79c0.18-0.12,0.36-0.21,0.54-0.27c0.19-0.05,0.36-0.08,0.53-0.08c0.26,0,0.51,0.06,0.76,0.18
	c0.25,0.12,0.42,0.32,0.52,0.59c0.02-0.07,0.06-0.13,0.1-0.2c0.04-0.07,0.08-0.13,0.1-0.19c0.07-0.1,0.2-0.14,0.4-0.13
	c0.21,0.02,0.4,0.08,0.6,0.18c0.2,0.1,0.36,0.23,0.49,0.39c0.13,0.16,0.15,0.33,0.08,0.51c-0.17,0.34-0.35,0.74-0.55,1.21
	c-0.2,0.47-0.39,0.96-0.59,1.47c-0.2,0.51-0.38,1.01-0.56,1.5c-0.17,0.49-0.31,0.92-0.43,1.29c0.37-0.22,0.73-0.55,1.08-0.97
	c0.3-0.36,0.58-0.76,0.86-1.19v-0.11c0-0.47,0.07-0.97,0.21-1.51c0.14-0.53,0.34-1.02,0.61-1.46c0.27-0.44,0.6-0.81,0.98-1.11
	c0.39-0.3,0.83-0.45,1.33-0.45c0.2,0,0.41,0.04,0.62,0.11c0.21,0.07,0.39,0.18,0.54,0.33c0.16,0.15,0.29,0.33,0.4,0.56
	c0.1,0.23,0.16,0.5,0.16,0.82c-0.02,0.59-0.15,1.08-0.38,1.48c-0.23,0.39-0.51,0.71-0.85,0.94c-0.33,0.23-0.69,0.4-1.07,0.5
	c-0.37,0.1-0.72,0.14-1.03,0.14c-0.02,0.15-0.01,0.29,0.02,0.44c0.04,0.15,0.1,0.29,0.19,0.41c0.08,0.12,0.19,0.21,0.32,0.29
	c0.13,0.07,0.28,0.11,0.44,0.11c0.29,0,0.62-0.13,0.99-0.4c0.37-0.27,0.75-0.63,1.13-1.1c0.39-0.47,0.77-1.01,1.15-1.63
	C148.86,146.12,149.2,145.45,149.52,144.75L149.52,144.75z M140.53,145.49c0-0.03,0-0.08-0.01-0.14c0-0.06-0.01-0.12-0.03-0.18
	c-0.01-0.06-0.04-0.12-0.07-0.17c-0.03-0.05-0.06-0.08-0.11-0.08c-0.12,0-0.26,0.1-0.42,0.29c-0.16,0.19-0.31,0.44-0.47,0.74
	c-0.16,0.3-0.31,0.63-0.46,1c-0.15,0.36-0.28,0.72-0.39,1.07c-0.05,0.13-0.1,0.32-0.15,0.55c-0.05,0.23-0.09,0.45-0.1,0.66
	c-0.02,0.21-0.02,0.38,0,0.52c0.03,0.14,0.1,0.19,0.23,0.16c0.19-0.04,0.37-0.17,0.55-0.37c0.17-0.2,0.33-0.44,0.48-0.72
	c0.15-0.28,0.28-0.58,0.4-0.92c0.12-0.33,0.22-0.65,0.3-0.96c0.09-0.31,0.15-0.59,0.2-0.85
	C140.5,145.82,140.53,145.62,140.53,145.49L140.53,145.49z M128.24,145.74c0-0.03,0-0.09-0.01-0.16c0-0.07-0.01-0.14-0.03-0.21
	c-0.01-0.07-0.04-0.13-0.07-0.19c-0.03-0.05-0.06-0.08-0.11-0.08c-0.13,0-0.28,0.1-0.44,0.31c-0.16,0.21-0.32,0.47-0.47,0.78
	c-0.15,0.31-0.3,0.66-0.43,1.04c-0.13,0.38-0.24,0.74-0.32,1.08c-0.02,0.1-0.05,0.24-0.08,0.42c-0.03,0.18-0.06,0.36-0.06,0.53
	c0,0.17,0.01,0.32,0.04,0.45c0.03,0.13,0.1,0.19,0.22,0.19c0.14,0,0.29-0.08,0.44-0.24c0.14-0.16,0.28-0.37,0.41-0.63
	c0.13-0.26,0.25-0.54,0.36-0.86c0.11-0.31,0.21-0.62,0.29-0.93c0.09-0.31,0.15-0.6,0.2-0.87
	C128.21,146.11,128.24,145.9,128.24,145.74L128.24,145.74z M138.86,151.99c-0.26,0.09-0.46,0.21-0.61,0.34
	c-0.15,0.14-0.26,0.28-0.32,0.41c-0.07,0.14-0.1,0.25-0.1,0.35c0,0.1,0.04,0.15,0.11,0.15c0.13,0,0.25-0.04,0.34-0.12
	c0.1-0.08,0.18-0.18,0.25-0.3c0.08-0.12,0.14-0.26,0.2-0.4C138.79,152.28,138.83,152.14,138.86,151.99L138.86,151.99z
	 M115.58,150.12c0.16,0,0.31-0.08,0.46-0.25c0.14-0.17,0.28-0.38,0.4-0.63c0.12-0.25,0.22-0.52,0.31-0.81
	c0.08-0.29,0.13-0.55,0.15-0.78c-0.1-0.07-0.19-0.17-0.26-0.3c-0.08-0.14-0.13-0.28-0.17-0.45c-0.04-0.16-0.06-0.33-0.07-0.5
	c0-0.17,0.02-0.31,0.08-0.44c-0.16,0.05-0.31,0.2-0.47,0.42c-0.16,0.22-0.3,0.49-0.43,0.8c-0.13,0.31-0.24,0.63-0.33,0.98
	c-0.09,0.35-0.14,0.67-0.16,0.95c-0.01,0.29,0.01,0.52,0.09,0.71C115.24,150.03,115.38,150.12,115.58,150.12L115.58,150.12z
	 M145.7,145.32c-0.1,0.05-0.22,0.17-0.35,0.34c-0.13,0.17-0.27,0.37-0.41,0.61c-0.13,0.24-0.26,0.5-0.37,0.79
	c-0.11,0.29-0.2,0.57-0.25,0.87c0.19-0.02,0.38-0.1,0.58-0.23c0.2-0.14,0.38-0.3,0.54-0.5c0.16-0.2,0.3-0.42,0.42-0.67
	c0.11-0.25,0.18-0.51,0.2-0.77c0.01-0.14,0-0.23-0.02-0.29c-0.03-0.06-0.06-0.11-0.1-0.14c-0.04-0.03-0.08-0.04-0.11-0.03
	C145.78,145.3,145.74,145.31,145.7,145.32L145.7,145.32z M157.99,143.12c-0.1,0.09-0.23,0.13-0.4,0.13c-0.16,0-0.32-0.05-0.47-0.13
	c-0.15-0.09-0.27-0.21-0.36-0.36c-0.09-0.16-0.11-0.34-0.05-0.56c0.03-0.11,0.07-0.24,0.11-0.4c0.04-0.15,0.08-0.3,0.13-0.45
	c0.05-0.15,0.1-0.29,0.16-0.43c0.05-0.13,0.11-0.24,0.17-0.32c0.07-0.07,0.13-0.12,0.2-0.15c0.07-0.03,0.15-0.06,0.25-0.07
	c0.17-0.01,0.35,0.02,0.54,0.08c0.19,0.07,0.36,0.16,0.51,0.28c0.15,0.12,0.27,0.25,0.34,0.41c0.07,0.15,0.08,0.29,0.01,0.43
	L157.99,143.12L157.99,143.12z"/>
</svg>
