<?xml version="1.0" encoding="utf-8"?>
<!-- Generator: Adobe Illustrator 23.0.1, SVG Export Plug-In . SVG Version: 6.00 Build 0)  -->
<svg version="1.1" id="Manhattan" xmlns="http://www.w3.org/2000/svg" xmlns:xlink="http://www.w3.org/1999/xlink" x="0px" y="0px"
	 viewBox="0 0 300 300" style="enable-background:new 0 0 300 300;" xml:space="preserve">
<style type="text/css">
	.st0{fill:#4E4236;}
	.st1{fill-rule:evenodd;clip-rule:evenodd;fill:#ED9F21;}
	.st2{fill-rule:evenodd;clip-rule:evenodd;fill:#E52825;}
	.st3{fill-rule:evenodd;clip-rule:evenodd;fill:#CA7E29;}
	.st4{fill-rule:evenodd;clip-rule:evenodd;fill:#C42026;}
	.st5{fill-rule:evenodd;clip-rule:evenodd;fill:#FFFFFF;}
	.st6{fill-rule:evenodd;clip-rule:evenodd;fill:#4E4236;}
	.st7{fill:#FFFFFF;}
</style>
<path class="st0" d="M201.97,12.18c0.42-0.27,0.85-0.38,1.27-0.33c0.42,0.04,0.79,0.21,1.09,0.48c0.3,0.28,0.52,0.67,0.65,1.17
	c0.13,0.5,0.12,1.09-0.03,1.75c-0.09,0.4-0.25,0.94-0.47,1.62c-0.22,0.68-0.44,1.39-0.67,2.12c-0.22,0.73-0.42,1.45-0.6,2.14
	c-0.18,0.69-0.27,1.24-0.27,1.64c0,0.07,0.02,0.15,0.05,0.25c0.03,0.1,0.11,0.15,0.22,0.15c0.18,0,0.49-0.2,0.92-0.6
	c0.43-0.4,0.94-1,1.52-1.8c0.58-0.8,1.2-1.79,1.87-2.97c0.67-1.18,1.34-2.54,2-4.08c0.04-0.11,0.13-0.17,0.27-0.18
	c0.13-0.01,0.27,0.01,0.4,0.07c0.13,0.06,0.24,0.14,0.32,0.25c0.08,0.11,0.11,0.21,0.08,0.3c-0.11,0.22-0.3,0.65-0.57,1.27
	c-0.27,0.62-0.6,1.35-1,2.17c-0.4,0.82-0.85,1.69-1.35,2.59s-1.03,1.74-1.59,2.52c-0.56,0.78-1.12,1.44-1.7,1.97
	c-0.58,0.53-1.16,0.85-1.74,0.94c-0.53,0.04-0.98,0-1.35-0.14c-0.37-0.13-0.66-0.35-0.88-0.63c-0.22-0.29-0.39-0.63-0.48-1.04
	c-0.1-0.4-0.15-0.83-0.15-1.3c0-0.71,0.11-1.5,0.32-2.36c0.21-0.86,0.41-1.71,0.58-2.56c0.13-0.6,0.16-1.02,0.08-1.25
	c-0.08-0.23-0.22-0.32-0.42-0.27c-0.2,0.05-0.43,0.23-0.69,0.52c-0.26,0.29-0.48,0.66-0.68,1.1c-0.2,0.45-0.42,0.95-0.67,1.52
	c-0.25,0.57-0.47,1.15-0.68,1.74c-0.21,0.59-0.41,1.16-0.6,1.72c-0.19,0.56-0.33,1.05-0.42,1.47c-0.09,0.4-0.28,0.77-0.57,1.1
	c-0.29,0.33-0.71,0.46-1.27,0.37c-0.4-0.05-0.7-0.27-0.89-0.68c-0.19-0.41-0.28-0.79-0.28-1.12c0-0.29,0.02-0.62,0.06-0.98
	l-0.04,0.06c-0.52,0.79-1.06,1.44-1.6,1.95c-0.55,0.51-1.09,0.77-1.62,0.77c-0.58,0-1.09-0.2-1.52-0.6c-0.43-0.4-0.72-0.94-0.85-1.6
	c-0.13,0.24-0.3,0.5-0.5,0.75c-0.2,0.26-0.42,0.49-0.67,0.7c-0.24,0.21-0.52,0.39-0.82,0.54c-0.3,0.14-0.63,0.23-0.99,0.25
	c-0.96,0-1.76-0.33-2.41-0.99c-0.48-0.49-0.78-1.16-0.9-2.01l-0.1,0.15c-0.51,0.8-1.02,1.46-1.54,1.99c-0.51,0.52-1.01,0.8-1.5,0.82
	c-0.94,0.04-1.67-0.2-2.19-0.74c-0.52-0.53-0.84-1.3-0.95-2.31c-0.02-0.18-0.04-0.38-0.05-0.6c-0.01-0.22,0-0.45,0.02-0.7
	c-0.31,0.58-0.63,1.13-0.97,1.65c-0.33,0.52-0.67,0.98-1,1.37c-0.34,0.39-0.67,0.71-1,0.95c-0.33,0.25-0.66,0.37-0.97,0.37
	c-0.94,0.04-1.67-0.2-2.21-0.74c-0.53-0.53-0.86-1.3-0.97-2.31c-0.06-0.48-0.07-1.01-0.04-1.61c-0.37,0.68-0.75,1.33-1.15,1.93
	c-0.52,0.79-1.06,1.44-1.6,1.95c-0.54,0.51-1.09,0.77-1.62,0.77c-0.58,0-1.09-0.2-1.52-0.6c-0.43-0.4-0.72-0.94-0.85-1.6
	c-0.13,0.24-0.3,0.5-0.5,0.75c-0.2,0.26-0.42,0.49-0.67,0.7c-0.25,0.21-0.52,0.39-0.82,0.54c-0.3,0.14-0.63,0.23-0.99,0.25
	c-0.96,0-1.76-0.33-2.4-0.99c-0.43-0.44-0.72-1.03-0.86-1.76c-0.52,0.69-1.06,1.29-1.63,1.78c-0.61,0.53-1.22,0.85-1.82,0.94
	c-0.58,0.04-1.06,0-1.44-0.14c-0.38-0.13-0.68-0.35-0.92-0.63c-0.23-0.29-0.4-0.63-0.5-1.04c-0.1-0.4-0.15-0.83-0.15-1.3
	c0-0.71,0.1-1.5,0.32-2.36c0.21-0.86,0.42-1.71,0.62-2.56c0.13-0.6,0.16-1.02,0.08-1.25c-0.08-0.23-0.22-0.32-0.42-0.27
	c-0.2,0.05-0.43,0.23-0.68,0.52c-0.26,0.29-0.48,0.66-0.68,1.1c-0.2,0.45-0.41,0.95-0.63,1.5c-0.22,0.56-0.44,1.13-0.65,1.72
	c-0.21,0.59-0.4,1.16-0.57,1.72c-0.17,0.56-0.3,1.04-0.38,1.47s-0.28,0.8-0.57,1.13c-0.29,0.33-0.69,0.46-1.2,0.37
	c-0.18-0.02-0.34-0.1-0.49-0.23c-0.14-0.14-0.26-0.29-0.35-0.47c-0.09-0.18-0.16-0.37-0.2-0.57c-0.04-0.2-0.07-0.39-0.07-0.57
	c0-0.2,0.01-0.41,0.03-0.65c-0.46,0.6-0.93,1.12-1.4,1.55c-0.58,0.53-1.16,0.85-1.74,0.94c-0.53,0.04-0.99,0-1.35-0.14
	c-0.37-0.13-0.66-0.35-0.89-0.63c-0.22-0.29-0.39-0.63-0.48-1.04c-0.1-0.4-0.15-0.83-0.15-1.3c0-0.71,0.11-1.5,0.32-2.36
	c0.21-0.86,0.41-1.71,0.59-2.56c0.13-0.6,0.16-1.02,0.08-1.25c-0.08-0.23-0.22-0.32-0.42-0.27c-0.2,0.05-0.43,0.23-0.68,0.52
	c-0.26,0.29-0.48,0.66-0.68,1.1c-0.2,0.45-0.42,0.95-0.67,1.52c-0.25,0.57-0.47,1.15-0.68,1.74c-0.21,0.59-0.41,1.16-0.6,1.72
	c-0.19,0.56-0.33,1.05-0.42,1.47c-0.09,0.4-0.28,0.77-0.57,1.1c-0.29,0.33-0.71,0.46-1.27,0.37c-0.4-0.05-0.7-0.27-0.89-0.68
	c-0.19-0.41-0.28-0.79-0.28-1.12c0-0.29,0.02-0.62,0.05-0.98l-0.04,0.06c-0.52,0.79-1.06,1.44-1.6,1.95
	c-0.55,0.51-1.09,0.77-1.62,0.77c-0.58,0-1.09-0.2-1.52-0.6c-0.43-0.4-0.72-0.94-0.85-1.6c-0.13,0.24-0.3,0.5-0.5,0.75
	c-0.2,0.26-0.42,0.49-0.67,0.7c-0.25,0.21-0.52,0.39-0.82,0.54c-0.3,0.14-0.63,0.23-0.99,0.25c-0.96,0-1.76-0.33-2.41-0.99
	c-0.65-0.66-0.97-1.64-0.97-2.96c0-0.17,0-0.34,0.01-0.52c-0.55,0.69-1.11,1.33-1.68,1.92c-0.69,0.71-1.38,1.3-2.07,1.75
	c-0.69,0.46-1.34,0.71-1.94,0.75c-0.98,0.09-1.75-0.16-2.31-0.74c-0.56-0.58-0.79-1.44-0.7-2.57c0.02-0.76,0.13-1.58,0.32-2.45
	c0.19-0.88,0.42-1.79,0.68-2.74c0.27-0.95,0.57-1.92,0.9-2.91c0.33-0.99,0.67-1.98,1-2.96c0.42-1.07,0.65-1.88,0.68-2.44
	c0.03-0.56-0.08-0.79-0.35-0.68c-0.27,0.1-0.65,0.54-1.15,1.34c-0.5,0.79-1.07,1.99-1.72,3.59c-0.36,0.87-0.75,1.84-1.18,2.92
	c-0.43,1.08-0.84,2.15-1.22,3.21c-0.38,1.06-0.68,2.04-0.92,2.96c-0.23,0.91-0.33,1.63-0.29,2.14c0.02,0.31-0.07,0.54-0.28,0.67
	c-0.21,0.13-0.47,0.21-0.77,0.22c-0.3,0.01-0.6-0.01-0.88-0.07c-0.29-0.05-0.5-0.12-0.63-0.18c-0.24-0.09-0.49-0.24-0.73-0.47
	c-0.25-0.22-0.45-0.51-0.6-0.85c-0.16-0.34-0.25-0.77-0.28-1.27c-0.03-0.5,0.03-1.09,0.18-1.75c0.45-1.91,1.08-3.91,1.9-5.98
	c0.82-2.07,1.66-4.22,2.51-6.45c0.04-0.18,0.09-0.42,0.13-0.73c0.04-0.31,0.01-0.5-0.1-0.57c-0.22-0.16-0.56,0.03-1,0.57
	c-0.45,0.53-0.95,1.28-1.5,2.25c-0.56,0.97-1.15,2.09-1.77,3.37c-0.62,1.28-1.24,2.59-1.84,3.93c-0.53,1.11-1.06,2.17-1.59,3.16
	c-0.52,0.99-1.07,1.87-1.65,2.64c-0.58,0.77-1.2,1.4-1.87,1.89c-0.67,0.49-1.41,0.79-2.24,0.9c-0.45,0.07-0.9,0.08-1.37,0.03
	c-0.47-0.04-0.85-0.14-1.14-0.3c-0.58-0.33-0.98-0.68-1.2-1.05c-0.22-0.37-0.33-0.72-0.33-1.05s0.08-0.63,0.25-0.89
	c0.17-0.25,0.35-0.43,0.53-0.53c0.19-0.1,0.35-0.11,0.48-0.02c0.13,0.09,0.19,0.3,0.17,0.64c-0.04,0.45,0.05,0.8,0.28,1.05
	c0.23,0.26,0.55,0.37,0.95,0.35c0.47-0.02,0.97-0.4,1.5-1.12c0.53-0.72,1.06-1.65,1.59-2.77c0.52-1.12,1.02-2.37,1.5-3.74
	c0.48-1.37,0.91-2.7,1.29-3.99c0.38-1.29,0.7-2.47,0.95-3.53c0.26-1.06,0.42-1.84,0.48-2.36c0.13-1.2,0.03-2.01-0.32-2.42
	c-0.35-0.41-0.82-0.56-1.42-0.45c-0.71,0.13-1.43,0.5-2.15,1.09c-0.72,0.59-1.39,1.28-1.99,2.09c-0.6,0.8-1.09,1.64-1.47,2.51
	c-0.38,0.87-0.57,1.65-0.57,2.34c0.02,0.45-0.06,0.77-0.25,0.95c-0.19,0.19-0.51,0.23-0.95,0.12c-0.29-0.09-0.59-0.23-0.92-0.44
	c-0.32-0.2-0.6-0.46-0.84-0.78c-0.23-0.32-0.4-0.71-0.48-1.15c-0.09-0.45-0.04-0.96,0.13-1.54c0.33-1.07,0.92-2.07,1.75-3.01
	c0.84-0.94,1.79-1.74,2.87-2.4c1.08-0.67,2.22-1.18,3.42-1.52c1.2-0.35,2.33-0.45,3.37-0.32c0.22,0.02,0.58,0.08,1.07,0.18
	c0.49,0.1,0.97,0.32,1.45,0.67c0.48,0.34,0.87,0.86,1.17,1.55c0.3,0.69,0.36,1.64,0.18,2.84c-0.04,0.11-0.07,0.22-0.07,0.33
	c0,0.11-0.02,0.23-0.07,0.37c0.27-0.49,0.6-1.06,1-1.72c0.4-0.66,0.84-1.27,1.32-1.84c0.48-0.57,0.97-1.05,1.49-1.45
	c0.51-0.4,1.02-0.6,1.54-0.6c0.33,0,0.68,0.09,1.04,0.27c0.36,0.18,0.68,0.42,0.97,0.73c0.29,0.31,0.52,0.7,0.7,1.15
	c0.18,0.46,0.27,0.96,0.27,1.52c0,0.27-0.03,0.54-0.08,0.84c-0.06,0.29-0.14,0.59-0.25,0.9c-0.02,0.05-0.03,0.08-0.03,0.1
	c0.25-0.42,0.54-0.93,0.9-1.5c0.36-0.58,0.75-1.13,1.17-1.65c0.42-0.52,0.87-0.96,1.35-1.32c0.48-0.36,0.96-0.53,1.45-0.53
	c0.36,0,0.75,0.13,1.17,0.38c0.42,0.26,0.79,0.62,1.09,1.1c0.3,0.48,0.5,1.07,0.59,1.77c0.09,0.7-0.03,1.49-0.37,2.36
	c-0.4,1.04-0.85,2.18-1.35,3.41c-0.5,1.22-0.99,2.48-1.47,3.76c-0.48,1.28-0.92,2.55-1.32,3.81c-0.4,1.26-0.7,2.45-0.9,3.56
	c-0.09,0.49-0.01,0.74,0.25,0.75c0.26,0.01,0.64-0.14,1.15-0.45c0.4-0.22,0.9-0.64,1.5-1.27c0.6-0.62,1.23-1.35,1.87-2.19
	c0.15-0.2,0.31-0.4,0.46-0.61c0.18-0.74,0.4-1.45,0.66-2.15c0.32-0.87,0.69-1.65,1.09-2.36c0.4-0.7,0.81-1.22,1.24-1.55
	c0.36-0.27,0.72-0.46,1.1-0.59c0.38-0.12,0.75-0.18,1.1-0.18c0.53,0,1.01,0.12,1.44,0.35c0.42,0.23,0.73,0.61,0.93,1.12
	c0.07-0.16,0.12-0.27,0.15-0.33c0.03-0.07,0.11-0.19,0.22-0.37c0.16-0.29,0.45-0.43,0.89-0.42c0.43,0.01,0.86,0.11,1.27,0.28
	c0.41,0.18,0.76,0.41,1.05,0.68c0.29,0.28,0.37,0.55,0.23,0.82c-0.42,0.94-0.82,1.86-1.19,2.79c-0.37,0.93-0.69,1.79-0.97,2.59
	c-0.28,0.8-0.48,1.51-0.62,2.14c-0.13,0.62-0.18,1.1-0.13,1.44c0.04,0.18,0.12,0.27,0.22,0.28c0.1,0.01,0.21-0.02,0.33-0.1
	c0.12-0.08,0.24-0.18,0.35-0.3c0.11-0.12,0.2-0.22,0.27-0.28c0.45-0.49,0.92-1.14,1.44-1.95c0.51-0.81,1.01-1.65,1.49-2.52
	l0.01-0.02c0.22-0.85,0.47-1.72,0.74-2.6c0.33-1.1,0.67-2.14,1-3.12c0.09-0.25,0.34-0.4,0.77-0.47c0.42-0.07,0.85-0.05,1.29,0.04
	c0.43,0.09,0.8,0.24,1.1,0.47c0.3,0.22,0.37,0.5,0.22,0.84c-0.18,0.47-0.38,0.93-0.6,1.4c-0.22,0.47-0.41,0.91-0.57,1.34
	c0.16-0.25,0.36-0.53,0.62-0.85c0.26-0.32,0.54-0.65,0.84-0.99c0.3-0.33,0.61-0.66,0.94-0.97c0.32-0.31,0.65-0.58,0.99-0.8
	c0.42-0.27,0.85-0.38,1.27-0.33c0.42,0.04,0.79,0.21,1.09,0.48c0.3,0.28,0.52,0.67,0.65,1.17c0.13,0.5,0.12,1.09-0.03,1.75
	c-0.09,0.4-0.25,0.94-0.47,1.62c-0.22,0.68-0.45,1.39-0.67,2.12c-0.22,0.73-0.42,1.45-0.6,2.14c-0.18,0.69-0.27,1.24-0.27,1.64
	c0,0.07,0.02,0.15,0.05,0.25c0.03,0.1,0.11,0.15,0.22,0.15c0.18,0,0.48-0.2,0.92-0.6c0.43-0.4,0.94-1,1.52-1.8
	c0.21-0.3,0.43-0.62,0.66-0.97c0.2-0.94,0.43-1.95,0.69-3.01c0.37-1.47,0.79-2.99,1.25-4.54c0.47-1.56,0.93-3.02,1.4-4.39
	c0.47-1.37,0.91-2.57,1.32-3.61c0.41-1.04,0.76-1.76,1.05-2.19c0.18-0.29,0.49-0.43,0.94-0.43c0.36,0,0.73,0.07,1.12,0.2
	c0.39,0.13,0.73,0.31,1.02,0.52c0.29,0.21,0.49,0.46,0.6,0.75c0.11,0.29,0.07,0.59-0.13,0.9c-0.13,0.2-0.37,0.67-0.72,1.4
	c-0.35,0.74-0.74,1.62-1.19,2.66c-0.45,1.04-0.91,2.17-1.39,3.39c-0.48,1.22-0.92,2.43-1.32,3.61c0.2-0.29,0.46-0.63,0.77-1.02
	c0.31-0.39,0.67-0.76,1.07-1.1c0.4-0.34,0.83-0.63,1.29-0.85c0.46-0.22,0.92-0.3,1.39-0.23c0.62,0.07,1.12,0.4,1.49,0.99
	c0.37,0.59,0.39,1.4,0.08,2.42c-0.13,0.42-0.28,0.91-0.45,1.45c-0.17,0.54-0.32,1.03-0.45,1.45c-0.31,0.91-0.59,1.78-0.84,2.61
	c-0.24,0.82-0.37,1.49-0.37,2c0,0.07,0.02,0.15,0.07,0.25c0.04,0.1,0.12,0.15,0.23,0.15c0.18,0,0.5-0.22,0.97-0.65
	c0.47-0.43,1.01-1.06,1.62-1.89c0.08-0.11,0.16-0.22,0.24-0.33c0.05-0.39,0.12-0.79,0.21-1.2c0.2-0.94,0.46-1.84,0.78-2.71
	c0.32-0.87,0.68-1.65,1.09-2.36c0.4-0.7,0.81-1.22,1.24-1.55c0.36-0.27,0.72-0.46,1.1-0.59c0.38-0.12,0.75-0.18,1.1-0.18
	c0.53,0,1.01,0.12,1.44,0.35c0.42,0.23,0.74,0.61,0.94,1.12c0.07-0.16,0.12-0.27,0.15-0.33c0.03-0.07,0.11-0.19,0.22-0.37
	c0.16-0.29,0.45-0.43,0.88-0.42c0.43,0.01,0.86,0.11,1.27,0.28c0.41,0.18,0.76,0.41,1.05,0.68c0.29,0.28,0.37,0.55,0.23,0.82
	c-0.42,0.94-0.82,1.86-1.19,2.79c-0.37,0.93-0.69,1.79-0.97,2.59c-0.28,0.8-0.48,1.51-0.62,2.14c-0.13,0.62-0.18,1.1-0.13,1.44
	c0.04,0.18,0.12,0.27,0.22,0.28c0.1,0.01,0.21-0.02,0.33-0.1c0.12-0.08,0.24-0.18,0.35-0.3c0.11-0.12,0.2-0.22,0.27-0.28
	c0.45-0.49,0.92-1.14,1.44-1.95c0.51-0.81,1.01-1.65,1.49-2.52c0.29-0.52,0.55-1.02,0.81-1.51c0.13-0.6,0.26-1.21,0.41-1.83
	c-0.29-0.02-0.53-0.03-0.72-0.03c-0.19,0-0.31,0-0.35,0c-0.22,0-0.38-0.09-0.47-0.27c-0.09-0.18-0.12-0.38-0.08-0.6
	c0.03-0.22,0.11-0.43,0.23-0.62c0.12-0.19,0.28-0.3,0.48-0.32c0.18,0,0.39,0,0.62-0.01c0.23-0.01,0.5-0.02,0.79-0.02
	c0.33-1.23,0.7-2.42,1.09-3.58c0.39-1.16,0.76-2.22,1.12-3.19c0.36-0.97,0.69-1.8,1-2.49c0.31-0.69,0.56-1.17,0.74-1.44
	c0.18-0.29,0.48-0.43,0.9-0.43c0.36,0,0.73,0.07,1.12,0.2c0.39,0.13,0.73,0.31,1.02,0.52c0.29,0.21,0.49,0.46,0.6,0.75
	c0.11,0.29,0.07,0.59-0.13,0.9c-0.13,0.18-0.32,0.54-0.57,1.08c-0.24,0.55-0.53,1.22-0.87,2c-0.33,0.79-0.68,1.67-1.05,2.62
	c-0.37,0.96-0.73,1.95-1.09,2.97h3.27c0.33-1.2,0.7-2.38,1.09-3.54c0.39-1.16,0.76-2.22,1.12-3.17c0.36-0.96,0.69-1.78,0.99-2.47
	c0.3-0.69,0.54-1.17,0.72-1.44c0.11-0.18,0.25-0.29,0.42-0.35c0.17-0.06,0.34-0.08,0.52-0.08c0.36,0,0.73,0.07,1.12,0.2
	c0.39,0.13,0.73,0.31,1.02,0.52c0.29,0.21,0.49,0.46,0.6,0.75c0.11,0.29,0.07,0.59-0.13,0.9c-0.13,0.18-0.32,0.54-0.57,1.1
	c-0.25,0.56-0.53,1.22-0.87,2c-0.33,0.78-0.69,1.65-1.07,2.62c-0.38,0.97-0.75,1.97-1.1,2.99h1.27c0.2,0.05,0.33,0.17,0.4,0.39
	c0.07,0.21,0.08,0.44,0.03,0.68c-0.05,0.24-0.13,0.47-0.27,0.68c-0.13,0.21-0.28,0.34-0.43,0.38h-1.7c-0.29,0.89-0.56,1.76-0.8,2.61
	c-0.25,0.85-0.45,1.63-0.62,2.36c-0.17,0.72-0.28,1.35-0.33,1.89c-0.06,0.53-0.04,0.95,0.05,1.23c0.04,0.13,0.13,0.21,0.25,0.23
	c0.12,0.02,0.25,0,0.38-0.07c0.24-0.16,0.53-0.44,0.87-0.85c0.33-0.41,0.68-0.9,1.05-1.45c0.29-0.45,0.6-0.93,0.91-1.45l0.05-0.22
	c0.2-0.94,0.46-1.84,0.79-2.71c0.32-0.87,0.68-1.65,1.08-2.36c0.4-0.7,0.81-1.22,1.24-1.55c0.36-0.27,0.72-0.46,1.1-0.59
	c0.38-0.12,0.75-0.18,1.1-0.18c0.53,0,1.01,0.12,1.44,0.35c0.42,0.23,0.74,0.61,0.94,1.12c0.07-0.16,0.12-0.27,0.15-0.33
	c0.03-0.07,0.11-0.19,0.22-0.37c0.16-0.29,0.45-0.43,0.88-0.42c0.43,0.01,0.86,0.11,1.27,0.28c0.41,0.18,0.76,0.41,1.05,0.68
	c0.29,0.28,0.37,0.55,0.23,0.82c-0.42,0.94-0.82,1.86-1.19,2.79c-0.37,0.93-0.69,1.79-0.97,2.59c-0.28,0.8-0.49,1.51-0.62,2.14
	c-0.13,0.62-0.18,1.1-0.13,1.44c0.04,0.18,0.12,0.27,0.22,0.28c0.1,0.01,0.21-0.02,0.33-0.1c0.12-0.08,0.24-0.18,0.35-0.3
	c0.11-0.12,0.2-0.22,0.27-0.28c0.45-0.49,0.92-1.14,1.44-1.95c0.51-0.81,1.01-1.65,1.49-2.52l0.01-0.02
	c0.22-0.85,0.47-1.72,0.74-2.6c0.34-1.1,0.67-2.14,1-3.12c0.09-0.25,0.35-0.4,0.77-0.47c0.42-0.07,0.85-0.05,1.29,0.04
	c0.43,0.09,0.8,0.24,1.1,0.47c0.3,0.22,0.37,0.5,0.22,0.84c-0.18,0.47-0.38,0.93-0.6,1.4c-0.22,0.47-0.41,0.91-0.57,1.34
	c0.16-0.25,0.36-0.53,0.62-0.85c0.26-0.32,0.54-0.65,0.84-0.99c0.3-0.33,0.61-0.66,0.93-0.97
	C201.31,12.67,201.64,12.41,201.97,12.18L201.97,12.18z M188.64,15.56c0-0.07-0.01-0.17-0.02-0.32c-0.01-0.14-0.03-0.28-0.07-0.42
	c-0.03-0.13-0.08-0.26-0.13-0.37c-0.06-0.11-0.13-0.17-0.22-0.17c-0.27,0-0.56,0.21-0.88,0.62c-0.32,0.41-0.63,0.93-0.94,1.55
	c-0.3,0.62-0.59,1.31-0.85,2.07c-0.27,0.76-0.48,1.47-0.64,2.14c-0.04,0.2-0.1,0.48-0.17,0.83c-0.07,0.36-0.11,0.71-0.12,1.05
	c-0.01,0.35,0.02,0.65,0.08,0.9c0.07,0.26,0.21,0.38,0.43,0.38c0.29,0,0.58-0.16,0.87-0.48c0.29-0.32,0.56-0.74,0.82-1.25
	c0.26-0.51,0.5-1.08,0.72-1.7c0.22-0.63,0.42-1.24,0.59-1.86c0.17-0.61,0.3-1.19,0.38-1.72C188.6,16.29,188.64,15.87,188.64,15.56
	L188.64,15.56z M162.15,15.56c0-0.07,0-0.17-0.02-0.32c-0.01-0.14-0.03-0.28-0.07-0.42c-0.03-0.13-0.08-0.26-0.13-0.37
	c-0.06-0.11-0.13-0.17-0.22-0.17c-0.27,0-0.56,0.21-0.88,0.62s-0.64,0.93-0.93,1.55c-0.3,0.62-0.59,1.31-0.85,2.07
	c-0.27,0.76-0.48,1.47-0.63,2.14c-0.04,0.2-0.1,0.48-0.17,0.83c-0.07,0.36-0.11,0.71-0.12,1.05c-0.01,0.35,0.02,0.65,0.08,0.9
	c0.07,0.26,0.21,0.38,0.43,0.38c0.29,0,0.58-0.16,0.87-0.48c0.29-0.32,0.56-0.74,0.82-1.25c0.26-0.51,0.5-1.08,0.72-1.7
	c0.22-0.63,0.42-1.24,0.58-1.86c0.17-0.61,0.3-1.19,0.39-1.72C162.1,16.29,162.15,15.87,162.15,15.56L162.15,15.56z M125.83,15.56
	c0-0.07,0-0.17-0.02-0.32c-0.01-0.14-0.03-0.28-0.07-0.42c-0.03-0.13-0.08-0.26-0.13-0.37c-0.06-0.11-0.13-0.17-0.22-0.17
	c-0.27,0-0.56,0.21-0.89,0.62c-0.32,0.41-0.63,0.93-0.93,1.55c-0.3,0.62-0.59,1.31-0.85,2.07c-0.27,0.76-0.48,1.47-0.63,2.14
	c-0.05,0.2-0.1,0.48-0.17,0.83c-0.07,0.36-0.11,0.71-0.12,1.05c-0.01,0.35,0.02,0.65,0.08,0.9c0.07,0.26,0.21,0.38,0.43,0.38
	c0.29,0,0.58-0.16,0.87-0.48c0.29-0.32,0.56-0.74,0.82-1.25c0.26-0.51,0.5-1.08,0.72-1.7c0.22-0.63,0.42-1.24,0.58-1.86
	c0.17-0.61,0.3-1.19,0.38-1.72C125.79,16.29,125.83,15.87,125.83,15.56L125.83,15.56z M171.94,23.07c0.22-0.16,0.49-0.42,0.82-0.8
	c0.32-0.38,0.66-0.83,1-1.34c0.34-0.51,0.7-1.07,1.07-1.69c0.37-0.61,0.72-1.23,1.05-1.85c0.11-0.45,0.21-0.89,0.3-1.32
	c0.09-0.44,0.19-0.87,0.3-1.32c-0.58,0-1.16-0.01-1.74-0.02c-0.58-0.01-1.13-0.03-1.67-0.05c-0.31,0.91-0.6,1.8-0.85,2.66
	c-0.26,0.86-0.47,1.65-0.64,2.37c-0.17,0.72-0.28,1.36-0.33,1.92c-0.06,0.55-0.04,0.98,0.05,1.27c0.04,0.13,0.13,0.21,0.27,0.23
	C171.7,23.16,171.83,23.14,171.94,23.07L171.94,23.07z"/>
<path class="st1" d="M79.24,82.63H219.8l-66.47,82.88c-1.02,1.22-2.43,1.81-3.81,1.85c-1.39-0.05-2.79-0.63-3.81-1.85L79.24,82.63
	L79.24,82.63z"/>
<polygon class="st2" points="58.93,57.31 240.11,57.31 219.8,82.63 79.24,82.63 58.93,57.31 "/>
<path class="st3" d="M149.45,82.63h70.35l-66.47,82.88c-1.02,1.22-2.43,1.81-3.81,1.85l-0.07,0V82.63L149.45,82.63z"/>
<polygon class="st4" points="149.45,57.31 240.11,57.31 219.8,82.63 149.45,82.63 149.45,57.31 "/>
<path class="st0" d="M128.9,122.48c0.15-0.12,0.31-0.2,0.47-0.25c0.16-0.05,0.32-0.08,0.47-0.08c0.23,0,0.43,0.05,0.61,0.15
	c0.18,0.1,0.32,0.26,0.4,0.48c0.03-0.07,0.05-0.11,0.07-0.14c0.01-0.03,0.05-0.08,0.09-0.16c0.07-0.13,0.19-0.18,0.38-0.18
	c0.19,0,0.37,0.04,0.55,0.12c0.18,0.08,0.33,0.18,0.45,0.29c0.12,0.12,0.16,0.24,0.1,0.35c-0.18,0.4-0.35,0.8-0.51,1.2
	c-0.16,0.4-0.3,0.77-0.42,1.11c-0.12,0.34-0.21,0.65-0.27,0.92c-0.06,0.27-0.08,0.47-0.06,0.62c0.02,0.08,0.05,0.12,0.09,0.12
	c0.04,0,0.09-0.01,0.14-0.04c0.05-0.03,0.1-0.08,0.15-0.13c0.05-0.05,0.09-0.09,0.11-0.12c0.19-0.21,0.4-0.49,0.62-0.84
	c0.22-0.35,0.43-0.71,0.64-1.08l0-0.01c0.1-0.36,0.2-0.74,0.32-1.12c0.14-0.47,0.29-0.92,0.43-1.34c0.04-0.1,0.15-0.17,0.33-0.2
	c0.18-0.03,0.37-0.03,0.55,0.01c0.19,0.04,0.34,0.1,0.47,0.2c0.13,0.09,0.16,0.22,0.09,0.36c-0.08,0.2-0.16,0.4-0.26,0.6
	c-0.1,0.2-0.18,0.39-0.24,0.57c0.07-0.1,0.16-0.23,0.27-0.36c0.11-0.14,0.23-0.28,0.36-0.42c0.13-0.14,0.26-0.28,0.4-0.42
	c0.14-0.13,0.28-0.25,0.42-0.34c0.18-0.11,0.36-0.16,0.54-0.14c0.18,0.02,0.34,0.09,0.47,0.21c0.13,0.12,0.22,0.29,0.28,0.5
	c0.06,0.22,0.05,0.47-0.01,0.75c-0.04,0.17-0.11,0.4-0.2,0.69c-0.1,0.29-0.19,0.59-0.29,0.91c-0.1,0.32-0.18,0.62-0.26,0.92
	c-0.08,0.3-0.11,0.53-0.11,0.7c0,0.03,0.01,0.06,0.02,0.11c0.01,0.04,0.05,0.06,0.09,0.06c0.08,0,0.21-0.09,0.4-0.26
	c0.19-0.17,0.4-0.43,0.65-0.77l0.08-0.12c0.03-0.18,0.07-0.37,0.12-0.57c0.11-0.41,0.24-0.81,0.39-1.2
	c0.16-0.39,0.33-0.74,0.53-1.06c0.2-0.32,0.38-0.54,0.55-0.68c0.15-0.1,0.31-0.18,0.47-0.23c0.16-0.05,0.31-0.07,0.45-0.07
	c0.22,0,0.43,0.05,0.64,0.16s0.36,0.27,0.44,0.5c0.02-0.06,0.05-0.12,0.09-0.17c0.04-0.06,0.07-0.11,0.09-0.16
	c0.06-0.09,0.17-0.12,0.34-0.11c0.17,0.01,0.34,0.06,0.51,0.15c0.17,0.09,0.31,0.19,0.42,0.33c0.11,0.13,0.13,0.28,0.06,0.43
	c-0.14,0.29-0.3,0.63-0.47,1.03c-0.17,0.4-0.33,0.82-0.5,1.25c-0.17,0.44-0.32,0.86-0.47,1.27c-0.15,0.42-0.27,0.78-0.37,1.1
	c0.32-0.19,0.62-0.46,0.92-0.82c0.28-0.34,0.55-0.72,0.81-1.13c0.01-0.39,0.08-0.79,0.19-1.2c0.13-0.47,0.31-0.91,0.54-1.31
	c0.23-0.4,0.5-0.72,0.8-0.97c0.3-0.25,0.62-0.38,0.97-0.38c0.06,0,0.13,0,0.22,0.01c0.09,0.01,0.18,0.04,0.28,0.09
	c0.09,0.05,0.19,0.13,0.29,0.23c0.09,0.1,0.17,0.24,0.23,0.41c0.22,0.09,0.39,0.31,0.52,0.64c0.12,0.33,0.13,0.82,0.03,1.45
	c0.08,0.01,0.19-0.01,0.34-0.06c0.15-0.05,0.31-0.14,0.49-0.28c0.15-0.12,0.31-0.28,0.46-0.49c-0.04-0.31-0.02-0.59,0.06-0.83
	c0.12-0.38,0.32-0.67,0.59-0.87c0.27-0.2,0.57-0.33,0.92-0.36s0.66,0,0.93,0.13c0.2,0.09,0.36,0.21,0.48,0.38
	c0.12,0.17,0.2,0.35,0.24,0.54c0.04,0.19,0.05,0.39,0.01,0.59c-0.03,0.2-0.1,0.38-0.19,0.53c-0.06,0.09-0.14,0.16-0.24,0.18
	c-0.11,0.03-0.22,0.04-0.34,0.04c-0.12,0-0.23-0.03-0.34-0.06c-0.11-0.04-0.19-0.08-0.25-0.11c-0.07-0.05-0.1-0.11-0.1-0.18
	s0.02-0.14,0.06-0.21c0.1-0.17,0.11-0.31,0.01-0.4c-0.08-0.08-0.18-0.09-0.3-0.04c-0.12,0.05-0.2,0.18-0.21,0.36
	c0,0.23,0.04,0.47,0.13,0.73c0.09,0.26,0.19,0.52,0.3,0.78c0.11,0.26,0.22,0.52,0.33,0.76c0.11,0.24,0.17,0.47,0.2,0.67v0.2
	c0.41-0.33,0.85-0.82,1.32-1.45c0.16-0.21,0.31-0.45,0.46-0.71c0.08-0.45,0.18-0.93,0.3-1.42l-0.22-0.01
	c-0.16-0.01-0.27-0.04-0.34-0.08c-0.06-0.04-0.09-0.1-0.09-0.16c0-0.11,0.03-0.22,0.09-0.33c0.06-0.12,0.16-0.16,0.29-0.14
	c0.08,0.01,0.15,0.02,0.22,0.02c0.07,0,0.14,0.01,0.22,0.01c0.14-0.53,0.3-1.04,0.47-1.55c0.17-0.51,0.33-0.97,0.49-1.39
	c0.16-0.42,0.3-0.78,0.44-1.08c0.13-0.3,0.24-0.51,0.32-0.62c0.08-0.12,0.21-0.18,0.39-0.18c0.15,0,0.31,0.03,0.48,0.09
	c0.17,0.06,0.31,0.13,0.44,0.22c0.12,0.09,0.21,0.2,0.26,0.32c0.05,0.12,0.03,0.25-0.06,0.39c-0.06,0.08-0.14,0.24-0.25,0.48
	c-0.11,0.24-0.24,0.54-0.38,0.88s-0.3,0.73-0.46,1.15c-0.16,0.42-0.32,0.86-0.47,1.31h0.4c0.06,0,0.09,0.04,0.11,0.11
	c0.02,0.07,0.02,0.15,0.01,0.24c-0.01,0.09-0.05,0.17-0.1,0.24c-0.05,0.08-0.12,0.12-0.21,0.13c-0.08,0.01-0.15,0.02-0.23,0.02
	c-0.08,0-0.16,0.01-0.24,0.02c-0.13,0.39-0.25,0.77-0.36,1.14c-0.11,0.37-0.19,0.71-0.26,1.02c-0.07,0.31-0.12,0.59-0.15,0.83
	c-0.03,0.24-0.02,0.42,0.01,0.54c0.02,0.06,0.06,0.09,0.11,0.1c0.06,0.01,0.11,0,0.16-0.03c0.11-0.07,0.23-0.19,0.37-0.36
	c0.14-0.18,0.3-0.38,0.46-0.62c0.08-0.11,0.15-0.23,0.23-0.36c0.01-0.08,0.02-0.16,0.04-0.25c0.08-0.42,0.17-0.83,0.29-1.24
	c0.12-0.4,0.25-0.77,0.38-1.11c0.13-0.34,0.25-0.58,0.36-0.75c0.13-0.16,0.31-0.24,0.52-0.24c0.14,0,0.29,0.02,0.43,0.06
	c0.14,0.04,0.27,0.1,0.36,0.18c0.1,0.08,0.17,0.18,0.19,0.29c0.03,0.12,0,0.26-0.09,0.41c-0.09,0.16-0.19,0.39-0.32,0.68
	c-0.13,0.29-0.26,0.61-0.38,0.95c-0.12,0.34-0.24,0.69-0.34,1.03c-0.11,0.34-0.17,0.65-0.2,0.92c-0.04,0.25,0,0.4,0.11,0.44
	c0.11,0.05,0.25-0.07,0.41-0.36c0.12-0.21,0.26-0.48,0.39-0.82c0.14-0.33,0.28-0.68,0.42-1.04c0.14-0.36,0.27-0.71,0.4-1.05
	c0.13-0.34,0.24-0.63,0.32-0.87c0.05-0.14,0.09-0.27,0.13-0.37c0.04-0.1,0.07-0.18,0.1-0.22c0.11-0.16,0.27-0.24,0.49-0.24
	c0.14,0,0.29,0.02,0.44,0.05c0.15,0.03,0.27,0.08,0.38,0.15c0.1,0.07,0.18,0.15,0.21,0.26c0.04,0.1,0.02,0.23-0.06,0.39
	c-0.09,0.15-0.19,0.36-0.31,0.62c-0.12,0.26-0.24,0.55-0.36,0.86c-0.12,0.31-0.23,0.63-0.33,0.95c-0.1,0.32-0.16,0.62-0.2,0.9
	c0,0.03,0,0.08-0.01,0.16c-0.01,0.08-0.01,0.17-0.01,0.25c0,0.09,0.01,0.16,0.04,0.23c0.02,0.07,0.06,0.1,0.12,0.11
	c0.09,0,0.23-0.07,0.4-0.22c0.17-0.14,0.37-0.38,0.6-0.7c0.23-0.32,0.48-0.75,0.75-1.26c0.24-0.46,0.48-1.01,0.74-1.65l-0.03-0.02
	c-0.15-0.1-0.27-0.23-0.36-0.39c-0.1-0.16-0.15-0.35-0.16-0.57c-0.02-0.32,0.07-0.61,0.25-0.85c0.19-0.24,0.44-0.36,0.75-0.35
	c0.17,0,0.31,0.04,0.41,0.13c0.1,0.09,0.17,0.2,0.22,0.33c0.04,0.14,0.05,0.28,0.04,0.44c-0.02,0.16-0.06,0.31-0.13,0.46
	c0.02,0.13,0.1,0.23,0.25,0.27c0.15,0.05,0.29,0.02,0.42-0.07c0.13-0.08,0.27-0.12,0.4-0.12c0.14,0,0.29,0.04,0.44,0.1
	c0.15,0.07,0.27,0.15,0.36,0.26c0.09,0.1,0.15,0.22,0.17,0.36c0.02,0.14-0.01,0.27-0.11,0.42c-0.1,0.14-0.23,0.34-0.37,0.58
	c-0.14,0.24-0.28,0.51-0.42,0.8c-0.13,0.29-0.25,0.58-0.34,0.87c-0.1,0.3-0.15,0.56-0.16,0.8c0,0.16,0.02,0.28,0.06,0.36
	c0.04,0.08,0.15,0.05,0.34-0.09c0.22-0.16,0.47-0.42,0.75-0.77c0.28-0.35,0.56-0.72,0.84-1.12l0.1-0.15
	c0.07-0.25,0.15-0.5,0.23-0.73c0.14-0.37,0.29-0.71,0.47-1.01c0.17-0.3,0.35-0.52,0.53-0.67c0.15-0.12,0.31-0.2,0.47-0.25
	c0.16-0.05,0.32-0.08,0.47-0.08c0.23,0,0.43,0.05,0.62,0.15c0.18,0.1,0.32,0.26,0.4,0.48c0.03-0.07,0.05-0.11,0.07-0.14
	c0.01-0.03,0.04-0.08,0.09-0.16c0.07-0.13,0.19-0.18,0.38-0.18c0.19,0,0.37,0.04,0.54,0.12c0.18,0.08,0.33,0.18,0.45,0.29
	c0.12,0.12,0.16,0.24,0.1,0.35c-0.18,0.4-0.35,0.8-0.51,1.2c-0.16,0.4-0.3,0.77-0.42,1.11c-0.12,0.34-0.21,0.65-0.27,0.92
	c-0.06,0.27-0.08,0.47-0.06,0.62c0.02,0.08,0.05,0.12,0.09,0.12c0.04,0,0.09-0.01,0.14-0.04c0.05-0.03,0.1-0.08,0.15-0.13
	c0.05-0.05,0.09-0.09,0.11-0.12c0.19-0.21,0.4-0.49,0.62-0.84c0.22-0.35,0.43-0.71,0.64-1.08c0.2-0.37,0.39-0.73,0.56-1.07
	c0.17-0.34,0.3-0.6,0.39-0.8c0.02-0.05,0.06-0.07,0.12-0.07c0.06,0,0.12,0.01,0.18,0.04c0.06,0.02,0.11,0.06,0.15,0.1
	c0.04,0.04,0.05,0.09,0.04,0.14c-0.06,0.09-0.15,0.27-0.27,0.55c-0.12,0.28-0.26,0.61-0.43,0.97c-0.17,0.37-0.35,0.75-0.55,1.15
	c-0.2,0.4-0.41,0.77-0.64,1.11c-0.23,0.34-0.45,0.62-0.69,0.84c-0.23,0.22-0.47,0.33-0.7,0.33c-0.25,0-0.47-0.09-0.65-0.26
	c-0.19-0.17-0.31-0.4-0.37-0.69c-0.06,0.1-0.13,0.21-0.21,0.32c-0.09,0.11-0.18,0.21-0.29,0.3c-0.11,0.09-0.22,0.17-0.35,0.23
	c-0.13,0.06-0.27,0.1-0.42,0.11c-0.41,0-0.76-0.14-1.03-0.42c-0.28-0.28-0.41-0.71-0.41-1.27l0-0.13c-0.16,0.23-0.32,0.45-0.48,0.66
	c-0.26,0.33-0.53,0.61-0.79,0.83c-0.26,0.22-0.51,0.33-0.74,0.33c-0.19,0-0.36-0.05-0.52-0.16c-0.15-0.1-0.28-0.24-0.38-0.41
	c-0.1-0.17-0.18-0.36-0.23-0.57c-0.05-0.22-0.08-0.44-0.08-0.68c0-0.23,0.02-0.47,0.07-0.72c0.04-0.25,0.1-0.5,0.17-0.75
	c0.07-0.25,0.16-0.49,0.25-0.72c0.09-0.23,0.19-0.44,0.29-0.63c-0.19-0.01-0.38-0.04-0.57-0.09l-0.04-0.01l-0.11,0.28
	c-0.11,0.28-0.24,0.6-0.4,0.96c-0.16,0.36-0.34,0.75-0.54,1.15c-0.2,0.4-0.41,0.77-0.63,1.11c-0.22,0.34-0.44,0.63-0.67,0.86
	c-0.23,0.23-0.45,0.36-0.67,0.38c-0.38,0.04-0.68-0.07-0.89-0.32c-0.21-0.25-0.32-0.58-0.33-0.99c-0.09,0.16-0.18,0.32-0.29,0.47
	c-0.11,0.15-0.22,0.29-0.34,0.41c-0.12,0.12-0.25,0.22-0.39,0.29c-0.14,0.08-0.27,0.11-0.41,0.11c-0.11,0-0.24-0.02-0.37-0.06
	c-0.13-0.04-0.26-0.11-0.39-0.22c-0.12-0.1-0.23-0.26-0.31-0.46c-0.05-0.11-0.08-0.23-0.11-0.38c-0.2,0.3-0.4,0.55-0.6,0.76
	c-0.22,0.23-0.43,0.34-0.65,0.35c-0.4,0.02-0.72-0.09-0.95-0.32c-0.23-0.23-0.37-0.56-0.42-0.99c-0.03-0.24-0.03-0.52-0.01-0.83
	c-0.3,0.43-0.65,0.84-1.05,1.22c-0.45,0.43-0.99,0.75-1.6,0.95c-0.2,0.09-0.43,0.14-0.69,0.17c-0.24,0.02-0.44,0.01-0.61-0.01
	c-0.17-0.03-0.31-0.08-0.42-0.14c-0.11-0.07-0.19-0.15-0.24-0.24c-0.05-0.09-0.08-0.19-0.08-0.3c-0.01-0.15,0.03-0.28,0.11-0.39
	c0.09-0.11,0.18-0.18,0.29-0.22c0.11-0.04,0.22-0.03,0.32,0.01c0.1,0.05,0.16,0.16,0.19,0.33c0.02,0.11,0.08,0.16,0.19,0.16
	c0.15,0,0.26-0.06,0.32-0.18c0.06-0.12,0.08-0.27,0.07-0.46c-0.01-0.19-0.04-0.39-0.09-0.61c-0.05-0.22-0.11-0.44-0.18-0.65
	c-0.07-0.21-0.13-0.4-0.19-0.57l-0.06-0.18c-0.04,0.04-0.07,0.08-0.11,0.12c-0.23,0.25-0.49,0.45-0.76,0.61
	c-0.27,0.16-0.54,0.23-0.8,0.21c-0.19,0.72-0.48,1.31-0.87,1.76c-0.39,0.46-0.85,0.69-1.4,0.69c-0.21,0-0.43-0.05-0.67-0.16
	c-0.32-0.16-0.55-0.42-0.69-0.77c-0.06-0.14-0.11-0.29-0.14-0.45c-0.11,0.17-0.23,0.33-0.35,0.49c-0.25,0.32-0.51,0.6-0.79,0.84
	c-0.28,0.24-0.56,0.41-0.86,0.52c-0.07,0.2-0.16,0.45-0.27,0.75c-0.12,0.3-0.26,0.58-0.44,0.85c-0.18,0.27-0.39,0.5-0.64,0.69
	c-0.24,0.19-0.53,0.27-0.85,0.25c-0.23-0.01-0.42-0.08-0.58-0.2c-0.16-0.12-0.27-0.28-0.34-0.46c-0.07-0.19-0.1-0.39-0.09-0.61
	c0.01-0.22,0.07-0.42,0.17-0.62c0.17-0.32,0.44-0.58,0.8-0.76c0.36-0.18,0.74-0.32,1.12-0.42l0.17-0.59
	c-0.09,0.16-0.21,0.29-0.39,0.39c-0.17,0.1-0.33,0.14-0.47,0.14c-0.4-0.02-0.72-0.18-0.96-0.49c-0.14-0.18-0.24-0.4-0.3-0.64
	c-0.21,0.29-0.43,0.53-0.65,0.73c-0.25,0.23-0.5,0.36-0.75,0.4c-0.23,0.02-0.42,0-0.58-0.06c-0.16-0.06-0.28-0.15-0.38-0.27
	c-0.09-0.12-0.16-0.27-0.21-0.45c-0.04-0.17-0.07-0.36-0.07-0.56c0-0.31,0.05-0.64,0.14-1.01c0.09-0.37,0.17-0.73,0.25-1.1
	c0.06-0.26,0.07-0.44,0.04-0.54c-0.03-0.1-0.09-0.14-0.18-0.11c-0.09,0.02-0.18,0.1-0.29,0.22c-0.11,0.12-0.21,0.28-0.29,0.47
	c-0.09,0.19-0.18,0.41-0.29,0.65c-0.11,0.24-0.2,0.49-0.29,0.74c-0.09,0.25-0.18,0.5-0.26,0.74c-0.08,0.24-0.14,0.45-0.18,0.63
	c-0.04,0.17-0.12,0.33-0.24,0.47c-0.12,0.14-0.31,0.2-0.54,0.16c-0.17-0.02-0.3-0.12-0.38-0.29c-0.08-0.18-0.12-0.34-0.12-0.48
	c0-0.13,0.01-0.26,0.02-0.42l-0.02,0.02c-0.23,0.34-0.45,0.62-0.69,0.84c-0.23,0.22-0.47,0.33-0.69,0.33
	c-0.25,0-0.47-0.09-0.65-0.26s-0.31-0.4-0.36-0.69c-0.06,0.1-0.13,0.21-0.22,0.32c-0.09,0.11-0.18,0.21-0.29,0.3
	c-0.1,0.09-0.22,0.17-0.35,0.23c-0.13,0.06-0.27,0.1-0.42,0.11c-0.41,0-0.75-0.14-1.03-0.42c-0.28-0.28-0.41-0.71-0.41-1.27
	c0-0.34,0.04-0.72,0.13-1.12c0.09-0.4,0.2-0.79,0.34-1.16c0.14-0.37,0.29-0.71,0.47-1.01C128.54,122.84,128.72,122.62,128.9,122.48
	L128.9,122.48z M167.57,123.8c0-0.03,0-0.07-0.01-0.13c0-0.06-0.01-0.12-0.03-0.18c-0.01-0.06-0.03-0.11-0.06-0.16
	c-0.02-0.05-0.05-0.07-0.09-0.07c-0.11,0-0.24,0.09-0.38,0.27c-0.14,0.18-0.27,0.4-0.4,0.67c-0.13,0.27-0.25,0.56-0.37,0.89
	c-0.11,0.33-0.21,0.63-0.27,0.92c-0.02,0.09-0.04,0.2-0.07,0.36c-0.03,0.15-0.05,0.3-0.05,0.45c0,0.15,0.01,0.28,0.04,0.39
	c0.03,0.11,0.09,0.16,0.19,0.16c0.12,0,0.25-0.07,0.37-0.21c0.12-0.14,0.24-0.32,0.35-0.54c0.11-0.22,0.21-0.46,0.31-0.73
	c0.1-0.27,0.18-0.53,0.25-0.79c0.07-0.26,0.13-0.51,0.16-0.74C167.55,124.11,167.57,123.93,167.57,123.8L167.57,123.8z
	 M144.35,127.54c0.13,0,0.26-0.07,0.39-0.22c0.12-0.14,0.24-0.32,0.34-0.54c0.1-0.22,0.19-0.45,0.26-0.69
	c0.07-0.24,0.11-0.47,0.13-0.67c-0.09-0.06-0.16-0.14-0.22-0.26c-0.06-0.11-0.11-0.24-0.14-0.38c-0.03-0.14-0.05-0.28-0.06-0.42
	c0-0.14,0.02-0.27,0.07-0.37c-0.13,0.05-0.27,0.17-0.4,0.36c-0.13,0.19-0.26,0.42-0.37,0.68c-0.11,0.26-0.2,0.54-0.28,0.84
	c-0.08,0.3-0.12,0.57-0.14,0.81c-0.01,0.24,0.01,0.45,0.07,0.61C144.06,127.46,144.18,127.54,144.35,127.54L144.35,127.54z
	 M139.5,129.13c-0.22,0.08-0.39,0.18-0.52,0.3c-0.13,0.12-0.22,0.23-0.28,0.35c-0.06,0.11-0.08,0.22-0.08,0.3
	c0,0.09,0.04,0.13,0.09,0.13c0.11,0,0.21-0.03,0.29-0.1c0.08-0.07,0.15-0.15,0.22-0.26c0.06-0.1,0.12-0.22,0.16-0.34
	C139.43,129.38,139.47,129.25,139.5,129.13L139.5,129.13z M140.91,123.58c0-0.03,0-0.07-0.01-0.12c0-0.05-0.02-0.1-0.03-0.16
	c-0.01-0.05-0.03-0.1-0.06-0.14c-0.02-0.04-0.05-0.06-0.09-0.06c-0.11,0-0.23,0.08-0.36,0.24c-0.13,0.16-0.27,0.37-0.4,0.63
	c-0.13,0.26-0.26,0.54-0.39,0.85c-0.13,0.31-0.24,0.61-0.34,0.91c-0.04,0.11-0.08,0.27-0.12,0.46c-0.04,0.2-0.07,0.38-0.09,0.56
	c-0.02,0.18-0.02,0.33,0.01,0.45c0.02,0.12,0.09,0.16,0.19,0.13c0.16-0.04,0.32-0.14,0.47-0.32c0.15-0.17,0.28-0.38,0.41-0.62
	c0.12-0.24,0.24-0.5,0.34-0.78c0.1-0.28,0.19-0.55,0.26-0.82c0.07-0.26,0.13-0.5,0.17-0.72C140.9,123.86,140.91,123.7,140.91,123.58
	L140.91,123.58z M130.44,123.8c0-0.03,0-0.07-0.01-0.13c0-0.06-0.01-0.12-0.03-0.18c-0.01-0.06-0.03-0.11-0.06-0.16
	c-0.02-0.05-0.05-0.07-0.09-0.07c-0.12,0-0.24,0.09-0.38,0.27c-0.14,0.18-0.27,0.4-0.4,0.67c-0.13,0.27-0.25,0.56-0.37,0.89
	c-0.11,0.33-0.21,0.63-0.27,0.92c-0.02,0.09-0.04,0.2-0.07,0.36c-0.03,0.15-0.05,0.3-0.05,0.45c0,0.15,0.01,0.28,0.04,0.39
	c0.03,0.11,0.09,0.16,0.19,0.16c0.12,0,0.25-0.07,0.37-0.21c0.12-0.14,0.24-0.32,0.35-0.54c0.11-0.22,0.21-0.46,0.31-0.73
	c0.1-0.27,0.18-0.53,0.25-0.79c0.07-0.26,0.13-0.51,0.16-0.74C130.42,124.11,130.44,123.93,130.44,123.8L130.44,123.8z"/>
<path class="st0" d="M159.49,132.42c0.66,2.82,8.93,12.36,0,12.36C150.56,144.78,158.82,135.24,159.49,132.42L159.49,132.42z
	 M139.55,132.42c0.66,2.82,8.92,12.36,0,12.36C130.63,144.78,138.89,135.24,139.55,132.42L139.55,132.42z M149.52,132.42
	c0.66,2.82,8.92,12.36,0,12.36C140.59,144.78,148.85,135.24,149.52,132.42L149.52,132.42z"/>
<path class="st5" d="M59.1,47.93l46.07,57.44L66.93,47.93H59.1L59.1,47.93z M239.98,47.93l-72.84,94.75l64.94-94.75H239.98
	L239.98,47.93z"/>
<path class="st6" d="M43.21,44.21c33.61,41.63,67.22,83.25,100.83,124.88l-0.16,71.26c-3.33-0.09-4.15,17.97,0.66,17.98
	c1.47,17.1-47.31,27.37-52.71,29.45c-4.64,1.79-6.45,3.93-5.9,7.22H213.1c0.55-3.3-1.26-5.43-5.9-7.22
	c-5.39-2.09-54.17-12.35-52.71-29.45c4.81-0.01,4-18.07,0.66-17.98L155,169.09c33.61-41.62,67.22-83.25,100.83-124.88
	C184.96,44.21,114.08,44.21,43.21,44.21L43.21,44.21z M89.85,292.97c-0.18-1.77,2.11-2.99,6.9-4.3
	c6.93-1.89,52.75-11.87,50.83-31.74c-4.81-0.01-3.68-15.44-0.34-15.35l-0.19-65.65c0-2.26,1.21-3.36,2.48-3.43
	c1.27,0.06,2.48,1.17,2.48,3.43l-0.19,65.65c3.34-0.09,4.47,15.34-0.34,15.35c-1.93,19.88,43.9,29.85,50.83,31.74
	c4.79,1.31,7.07,2.53,6.9,4.3C169.37,292.93,129.66,292.93,89.85,292.97L89.85,292.97z M149.52,167.36
	c-1.39-0.05-2.79-0.63-3.81-1.85L51.41,47.93c69.6,0,126.61,0,196.21,0l-94.29,117.57C152.31,166.73,150.9,167.31,149.52,167.36
	L149.52,167.36z"/>
<path class="st7" d="M158.16,97.81c-0.1,0.09-0.23,0.13-0.39,0.13c-0.16-0.01-0.32-0.05-0.47-0.14c-0.15-0.08-0.27-0.2-0.36-0.36
	c-0.09-0.16-0.11-0.34-0.05-0.55c0.03-0.11,0.07-0.24,0.11-0.39c0.04-0.15,0.08-0.3,0.13-0.45c0.05-0.15,0.1-0.29,0.16-0.43
	c0.06-0.13,0.11-0.24,0.17-0.32c0.07-0.07,0.13-0.12,0.2-0.15c0.07-0.03,0.15-0.06,0.25-0.07c0.17-0.01,0.34,0.02,0.53,0.08
	c0.19,0.07,0.36,0.16,0.51,0.27c0.15,0.12,0.26,0.25,0.33,0.4c0.07,0.15,0.08,0.29,0.01,0.42L158.16,97.81L158.16,97.81z
	 M168.57,94.6c-0.1,0.14-0.23,0.36-0.39,0.64c-0.16,0.28-0.33,0.61-0.52,0.98c-0.18,0.37-0.37,0.76-0.56,1.18
	c-0.19,0.42-0.37,0.83-0.53,1.24c-0.17,0.41-0.32,0.8-0.44,1.17c-0.13,0.37-0.22,0.69-0.28,0.96c0.11-0.12,0.24-0.27,0.39-0.44
	c0.15-0.17,0.31-0.36,0.48-0.58c0.17-0.21,0.33-0.44,0.49-0.69c0.16-0.25,0.31-0.53,0.44-0.83c0.07-0.14,0.17-0.21,0.31-0.18
	c0.14,0.02,0.28,0.09,0.43,0.21c0.14,0.12,0.27,0.26,0.38,0.43c0.11,0.17,0.17,0.33,0.18,0.48c0.01,0.17-0.04,0.35-0.14,0.54
	c-0.11,0.2-0.25,0.4-0.42,0.6c-0.17,0.21-0.37,0.42-0.6,0.64c-0.23,0.22-0.46,0.43-0.69,0.63c0.28,0.06,0.47,0.17,0.58,0.33
	c0.11,0.16,0.16,0.34,0.18,0.54c0.01,0.19-0.01,0.39-0.05,0.6c-0.05,0.21-0.07,0.38-0.08,0.54c-0.01,0.15,0.01,0.26,0.06,0.32
	c0.05,0.07,0.18,0.06,0.39-0.02c0.25-0.09,0.5-0.31,0.78-0.68c0.18-0.23,0.35-0.49,0.52-0.76c0.03-0.13,0.05-0.27,0.09-0.4
	c0.08-0.35,0.17-0.69,0.27-1.04c0.1-0.35,0.2-0.68,0.31-0.99c0.11-0.31,0.21-0.59,0.32-0.82c0.11-0.23,0.2-0.41,0.27-0.52
	c0.07-0.09,0.16-0.15,0.28-0.18c0.12-0.03,0.23-0.04,0.34-0.02c0.17,0.01,0.33,0.05,0.5,0.1c0.17,0.06,0.31,0.13,0.43,0.23
	c0.12,0.09,0.19,0.2,0.23,0.33c0.03,0.12,0,0.26-0.1,0.42c-0.1,0.17-0.23,0.43-0.4,0.78c-0.17,0.35-0.33,0.73-0.5,1.15
	c-0.17,0.42-0.32,0.84-0.46,1.26c-0.14,0.42-0.24,0.79-0.29,1.1c-0.05,0.22-0.05,0.38,0,0.47c0.04,0.09,0.09,0.13,0.15,0.13
	c0.17,0,0.33-0.12,0.48-0.35c0.16-0.23,0.31-0.54,0.47-0.91c0.16-0.37,0.31-0.79,0.45-1.24c0.14-0.45,0.29-0.89,0.44-1.32
	c0.15-0.43,0.29-0.82,0.43-1.17c0.14-0.35,0.28-0.61,0.43-0.77c0.08-0.09,0.18-0.15,0.3-0.18c0.12-0.03,0.25-0.03,0.37-0.01
	c0.14,0.02,0.3,0.06,0.46,0.12c0.16,0.06,0.3,0.14,0.43,0.23c0.12,0.1,0.2,0.22,0.24,0.35c0.04,0.13,0.01,0.28-0.09,0.44
	c-0.2,0.31-0.39,0.67-0.57,1.07c-0.18,0.4-0.34,0.81-0.5,1.24c-0.16,0.42-0.31,0.84-0.45,1.26c-0.15,0.42-0.28,0.79-0.4,1.13
	c-0.02,0.07-0.05,0.16-0.09,0.28c-0.04,0.12-0.07,0.21-0.09,0.27c0.32-0.19,0.66-0.47,1.02-0.85c0.36-0.38,0.71-0.81,1.06-1.31
	c0.35-0.5,0.68-1.02,1-1.59c0.32-0.56,0.6-1.13,0.84-1.69c0.03-0.05,0.09-0.07,0.16-0.08c0.07,0,0.15,0.01,0.22,0.03
	c0.07,0.03,0.13,0.07,0.18,0.12c0.04,0.05,0.06,0.1,0.05,0.14c-0.19,0.47-0.45,1.01-0.79,1.63c-0.33,0.63-0.72,1.24-1.15,1.85
	c-0.43,0.61-0.9,1.17-1.41,1.69c-0.51,0.52-1.03,0.91-1.56,1.18c-0.04,0.12-0.09,0.26-0.14,0.4c-0.05,0.14-0.09,0.28-0.12,0.4
	c-0.11,0.31-0.25,0.61-0.41,0.9c-0.16,0.28-0.35,0.53-0.56,0.75c-0.21,0.22-0.45,0.4-0.71,0.53c-0.26,0.13-0.55,0.2-0.86,0.2
	c-0.39,0-0.7-0.11-0.92-0.33c-0.22-0.22-0.33-0.49-0.33-0.8c0-0.33,0.08-0.64,0.23-0.91c0.16-0.27,0.36-0.52,0.61-0.73
	c0.25-0.21,0.53-0.4,0.84-0.55c0.31-0.15,0.61-0.28,0.91-0.37c0.01-0.07,0.03-0.15,0.06-0.24c0.03-0.09,0.06-0.18,0.08-0.26
	c0.03-0.08,0.05-0.14,0.06-0.18c0.01-0.04,0.01-0.06,0-0.03c-0.08,0.17-0.16,0.3-0.26,0.39c-0.09,0.09-0.18,0.17-0.27,0.22
	c-0.08,0.05-0.16,0.08-0.23,0.09c-0.07,0.01-0.12,0.02-0.15,0.02c-0.42,0-0.75-0.14-0.98-0.43c-0.23-0.29-0.35-0.68-0.36-1.19
	l0-0.09c-0.12,0.17-0.24,0.33-0.36,0.48c-0.28,0.36-0.58,0.66-0.88,0.89c-0.3,0.23-0.59,0.34-0.87,0.34c-0.31,0-0.53-0.07-0.65-0.21
	c-0.12-0.14-0.19-0.32-0.21-0.53c-0.02-0.21-0.01-0.44,0.03-0.68c0.04-0.24,0.06-0.46,0.07-0.67c0-0.21-0.03-0.37-0.11-0.51
	c-0.08-0.13-0.25-0.19-0.5-0.18c-0.12,0.12-0.23,0.23-0.32,0.32c-0.09,0.09-0.14,0.18-0.17,0.26c-0.06,0.12-0.09,0.27-0.11,0.43
	c-0.02,0.17-0.03,0.34-0.05,0.51c-0.02,0.17-0.04,0.34-0.07,0.49c-0.03,0.16-0.08,0.28-0.14,0.38c-0.09,0.12-0.2,0.21-0.34,0.28
	c-0.14,0.06-0.28,0.09-0.43,0.07c-0.14-0.01-0.28-0.06-0.41-0.14c-0.13-0.08-0.22-0.2-0.28-0.36c-0.06-0.4-0.04-0.91,0.03-1.54
	l0.02-0.18c-0.3,0.4-0.64,0.78-1.02,1.14c-0.53,0.51-1.15,0.88-1.86,1.11c-0.23,0.1-0.5,0.17-0.8,0.2
	c-0.28,0.02-0.51,0.02-0.71-0.02c-0.2-0.03-0.36-0.09-0.49-0.17c-0.13-0.08-0.22-0.17-0.28-0.28c-0.06-0.11-0.09-0.23-0.09-0.35
	c-0.01-0.18,0.03-0.33,0.13-0.46c0.1-0.13,0.21-0.22,0.34-0.26c0.13-0.04,0.25-0.04,0.37,0.02c0.12,0.06,0.19,0.18,0.23,0.38
	c0.02,0.12,0.09,0.18,0.22,0.18c0.18,0,0.3-0.07,0.37-0.21c0.07-0.14,0.09-0.32,0.08-0.54c-0.01-0.22-0.05-0.45-0.11-0.71
	c-0.06-0.26-0.13-0.51-0.21-0.75c-0.08-0.24-0.15-0.47-0.22-0.67l-0.05-0.16c-0.18,0.38-0.37,0.77-0.58,1.18
	c-0.25,0.47-0.51,0.9-0.79,1.27c-0.28,0.38-0.59,0.7-0.91,0.95c-0.32,0.25-0.65,0.37-0.99,0.37c-0.28,0-0.51-0.05-0.7-0.13
	c-0.19-0.09-0.34-0.21-0.46-0.37c-0.12-0.16-0.2-0.34-0.25-0.56c-0.03-0.13-0.05-0.27-0.06-0.41l0,0c-0.28,0.39-0.58,0.72-0.88,0.98
	c-0.31,0.27-0.61,0.42-0.91,0.47c-0.29,0.02-0.53,0-0.72-0.07c-0.19-0.07-0.34-0.17-0.46-0.32c-0.12-0.14-0.2-0.32-0.25-0.52
	c-0.05-0.2-0.07-0.42-0.07-0.65c0-0.36,0.05-0.75,0.16-1.18c0.1-0.43,0.21-0.86,0.31-1.28c0.07-0.3,0.08-0.51,0.04-0.63
	c-0.04-0.12-0.11-0.16-0.21-0.14c-0.1,0.03-0.21,0.11-0.34,0.26c-0.13,0.15-0.24,0.33-0.34,0.55c-0.1,0.22-0.21,0.47-0.32,0.75
	c-0.11,0.28-0.22,0.57-0.33,0.86c-0.11,0.29-0.2,0.58-0.28,0.86c-0.08,0.28-0.15,0.52-0.19,0.73c-0.04,0.21-0.14,0.4-0.28,0.57
	c-0.15,0.17-0.35,0.23-0.6,0.18c-0.09-0.01-0.17-0.05-0.24-0.12c-0.07-0.07-0.13-0.14-0.18-0.23c-0.04-0.09-0.08-0.18-0.1-0.28
	s-0.03-0.19-0.03-0.28c0-0.36,0.06-0.84,0.18-1.46c0.06-0.32,0.13-0.64,0.2-0.99c-0.17,0.15-0.34,0.28-0.52,0.39
	c-0.35,0.22-0.69,0.28-1.03,0.19c-0.17,0.32-0.35,0.64-0.54,0.95c-0.19,0.31-0.4,0.59-0.62,0.85c-0.22,0.26-0.44,0.47-0.68,0.65
	c-0.23,0.18-0.47,0.29-0.72,0.33c-0.19,0.03-0.37,0.02-0.53-0.04c-0.17-0.06-0.32-0.16-0.45-0.3c-0.13-0.14-0.25-0.31-0.35-0.5
	c-0.1-0.19-0.17-0.4-0.22-0.63c-0.1,0.18-0.2,0.35-0.3,0.53c-0.1,0.17-0.21,0.33-0.33,0.47c-0.12,0.14-0.25,0.25-0.38,0.34
	c-0.14,0.09-0.29,0.14-0.46,0.15c-0.29,0.02-0.54-0.02-0.74-0.13c-0.2-0.1-0.36-0.26-0.48-0.45c-0.12-0.19-0.2-0.42-0.24-0.68
	c-0.04-0.26-0.06-0.54-0.03-0.84c0.02-0.37,0.07-0.77,0.16-1.22c0.08-0.45,0.19-0.89,0.32-1.32c0.13-0.43,0.27-0.84,0.42-1.22
	c0.15-0.38,0.31-0.69,0.48-0.93c0.13-0.19,0.33-0.28,0.59-0.28c0.17,0,0.33,0.02,0.48,0.08c0.16,0.05,0.29,0.12,0.39,0.21
	c0.11,0.09,0.17,0.2,0.2,0.34c0.03,0.14-0.01,0.29-0.11,0.46c-0.1,0.19-0.23,0.46-0.39,0.81c-0.16,0.35-0.32,0.73-0.48,1.13
	c-0.16,0.41-0.29,0.82-0.4,1.23c-0.11,0.41-0.17,0.77-0.17,1.08c-0.01,0.38,0.03,0.57,0.13,0.56c0.09,0,0.23-0.18,0.41-0.51
	c0.16-0.3,0.33-0.69,0.51-1.17c0.18-0.48,0.36-0.97,0.54-1.47c0.18-0.5,0.35-0.97,0.51-1.42c0.16-0.45,0.3-0.79,0.43-1.02
	c0.13-0.18,0.33-0.27,0.6-0.27c0.17,0,0.33,0.03,0.48,0.08c0.16,0.05,0.29,0.12,0.39,0.23c0.11,0.1,0.18,0.22,0.21,0.35
	c0.03,0.13,0.01,0.28-0.08,0.45c-0.1,0.19-0.22,0.45-0.37,0.79c-0.15,0.34-0.28,0.71-0.41,1.1c-0.13,0.4-0.24,0.79-0.33,1.2
	c-0.09,0.4-0.15,0.76-0.16,1.07c0,0.21,0.01,0.36,0.04,0.45c0.03,0.09,0.07,0.13,0.13,0.13c0.06,0,0.13-0.04,0.21-0.12
	c0.08-0.09,0.18-0.19,0.28-0.33c0.19-0.26,0.38-0.57,0.56-0.94c0.18-0.37,0.36-0.76,0.53-1.17c-0.06-0.12-0.1-0.25-0.13-0.38
	c-0.03-0.13-0.06-0.26-0.08-0.39c-0.03-0.22-0.04-0.49-0.01-0.79c0.03-0.3,0.09-0.59,0.18-0.85c0.09-0.27,0.23-0.5,0.39-0.68
	c0.17-0.19,0.38-0.29,0.63-0.32c0.28-0.02,0.5,0.05,0.68,0.23c0.17,0.17,0.28,0.41,0.33,0.72c0.05,0.31,0.04,0.66-0.04,1.06
	c-0.08,0.4-0.23,0.82-0.45,1.27c0.18,0.03,0.37,0,0.57-0.11c0.2-0.11,0.4-0.26,0.59-0.47c0.06-0.07,0.13-0.14,0.19-0.22
	c0.17-0.66,0.36-1.33,0.56-2.03c0.23-0.78,0.47-1.51,0.7-2.2c0.23-0.68,0.45-1.29,0.66-1.81c0.21-0.52,0.38-0.88,0.53-1.09
	c0.09-0.14,0.25-0.22,0.47-0.22c0.18,0,0.36,0.03,0.56,0.1c0.2,0.07,0.36,0.15,0.51,0.26c0.14,0.11,0.25,0.23,0.3,0.38
	c0.06,0.14,0.03,0.29-0.07,0.45c-0.07,0.1-0.19,0.33-0.36,0.7c-0.17,0.37-0.37,0.81-0.59,1.33c-0.22,0.52-0.45,1.08-0.69,1.7
	c-0.24,0.61-0.46,1.21-0.66,1.8c0.1-0.14,0.23-0.32,0.39-0.51c0.16-0.19,0.33-0.38,0.53-0.55c0.2-0.17,0.41-0.31,0.64-0.43
	c0.23-0.11,0.46-0.15,0.69-0.12c0.31,0.03,0.56,0.2,0.74,0.49c0.18,0.3,0.2,0.7,0.04,1.21c-0.07,0.21-0.14,0.45-0.23,0.73
	c-0.08,0.27-0.16,0.52-0.23,0.73c-0.16,0.46-0.3,0.89-0.42,1.3c-0.12,0.41-0.18,0.75-0.18,1c0,0.03,0.01,0.08,0.03,0.13
	c0.02,0.05,0.06,0.08,0.12,0.08c0.09,0,0.25-0.11,0.49-0.33c0.23-0.22,0.5-0.53,0.81-0.94c0.1-0.13,0.2-0.27,0.3-0.42l0.01-0.08
	c0.08-0.45,0.18-0.9,0.3-1.34c0.12-0.44,0.25-0.86,0.39-1.25c0.14-0.39,0.28-0.7,0.41-0.94c0.1-0.19,0.28-0.3,0.53-0.32
	c0.26-0.03,0.5,0.01,0.74,0.11c0.23,0.1,0.42,0.25,0.55,0.44c0.13,0.19,0.13,0.41,0,0.66c-0.1,0.2-0.23,0.45-0.38,0.74
	c-0.15,0.29-0.3,0.61-0.44,0.95c-0.14,0.34-0.27,0.69-0.38,1.04c-0.11,0.36-0.18,0.69-0.21,0.99c0,0.06,0,0.12,0,0.19
	c0,0.07,0.01,0.15,0.02,0.22c0.02,0.07,0.04,0.14,0.07,0.19c0.03,0.06,0.08,0.09,0.15,0.1c0.13,0,0.3-0.08,0.48-0.24
	c0.19-0.16,0.39-0.38,0.59-0.65c0.21-0.27,0.42-0.59,0.63-0.93c0.22-0.35,0.42-0.71,0.6-1.06c0.12-0.23,0.23-0.45,0.33-0.67
	c-0.03-0.34-0.01-0.65,0.08-0.91c0.14-0.44,0.37-0.78,0.68-1.02c0.31-0.24,0.67-0.38,1.07-0.42c0.4-0.05,0.76,0,1.09,0.15
	c0.23,0.1,0.42,0.25,0.56,0.44c0.14,0.19,0.23,0.41,0.28,0.63c0.05,0.23,0.06,0.46,0.02,0.69c-0.04,0.23-0.11,0.44-0.23,0.62
	c-0.07,0.11-0.16,0.18-0.28,0.22c-0.12,0.03-0.25,0.05-0.39,0.04c-0.14-0.01-0.27-0.03-0.4-0.08c-0.13-0.04-0.23-0.09-0.29-0.13
	c-0.08-0.05-0.12-0.12-0.12-0.21c0-0.08,0.02-0.16,0.07-0.24c0.12-0.2,0.13-0.36,0.02-0.47c-0.09-0.09-0.21-0.1-0.35-0.04
	c-0.14,0.06-0.23,0.2-0.25,0.43c0,0.27,0.05,0.55,0.15,0.85c0.1,0.3,0.22,0.61,0.35,0.91c0.13,0.31,0.26,0.6,0.38,0.88
	c0.12,0.28,0.2,0.54,0.23,0.78v0.23c0.48-0.39,0.99-0.95,1.54-1.7c0.13-0.17,0.25-0.36,0.37-0.56c0.03-0.14,0.06-0.28,0.09-0.42
	c0.17-0.72,0.36-1.47,0.59-2.24c0.23-0.77,0.47-1.5,0.73-2.21c0.26-0.7,0.52-1.34,0.79-1.92c0.26-0.58,0.5-1.04,0.73-1.37
	c0.06-0.07,0.13-0.12,0.22-0.16c0.09-0.04,0.18-0.06,0.27-0.06c0.18,0,0.37,0.03,0.57,0.09c0.2,0.06,0.37,0.15,0.52,0.26
	s0.25,0.24,0.3,0.37C168.69,94.29,168.67,94.44,168.57,94.6L168.57,94.6z M138.7,99.43c0.02-0.06,0.07-0.09,0.13-0.09
	c0.07,0,0.13,0.01,0.2,0.03c0.07,0.03,0.12,0.07,0.16,0.12c0.04,0.05,0.05,0.1,0.02,0.14c-0.12,0.25-0.29,0.58-0.49,0.96
	c-0.21,0.38-0.44,0.79-0.7,1.22c-0.26,0.43-0.55,0.86-0.86,1.29c-0.31,0.43-0.64,0.82-1,1.17c-0.35,0.35-0.71,0.64-1.09,0.86
	s-0.75,0.34-1.13,0.35c-0.3,0-0.57-0.06-0.82-0.19c-0.24-0.13-0.46-0.31-0.64-0.53c-0.18-0.23-0.33-0.5-0.43-0.8
	c-0.02-0.06-0.04-0.13-0.05-0.19c-0.29,0.36-0.6,0.71-0.92,1.04c-0.51,0.52-1.03,0.91-1.56,1.18c-0.04,0.12-0.09,0.26-0.14,0.4
	c-0.05,0.14-0.09,0.28-0.13,0.4c-0.11,0.31-0.25,0.61-0.41,0.9c-0.16,0.28-0.35,0.53-0.56,0.75c-0.21,0.22-0.45,0.4-0.71,0.53
	c-0.26,0.13-0.55,0.2-0.86,0.2c-0.39,0-0.7-0.11-0.92-0.33c-0.22-0.22-0.33-0.49-0.33-0.8c0-0.33,0.08-0.64,0.23-0.91
	c0.16-0.27,0.36-0.52,0.61-0.73c0.25-0.21,0.53-0.4,0.84-0.55c0.31-0.15,0.61-0.28,0.91-0.37c0.01-0.07,0.03-0.15,0.06-0.24
	c0.03-0.09,0.06-0.18,0.08-0.26c0.03-0.08,0.05-0.14,0.06-0.18c0.01-0.04,0.01-0.06,0-0.03c-0.08,0.17-0.16,0.3-0.26,0.39
	c-0.09,0.09-0.18,0.17-0.27,0.22c-0.08,0.05-0.16,0.08-0.23,0.09c-0.07,0.01-0.12,0.02-0.15,0.02c-0.42,0-0.75-0.14-0.98-0.43
	c-0.23-0.29-0.35-0.68-0.36-1.19c-0.01-0.15,0-0.33,0.02-0.52c-0.19,0.28-0.38,0.54-0.58,0.79c-0.31,0.39-0.61,0.71-0.92,0.97
	c-0.31,0.26-0.59,0.38-0.86,0.38c-0.22,0-0.42-0.06-0.6-0.18c-0.18-0.12-0.33-0.28-0.44-0.48c-0.12-0.2-0.2-0.42-0.27-0.67
	c-0.06-0.25-0.09-0.52-0.09-0.79c0-0.27,0.02-0.55,0.08-0.84c0.05-0.3,0.12-0.59,0.2-0.88c0.08-0.29,0.18-0.57,0.29-0.83
	c0.11-0.27,0.22-0.51,0.33-0.73c-0.22-0.01-0.45-0.05-0.67-0.1c-0.22-0.05-0.42-0.14-0.59-0.26c-0.17-0.12-0.32-0.27-0.43-0.45
	c-0.11-0.18-0.17-0.41-0.18-0.66c-0.02-0.38,0.08-0.71,0.29-0.99c0.22-0.28,0.51-0.42,0.88-0.41c0.2,0,0.36,0.05,0.48,0.15
	c0.12,0.1,0.2,0.23,0.25,0.38c0.05,0.15,0.06,0.32,0.04,0.51c-0.02,0.18-0.07,0.36-0.15,0.54c0.02,0.16,0.12,0.26,0.29,0.32
	c0.17,0.05,0.34,0.03,0.49-0.08c0.16-0.09,0.31-0.14,0.47-0.14c0.17,0,0.34,0.04,0.51,0.12c0.17,0.08,0.31,0.18,0.42,0.3
	c0.11,0.12,0.17,0.26,0.2,0.42c0.03,0.16-0.01,0.32-0.13,0.48c-0.12,0.17-0.27,0.39-0.43,0.68c-0.17,0.28-0.33,0.59-0.48,0.93
	c-0.16,0.33-0.29,0.67-0.4,1.02c-0.11,0.35-0.17,0.66-0.18,0.94c0,0.19,0.02,0.33,0.07,0.42c0.04,0.09,0.18,0.06,0.4-0.1
	c0.26-0.19,0.55-0.49,0.88-0.89c0.33-0.41,0.65-0.84,0.98-1.3l0.22-0.32c0.05-0.18,0.1-0.37,0.15-0.55c0.1-0.35,0.2-0.68,0.31-0.99
	c0.11-0.31,0.21-0.59,0.32-0.82c0.11-0.23,0.2-0.41,0.28-0.52c0.07-0.09,0.16-0.15,0.28-0.18c0.12-0.03,0.23-0.04,0.34-0.02
	c0.17,0.01,0.33,0.05,0.5,0.1c0.17,0.06,0.31,0.13,0.43,0.23c0.12,0.09,0.19,0.2,0.23,0.33c0.03,0.12,0,0.26-0.1,0.42
	c-0.1,0.17-0.23,0.43-0.4,0.78c-0.17,0.35-0.34,0.73-0.5,1.15c-0.17,0.42-0.32,0.84-0.46,1.26c-0.14,0.42-0.24,0.79-0.29,1.1
	c-0.05,0.22-0.05,0.38,0,0.47c0.04,0.09,0.09,0.13,0.15,0.13c0.17,0,0.33-0.12,0.48-0.35c0.16-0.23,0.31-0.54,0.47-0.91
	c0.16-0.37,0.31-0.79,0.45-1.24c0.15-0.45,0.29-0.89,0.44-1.32c0.15-0.43,0.29-0.82,0.43-1.17c0.14-0.35,0.28-0.61,0.43-0.77
	c0.08-0.09,0.18-0.15,0.3-0.18c0.12-0.03,0.25-0.03,0.37-0.01c0.15,0.02,0.3,0.06,0.46,0.12c0.16,0.06,0.3,0.14,0.43,0.23
	c0.12,0.1,0.2,0.22,0.24,0.35c0.04,0.13,0.01,0.28-0.09,0.44c-0.2,0.31-0.39,0.67-0.57,1.07c-0.18,0.4-0.34,0.81-0.5,1.24
	c-0.16,0.42-0.31,0.84-0.45,1.26c-0.14,0.42-0.28,0.79-0.4,1.13c-0.02,0.07-0.05,0.16-0.09,0.28c-0.04,0.12-0.07,0.21-0.09,0.27
	c0.32-0.19,0.66-0.47,1.02-0.85c0.33-0.35,0.66-0.76,0.99-1.21c0.01-0.43,0.08-0.88,0.21-1.36c0.14-0.53,0.34-1.01,0.61-1.45
	c0.27-0.44,0.59-0.81,0.98-1.1c0.38-0.3,0.83-0.44,1.33-0.44c0.2,0,0.4,0.04,0.61,0.11c0.21,0.07,0.39,0.18,0.54,0.32
	c0.16,0.14,0.29,0.33,0.39,0.56c0.11,0.23,0.16,0.5,0.16,0.81c-0.02,0.59-0.15,1.08-0.38,1.47c-0.23,0.39-0.51,0.7-0.84,0.94
	c-0.33,0.23-0.69,0.4-1.06,0.49c-0.37,0.09-0.72,0.14-1.03,0.14c-0.02,0.15-0.01,0.29,0.02,0.44c0.04,0.15,0.1,0.28,0.18,0.4
	c0.08,0.12,0.19,0.21,0.32,0.28c0.13,0.07,0.28,0.11,0.44,0.11c0.29,0,0.62-0.13,0.99-0.4c0.37-0.27,0.74-0.63,1.13-1.09
	c0.38-0.46,0.77-1,1.14-1.62C138.04,100.79,138.39,100.13,138.7,99.43L138.7,99.43z M127.63,106.66c-0.23,0.08-0.43,0.18-0.59,0.3
	c-0.16,0.12-0.28,0.24-0.37,0.36c-0.09,0.12-0.14,0.22-0.16,0.31c-0.02,0.09,0.01,0.15,0.08,0.18c0.03,0.02,0.09,0.03,0.16,0.03
	c0.07-0.01,0.16-0.04,0.25-0.12c0.09-0.07,0.2-0.19,0.3-0.36C127.41,107.19,127.52,106.96,127.63,106.66L127.63,106.66z
	 M134.91,99.99c-0.1,0.05-0.22,0.17-0.35,0.33c-0.13,0.17-0.27,0.37-0.4,0.61c-0.13,0.24-0.26,0.5-0.37,0.78s-0.19,0.57-0.25,0.86
	c0.19-0.02,0.38-0.1,0.58-0.23c0.2-0.14,0.37-0.3,0.53-0.49c0.16-0.2,0.3-0.42,0.41-0.67c0.11-0.25,0.18-0.5,0.2-0.76
	c0.01-0.14,0-0.23-0.02-0.29c-0.03-0.06-0.06-0.11-0.1-0.14c-0.04-0.03-0.08-0.04-0.12-0.03C134.98,99.97,134.94,99.98,134.91,99.99
	L134.91,99.99z"/>
<path class="st7" d="M127.41,68.58c0.18-0.13,0.36-0.23,0.54-0.29c0.18-0.06,0.36-0.09,0.54-0.09c0.27,0,0.51,0.06,0.72,0.18
	c0.21,0.12,0.37,0.3,0.48,0.56c0.18-0.64,0.37-1.26,0.58-1.88c0.21-0.62,0.4-1.18,0.59-1.68c0.18-0.5,0.35-0.93,0.5-1.28
	c0.15-0.35,0.27-0.58,0.34-0.69c0.06-0.08,0.13-0.13,0.21-0.17c0.08-0.03,0.16-0.05,0.24-0.05c0.17,0,0.35,0.03,0.56,0.08
	c0.21,0.06,0.39,0.13,0.54,0.23c0.16,0.1,0.27,0.22,0.33,0.36c0.07,0.14,0.05,0.29-0.05,0.44c-0.11,0.18-0.27,0.5-0.49,0.98
	c-0.22,0.47-0.45,1.02-0.71,1.64c-0.26,0.62-0.52,1.28-0.79,1.98c-0.27,0.7-0.51,1.37-0.72,2.01c-0.21,0.64-0.38,1.21-0.52,1.72
	c-0.13,0.51-0.19,0.88-0.17,1.11c0.02,0.14,0.07,0.19,0.15,0.15c0.14-0.07,0.31-0.21,0.5-0.42c0.19-0.21,0.39-0.46,0.6-0.76
	c0.21-0.29,0.42-0.62,0.64-0.96c0.21-0.35,0.41-0.68,0.6-1.01c0.19-0.33,0.36-0.63,0.51-0.92c0.15-0.28,0.26-0.52,0.34-0.69
	c0.02-0.06,0.07-0.08,0.14-0.08c0.07,0,0.14,0.01,0.22,0.04c0.07,0.03,0.13,0.07,0.18,0.12c0.04,0.05,0.06,0.1,0.05,0.16
	c-0.07,0.1-0.18,0.32-0.33,0.64c-0.15,0.33-0.33,0.71-0.54,1.13c-0.21,0.43-0.45,0.88-0.7,1.35c-0.26,0.47-0.52,0.9-0.79,1.29
	c-0.27,0.4-0.55,0.72-0.84,0.98c-0.28,0.26-0.56,0.38-0.83,0.38c-0.28,0-0.53-0.1-0.74-0.3c-0.22-0.2-0.36-0.47-0.44-0.8
	c-0.07,0.12-0.15,0.25-0.25,0.37c-0.1,0.13-0.21,0.25-0.33,0.35c-0.12,0.1-0.26,0.19-0.41,0.27c-0.15,0.07-0.32,0.11-0.49,0.13
	c-0.48,0-0.88-0.16-1.2-0.49c-0.32-0.33-0.49-0.82-0.49-1.48c0-0.11,0-0.22,0.01-0.34c-0.3,0.41-0.62,0.78-0.95,1.12
	c-0.35,0.35-0.71,0.64-1.09,0.86c-0.37,0.22-0.75,0.34-1.13,0.35c-0.3,0-0.57-0.06-0.82-0.19c-0.24-0.13-0.46-0.31-0.64-0.54
	c-0.18-0.23-0.33-0.5-0.43-0.8c-0.05-0.15-0.09-0.31-0.11-0.47c-0.15,0.22-0.31,0.43-0.47,0.63c-0.31,0.39-0.61,0.71-0.92,0.97
	c-0.31,0.26-0.59,0.38-0.86,0.38c-0.22,0-0.42-0.06-0.6-0.18c-0.18-0.12-0.33-0.28-0.44-0.48c-0.12-0.2-0.21-0.42-0.27-0.67
	c-0.06-0.25-0.09-0.52-0.09-0.79c0-0.27,0.02-0.55,0.08-0.84c0.05-0.3,0.12-0.59,0.2-0.88c0.08-0.29,0.18-0.57,0.29-0.84
	c0.11-0.27,0.22-0.51,0.34-0.73c-0.22-0.01-0.45-0.04-0.67-0.1c-0.22-0.06-0.42-0.14-0.59-0.26c-0.17-0.12-0.31-0.27-0.43-0.45
	c-0.11-0.18-0.17-0.41-0.18-0.66c-0.02-0.38,0.07-0.71,0.29-0.99c0.22-0.28,0.51-0.42,0.88-0.41c0.2,0,0.36,0.05,0.48,0.15
	c0.12,0.1,0.2,0.23,0.25,0.39c0.05,0.16,0.06,0.32,0.04,0.51c-0.02,0.18-0.07,0.36-0.15,0.54c0.02,0.16,0.12,0.26,0.29,0.32
	c0.17,0.05,0.34,0.03,0.49-0.08c0.16-0.09,0.31-0.14,0.47-0.14c0.17,0,0.34,0.04,0.51,0.12c0.17,0.08,0.31,0.18,0.42,0.3
	c0.11,0.12,0.17,0.26,0.2,0.42c0.03,0.15-0.01,0.32-0.13,0.48c-0.12,0.17-0.27,0.39-0.43,0.68c-0.17,0.28-0.33,0.59-0.48,0.93
	c-0.16,0.33-0.29,0.67-0.4,1.02s-0.17,0.66-0.18,0.94c0,0.19,0.02,0.33,0.07,0.42c0.04,0.09,0.18,0.06,0.4-0.1
	c0.26-0.19,0.55-0.49,0.88-0.89c0.25-0.31,0.5-0.64,0.75-0.98c0.04-0.24,0.09-0.49,0.15-0.74c0.14-0.53,0.34-1.01,0.61-1.45
	c0.27-0.44,0.59-0.81,0.98-1.1c0.38-0.3,0.83-0.44,1.33-0.44c0.2,0,0.4,0.04,0.61,0.11c0.21,0.07,0.39,0.18,0.54,0.32
	c0.16,0.14,0.29,0.33,0.39,0.56c0.11,0.23,0.16,0.5,0.16,0.81c-0.02,0.59-0.15,1.08-0.38,1.47c-0.23,0.39-0.51,0.7-0.84,0.94
	c-0.33,0.23-0.69,0.4-1.06,0.49c-0.37,0.09-0.71,0.14-1.03,0.14c-0.02,0.14-0.02,0.29,0.02,0.44c0.04,0.15,0.1,0.28,0.18,0.4
	c0.08,0.12,0.19,0.21,0.32,0.28c0.13,0.07,0.28,0.11,0.44,0.11c0.29,0,0.62-0.13,0.99-0.4c0.37-0.27,0.74-0.63,1.13-1.09
	c0.27-0.32,0.53-0.68,0.8-1.07c0.09-0.39,0.21-0.76,0.34-1.12c0.16-0.43,0.34-0.83,0.55-1.18C126.99,69.01,127.2,68.75,127.41,68.58
	L127.41,68.58z M174.55,74.23c0-0.09,0-0.19,0.01-0.3c-0.22,0.32-0.43,0.59-0.65,0.81c-0.26,0.26-0.51,0.4-0.75,0.41
	c-0.47,0.02-0.84-0.1-1.1-0.37c-0.27-0.27-0.43-0.65-0.48-1.15c-0.02-0.18-0.03-0.38-0.03-0.59c-0.13,0.24-0.27,0.46-0.41,0.68
	c-0.26,0.4-0.52,0.73-0.79,1c-0.27,0.27-0.53,0.42-0.78,0.44c-0.45,0.05-0.79-0.08-1.04-0.37c-0.25-0.29-0.37-0.67-0.39-1.15
	c-0.1,0.19-0.21,0.37-0.33,0.55c-0.12,0.18-0.26,0.34-0.4,0.48c-0.14,0.14-0.3,0.25-0.46,0.34c-0.16,0.09-0.32,0.14-0.48,0.14
	c-0.13,0-0.28-0.02-0.43-0.07c-0.16-0.04-0.31-0.13-0.45-0.25c-0.15-0.12-0.27-0.3-0.37-0.54c-0.1-0.23-0.16-0.54-0.17-0.93
	c-0.01-0.33,0.02-0.69,0.07-1.08c-0.26,0.13-0.52,0.18-0.78,0.16c-0.22,0.83-0.56,1.52-1.01,2.05c-0.45,0.54-0.99,0.8-1.63,0.8
	c-0.25,0-0.51-0.06-0.79-0.18c-0.37-0.19-0.64-0.49-0.81-0.9c-0.06-0.13-0.1-0.27-0.14-0.41c-0.25,0.35-0.51,0.64-0.78,0.88
	c-0.3,0.27-0.59,0.42-0.88,0.47c-0.28,0.02-0.51,0-0.69-0.07c-0.18-0.07-0.33-0.17-0.44-0.32c-0.11-0.14-0.19-0.32-0.24-0.52
	c-0.05-0.2-0.08-0.42-0.08-0.65c0-0.36,0.05-0.75,0.16-1.18c0.11-0.44,0.2-0.86,0.29-1.29c0.07-0.3,0.09-0.51,0.06-0.62
	c-0.03-0.11-0.08-0.16-0.17-0.13c-0.08,0.02-0.18,0.11-0.3,0.26c-0.12,0.15-0.23,0.34-0.34,0.56c-0.1,0.22-0.2,0.49-0.3,0.81
	c-0.1,0.32-0.19,0.64-0.26,0.98c-0.07,0.33-0.13,0.65-0.17,0.95c-0.05,0.3-0.06,0.54-0.05,0.7c0.01,0.19-0.08,0.33-0.28,0.43
	c-0.2,0.09-0.41,0.13-0.65,0.09c-0.24-0.03-0.45-0.14-0.63-0.32c-0.18-0.18-0.25-0.44-0.21-0.78c0.06-0.33,0.14-0.71,0.24-1.12
	c0.11-0.41,0.22-0.83,0.34-1.25c0.09-0.3,0.16-0.58,0.23-0.83c0.06-0.26,0.05-0.41-0.04-0.47c-0.06-0.06-0.17-0.02-0.33,0.1
	c-0.17,0.12-0.34,0.36-0.52,0.72c-0.1,0.22-0.21,0.47-0.33,0.75c-0.12,0.28-0.24,0.57-0.34,0.86c-0.11,0.3-0.2,0.58-0.29,0.86
	c-0.09,0.28-0.16,0.52-0.2,0.74c-0.06,0.21-0.16,0.4-0.31,0.57c-0.15,0.17-0.36,0.23-0.64,0.18c-0.1-0.01-0.19-0.05-0.26-0.12
	c-0.07-0.07-0.13-0.14-0.18-0.23c-0.05-0.09-0.09-0.18-0.11-0.28c-0.02-0.1-0.03-0.19-0.03-0.28c0-0.31,0.04-0.69,0.12-1.14
	c0.03-0.16,0.06-0.33,0.09-0.5c-0.29,0.44-0.58,0.85-0.87,1.23c-0.31,0.39-0.61,0.71-0.92,0.97c-0.31,0.26-0.59,0.38-0.86,0.38
	c-0.22,0-0.42-0.06-0.6-0.18c-0.18-0.12-0.33-0.28-0.44-0.48c-0.12-0.2-0.21-0.42-0.27-0.67c-0.06-0.25-0.09-0.52-0.09-0.79
	c0-0.27,0.02-0.55,0.07-0.84c0.05-0.3,0.12-0.59,0.2-0.88c0.08-0.29,0.18-0.57,0.29-0.84c0.11-0.27,0.22-0.51,0.33-0.73
	c-0.22-0.01-0.45-0.04-0.67-0.1l-0.04-0.01c-0.1,0.19-0.21,0.41-0.34,0.65c-0.21,0.38-0.44,0.79-0.7,1.22
	c-0.26,0.43-0.55,0.86-0.86,1.28c-0.31,0.43-0.64,0.82-0.99,1.17c-0.35,0.35-0.71,0.64-1.09,0.86c-0.37,0.22-0.75,0.34-1.13,0.35
	c-0.3,0-0.57-0.06-0.82-0.19c-0.25-0.13-0.46-0.31-0.64-0.54c-0.18-0.23-0.33-0.5-0.43-0.8c-0.1-0.31-0.15-0.64-0.15-1.01
	c0-0.15,0.01-0.31,0.02-0.47l-0.04,0.02c-0.36,0.21-0.71,0.26-1.05,0.15c-0.19,0.35-0.39,0.69-0.61,1.02
	c-0.22,0.33-0.45,0.63-0.68,0.9c-0.24,0.27-0.48,0.48-0.74,0.65c-0.25,0.17-0.5,0.25-0.74,0.25c-0.26,0-0.5-0.1-0.73-0.29
	c-0.23-0.2-0.4-0.47-0.53-0.83c-0.11-0.33-0.17-0.71-0.17-1.14c0-0.38,0.03-0.8,0.1-1.25c0.07-0.45,0.16-0.9,0.27-1.34
	c0.11-0.43,0.23-0.83,0.37-1.19c0.13-0.36,0.26-0.63,0.38-0.81c0.07-0.1,0.16-0.17,0.27-0.22c0.11-0.04,0.23-0.07,0.35-0.07
	c0.17,0,0.33,0.03,0.5,0.08c0.17,0.05,0.31,0.12,0.43,0.21c0.12,0.09,0.19,0.2,0.21,0.34c0.02,0.14-0.02,0.29-0.13,0.46
	c-0.13,0.2-0.28,0.49-0.43,0.86c-0.16,0.37-0.3,0.77-0.43,1.2c-0.13,0.43-0.23,0.86-0.31,1.29c-0.08,0.43-0.11,0.8-0.08,1.11
	c0,0.11,0.02,0.19,0.06,0.23c0.04,0.04,0.08,0.06,0.12,0.06c0.04,0,0.09-0.01,0.13-0.04c0.05-0.03,0.08-0.06,0.12-0.09
	c0.22-0.23,0.44-0.57,0.66-0.99c0.22-0.43,0.42-0.91,0.61-1.46c-0.07-0.2-0.12-0.41-0.15-0.62c-0.03-0.22-0.04-0.48-0.01-0.78
	c0.03-0.3,0.09-0.59,0.18-0.85c0.09-0.27,0.22-0.5,0.39-0.69c0.17-0.19,0.38-0.29,0.63-0.32c0.28-0.02,0.5,0.05,0.68,0.23
	c0.17,0.17,0.28,0.41,0.33,0.72c0.05,0.31,0.04,0.66-0.04,1.06c-0.08,0.4-0.23,0.82-0.45,1.27c0.18,0.04,0.37,0,0.57-0.11
	c0.05-0.03,0.11-0.06,0.16-0.09c0.14-0.5,0.34-0.97,0.59-1.39c0.27-0.44,0.59-0.81,0.98-1.1c0.38-0.3,0.83-0.44,1.33-0.44
	c0.2,0,0.4,0.04,0.61,0.11c0.21,0.07,0.39,0.18,0.54,0.32c0.16,0.14,0.29,0.33,0.39,0.56c0.11,0.23,0.16,0.5,0.16,0.81
	c-0.02,0.59-0.15,1.08-0.38,1.47c-0.23,0.39-0.51,0.7-0.84,0.94c-0.33,0.23-0.69,0.4-1.06,0.49c-0.37,0.09-0.72,0.14-1.03,0.14
	c-0.02,0.14-0.01,0.29,0.02,0.44c0.04,0.15,0.1,0.28,0.18,0.4c0.08,0.12,0.19,0.21,0.32,0.28c0.13,0.07,0.28,0.11,0.44,0.11
	c0.29,0,0.62-0.13,0.99-0.4c0.37-0.27,0.74-0.63,1.13-1.09c0.38-0.46,0.77-1,1.14-1.62c0.32-0.53,0.62-1.09,0.9-1.68l-0.06-0.04
	c-0.17-0.12-0.31-0.27-0.43-0.45c-0.11-0.18-0.17-0.41-0.18-0.66c-0.02-0.38,0.07-0.71,0.29-0.99c0.22-0.28,0.51-0.42,0.88-0.41
	c0.2,0,0.36,0.05,0.48,0.15c0.12,0.1,0.2,0.23,0.25,0.39c0.05,0.16,0.06,0.32,0.04,0.51c-0.02,0.18-0.07,0.36-0.15,0.54
	c0.02,0.16,0.12,0.26,0.29,0.32c0.17,0.05,0.34,0.03,0.49-0.08c0.16-0.09,0.31-0.14,0.47-0.14c0.17,0,0.34,0.04,0.51,0.12
	c0.17,0.08,0.31,0.18,0.42,0.3c0.11,0.12,0.17,0.26,0.2,0.42c0.03,0.15-0.01,0.32-0.13,0.48c-0.12,0.17-0.27,0.39-0.43,0.68
	c-0.17,0.28-0.33,0.59-0.48,0.93c-0.16,0.33-0.29,0.67-0.4,1.02s-0.17,0.66-0.18,0.94c0,0.19,0.02,0.33,0.07,0.42
	c0.04,0.09,0.18,0.06,0.4-0.1c0.26-0.19,0.55-0.49,0.88-0.89c0.33-0.41,0.66-0.84,0.98-1.3c0.23-0.33,0.45-0.65,0.65-0.96
	c0.05-0.19,0.11-0.38,0.17-0.57c0.17-0.55,0.33-1.06,0.5-1.55c0.05-0.16,0.18-0.26,0.4-0.3c0.22-0.05,0.45-0.05,0.67,0
	c0.22,0.04,0.41,0.13,0.56,0.24c0.15,0.12,0.19,0.26,0.11,0.43c-0.09,0.23-0.19,0.47-0.29,0.7c-0.11,0.23-0.2,0.46-0.28,0.68
	c0.08-0.13,0.18-0.28,0.3-0.45c0.12-0.17,0.26-0.33,0.4-0.5c0.14-0.17,0.29-0.33,0.45-0.49c0.16-0.16,0.32-0.3,0.48-0.41
	c0.19-0.11,0.38-0.16,0.57-0.15c0.19,0.01,0.35,0.07,0.49,0.17c0.14,0.1,0.25,0.24,0.33,0.42c0.08,0.18,0.12,0.39,0.11,0.61
	c0.16-0.19,0.33-0.38,0.52-0.56c0.19-0.18,0.38-0.34,0.57-0.46c0.21-0.14,0.43-0.19,0.67-0.18c0.23,0.02,0.43,0.11,0.59,0.27
	c0.16,0.17,0.26,0.41,0.31,0.73c0.05,0.32-0.02,0.72-0.18,1.2c-0.03,0.11-0.06,0.2-0.09,0.27c-0.03,0.07-0.06,0.14-0.08,0.21
	c-0.03,0.07-0.05,0.14-0.07,0.21c-0.02,0.07-0.05,0.16-0.08,0.26c-0.16,0.47-0.29,0.91-0.4,1.32c-0.11,0.41-0.17,0.75-0.17,1
	c0,0.03,0.01,0.08,0.03,0.12c0.02,0.05,0.06,0.08,0.13,0.08c0.09,0,0.24-0.1,0.45-0.3c0.21-0.2,0.46-0.5,0.75-0.9l0.03-0.05
	c0.01-0.47,0.09-0.96,0.22-1.47c0.15-0.55,0.36-1.06,0.63-1.52c0.27-0.46,0.58-0.84,0.93-1.13c0.35-0.3,0.73-0.44,1.13-0.44
	c0.07,0,0.15,0,0.26,0.02c0.11,0.01,0.21,0.05,0.33,0.11c0.11,0.06,0.22,0.15,0.33,0.27c0.11,0.12,0.2,0.28,0.27,0.48
	c0.26,0.11,0.46,0.36,0.6,0.75c0.14,0.39,0.16,0.95,0.03,1.69c0.09,0.01,0.22-0.01,0.39-0.07c0.12-0.04,0.24-0.1,0.37-0.19
	c0.05-0.2,0.1-0.4,0.16-0.59c0.14-0.47,0.29-0.91,0.44-1.3c0.16-0.39,0.3-0.68,0.42-0.87c0.16-0.19,0.36-0.28,0.6-0.28
	c0.17,0,0.33,0.02,0.5,0.07c0.17,0.05,0.31,0.12,0.43,0.21c0.12,0.09,0.19,0.2,0.22,0.34c0.03,0.14,0,0.3-0.1,0.48
	c-0.1,0.19-0.22,0.45-0.38,0.79c-0.15,0.34-0.3,0.71-0.44,1.11c-0.15,0.4-0.28,0.8-0.4,1.2c-0.12,0.4-0.2,0.76-0.23,1.07
	c-0.04,0.29,0,0.46,0.12,0.52c0.13,0.06,0.29-0.08,0.48-0.42c0.15-0.24,0.3-0.56,0.46-0.95c0.16-0.39,0.32-0.79,0.48-1.21
	c0.16-0.42,0.32-0.83,0.47-1.23c0.15-0.4,0.28-0.74,0.38-1.02c0.06-0.17,0.11-0.31,0.15-0.44c0.05-0.12,0.08-0.21,0.12-0.25
	c0.12-0.19,0.31-0.28,0.57-0.28c0.17,0,0.34,0.02,0.51,0.06c0.17,0.04,0.32,0.1,0.44,0.18c0.12,0.08,0.21,0.18,0.25,0.3
	c0.04,0.12,0.02,0.27-0.07,0.45c-0.1,0.18-0.22,0.42-0.36,0.73c-0.14,0.31-0.28,0.64-0.43,1c-0.14,0.36-0.27,0.73-0.38,1.1
	c-0.11,0.37-0.19,0.72-0.23,1.04c0,0.03-0.01,0.1-0.02,0.19c-0.01,0.09-0.02,0.19-0.02,0.29c0,0.1,0.01,0.19,0.04,0.27
	c0.03,0.08,0.08,0.12,0.14,0.13c0.11,0,0.27-0.08,0.47-0.25c0.2-0.17,0.43-0.44,0.7-0.82c0.27-0.38,0.56-0.87,0.87-1.47l0.05-0.09
	c0.1-0.53,0.22-1.08,0.35-1.66l-0.25-0.02c-0.19-0.01-0.32-0.04-0.39-0.09c-0.07-0.05-0.11-0.11-0.11-0.19
	c0-0.12,0.04-0.25,0.11-0.38c0.07-0.13,0.19-0.19,0.34-0.17c0.09,0.01,0.18,0.02,0.26,0.03c0.08,0,0.17,0.01,0.26,0.01
	c0.17-0.61,0.35-1.22,0.54-1.81c0.2-0.59,0.38-1.13,0.57-1.62c0.18-0.49,0.35-0.91,0.51-1.26c0.16-0.35,0.28-0.59,0.37-0.73
	c0.09-0.14,0.24-0.22,0.45-0.22c0.18,0,0.36,0.03,0.56,0.1c0.19,0.07,0.36,0.15,0.51,0.26c0.14,0.11,0.25,0.23,0.3,0.38
	c0.06,0.14,0.03,0.29-0.07,0.45c-0.07,0.09-0.16,0.28-0.29,0.56c-0.13,0.28-0.28,0.63-0.44,1.03c-0.17,0.4-0.35,0.85-0.53,1.35
	c-0.19,0.5-0.37,1-0.55,1.53h0.47c0.07,0,0.11,0.04,0.13,0.13c0.02,0.08,0.02,0.18,0.01,0.27c-0.02,0.1-0.06,0.19-0.12,0.28
	c-0.06,0.09-0.14,0.14-0.24,0.15c-0.09,0.01-0.18,0.02-0.27,0.03c-0.09,0-0.18,0.01-0.28,0.02c-0.16,0.46-0.3,0.9-0.42,1.33
	c-0.12,0.43-0.23,0.83-0.31,1.19c-0.08,0.37-0.14,0.69-0.18,0.97c-0.03,0.28-0.03,0.49,0.02,0.64c0.02,0.07,0.07,0.11,0.13,0.12
	c0.07,0.01,0.13,0,0.18-0.03c0.12-0.08,0.27-0.22,0.43-0.43c0.17-0.21,0.34-0.45,0.53-0.73c0.18-0.27,0.36-0.55,0.55-0.87
	c0.08-0.36,0.17-0.73,0.26-1.12c0.18-0.74,0.39-1.49,0.63-2.27c0.23-0.78,0.47-1.51,0.7-2.2c0.23-0.68,0.45-1.29,0.66-1.81
	c0.21-0.52,0.38-0.88,0.53-1.09c0.09-0.15,0.25-0.22,0.47-0.22c0.18,0,0.36,0.03,0.56,0.1c0.2,0.07,0.36,0.15,0.51,0.26
	c0.15,0.11,0.25,0.23,0.3,0.38c0.06,0.14,0.03,0.3-0.07,0.45c-0.07,0.1-0.19,0.33-0.36,0.7c-0.17,0.37-0.37,0.81-0.59,1.33
	c-0.22,0.52-0.45,1.08-0.69,1.7c-0.24,0.61-0.46,1.21-0.66,1.8c0.1-0.14,0.23-0.32,0.39-0.51c0.16-0.19,0.33-0.38,0.54-0.55
	c0.2-0.17,0.41-0.32,0.64-0.42c0.23-0.11,0.46-0.15,0.69-0.12c0.31,0.03,0.56,0.2,0.74,0.49c0.18,0.3,0.2,0.7,0.04,1.21
	c-0.07,0.21-0.14,0.45-0.22,0.73c-0.08,0.27-0.16,0.52-0.23,0.73c-0.16,0.45-0.3,0.89-0.42,1.3c-0.12,0.41-0.18,0.75-0.18,1
	c0,0.03,0.01,0.08,0.03,0.12c0.02,0.05,0.06,0.08,0.12,0.08c0.09,0,0.25-0.11,0.48-0.32c0.23-0.22,0.5-0.53,0.81-0.94
	c0.31-0.41,0.63-0.91,0.98-1.49c0.35-0.59,0.68-1.24,1-1.96c0.03-0.05,0.08-0.08,0.15-0.08c0.07,0,0.14,0.01,0.2,0.04
	c0.07,0.03,0.12,0.07,0.16,0.12c0.04,0.05,0.05,0.1,0.02,0.14c-0.06,0.1-0.15,0.31-0.29,0.63c-0.14,0.32-0.31,0.68-0.51,1.08
	c-0.2,0.41-0.43,0.84-0.69,1.3c-0.26,0.46-0.53,0.88-0.82,1.27c-0.28,0.39-0.58,0.72-0.89,0.99c-0.31,0.27-0.61,0.42-0.91,0.47
	c-0.29,0.02-0.53,0-0.72-0.07c-0.19-0.07-0.34-0.17-0.46-0.32c-0.12-0.14-0.2-0.32-0.25-0.52c-0.05-0.2-0.07-0.42-0.07-0.65
	c0-0.36,0.05-0.75,0.16-1.18c0.11-0.43,0.21-0.85,0.31-1.28c0.07-0.3,0.08-0.51,0.04-0.63c-0.04-0.12-0.11-0.16-0.21-0.13
	c-0.1,0.03-0.21,0.11-0.34,0.26c-0.13,0.14-0.24,0.33-0.34,0.55c-0.1,0.22-0.21,0.47-0.32,0.75c-0.11,0.28-0.22,0.57-0.33,0.86
	c-0.11,0.3-0.2,0.58-0.28,0.86c-0.08,0.28-0.15,0.52-0.19,0.74c-0.05,0.21-0.14,0.4-0.28,0.57c-0.14,0.17-0.35,0.23-0.6,0.18
	c-0.09-0.01-0.17-0.05-0.24-0.12c-0.07-0.07-0.13-0.14-0.18-0.23c-0.05-0.09-0.08-0.18-0.1-0.28
	C174.57,74.41,174.55,74.32,174.55,74.23L174.55,74.23z M143.43,69.7c-0.1,0.06-0.22,0.17-0.35,0.33c-0.13,0.17-0.27,0.37-0.4,0.61
	c-0.13,0.24-0.26,0.5-0.37,0.78c-0.11,0.28-0.19,0.57-0.25,0.86c0.19-0.02,0.38-0.1,0.58-0.23c0.19-0.13,0.37-0.3,0.53-0.49
	c0.16-0.2,0.3-0.42,0.41-0.67c0.11-0.25,0.18-0.5,0.2-0.76c0.01-0.14,0-0.23-0.03-0.29c-0.03-0.06-0.06-0.1-0.1-0.13
	c-0.04-0.03-0.08-0.04-0.12-0.03S143.47,69.69,143.43,69.7L143.43,69.7z M161.64,74.48c0.16,0,0.31-0.08,0.45-0.25
	c0.14-0.17,0.28-0.38,0.4-0.63c0.12-0.25,0.22-0.52,0.3-0.8c0.08-0.28,0.13-0.54,0.15-0.77c-0.1-0.07-0.19-0.17-0.26-0.3
	c-0.07-0.13-0.13-0.28-0.17-0.44c-0.04-0.16-0.06-0.33-0.07-0.49c-0.01-0.17,0.02-0.31,0.07-0.43c-0.16,0.05-0.31,0.19-0.47,0.42
	c-0.16,0.22-0.3,0.49-0.43,0.79c-0.13,0.31-0.24,0.63-0.33,0.98c-0.09,0.35-0.14,0.66-0.16,0.95c-0.02,0.28,0.01,0.52,0.08,0.71
	C161.3,74.39,161.44,74.48,161.64,74.48L161.64,74.48z M123.49,69.7c-0.1,0.06-0.22,0.17-0.35,0.33c-0.13,0.17-0.27,0.37-0.4,0.61
	c-0.13,0.24-0.26,0.5-0.37,0.78c-0.11,0.28-0.2,0.57-0.25,0.86c0.19-0.02,0.38-0.1,0.58-0.23c0.2-0.13,0.37-0.3,0.54-0.49
	c0.16-0.2,0.3-0.42,0.41-0.67c0.11-0.25,0.18-0.5,0.2-0.76c0.01-0.14,0-0.23-0.02-0.29c-0.03-0.06-0.06-0.1-0.1-0.13
	c-0.04-0.03-0.08-0.04-0.12-0.03C123.56,69.68,123.52,69.69,123.49,69.7L123.49,69.7z M129.15,70.12c0-0.03,0-0.09-0.01-0.16
	c0-0.07-0.02-0.14-0.03-0.21c-0.02-0.07-0.04-0.13-0.07-0.18c-0.03-0.05-0.06-0.08-0.11-0.08c-0.13,0-0.28,0.1-0.44,0.31
	c-0.16,0.21-0.32,0.47-0.47,0.78c-0.15,0.31-0.29,0.66-0.43,1.04c-0.13,0.38-0.24,0.73-0.32,1.07c-0.02,0.1-0.05,0.24-0.08,0.42
	c-0.03,0.18-0.05,0.35-0.06,0.53c-0.01,0.17,0.01,0.32,0.04,0.45c0.03,0.13,0.11,0.19,0.22,0.19c0.14,0,0.29-0.08,0.43-0.24
	c0.14-0.16,0.28-0.37,0.41-0.63c0.13-0.26,0.25-0.54,0.36-0.85c0.11-0.31,0.21-0.62,0.29-0.93c0.08-0.31,0.15-0.59,0.19-0.86
	C129.13,70.49,129.15,70.28,129.15,70.12L129.15,70.12z"/>
</svg>
