<?xml version="1.0" encoding="utf-8"?>
<!-- Generator: Adobe Illustrator 23.0.1, SVG Export Plug-In . SVG Version: 6.00 Build 0)  -->
<svg version="1.1" id="Margarita" xmlns="http://www.w3.org/2000/svg" xmlns:xlink="http://www.w3.org/1999/xlink" x="0px" y="0px"
	 viewBox="0 0 300 300" style="enable-background:new 0 0 300 300;" xml:space="preserve">
<style type="text/css">
	.st0{fill:#4E4236;}
	.st1{fill-rule:evenodd;clip-rule:evenodd;fill:#F3EBB8;}
	.st2{fill-rule:evenodd;clip-rule:evenodd;fill:#9ACA3C;}
	.st3{fill-rule:evenodd;clip-rule:evenodd;fill:#DF9226;}
	.st4{fill-rule:evenodd;clip-rule:evenodd;fill:#D3CB98;}
	.st5{fill-rule:evenodd;clip-rule:evenodd;fill:#77AB41;}
	.st6{fill-rule:evenodd;clip-rule:evenodd;fill:#BE7229;}
	.st7{fill:#FFFFFF;}
	.st8{fill-rule:evenodd;clip-rule:evenodd;fill:#FFFFFF;}
	.st9{fill-rule:evenodd;clip-rule:evenodd;fill:#4E4236;}
</style>
<path class="st0" d="M199.79,13.63c0.38-0.29,0.78-0.5,1.19-0.63c0.41-0.13,0.81-0.2,1.19-0.2c0.58,0,1.09,0.13,1.55,0.38
	c0.45,0.25,0.79,0.66,1.01,1.21c0.08-0.17,0.13-0.29,0.16-0.36c0.04-0.07,0.12-0.2,0.23-0.4c0.17-0.31,0.49-0.46,0.96-0.45
	c0.47,0.01,0.92,0.12,1.37,0.31c0.44,0.19,0.82,0.44,1.13,0.74c0.31,0.3,0.39,0.6,0.25,0.88c-0.45,1.01-0.88,2.01-1.28,3.01
	c-0.4,1-0.75,1.93-1.04,2.79c-0.3,0.86-0.53,1.63-0.67,2.31c-0.14,0.67-0.19,1.19-0.14,1.55c0.05,0.19,0.13,0.3,0.23,0.31
	c0.11,0.01,0.22-0.02,0.36-0.11c0.13-0.08,0.26-0.19,0.38-0.32c0.12-0.13,0.22-0.23,0.29-0.31c0.48-0.53,1-1.23,1.55-2.11
	c0.55-0.88,1.08-1.78,1.6-2.72c0.52-0.94,0.98-1.83,1.4-2.68c0.42-0.85,0.75-1.52,0.99-2c0.05-0.12,0.15-0.18,0.31-0.18
	c0.16,0,0.31,0.03,0.45,0.09c0.15,0.06,0.27,0.14,0.38,0.25c0.11,0.11,0.14,0.22,0.09,0.34c-0.14,0.22-0.37,0.68-0.66,1.39
	c-0.3,0.71-0.66,1.53-1.08,2.45c-0.42,0.92-0.88,1.89-1.38,2.9c-0.51,1.01-1.04,1.94-1.6,2.79c-0.56,0.85-1.14,1.56-1.73,2.11
	c-0.59,0.55-1.18,0.83-1.75,0.83c-0.63,0-1.18-0.22-1.64-0.65c-0.47-0.43-0.78-1.01-0.92-1.73c-0.14,0.26-0.32,0.53-0.54,0.81
	c-0.21,0.28-0.45,0.53-0.72,0.76c-0.26,0.23-0.56,0.42-0.88,0.58c-0.33,0.16-0.68,0.25-1.06,0.27c-1.04,0-1.9-0.35-2.6-1.06
	c-0.52-0.53-0.84-1.25-0.98-2.17l-0.11,0.17c-0.55,0.86-1.1,1.58-1.66,2.14c-0.55,0.57-1.09,0.86-1.62,0.88
	c-1.01,0.05-1.8-0.22-2.38-0.79c-0.57-0.58-0.92-1.4-1.04-2.49c-0.07-0.55-0.08-1.18-0.03-1.87c-0.47,0.85-0.97,1.64-1.5,2.35
	c-0.61,0.82-1.27,1.5-1.96,2.03c-0.69,0.54-1.4,0.8-2.13,0.8c-0.6,0-1.1-0.09-1.51-0.28c-0.41-0.19-0.74-0.46-0.99-0.8
	c-0.25-0.34-0.43-0.74-0.54-1.21c-0.11-0.46-0.16-0.97-0.16-1.53c0-0.38,0.02-0.78,0.06-1.2c-0.5,0.75-1.01,1.45-1.52,2.1
	c-0.66,0.84-1.32,1.54-1.98,2.09c-0.66,0.55-1.28,0.83-1.85,0.83c-0.48,0-0.91-0.13-1.3-0.4c-0.38-0.26-0.7-0.61-0.95-1.03
	c-0.26-0.42-0.45-0.9-0.58-1.44c-0.13-0.54-0.2-1.11-0.2-1.71c0-0.58,0.05-1.18,0.16-1.82c0.11-0.64,0.25-1.27,0.43-1.89
	c0.18-0.62,0.39-1.22,0.63-1.8c0.24-0.58,0.48-1.1,0.72-1.58c-0.48-0.02-0.96-0.1-1.44-0.22c-0.08-0.02-0.15-0.04-0.22-0.06
	c-0.11,0.22-0.23,0.5-0.37,0.84c-0.3,0.71-0.66,1.53-1.08,2.45c-0.42,0.92-0.88,1.89-1.39,2.9c-0.5,1.01-1.04,1.94-1.6,2.79
	c-0.57,0.85-1.14,1.56-1.73,2.11c-0.59,0.55-1.17,0.83-1.75,0.83c-0.62,0-1.17-0.22-1.64-0.65c-0.47-0.43-0.77-1.01-0.91-1.73
	c-0.15,0.26-0.33,0.53-0.54,0.81c-0.21,0.28-0.45,0.53-0.72,0.76c-0.27,0.23-0.56,0.42-0.88,0.58c-0.32,0.16-0.68,0.25-1.06,0.27
	c-1.03,0-1.9-0.35-2.6-1.06c-0.5-0.51-0.82-1.21-0.97-2.1c-0.28,0.42-0.57,0.81-0.87,1.2c-0.62,0.81-1.29,1.51-1.98,2.11
	c-0.69,0.6-1.42,1.03-2.16,1.3c-0.17,0.51-0.4,1.13-0.68,1.87c-0.29,0.74-0.66,1.46-1.12,2.14c-0.45,0.68-0.99,1.26-1.6,1.73
	c-0.61,0.47-1.33,0.68-2.15,0.63c-0.58-0.02-1.06-0.19-1.46-0.5c-0.4-0.31-0.68-0.7-0.87-1.17c-0.18-0.47-0.26-0.98-0.23-1.53
	c0.02-0.55,0.17-1.07,0.43-1.55c0.43-0.82,1.11-1.45,2.02-1.91c0.91-0.46,1.85-0.8,2.81-1.04l0.43-1.48
	c-0.22,0.41-0.54,0.73-0.98,0.97c-0.43,0.24-0.83,0.36-1.19,0.36c-1.01-0.05-1.81-0.46-2.42-1.22c-0.57-0.73-0.87-1.68-0.9-2.84
	c-0.29,0.41-0.59,0.8-0.88,1.18c-0.66,0.84-1.32,1.54-1.98,2.09c-0.66,0.55-1.28,0.83-1.85,0.83c-0.48,0-0.91-0.13-1.29-0.4
	c-0.39-0.26-0.7-0.61-0.96-1.03c-0.26-0.42-0.44-0.9-0.58-1.44c-0.13-0.54-0.2-1.11-0.2-1.71c0-0.58,0.06-1.18,0.16-1.82
	c0.11-0.64,0.25-1.27,0.43-1.89c0.18-0.62,0.39-1.22,0.63-1.8c0.24-0.58,0.48-1.1,0.72-1.58c-0.48-0.02-0.96-0.1-1.44-0.22
	c-0.08-0.02-0.15-0.04-0.22-0.06c-0.11,0.22-0.23,0.5-0.37,0.84c-0.3,0.71-0.66,1.53-1.08,2.45c-0.42,0.92-0.88,1.89-1.38,2.9
	c-0.51,1.01-1.04,1.94-1.6,2.79c-0.57,0.85-1.14,1.56-1.73,2.11c-0.59,0.55-1.17,0.83-1.75,0.83c-0.62,0-1.17-0.22-1.63-0.65
	c-0.47-0.43-0.78-1.01-0.92-1.73c-0.14,0.26-0.33,0.53-0.54,0.81c-0.21,0.28-0.45,0.53-0.72,0.76c-0.27,0.23-0.56,0.42-0.88,0.58
	c-0.32,0.16-0.68,0.25-1.06,0.27c-1.03,0-1.9-0.35-2.59-1.06c-0.7-0.71-1.05-1.77-1.05-3.19c0-0.18,0.01-0.37,0.02-0.56
	c-0.59,0.75-1.2,1.44-1.81,2.07c-0.75,0.77-1.49,1.4-2.23,1.89c-0.75,0.49-1.45,0.76-2.09,0.81c-1.06,0.1-1.89-0.17-2.49-0.79
	c-0.6-0.62-0.85-1.55-0.76-2.77c0.03-0.82,0.14-1.7,0.34-2.65c0.2-0.95,0.45-1.93,0.74-2.95c0.29-1.02,0.61-2.07,0.98-3.13
	c0.36-1.07,0.72-2.13,1.08-3.19c0.46-1.15,0.7-2.03,0.74-2.63c0.04-0.6-0.09-0.85-0.38-0.74c-0.29,0.11-0.71,0.59-1.24,1.44
	c-0.54,0.85-1.16,2.14-1.85,3.87c-0.39,0.94-0.81,1.99-1.28,3.15c-0.46,1.16-0.9,2.32-1.31,3.46c-0.41,1.14-0.74,2.2-0.99,3.19
	c-0.25,0.98-0.35,1.75-0.31,2.31c0.03,0.34-0.08,0.58-0.31,0.72c-0.22,0.14-0.5,0.22-0.83,0.24c-0.32,0.01-0.64-0.01-0.96-0.07
	c-0.31-0.06-0.54-0.13-0.68-0.2c-0.26-0.1-0.53-0.26-0.79-0.5c-0.27-0.24-0.48-0.55-0.65-0.92c-0.17-0.37-0.27-0.83-0.31-1.37
	c-0.04-0.54,0.03-1.17,0.2-1.89c0.48-2.07,1.17-4.21,2.05-6.45c0.89-2.23,1.79-4.55,2.7-6.95c0.05-0.19,0.09-0.46,0.14-0.79
	c0.05-0.34,0.01-0.54-0.11-0.61c-0.24-0.17-0.6,0.03-1.08,0.61c-0.48,0.58-1.02,1.39-1.62,2.43c-0.6,1.04-1.24,2.26-1.91,3.64
	c-0.67,1.38-1.33,2.79-1.98,4.23c-0.58,1.2-1.15,2.33-1.71,3.4c-0.57,1.07-1.16,2.02-1.78,2.85c-0.63,0.83-1.3,1.51-2.02,2.03
	c-0.72,0.53-1.53,0.85-2.42,0.97c-0.48,0.07-0.97,0.08-1.48,0.04c-0.5-0.05-0.91-0.16-1.22-0.32c-0.63-0.36-1.06-0.74-1.3-1.13
	c-0.24-0.4-0.36-0.77-0.36-1.14c0-0.36,0.09-0.68,0.27-0.95c0.18-0.28,0.37-0.47,0.58-0.58c0.2-0.11,0.38-0.11,0.52-0.02
	c0.14,0.1,0.2,0.33,0.18,0.68c-0.05,0.48,0.06,0.86,0.31,1.14c0.26,0.28,0.6,0.4,1.03,0.38c0.51-0.02,1.05-0.43,1.62-1.21
	c0.57-0.78,1.14-1.78,1.71-2.99c0.57-1.21,1.11-2.56,1.62-4.03c0.52-1.48,0.98-2.91,1.38-4.3c0.41-1.39,0.75-2.66,1.03-3.8
	c0.28-1.14,0.45-1.99,0.52-2.54c0.15-1.3,0.03-2.17-0.34-2.61c-0.37-0.44-0.88-0.61-1.53-0.49c-0.77,0.14-1.54,0.53-2.32,1.17
	c-0.78,0.64-1.5,1.39-2.14,2.25c-0.65,0.86-1.18,1.77-1.59,2.7c-0.41,0.94-0.61,1.78-0.61,2.52c0.03,0.48-0.07,0.82-0.27,1.03
	c-0.2,0.2-0.55,0.25-1.03,0.13c-0.32-0.1-0.64-0.25-0.99-0.47c-0.35-0.22-0.65-0.5-0.9-0.85c-0.25-0.35-0.42-0.76-0.52-1.24
	c-0.1-0.48-0.05-1.03,0.14-1.66c0.36-1.15,0.99-2.23,1.9-3.24c0.9-1.01,1.93-1.87,3.1-2.59c1.16-0.72,2.4-1.27,3.69-1.64
	c1.29-0.37,2.51-0.49,3.64-0.34c0.24,0.02,0.62,0.09,1.15,0.2c0.53,0.11,1.05,0.35,1.57,0.72c0.52,0.37,0.93,0.93,1.26,1.68
	c0.32,0.74,0.39,1.77,0.19,3.06c-0.05,0.12-0.07,0.24-0.07,0.36c0,0.12-0.02,0.25-0.07,0.4c0.29-0.53,0.65-1.15,1.08-1.85
	c0.43-0.71,0.9-1.37,1.42-1.98c0.52-0.61,1.05-1.13,1.6-1.57c0.55-0.43,1.1-0.65,1.66-0.65c0.36,0,0.74,0.1,1.12,0.29
	c0.38,0.19,0.73,0.46,1.05,0.79c0.31,0.34,0.56,0.75,0.76,1.24c0.19,0.49,0.29,1.04,0.29,1.64c0,0.29-0.03,0.59-0.09,0.9
	c-0.06,0.31-0.15,0.64-0.27,0.97c-0.03,0.05-0.04,0.08-0.04,0.11c0.27-0.46,0.59-1,0.98-1.62c0.38-0.62,0.8-1.22,1.26-1.78
	c0.45-0.56,0.94-1.04,1.46-1.42c0.52-0.38,1.04-0.58,1.57-0.58c0.38,0,0.8,0.14,1.26,0.41c0.45,0.28,0.84,0.67,1.17,1.19
	c0.32,0.52,0.53,1.15,0.63,1.91c0.1,0.76-0.04,1.6-0.39,2.54c-0.43,1.13-0.92,2.35-1.46,3.67c-0.54,1.32-1.07,2.67-1.58,4.05
	c-0.52,1.38-0.99,2.75-1.43,4.11c-0.43,1.36-0.76,2.64-0.97,3.84c-0.1,0.53-0.01,0.8,0.27,0.81c0.28,0.01,0.69-0.15,1.24-0.49
	c0.43-0.24,0.97-0.7,1.62-1.37c0.65-0.67,1.32-1.46,2.02-2.36c0.17-0.21,0.33-0.43,0.5-0.66c0.19-0.8,0.43-1.57,0.71-2.32
	c0.35-0.94,0.74-1.78,1.17-2.54c0.43-0.76,0.88-1.31,1.33-1.67c0.39-0.29,0.78-0.5,1.19-0.63c0.41-0.13,0.8-0.2,1.19-0.2
	c0.57,0,1.09,0.13,1.55,0.38c0.45,0.25,0.79,0.66,1.01,1.21c0.07-0.17,0.13-0.29,0.16-0.36c0.04-0.07,0.11-0.2,0.24-0.4
	c0.17-0.31,0.49-0.46,0.96-0.45c0.46,0.01,0.92,0.12,1.37,0.31c0.44,0.19,0.82,0.44,1.13,0.74c0.31,0.3,0.39,0.6,0.25,0.88
	c-0.45,1.01-0.88,2.01-1.28,3.01c-0.4,1-0.75,1.93-1.05,2.79c-0.3,0.86-0.52,1.63-0.66,2.31c-0.14,0.67-0.19,1.19-0.14,1.55
	c0.05,0.19,0.12,0.3,0.23,0.31c0.11,0.01,0.22-0.02,0.36-0.11c0.13-0.08,0.26-0.19,0.38-0.32c0.12-0.13,0.21-0.23,0.29-0.31
	c0.48-0.53,1-1.23,1.55-2.11c0.55-0.88,1.08-1.78,1.6-2.72c0.52-0.94,0.99-1.83,1.4-2.68c0.3-0.6,0.55-1.11,0.76-1.52
	c-0.32-0.24-0.59-0.54-0.81-0.89c-0.24-0.4-0.37-0.87-0.4-1.42c-0.05-0.82,0.16-1.53,0.63-2.14c0.47-0.61,1.1-0.91,1.9-0.88
	c0.43,0,0.77,0.11,1.03,0.32c0.25,0.22,0.43,0.49,0.54,0.83c0.11,0.34,0.14,0.7,0.09,1.1c-0.05,0.4-0.16,0.79-0.32,1.17
	c0.05,0.33,0.26,0.56,0.63,0.68c0.37,0.12,0.73,0.06,1.06-0.18c0.34-0.19,0.67-0.29,1.01-0.29c0.36,0,0.73,0.08,1.1,0.25
	c0.37,0.17,0.67,0.38,0.9,0.65c0.22,0.26,0.37,0.56,0.43,0.9c0.06,0.34-0.03,0.68-0.27,1.05c-0.26,0.36-0.57,0.85-0.93,1.46
	c-0.36,0.61-0.71,1.28-1.04,2c-0.34,0.72-0.63,1.45-0.87,2.2c-0.24,0.74-0.37,1.42-0.39,2.02c0,0.41,0.05,0.71,0.14,0.9
	c0.1,0.19,0.38,0.12,0.86-0.22c0.55-0.41,1.19-1.05,1.89-1.93c0.68-0.85,1.36-1.75,2.04-2.71c0.23-0.8,0.5-1.58,0.81-2.35
	c0.4-0.98,0.84-1.87,1.33-2.67c0.5-0.79,0.96-1.36,1.39-1.69c0.38-0.26,0.77-0.46,1.17-0.58c0.39-0.12,0.77-0.18,1.13-0.18
	c0.55,0,1.09,0.13,1.62,0.4c0.53,0.26,0.9,0.68,1.12,1.26c0.05-0.14,0.12-0.29,0.21-0.43c0.1-0.14,0.17-0.28,0.21-0.4
	c0.15-0.22,0.43-0.31,0.87-0.27c0.43,0.04,0.86,0.16,1.28,0.38c0.42,0.22,0.77,0.49,1.04,0.83c0.28,0.34,0.33,0.7,0.16,1.08
	c-0.36,0.72-0.75,1.58-1.17,2.59c-0.42,1.01-0.84,2.06-1.26,3.15c-0.42,1.09-0.82,2.16-1.19,3.21c-0.37,1.04-0.67,1.96-0.91,2.75
	c0.79-0.48,1.56-1.17,2.3-2.07c0.75-0.9,1.46-1.91,2.14-3.04l0.1-0.16c0.05-0.39,0.12-0.8,0.21-1.21c0.22-1.01,0.5-1.98,0.85-2.92
	c0.35-0.94,0.74-1.78,1.17-2.54c0.43-0.76,0.88-1.31,1.33-1.67c0.38-0.29,0.78-0.5,1.19-0.63c0.41-0.13,0.8-0.2,1.19-0.2
	c0.58,0,1.09,0.13,1.55,0.38c0.45,0.25,0.79,0.66,1.01,1.21c0.07-0.17,0.13-0.29,0.16-0.36c0.04-0.07,0.11-0.2,0.23-0.4
	c0.17-0.31,0.49-0.46,0.95-0.45c0.47,0.01,0.92,0.12,1.37,0.31c0.44,0.19,0.82,0.44,1.13,0.74c0.32,0.3,0.4,0.6,0.26,0.88
	c-0.46,1.01-0.88,2.01-1.28,3.01c-0.4,1-0.75,1.93-1.05,2.79c-0.3,0.86-0.52,1.63-0.66,2.31c-0.15,0.67-0.19,1.19-0.15,1.55
	c0.05,0.19,0.13,0.3,0.23,0.31c0.11,0.01,0.23-0.02,0.36-0.11c0.13-0.08,0.26-0.19,0.38-0.32c0.12-0.13,0.21-0.23,0.29-0.31
	c0.48-0.53,1-1.23,1.55-2.11c0.55-0.88,1.09-1.78,1.6-2.72c0.52-0.94,0.99-1.83,1.4-2.68c0.3-0.6,0.55-1.11,0.75-1.52
	c-0.32-0.24-0.59-0.54-0.8-0.89c-0.24-0.4-0.37-0.87-0.4-1.42c-0.05-0.82,0.16-1.53,0.63-2.14c0.47-0.61,1.1-0.91,1.89-0.88
	c0.43,0,0.78,0.11,1.03,0.32c0.26,0.22,0.43,0.49,0.54,0.83c0.11,0.34,0.14,0.7,0.09,1.1c-0.05,0.4-0.16,0.79-0.33,1.17
	c0.05,0.33,0.26,0.56,0.63,0.68c0.37,0.12,0.73,0.06,1.06-0.18c0.34-0.19,0.67-0.29,1.01-0.29c0.36,0,0.73,0.08,1.1,0.25
	c0.37,0.17,0.67,0.38,0.9,0.65c0.23,0.26,0.37,0.56,0.43,0.9c0.06,0.34-0.03,0.68-0.27,1.05c-0.26,0.36-0.58,0.85-0.93,1.46
	c-0.36,0.61-0.71,1.28-1.05,2c-0.33,0.72-0.62,1.45-0.86,2.2c-0.24,0.74-0.37,1.42-0.39,2.02c0,0.41,0.05,0.71,0.14,0.9
	c0.1,0.19,0.38,0.12,0.86-0.22c0.55-0.41,1.19-1.05,1.89-1.93c0.71-0.88,1.41-1.81,2.11-2.81c0.22-0.32,0.44-0.64,0.66-0.96
	c0.06-0.21,0.11-0.42,0.17-0.62c0.27-0.95,0.55-1.84,0.85-2.68c0.3-0.84,0.59-1.51,0.88-2.02c0.22-0.41,0.6-0.64,1.15-0.7
	c0.55-0.06,1.08,0.02,1.58,0.23c0.51,0.22,0.9,0.53,1.19,0.95c0.29,0.42,0.29,0.89,0,1.42c-0.22,0.43-0.49,0.97-0.81,1.6
	c-0.32,0.64-0.64,1.32-0.96,2.05c-0.31,0.73-0.58,1.48-0.81,2.25c-0.23,0.77-0.38,1.48-0.45,2.12c0,0.12,0,0.26,0,0.42
	c0,0.16,0.02,0.31,0.05,0.47c0.04,0.16,0.09,0.3,0.16,0.42c0.07,0.12,0.18,0.19,0.32,0.22c0.29,0,0.64-0.17,1.05-0.52
	c0.41-0.35,0.83-0.82,1.28-1.4c0.44-0.59,0.9-1.26,1.37-2.02c0.47-0.76,0.9-1.52,1.3-2.29c0.15-0.29,0.3-0.58,0.43-0.87
	c0.16-0.76,0.33-1.54,0.52-2.34l-0.54-0.04c-0.41-0.02-0.69-0.09-0.85-0.2c-0.15-0.11-0.23-0.25-0.23-0.42
	c0-0.26,0.08-0.54,0.23-0.83c0.16-0.29,0.4-0.41,0.74-0.36c0.19,0.03,0.38,0.04,0.56,0.05c0.18,0.01,0.37,0.02,0.56,0.02
	c0.36-1.32,0.75-2.62,1.17-3.89c0.42-1.27,0.83-2.44,1.23-3.5c0.4-1.06,0.76-1.96,1.1-2.72c0.34-0.76,0.6-1.28,0.79-1.57
	c0.19-0.31,0.52-0.47,0.98-0.47c0.38,0,0.79,0.07,1.21,0.22c0.42,0.14,0.79,0.33,1.1,0.56c0.31,0.23,0.53,0.5,0.65,0.81
	c0.12,0.31,0.07,0.64-0.14,0.97c-0.15,0.19-0.36,0.59-0.63,1.21c-0.28,0.61-0.59,1.35-0.96,2.21c-0.36,0.86-0.74,1.83-1.15,2.9
	c-0.41,1.07-0.81,2.17-1.19,3.3h1.01c0.14,0,0.24,0.09,0.29,0.27c0.05,0.18,0.05,0.38,0.02,0.59c-0.04,0.22-0.12,0.42-0.26,0.61
	c-0.13,0.19-0.31,0.3-0.52,0.32c-0.19,0.02-0.38,0.04-0.58,0.05c-0.19,0.01-0.4,0.03-0.61,0.05c-0.34,0.98-0.63,1.94-0.9,2.86
	c-0.27,0.92-0.49,1.78-0.66,2.57c-0.18,0.79-0.31,1.49-0.38,2.09c-0.08,0.6-0.06,1.06,0.03,1.37c0.05,0.14,0.15,0.23,0.29,0.25
	c0.14,0.02,0.28,0,0.39-0.07c0.27-0.17,0.58-0.47,0.94-0.92c0.36-0.44,0.74-0.97,1.15-1.57c0.33-0.48,0.66-1,1-1.56
	c0.02-0.08,0.03-0.16,0.05-0.24c0.21-1.01,0.5-1.98,0.85-2.92c0.35-0.94,0.74-1.78,1.17-2.54
	C198.88,14.55,199.33,13.99,199.79,13.63L199.79,13.63z M187.97,11.33c-0.21,0.19-0.5,0.28-0.85,0.27
	c-0.35-0.01-0.68-0.11-1.01-0.29c-0.32-0.18-0.58-0.44-0.78-0.77c-0.19-0.34-0.22-0.73-0.11-1.19c0.07-0.24,0.15-0.52,0.24-0.85
	c0.08-0.32,0.18-0.65,0.29-0.97c0.11-0.32,0.22-0.63,0.34-0.92c0.12-0.29,0.24-0.52,0.36-0.68c0.14-0.15,0.29-0.25,0.43-0.32
	c0.15-0.07,0.33-0.12,0.54-0.14c0.36-0.02,0.75,0.04,1.15,0.18c0.41,0.14,0.77,0.34,1.1,0.6c0.32,0.25,0.56,0.54,0.72,0.86
	c0.15,0.32,0.16,0.63,0.02,0.92L187.97,11.33L187.97,11.33z M162.72,16.95c0-0.07-0.01-0.19-0.02-0.34
	c-0.01-0.16-0.04-0.31-0.07-0.45c-0.04-0.14-0.09-0.28-0.14-0.4c-0.06-0.12-0.14-0.18-0.23-0.18c-0.29,0-0.61,0.22-0.96,0.67
	c-0.35,0.44-0.68,1-1.01,1.67c-0.33,0.67-0.63,1.42-0.92,2.23c-0.29,0.82-0.52,1.58-0.68,2.3c-0.05,0.22-0.11,0.52-0.18,0.9
	c-0.07,0.39-0.12,0.76-0.13,1.14c-0.01,0.37,0.02,0.7,0.09,0.97c0.07,0.28,0.22,0.42,0.46,0.42c0.31,0,0.62-0.17,0.94-0.52
	c0.31-0.35,0.6-0.8,0.88-1.35c0.28-0.55,0.54-1.16,0.78-1.84c0.24-0.67,0.45-1.34,0.63-2c0.18-0.66,0.32-1.28,0.41-1.86
	C162.67,17.74,162.72,17.28,162.72,16.95L162.72,16.95z M150.26,16.41c0-0.07,0-0.17-0.02-0.31c-0.01-0.13-0.03-0.26-0.07-0.4
	c-0.04-0.13-0.08-0.25-0.14-0.36c-0.06-0.11-0.14-0.16-0.23-0.16c-0.26,0-0.56,0.2-0.9,0.61c-0.34,0.41-0.67,0.94-1.01,1.58
	c-0.34,0.65-0.67,1.36-0.99,2.14c-0.33,0.78-0.61,1.54-0.85,2.29c-0.1,0.29-0.2,0.68-0.31,1.17c-0.11,0.49-0.18,0.96-0.23,1.4
	c-0.05,0.44-0.04,0.82,0.02,1.12c0.06,0.3,0.22,0.41,0.49,0.34c0.41-0.1,0.8-0.36,1.17-0.79c0.37-0.43,0.72-0.95,1.03-1.55
	c0.31-0.6,0.59-1.25,0.85-1.96c0.25-0.71,0.47-1.39,0.65-2.05c0.18-0.66,0.32-1.27,0.41-1.82C150.21,17.12,150.26,16.7,150.26,16.41
	L150.26,16.41z M146.69,30.35c-0.55,0.19-0.99,0.44-1.31,0.74c-0.33,0.3-0.56,0.59-0.7,0.88c-0.14,0.29-0.21,0.54-0.2,0.76
	c0.02,0.22,0.09,0.32,0.23,0.32c0.29,0,0.54-0.08,0.74-0.25c0.2-0.17,0.38-0.38,0.54-0.65c0.15-0.26,0.29-0.55,0.41-0.86
	C146.52,30.97,146.62,30.66,146.69,30.35L146.69,30.35z M125.11,16.95c0-0.07,0-0.19-0.02-0.34c-0.01-0.16-0.04-0.31-0.07-0.45
	c-0.04-0.14-0.08-0.28-0.14-0.4c-0.06-0.12-0.14-0.18-0.24-0.18c-0.29,0-0.61,0.22-0.96,0.67c-0.35,0.44-0.68,1-1.01,1.67
	c-0.33,0.67-0.63,1.42-0.92,2.23c-0.29,0.82-0.52,1.58-0.68,2.3c-0.05,0.22-0.11,0.52-0.18,0.9c-0.07,0.39-0.12,0.76-0.13,1.14
	c-0.01,0.37,0.02,0.7,0.09,0.97c0.07,0.28,0.22,0.42,0.46,0.42c0.32,0,0.63-0.17,0.94-0.52c0.31-0.35,0.6-0.8,0.88-1.35
	c0.28-0.55,0.54-1.16,0.78-1.84c0.24-0.67,0.45-1.34,0.63-2c0.18-0.66,0.32-1.28,0.41-1.86C125.06,17.74,125.11,17.28,125.11,16.95
	L125.11,16.95z M203.64,16.95c0-0.07,0-0.19-0.02-0.34c-0.01-0.16-0.04-0.31-0.07-0.45c-0.04-0.14-0.08-0.28-0.14-0.4
	c-0.06-0.12-0.14-0.18-0.23-0.18c-0.29,0-0.6,0.22-0.95,0.67c-0.35,0.44-0.68,1-1.01,1.67c-0.32,0.67-0.63,1.42-0.92,2.23
	c-0.29,0.82-0.52,1.58-0.68,2.3c-0.05,0.22-0.11,0.52-0.18,0.9c-0.07,0.39-0.11,0.76-0.13,1.14c-0.01,0.37,0.02,0.7,0.09,0.97
	c0.07,0.28,0.23,0.42,0.47,0.42c0.31,0,0.62-0.17,0.94-0.52c0.31-0.35,0.61-0.8,0.88-1.35c0.28-0.55,0.53-1.16,0.77-1.84
	c0.24-0.67,0.45-1.34,0.63-2c0.18-0.66,0.32-1.28,0.41-1.86C203.59,17.74,203.64,17.28,203.64,16.95L203.64,16.95z"/>
<path class="st1" d="M114.22,117.34h70.11c-0.67,3.06-1.16,6.11-1.61,8.9c-0.96,6.05-2.11,15.85-5.33,21.05
	c-11.65,18.82-44.57,18.82-56.22,0c-3.21-5.2-4.36-15-5.33-21.05C115.38,123.44,114.89,120.39,114.22,117.34L114.22,117.34z"/>
<path class="st2" d="M90.37,90.99h117.79c-5.36,2.33-10.99,4.67-15.29,8.72c-0.82,0.77-1.58,1.6-2.27,2.48
	c-3.24,4.1-5.06,9.63-6.28,15.14h-70.11c-1.22-5.51-3.04-11.04-6.28-15.14c-0.69-0.88-1.46-1.71-2.27-2.48
	C101.37,95.66,95.74,93.32,90.37,90.99L90.37,90.99z"/>
<path class="st3" d="M63.45,64.65h171.63c-2.09,6.27-5.75,11.97-10.73,16.72c-4.52,4.31-9.89,6.87-15.54,9.34l-0.65,0.28H90.37
	l-0.65-0.28c-5.65-2.47-11.02-5.03-15.53-9.34C69.2,76.61,65.54,70.92,63.45,64.65L63.45,64.65z"/>
<path class="st4" d="M149.68,117.34h34.64c-0.67,3.06-1.16,6.11-1.61,8.9c-0.96,6.05-2.11,15.85-5.33,21.05
	c-5.75,9.3-16.69,14-27.7,14.11V117.34L149.68,117.34z"/>
<path class="st5" d="M149.68,90.99h58.48c-5.36,2.33-10.99,4.67-15.29,8.72c-0.82,0.77-1.58,1.6-2.27,2.48
	c-3.24,4.1-5.06,9.63-6.28,15.14h-34.64V90.99L149.68,90.99z"/>
<path class="st6" d="M149.68,64.65h85.4c-2.09,6.27-5.75,11.97-10.73,16.72c-4.52,4.31-9.89,6.87-15.54,9.34l-0.65,0.28h-58.48
	V64.65L149.68,64.65z"/>
<path class="st7" d="M152.18,68.14c0.1-0.16,0.26-0.23,0.5-0.23c0.19,0,0.39,0.04,0.61,0.11c0.21,0.07,0.39,0.16,0.55,0.28
	c0.16,0.11,0.27,0.25,0.33,0.4c0.06,0.16,0.04,0.32-0.08,0.49c-0.09,0.13-0.25,0.44-0.45,0.93c-0.21,0.49-0.45,1.07-0.72,1.75
	c-0.26,0.68-0.53,1.4-0.81,2.18c-0.28,0.77-0.52,1.52-0.73,2.23c-0.21,0.71-0.37,1.35-0.48,1.92c-0.11,0.56-0.13,0.97-0.06,1.21
	c0.03,0.07,0.07,0.11,0.13,0.13c0.07,0.01,0.13,0,0.19-0.03c0.19-0.12,0.42-0.34,0.68-0.67c0.27-0.32,0.54-0.72,0.82-1.17l0.11-0.18
	c0.08-0.44,0.18-0.86,0.3-1.29c0.13-0.48,0.27-0.92,0.42-1.34c0.15-0.42,0.3-0.76,0.44-1.01c0.11-0.2,0.3-0.32,0.58-0.35
	c0.28-0.03,0.54,0.01,0.79,0.12c0.26,0.11,0.45,0.27,0.59,0.48c0.15,0.21,0.15,0.45,0,0.71c-0.11,0.22-0.24,0.48-0.4,0.8
	c-0.16,0.32-0.32,0.66-0.48,1.03c-0.16,0.37-0.29,0.74-0.4,1.13c-0.12,0.38-0.19,0.74-0.23,1.06c0,0.06,0,0.13,0,0.21
	c0,0.08,0.01,0.16,0.03,0.23c0.02,0.08,0.04,0.15,0.08,0.21c0.04,0.06,0.09,0.1,0.16,0.11c0.15,0,0.32-0.09,0.53-0.26
	c0.2-0.17,0.41-0.41,0.64-0.7c0.15-0.2,0.31-0.42,0.47-0.67c0.03-0.2,0.07-0.4,0.13-0.62c0.13-0.5,0.29-1,0.5-1.49
	c0.2-0.49,0.42-0.92,0.66-1.32c0.24-0.39,0.48-0.67,0.72-0.84c0.19-0.13,0.39-0.23,0.6-0.29c0.2-0.06,0.41-0.09,0.61-0.09
	c0.29,0,0.55,0.05,0.78,0.16c0.23,0.11,0.4,0.3,0.52,0.56c0.03-0.1,0.07-0.2,0.1-0.32c0.03-0.11,0.09-0.19,0.19-0.22
	c0.12-0.05,0.29-0.04,0.52,0.02c0.23,0.06,0.44,0.16,0.63,0.31c0.19,0.14,0.33,0.33,0.42,0.55c0.09,0.22,0.07,0.48-0.08,0.76
	c-0.39,0.78-0.69,1.47-0.91,2.05c-0.21,0.59-0.35,1.06-0.44,1.42c0.27-0.08,0.53-0.23,0.78-0.43c0.26-0.2,0.53-0.47,0.8-0.81
	c0.09-0.11,0.18-0.22,0.28-0.35c0.08-0.37,0.17-0.73,0.28-1.08c0.15-0.51,0.31-0.97,0.48-1.39c0.17-0.42,0.32-0.73,0.45-0.94
	c0.17-0.2,0.39-0.31,0.65-0.31c0.18,0,0.36,0.03,0.54,0.08s0.33,0.13,0.46,0.22c0.13,0.1,0.21,0.22,0.25,0.37
	c0.04,0.15,0,0.32-0.11,0.51c-0.11,0.2-0.24,0.49-0.4,0.86c-0.16,0.37-0.32,0.76-0.48,1.2c-0.16,0.43-0.3,0.86-0.43,1.3
	c-0.13,0.43-0.21,0.82-0.25,1.15c-0.05,0.31,0,0.5,0.13,0.56c0.14,0.06,0.31-0.09,0.52-0.45c0.15-0.26,0.32-0.61,0.5-1.03
	c0.17-0.42,0.35-0.86,0.52-1.31s0.34-0.89,0.5-1.32c0.16-0.43,0.3-0.8,0.41-1.1c0.06-0.18,0.11-0.34,0.16-0.47
	c0.05-0.13,0.09-0.22,0.13-0.27c0.13-0.2,0.34-0.31,0.61-0.31c0.18,0,0.36,0.02,0.55,0.06c0.18,0.04,0.34,0.1,0.48,0.19
	c0.13,0.08,0.22,0.19,0.27,0.32c0.05,0.13,0.03,0.29-0.07,0.49c-0.11,0.19-0.24,0.45-0.39,0.78c-0.15,0.33-0.3,0.69-0.46,1.08
	c-0.15,0.39-0.29,0.79-0.41,1.19c-0.12,0.4-0.2,0.78-0.25,1.13c0,0.04-0.01,0.1-0.02,0.21c-0.01,0.1-0.02,0.21-0.02,0.31
	c0,0.11,0.01,0.21,0.04,0.29c0.03,0.08,0.08,0.13,0.15,0.14c0.12,0,0.29-0.09,0.51-0.27c0.21-0.18,0.47-0.47,0.76-0.88
	c0.05-0.07,0.1-0.14,0.14-0.21c0.01-0.5,0.08-1.02,0.22-1.58c0.15-0.57,0.37-1.09,0.66-1.57c0.29-0.47,0.64-0.87,1.05-1.19
	c0.41-0.32,0.89-0.48,1.44-0.48c0.21,0,0.43,0.04,0.65,0.12c0.22,0.08,0.42,0.2,0.59,0.35c0.17,0.16,0.31,0.36,0.42,0.6
	c0.11,0.25,0.17,0.54,0.17,0.87c-0.03,0.64-0.16,1.16-0.4,1.59c-0.25,0.42-0.55,0.76-0.91,1.01c-0.36,0.25-0.74,0.43-1.14,0.53
	c-0.4,0.1-0.77,0.15-1.11,0.15c-0.03,0.16-0.02,0.31,0.03,0.48c0.05,0.16,0.11,0.31,0.2,0.43c0.09,0.13,0.2,0.23,0.34,0.31
	c0.14,0.08,0.3,0.12,0.48,0.12c0.31,0,0.66-0.15,1.06-0.43c0.39-0.29,0.8-0.68,1.22-1.18c0.19-0.24,0.39-0.49,0.58-0.76v0
	c0.1-0.53,0.22-1.05,0.37-1.56c0.15-0.51,0.31-0.97,0.48-1.39c0.17-0.42,0.32-0.73,0.45-0.94c0.17-0.2,0.38-0.31,0.65-0.31
	c0.18,0,0.36,0.03,0.54,0.08c0.18,0.05,0.33,0.13,0.46,0.22c0.12,0.1,0.2,0.22,0.24,0.37c0.04,0.15,0,0.32-0.11,0.51
	c-0.11,0.2-0.25,0.49-0.4,0.86c-0.16,0.37-0.32,0.76-0.48,1.2c-0.15,0.43-0.3,0.86-0.43,1.3c-0.13,0.43-0.22,0.82-0.26,1.15
	c-0.05,0.31,0,0.5,0.14,0.56c0.14,0.06,0.31-0.09,0.51-0.45c0.16-0.26,0.32-0.61,0.5-1.03c0.17-0.42,0.35-0.86,0.52-1.31
	c0.18-0.45,0.34-0.89,0.51-1.32c0.16-0.43,0.3-0.8,0.41-1.1c0.06-0.18,0.11-0.34,0.16-0.47c0.05-0.13,0.09-0.22,0.13-0.27
	c0.13-0.2,0.34-0.31,0.61-0.31c0.18,0,0.36,0.02,0.55,0.06c0.19,0.04,0.35,0.1,0.48,0.19c0.13,0.08,0.22,0.19,0.27,0.32
	c0.05,0.13,0.02,0.29-0.08,0.49c-0.11,0.19-0.23,0.45-0.38,0.78c-0.15,0.33-0.31,0.69-0.46,1.08c-0.16,0.39-0.3,0.79-0.41,1.19
	c-0.12,0.4-0.2,0.78-0.26,1.13c0,0.04-0.01,0.1-0.02,0.21c-0.02,0.1-0.02,0.21-0.02,0.31c0,0.11,0.02,0.21,0.05,0.29
	c0.03,0.08,0.08,0.13,0.15,0.14c0.12,0,0.29-0.09,0.51-0.27c0.21-0.18,0.47-0.47,0.76-0.88c0.29-0.41,0.6-0.94,0.93-1.59
	c0.3-0.58,0.61-1.27,0.92-2.08l-0.03-0.02c-0.19-0.13-0.34-0.29-0.46-0.49c-0.12-0.2-0.19-0.43-0.2-0.71
	c-0.03-0.41,0.08-0.76,0.32-1.07c0.23-0.31,0.55-0.45,0.95-0.44c0.21,0,0.39,0.05,0.51,0.16c0.13,0.11,0.21,0.25,0.27,0.42
	c0.06,0.17,0.07,0.35,0.05,0.55c-0.03,0.2-0.08,0.39-0.16,0.58c0.03,0.17,0.13,0.28,0.32,0.34c0.18,0.06,0.36,0.03,0.53-0.09
	c0.17-0.1,0.34-0.14,0.51-0.14c0.18,0,0.36,0.04,0.55,0.13c0.19,0.08,0.34,0.19,0.45,0.32c0.12,0.13,0.19,0.28,0.21,0.45
	c0.03,0.17-0.01,0.34-0.13,0.52c-0.13,0.18-0.29,0.42-0.47,0.73c-0.18,0.31-0.35,0.64-0.52,1c-0.17,0.36-0.31,0.73-0.43,1.1
	c-0.12,0.37-0.19,0.71-0.2,1.01c0,0.2,0.03,0.35,0.07,0.45c0.05,0.1,0.19,0.06,0.43-0.11c0.28-0.2,0.59-0.52,0.95-0.96
	c0.35-0.44,0.71-0.91,1.05-1.4c0.35-0.5,0.67-0.98,0.96-1.44c0.3-0.46,0.52-0.82,0.68-1.07c0.04-0.06,0.09-0.09,0.16-0.08
	c0.07,0.01,0.14,0.03,0.21,0.07c0.07,0.04,0.12,0.1,0.16,0.16c0.04,0.07,0.04,0.12,0,0.17c-0.08,0.1-0.22,0.31-0.41,0.64
	c-0.19,0.33-0.42,0.72-0.68,1.17c-0.26,0.45-0.55,0.92-0.87,1.42c-0.32,0.5-0.64,0.96-0.97,1.38c-0.33,0.42-0.66,0.77-0.99,1.05
	c-0.33,0.28-0.64,0.41-0.93,0.41c-0.24,0-0.45-0.07-0.64-0.2c-0.19-0.13-0.35-0.3-0.48-0.51c-0.12-0.21-0.22-0.45-0.29-0.72
	s-0.1-0.56-0.1-0.86c0-0.29,0.03-0.59,0.08-0.91c0.06-0.32,0.13-0.63,0.22-0.95c0.09-0.31,0.19-0.61,0.31-0.9
	c0.12-0.29,0.24-0.55,0.36-0.79c-0.24-0.01-0.48-0.05-0.72-0.11l-0.05-0.01c-0.04,0.1-0.09,0.22-0.14,0.35
	c-0.14,0.35-0.31,0.75-0.51,1.21c-0.2,0.46-0.42,0.94-0.67,1.44c-0.25,0.5-0.52,0.97-0.79,1.4c-0.28,0.43-0.56,0.79-0.85,1.08
	c-0.29,0.3-0.57,0.45-0.85,0.48c-0.48,0.05-0.85-0.08-1.11-0.4c-0.27-0.31-0.4-0.73-0.41-1.24c-0.11,0.2-0.23,0.4-0.36,0.59
	c-0.13,0.19-0.28,0.36-0.43,0.51c-0.16,0.15-0.32,0.27-0.5,0.37c-0.17,0.1-0.35,0.14-0.52,0.14c-0.14,0-0.3-0.02-0.46-0.07
	c-0.17-0.05-0.33-0.14-0.49-0.27c-0.15-0.13-0.29-0.32-0.39-0.58c-0.11-0.25-0.17-0.59-0.18-1.01c0-0.09,0-0.19,0-0.29
	c-0.27,0.34-0.54,0.66-0.83,0.95c-0.38,0.38-0.77,0.69-1.18,0.93c-0.4,0.24-0.81,0.37-1.21,0.38c-0.33,0-0.62-0.07-0.88-0.21
	c-0.27-0.14-0.5-0.33-0.69-0.58c-0.19-0.24-0.34-0.51-0.44-0.82l-0.02,0.03c-0.28,0.43-0.56,0.79-0.85,1.08
	c-0.29,0.3-0.57,0.45-0.84,0.48c-0.48,0.05-0.85-0.08-1.12-0.4c-0.27-0.31-0.4-0.73-0.41-1.24c-0.11,0.2-0.23,0.4-0.36,0.59
	c-0.13,0.19-0.28,0.36-0.43,0.51c-0.16,0.15-0.32,0.27-0.5,0.37c-0.17,0.1-0.35,0.14-0.51,0.14c-0.15,0-0.3-0.02-0.47-0.07
	c-0.17-0.05-0.33-0.14-0.49-0.27c-0.16-0.13-0.29-0.32-0.4-0.58c-0.11-0.25-0.17-0.59-0.18-1.01c0-0.07-0.01-0.13,0-0.2
	c-0.08,0.1-0.16,0.2-0.25,0.3c-0.25,0.29-0.48,0.52-0.69,0.69c0.05,0.3,0.08,0.59,0.09,0.86c0.01,0.27,0.02,0.53,0.02,0.77
	c0,1.12-0.14,2.01-0.42,2.67c-0.28,0.67-0.71,1-1.29,1.02c-0.36,0.01-0.65-0.1-0.88-0.33c-0.23-0.23-0.4-0.56-0.51-0.96
	c-0.12-0.41-0.17-0.89-0.17-1.44c0-0.55,0.05-1.15,0.14-1.78c-0.11,0.08-0.23,0.16-0.38,0.23c-0.14,0.07-0.31,0.1-0.49,0.12
	c-0.59,0-1.04-0.21-1.35-0.62c-0.18-0.24-0.31-0.52-0.39-0.83l-0.04,0.05c-0.31,0.41-0.63,0.75-0.98,1.02
	c-0.35,0.27-0.7,0.4-1.06,0.4c-0.3,0-0.55-0.05-0.76-0.14c-0.2-0.1-0.37-0.23-0.5-0.4c-0.13-0.17-0.22-0.37-0.27-0.6
	c-0.03-0.1-0.05-0.21-0.06-0.32c-0.28,0.42-0.56,0.77-0.85,1.05c-0.3,0.28-0.61,0.42-0.92,0.42c-0.21,0-0.42-0.03-0.62-0.09
	c-0.19-0.06-0.37-0.16-0.52-0.3c-0.15-0.14-0.27-0.32-0.37-0.56c-0.1-0.23-0.15-0.52-0.16-0.87c-0.01-0.47,0.04-1.04,0.14-1.71
	c0.11-0.67,0.26-1.38,0.43-2.13s0.38-1.51,0.61-2.27c0.22-0.76,0.45-1.47,0.68-2.12c0.22-0.65,0.44-1.21,0.63-1.68
	C151.9,68.65,152.05,68.32,152.18,68.14L152.18,68.14z M160.5,83.81c0.13,0,0.25-0.13,0.34-0.4c0.1-0.27,0.16-0.6,0.2-1
	c0.04-0.4,0.05-0.81,0.03-1.25c-0.02-0.44-0.08-0.82-0.19-1.14c-0.15,0.53-0.26,1.05-0.33,1.58c-0.07,0.52-0.12,0.94-0.14,1.25
	c-0.01,0.24-0.01,0.46,0.01,0.67C160.43,83.71,160.46,83.81,160.5,83.81L160.5,83.81z M172.49,74.97c-0.11,0.06-0.23,0.18-0.38,0.36
	c-0.14,0.18-0.29,0.4-0.43,0.66c-0.14,0.26-0.28,0.54-0.4,0.85c-0.12,0.31-0.21,0.62-0.27,0.93c0.2-0.03,0.41-0.11,0.62-0.25
	c0.21-0.14,0.4-0.32,0.58-0.53c0.17-0.21,0.32-0.45,0.44-0.72c0.12-0.27,0.19-0.54,0.21-0.82c0.02-0.14,0-0.25-0.03-0.31
	c-0.03-0.07-0.07-0.11-0.11-0.14c-0.04-0.03-0.08-0.04-0.13-0.04C172.57,74.94,172.53,74.95,172.49,74.97L172.49,74.97z
	 M160.21,74.79c-0.05-0.17-0.11-0.25-0.2-0.25c-0.13,0-0.28,0.1-0.45,0.31c-0.17,0.2-0.34,0.46-0.51,0.77
	c-0.16,0.31-0.33,0.66-0.5,1.05c-0.16,0.38-0.3,0.76-0.42,1.14c-0.12,0.37-0.21,0.71-0.27,1.01c-0.06,0.3-0.07,0.53-0.04,0.68
	c0.05,0.28,0.14,0.41,0.27,0.41c0.14,0,0.31-0.11,0.5-0.32c0.19-0.22,0.38-0.49,0.58-0.81c0.07-0.13,0.17-0.36,0.3-0.68
	c0.13-0.32,0.25-0.66,0.36-1.03c0.11-0.37,0.21-0.73,0.3-1.08c0.08-0.35,0.13-0.63,0.13-0.84
	C160.26,75.01,160.24,74.89,160.21,74.79L160.21,74.79z M147.26,74.35c0.03-0.06,0.07-0.09,0.14-0.1c0.08-0.01,0.15,0.01,0.22,0.04
	c0.07,0.03,0.13,0.07,0.17,0.13c0.05,0.05,0.05,0.1,0.03,0.15c-0.13,0.28-0.31,0.62-0.53,1.04c-0.22,0.42-0.48,0.85-0.76,1.32
	c-0.29,0.46-0.59,0.92-0.93,1.39c-0.34,0.46-0.69,0.88-1.07,1.26c-0.38,0.38-0.77,0.69-1.17,0.93c-0.4,0.24-0.81,0.37-1.22,0.38
	c-0.32,0-0.62-0.07-0.88-0.21c-0.26-0.14-0.5-0.33-0.69-0.58c-0.19-0.23-0.34-0.5-0.44-0.81c-0.14,0.21-0.28,0.4-0.43,0.6
	c-0.31,0.4-0.64,0.75-0.99,1.05c-0.35,0.3-0.71,0.52-1.08,0.65c-0.08,0.25-0.2,0.56-0.34,0.94c-0.14,0.37-0.33,0.73-0.56,1.07
	c-0.23,0.34-0.5,0.63-0.8,0.86c-0.31,0.23-0.66,0.34-1.07,0.32c-0.29-0.01-0.53-0.1-0.73-0.25c-0.2-0.16-0.34-0.35-0.43-0.59
	c-0.09-0.23-0.13-0.49-0.12-0.77c0.01-0.28,0.08-0.53,0.21-0.77c0.22-0.41,0.55-0.73,1.01-0.96c0.45-0.23,0.92-0.4,1.4-0.52
	l0.21-0.74c-0.11,0.2-0.27,0.37-0.49,0.49c-0.21,0.12-0.41,0.18-0.59,0.18c-0.51-0.02-0.91-0.23-1.21-0.61
	c-0.18-0.23-0.3-0.5-0.37-0.81c-0.27,0.36-0.54,0.66-0.81,0.92c-0.31,0.29-0.63,0.46-0.94,0.5c-0.29,0.02-0.53,0-0.73-0.07
	c-0.2-0.07-0.36-0.19-0.48-0.34c-0.12-0.16-0.2-0.34-0.26-0.56c-0.05-0.22-0.08-0.45-0.08-0.7c0-0.38,0.06-0.81,0.17-1.27
	c0.11-0.46,0.22-0.92,0.31-1.38c0.07-0.33,0.09-0.55,0.05-0.68c-0.04-0.13-0.12-0.18-0.22-0.14c-0.11,0.03-0.23,0.12-0.37,0.28
	c-0.14,0.16-0.26,0.35-0.37,0.59c-0.11,0.24-0.23,0.51-0.36,0.82c-0.13,0.31-0.26,0.62-0.37,0.94c-0.11,0.32-0.22,0.63-0.33,0.93
	c-0.1,0.3-0.17,0.56-0.22,0.79c-0.05,0.22-0.15,0.41-0.31,0.6c-0.15,0.18-0.38,0.25-0.68,0.2c-0.21-0.02-0.37-0.15-0.48-0.37
	c-0.1-0.22-0.15-0.42-0.15-0.6c0-0.16,0.01-0.33,0.03-0.53l-0.02,0.03c-0.28,0.43-0.57,0.78-0.86,1.05
	c-0.3,0.28-0.59,0.41-0.87,0.41c-0.32,0-0.59-0.11-0.82-0.32c-0.24-0.22-0.39-0.5-0.46-0.86c-0.07,0.13-0.16,0.27-0.27,0.41
	c-0.11,0.14-0.22,0.26-0.36,0.38c-0.13,0.11-0.28,0.21-0.44,0.29c-0.16,0.08-0.34,0.12-0.54,0.13c-0.52,0-0.95-0.18-1.29-0.53
	c-0.35-0.35-0.53-0.89-0.53-1.59l0.01-0.16c-0.2,0.29-0.4,0.57-0.61,0.83c-0.33,0.42-0.66,0.77-0.99,1.05
	c-0.33,0.28-0.64,0.41-0.92,0.41c-0.24,0-0.45-0.07-0.65-0.2c-0.19-0.13-0.35-0.3-0.48-0.51c-0.13-0.21-0.22-0.45-0.29-0.72
	c-0.07-0.27-0.1-0.56-0.1-0.86c0-0.29,0.03-0.59,0.08-0.91c0.05-0.32,0.12-0.63,0.21-0.95c0.09-0.31,0.19-0.61,0.32-0.9
	c0.12-0.29,0.24-0.55,0.36-0.79c-0.21-0.01-0.41-0.04-0.62-0.08c-0.11,0.29-0.25,0.59-0.43,0.9c-0.23,0.4-0.5,0.75-0.79,1.06
	c-0.3,0.31-0.61,0.57-0.96,0.77c-0.34,0.2-0.67,0.28-1,0.26c-0.24,0.9-0.6,1.64-1.09,2.22c-0.49,0.58-1.07,0.86-1.76,0.86
	c-0.26,0-0.55-0.07-0.84-0.2c-0.4-0.2-0.69-0.53-0.87-0.97c-0.19-0.44-0.28-0.95-0.28-1.51c0-0.55,0.08-1.13,0.25-1.72
	c0.16-0.59,0.38-1.14,0.67-1.64c0.29-0.5,0.62-0.91,1-1.22c0.38-0.32,0.79-0.48,1.22-0.48c0.08,0,0.17,0.01,0.28,0.02
	c0.11,0.01,0.23,0.05,0.35,0.12c0.12,0.07,0.24,0.16,0.36,0.29c0.12,0.13,0.22,0.3,0.29,0.51c0.28,0.12,0.49,0.39,0.65,0.81
	c0.15,0.42,0.16,1.03,0.04,1.82c0.09,0.01,0.24-0.01,0.42-0.07c0.18-0.06,0.39-0.18,0.61-0.35c0.22-0.17,0.45-0.42,0.68-0.74
	c0.19-0.27,0.37-0.6,0.53-0.99l-0.06-0.04c-0.18-0.13-0.34-0.29-0.46-0.49c-0.12-0.2-0.18-0.43-0.2-0.71
	c-0.02-0.41,0.08-0.76,0.32-1.07c0.23-0.31,0.55-0.45,0.95-0.44c0.21,0,0.39,0.05,0.52,0.16c0.12,0.11,0.21,0.25,0.27,0.42
	c0.06,0.17,0.07,0.35,0.05,0.55c-0.02,0.2-0.08,0.39-0.16,0.58c0.02,0.17,0.13,0.28,0.31,0.34c0.19,0.06,0.36,0.03,0.53-0.09
	c0.17-0.1,0.34-0.14,0.51-0.14c0.18,0,0.36,0.04,0.55,0.13c0.18,0.08,0.33,0.19,0.45,0.32c0.11,0.13,0.18,0.28,0.21,0.45
	c0.03,0.17-0.02,0.34-0.14,0.52c-0.13,0.18-0.29,0.42-0.46,0.73c-0.18,0.31-0.36,0.64-0.52,1c-0.17,0.36-0.32,0.73-0.43,1.1
	c-0.12,0.37-0.19,0.71-0.2,1.01c0,0.2,0.03,0.35,0.07,0.45c0.05,0.1,0.19,0.06,0.43-0.11c0.28-0.2,0.59-0.52,0.95-0.96
	c0.35-0.44,0.7-0.91,1.05-1.4l0.13-0.19c0.08-0.31,0.18-0.62,0.29-0.92c0.17-0.47,0.37-0.89,0.59-1.27
	c0.21-0.38,0.43-0.66,0.66-0.84c0.19-0.14,0.39-0.25,0.59-0.31c0.2-0.07,0.4-0.1,0.6-0.1c0.29,0,0.55,0.06,0.77,0.19
	c0.23,0.13,0.4,0.33,0.51,0.6c0.04-0.08,0.06-0.14,0.08-0.18c0.02-0.04,0.06-0.1,0.12-0.2c0.08-0.16,0.24-0.23,0.48-0.22
	c0.23,0.01,0.46,0.06,0.68,0.15c0.22,0.1,0.41,0.22,0.57,0.37c0.16,0.15,0.2,0.3,0.13,0.44c-0.23,0.5-0.44,1.01-0.64,1.5
	c-0.2,0.5-0.37,0.96-0.53,1.4c-0.15,0.43-0.26,0.82-0.33,1.15c-0.07,0.34-0.09,0.59-0.07,0.77c0.03,0.1,0.07,0.15,0.12,0.15
	c0.06,0.01,0.11-0.01,0.18-0.05c0.07-0.04,0.13-0.1,0.19-0.16c0.06-0.07,0.11-0.12,0.15-0.15c0.24-0.26,0.5-0.61,0.77-1.05
	c0.28-0.44,0.54-0.89,0.8-1.36l0-0.01c0.12-0.46,0.26-0.93,0.4-1.4c0.18-0.6,0.36-1.16,0.54-1.68c0.05-0.13,0.19-0.22,0.41-0.25
	c0.23-0.04,0.46-0.03,0.69,0.02c0.24,0.05,0.43,0.13,0.59,0.25c0.16,0.12,0.2,0.27,0.12,0.45c-0.1,0.25-0.2,0.5-0.32,0.76
	c-0.12,0.25-0.22,0.49-0.31,0.72c0.08-0.13,0.19-0.28,0.33-0.46c0.14-0.18,0.29-0.35,0.45-0.53c0.16-0.18,0.33-0.36,0.51-0.52
	c0.17-0.17,0.35-0.31,0.53-0.43c0.23-0.14,0.45-0.2,0.68-0.18c0.22,0.02,0.42,0.11,0.58,0.26c0.16,0.15,0.28,0.36,0.35,0.63
	c0.07,0.27,0.07,0.59-0.02,0.95c-0.05,0.22-0.13,0.51-0.26,0.87c-0.12,0.37-0.24,0.75-0.36,1.14c-0.12,0.4-0.23,0.78-0.33,1.15
	c-0.1,0.37-0.14,0.67-0.14,0.88c0,0.04,0.01,0.08,0.03,0.14c0.02,0.05,0.06,0.08,0.12,0.08c0.1,0,0.26-0.11,0.5-0.32
	c0.23-0.22,0.51-0.54,0.82-0.97l0.1-0.15c0.04-0.22,0.08-0.46,0.15-0.72c0.13-0.52,0.3-1.02,0.5-1.51c0.2-0.49,0.42-0.94,0.66-1.33
	c0.25-0.4,0.48-0.68,0.69-0.85c0.19-0.13,0.39-0.23,0.59-0.29c0.2-0.06,0.39-0.09,0.57-0.09c0.28,0,0.55,0.07,0.81,0.2
	c0.27,0.13,0.45,0.34,0.56,0.63c0.02-0.07,0.06-0.14,0.11-0.22c0.05-0.07,0.08-0.14,0.11-0.2c0.07-0.11,0.21-0.15,0.43-0.13
	c0.21,0.02,0.43,0.08,0.64,0.19c0.21,0.11,0.38,0.25,0.52,0.41c0.14,0.17,0.16,0.35,0.08,0.54c-0.18,0.36-0.38,0.79-0.59,1.3
	c-0.21,0.5-0.42,1.03-0.63,1.58c-0.21,0.55-0.41,1.08-0.59,1.6c-0.19,0.52-0.34,0.98-0.46,1.38c0.39-0.24,0.78-0.58,1.15-1.03
	c0.32-0.38,0.62-0.81,0.92-1.28v-0.12c0-0.5,0.08-1.04,0.22-1.61c0.15-0.57,0.37-1.09,0.66-1.57c0.29-0.47,0.64-0.87,1.05-1.19
	c0.41-0.32,0.89-0.48,1.43-0.48c0.22,0,0.43,0.04,0.66,0.12c0.22,0.08,0.42,0.2,0.58,0.35c0.17,0.16,0.31,0.36,0.42,0.6
	c0.12,0.25,0.17,0.54,0.17,0.87c-0.03,0.64-0.16,1.16-0.41,1.59c-0.25,0.42-0.55,0.76-0.9,1.01c-0.36,0.25-0.75,0.43-1.14,0.53
	c-0.4,0.1-0.77,0.15-1.11,0.15c-0.03,0.16-0.02,0.31,0.03,0.48c0.04,0.16,0.11,0.31,0.2,0.43c0.09,0.13,0.2,0.23,0.34,0.31
	c0.14,0.08,0.3,0.12,0.48,0.12c0.31,0,0.67-0.15,1.06-0.43c0.4-0.29,0.8-0.68,1.22-1.18c0.41-0.5,0.83-1.08,1.24-1.75
	C146.55,75.82,146.92,75.11,147.26,74.35L147.26,74.35z M137.62,75.15c0-0.04,0-0.09-0.01-0.15c-0.01-0.07-0.02-0.13-0.04-0.2
	c-0.02-0.07-0.04-0.13-0.07-0.18c-0.03-0.05-0.07-0.08-0.12-0.08c-0.13,0-0.28,0.1-0.45,0.31c-0.17,0.2-0.34,0.47-0.5,0.79
	c-0.17,0.32-0.34,0.68-0.5,1.07c-0.16,0.39-0.31,0.77-0.42,1.14c-0.05,0.14-0.1,0.34-0.15,0.58c-0.06,0.25-0.09,0.48-0.12,0.7
	c-0.03,0.22-0.02,0.41,0.01,0.56c0.03,0.15,0.11,0.21,0.24,0.17c0.2-0.05,0.4-0.18,0.59-0.4c0.18-0.22,0.36-0.47,0.51-0.77
	c0.16-0.3,0.3-0.63,0.42-0.98c0.13-0.35,0.23-0.7,0.33-1.03c0.09-0.33,0.16-0.63,0.2-0.91C137.6,75.5,137.62,75.29,137.62,75.15
	L137.62,75.15z M124.46,75.42c0-0.04,0-0.09-0.01-0.17c-0.01-0.08-0.02-0.15-0.04-0.23c-0.02-0.07-0.04-0.14-0.07-0.2
	c-0.03-0.06-0.07-0.09-0.12-0.09c-0.14,0-0.3,0.11-0.48,0.33c-0.17,0.22-0.34,0.5-0.51,0.84c-0.16,0.34-0.31,0.71-0.46,1.12
	c-0.14,0.41-0.26,0.79-0.34,1.15c-0.02,0.11-0.05,0.26-0.09,0.45c-0.04,0.19-0.06,0.38-0.06,0.57c-0.01,0.19,0.01,0.35,0.04,0.49
	c0.04,0.14,0.12,0.21,0.23,0.21c0.16,0,0.31-0.09,0.47-0.26c0.15-0.17,0.3-0.4,0.44-0.68c0.14-0.28,0.27-0.58,0.39-0.92
	c0.12-0.34,0.22-0.67,0.32-1c0.09-0.33,0.16-0.64,0.2-0.93C124.44,75.81,124.46,75.58,124.46,75.42L124.46,75.42z M135.84,82.12
	c-0.28,0.1-0.5,0.22-0.65,0.37c-0.16,0.15-0.28,0.3-0.35,0.44c-0.07,0.15-0.11,0.27-0.1,0.38c0.01,0.11,0.05,0.16,0.12,0.16
	c0.15,0,0.27-0.04,0.37-0.13c0.1-0.08,0.19-0.19,0.27-0.32c0.08-0.13,0.15-0.28,0.21-0.43C135.76,82.43,135.8,82.27,135.84,82.12
	L135.84,82.12z M110.9,80.12c0.17,0,0.33-0.09,0.49-0.27c0.15-0.18,0.3-0.41,0.43-0.68c0.13-0.27,0.24-0.56,0.32-0.86
	c0.08-0.31,0.14-0.59,0.16-0.84c-0.11-0.07-0.2-0.18-0.28-0.32c-0.08-0.14-0.14-0.3-0.18-0.48c-0.04-0.17-0.07-0.35-0.07-0.53
	c0-0.18,0.02-0.33,0.08-0.47c-0.17,0.06-0.34,0.21-0.51,0.45c-0.17,0.24-0.32,0.53-0.46,0.86c-0.14,0.33-0.26,0.68-0.35,1.05
	c-0.1,0.37-0.15,0.71-0.17,1.02c-0.02,0.31,0.01,0.56,0.09,0.76C110.53,80.02,110.68,80.12,110.9,80.12L110.9,80.12z M143.17,74.97
	c-0.11,0.06-0.24,0.18-0.38,0.36c-0.14,0.18-0.29,0.4-0.43,0.66c-0.14,0.26-0.28,0.54-0.39,0.85c-0.12,0.31-0.21,0.62-0.27,0.93
	c0.2-0.03,0.41-0.11,0.62-0.25c0.21-0.14,0.4-0.32,0.58-0.53c0.17-0.21,0.32-0.45,0.44-0.72c0.12-0.27,0.19-0.54,0.21-0.82
	c0.01-0.14,0-0.25-0.03-0.31c-0.03-0.07-0.07-0.11-0.11-0.14c-0.05-0.03-0.09-0.04-0.13-0.04
	C143.25,74.94,143.21,74.95,143.17,74.97L143.17,74.97z M156.34,72.61c-0.11,0.1-0.25,0.14-0.42,0.13c-0.17-0.01-0.34-0.05-0.5-0.14
	c-0.16-0.09-0.29-0.22-0.39-0.39c-0.1-0.17-0.12-0.37-0.06-0.6c0.04-0.12,0.08-0.26,0.12-0.42c0.04-0.16,0.09-0.32,0.14-0.49
	c0.06-0.16,0.11-0.32,0.17-0.46c0.06-0.15,0.12-0.26,0.18-0.34c0.07-0.07,0.14-0.13,0.21-0.16c0.08-0.04,0.16-0.06,0.27-0.07
	c0.18-0.01,0.37,0.02,0.58,0.09c0.2,0.07,0.39,0.17,0.55,0.3c0.16,0.13,0.28,0.27,0.36,0.43c0.08,0.16,0.08,0.32,0.01,0.46
	L156.34,72.61L156.34,72.61z"/>
<path class="st8" d="M66.04,52.16c2.16,32.62,36.55,32.9,47.25,46.44c2.66,3.37,4.26,8,5.42,13.11c0.28-34.7-43.52-18.36-46.51-59.7
	L66.04,52.16L66.04,52.16z M161.2,155.86c5.73-2.22,10.51-5.63,13.99-11.57c2.98-5.11,4.09-14.7,4.99-20.64
	c1.17-7.69,2.68-17.32,7.39-23.57c0.65-0.86,1.36-1.68,2.13-2.43c4.18-4.14,9.73-6.46,14.93-8.83c5.29-2.42,10.31-4.93,14.54-9.15
	c7.04-7.03,11.25-16.15,11.86-26.16h-5.08c-2.08,16.52-10.54,26.07-25.21,32.42c-18.35,7.94-22.21,17.19-25.26,38.34
	c-0.9,6.27-1.3,15.81-4.77,21.87C168.37,150.22,164.91,153.48,161.2,155.86L161.2,155.86z"/>
<path class="st0" d="M161.38,131.31c0.19-0.14,0.39-0.25,0.59-0.32c0.2-0.07,0.4-0.1,0.59-0.1c0.29,0,0.55,0.06,0.78,0.19
	c0.23,0.13,0.4,0.33,0.51,0.6c0.04-0.08,0.06-0.14,0.08-0.18c0.02-0.04,0.06-0.1,0.12-0.2c0.08-0.16,0.24-0.23,0.48-0.22
	c0.23,0.01,0.46,0.06,0.68,0.15c0.22,0.1,0.41,0.22,0.57,0.37c0.16,0.15,0.2,0.3,0.13,0.44c-0.23,0.5-0.44,1.01-0.64,1.5
	c-0.2,0.5-0.37,0.96-0.53,1.39c-0.15,0.43-0.26,0.82-0.33,1.15c-0.07,0.34-0.1,0.59-0.07,0.78c0.03,0.09,0.06,0.15,0.12,0.15
	c0.05,0.01,0.11-0.01,0.18-0.05c0.07-0.04,0.13-0.1,0.19-0.16c0.06-0.07,0.11-0.12,0.14-0.15c0.24-0.26,0.5-0.62,0.78-1.05
	c0.28-0.44,0.54-0.89,0.8-1.36c0.26-0.47,0.49-0.91,0.7-1.34c0.21-0.43,0.38-0.76,0.5-1c0.03-0.06,0.08-0.09,0.15-0.09
	c0.08,0,0.15,0.02,0.22,0.04c0.07,0.03,0.14,0.07,0.19,0.13c0.06,0.05,0.07,0.11,0.05,0.17c-0.07,0.11-0.18,0.34-0.33,0.69
	c-0.15,0.35-0.33,0.76-0.54,1.22c-0.21,0.46-0.44,0.95-0.7,1.45c-0.25,0.5-0.52,0.97-0.8,1.4c-0.29,0.43-0.57,0.78-0.87,1.05
	c-0.29,0.28-0.58,0.41-0.87,0.41c-0.31,0-0.58-0.11-0.82-0.32c-0.23-0.22-0.39-0.5-0.46-0.86c-0.07,0.13-0.16,0.27-0.27,0.41
	c-0.11,0.14-0.22,0.26-0.36,0.38c-0.13,0.11-0.28,0.21-0.44,0.29c-0.16,0.08-0.34,0.12-0.53,0.13c-0.52,0-0.95-0.18-1.29-0.53
	c-0.21-0.21-0.36-0.49-0.44-0.83c-0.25,0.37-0.51,0.69-0.78,0.94c-0.3,0.28-0.61,0.42-0.92,0.42c-0.21,0-0.42-0.03-0.62-0.09
	c-0.19-0.06-0.37-0.16-0.52-0.3c-0.15-0.14-0.27-0.32-0.37-0.56c-0.1-0.23-0.15-0.53-0.16-0.87c0-0.07,0-0.14,0-0.22
	c-0.14,0.22-0.28,0.42-0.42,0.62c-0.31,0.41-0.63,0.75-0.98,1.02c-0.35,0.27-0.7,0.4-1.06,0.4c-0.3,0-0.55-0.05-0.76-0.14
	c-0.2-0.1-0.37-0.23-0.5-0.4c-0.13-0.17-0.21-0.37-0.27-0.6c-0.04-0.18-0.07-0.38-0.08-0.59l-0.11,0.18
	c-0.28,0.43-0.56,0.79-0.85,1.08c-0.29,0.3-0.57,0.45-0.84,0.48c-0.48,0.05-0.85-0.08-1.12-0.4c-0.26-0.31-0.4-0.73-0.41-1.24
	c-0.11,0.2-0.23,0.4-0.36,0.59c-0.13,0.19-0.28,0.36-0.43,0.51c-0.15,0.15-0.32,0.27-0.5,0.37c-0.17,0.1-0.34,0.14-0.51,0.14
	c-0.15,0-0.3-0.02-0.47-0.07c-0.17-0.05-0.33-0.14-0.49-0.27c-0.16-0.13-0.29-0.32-0.4-0.58c-0.11-0.25-0.17-0.59-0.18-1.01
	c0-0.07,0-0.13,0-0.2c-0.08,0.1-0.16,0.2-0.25,0.3c-0.25,0.29-0.48,0.52-0.69,0.69c0.05,0.3,0.08,0.58,0.09,0.86
	c0.02,0.27,0.02,0.52,0.02,0.76c0,1.12-0.14,2.01-0.42,2.67c-0.28,0.67-0.71,1.01-1.29,1.02c-0.36,0.01-0.65-0.1-0.88-0.33
	c-0.23-0.23-0.4-0.55-0.51-0.96c-0.12-0.41-0.17-0.89-0.17-1.44c0-0.55,0.05-1.15,0.14-1.78c-0.11,0.08-0.23,0.16-0.38,0.23
	c-0.14,0.07-0.31,0.1-0.49,0.12c-0.59,0-1.04-0.21-1.35-0.62c-0.28-0.37-0.43-0.83-0.47-1.38c-0.21,0.26-0.43,0.5-0.66,0.73
	c-0.38,0.38-0.77,0.69-1.17,0.93c-0.4,0.24-0.81,0.37-1.22,0.38c-0.32,0-0.62-0.07-0.88-0.21c-0.27-0.14-0.5-0.33-0.7-0.58
	c-0.19-0.24-0.34-0.52-0.45-0.84l-0.05,0.07c-0.28,0.43-0.55,0.79-0.83,1.07c-0.28,0.28-0.55,0.43-0.81,0.44
	c-0.51,0.02-0.9-0.11-1.19-0.4c-0.29-0.29-0.46-0.7-0.52-1.24c-0.06-0.52-0.03-1.16,0.1-1.92c0.12-0.76,0.29-1.58,0.5-2.44
	l-0.27-0.02c-0.2-0.01-0.35-0.04-0.42-0.1c-0.08-0.05-0.12-0.12-0.12-0.21c0-0.13,0.04-0.27,0.12-0.41c0.08-0.14,0.2-0.2,0.37-0.18
	c0.1,0.01,0.19,0.02,0.28,0.03c0.09,0.01,0.18,0.01,0.28,0.01c0.18-0.66,0.38-1.31,0.59-1.95c0.21-0.64,0.41-1.22,0.61-1.75
	c0.2-0.53,0.38-0.98,0.55-1.36c0.17-0.38,0.3-0.64,0.4-0.78c0.1-0.16,0.26-0.23,0.49-0.23c0.19,0,0.39,0.04,0.6,0.11
	c0.21,0.07,0.39,0.16,0.55,0.28c0.15,0.11,0.26,0.25,0.32,0.41c0.06,0.16,0.04,0.32-0.07,0.49c-0.07,0.1-0.18,0.3-0.32,0.6
	c-0.14,0.31-0.3,0.68-0.48,1.11c-0.18,0.43-0.37,0.92-0.58,1.45c-0.2,0.54-0.4,1.08-0.59,1.65h0.5c0.08,0,0.12,0.04,0.15,0.13
	c0.02,0.09,0.03,0.19,0.01,0.3c-0.02,0.11-0.06,0.21-0.13,0.31c-0.07,0.1-0.15,0.15-0.26,0.16c-0.1,0.01-0.19,0.02-0.29,0.03
	c-0.1,0-0.19,0.01-0.31,0.03c-0.17,0.49-0.32,0.97-0.45,1.43c-0.13,0.46-0.24,0.89-0.33,1.29c-0.09,0.4-0.15,0.74-0.19,1.04
	c-0.04,0.3-0.03,0.53,0.02,0.68c0.02,0.07,0.07,0.11,0.14,0.13c0.07,0.01,0.14,0,0.19-0.04c0.13-0.08,0.29-0.24,0.47-0.46
	c0.18-0.22,0.37-0.48,0.58-0.78c0.07-0.11,0.15-0.22,0.22-0.34c0.02-0.43,0.1-0.89,0.22-1.37c0.15-0.57,0.37-1.09,0.66-1.57
	c0.29-0.48,0.64-0.87,1.05-1.19c0.41-0.32,0.89-0.48,1.44-0.48c0.21,0,0.43,0.04,0.65,0.12c0.22,0.08,0.42,0.2,0.59,0.35
	c0.17,0.16,0.31,0.36,0.42,0.6c0.11,0.25,0.17,0.54,0.17,0.87c-0.03,0.64-0.16,1.16-0.4,1.59c-0.25,0.42-0.55,0.76-0.91,1.01
	c-0.36,0.25-0.74,0.43-1.14,0.53c-0.4,0.1-0.77,0.15-1.11,0.15c-0.03,0.16-0.02,0.32,0.03,0.48c0.05,0.16,0.11,0.31,0.2,0.43
	c0.09,0.13,0.2,0.23,0.34,0.31c0.14,0.08,0.3,0.12,0.48,0.12c0.31,0,0.66-0.14,1.06-0.43c0.39-0.29,0.8-0.68,1.21-1.18
	c0.13-0.15,0.25-0.3,0.37-0.47c0.03-0.15,0.06-0.3,0.1-0.46c0.13-0.5,0.29-1,0.5-1.49c0.2-0.49,0.43-0.92,0.67-1.32
	c0.24-0.39,0.48-0.67,0.72-0.84c0.19-0.13,0.39-0.23,0.6-0.29c0.2-0.06,0.41-0.09,0.61-0.09c0.29,0,0.55,0.05,0.78,0.16
	c0.23,0.11,0.4,0.3,0.52,0.56c0.04-0.1,0.07-0.2,0.1-0.31c0.03-0.11,0.09-0.19,0.19-0.22c0.12-0.05,0.3-0.04,0.52,0.02
	c0.23,0.06,0.44,0.16,0.63,0.31c0.19,0.14,0.33,0.33,0.42,0.55c0.09,0.22,0.07,0.48-0.08,0.77c-0.4,0.78-0.7,1.46-0.91,2.05
	c-0.21,0.59-0.36,1.06-0.44,1.42c0.27-0.08,0.53-0.23,0.78-0.43c0.26-0.2,0.53-0.47,0.8-0.81c0.09-0.11,0.18-0.22,0.28-0.35
	c0.08-0.37,0.17-0.73,0.28-1.08c0.15-0.51,0.31-0.98,0.48-1.4c0.17-0.42,0.32-0.73,0.45-0.93c0.17-0.21,0.39-0.31,0.65-0.31
	c0.18,0,0.36,0.03,0.54,0.08c0.18,0.05,0.33,0.13,0.46,0.23c0.13,0.09,0.21,0.22,0.25,0.37c0.04,0.15,0,0.32-0.11,0.51
	c-0.11,0.2-0.25,0.49-0.41,0.86c-0.16,0.37-0.32,0.76-0.48,1.2c-0.16,0.43-0.3,0.86-0.43,1.3c-0.13,0.43-0.21,0.82-0.25,1.15
	c-0.05,0.31,0,0.5,0.13,0.56c0.14,0.06,0.31-0.09,0.52-0.45c0.15-0.26,0.32-0.61,0.5-1.03c0.17-0.42,0.35-0.86,0.52-1.31
	c0.17-0.45,0.34-0.89,0.51-1.32c0.16-0.43,0.3-0.8,0.4-1.1c0.06-0.18,0.11-0.34,0.16-0.47c0.05-0.13,0.09-0.22,0.12-0.27
	c0.13-0.21,0.34-0.31,0.61-0.31c0.18,0,0.36,0.02,0.55,0.06c0.18,0.04,0.34,0.1,0.48,0.19c0.13,0.09,0.22,0.19,0.27,0.33
	c0.05,0.13,0.03,0.29-0.07,0.49c-0.11,0.19-0.24,0.45-0.39,0.78c-0.15,0.33-0.3,0.69-0.46,1.08c-0.15,0.39-0.29,0.79-0.41,1.19
	c-0.12,0.4-0.2,0.78-0.25,1.13c0,0.04-0.01,0.1-0.02,0.21c-0.01,0.1-0.02,0.21-0.02,0.32c0,0.11,0.02,0.2,0.05,0.29
	c0.03,0.08,0.08,0.13,0.15,0.14c0.12,0,0.29-0.09,0.51-0.27c0.21-0.18,0.47-0.48,0.76-0.88c0.18-0.26,0.38-0.57,0.59-0.93
	c0.08-0.4,0.17-0.8,0.28-1.2c0.13-0.47,0.27-0.92,0.42-1.34c0.15-0.42,0.3-0.76,0.44-1.01c0.11-0.21,0.3-0.32,0.58-0.35
	c0.28-0.03,0.54,0.01,0.79,0.12c0.25,0.11,0.45,0.27,0.59,0.48c0.14,0.21,0.14,0.45,0,0.71c-0.11,0.22-0.25,0.48-0.4,0.8
	c-0.16,0.32-0.32,0.66-0.48,1.03c-0.15,0.37-0.29,0.74-0.4,1.13c-0.11,0.39-0.19,0.74-0.22,1.06c0,0.06,0,0.13,0,0.21
	s0.01,0.16,0.03,0.23c0.02,0.08,0.05,0.15,0.08,0.21c0.04,0.06,0.09,0.1,0.16,0.11c0.14,0,0.32-0.09,0.52-0.26
	c0.2-0.17,0.42-0.41,0.64-0.7c0.22-0.29,0.45-0.63,0.68-1.01c0.14-0.23,0.28-0.46,0.41-0.69c0.1-0.54,0.21-1.11,0.36-1.7
	c0.18-0.75,0.38-1.51,0.61-2.27c0.22-0.76,0.45-1.47,0.68-2.12c0.22-0.65,0.44-1.21,0.63-1.68c0.19-0.47,0.35-0.8,0.47-0.98
	c0.1-0.15,0.26-0.23,0.5-0.23c0.19,0,0.39,0.04,0.61,0.11c0.21,0.07,0.39,0.16,0.55,0.28c0.16,0.11,0.27,0.25,0.33,0.4
	c0.06,0.16,0.04,0.32-0.08,0.49c-0.09,0.13-0.25,0.44-0.45,0.93c-0.21,0.49-0.45,1.07-0.72,1.75c-0.26,0.68-0.53,1.4-0.81,2.18
	c-0.28,0.77-0.52,1.52-0.73,2.23c-0.21,0.71-0.37,1.36-0.48,1.92c-0.11,0.56-0.13,0.97-0.06,1.21c0.03,0.07,0.07,0.11,0.13,0.13
	c0.07,0.01,0.13,0,0.19-0.03c0.19-0.12,0.42-0.34,0.68-0.67c0.24-0.29,0.48-0.63,0.73-1.02c0.02-0.16,0.05-0.32,0.09-0.48
	c0.11-0.5,0.25-0.99,0.42-1.46c0.17-0.47,0.37-0.89,0.58-1.27C160.93,131.77,161.15,131.49,161.38,131.31L161.38,131.31z
	 M136.84,132.52c-0.11,0.06-0.23,0.18-0.38,0.36c-0.14,0.18-0.29,0.4-0.43,0.66c-0.15,0.26-0.28,0.54-0.4,0.85
	c-0.12,0.31-0.21,0.62-0.27,0.93c0.2-0.02,0.41-0.11,0.62-0.25c0.21-0.14,0.4-0.32,0.58-0.53c0.17-0.21,0.32-0.45,0.44-0.72
	c0.12-0.27,0.19-0.54,0.21-0.82c0.02-0.14,0.01-0.25-0.03-0.31c-0.03-0.07-0.07-0.12-0.11-0.14c-0.04-0.03-0.09-0.04-0.13-0.04
	C136.92,132.49,136.88,132.5,136.84,132.52L136.84,132.52z M142.84,132.34c-0.05-0.17-0.11-0.25-0.2-0.25
	c-0.13,0-0.28,0.1-0.45,0.31c-0.17,0.2-0.34,0.46-0.5,0.77c-0.17,0.31-0.34,0.66-0.5,1.04c-0.16,0.38-0.31,0.76-0.42,1.14
	c-0.12,0.37-0.21,0.71-0.27,1.01c-0.06,0.3-0.07,0.53-0.04,0.68c0.05,0.27,0.14,0.41,0.27,0.41c0.14,0,0.31-0.11,0.5-0.32
	c0.19-0.22,0.39-0.49,0.58-0.81c0.07-0.13,0.17-0.36,0.3-0.68c0.13-0.32,0.25-0.66,0.36-1.03c0.11-0.37,0.21-0.73,0.3-1.08
	c0.09-0.35,0.13-0.63,0.13-0.84C142.9,132.56,142.88,132.44,142.84,132.34L142.84,132.34z M143.13,141.36c0.13,0,0.25-0.13,0.34-0.4
	c0.09-0.27,0.16-0.6,0.19-1c0.04-0.4,0.05-0.81,0.03-1.25c-0.02-0.44-0.08-0.82-0.19-1.14c-0.14,0.53-0.26,1.05-0.33,1.58
	c-0.07,0.52-0.12,0.94-0.14,1.25c-0.01,0.24-0.01,0.46,0.01,0.67C143.07,141.26,143.1,141.36,143.13,141.36L143.13,141.36z
	 M155.89,130.16c-0.11,0.1-0.25,0.14-0.42,0.14c-0.17-0.01-0.34-0.05-0.51-0.14c-0.16-0.09-0.29-0.22-0.39-0.39
	c-0.09-0.17-0.11-0.37-0.05-0.59c0.04-0.12,0.07-0.26,0.12-0.42c0.04-0.16,0.09-0.32,0.14-0.49c0.05-0.16,0.11-0.32,0.17-0.46
	c0.06-0.14,0.12-0.26,0.18-0.34c0.08-0.07,0.15-0.13,0.22-0.16c0.07-0.04,0.16-0.06,0.27-0.07c0.18-0.01,0.37,0.02,0.57,0.09
	c0.2,0.07,0.39,0.17,0.55,0.3c0.16,0.13,0.28,0.27,0.36,0.43c0.08,0.16,0.08,0.32,0.01,0.46L155.89,130.16L155.89,130.16z
	 M163.3,132.96c0-0.03,0-0.09-0.01-0.17c0-0.08-0.02-0.15-0.04-0.22c-0.02-0.07-0.04-0.14-0.07-0.2c-0.03-0.06-0.07-0.09-0.12-0.09
	c-0.14,0-0.3,0.11-0.48,0.33c-0.17,0.22-0.34,0.5-0.51,0.84c-0.16,0.34-0.32,0.71-0.46,1.12c-0.14,0.41-0.26,0.79-0.34,1.15
	c-0.03,0.11-0.05,0.26-0.09,0.45c-0.04,0.19-0.06,0.38-0.07,0.57c0,0.19,0.01,0.35,0.05,0.49c0.04,0.14,0.11,0.21,0.24,0.21
	c0.15,0,0.31-0.09,0.47-0.26c0.15-0.17,0.3-0.4,0.44-0.68c0.14-0.28,0.27-0.58,0.39-0.92c0.12-0.34,0.22-0.67,0.31-1
	c0.09-0.33,0.16-0.64,0.21-0.93C163.28,133.36,163.3,133.13,163.3,132.96L163.3,132.96z"/>
<path class="st9" d="M134.01,166.66c9.79,25.79,13.94,91.66,3.46,106.13c-12.53,17.32-26.69,17.84-34.16,19.01
	c-6.12,0.79-5.56,4.4-5.59,6.64c38.27,0.05,66.06,0.05,104.33,0c0.05-3.14-0.7-6.19-5.08-6.75c-5.86-0.75-22.04-1.57-34.57-18.89
	c-10.47-14.47-6.25-80.65,3.55-106.44c2.63-8.8,8.18-6.42,14.74-17.01c6.72-10.85,4.59-34.12,12.97-44.73
	c7.3-9.24,22.28-9.82,33.39-20.42c10.3-9.83,14.26-22.04,13.94-33.39c-61.14,0-122.28,0-183.42,0C57.24,62.14,61.2,74.35,71.5,84.19
	c11.11,10.6,26.09,11.18,33.39,20.42c8.38,10.62,6.25,33.88,12.97,44.73C123.75,158.86,131.49,160.42,134.01,166.66L134.01,166.66z
	 M159.28,174.93c-3.57,14.71-5.49,32.3-6.04,39.56c-1.07,14.11-2.52,48.79,6.01,60.58c5.49,7.59,12.51,13.57,21.29,16.97
	c5.2,2.01,10.01,2.76,15.44,3.14c-30.69,0.04-62.06,0.11-92.75,0.07c4.62-0.32,11.83-1.56,16.11-3.21
	c8.78-3.39,15.8-9.38,21.29-16.97c8.53-11.79,7.08-46.46,6.01-60.58c-0.55-7.31-2.25-25.17-6.05-39.89
	C137.04,163.45,162.43,163.65,159.28,174.93L159.28,174.93z M61.52,54.69c0.65,10.21,5.15,19.51,12.67,26.68
	c4.52,4.31,9.88,6.87,15.53,9.34c5.55,2.42,11.47,4.79,15.95,9.01c0.82,0.77,1.58,1.6,2.27,2.48c5.04,6.37,6.64,16.2,7.89,24.04
	c0.97,6.05,2.12,15.85,5.33,21.05c11.65,18.82,44.57,18.82,56.22,0c3.22-5.2,4.37-15,5.33-21.05c1.25-7.84,2.86-17.67,7.89-24.04
	c0.69-0.88,1.46-1.71,2.27-2.48c4.48-4.22,10.39-6.59,15.95-9.01c5.65-2.47,11.02-5.03,15.54-9.34
	c7.52-7.17,12.02-16.48,12.67-26.68C178.52,54.69,120.02,54.69,61.52,54.69L61.52,54.69z"/>
<path class="st7" d="M175.42,103.85c0.03-0.06,0.07-0.09,0.14-0.1c0.07-0.01,0.14,0,0.21,0.03c0.07,0.03,0.13,0.07,0.17,0.13
	c0.04,0.05,0.05,0.1,0.03,0.15c-0.13,0.28-0.31,0.62-0.53,1.04c-0.22,0.41-0.48,0.85-0.76,1.32c-0.28,0.46-0.59,0.92-0.92,1.39
	c-0.34,0.46-0.7,0.88-1.07,1.26c-0.38,0.38-0.77,0.69-1.17,0.93c-0.4,0.24-0.81,0.37-1.22,0.38c-0.33,0-0.62-0.07-0.88-0.21
	c-0.27-0.14-0.5-0.33-0.69-0.57c-0.19-0.25-0.35-0.54-0.46-0.86c-0.08-0.25-0.13-0.53-0.15-0.82c-0.33,0.46-0.67,0.86-1.03,1.22
	c-0.35,0.36-0.72,0.65-1.1,0.88c-0.38,0.23-0.75,0.34-1.12,0.34c-0.38,0-0.71-0.07-0.98-0.22c-0.27-0.15-0.5-0.35-0.67-0.6
	c-0.18-0.25-0.31-0.54-0.4-0.86c-0.01-0.04-0.02-0.09-0.03-0.14c-0.09,0.14-0.19,0.27-0.29,0.4c-0.31,0.41-0.63,0.75-0.98,1.02
	c-0.35,0.27-0.7,0.4-1.06,0.4c-0.3,0-0.55-0.05-0.76-0.14c-0.2-0.1-0.37-0.23-0.5-0.4c-0.12-0.17-0.21-0.37-0.27-0.6
	c-0.04-0.18-0.07-0.38-0.08-0.59l-0.11,0.18c-0.28,0.43-0.56,0.79-0.84,1.08c-0.29,0.29-0.57,0.45-0.85,0.48
	c-0.48,0.05-0.85-0.08-1.12-0.39c-0.26-0.31-0.4-0.73-0.41-1.24c-0.11,0.2-0.22,0.4-0.36,0.59c-0.13,0.19-0.28,0.36-0.43,0.51
	c-0.15,0.15-0.32,0.27-0.5,0.37c-0.17,0.1-0.34,0.14-0.51,0.14c-0.14,0-0.3-0.02-0.47-0.07c-0.17-0.05-0.33-0.14-0.49-0.27
	c-0.16-0.13-0.29-0.32-0.4-0.58c-0.05-0.11-0.09-0.25-0.11-0.39l-0.09,0.13c-0.32,0.43-0.65,0.81-1.01,1.14
	c-0.35,0.33-0.72,0.57-1.09,0.73c-0.08,0.25-0.19,0.57-0.32,0.96c-0.13,0.38-0.3,0.76-0.51,1.13c-0.2,0.37-0.45,0.68-0.76,0.95
	c-0.3,0.26-0.66,0.41-1.08,0.43c-0.4,0.02-0.74-0.11-1-0.41c-0.26-0.3-0.39-0.64-0.39-1.03c0-0.42,0.07-0.78,0.21-1.07
	c0.14-0.3,0.33-0.54,0.57-0.74c0.23-0.2,0.51-0.36,0.81-0.48c0.31-0.12,0.63-0.22,0.96-0.31c0.05-0.22,0.11-0.51,0.18-0.88
	c0.07-0.37,0.15-0.78,0.24-1.22c0.08-0.44,0.17-0.89,0.27-1.37c0.1-0.48,0.19-0.92,0.27-1.34c0.09-0.42,0.16-0.8,0.24-1.13
	c0.07-0.34,0.13-0.6,0.18-0.78c0.08-0.26,0.19-0.49,0.34-0.67c0.15-0.19,0.35-0.27,0.6-0.24c0.18,0.01,0.37,0.04,0.58,0.1
	c0.21,0.05,0.39,0.13,0.55,0.23c0.15,0.1,0.27,0.23,0.32,0.4c0.06,0.16,0.03,0.36-0.09,0.59c-0.14,0.29-0.31,0.68-0.49,1.17
	c-0.18,0.49-0.36,1.02-0.54,1.59c-0.18,0.56-0.35,1.13-0.52,1.68c-0.16,0.56-0.3,1.04-0.4,1.43c0.4-0.26,0.79-0.66,1.17-1.18
	c0.26-0.35,0.51-0.73,0.75-1.13c0.02-0.23,0.06-0.47,0.1-0.72c0.1-0.53,0.22-1.05,0.37-1.56c0.15-0.51,0.31-0.98,0.48-1.4
	c0.17-0.42,0.32-0.73,0.45-0.94c0.17-0.2,0.38-0.31,0.65-0.31c0.18,0,0.36,0.03,0.54,0.08c0.18,0.05,0.33,0.13,0.46,0.23
	c0.13,0.1,0.21,0.22,0.25,0.37c0.04,0.15,0,0.32-0.11,0.51c-0.11,0.2-0.25,0.49-0.41,0.86c-0.16,0.37-0.32,0.77-0.48,1.2
	c-0.16,0.43-0.3,0.86-0.43,1.3c-0.13,0.43-0.21,0.82-0.25,1.15c-0.05,0.31,0,0.5,0.13,0.56c0.14,0.06,0.31-0.09,0.52-0.45
	c0.15-0.26,0.32-0.61,0.5-1.03c0.17-0.42,0.35-0.86,0.52-1.31c0.17-0.45,0.34-0.89,0.51-1.32c0.16-0.43,0.3-0.8,0.4-1.1
	c0.06-0.18,0.11-0.34,0.16-0.47c0.05-0.13,0.09-0.22,0.13-0.27c0.13-0.2,0.33-0.31,0.61-0.31c0.18,0,0.36,0.02,0.55,0.06
	c0.18,0.04,0.34,0.11,0.48,0.19c0.13,0.09,0.22,0.19,0.27,0.32c0.05,0.13,0.03,0.3-0.07,0.49c-0.11,0.19-0.23,0.45-0.39,0.78
	c-0.15,0.33-0.3,0.69-0.46,1.08c-0.15,0.39-0.29,0.79-0.41,1.19c-0.12,0.4-0.2,0.78-0.25,1.13c0,0.04-0.01,0.11-0.02,0.21
	c-0.01,0.1-0.02,0.21-0.02,0.31c0,0.11,0.02,0.2,0.05,0.29c0.03,0.08,0.08,0.13,0.15,0.14c0.12,0,0.29-0.09,0.5-0.27
	c0.22-0.18,0.47-0.47,0.76-0.88c0.18-0.26,0.38-0.57,0.58-0.93c0.08-0.4,0.17-0.8,0.28-1.2c0.13-0.48,0.27-0.92,0.42-1.34
	c0.15-0.42,0.3-0.76,0.44-1.01c0.11-0.2,0.3-0.32,0.58-0.35c0.28-0.03,0.54,0.01,0.79,0.12c0.25,0.11,0.45,0.27,0.59,0.48
	c0.14,0.21,0.14,0.45,0,0.71c-0.11,0.22-0.24,0.48-0.4,0.8c-0.16,0.32-0.32,0.66-0.48,1.03c-0.15,0.37-0.29,0.74-0.4,1.13
	c-0.11,0.38-0.19,0.74-0.22,1.06c0,0.06,0,0.13,0,0.21c0,0.08,0.01,0.16,0.03,0.23c0.02,0.08,0.05,0.15,0.08,0.21
	c0.04,0.06,0.09,0.1,0.16,0.11c0.14,0,0.32-0.09,0.52-0.26c0.2-0.18,0.42-0.41,0.64-0.7c0.22-0.29,0.44-0.61,0.67-0.98
	c0.04-0.41,0.12-0.83,0.25-1.26c0.19-0.62,0.44-1.18,0.78-1.68c0.33-0.49,0.72-0.88,1.18-1.15c0.45-0.27,0.95-0.36,1.49-0.25
	c0.27,0.06,0.5,0.17,0.71,0.32c0.2,0.16,0.36,0.35,0.49,0.58c0.12,0.24,0.19,0.5,0.21,0.81c0.03,0.31-0.01,0.63-0.11,0.98
	c-0.1,0.31-0.27,0.5-0.51,0.57c-0.24,0.07-0.46,0.09-0.66,0.06c-0.44-0.06-0.63-0.21-0.56-0.45c0.05-0.16,0.1-0.33,0.15-0.51
	c0.05-0.19,0.08-0.35,0.09-0.49c0-0.14-0.02-0.23-0.07-0.28c-0.06-0.05-0.17-0.01-0.35,0.11c-0.19,0.13-0.38,0.35-0.56,0.65
	c-0.18,0.3-0.34,0.64-0.48,1.01c-0.14,0.37-0.25,0.75-0.34,1.14c-0.08,0.39-0.12,0.73-0.12,1.03c0,0.37,0.05,0.65,0.16,0.82
	c0.11,0.17,0.25,0.27,0.42,0.3c0.17,0.02,0.38-0.01,0.6-0.11c0.23-0.09,0.46-0.23,0.7-0.41c0.34-0.25,0.66-0.57,0.99-0.96
	c0.32-0.39,0.64-0.81,0.95-1.26l0.07-0.11c0.04-0.18,0.08-0.37,0.13-0.56c0.15-0.57,0.37-1.09,0.65-1.57
	c0.29-0.47,0.64-0.87,1.06-1.19c0.41-0.32,0.89-0.48,1.43-0.48c0.21,0,0.43,0.04,0.66,0.12c0.22,0.08,0.41,0.2,0.58,0.35
	c0.17,0.16,0.31,0.36,0.42,0.6c0.11,0.25,0.17,0.54,0.17,0.87c-0.02,0.64-0.16,1.16-0.4,1.58c-0.25,0.42-0.55,0.76-0.91,1.01
	c-0.36,0.25-0.74,0.43-1.14,0.53c-0.4,0.1-0.77,0.15-1.11,0.15c-0.02,0.16-0.02,0.32,0.03,0.48c0.04,0.16,0.11,0.31,0.2,0.43
	c0.09,0.13,0.2,0.23,0.34,0.31c0.14,0.08,0.3,0.12,0.48,0.12c0.31,0,0.66-0.14,1.06-0.43c0.39-0.29,0.8-0.68,1.22-1.18
	c0.41-0.5,0.82-1.08,1.23-1.75C174.71,105.32,175.08,104.61,175.42,103.85L175.42,103.85z M125.53,97.64
	c0.09-0.16,0.26-0.23,0.5-0.23c0.19,0,0.39,0.04,0.6,0.11c0.21,0.07,0.39,0.17,0.55,0.28c0.15,0.11,0.27,0.25,0.32,0.4
	c0.06,0.16,0.04,0.32-0.07,0.49c-0.1,0.13-0.25,0.44-0.46,0.93c-0.21,0.49-0.44,1.07-0.71,1.75c-0.26,0.68-0.53,1.41-0.81,2.18
	c-0.28,0.78-0.52,1.52-0.73,2.23c-0.21,0.71-0.37,1.35-0.48,1.92c-0.11,0.56-0.12,0.97-0.05,1.21c0.02,0.07,0.07,0.11,0.13,0.13
	c0.07,0.01,0.13,0,0.19-0.04c0.19-0.12,0.42-0.34,0.68-0.67c0.27-0.32,0.54-0.71,0.82-1.17l0.11-0.18c0.08-0.44,0.18-0.86,0.3-1.29
	c0.13-0.48,0.27-0.92,0.42-1.34c0.15-0.42,0.3-0.76,0.44-1.01c0.11-0.2,0.3-0.32,0.58-0.35c0.28-0.03,0.54,0.01,0.79,0.12
	c0.25,0.11,0.45,0.27,0.59,0.48c0.15,0.21,0.15,0.45,0,0.71c-0.11,0.22-0.24,0.48-0.4,0.8c-0.16,0.32-0.32,0.66-0.48,1.03
	c-0.16,0.37-0.29,0.74-0.41,1.13c-0.11,0.38-0.19,0.74-0.22,1.06c0,0.06,0,0.13,0,0.21c0,0.08,0.01,0.16,0.03,0.23
	c0.02,0.08,0.05,0.15,0.08,0.21c0.04,0.06,0.09,0.1,0.16,0.11c0.14,0,0.32-0.09,0.52-0.26c0.2-0.18,0.42-0.41,0.64-0.7
	c0.22-0.29,0.45-0.63,0.68-1.01c0.24-0.38,0.45-0.76,0.65-1.14c0.1-0.18,0.18-0.36,0.27-0.54c0.06-0.19,0.11-0.38,0.17-0.58
	c0.18-0.59,0.36-1.15,0.54-1.68c0.05-0.17,0.19-0.28,0.43-0.32c0.24-0.05,0.48-0.05,0.72,0c0.24,0.05,0.44,0.14,0.6,0.26
	c0.16,0.13,0.2,0.28,0.12,0.46c-0.1,0.25-0.2,0.5-0.32,0.76c-0.11,0.25-0.21,0.5-0.3,0.74c0.09-0.14,0.19-0.31,0.33-0.49
	c0.13-0.18,0.28-0.36,0.43-0.54c0.16-0.18,0.32-0.36,0.49-0.53c0.16-0.17,0.34-0.32,0.52-0.44c0.2-0.12,0.41-0.17,0.61-0.16
	c0.2,0.01,0.38,0.07,0.53,0.18c0.15,0.11,0.27,0.26,0.36,0.46c0.09,0.2,0.13,0.42,0.12,0.66c0.17-0.2,0.35-0.41,0.56-0.6
	c0.2-0.2,0.41-0.36,0.61-0.5c0.23-0.14,0.47-0.21,0.72-0.19c0.26,0.02,0.46,0.12,0.64,0.3c0.18,0.18,0.29,0.44,0.34,0.79
	c0.05,0.35-0.02,0.78-0.2,1.3c-0.04,0.12-0.07,0.22-0.1,0.3c-0.03,0.08-0.06,0.15-0.09,0.22c-0.03,0.07-0.06,0.15-0.08,0.22
	c-0.03,0.08-0.06,0.17-0.09,0.28c-0.17,0.5-0.31,0.98-0.43,1.42c-0.12,0.44-0.18,0.8-0.18,1.08c0,0.04,0.01,0.08,0.03,0.14
	c0.02,0.05,0.06,0.08,0.13,0.08c0.1,0,0.26-0.11,0.49-0.32c0.22-0.2,0.47-0.5,0.76-0.89c0-0.06,0-0.11,0-0.17
	c0-0.5,0.08-1.04,0.23-1.61c0.15-0.57,0.37-1.09,0.65-1.57c0.29-0.47,0.64-0.87,1.05-1.19c0.41-0.32,0.89-0.48,1.44-0.48
	c0.21,0,0.43,0.04,0.65,0.12c0.22,0.08,0.42,0.2,0.59,0.35c0.17,0.16,0.31,0.36,0.42,0.6c0.11,0.25,0.17,0.54,0.17,0.87
	c-0.03,0.64-0.16,1.16-0.4,1.58c-0.25,0.42-0.55,0.76-0.91,1.01c-0.36,0.25-0.74,0.43-1.14,0.53c-0.4,0.1-0.77,0.15-1.11,0.15
	c-0.02,0.16-0.02,0.32,0.03,0.48c0.04,0.16,0.11,0.31,0.19,0.43c0.09,0.13,0.2,0.23,0.34,0.31c0.14,0.08,0.3,0.12,0.48,0.12
	c0.31,0,0.66-0.14,1.06-0.43c0.39-0.29,0.8-0.68,1.22-1.18c0.41-0.5,0.82-1.08,1.23-1.75c0.41-0.67,0.78-1.38,1.12-2.13
	c0.02-0.06,0.07-0.09,0.14-0.1c0.07-0.01,0.14,0,0.21,0.03c0.07,0.03,0.13,0.07,0.17,0.13c0.04,0.05,0.05,0.1,0.03,0.15
	c-0.13,0.28-0.31,0.62-0.53,1.04c-0.22,0.41-0.48,0.85-0.76,1.32c-0.28,0.46-0.59,0.92-0.93,1.39c-0.33,0.46-0.69,0.88-1.07,1.26
	c-0.38,0.38-0.77,0.69-1.18,0.93c-0.4,0.24-0.81,0.37-1.21,0.38c-0.33,0-0.62-0.07-0.88-0.21c-0.27-0.14-0.5-0.33-0.69-0.57
	c-0.16-0.21-0.3-0.44-0.4-0.71c-0.27,0.37-0.55,0.69-0.84,0.95c-0.32,0.29-0.63,0.46-0.95,0.5c-0.3,0.02-0.55,0-0.75-0.07
	c-0.19-0.07-0.35-0.19-0.48-0.34c-0.12-0.16-0.2-0.34-0.26-0.56c-0.06-0.22-0.08-0.45-0.08-0.7c0-0.38,0.06-0.81,0.17-1.28
	c0.12-0.47,0.22-0.93,0.32-1.39c0.07-0.32,0.09-0.55,0.06-0.67c-0.03-0.12-0.09-0.17-0.18-0.14c-0.09,0.02-0.2,0.12-0.32,0.28
	c-0.13,0.16-0.25,0.36-0.37,0.6c-0.11,0.24-0.22,0.53-0.33,0.87c-0.11,0.34-0.2,0.69-0.28,1.05c-0.08,0.36-0.14,0.7-0.19,1.03
	c-0.05,0.32-0.07,0.58-0.06,0.76c0.01,0.2-0.09,0.36-0.3,0.46c-0.21,0.1-0.44,0.14-0.7,0.1c-0.26-0.04-0.49-0.15-0.68-0.34
	c-0.2-0.19-0.27-0.47-0.22-0.85c0.06-0.36,0.15-0.76,0.26-1.21c0.12-0.44,0.24-0.89,0.37-1.35c0.09-0.32,0.17-0.62,0.24-0.9
	c0.07-0.28,0.05-0.44-0.05-0.5c-0.06-0.06-0.18-0.02-0.36,0.11c-0.18,0.13-0.37,0.39-0.56,0.77c-0.11,0.24-0.23,0.51-0.36,0.81
	c-0.13,0.3-0.26,0.61-0.37,0.93c-0.12,0.32-0.22,0.63-0.32,0.93c-0.1,0.3-0.17,0.56-0.21,0.79c-0.06,0.23-0.17,0.43-0.33,0.61
	c-0.16,0.18-0.39,0.25-0.69,0.2c-0.11-0.01-0.2-0.05-0.28-0.13c-0.08-0.07-0.14-0.16-0.2-0.25c-0.05-0.1-0.09-0.2-0.11-0.31
	c-0.03-0.11-0.04-0.21-0.04-0.31c0-0.32,0.04-0.7,0.11-1.15c-0.16,0.26-0.32,0.51-0.5,0.74c-0.31,0.41-0.63,0.75-0.99,1.02
	c-0.35,0.27-0.7,0.4-1.06,0.4c-0.3,0-0.55-0.05-0.76-0.14c-0.2-0.1-0.37-0.23-0.5-0.4c-0.12-0.17-0.21-0.37-0.27-0.6
	c-0.03-0.1-0.05-0.21-0.06-0.32c-0.28,0.42-0.56,0.77-0.85,1.05c-0.3,0.28-0.61,0.42-0.92,0.42c-0.21,0-0.42-0.03-0.62-0.09
	c-0.2-0.06-0.37-0.16-0.52-0.3c-0.15-0.14-0.28-0.32-0.37-0.56c-0.1-0.23-0.15-0.52-0.16-0.87c-0.01-0.47,0.04-1.04,0.14-1.71
	c0.11-0.67,0.25-1.38,0.43-2.13c0.18-0.75,0.38-1.51,0.61-2.27c0.22-0.76,0.45-1.47,0.68-2.12c0.22-0.65,0.43-1.21,0.63-1.68
	C125.25,98.15,125.41,97.82,125.53,97.64L125.53,97.64z M129.69,102.11c-0.11,0.1-0.25,0.14-0.42,0.14
	c-0.17-0.01-0.34-0.05-0.51-0.14c-0.16-0.09-0.29-0.22-0.38-0.39c-0.1-0.17-0.12-0.37-0.06-0.6c0.04-0.12,0.08-0.26,0.12-0.42
	c0.04-0.16,0.09-0.33,0.14-0.49c0.06-0.16,0.11-0.32,0.17-0.46c0.06-0.14,0.12-0.26,0.18-0.34c0.07-0.07,0.14-0.13,0.21-0.16
	c0.07-0.04,0.16-0.06,0.27-0.07c0.18-0.01,0.37,0.02,0.58,0.09c0.2,0.07,0.39,0.17,0.55,0.3c0.16,0.13,0.29,0.27,0.36,0.43
	c0.08,0.16,0.08,0.32,0.01,0.46L129.69,102.11L129.69,102.11z M142.45,104.46c-0.11,0.06-0.23,0.18-0.38,0.36
	c-0.14,0.18-0.29,0.4-0.43,0.66s-0.28,0.54-0.4,0.85c-0.12,0.31-0.21,0.62-0.27,0.93c0.2-0.02,0.41-0.11,0.62-0.25
	c0.21-0.14,0.4-0.32,0.58-0.53c0.17-0.21,0.32-0.45,0.44-0.72c0.12-0.27,0.19-0.54,0.21-0.82c0.02-0.14,0.01-0.25-0.03-0.31
	c-0.03-0.07-0.07-0.11-0.11-0.15c-0.04-0.03-0.08-0.04-0.13-0.04C142.53,104.44,142.49,104.45,142.45,104.46L142.45,104.46z
	 M148.22,111.67c-0.29,0.08-0.52,0.2-0.69,0.36c-0.17,0.16-0.3,0.31-0.37,0.47c-0.07,0.16-0.1,0.29-0.09,0.4
	c0.01,0.11,0.06,0.17,0.14,0.17c0.29-0.02,0.51-0.19,0.67-0.49C148.03,112.29,148.15,111.98,148.22,111.67L148.22,111.67z
	 M152.4,102.11c-0.11,0.1-0.25,0.14-0.42,0.14c-0.17-0.01-0.34-0.05-0.51-0.14c-0.16-0.09-0.29-0.22-0.39-0.39
	c-0.1-0.17-0.11-0.37-0.05-0.6c0.04-0.12,0.07-0.26,0.11-0.42c0.05-0.16,0.09-0.33,0.15-0.49c0.05-0.16,0.11-0.32,0.17-0.46
	c0.06-0.14,0.12-0.26,0.18-0.34c0.07-0.07,0.15-0.13,0.22-0.16c0.07-0.04,0.16-0.06,0.27-0.07c0.18-0.01,0.37,0.02,0.57,0.09
	c0.2,0.07,0.39,0.17,0.55,0.3c0.16,0.13,0.28,0.27,0.36,0.43c0.08,0.16,0.08,0.32,0.01,0.46L152.4,102.11L152.4,102.11z
	 M162.56,102.11c-0.11,0.1-0.25,0.14-0.42,0.14c-0.17-0.01-0.34-0.05-0.51-0.14c-0.16-0.09-0.29-0.22-0.39-0.39
	c-0.09-0.17-0.11-0.37-0.05-0.6c0.04-0.12,0.08-0.26,0.12-0.42c0.04-0.16,0.09-0.33,0.14-0.49c0.06-0.16,0.11-0.32,0.17-0.46
	c0.06-0.14,0.12-0.26,0.18-0.34c0.07-0.07,0.14-0.13,0.21-0.16c0.07-0.04,0.16-0.06,0.27-0.07c0.18-0.01,0.37,0.02,0.58,0.09
	c0.2,0.07,0.38,0.17,0.55,0.3c0.16,0.13,0.28,0.27,0.36,0.43c0.08,0.16,0.08,0.32,0.01,0.46L162.56,102.11L162.56,102.11z
	 M171.33,104.46c-0.11,0.06-0.24,0.18-0.38,0.36c-0.15,0.18-0.29,0.4-0.43,0.66c-0.14,0.26-0.28,0.54-0.4,0.85
	c-0.12,0.31-0.21,0.62-0.27,0.93c0.2-0.02,0.41-0.11,0.62-0.25c0.21-0.14,0.4-0.32,0.58-0.53c0.17-0.21,0.32-0.45,0.44-0.72
	c0.12-0.27,0.19-0.54,0.22-0.82c0.01-0.14,0-0.25-0.03-0.31c-0.03-0.07-0.07-0.11-0.11-0.15c-0.04-0.03-0.08-0.04-0.12-0.04
	C171.4,104.44,171.37,104.45,171.33,104.46L171.33,104.46z"/>
</svg>
