<?xml version="1.0" encoding="utf-8"?>
<!-- Generator: Adobe Illustrator 23.0.1, SVG Export Plug-In . SVG Version: 6.00 Build 0)  -->
<svg version="1.1" id="Mojito" xmlns="http://www.w3.org/2000/svg" xmlns:xlink="http://www.w3.org/1999/xlink" x="0px" y="0px"
	 viewBox="0 0 300 300" style="enable-background:new 0 0 300 300;" xml:space="preserve">
<style type="text/css">
	.st0{fill:#4E4236;}
	.st1{fill-rule:evenodd;clip-rule:evenodd;fill:#FFFFFF;}
	.st2{fill-rule:evenodd;clip-rule:evenodd;fill:#E9F1FA;}
	.st3{fill-rule:evenodd;clip-rule:evenodd;fill:#9ACA3C;}
	.st4{fill-rule:evenodd;clip-rule:evenodd;fill:#679A40;}
	.st5{fill-rule:evenodd;clip-rule:evenodd;fill:#E1E2E1;}
	.st6{fill-rule:evenodd;clip-rule:evenodd;fill:#C5CED8;}
	.st7{fill-rule:evenodd;clip-rule:evenodd;fill:#7BAF42;}
	.st8{fill-rule:evenodd;clip-rule:evenodd;fill:#4E813B;}
	.st9{fill:#FFFFFF;}
	.st10{fill-rule:evenodd;clip-rule:evenodd;fill:#4E4236;}
</style>
<path class="st0" d="M182.96,19.72c0.18,0.02,0.44-0.02,0.79-0.13c0.35-0.11,0.72-0.33,1.14-0.65c0.41-0.32,0.83-0.78,1.25-1.37
	c0.42-0.59,0.81-1.35,1.17-2.29c0.09-0.16,0.21-0.26,0.37-0.3c0.16-0.05,0.3-0.04,0.44,0.02c0.13,0.06,0.25,0.14,0.33,0.27
	c0.09,0.12,0.12,0.28,0.1,0.48c-0.2,0.69-0.52,1.41-0.95,2.14c-0.44,0.74-0.93,1.39-1.47,1.97c-0.55,0.58-1.14,1.05-1.77,1.42
	c-0.64,0.37-1.25,0.53-1.86,0.49c-0.45,1.67-1.12,3.04-2.02,4.11c-0.9,1.07-1.99,1.61-3.26,1.61c-0.49,0-1.01-0.12-1.57-0.37
	c-0.74-0.38-1.28-0.98-1.62-1.81c-0.15-0.35-0.26-0.72-0.35-1.1l-0.11,0.17c-0.51,0.8-1.03,1.47-1.54,1.99
	c-0.51,0.53-1.02,0.8-1.51,0.82c-0.94,0.04-1.67-0.2-2.21-0.74c-0.53-0.53-0.86-1.3-0.97-2.31c-0.06-0.51-0.07-1.09-0.03-1.74
	c-0.43,0.79-0.9,1.52-1.39,2.19c-0.57,0.76-1.18,1.39-1.82,1.89c-0.65,0.5-1.3,0.74-1.97,0.74c-0.56,0-1.03-0.09-1.41-0.26
	c-0.38-0.18-0.69-0.42-0.92-0.75c-0.23-0.32-0.4-0.69-0.5-1.12c-0.07-0.29-0.11-0.6-0.14-0.92c-0.19,0.28-0.37,0.55-0.57,0.81
	c-0.59,0.8-1.22,1.51-1.87,2.12c-0.66,0.61-1.33,1.06-2.02,1.36c-0.16,0.47-0.36,1.06-0.6,1.77c-0.24,0.71-0.56,1.41-0.94,2.09
	c-0.38,0.68-0.85,1.27-1.41,1.76c-0.56,0.49-1.23,0.76-2.01,0.8c-0.76,0.05-1.38-0.21-1.86-0.77c-0.48-0.56-0.72-1.19-0.72-1.91
	c0-0.78,0.13-1.44,0.4-1.99c0.27-0.55,0.62-1,1.05-1.37c0.44-0.37,0.94-0.66,1.51-0.89c0.57-0.22,1.16-0.41,1.79-0.57
	c0.09-0.4,0.2-0.95,0.33-1.64c0.13-0.69,0.28-1.44,0.44-2.26c0.16-0.81,0.32-1.66,0.5-2.54l0.2-1c-0.52,0.54-1.09,0.99-1.69,1.34
	c-0.64,0.37-1.26,0.53-1.86,0.49c-0.44,1.67-1.12,3.04-2.02,4.11c-0.9,1.07-1.99,1.61-3.26,1.61c-0.49,0-1.02-0.12-1.57-0.37
	c-0.74-0.38-1.28-0.98-1.62-1.81c-0.3-0.72-0.47-1.53-0.51-2.43c-0.52,0.64-1.04,1.24-1.58,1.79c-0.69,0.71-1.38,1.3-2.07,1.76
	c-0.69,0.46-1.34,0.71-1.94,0.75c-0.98,0.09-1.75-0.16-2.31-0.74c-0.56-0.58-0.79-1.44-0.7-2.58c0.02-0.76,0.13-1.58,0.32-2.46
	c0.19-0.88,0.42-1.79,0.69-2.74c0.27-0.95,0.57-1.92,0.9-2.91c0.34-0.99,0.67-1.98,1-2.96c0.42-1.07,0.65-1.88,0.69-2.44
	c0.03-0.56-0.08-0.79-0.35-0.69c-0.27,0.1-0.65,0.55-1.15,1.34c-0.5,0.79-1.08,1.99-1.72,3.6c-0.36,0.87-0.75,1.85-1.19,2.93
	c-0.43,1.08-0.84,2.15-1.22,3.21c-0.38,1.06-0.69,2.05-0.92,2.96c-0.23,0.91-0.33,1.63-0.28,2.14c0.02,0.31-0.07,0.54-0.28,0.67
	c-0.21,0.13-0.47,0.21-0.77,0.22c-0.3,0.01-0.6-0.01-0.89-0.07c-0.29-0.05-0.5-0.12-0.64-0.18c-0.25-0.09-0.49-0.25-0.74-0.47
	c-0.25-0.22-0.45-0.51-0.6-0.85c-0.16-0.35-0.25-0.77-0.28-1.27c-0.03-0.5,0.03-1.09,0.18-1.76c0.45-1.92,1.08-3.91,1.91-5.99
	c0.83-2.07,1.66-4.23,2.51-6.46c0.05-0.18,0.09-0.42,0.13-0.74c0.04-0.31,0.01-0.5-0.1-0.57c-0.22-0.16-0.56,0.03-1,0.57
	c-0.45,0.54-0.95,1.29-1.51,2.26c-0.56,0.97-1.15,2.1-1.77,3.38c-0.63,1.28-1.24,2.59-1.84,3.93c-0.53,1.11-1.07,2.17-1.59,3.16
	c-0.52,0.99-1.08,1.87-1.66,2.64c-0.58,0.77-1.2,1.4-1.87,1.89c-0.67,0.49-1.42,0.79-2.24,0.9c-0.45,0.07-0.9,0.08-1.37,0.03
	c-0.47-0.04-0.85-0.14-1.14-0.3c-0.58-0.33-0.98-0.69-1.21-1.05c-0.22-0.37-0.33-0.72-0.33-1.05c0-0.33,0.08-0.63,0.25-0.89
	c0.17-0.26,0.35-0.44,0.53-0.54c0.19-0.1,0.35-0.11,0.49-0.02c0.13,0.09,0.19,0.3,0.17,0.64c-0.05,0.45,0.05,0.8,0.28,1.05
	c0.23,0.26,0.55,0.37,0.95,0.35c0.47-0.02,0.97-0.4,1.51-1.12c0.54-0.72,1.07-1.65,1.59-2.78c0.52-1.13,1.03-2.38,1.51-3.75
	c0.48-1.37,0.91-2.7,1.29-4c0.38-1.29,0.7-2.47,0.95-3.53c0.26-1.06,0.42-1.85,0.49-2.36c0.13-1.2,0.03-2.01-0.32-2.42
	c-0.35-0.41-0.82-0.56-1.42-0.45c-0.71,0.13-1.43,0.5-2.16,1.09c-0.72,0.59-1.39,1.29-1.99,2.09c-0.6,0.8-1.09,1.64-1.47,2.51
	c-0.38,0.87-0.57,1.65-0.57,2.34c0.02,0.45-0.06,0.76-0.25,0.95c-0.19,0.19-0.51,0.23-0.95,0.12c-0.29-0.09-0.6-0.23-0.92-0.44
	c-0.32-0.2-0.6-0.46-0.84-0.79c-0.23-0.32-0.4-0.71-0.49-1.15c-0.09-0.45-0.04-0.96,0.13-1.54c0.33-1.07,0.92-2.07,1.76-3.01
	c0.84-0.94,1.8-1.74,2.88-2.41c1.08-0.67,2.22-1.18,3.43-1.52c1.21-0.35,2.33-0.45,3.38-0.32c0.22,0.02,0.58,0.08,1.07,0.19
	c0.49,0.1,0.98,0.32,1.46,0.67c0.48,0.35,0.87,0.86,1.17,1.55c0.3,0.69,0.36,1.64,0.18,2.84c-0.04,0.11-0.07,0.22-0.07,0.33
	s-0.02,0.23-0.07,0.37c0.27-0.49,0.6-1.06,1-1.72c0.4-0.66,0.84-1.27,1.32-1.84c0.48-0.57,0.98-1.05,1.49-1.46
	c0.51-0.4,1.03-0.6,1.54-0.6c0.33,0,0.68,0.09,1.04,0.27c0.36,0.18,0.68,0.42,0.97,0.74c0.29,0.31,0.52,0.7,0.7,1.15
	c0.18,0.46,0.27,0.97,0.27,1.52c0,0.27-0.03,0.55-0.08,0.84c-0.06,0.29-0.14,0.59-0.25,0.9c-0.02,0.04-0.03,0.08-0.03,0.1
	c0.25-0.42,0.55-0.93,0.9-1.51c0.36-0.58,0.75-1.13,1.17-1.66c0.42-0.52,0.87-0.96,1.35-1.32c0.48-0.36,0.97-0.53,1.46-0.53
	c0.36,0,0.75,0.13,1.17,0.38c0.42,0.26,0.79,0.62,1.09,1.1c0.3,0.48,0.5,1.07,0.59,1.77c0.09,0.7-0.03,1.49-0.37,2.36
	c-0.4,1.05-0.85,2.18-1.35,3.41c-0.5,1.23-0.99,2.48-1.47,3.76c-0.48,1.28-0.92,2.55-1.32,3.81c-0.4,1.26-0.7,2.45-0.9,3.56
	c-0.09,0.49-0.01,0.74,0.25,0.75c0.26,0.01,0.64-0.14,1.15-0.45c0.4-0.22,0.9-0.65,1.51-1.27c0.6-0.62,1.23-1.35,1.87-2.19l0.1-0.13
	c0.07-0.42,0.17-0.84,0.28-1.27c0.3-1.1,0.72-2.12,1.25-3.05c0.54-0.93,1.15-1.68,1.86-2.27c0.7-0.59,1.45-0.89,2.26-0.89
	c0.13,0,0.31,0.01,0.52,0.03c0.21,0.02,0.43,0.09,0.65,0.22c0.22,0.12,0.44,0.3,0.67,0.53c0.22,0.23,0.4,0.55,0.54,0.95
	c0.51,0.22,0.91,0.72,1.2,1.51c0.29,0.78,0.31,1.91,0.07,3.38c0.18,0.02,0.44-0.02,0.79-0.13c0.35-0.11,0.72-0.33,1.14-0.65
	c0.41-0.32,0.83-0.78,1.25-1.37c0.2-0.28,0.39-0.6,0.58-0.96l0.06-0.27c0.13-0.62,0.24-1.1,0.33-1.44c0.16-0.49,0.37-0.91,0.64-1.25
	c0.27-0.35,0.64-0.5,1.1-0.45c0.33,0.02,0.7,0.08,1.09,0.18c0.39,0.1,0.73,0.25,1.02,0.44c0.29,0.19,0.49,0.43,0.6,0.74
	c0.11,0.3,0.06,0.66-0.17,1.09c-0.27,0.54-0.57,1.26-0.9,2.17c-0.33,0.91-0.67,1.9-1,2.94c-0.33,1.05-0.65,2.09-0.95,3.13
	c-0.3,1.04-0.55,1.92-0.75,2.66c0.74-0.49,1.46-1.22,2.17-2.19c0.71-0.97,1.39-2.04,2.02-3.21l0.09-0.17
	c0.15-0.82,0.34-1.63,0.56-2.44c0.25-0.88,0.51-1.71,0.79-2.49c0.28-0.78,0.55-1.4,0.82-1.87c0.2-0.38,0.56-0.6,1.07-0.65
	c0.51-0.06,1,0.02,1.47,0.22c0.47,0.2,0.84,0.5,1.1,0.89c0.27,0.39,0.27,0.83,0,1.32c-0.2,0.4-0.45,0.9-0.75,1.49
	c-0.3,0.59-0.6,1.23-0.89,1.91c-0.29,0.68-0.54,1.38-0.75,2.09c-0.21,0.71-0.35,1.37-0.42,1.97c0,0.11,0,0.24,0,0.38
	c0,0.14,0.02,0.29,0.05,0.44c0.03,0.14,0.08,0.27,0.15,0.38c0.07,0.11,0.17,0.18,0.3,0.2c0.27,0,0.59-0.16,0.97-0.49
	c0.38-0.32,0.77-0.76,1.19-1.3c0.41-0.55,0.84-1.17,1.27-1.87c0.43-0.7,0.84-1.41,1.2-2.12c0.14-0.27,0.28-0.54,0.41-0.8
	c0.14-0.7,0.3-1.43,0.48-2.17l-0.5-0.03c-0.38-0.02-0.64-0.08-0.79-0.18c-0.14-0.1-0.22-0.23-0.22-0.39c0-0.24,0.07-0.5,0.22-0.77
	c0.15-0.27,0.37-0.38,0.69-0.33c0.18,0.02,0.35,0.04,0.52,0.05c0.17,0.01,0.34,0.02,0.52,0.02c0.33-1.23,0.7-2.43,1.09-3.61
	c0.39-1.18,0.77-2.26,1.14-3.25c0.37-0.98,0.71-1.82,1.02-2.53c0.31-0.7,0.56-1.19,0.74-1.45c0.18-0.29,0.48-0.44,0.9-0.44
	c0.36,0,0.73,0.07,1.12,0.2c0.39,0.13,0.73,0.31,1.02,0.52c0.29,0.21,0.49,0.46,0.6,0.75c0.11,0.29,0.07,0.59-0.13,0.9
	c-0.13,0.18-0.33,0.55-0.58,1.12c-0.26,0.57-0.55,1.25-0.89,2.06c-0.33,0.8-0.69,1.7-1.07,2.69c-0.38,0.99-0.75,2.01-1.1,3.06h0.94
	c0.13,0,0.22,0.08,0.27,0.25c0.05,0.17,0.05,0.35,0.02,0.55c-0.03,0.2-0.11,0.39-0.23,0.57c-0.12,0.18-0.28,0.28-0.49,0.3
	c-0.18,0.02-0.36,0.04-0.53,0.05c-0.18,0.01-0.37,0.03-0.57,0.05c-0.31,0.91-0.59,1.8-0.84,2.66c-0.24,0.86-0.45,1.66-0.62,2.39
	c-0.17,0.74-0.28,1.38-0.35,1.94c-0.07,0.56-0.06,0.98,0.03,1.27c0.04,0.13,0.13,0.21,0.27,0.23c0.13,0.02,0.26,0,0.37-0.07
	c0.24-0.16,0.53-0.44,0.87-0.85c0.33-0.41,0.69-0.9,1.07-1.46c0.21-0.3,0.42-0.63,0.63-0.97c0.07-0.67,0.2-1.36,0.39-2.06
	c0.3-1.1,0.72-2.12,1.25-3.05c0.53-0.93,1.15-1.68,1.86-2.27c0.7-0.59,1.46-0.89,2.26-0.89c0.13,0,0.31,0.01,0.52,0.03
	c0.21,0.02,0.43,0.09,0.65,0.22c0.22,0.12,0.45,0.3,0.67,0.53c0.22,0.23,0.4,0.55,0.53,0.95c0.51,0.22,0.91,0.72,1.2,1.51
	C183.18,17.13,183.2,18.25,182.96,19.72L182.96,19.72z M144.39,25.85c0.31,0,0.61-0.17,0.9-0.5c0.29-0.34,0.56-0.75,0.8-1.25
	c0.25-0.5,0.45-1.04,0.6-1.61c0.16-0.57,0.26-1.09,0.3-1.56c-0.2-0.13-0.37-0.33-0.52-0.6c-0.14-0.27-0.26-0.56-0.33-0.89
	c-0.08-0.32-0.12-0.65-0.13-0.99c-0.01-0.33,0.04-0.62,0.15-0.87c-0.31,0.11-0.63,0.39-0.94,0.84c-0.31,0.44-0.6,0.98-0.85,1.59
	c-0.26,0.61-0.47,1.27-0.65,1.96c-0.18,0.69-0.28,1.32-0.32,1.89c-0.03,0.57,0.02,1.04,0.17,1.42
	C143.71,25.66,143.98,25.85,144.39,25.85L144.39,25.85z M151.28,29.66c-0.53,0.16-0.96,0.38-1.29,0.67
	c-0.32,0.29-0.55,0.58-0.69,0.87c-0.13,0.29-0.19,0.54-0.17,0.75c0.02,0.21,0.11,0.32,0.27,0.32c0.53-0.04,0.95-0.35,1.24-0.9
	C150.93,30.81,151.14,30.24,151.28,29.66L151.28,29.66z M159.04,11.9c-0.2,0.18-0.46,0.26-0.79,0.25c-0.32-0.01-0.63-0.1-0.94-0.27
	c-0.3-0.17-0.54-0.41-0.72-0.72c-0.18-0.31-0.21-0.68-0.1-1.1c0.07-0.22,0.14-0.49,0.22-0.79c0.08-0.3,0.17-0.6,0.27-0.9
	c0.1-0.3,0.21-0.59,0.32-0.85c0.11-0.27,0.22-0.48,0.33-0.64c0.13-0.13,0.27-0.23,0.4-0.3c0.13-0.07,0.3-0.11,0.5-0.13
	c0.33-0.02,0.69,0.03,1.07,0.17c0.38,0.13,0.72,0.32,1.02,0.55c0.3,0.23,0.52,0.5,0.67,0.8c0.14,0.3,0.15,0.59,0.02,0.85
	L159.04,11.9L159.04,11.9z M166.03,11.9c-0.2,0.18-0.46,0.26-0.79,0.25c-0.32-0.01-0.64-0.1-0.94-0.27
	c-0.3-0.17-0.54-0.41-0.72-0.72c-0.18-0.31-0.21-0.68-0.1-1.1c0.07-0.22,0.14-0.49,0.22-0.79c0.08-0.3,0.17-0.6,0.27-0.9
	c0.1-0.3,0.21-0.59,0.32-0.85c0.11-0.27,0.22-0.48,0.33-0.64c0.13-0.13,0.27-0.23,0.4-0.3c0.13-0.07,0.3-0.11,0.5-0.13
	c0.33-0.02,0.69,0.03,1.07,0.17c0.38,0.13,0.72,0.32,1.02,0.55c0.3,0.23,0.52,0.5,0.67,0.8c0.15,0.3,0.15,0.59,0.02,0.85
	L166.03,11.9L166.03,11.9z M177.04,25.85c0.31,0,0.61-0.17,0.9-0.5c0.29-0.34,0.56-0.75,0.8-1.25c0.25-0.5,0.45-1.04,0.6-1.61
	c0.16-0.57,0.26-1.09,0.3-1.56c-0.2-0.13-0.37-0.33-0.52-0.6c-0.15-0.27-0.26-0.56-0.33-0.89c-0.08-0.32-0.12-0.65-0.13-0.99
	c-0.01-0.33,0.04-0.62,0.15-0.87c-0.31,0.11-0.62,0.39-0.94,0.84c-0.31,0.44-0.6,0.98-0.85,1.59c-0.26,0.61-0.47,1.27-0.65,1.96
	c-0.18,0.69-0.28,1.32-0.32,1.89c-0.03,0.57,0.02,1.04,0.17,1.42C176.36,25.66,176.63,25.85,177.04,25.85L177.04,25.85z"/>
<path class="st1" d="M149.52,169.2c-1.34-0.04-2.69-0.59-3.67-1.72l-24.23-29.05h55.8l-24.23,29.05
	C152.21,168.62,150.85,169.16,149.52,169.2L149.52,169.2z"/>
<polygon class="st2" points="121.62,138.44 84.81,94.32 214.22,94.32 177.42,138.44 121.62,138.44 "/>
<polygon class="st3" points="84.81,94.32 67.95,74.1 231.09,74.1 214.22,94.32 84.81,94.32 "/>
<polygon class="st4" points="67.95,74.1 55.02,58.61 244.02,58.61 231.09,74.1 67.95,74.1 "/>
<path class="st5" d="M149.53,138.44h27.89l-24.23,29.05c-0.98,1.12-2.33,1.67-3.66,1.72V138.44L149.53,138.44z"/>
<polygon class="st6" points="149.53,94.32 214.22,94.32 177.42,138.44 149.53,138.44 149.53,94.32 "/>
<polygon class="st7" points="149.53,74.1 231.09,74.1 214.22,94.32 149.53,94.32 149.53,74.1 "/>
<polygon class="st8" points="149.53,58.61 244.02,58.61 231.09,74.1 149.53,74.1 149.53,58.61 "/>
<path class="st1" d="M57.89,48.25l47.22,58.88l-39.2-58.88H57.89L57.89,48.25z M241.15,48.25l-73.98,96.24l65.96-96.24H241.15
	L241.15,48.25z"/>
<path class="st9" d="M160.39,83.56c0.02-0.06,0.07-0.09,0.13-0.09c0.07,0,0.13,0.01,0.2,0.03c0.07,0.03,0.12,0.07,0.16,0.12
	c0.04,0.05,0.05,0.1,0.03,0.14c-0.12,0.26-0.29,0.58-0.49,0.96c-0.21,0.38-0.44,0.79-0.7,1.22c-0.26,0.43-0.55,0.86-0.86,1.29
	c-0.31,0.43-0.64,0.82-1,1.17c-0.35,0.35-0.71,0.64-1.09,0.86c-0.37,0.22-0.75,0.34-1.13,0.35c-0.3,0-0.58-0.06-0.82-0.19
	c-0.24-0.13-0.46-0.31-0.64-0.53c-0.15-0.19-0.28-0.41-0.37-0.66c-0.25,0.34-0.51,0.64-0.78,0.88c-0.3,0.27-0.59,0.42-0.88,0.47
	c-0.28,0.02-0.51,0-0.7-0.07c-0.18-0.07-0.33-0.17-0.44-0.32c-0.11-0.14-0.19-0.32-0.24-0.52c-0.05-0.2-0.07-0.42-0.07-0.65
	c0-0.36,0.05-0.75,0.16-1.19c0.11-0.44,0.2-0.86,0.29-1.29c0.07-0.3,0.09-0.51,0.06-0.62c-0.03-0.11-0.08-0.16-0.17-0.14
	c-0.08,0.02-0.18,0.11-0.3,0.26c-0.12,0.15-0.23,0.34-0.34,0.56c-0.1,0.22-0.2,0.49-0.3,0.81c-0.1,0.32-0.19,0.64-0.26,0.98
	c-0.07,0.33-0.13,0.65-0.18,0.95c-0.05,0.3-0.06,0.53-0.05,0.7c0.01,0.19-0.08,0.33-0.28,0.43c-0.19,0.09-0.41,0.13-0.65,0.09
	c-0.24-0.03-0.45-0.14-0.64-0.32c-0.18-0.18-0.25-0.44-0.21-0.79c0.06-0.33,0.14-0.71,0.24-1.12c0.11-0.41,0.22-0.83,0.34-1.25
	c0.09-0.3,0.16-0.58,0.23-0.84c0.06-0.26,0.05-0.41-0.04-0.47c-0.06-0.05-0.17-0.02-0.33,0.1c-0.17,0.12-0.34,0.36-0.52,0.72
	c-0.1,0.22-0.21,0.47-0.33,0.75c-0.12,0.28-0.24,0.57-0.34,0.86c-0.11,0.29-0.2,0.58-0.29,0.86c-0.09,0.28-0.16,0.52-0.2,0.74
	c-0.06,0.21-0.16,0.4-0.31,0.57c-0.15,0.17-0.37,0.23-0.64,0.18c-0.1-0.01-0.19-0.05-0.26-0.12c-0.07-0.07-0.13-0.14-0.18-0.23
	c-0.05-0.09-0.09-0.18-0.11-0.28c-0.02-0.1-0.03-0.19-0.03-0.28c0-0.29,0.03-0.65,0.1-1.07c-0.15,0.24-0.3,0.47-0.46,0.69
	c-0.28,0.38-0.59,0.7-0.91,0.94c-0.32,0.25-0.65,0.37-0.99,0.37c-0.28,0-0.51-0.04-0.7-0.13c-0.19-0.09-0.34-0.21-0.46-0.37
	c-0.12-0.16-0.2-0.35-0.25-0.56c-0.02-0.1-0.04-0.2-0.05-0.3c-0.25,0.39-0.52,0.71-0.79,0.97c-0.28,0.26-0.56,0.39-0.85,0.39
	c-0.2,0-0.39-0.03-0.58-0.08c-0.18-0.06-0.35-0.15-0.49-0.28c-0.14-0.13-0.25-0.3-0.34-0.52c-0.09-0.22-0.14-0.49-0.15-0.81
	c-0.01-0.43,0.03-0.96,0.13-1.59c0.1-0.63,0.23-1.29,0.4-1.98c0.17-0.7,0.36-1.4,0.57-2.11c0.21-0.71,0.42-1.36,0.64-1.97
	c0.21-0.6,0.41-1.12,0.59-1.56c0.18-0.44,0.32-0.74,0.43-0.91c0.09-0.14,0.25-0.22,0.47-0.22c0.18,0,0.36,0.03,0.56,0.1
	c0.2,0.07,0.37,0.15,0.51,0.26c0.14,0.1,0.25,0.23,0.3,0.37c0.06,0.15,0.03,0.3-0.07,0.45c-0.09,0.12-0.23,0.41-0.43,0.86
	c-0.2,0.45-0.42,0.99-0.66,1.62c-0.24,0.63-0.5,1.3-0.75,2.02c-0.26,0.72-0.48,1.41-0.68,2.07c-0.19,0.66-0.34,1.26-0.44,1.78
	s-0.12,0.9-0.05,1.12c0.02,0.07,0.06,0.11,0.12,0.12c0.06,0.01,0.12,0,0.18-0.03c0.18-0.11,0.39-0.32,0.64-0.62
	c0.25-0.3,0.5-0.66,0.76-1.09l0.1-0.16c0.07-0.4,0.17-0.8,0.28-1.2c0.12-0.44,0.25-0.86,0.39-1.25c0.14-0.39,0.28-0.7,0.41-0.94
	c0.1-0.19,0.28-0.3,0.53-0.33c0.26-0.03,0.5,0.01,0.74,0.11c0.23,0.1,0.42,0.25,0.55,0.44c0.13,0.2,0.13,0.42,0,0.66
	c-0.1,0.2-0.23,0.45-0.38,0.75s-0.3,0.61-0.44,0.95c-0.14,0.34-0.27,0.69-0.38,1.04c-0.11,0.36-0.18,0.69-0.21,0.99
	c0,0.06,0,0.12,0,0.19c0,0.07,0.01,0.15,0.03,0.22c0.02,0.07,0.04,0.14,0.07,0.19c0.03,0.06,0.08,0.09,0.15,0.1
	c0.13,0,0.29-0.08,0.48-0.24c0.19-0.16,0.39-0.38,0.59-0.65c0.21-0.27,0.42-0.59,0.63-0.94c0.22-0.35,0.42-0.7,0.6-1.06
	c0.09-0.17,0.17-0.34,0.25-0.5c0.05-0.18,0.1-0.36,0.16-0.54c0.17-0.55,0.33-1.06,0.5-1.56c0.04-0.16,0.18-0.26,0.4-0.3
	c0.22-0.04,0.44-0.04,0.67,0c0.22,0.05,0.41,0.13,0.56,0.24c0.15,0.12,0.19,0.26,0.11,0.43c-0.09,0.23-0.19,0.47-0.29,0.7
	c-0.11,0.23-0.2,0.46-0.28,0.69c0.08-0.13,0.18-0.28,0.3-0.45c0.12-0.17,0.26-0.33,0.4-0.5c0.15-0.17,0.3-0.33,0.45-0.49
	c0.16-0.16,0.32-0.3,0.49-0.41c0.19-0.11,0.38-0.16,0.57-0.15c0.19,0.01,0.35,0.07,0.49,0.17c0.14,0.1,0.25,0.24,0.34,0.43
	c0.08,0.18,0.12,0.39,0.11,0.61c0.16-0.19,0.33-0.38,0.52-0.56c0.19-0.18,0.38-0.34,0.57-0.46c0.21-0.13,0.44-0.19,0.67-0.18
	c0.23,0.02,0.43,0.11,0.59,0.28c0.16,0.17,0.27,0.41,0.31,0.74c0.04,0.32-0.02,0.72-0.18,1.2c-0.03,0.11-0.06,0.2-0.09,0.28
	c-0.03,0.07-0.06,0.14-0.08,0.21c-0.03,0.07-0.05,0.14-0.08,0.21c-0.02,0.07-0.05,0.16-0.08,0.26c-0.16,0.47-0.29,0.91-0.4,1.32
	c-0.11,0.41-0.17,0.75-0.17,1c0,0.03,0.01,0.07,0.02,0.13c0.02,0.05,0.06,0.07,0.12,0.07c0.09,0,0.24-0.1,0.45-0.3
	c0.2-0.19,0.44-0.47,0.71-0.83c0-0.05,0-0.1,0-0.16c0-0.47,0.07-0.97,0.21-1.5c0.14-0.53,0.34-1.01,0.61-1.45
	c0.27-0.44,0.59-0.81,0.98-1.1c0.38-0.3,0.83-0.44,1.33-0.44c0.2,0,0.4,0.04,0.61,0.11c0.21,0.07,0.39,0.18,0.54,0.33
	c0.16,0.15,0.29,0.33,0.39,0.56c0.11,0.23,0.16,0.5,0.16,0.81c-0.02,0.59-0.15,1.08-0.38,1.47c-0.23,0.39-0.51,0.7-0.84,0.94
	c-0.33,0.23-0.69,0.4-1.06,0.49c-0.37,0.1-0.72,0.14-1.03,0.14c-0.02,0.14-0.01,0.29,0.02,0.44c0.04,0.15,0.1,0.28,0.18,0.4
	c0.08,0.12,0.19,0.21,0.32,0.28c0.13,0.07,0.27,0.11,0.44,0.11c0.29,0,0.62-0.13,0.99-0.4c0.37-0.27,0.74-0.63,1.13-1.09
	c0.39-0.46,0.77-1,1.15-1.62C159.74,84.92,160.08,84.26,160.39,83.56L160.39,83.56z M144.74,81.93c-0.1,0.09-0.23,0.13-0.39,0.13
	c-0.16,0-0.32-0.05-0.47-0.13c-0.15-0.08-0.27-0.2-0.36-0.36c-0.09-0.16-0.11-0.34-0.05-0.55c0.03-0.11,0.07-0.24,0.11-0.39
	c0.04-0.15,0.08-0.3,0.14-0.45c0.05-0.15,0.1-0.29,0.16-0.43c0.06-0.13,0.11-0.24,0.17-0.32c0.07-0.07,0.13-0.12,0.2-0.15
	c0.07-0.03,0.15-0.06,0.25-0.07c0.17-0.01,0.35,0.02,0.53,0.08c0.19,0.07,0.36,0.16,0.51,0.28c0.15,0.12,0.26,0.25,0.33,0.4
	c0.07,0.15,0.08,0.29,0.01,0.43L144.74,81.93L144.74,81.93z M156.6,84.13c-0.1,0.06-0.22,0.17-0.35,0.33
	c-0.13,0.17-0.27,0.37-0.4,0.61c-0.13,0.24-0.26,0.5-0.37,0.79c-0.11,0.28-0.2,0.57-0.25,0.86c0.19-0.02,0.38-0.1,0.58-0.23
	c0.2-0.13,0.37-0.3,0.54-0.49c0.16-0.19,0.3-0.42,0.41-0.67c0.11-0.25,0.18-0.51,0.2-0.76c0.01-0.13,0-0.23-0.02-0.29
	c-0.03-0.06-0.06-0.11-0.1-0.13c-0.04-0.03-0.08-0.04-0.12-0.03C156.67,84.1,156.63,84.11,156.6,84.13L156.6,84.13z"/>
<path class="st0" d="M155.46,117.23c0.18-0.14,0.36-0.23,0.55-0.29c0.19-0.06,0.37-0.09,0.55-0.09c0.27,0,0.51,0.06,0.72,0.18
	c0.21,0.12,0.37,0.31,0.47,0.56c0.03-0.08,0.06-0.14,0.07-0.17c0.02-0.03,0.05-0.09,0.11-0.18c0.08-0.14,0.23-0.22,0.44-0.21
	c0.22,0.01,0.43,0.05,0.64,0.14c0.21,0.09,0.38,0.2,0.53,0.34c0.14,0.14,0.18,0.28,0.12,0.41c-0.21,0.47-0.41,0.93-0.59,1.39
	c-0.18,0.46-0.34,0.9-0.49,1.3c-0.14,0.4-0.24,0.76-0.31,1.07c-0.07,0.31-0.09,0.55-0.07,0.72c0.02,0.09,0.06,0.14,0.11,0.14
	c0.05,0.01,0.11-0.01,0.17-0.05c0.06-0.04,0.12-0.09,0.18-0.15c0.06-0.06,0.1-0.11,0.13-0.14c0.22-0.25,0.46-0.57,0.72-0.98
	c0.26-0.41,0.5-0.83,0.74-1.26c0.24-0.43,0.46-0.85,0.65-1.25c0.2-0.4,0.35-0.7,0.46-0.93c0.02-0.05,0.07-0.08,0.14-0.08
	s0.14,0.01,0.21,0.04c0.07,0.03,0.13,0.07,0.18,0.12c0.05,0.05,0.06,0.1,0.04,0.16c-0.07,0.1-0.17,0.32-0.31,0.65
	c-0.14,0.33-0.31,0.71-0.5,1.14c-0.19,0.43-0.41,0.88-0.64,1.35c-0.23,0.47-0.48,0.9-0.74,1.3c-0.26,0.4-0.53,0.72-0.8,0.98
	c-0.27,0.26-0.54,0.39-0.81,0.39c-0.29,0-0.54-0.1-0.76-0.3c-0.22-0.2-0.36-0.47-0.43-0.8c-0.07,0.12-0.15,0.25-0.25,0.38
	c-0.1,0.13-0.21,0.24-0.33,0.35c-0.12,0.11-0.26,0.19-0.41,0.27c-0.15,0.07-0.32,0.11-0.49,0.13c-0.48,0-0.88-0.17-1.2-0.49
	c-0.3-0.31-0.46-0.75-0.48-1.33c-0.1,0.15-0.2,0.3-0.3,0.45c-0.27,0.4-0.55,0.72-0.84,0.98c-0.28,0.26-0.56,0.39-0.83,0.39
	c-0.28,0-0.53-0.1-0.74-0.3c-0.22-0.2-0.36-0.47-0.44-0.8c-0.07,0.12-0.15,0.25-0.25,0.38c-0.1,0.13-0.21,0.24-0.33,0.35
	c-0.12,0.11-0.26,0.19-0.41,0.27c-0.15,0.07-0.32,0.11-0.49,0.13c-0.48,0-0.88-0.17-1.2-0.49c-0.32-0.33-0.49-0.82-0.49-1.48
	c0-0.32,0.03-0.66,0.09-1.02l-0.04,0.02c-0.32,0.19-0.63,0.27-0.93,0.24c-0.22,0.84-0.56,1.52-1.01,2.06c-0.45,0.53-1,0.8-1.63,0.8
	c-0.25,0-0.51-0.06-0.79-0.18c-0.37-0.19-0.64-0.49-0.81-0.9c-0.12-0.29-0.2-0.6-0.23-0.95c-0.23,0.28-0.48,0.55-0.75,0.8
	c-0.53,0.51-1.15,0.88-1.87,1.11c-0.23,0.1-0.5,0.17-0.8,0.2c-0.28,0.02-0.51,0.02-0.71-0.02c-0.19-0.03-0.36-0.09-0.49-0.17
	c-0.13-0.08-0.22-0.17-0.28-0.28c-0.06-0.11-0.09-0.23-0.09-0.35c-0.01-0.18,0.03-0.33,0.13-0.46c0.1-0.13,0.21-0.22,0.34-0.26
	c0.13-0.05,0.25-0.04,0.37,0.02c0.12,0.05,0.19,0.18,0.23,0.38c0.02,0.12,0.09,0.19,0.22,0.19c0.18,0,0.3-0.07,0.37-0.21
	c0.07-0.14,0.09-0.32,0.08-0.53c-0.01-0.22-0.05-0.46-0.11-0.71c-0.06-0.26-0.13-0.51-0.21-0.75c-0.08-0.25-0.15-0.47-0.22-0.67
	c-0.07-0.2-0.11-0.35-0.13-0.44c-0.19-0.65-0.21-1.19-0.07-1.63c0.14-0.44,0.37-0.78,0.69-1.02c0.31-0.24,0.67-0.38,1.07-0.43
	c0.4-0.04,0.76,0,1.09,0.15c0.23,0.1,0.42,0.25,0.56,0.44c0.14,0.19,0.23,0.41,0.28,0.64c0.05,0.23,0.06,0.46,0.02,0.7
	c-0.04,0.23-0.12,0.44-0.23,0.62c-0.07,0.11-0.16,0.18-0.28,0.22c-0.12,0.04-0.26,0.05-0.39,0.04c-0.14,0-0.27-0.03-0.4-0.08
	c-0.13-0.04-0.23-0.09-0.29-0.13c-0.08-0.05-0.12-0.13-0.12-0.21s0.02-0.17,0.07-0.24c0.12-0.2,0.13-0.36,0.02-0.47
	c-0.09-0.09-0.21-0.1-0.35-0.04c-0.14,0.06-0.23,0.2-0.25,0.42c0,0.27,0.05,0.55,0.15,0.85c0.1,0.3,0.22,0.6,0.35,0.91
	c0.13,0.31,0.26,0.6,0.38,0.89c0.12,0.28,0.2,0.54,0.23,0.78v0.23c0.44-0.36,0.91-0.86,1.4-1.51c0.03-0.34,0.1-0.68,0.2-1.04
	c0.15-0.55,0.36-1.06,0.63-1.52c0.27-0.47,0.58-0.84,0.93-1.14c0.35-0.29,0.73-0.44,1.13-0.44c0.07,0,0.15,0.01,0.26,0.02
	c0.11,0.01,0.21,0.05,0.33,0.11c0.11,0.06,0.22,0.15,0.34,0.27c0.11,0.12,0.2,0.28,0.27,0.48c0.26,0.11,0.46,0.36,0.6,0.75
	c0.14,0.39,0.16,0.95,0.03,1.69c0.09,0.01,0.22-0.01,0.39-0.07c0.17-0.05,0.36-0.16,0.57-0.33l0.07-0.05
	c0.05-0.15,0.1-0.29,0.15-0.44c0.16-0.44,0.35-0.83,0.55-1.18c0.21-0.35,0.42-0.61,0.63-0.78c0.18-0.14,0.36-0.23,0.54-0.29
	c0.18-0.06,0.36-0.09,0.54-0.09c0.27,0,0.51,0.06,0.72,0.18c0.21,0.12,0.37,0.31,0.49,0.56c0.18-0.64,0.37-1.26,0.58-1.88
	c0.21-0.62,0.4-1.18,0.59-1.68c0.18-0.5,0.35-0.93,0.5-1.28c0.15-0.35,0.26-0.58,0.34-0.69c0.06-0.08,0.13-0.13,0.21-0.17
	c0.08-0.03,0.16-0.05,0.24-0.05c0.17,0,0.35,0.03,0.56,0.08c0.21,0.06,0.39,0.13,0.54,0.23c0.16,0.1,0.27,0.22,0.33,0.36
	c0.07,0.14,0.05,0.29-0.05,0.44c-0.11,0.18-0.28,0.5-0.49,0.98c-0.22,0.47-0.45,1.02-0.71,1.64s-0.52,1.28-0.79,1.98
	c-0.27,0.7-0.51,1.37-0.72,2.01c-0.21,0.64-0.39,1.22-0.52,1.72c-0.13,0.51-0.19,0.88-0.17,1.11c0.02,0.14,0.07,0.2,0.15,0.15
	c0.15-0.07,0.31-0.21,0.5-0.42c0.19-0.21,0.39-0.47,0.6-0.76c0.21-0.3,0.42-0.62,0.64-0.96l0.25-0.41c0.07-0.27,0.16-0.54,0.26-0.81
	c0.16-0.44,0.34-0.83,0.54-1.18C155.04,117.65,155.25,117.39,155.46,117.23L155.46,117.23z M143.84,123.13
	c0.16,0,0.31-0.08,0.45-0.25c0.14-0.17,0.28-0.38,0.4-0.63c0.12-0.25,0.22-0.52,0.3-0.8c0.08-0.28,0.13-0.54,0.15-0.78
	c-0.1-0.07-0.19-0.17-0.26-0.3c-0.07-0.13-0.13-0.28-0.17-0.44c-0.04-0.16-0.06-0.33-0.07-0.49c-0.01-0.17,0.02-0.31,0.07-0.43
	c-0.16,0.06-0.31,0.19-0.47,0.42c-0.16,0.22-0.3,0.49-0.43,0.79c-0.13,0.31-0.24,0.63-0.33,0.98c-0.09,0.35-0.14,0.66-0.16,0.94
	c-0.02,0.28,0.01,0.52,0.08,0.71C143.5,123.04,143.63,123.13,143.84,123.13L143.84,123.13z M150.89,118.76c0-0.03,0-0.09-0.01-0.16
	c0-0.07-0.02-0.14-0.03-0.21c-0.02-0.07-0.04-0.13-0.07-0.18c-0.03-0.06-0.06-0.08-0.11-0.08c-0.14,0-0.28,0.1-0.44,0.31
	c-0.16,0.21-0.32,0.46-0.47,0.78c-0.15,0.31-0.29,0.66-0.43,1.04c-0.13,0.38-0.24,0.74-0.32,1.07c-0.02,0.1-0.05,0.24-0.08,0.42
	c-0.03,0.18-0.05,0.36-0.06,0.53c0,0.17,0.01,0.33,0.04,0.45c0.03,0.13,0.11,0.19,0.22,0.19c0.14,0,0.29-0.08,0.43-0.24
	c0.15-0.16,0.28-0.37,0.41-0.63c0.13-0.26,0.25-0.54,0.36-0.85c0.11-0.31,0.21-0.62,0.29-0.93c0.08-0.31,0.15-0.59,0.19-0.86
	C150.87,119.13,150.89,118.92,150.89,118.76L150.89,118.76z M157.25,118.76c0-0.03,0-0.09-0.01-0.16c-0.01-0.07-0.02-0.14-0.03-0.21
	c-0.02-0.07-0.04-0.13-0.07-0.18c-0.03-0.06-0.06-0.08-0.11-0.08c-0.13,0-0.28,0.1-0.44,0.31c-0.16,0.21-0.32,0.46-0.47,0.78
	c-0.15,0.31-0.29,0.66-0.43,1.04c-0.13,0.38-0.24,0.74-0.32,1.07c-0.02,0.1-0.05,0.24-0.08,0.42c-0.03,0.18-0.05,0.36-0.06,0.53
	c-0.01,0.17,0.01,0.33,0.04,0.45c0.03,0.13,0.11,0.19,0.22,0.19c0.14,0,0.29-0.08,0.44-0.24c0.14-0.16,0.28-0.37,0.41-0.63
	c0.13-0.26,0.25-0.54,0.36-0.85c0.11-0.31,0.21-0.62,0.29-0.93c0.08-0.31,0.15-0.59,0.19-0.86
	C157.23,119.13,157.25,118.92,157.25,118.76L157.25,118.76z"/>
<path class="st0" d="M161.82,145.45c0.02-0.05,0.06-0.08,0.12-0.08c0.06,0,0.12,0,0.18,0.03c0.06,0.02,0.11,0.06,0.14,0.1
	c0.04,0.04,0.04,0.09,0.02,0.13c-0.11,0.23-0.25,0.51-0.44,0.85c-0.18,0.34-0.39,0.7-0.62,1.08c-0.23,0.38-0.49,0.76-0.76,1.14
	c-0.28,0.38-0.57,0.72-0.88,1.03c-0.31,0.31-0.63,0.56-0.96,0.76c-0.33,0.2-0.66,0.3-1,0.31c-0.27,0-0.51-0.06-0.72-0.17
	c-0.22-0.11-0.41-0.27-0.57-0.47c-0.16-0.2-0.28-0.43-0.37-0.69l-0.04,0.06c-0.23,0.35-0.45,0.65-0.68,0.88
	c-0.23,0.23-0.45,0.35-0.67,0.36c-0.41,0.02-0.74-0.09-0.98-0.33c-0.24-0.24-0.38-0.58-0.43-1.02c-0.03-0.23-0.03-0.48-0.01-0.77
	c-0.19,0.35-0.4,0.67-0.61,0.97c-0.25,0.34-0.52,0.62-0.81,0.83c-0.29,0.22-0.58,0.33-0.87,0.33c-0.25,0-0.45-0.04-0.62-0.11
	c-0.17-0.08-0.3-0.19-0.41-0.33c-0.1-0.14-0.18-0.31-0.22-0.5c-0.03-0.12-0.05-0.24-0.06-0.37l0,0c-0.25,0.34-0.51,0.64-0.78,0.87
	c-0.27,0.23-0.54,0.37-0.81,0.41c-0.26,0.02-0.47,0-0.64-0.06c-0.17-0.06-0.3-0.15-0.41-0.28c-0.1-0.13-0.18-0.28-0.22-0.46
	c-0.04-0.18-0.07-0.37-0.07-0.58c0-0.32,0.05-0.66,0.14-1.04c0.09-0.38,0.19-0.75,0.27-1.13c0.06-0.27,0.07-0.45,0.04-0.56
	c-0.03-0.1-0.1-0.14-0.19-0.12c-0.09,0.02-0.19,0.1-0.3,0.23c-0.11,0.13-0.21,0.29-0.3,0.49c-0.09,0.2-0.18,0.42-0.28,0.66
	c-0.1,0.25-0.2,0.5-0.29,0.76c-0.09,0.26-0.18,0.51-0.25,0.76c-0.07,0.24-0.13,0.46-0.17,0.65c-0.04,0.19-0.12,0.35-0.25,0.5
	c-0.13,0.15-0.31,0.2-0.53,0.16c-0.08-0.01-0.15-0.04-0.21-0.1c-0.06-0.06-0.12-0.13-0.16-0.21c-0.04-0.08-0.07-0.16-0.09-0.25
	c-0.02-0.09-0.03-0.17-0.03-0.25c0-0.31,0.05-0.75,0.16-1.29c0.05-0.28,0.11-0.57,0.18-0.87c-0.15,0.13-0.3,0.24-0.46,0.34
	c-0.31,0.19-0.61,0.25-0.91,0.17c-0.15,0.28-0.31,0.57-0.48,0.84c-0.17,0.28-0.35,0.53-0.55,0.75c-0.19,0.23-0.39,0.42-0.6,0.57
	c-0.21,0.16-0.42,0.26-0.64,0.3c-0.17,0.03-0.33,0.02-0.47-0.04c-0.15-0.05-0.28-0.14-0.4-0.27c-0.12-0.12-0.22-0.27-0.31-0.44
	c-0.09-0.17-0.15-0.36-0.19-0.56c-0.09,0.16-0.18,0.31-0.27,0.46c-0.09,0.15-0.18,0.29-0.29,0.42c-0.1,0.12-0.22,0.22-0.34,0.3
	c-0.12,0.08-0.26,0.12-0.41,0.13c-0.26,0.02-0.47-0.02-0.65-0.11c-0.18-0.09-0.32-0.23-0.42-0.4c-0.1-0.17-0.18-0.37-0.21-0.61
	c-0.04-0.23-0.05-0.48-0.03-0.75c0.02-0.33,0.07-0.68,0.14-1.08c0.07-0.39,0.17-0.78,0.28-1.17c0.11-0.39,0.24-0.74,0.37-1.08
	c0.13-0.34,0.27-0.61,0.42-0.83c0.12-0.17,0.29-0.25,0.52-0.25c0.15,0,0.29,0.02,0.43,0.07c0.14,0.05,0.25,0.1,0.35,0.19
	c0.09,0.08,0.15,0.18,0.18,0.3c0.03,0.12-0.01,0.26-0.1,0.41c-0.09,0.17-0.21,0.41-0.35,0.72c-0.14,0.31-0.28,0.65-0.42,1
	c-0.14,0.36-0.26,0.72-0.35,1.09c-0.1,0.36-0.15,0.68-0.15,0.96c-0.01,0.33,0.03,0.5,0.11,0.49c0.08,0,0.2-0.15,0.36-0.45
	c0.14-0.27,0.29-0.61,0.45-1.03c0.16-0.42,0.32-0.86,0.48-1.3c0.16-0.44,0.31-0.86,0.45-1.26c0.14-0.39,0.27-0.7,0.38-0.9
	c0.12-0.16,0.3-0.23,0.53-0.23c0.15,0,0.29,0.02,0.43,0.07c0.14,0.04,0.25,0.11,0.35,0.2c0.09,0.09,0.16,0.19,0.19,0.31
	c0.03,0.12,0,0.25-0.07,0.4c-0.09,0.17-0.2,0.4-0.33,0.7c-0.13,0.3-0.25,0.62-0.36,0.97c-0.11,0.35-0.21,0.7-0.3,1.06
	c-0.08,0.36-0.13,0.67-0.14,0.95c0,0.19,0.01,0.32,0.04,0.4c0.02,0.08,0.06,0.12,0.11,0.12c0.05,0,0.11-0.04,0.19-0.11
	c0.07-0.07,0.16-0.17,0.24-0.29c0.17-0.23,0.33-0.5,0.49-0.83c0.16-0.33,0.32-0.67,0.47-1.03c-0.05-0.11-0.09-0.22-0.12-0.33
	c-0.03-0.11-0.05-0.23-0.07-0.35c-0.03-0.2-0.03-0.43-0.01-0.69c0.02-0.27,0.08-0.52,0.16-0.75c0.08-0.24,0.2-0.44,0.35-0.61
	c0.15-0.17,0.34-0.26,0.56-0.28c0.25-0.02,0.45,0.05,0.6,0.2c0.15,0.15,0.25,0.37,0.3,0.64c0.04,0.27,0.03,0.58-0.04,0.94
	c-0.07,0.35-0.2,0.73-0.4,1.12c0.16,0.03,0.32,0,0.5-0.1c0.18-0.09,0.35-0.23,0.52-0.41c0.06-0.06,0.11-0.13,0.16-0.19
	c0.15-0.58,0.32-1.18,0.5-1.79c0.21-0.69,0.41-1.34,0.62-1.94c0.21-0.61,0.4-1.14,0.58-1.6c0.18-0.46,0.34-0.78,0.47-0.97
	c0.08-0.13,0.22-0.19,0.41-0.19c0.16,0,0.32,0.03,0.5,0.09c0.17,0.06,0.32,0.14,0.45,0.23c0.13,0.09,0.22,0.2,0.27,0.33
	c0.05,0.13,0.03,0.26-0.06,0.4c-0.06,0.09-0.16,0.3-0.32,0.62c-0.15,0.32-0.33,0.72-0.53,1.17c-0.2,0.46-0.4,0.96-0.61,1.5
	c-0.21,0.54-0.41,1.07-0.58,1.59c0.09-0.13,0.2-0.28,0.34-0.45c0.14-0.17,0.3-0.34,0.47-0.49c0.18-0.15,0.37-0.28,0.57-0.38
	c0.2-0.1,0.41-0.13,0.61-0.1c0.27,0.03,0.49,0.18,0.66,0.44c0.16,0.26,0.18,0.62,0.04,1.07c-0.06,0.19-0.12,0.4-0.2,0.64
	c-0.07,0.24-0.14,0.46-0.2,0.64c-0.14,0.4-0.26,0.79-0.37,1.15c-0.11,0.37-0.16,0.66-0.16,0.89c0,0.03,0.01,0.07,0.03,0.11
	c0.02,0.05,0.05,0.07,0.1,0.07c0.08,0,0.22-0.09,0.43-0.29c0.21-0.19,0.45-0.47,0.72-0.83c0.09-0.12,0.17-0.24,0.26-0.37l0.01-0.07
	c0.07-0.4,0.16-0.79,0.27-1.18c0.11-0.39,0.22-0.76,0.35-1.1c0.12-0.35,0.24-0.62,0.36-0.83c0.09-0.17,0.25-0.26,0.47-0.29
	c0.23-0.02,0.44,0.01,0.65,0.1c0.21,0.09,0.37,0.22,0.49,0.39c0.12,0.17,0.12,0.37,0,0.58c-0.09,0.18-0.2,0.4-0.33,0.66
	c-0.13,0.26-0.26,0.54-0.39,0.84c-0.13,0.3-0.24,0.61-0.33,0.93c-0.09,0.32-0.15,0.6-0.18,0.87c0,0.05,0,0.11,0,0.17
	c0,0.06,0.01,0.13,0.02,0.19c0.02,0.06,0.04,0.12,0.07,0.17c0.03,0.05,0.07,0.08,0.13,0.09c0.12,0,0.26-0.07,0.43-0.21
	c0.17-0.14,0.34-0.34,0.52-0.58c0.18-0.24,0.37-0.52,0.56-0.83c0.19-0.31,0.37-0.62,0.53-0.94c0.06-0.12,0.12-0.24,0.18-0.36
	c0.06-0.31,0.13-0.63,0.21-0.96l-0.22-0.02c-0.17-0.01-0.28-0.04-0.35-0.08c-0.06-0.04-0.1-0.1-0.1-0.17c0-0.11,0.03-0.22,0.1-0.34
	c0.06-0.12,0.16-0.17,0.3-0.15c0.08,0.01,0.16,0.02,0.23,0.02c0.07,0,0.15,0.01,0.23,0.01c0.15-0.54,0.31-1.07,0.48-1.6
	c0.17-0.52,0.34-1,0.5-1.43s0.31-0.8,0.45-1.12c0.14-0.31,0.25-0.53,0.32-0.64c0.08-0.13,0.21-0.19,0.4-0.19
	c0.16,0,0.32,0.03,0.49,0.09c0.17,0.06,0.32,0.14,0.45,0.23c0.13,0.09,0.22,0.2,0.27,0.33c0.05,0.13,0.03,0.26-0.06,0.4
	c-0.06,0.08-0.14,0.24-0.26,0.5c-0.11,0.25-0.24,0.56-0.39,0.91c-0.15,0.36-0.3,0.75-0.47,1.19c-0.17,0.44-0.33,0.89-0.49,1.35h0.41
	c0.06,0,0.1,0.04,0.12,0.11c0.02,0.08,0.02,0.16,0.01,0.24c-0.01,0.09-0.05,0.17-0.1,0.25c-0.05,0.08-0.13,0.12-0.21,0.13
	c-0.08,0.01-0.16,0.02-0.24,0.02c-0.08,0-0.16,0.01-0.25,0.02c-0.14,0.4-0.26,0.79-0.37,1.17c-0.11,0.38-0.2,0.73-0.27,1.06
	c-0.07,0.33-0.12,0.61-0.15,0.86c-0.03,0.25-0.02,0.43,0.01,0.56c0.02,0.06,0.06,0.09,0.12,0.1s0.11,0,0.16-0.03
	c0.11-0.07,0.24-0.19,0.38-0.38c0.15-0.18,0.3-0.4,0.47-0.64c0.06-0.09,0.12-0.18,0.18-0.28c0.02-0.36,0.08-0.73,0.18-1.12
	c0.12-0.47,0.3-0.9,0.54-1.29c0.24-0.39,0.53-0.71,0.87-0.98c0.34-0.26,0.73-0.39,1.17-0.39c0.18,0,0.36,0.03,0.54,0.09
	c0.18,0.06,0.34,0.16,0.48,0.29c0.14,0.13,0.25,0.29,0.35,0.5c0.09,0.2,0.14,0.44,0.14,0.72c-0.02,0.52-0.13,0.96-0.33,1.3
	c-0.2,0.34-0.45,0.62-0.75,0.83c-0.3,0.21-0.61,0.35-0.94,0.44c-0.33,0.08-0.63,0.13-0.91,0.13c-0.02,0.13-0.01,0.26,0.02,0.39
	c0.04,0.13,0.09,0.25,0.16,0.35c0.07,0.1,0.17,0.19,0.28,0.25c0.11,0.06,0.24,0.09,0.39,0.09c0.26,0,0.55-0.12,0.87-0.35
	c0.33-0.24,0.66-0.56,1-0.97c0.34-0.41,0.68-0.89,1.01-1.44C161.24,146.66,161.55,146.07,161.82,145.45L161.82,145.45z
	 M152.6,144.02c-0.09,0.08-0.2,0.12-0.35,0.11c-0.14,0-0.28-0.04-0.41-0.12c-0.13-0.07-0.24-0.18-0.32-0.32
	c-0.08-0.14-0.09-0.3-0.04-0.49c0.03-0.1,0.06-0.22,0.1-0.35c0.03-0.13,0.07-0.27,0.12-0.4c0.04-0.13,0.09-0.26,0.14-0.38
	c0.05-0.12,0.1-0.21,0.15-0.28c0.06-0.06,0.12-0.1,0.18-0.14c0.06-0.03,0.13-0.05,0.22-0.06c0.15-0.01,0.31,0.01,0.47,0.07
	c0.17,0.06,0.32,0.14,0.45,0.24c0.13,0.1,0.23,0.22,0.3,0.36c0.06,0.13,0.07,0.26,0.01,0.38L152.6,144.02L152.6,144.02z
	 M158.47,145.96c-0.09,0.05-0.19,0.15-0.31,0.3c-0.12,0.15-0.24,0.33-0.36,0.54c-0.12,0.21-0.23,0.44-0.33,0.7
	c-0.1,0.25-0.17,0.51-0.22,0.76c0.17-0.02,0.34-0.09,0.51-0.21c0.17-0.12,0.33-0.26,0.47-0.44c0.14-0.17,0.26-0.37,0.36-0.59
	c0.1-0.22,0.16-0.45,0.18-0.67c0.01-0.12,0-0.2-0.02-0.26c-0.03-0.05-0.05-0.09-0.09-0.12c-0.03-0.02-0.07-0.03-0.1-0.03
	C158.53,145.94,158.5,145.95,158.47,145.96L158.47,145.96z"/>
<path class="st0" d="M141.46,157.41c0-0.24,0.02-0.49,0.07-0.75c0.05-0.26,0.1-0.52,0.18-0.78c0.07-0.26,0.16-0.5,0.26-0.74
	c0.1-0.23,0.2-0.45,0.3-0.65c-0.2-0.01-0.4-0.04-0.59-0.09c-0.2-0.05-0.37-0.13-0.52-0.23c-0.15-0.1-0.28-0.23-0.38-0.4
	c-0.1-0.16-0.15-0.36-0.16-0.58c-0.02-0.33,0.07-0.63,0.26-0.88c0.19-0.25,0.45-0.37,0.78-0.36c0.18,0,0.32,0.04,0.42,0.13
	c0.1,0.09,0.18,0.2,0.22,0.34c0.04,0.14,0.06,0.29,0.04,0.45c-0.02,0.16-0.06,0.32-0.13,0.48c0.02,0.14,0.11,0.23,0.26,0.28
	c0.15,0.05,0.3,0.02,0.44-0.07c0.14-0.08,0.28-0.12,0.41-0.12c0.15,0,0.3,0.03,0.45,0.1c0.15,0.07,0.28,0.16,0.37,0.27
	c0.09,0.11,0.15,0.23,0.18,0.37c0.03,0.14-0.01,0.28-0.11,0.43c-0.11,0.15-0.24,0.35-0.38,0.6c-0.15,0.25-0.29,0.52-0.43,0.82
	c-0.14,0.3-0.26,0.6-0.36,0.9c-0.1,0.31-0.15,0.58-0.16,0.83c0,0.17,0.02,0.29,0.06,0.37c0.04,0.08,0.16,0.05,0.35-0.09
	c0.23-0.17,0.49-0.43,0.78-0.79c0.26-0.32,0.51-0.66,0.77-1.02c0.07-0.34,0.15-0.68,0.25-1.01c0.12-0.42,0.25-0.8,0.39-1.15
	c0.14-0.35,0.26-0.6,0.37-0.77c0.14-0.17,0.32-0.25,0.53-0.25c0.15,0,0.3,0.02,0.44,0.07c0.15,0.05,0.27,0.11,0.38,0.19
	c0.1,0.08,0.17,0.18,0.2,0.3c0.03,0.12,0,0.26-0.09,0.42c-0.09,0.17-0.2,0.4-0.33,0.7c-0.13,0.3-0.26,0.63-0.39,0.98
	c-0.13,0.36-0.25,0.71-0.35,1.07c-0.11,0.35-0.18,0.67-0.21,0.95c-0.04,0.26,0,0.41,0.11,0.46c0.11,0.05,0.25-0.07,0.42-0.37
	c0.13-0.22,0.26-0.5,0.41-0.84c0.14-0.34,0.29-0.7,0.43-1.07c0.14-0.37,0.28-0.73,0.41-1.09c0.13-0.35,0.25-0.65,0.33-0.9
	c0.05-0.15,0.09-0.28,0.13-0.38c0.04-0.11,0.07-0.18,0.1-0.22c0.11-0.17,0.28-0.25,0.5-0.25c0.15,0,0.3,0.02,0.45,0.05
	c0.15,0.03,0.28,0.09,0.39,0.15c0.11,0.07,0.18,0.16,0.22,0.27c0.04,0.11,0.02,0.24-0.06,0.4c-0.09,0.16-0.19,0.37-0.32,0.65
	c-0.12,0.27-0.25,0.56-0.38,0.88c-0.13,0.32-0.24,0.65-0.34,0.97c-0.1,0.33-0.17,0.64-0.21,0.93c0,0.03,0,0.09-0.02,0.17
	c-0.01,0.09-0.01,0.17-0.01,0.26c0,0.09,0.01,0.17,0.04,0.23c0.02,0.07,0.07,0.11,0.13,0.12c0.1,0,0.24-0.07,0.41-0.22
	c0.18-0.15,0.38-0.39,0.62-0.73c0.24-0.33,0.49-0.77,0.77-1.3c0.1-0.38,0.21-0.76,0.33-1.16c0.15-0.48,0.3-0.94,0.44-1.37
	c0.04-0.14,0.16-0.23,0.35-0.27c0.2-0.04,0.39-0.04,0.59,0c0.2,0.04,0.36,0.11,0.49,0.21c0.13,0.1,0.16,0.23,0.1,0.38
	c-0.08,0.21-0.17,0.41-0.26,0.62c-0.09,0.21-0.17,0.41-0.24,0.61c0.07-0.12,0.16-0.25,0.27-0.4c0.11-0.15,0.23-0.3,0.35-0.44
	c0.13-0.15,0.26-0.29,0.4-0.44c0.14-0.14,0.28-0.26,0.43-0.36c0.17-0.1,0.34-0.14,0.5-0.13c0.17,0.01,0.31,0.06,0.44,0.15
	c0.12,0.09,0.22,0.21,0.3,0.38c0.07,0.16,0.11,0.34,0.1,0.54c0.14-0.17,0.29-0.33,0.46-0.5c0.17-0.16,0.33-0.3,0.5-0.41
	c0.19-0.12,0.39-0.17,0.59-0.16c0.21,0.02,0.38,0.1,0.52,0.24c0.14,0.15,0.23,0.37,0.27,0.65c0.04,0.29-0.01,0.64-0.16,1.07
	c-0.03,0.1-0.06,0.18-0.08,0.24c-0.03,0.06-0.05,0.13-0.07,0.18c-0.02,0.06-0.05,0.12-0.07,0.18c-0.02,0.06-0.04,0.14-0.07,0.23
	c-0.14,0.41-0.26,0.8-0.35,1.17c-0.1,0.37-0.15,0.66-0.15,0.89c0,0.03,0.01,0.07,0.02,0.11c0.02,0.04,0.05,0.07,0.11,0.07
	c0.08,0,0.21-0.09,0.4-0.27c0.19-0.18,0.41-0.44,0.66-0.79c0.26-0.35,0.53-0.79,0.83-1.31c0.3-0.53,0.6-1.14,0.89-1.83
	c0.02-0.05,0.06-0.08,0.12-0.08c0.06,0,0.12,0,0.17,0.03c0.05,0.02,0.1,0.06,0.14,0.1c0.04,0.04,0.05,0.09,0.03,0.14
	c-0.05,0.09-0.13,0.28-0.25,0.56c-0.12,0.28-0.27,0.6-0.44,0.97c-0.18,0.37-0.38,0.75-0.6,1.15c-0.22,0.4-0.45,0.78-0.7,1.12
	c-0.24,0.34-0.49,0.63-0.75,0.87c-0.26,0.24-0.52,0.37-0.78,0.41c-0.25,0.02-0.45,0-0.61-0.06c-0.16-0.06-0.29-0.15-0.39-0.28
	c-0.1-0.13-0.17-0.28-0.21-0.46c-0.04-0.18-0.07-0.37-0.07-0.58c0-0.32,0.05-0.66,0.14-1.05c0.09-0.38,0.18-0.76,0.26-1.14
	c0.06-0.27,0.08-0.45,0.05-0.55c-0.02-0.1-0.07-0.14-0.15-0.12c-0.07,0.02-0.16,0.09-0.27,0.23c-0.1,0.13-0.21,0.3-0.3,0.5
	c-0.09,0.2-0.18,0.44-0.27,0.72c-0.09,0.28-0.16,0.57-0.23,0.87c-0.06,0.29-0.12,0.58-0.16,0.84c-0.04,0.27-0.05,0.47-0.04,0.62
	c0.01,0.17-0.07,0.29-0.24,0.38c-0.17,0.09-0.36,0.11-0.58,0.08c-0.21-0.03-0.4-0.12-0.56-0.28c-0.16-0.16-0.22-0.39-0.18-0.7
	c0.05-0.29,0.12-0.62,0.21-0.99c0.09-0.37,0.19-0.73,0.3-1.11c0.08-0.27,0.15-0.51,0.2-0.74c0.05-0.23,0.04-0.37-0.04-0.41
	c-0.05-0.05-0.15-0.02-0.3,0.09c-0.15,0.11-0.3,0.32-0.46,0.64c-0.09,0.2-0.19,0.42-0.3,0.66c-0.11,0.25-0.21,0.5-0.3,0.76
	c-0.09,0.26-0.18,0.51-0.26,0.76c-0.08,0.25-0.14,0.46-0.18,0.65c-0.05,0.19-0.14,0.36-0.27,0.5c-0.13,0.15-0.32,0.2-0.57,0.16
	c-0.09-0.01-0.16-0.04-0.23-0.1c-0.06-0.06-0.12-0.13-0.16-0.21c-0.04-0.08-0.08-0.16-0.1-0.25c-0.02-0.09-0.03-0.17-0.03-0.25
	c0-0.19,0.02-0.4,0.05-0.64c-0.04,0.06-0.08,0.13-0.12,0.19c-0.23,0.35-0.46,0.65-0.7,0.89c-0.24,0.24-0.47,0.37-0.69,0.39
	c-0.39,0.04-0.7-0.07-0.92-0.33c-0.22-0.26-0.33-0.6-0.34-1.02c-0.09,0.17-0.19,0.33-0.3,0.49c-0.11,0.16-0.23,0.3-0.35,0.42
	c-0.13,0.12-0.26,0.22-0.41,0.3c-0.14,0.08-0.28,0.12-0.42,0.12c-0.12,0-0.25-0.02-0.38-0.06c-0.14-0.04-0.27-0.11-0.4-0.22
	c-0.13-0.11-0.24-0.27-0.33-0.47c-0.09-0.21-0.14-0.48-0.15-0.83l0-0.1c-0.12,0.18-0.25,0.34-0.37,0.5
	c-0.27,0.34-0.54,0.63-0.81,0.86c-0.27,0.23-0.52,0.34-0.76,0.34c-0.2,0-0.37-0.05-0.53-0.16c-0.16-0.11-0.29-0.25-0.39-0.42
	c-0.1-0.17-0.18-0.37-0.24-0.59C141.49,157.89,141.46,157.66,141.46,157.41L141.46,157.41z"/>
<path class="st10" d="M43.07,45.88c33.65,41.68,67.3,83.36,100.96,125.04l-0.16,71.36c-3.34-0.09-4.16,17.99,0.66,18
	c1.47,17.13-47.37,27.4-52.78,29.49c-4.65,1.8-6.46,3.93-5.91,7.23h127.33c0.55-3.3-1.26-5.44-5.91-7.23
	c-5.4-2.09-54.24-12.36-52.77-29.49c4.82-0.01,4-18.09,0.66-18l-0.16-71.36c33.66-41.68,67.31-83.36,100.96-125.04
	C185,45.88,114.04,45.88,43.07,45.88L43.07,45.88z M89.77,294.97c-0.18-1.77,2.11-2.99,6.91-4.3c6.94-1.89,52.82-11.88,50.89-31.78
	c-4.82-0.01-3.69-15.46-0.35-15.37l-0.19-65.73c0-2.26,1.21-3.37,2.48-3.43c1.27,0.07,2.48,1.17,2.48,3.43l-0.19,65.73
	c3.34-0.09,4.48,15.36-0.35,15.37c-1.93,19.9,43.95,29.89,50.89,31.78c4.79,1.31,7.08,2.53,6.91,4.3
	C169.4,294.93,129.64,294.93,89.77,294.97L89.77,294.97z M149.52,169.19c-1.39-0.05-2.8-0.64-3.82-1.85L51.28,49.61
	c69.69,0,126.78,0,196.47,0l-94.42,117.73C152.31,168.56,150.91,169.15,149.52,169.19L149.52,169.19z"/>
<path class="st9" d="M168.82,66.32c-0.1,0.06-0.22,0.17-0.35,0.33c-0.13,0.17-0.27,0.37-0.4,0.61c-0.13,0.24-0.26,0.5-0.37,0.79
	s-0.2,0.57-0.25,0.86c0.19-0.02,0.38-0.1,0.58-0.23c0.19-0.13,0.37-0.3,0.53-0.49c0.16-0.2,0.3-0.42,0.41-0.67
	c0.11-0.25,0.18-0.51,0.2-0.76c0.01-0.13,0-0.23-0.03-0.29c-0.03-0.06-0.06-0.11-0.1-0.13c-0.04-0.03-0.08-0.04-0.12-0.03
	C168.89,66.3,168.85,66.31,168.82,66.32L168.82,66.32z M171.9,67.18c-0.06-0.41-0.04-0.76,0.06-1.07c0.14-0.44,0.37-0.78,0.69-1.02
	c0.31-0.24,0.67-0.38,1.07-0.43c0.4-0.05,0.76,0,1.09,0.15c0.23,0.1,0.42,0.25,0.56,0.44c0.14,0.2,0.23,0.41,0.28,0.64
	c0.05,0.23,0.06,0.46,0.02,0.69c-0.04,0.23-0.11,0.44-0.23,0.62c-0.07,0.11-0.16,0.18-0.28,0.22c-0.12,0.03-0.25,0.05-0.39,0.04
	c-0.14-0.01-0.27-0.03-0.4-0.08c-0.13-0.04-0.23-0.09-0.29-0.13c-0.08-0.06-0.12-0.12-0.12-0.21c0-0.08,0.02-0.16,0.07-0.24
	c0.12-0.2,0.13-0.36,0.02-0.47c-0.09-0.09-0.21-0.1-0.35-0.04c-0.14,0.06-0.23,0.2-0.25,0.43c0,0.27,0.05,0.55,0.15,0.85
	c0.1,0.3,0.22,0.6,0.35,0.91c0.14,0.31,0.26,0.6,0.39,0.89c0.12,0.28,0.2,0.54,0.23,0.78v0.23c0.48-0.39,0.99-0.96,1.54-1.7
	c0.55-0.74,1.05-1.72,1.51-2.94c0.01-0.04,0.05-0.07,0.12-0.07c0.07-0.01,0.13,0,0.2,0.02c0.07,0.02,0.12,0.06,0.17,0.1
	c0.04,0.05,0.06,0.09,0.05,0.13c-0.16,0.36-0.36,0.82-0.61,1.39c-0.25,0.57-0.57,1.15-0.95,1.73c-0.39,0.58-0.84,1.13-1.37,1.64
	c-0.53,0.51-1.15,0.88-1.86,1.11c-0.23,0.1-0.5,0.17-0.8,0.2c-0.28,0.02-0.52,0.02-0.71-0.02c-0.2-0.03-0.36-0.09-0.49-0.17
	c-0.13-0.08-0.22-0.17-0.28-0.28c-0.06-0.11-0.09-0.23-0.09-0.35c-0.01-0.18,0.03-0.33,0.13-0.46c0.1-0.13,0.21-0.21,0.34-0.26
	c0.13-0.04,0.25-0.04,0.37,0.02c0.12,0.06,0.19,0.18,0.23,0.38c0.02,0.12,0.09,0.18,0.22,0.18c0.18,0,0.3-0.07,0.37-0.21
	c0.07-0.14,0.1-0.32,0.08-0.54c-0.01-0.22-0.05-0.45-0.11-0.71c-0.06-0.26-0.13-0.51-0.21-0.75c-0.08-0.25-0.15-0.47-0.22-0.67
	c-0.04-0.11-0.06-0.2-0.09-0.27l-0.14,0.23c-0.26,0.43-0.55,0.86-0.86,1.29c-0.31,0.43-0.64,0.82-1,1.17
	c-0.35,0.35-0.71,0.64-1.09,0.86c-0.37,0.22-0.75,0.34-1.13,0.35c-0.3,0-0.57-0.06-0.82-0.19c-0.25-0.13-0.46-0.31-0.64-0.54
	c-0.18-0.23-0.33-0.5-0.43-0.8c-0.1-0.31-0.15-0.64-0.15-1.01c0-0.47,0.07-0.97,0.21-1.5c0.14-0.53,0.34-1.01,0.61-1.45
	c0.27-0.44,0.59-0.81,0.98-1.1c0.38-0.3,0.83-0.44,1.33-0.44c0.2,0,0.4,0.04,0.61,0.11c0.21,0.07,0.39,0.18,0.54,0.33
	c0.16,0.15,0.29,0.33,0.39,0.56c0.11,0.23,0.16,0.5,0.16,0.81c-0.02,0.59-0.15,1.08-0.38,1.47c-0.23,0.39-0.51,0.7-0.84,0.94
	c-0.33,0.23-0.69,0.4-1.06,0.49c-0.37,0.1-0.72,0.14-1.03,0.14c-0.02,0.14-0.01,0.29,0.03,0.44c0.04,0.15,0.1,0.28,0.18,0.4
	c0.08,0.12,0.19,0.21,0.32,0.28s0.28,0.11,0.44,0.11c0.29,0,0.62-0.13,0.99-0.4c0.37-0.27,0.74-0.63,1.13-1.09
	c0.39-0.46,0.77-1,1.15-1.62C171.69,67.55,171.8,67.36,171.9,67.18L171.9,67.18z M125.08,65c0.19-0.11,0.38-0.16,0.57-0.15
	c0.19,0.01,0.35,0.07,0.49,0.17c0.14,0.1,0.25,0.24,0.33,0.43c0.08,0.18,0.12,0.39,0.11,0.61c0.16-0.19,0.33-0.38,0.52-0.56
	c0.19-0.18,0.38-0.34,0.57-0.46c0.21-0.13,0.44-0.19,0.67-0.18c0.23,0.02,0.43,0.11,0.59,0.28c0.16,0.17,0.26,0.41,0.31,0.74
	c0.04,0.32-0.02,0.72-0.18,1.2c-0.03,0.11-0.07,0.2-0.09,0.28c-0.03,0.07-0.06,0.14-0.08,0.21c-0.03,0.07-0.05,0.14-0.07,0.21
	c-0.02,0.07-0.05,0.16-0.08,0.26c-0.16,0.47-0.29,0.91-0.4,1.32c-0.11,0.41-0.17,0.75-0.17,1c0,0.03,0.01,0.07,0.03,0.13
	c0.02,0.05,0.06,0.07,0.13,0.07c0.09,0,0.24-0.1,0.45-0.3c0.21-0.2,0.46-0.5,0.75-0.89c0.09-0.13,0.19-0.27,0.29-0.42l0.02-0.15
	c0.08-0.45,0.18-0.9,0.3-1.34c0.12-0.44,0.25-0.86,0.39-1.25c0.14-0.39,0.28-0.7,0.41-0.94c0.1-0.19,0.28-0.3,0.53-0.33
	c0.26-0.03,0.5,0.01,0.74,0.11c0.23,0.1,0.42,0.25,0.55,0.44c0.13,0.2,0.13,0.42,0,0.66c-0.1,0.2-0.23,0.45-0.38,0.74
	c-0.15,0.3-0.3,0.61-0.44,0.95c-0.14,0.34-0.27,0.69-0.38,1.05c-0.11,0.36-0.18,0.69-0.21,0.99c0,0.06,0,0.12,0,0.19
	c0,0.07,0.01,0.15,0.03,0.22c0.02,0.07,0.04,0.14,0.08,0.19c0.03,0.06,0.08,0.09,0.15,0.1c0.13,0,0.3-0.08,0.49-0.24
	c0.19-0.16,0.39-0.38,0.59-0.65c0.21-0.27,0.42-0.59,0.64-0.94c0.13-0.21,0.25-0.42,0.37-0.63c0.13-0.49,0.27-1,0.43-1.51
	c0.17-0.55,0.33-1.07,0.5-1.56c0.05-0.12,0.17-0.2,0.39-0.23c0.21-0.03,0.43-0.03,0.64,0.02c0.22,0.05,0.4,0.12,0.55,0.23
	s0.19,0.25,0.11,0.42c-0.09,0.23-0.19,0.47-0.3,0.7c-0.11,0.23-0.21,0.46-0.28,0.67c0.08-0.12,0.18-0.26,0.31-0.43
	c0.13-0.16,0.27-0.33,0.42-0.49c0.15-0.17,0.31-0.33,0.47-0.49c0.16-0.16,0.33-0.29,0.49-0.4c0.21-0.13,0.42-0.19,0.64-0.17
	c0.21,0.02,0.39,0.1,0.54,0.24c0.15,0.14,0.26,0.33,0.33,0.59c0.07,0.25,0.06,0.54-0.02,0.88c-0.04,0.2-0.12,0.47-0.23,0.81
	c-0.11,0.34-0.22,0.69-0.33,1.06c-0.11,0.37-0.21,0.72-0.3,1.07c-0.09,0.35-0.13,0.62-0.13,0.82c0,0.03,0.01,0.07,0.03,0.13
	c0.02,0.05,0.05,0.07,0.11,0.07c0.09,0,0.24-0.1,0.46-0.3c0.22-0.2,0.47-0.5,0.76-0.9c0.25-0.35,0.53-0.78,0.81-1.27
	c0.11-0.59,0.24-1.22,0.39-1.87l-0.25-0.02c-0.19-0.01-0.32-0.04-0.39-0.09c-0.07-0.05-0.11-0.11-0.11-0.19
	c0-0.12,0.04-0.25,0.11-0.38c0.07-0.13,0.19-0.19,0.34-0.17c0.09,0.01,0.18,0.02,0.26,0.02c0.08,0.01,0.17,0.01,0.26,0.01
	c0.17-0.61,0.35-1.22,0.54-1.81c0.2-0.59,0.39-1.13,0.57-1.62c0.18-0.49,0.35-0.91,0.51-1.26c0.16-0.35,0.28-0.59,0.37-0.73
	c0.09-0.14,0.24-0.22,0.45-0.22c0.18,0,0.36,0.03,0.56,0.1c0.19,0.07,0.37,0.15,0.51,0.26c0.14,0.11,0.25,0.23,0.3,0.38
	c0.06,0.14,0.03,0.3-0.07,0.45c-0.07,0.09-0.16,0.28-0.29,0.56c-0.13,0.28-0.28,0.63-0.44,1.03c-0.17,0.4-0.34,0.85-0.53,1.35
	c-0.19,0.5-0.37,1.01-0.55,1.53h0.47c0.07,0,0.11,0.04,0.13,0.13c0.02,0.08,0.03,0.18,0.01,0.28c-0.02,0.1-0.06,0.2-0.12,0.28
	c-0.06,0.09-0.14,0.14-0.24,0.15c-0.09,0.01-0.18,0.02-0.27,0.03c-0.09,0.01-0.18,0.01-0.28,0.02c-0.16,0.46-0.3,0.9-0.42,1.33
	s-0.23,0.83-0.31,1.2c-0.08,0.37-0.14,0.69-0.18,0.97c-0.03,0.28-0.03,0.49,0.02,0.64c0.02,0.07,0.07,0.11,0.13,0.12
	c0.07,0.01,0.13,0,0.18-0.03c0.12-0.08,0.27-0.22,0.44-0.43c0.17-0.21,0.35-0.45,0.53-0.73c0.19-0.28,0.38-0.59,0.58-0.92
	c0.19-0.33,0.38-0.66,0.55-0.99c0.17-0.32,0.33-0.63,0.47-0.93c0.14-0.3,0.25-0.55,0.33-0.76c0.02-0.06,0.07-0.09,0.13-0.09
	c0.07,0,0.14,0.01,0.21,0.03c0.07,0.03,0.13,0.07,0.18,0.12c0.05,0.05,0.07,0.1,0.06,0.16c-0.07,0.1-0.17,0.31-0.31,0.63
	c-0.14,0.32-0.31,0.69-0.5,1.12c-0.19,0.43-0.41,0.88-0.64,1.35c-0.23,0.47-0.48,0.9-0.74,1.3c-0.26,0.4-0.51,0.73-0.77,1
	c-0.26,0.26-0.51,0.4-0.75,0.41c-0.47,0.02-0.84-0.1-1.1-0.37c-0.27-0.27-0.43-0.65-0.49-1.15c-0.02-0.17-0.03-0.35-0.03-0.54
	c-0.13,0.21-0.27,0.41-0.41,0.61c-0.28,0.39-0.56,0.72-0.85,0.99c-0.29,0.27-0.58,0.42-0.87,0.47c-0.27,0.02-0.49,0-0.68-0.07
	c-0.18-0.07-0.33-0.17-0.44-0.32c-0.11-0.14-0.19-0.32-0.24-0.52c-0.05-0.2-0.08-0.42-0.08-0.65c0-0.36,0.05-0.75,0.16-1.18
	c0.11-0.43,0.2-0.86,0.29-1.28c0.07-0.3,0.08-0.51,0.04-0.63c-0.04-0.12-0.11-0.16-0.21-0.14c-0.1,0.03-0.21,0.12-0.34,0.26
	c-0.13,0.15-0.24,0.33-0.34,0.55c-0.1,0.22-0.21,0.48-0.33,0.76c-0.12,0.28-0.24,0.57-0.34,0.87c-0.11,0.29-0.21,0.58-0.3,0.86
	c-0.09,0.28-0.16,0.52-0.21,0.74c-0.04,0.2-0.14,0.38-0.28,0.55c-0.14,0.17-0.36,0.23-0.64,0.18c-0.2-0.02-0.35-0.14-0.44-0.34
	c-0.09-0.21-0.14-0.39-0.14-0.56c0-0.18,0.01-0.38,0.04-0.6c-0.05,0.07-0.1,0.14-0.15,0.21c-0.28,0.38-0.59,0.7-0.91,0.95
	c-0.32,0.25-0.65,0.37-0.99,0.37c-0.28,0-0.51-0.05-0.7-0.13c-0.19-0.09-0.34-0.21-0.46-0.37c-0.12-0.16-0.2-0.35-0.25-0.56
	c-0.03-0.12-0.05-0.25-0.06-0.39c-0.27,0.38-0.55,0.71-0.84,0.97c-0.3,0.27-0.59,0.42-0.88,0.47c-0.28,0.02-0.51,0-0.69-0.07
	c-0.18-0.07-0.33-0.17-0.44-0.32c-0.11-0.14-0.19-0.32-0.24-0.52c-0.05-0.2-0.08-0.42-0.08-0.65c0-0.36,0.05-0.75,0.16-1.19
	c0.11-0.44,0.2-0.86,0.29-1.29c0.07-0.3,0.09-0.51,0.06-0.62c-0.03-0.11-0.08-0.16-0.17-0.13c-0.08,0.02-0.18,0.11-0.3,0.26
	c-0.12,0.15-0.23,0.34-0.34,0.56c-0.1,0.22-0.2,0.49-0.3,0.81c-0.1,0.32-0.19,0.64-0.26,0.98c-0.07,0.33-0.13,0.65-0.18,0.95
	c-0.04,0.3-0.06,0.53-0.05,0.7c0.01,0.19-0.08,0.33-0.28,0.43c-0.19,0.09-0.41,0.13-0.65,0.09c-0.24-0.03-0.45-0.14-0.64-0.32
	c-0.18-0.18-0.25-0.44-0.21-0.79c0.06-0.33,0.14-0.71,0.24-1.12c0.11-0.41,0.22-0.83,0.34-1.25c0.09-0.3,0.16-0.58,0.23-0.84
	c0.06-0.26,0.05-0.41-0.04-0.47c-0.06-0.05-0.17-0.02-0.33,0.1c-0.17,0.12-0.34,0.36-0.52,0.72c-0.1,0.22-0.21,0.47-0.33,0.75
	c-0.12,0.28-0.24,0.57-0.34,0.86c-0.1,0.29-0.2,0.58-0.29,0.86c-0.09,0.28-0.16,0.52-0.2,0.74c-0.06,0.21-0.16,0.4-0.31,0.57
	c-0.15,0.17-0.37,0.23-0.64,0.18c-0.1-0.01-0.19-0.05-0.26-0.12c-0.07-0.07-0.13-0.14-0.18-0.23c-0.05-0.09-0.09-0.18-0.11-0.28
	c-0.02-0.1-0.03-0.19-0.03-0.28c0-0.31,0.04-0.69,0.12-1.15c0.08-0.45,0.18-0.94,0.31-1.46c0.13-0.52,0.28-1.05,0.44-1.6
	c0.17-0.55,0.34-1.06,0.5-1.55c0.04-0.16,0.18-0.26,0.4-0.3c0.22-0.04,0.45-0.04,0.67,0c0.22,0.05,0.41,0.13,0.56,0.24
	c0.15,0.12,0.19,0.26,0.11,0.43c-0.09,0.23-0.19,0.47-0.29,0.7c-0.11,0.23-0.2,0.46-0.28,0.69c0.08-0.13,0.18-0.28,0.3-0.45
	c0.12-0.17,0.26-0.33,0.4-0.5c0.14-0.17,0.3-0.33,0.45-0.49C124.75,65.24,124.91,65.11,125.08,65L125.08,65z M133.16,64.13
	c-0.1,0.09-0.23,0.13-0.39,0.13c-0.16-0.01-0.32-0.05-0.47-0.13c-0.15-0.08-0.27-0.2-0.36-0.36c-0.09-0.16-0.11-0.34-0.05-0.55
	c0.03-0.11,0.07-0.24,0.11-0.39c0.04-0.15,0.08-0.3,0.13-0.45c0.05-0.15,0.1-0.29,0.16-0.43c0.06-0.13,0.11-0.24,0.17-0.32
	c0.07-0.07,0.13-0.12,0.2-0.15c0.07-0.03,0.15-0.06,0.25-0.07c0.17-0.01,0.35,0.02,0.53,0.08c0.19,0.07,0.36,0.16,0.51,0.28
	c0.15,0.12,0.26,0.25,0.33,0.4c0.07,0.15,0.07,0.29,0.01,0.43L133.16,64.13L133.16,64.13z M149.22,59.98
	c0.09-0.14,0.24-0.22,0.47-0.22c0.18,0,0.37,0.03,0.56,0.1c0.19,0.07,0.37,0.15,0.51,0.26c0.14,0.11,0.25,0.23,0.3,0.38
	c0.06,0.15,0.03,0.3-0.07,0.45c-0.09,0.12-0.23,0.41-0.43,0.86c-0.2,0.45-0.42,0.99-0.66,1.62c-0.25,0.63-0.5,1.3-0.75,2.02
	c-0.26,0.72-0.48,1.41-0.68,2.07c-0.19,0.66-0.34,1.26-0.44,1.78c-0.1,0.52-0.12,0.9-0.05,1.12c0.02,0.07,0.06,0.11,0.13,0.12
	c0.06,0.01,0.12,0,0.18-0.03c0.18-0.11,0.39-0.32,0.64-0.62c0.15-0.19,0.31-0.4,0.47-0.63v0c0-0.47,0.07-0.97,0.21-1.5
	c0.14-0.53,0.34-1.01,0.61-1.45c0.27-0.44,0.59-0.81,0.98-1.1c0.39-0.3,0.83-0.44,1.33-0.44c0.2,0,0.41,0.04,0.61,0.11
	c0.21,0.07,0.39,0.18,0.54,0.33c0.16,0.15,0.29,0.33,0.39,0.56c0.11,0.23,0.16,0.5,0.16,0.81c-0.02,0.59-0.15,1.08-0.38,1.47
	c-0.23,0.39-0.51,0.7-0.84,0.94c-0.33,0.23-0.69,0.4-1.06,0.49c-0.37,0.1-0.72,0.14-1.03,0.14c-0.02,0.14-0.01,0.29,0.02,0.44
	c0.04,0.15,0.1,0.28,0.18,0.4c0.08,0.12,0.19,0.21,0.32,0.28c0.13,0.07,0.28,0.11,0.44,0.11c0.29,0,0.62-0.13,0.99-0.4
	c0.37-0.27,0.74-0.63,1.13-1.09c0.25-0.3,0.5-0.63,0.74-1c0.09-0.41,0.21-0.81,0.36-1.2c0.16-0.43,0.34-0.83,0.54-1.18
	c0.2-0.35,0.41-0.61,0.62-0.78c0.18-0.13,0.36-0.23,0.55-0.29c0.19-0.06,0.37-0.09,0.55-0.09c0.27,0,0.51,0.06,0.72,0.18
	c0.21,0.12,0.37,0.3,0.47,0.56c0.03-0.08,0.06-0.13,0.08-0.17c0.02-0.03,0.05-0.09,0.11-0.19c0.08-0.14,0.23-0.21,0.44-0.21
	c0.22,0,0.43,0.05,0.64,0.14c0.21,0.09,0.38,0.2,0.53,0.34c0.15,0.14,0.18,0.28,0.12,0.41c-0.21,0.47-0.41,0.93-0.59,1.4
	c-0.18,0.46-0.35,0.89-0.48,1.3c-0.14,0.4-0.24,0.76-0.31,1.07c-0.07,0.31-0.09,0.55-0.07,0.72c0.02,0.09,0.06,0.14,0.11,0.14
	c0.05,0,0.11-0.01,0.17-0.05c0.06-0.04,0.12-0.09,0.18-0.15c0.06-0.06,0.1-0.11,0.13-0.14c0.22-0.24,0.46-0.57,0.72-0.98
	c0.1-0.16,0.2-0.32,0.3-0.48c0.02-0.14,0.03-0.28,0.05-0.43c0.07-0.46,0.16-0.9,0.27-1.34c0.11-0.44,0.23-0.84,0.37-1.2
	c0.13-0.36,0.26-0.63,0.39-0.81c0.07-0.1,0.16-0.17,0.27-0.22c0.11-0.05,0.23-0.07,0.35-0.07c0.17,0,0.33,0.02,0.5,0.07
	c0.17,0.05,0.31,0.12,0.43,0.21c0.12,0.09,0.19,0.2,0.21,0.34c0.02,0.14-0.02,0.29-0.13,0.46c-0.13,0.2-0.28,0.49-0.44,0.86
	c-0.16,0.37-0.3,0.78-0.43,1.2c-0.13,0.43-0.23,0.86-0.31,1.29c-0.08,0.43-0.11,0.8-0.08,1.11c0,0.11,0.02,0.19,0.06,0.23
	c0.04,0.04,0.08,0.06,0.13,0.06c0.04,0,0.09-0.01,0.13-0.04c0.04-0.03,0.08-0.06,0.12-0.09c0.22-0.23,0.44-0.57,0.66-1
	c0.22-0.43,0.42-0.92,0.61-1.46c-0.07-0.2-0.12-0.41-0.15-0.62c-0.03-0.22-0.04-0.49-0.01-0.79c0.03-0.3,0.09-0.59,0.18-0.85
	c0.09-0.27,0.23-0.5,0.39-0.69c0.17-0.19,0.38-0.3,0.64-0.32c0.28-0.02,0.51,0.05,0.68,0.22c0.17,0.17,0.28,0.41,0.33,0.72
	c0.05,0.31,0.04,0.66-0.04,1.06c-0.08,0.4-0.23,0.83-0.45,1.27c0.18,0.03,0.37,0,0.57-0.11c0.2-0.11,0.4-0.26,0.58-0.47
	c0.19-0.21,0.37-0.44,0.54-0.72c0.17-0.27,0.3-0.56,0.4-0.86c0-0.08,0.04-0.14,0.12-0.18c0.08-0.04,0.16-0.06,0.23-0.05
	c0.08,0.01,0.15,0.04,0.2,0.1c0.05,0.06,0.07,0.14,0.03,0.27c-0.07,0.26-0.21,0.58-0.43,0.97c-0.22,0.39-0.48,0.76-0.78,1.11
	c-0.3,0.35-0.63,0.63-0.99,0.85c-0.36,0.21-0.71,0.26-1.05,0.15c-0.19,0.35-0.39,0.69-0.61,1.02c-0.22,0.33-0.45,0.63-0.69,0.9
	c-0.24,0.27-0.49,0.49-0.74,0.65c-0.25,0.17-0.5,0.25-0.74,0.25c-0.26,0-0.5-0.1-0.73-0.29c-0.23-0.2-0.4-0.47-0.53-0.83
	c-0.04-0.13-0.08-0.26-0.1-0.4l-0.09,0.14c-0.26,0.4-0.53,0.72-0.8,0.98c-0.27,0.26-0.54,0.38-0.81,0.38c-0.29,0-0.54-0.1-0.76-0.3
	c-0.22-0.2-0.36-0.47-0.43-0.8c-0.07,0.12-0.15,0.25-0.25,0.38c-0.1,0.13-0.21,0.25-0.33,0.35c-0.12,0.11-0.26,0.2-0.41,0.27
	c-0.15,0.07-0.31,0.12-0.49,0.13c-0.48,0-0.88-0.16-1.2-0.49c-0.32-0.33-0.49-0.82-0.49-1.48c0-0.09,0-0.19,0.01-0.29
	c-0.29,0.39-0.6,0.75-0.92,1.07c-0.35,0.35-0.71,0.64-1.09,0.86c-0.37,0.22-0.75,0.34-1.13,0.35c-0.3,0-0.57-0.06-0.82-0.19
	c-0.25-0.13-0.46-0.31-0.64-0.54c-0.14-0.17-0.26-0.37-0.35-0.59c-0.24,0.36-0.49,0.66-0.75,0.9c-0.28,0.26-0.56,0.39-0.85,0.39
	c-0.2,0-0.39-0.03-0.58-0.08c-0.18-0.06-0.35-0.15-0.49-0.28c-0.14-0.13-0.25-0.3-0.34-0.52c-0.09-0.22-0.14-0.49-0.15-0.81
	c-0.01-0.43,0.03-0.96,0.13-1.59c0.1-0.63,0.23-1.28,0.4-1.98c0.17-0.7,0.36-1.4,0.57-2.11c0.21-0.71,0.42-1.36,0.64-1.97
	c0.21-0.6,0.41-1.12,0.58-1.56C148.96,60.45,149.1,60.15,149.22,59.98L149.22,59.98z M152.38,66.32c-0.1,0.06-0.22,0.17-0.35,0.33
	c-0.13,0.17-0.27,0.37-0.4,0.61c-0.13,0.24-0.26,0.5-0.37,0.79s-0.2,0.57-0.25,0.86c0.19-0.02,0.38-0.1,0.58-0.23
	c0.2-0.13,0.37-0.3,0.54-0.49c0.16-0.2,0.3-0.42,0.41-0.67c0.11-0.25,0.18-0.51,0.2-0.76c0.01-0.13,0-0.23-0.02-0.29
	c-0.03-0.06-0.06-0.11-0.1-0.13c-0.04-0.03-0.08-0.04-0.12-0.03C152.45,66.3,152.41,66.31,152.38,66.32L152.38,66.32z M158.05,66.74
	c0-0.03,0-0.09-0.01-0.16c-0.01-0.07-0.02-0.14-0.03-0.21c-0.02-0.07-0.04-0.13-0.07-0.19c-0.03-0.05-0.06-0.08-0.11-0.08
	c-0.13,0-0.28,0.1-0.44,0.31c-0.16,0.21-0.32,0.46-0.47,0.78c-0.15,0.31-0.29,0.66-0.43,1.04c-0.13,0.38-0.24,0.74-0.32,1.07
	c-0.02,0.1-0.05,0.24-0.08,0.42c-0.03,0.18-0.05,0.35-0.06,0.53c0,0.17,0.01,0.32,0.04,0.45c0.03,0.13,0.11,0.19,0.22,0.19
	c0.14,0,0.29-0.08,0.44-0.24c0.14-0.16,0.28-0.37,0.41-0.63c0.13-0.26,0.25-0.54,0.36-0.85c0.11-0.31,0.21-0.62,0.29-0.93
	c0.08-0.31,0.15-0.59,0.19-0.86C158.02,67.1,158.05,66.89,158.05,66.74L158.05,66.74z"/>
</svg>
