<?xml version="1.0" encoding="utf-8"?>
<!-- Generator: Adobe Illustrator 23.0.1, SVG Export Plug-In . SVG Version: 6.00 Build 0)  -->
<svg version="1.1" id="Layer_7" xmlns="http://www.w3.org/2000/svg" xmlns:xlink="http://www.w3.org/1999/xlink" x="0px" y="0px"
	 viewBox="0 0 300 300" style="enable-background:new 0 0 300 300;" xml:space="preserve">
<style type="text/css">
	.st0{fill:#4E4236;}
	.st1{fill-rule:evenodd;clip-rule:evenodd;fill:#FFCD05;}
	.st2{fill-rule:evenodd;clip-rule:evenodd;fill:#D59B2D;}
	.st3{fill-rule:evenodd;clip-rule:evenodd;fill:#981F38;}
	.st4{fill-rule:evenodd;clip-rule:evenodd;fill:#DCAB26;}
	.st5{fill-rule:evenodd;clip-rule:evenodd;fill:#B27B2B;}
	.st6{fill-rule:evenodd;clip-rule:evenodd;fill:#761018;}
	.st7{fill-rule:evenodd;clip-rule:evenodd;fill:#FFFFFF;}
	.st8{fill-rule:evenodd;clip-rule:evenodd;fill:#4E4236;}
	.st9{fill:#FFFFFF;}
</style>
<path class="st0" d="M192.36,12.24c0.13-0.02,0.37-0.02,0.7,0.02c0.33,0.03,0.65,0.12,0.95,0.27c0.3,0.15,0.53,0.37,0.69,0.69
	c0.16,0.31,0.13,0.74-0.07,1.27c0.05-0.11,0.16-0.27,0.34-0.47c0.18-0.2,0.41-0.4,0.69-0.6c0.28-0.2,0.59-0.37,0.92-0.52
	c0.34-0.15,0.68-0.22,1.04-0.22c1.01,0,1.79,0.4,2.37,1.19c0.57,0.79,0.69,2,0.35,3.61c-0.13,0.58-0.32,1.22-0.57,1.91
	c-0.24,0.69-0.54,1.36-0.89,2.01c-0.35,0.65-0.73,1.26-1.14,1.83c-0.41,0.57-0.83,1.02-1.26,1.36c0.38,0,0.92-0.2,1.61-0.6
	c0.69-0.4,1.45-1.02,2.26-1.84c0.82-0.83,1.65-1.86,2.5-3.1c0.85-1.24,1.62-2.69,2.31-4.34c0.04-0.09,0.13-0.14,0.25-0.15
	c0.12-0.01,0.25,0,0.39,0.05c0.13,0.05,0.25,0.11,0.35,0.2c0.1,0.09,0.14,0.18,0.12,0.27c-0.22,0.52-0.51,1.15-0.86,1.9
	c-0.35,0.75-0.77,1.53-1.26,2.35c-0.49,0.82-1.05,1.64-1.68,2.47c-0.63,0.83-1.34,1.59-2.13,2.3c-0.79,0.7-1.67,1.3-2.63,1.79
	c-0.96,0.49-2.01,0.82-3.15,0.97c-0.07,0-0.22,0-0.47,0.02c-0.25,0.01-0.51-0.02-0.81-0.08c-0.29-0.07-0.57-0.19-0.84-0.37
	c-0.27-0.18-0.44-0.46-0.5-0.84c-0.04-0.22-0.04-0.46,0-0.7c0.04-0.24,0.13-0.47,0.27-0.67c0.14-0.2,0.32-0.36,0.55-0.49
	c0.23-0.12,0.52-0.15,0.86-0.09c0.22,0,0.49-0.21,0.79-0.62c0.3-0.41,0.6-0.93,0.89-1.54c0.29-0.62,0.56-1.28,0.8-2
	c0.25-0.72,0.44-1.39,0.57-2.03c0.13-0.64,0.19-1.17,0.17-1.61c-0.02-0.44-0.17-0.69-0.44-0.76c-0.45-0.11-0.87,0.09-1.27,0.59
	c-0.4,0.5-0.78,1.13-1.12,1.9c-0.35,0.76-0.65,1.56-0.9,2.4c-0.26,0.84-0.46,1.54-0.62,2.1c-0.24,0.96-0.49,1.96-0.74,2.99
	c-0.25,1.03-0.49,2.03-0.74,3c-0.25,0.97-0.5,1.87-0.75,2.68c-0.26,0.82-0.52,1.49-0.79,2.03c-0.11,0.22-0.38,0.34-0.81,0.37
	c-0.42,0.02-0.86-0.02-1.29-0.14c-0.44-0.11-0.8-0.28-1.09-0.52c-0.29-0.24-0.37-0.51-0.23-0.82c0.04-0.11,0.09-0.17,0.13-0.17
	c0.04,0,0.1-0.02,0.17-0.05c0.07-0.03,0.16-0.14,0.27-0.3c0.11-0.17,0.25-0.48,0.42-0.92c0.17-0.45,0.37-1.06,0.62-1.85
	c0.25-0.78,0.55-1.82,0.9-3.12c0.23-0.84,0.49-1.81,0.78-2.89c-0.38,0.66-0.78,1.27-1.19,1.83c-0.57,0.76-1.18,1.4-1.83,1.89
	c-0.65,0.5-1.31,0.74-1.98,0.74c-0.56,0-1.03-0.09-1.41-0.26c-0.38-0.18-0.69-0.42-0.92-0.75c-0.24-0.32-0.4-0.69-0.5-1.12
	c-0.05-0.19-0.08-0.39-0.1-0.6c-0.51,0.78-1.04,1.43-1.59,1.95c-0.56,0.52-1.13,0.79-1.71,0.79c-0.4,0-0.79-0.06-1.16-0.17
	c-0.37-0.11-0.69-0.29-0.97-0.55c-0.28-0.26-0.51-0.6-0.69-1.04c-0.18-0.44-0.28-0.98-0.3-1.63c-0.02-0.87,0.07-1.94,0.27-3.19
	c0.12-0.74,0.26-1.5,0.42-2.29c-0.19,0.06-0.39,0.1-0.58,0.14c-0.7,0.13-1.34,0.18-1.91,0.13c-0.57-0.05-0.99-0.1-1.26-0.17
	c0.25,0.83,0.43,1.8,0.55,2.9c0.12,1.11,0.18,2.25,0.17,3.44c-0.01,1.18-0.1,2.36-0.25,3.52c-0.16,1.16-0.39,2.21-0.7,3.15
	c-0.31,0.94-0.71,1.71-1.19,2.33c-0.48,0.61-1.05,0.97-1.69,1.06c-0.63,0.05-1.18-0.32-1.66-1.11c-0.48-0.78-0.74-1.91-0.79-3.39
	c-0.04-0.78-0.03-1.68,0.03-2.68c0.07-1.01,0.18-2.08,0.34-3.24c0.16-1.15,0.35-2.35,0.59-3.59c0.23-1.24,0.5-2.49,0.79-3.74
	l-0.81-0.6c-0.09-0.07-0.12-0.2-0.08-0.4c0.03-0.2,0.1-0.4,0.2-0.61c0.1-0.2,0.22-0.37,0.37-0.5c0.14-0.13,0.3-0.18,0.45-0.13
	l0.37,0.13c0.31-1.25,0.64-2.47,0.99-3.66c0.35-1.18,0.7-2.28,1.06-3.29c0.36-1.01,0.71-1.9,1.04-2.68c0.34-0.78,0.66-1.4,0.97-1.85
	c0.18-0.29,0.49-0.44,0.94-0.44c0.36,0,0.73,0.07,1.12,0.2c0.39,0.13,0.73,0.31,1.02,0.52c0.29,0.21,0.49,0.46,0.6,0.76
	c0.11,0.29,0.07,0.59-0.13,0.9c-0.13,0.2-0.37,0.67-0.7,1.41c-0.34,0.74-0.71,1.62-1.12,2.65c-0.41,1.03-0.84,2.15-1.29,3.37
	c-0.45,1.22-0.87,2.43-1.27,3.64c0.31,0.13,0.73,0.22,1.24,0.27c0.51,0.04,1.07,0.02,1.66-0.09c0.47-0.08,0.94-0.21,1.41-0.41
	c0.32-1.29,0.67-2.58,1.06-3.89c0.42-1.42,0.85-2.73,1.27-3.94c0.43-1.21,0.82-2.25,1.17-3.13c0.36-0.88,0.65-1.49,0.87-1.83
	c0.18-0.29,0.49-0.44,0.94-0.44c0.36,0,0.73,0.07,1.12,0.2c0.39,0.13,0.73,0.31,1.02,0.52c0.29,0.21,0.49,0.46,0.6,0.76
	c0.11,0.29,0.07,0.59-0.13,0.9c-0.18,0.25-0.46,0.82-0.86,1.73c-0.39,0.91-0.83,1.99-1.32,3.25c-0.49,1.27-1,2.62-1.51,4.06
	c-0.51,1.44-0.97,2.83-1.36,4.16c-0.39,1.33-0.69,2.52-0.89,3.57c-0.2,1.05-0.24,1.8-0.1,2.25c0.05,0.14,0.13,0.21,0.25,0.24
	c0.12,0.02,0.24,0,0.35-0.07c0.36-0.22,0.78-0.64,1.27-1.24c0.49-0.6,1-1.33,1.53-2.18c0.07-0.11,0.13-0.22,0.2-0.33
	c0.15-0.81,0.33-1.61,0.55-2.4c0.25-0.88,0.51-1.72,0.79-2.5c0.28-0.78,0.55-1.41,0.82-1.88c0.2-0.38,0.56-0.6,1.07-0.65
	c0.51-0.05,1.01,0.02,1.48,0.22c0.47,0.2,0.84,0.5,1.11,0.89c0.27,0.39,0.27,0.83,0,1.32c-0.2,0.4-0.45,0.9-0.75,1.49
	c-0.3,0.59-0.6,1.23-0.89,1.91c-0.29,0.68-0.54,1.38-0.75,2.1c-0.21,0.72-0.35,1.38-0.42,1.98c0,0.11,0,0.24,0,0.39
	c0,0.15,0.02,0.29,0.05,0.44c0.03,0.14,0.08,0.27,0.15,0.39c0.07,0.11,0.17,0.18,0.3,0.2c0.27,0,0.59-0.16,0.97-0.49
	c0.38-0.32,0.78-0.76,1.19-1.31c0.41-0.55,0.84-1.17,1.27-1.88c0.44-0.7,0.84-1.41,1.21-2.13c0.37-0.72,0.7-1.41,1.01-2.08
	l0.04-0.09c0.21-0.84,0.42-1.73,0.65-2.66c0.02-0.14,0.06-0.29,0.1-0.45c0.04-0.17,0.1-0.32,0.17-0.47
	c0.07-0.15,0.15-0.28,0.23-0.39C192.08,12.33,192.2,12.26,192.36,12.24L192.36,12.24z M102.42,6.97c0.18-0.45,0.43-0.75,0.76-0.91
	c0.32-0.16,0.61-0.24,0.85-0.27c0.36-0.04,0.73-0.03,1.11,0.04c0.38,0.07,0.7,0.18,0.97,0.35c0.27,0.17,0.45,0.37,0.55,0.62
	c0.1,0.24,0.06,0.53-0.12,0.84c-0.11,0.18-0.27,0.55-0.47,1.11c-0.2,0.56-0.43,1.24-0.69,2.05c-0.26,0.8-0.54,1.71-0.86,2.73
	c-0.31,1.02-0.63,2.07-0.94,3.17c0.09,0,0.22,0.01,0.39,0.02c0.17,0.01,0.35,0.02,0.54,0.02c0.19,0,0.37,0,0.54,0
	c0.17,0,0.3-0.01,0.39-0.03c0.83-0.09,1.59-0.4,2.3-0.92c0.7-0.53,1.3-1.16,1.78-1.91c0.48-0.75,0.84-1.58,1.07-2.48
	c0.24-0.9,0.31-1.78,0.22-2.63c-0.07-0.67-0.29-1.3-0.67-1.89c-0.38-0.59-0.86-1.1-1.44-1.53c-0.58-0.43-1.26-0.72-2.03-0.89
	c-0.77-0.17-1.59-0.17-2.47-0.02c-1.16,0.29-2.11,0.88-2.83,1.78c-0.73,0.89-1.21,1.95-1.46,3.15c-0.07,0.38-0.11,0.79-0.12,1.22
	c-0.01,0.44,0.08,0.83,0.29,1.19c0.16,0.24,0.16,0.49,0.02,0.72c-0.15,0.23-0.37,0.39-0.69,0.45c-0.47,0.09-0.93,0.1-1.39,0.03
	c-0.46-0.07-0.87-0.21-1.22-0.44c-0.36-0.22-0.65-0.54-0.87-0.94c-0.22-0.4-0.34-0.89-0.34-1.48c0.02-1.38,0.34-2.57,0.96-3.55
	c0.61-0.98,1.37-1.79,2.26-2.43c0.89-0.64,1.87-1.11,2.92-1.43c1.05-0.31,2.02-0.49,2.92-0.54c1.18-0.07,2.39,0,3.61,0.22
	c1.22,0.21,2.34,0.59,3.37,1.14c1.03,0.55,1.88,1.28,2.57,2.2c0.68,0.92,1.08,2.05,1.19,3.39c0.09,1.23-0.07,2.47-0.49,3.72
	c-0.41,1.25-1.12,2.36-2.13,3.34c-1.01,0.97-2.32,1.71-3.94,2.23c-1.62,0.52-3.57,0.64-5.85,0.37c-0.29,1.01-0.62,1.95-0.99,2.85
	c-0.37,0.89-0.8,1.69-1.29,2.4c-0.49,0.71-1.04,1.3-1.64,1.78c-0.6,0.48-1.28,0.8-2.05,0.96c-0.6,0.13-1.19,0.12-1.76-0.03
	c-0.57-0.16-1-0.37-1.29-0.64c-0.54-0.49-0.8-0.96-0.79-1.41c0.01-0.45,0.12-0.79,0.32-1.04c0.2-0.24,0.42-0.36,0.65-0.35
	c0.23,0.01,0.33,0.24,0.28,0.69c-0.04,0.34,0.03,0.6,0.24,0.79c0.2,0.19,0.45,0.3,0.74,0.34c0.29,0.03,0.6-0.01,0.94-0.12
	c0.34-0.11,0.63-0.3,0.87-0.57c0.27-0.27,0.56-0.72,0.87-1.34c0.31-0.63,0.68-1.59,1.11-2.88c0.43-1.3,0.9-3.01,1.43-5.13
	C101.11,12.93,101.72,10.24,102.42,6.97L102.42,6.97z M122.54,19.28c0.18,0.02,0.44-0.02,0.79-0.13c0.35-0.11,0.73-0.33,1.14-0.65
	c0.41-0.33,0.83-0.78,1.26-1.37c0.36-0.49,0.69-1.11,0.99-1.85c-0.03-0.02-0.07-0.04-0.1-0.07c-0.35-0.24-0.63-0.54-0.86-0.91
	c-0.22-0.37-0.35-0.81-0.37-1.32c-0.05-0.76,0.15-1.42,0.59-2c0.44-0.57,1.02-0.84,1.76-0.82c0.4,0,0.72,0.1,0.96,0.3
	c0.24,0.2,0.4,0.46,0.5,0.77c0.1,0.31,0.13,0.65,0.08,1.02c-0.05,0.37-0.14,0.73-0.3,1.09c0.04,0.31,0.24,0.53,0.59,0.64
	c0.35,0.11,0.68,0.06,0.99-0.17c0.31-0.18,0.63-0.27,0.94-0.27c0.34,0,0.68,0.08,1.02,0.23c0.35,0.16,0.63,0.36,0.84,0.6
	c0.21,0.25,0.35,0.53,0.4,0.84c0.06,0.31-0.03,0.64-0.25,0.97c-0.24,0.34-0.54,0.79-0.87,1.36c-0.34,0.57-0.66,1.19-0.97,1.86
	c-0.31,0.67-0.58,1.35-0.81,2.05c-0.22,0.69-0.35,1.32-0.37,1.88c0,0.38,0.04,0.66,0.13,0.84c0.09,0.18,0.36,0.11,0.81-0.2
	c0.51-0.38,1.1-0.98,1.76-1.79c0.66-0.82,1.31-1.69,1.96-2.62c0.43-0.62,0.84-1.22,1.23-1.81c0.14-0.7,0.3-1.42,0.48-2.16l-0.5-0.03
	c-0.38-0.02-0.64-0.08-0.79-0.19c-0.15-0.1-0.22-0.23-0.22-0.39c0-0.24,0.07-0.5,0.22-0.77c0.15-0.27,0.38-0.38,0.69-0.34
	c0.18,0.02,0.35,0.04,0.52,0.05c0.17,0.01,0.34,0.02,0.52,0.02c0.33-1.23,0.7-2.44,1.09-3.62c0.39-1.18,0.77-2.27,1.14-3.25
	c0.37-0.98,0.71-1.83,1.02-2.53c0.31-0.71,0.56-1.19,0.74-1.46c0.18-0.29,0.48-0.44,0.9-0.44c0.36,0,0.73,0.07,1.12,0.2
	c0.39,0.14,0.73,0.31,1.02,0.52c0.29,0.21,0.49,0.46,0.6,0.75c0.11,0.29,0.07,0.59-0.14,0.91c-0.13,0.18-0.33,0.55-0.59,1.12
	c-0.26,0.57-0.55,1.26-0.89,2.06c-0.34,0.8-0.69,1.71-1.07,2.7c-0.38,0.99-0.75,2.02-1.11,3.07h0.94c0.13,0,0.22,0.08,0.27,0.25
	c0.05,0.17,0.05,0.35,0.02,0.55c-0.03,0.2-0.11,0.39-0.24,0.57c-0.12,0.18-0.29,0.28-0.49,0.3c-0.18,0.02-0.36,0.04-0.54,0.05
	c-0.18,0.01-0.37,0.03-0.57,0.05c-0.31,0.92-0.59,1.81-0.84,2.67c-0.25,0.86-0.45,1.66-0.62,2.4c-0.17,0.74-0.28,1.39-0.35,1.95
	c-0.07,0.56-0.06,0.98,0.03,1.27c0.05,0.13,0.13,0.21,0.27,0.23c0.13,0.02,0.26,0,0.37-0.07c0.25-0.16,0.54-0.44,0.87-0.86
	c0.34-0.41,0.69-0.9,1.07-1.46c0.38-0.56,0.77-1.18,1.16-1.84c0.39-0.67,0.76-1.33,1.11-1.98c0.35-0.65,0.66-1.27,0.94-1.86
	c0.28-0.59,0.5-1.1,0.65-1.53c0.04-0.11,0.13-0.17,0.27-0.18c0.13-0.01,0.27,0.01,0.42,0.07c0.15,0.05,0.27,0.13,0.37,0.24
	c0.1,0.1,0.14,0.21,0.12,0.32c-0.13,0.2-0.34,0.62-0.62,1.26c-0.28,0.64-0.61,1.39-1.01,2.25s-0.82,1.76-1.29,2.7
	c-0.47,0.94-0.96,1.81-1.47,2.62c-0.52,0.81-1.03,1.47-1.54,2c-0.51,0.53-1.02,0.8-1.51,0.82c-0.94,0.04-1.68-0.2-2.21-0.74
	c-0.54-0.54-0.86-1.31-0.97-2.31c-0.09-0.73-0.07-1.61,0.05-2.62l-0.27,0.42c-0.59,0.93-1.2,1.78-1.81,2.56
	c-0.61,0.78-1.23,1.43-1.84,1.95c-0.62,0.52-1.19,0.77-1.73,0.77c-0.45,0-0.85-0.12-1.21-0.37c-0.36-0.25-0.65-0.57-0.89-0.96
	c-0.24-0.39-0.41-0.84-0.54-1.34c-0.12-0.5-0.18-1.03-0.18-1.59c0-0.54,0.05-1.1,0.15-1.69c0.1-0.59,0.24-1.18,0.4-1.76
	c0.17-0.58,0.36-1.14,0.59-1.68c0.22-0.54,0.45-1.03,0.67-1.47c-0.39-0.02-0.78-0.07-1.16-0.16c-0.2,0.54-0.46,1.1-0.8,1.67
	c-0.44,0.74-0.93,1.4-1.48,1.98c-0.55,0.58-1.14,1.06-1.78,1.42c-0.64,0.37-1.26,0.53-1.86,0.49c-0.45,1.68-1.12,3.05-2.03,4.13
	c-0.9,1.07-2,1.61-3.27,1.61c-0.49,0-1.02-0.12-1.58-0.37c-0.74-0.38-1.28-0.98-1.63-1.81c-0.35-0.83-0.52-1.77-0.52-2.82
	c0-1.03,0.15-2.1,0.45-3.2c0.3-1.11,0.72-2.12,1.26-3.05c0.54-0.93,1.16-1.69,1.86-2.28c0.71-0.59,1.46-0.89,2.26-0.89
	c0.13,0,0.31,0.01,0.52,0.03c0.21,0.02,0.43,0.1,0.66,0.22c0.22,0.12,0.45,0.3,0.67,0.54c0.22,0.24,0.4,0.55,0.54,0.96
	c0.51,0.23,0.92,0.73,1.21,1.51C122.76,16.68,122.78,17.81,122.54,19.28L122.54,19.28z M116.6,25.42c0.31,0,0.61-0.17,0.91-0.5
	c0.29-0.34,0.56-0.75,0.8-1.26c0.25-0.5,0.45-1.04,0.6-1.61c0.16-0.57,0.26-1.09,0.3-1.56c-0.2-0.14-0.37-0.34-0.52-0.6
	c-0.15-0.27-0.26-0.56-0.34-0.89c-0.08-0.32-0.12-0.65-0.13-0.99c-0.01-0.34,0.04-0.63,0.15-0.87c-0.31,0.11-0.63,0.39-0.94,0.84
	c-0.31,0.45-0.6,0.98-0.85,1.59c-0.26,0.62-0.48,1.27-0.66,1.96c-0.18,0.69-0.29,1.32-0.32,1.9c-0.03,0.57,0.02,1.04,0.17,1.42
	C115.93,25.23,116.2,25.42,116.6,25.42L116.6,25.42z M151.41,19.28c0.18,0.02,0.44-0.02,0.79-0.13c0.35-0.11,0.73-0.33,1.14-0.65
	c0.41-0.33,0.83-0.78,1.26-1.37c0.42-0.59,0.82-1.36,1.17-2.3c0.09-0.16,0.21-0.26,0.37-0.3c0.16-0.05,0.3-0.04,0.44,0.02
	c0.13,0.05,0.25,0.15,0.34,0.27c0.09,0.12,0.12,0.28,0.1,0.49c-0.2,0.69-0.52,1.41-0.96,2.15c-0.44,0.74-0.93,1.4-1.47,1.98
	c-0.55,0.58-1.14,1.06-1.78,1.42c-0.64,0.37-1.26,0.53-1.86,0.49c-0.45,1.68-1.12,3.05-2.03,4.13c-0.91,1.07-2,1.61-3.27,1.61
	c-0.49,0-1.02-0.12-1.58-0.37c-0.74-0.38-1.28-0.98-1.63-1.81c-0.35-0.83-0.52-1.77-0.52-2.82c0-1.03,0.15-2.1,0.45-3.2
	c0.3-1.11,0.72-2.12,1.26-3.05c0.54-0.93,1.16-1.69,1.86-2.28c0.71-0.59,1.46-0.89,2.26-0.89c0.13,0,0.31,0.01,0.52,0.03
	c0.21,0.02,0.43,0.1,0.65,0.22c0.22,0.12,0.45,0.3,0.67,0.54c0.22,0.24,0.4,0.55,0.54,0.96c0.51,0.23,0.92,0.73,1.21,1.51
	C151.64,16.68,151.66,17.81,151.41,19.28L151.41,19.28z M145.48,25.42c0.31,0,0.61-0.17,0.9-0.5c0.29-0.34,0.56-0.75,0.8-1.26
	c0.25-0.5,0.45-1.04,0.6-1.61c0.16-0.57,0.26-1.09,0.3-1.56c-0.2-0.14-0.37-0.34-0.52-0.6c-0.14-0.27-0.26-0.56-0.33-0.89
	c-0.08-0.32-0.12-0.65-0.14-0.99c-0.01-0.34,0.04-0.63,0.15-0.87c-0.31,0.11-0.63,0.39-0.94,0.84c-0.31,0.45-0.6,0.98-0.85,1.59
	c-0.26,0.62-0.48,1.27-0.66,1.96c-0.18,0.69-0.28,1.32-0.32,1.9c-0.03,0.57,0.02,1.04,0.17,1.42
	C144.8,25.23,145.07,25.42,145.48,25.42L145.48,25.42z M158.19,19.21c-0.38,0.05-0.66-0.02-0.84-0.2c-0.18-0.18-0.27-0.39-0.27-0.64
	c0-0.34,0.16-0.69,0.49-1.06c0.32-0.37,0.71-0.56,1.16-0.59c0.22-0.02,0.47-0.03,0.74-0.03c0.27,0,0.53,0,0.77,0
	c1.03,0,2.02,0.03,2.98,0.09c0.96,0.05,1.72,0.1,2.28,0.12c0.13,0,0.25,0,0.35,0.02c0.1,0.01,0.18,0.02,0.25,0.02
	c0.16,0,0.26,0.12,0.32,0.35c0.06,0.24,0.06,0.5,0.02,0.81c-0.04,0.3-0.15,0.58-0.32,0.84c-0.17,0.26-0.39,0.41-0.65,0.45
	c-0.11,0.02-0.38,0.04-0.8,0.04c-0.49,0-1.11-0.01-1.86-0.04c-0.75-0.02-1.47-0.04-2.16-0.07c-0.6-0.05-1.13-0.07-1.58-0.08
	c-0.45-0.01-0.73-0.02-0.84-0.02H158.19L158.19,19.21z M169.29,32.23c0.16,0,0.31-0.21,0.45-0.62c0.15-0.41,0.28-0.95,0.4-1.61
	c0.12-0.66,0.22-1.4,0.3-2.23c0.08-0.83,0.13-1.64,0.17-2.43c0.03-0.79,0.04-1.54,0.02-2.25c-0.02-0.71-0.09-1.27-0.2-1.69
	c-0.11,0.25-0.23,0.69-0.35,1.32c-0.12,0.64-0.25,1.36-0.37,2.16c-0.12,0.8-0.24,1.64-0.35,2.5c-0.11,0.86-0.19,1.65-0.24,2.38
	c-0.04,0.73-0.06,1.32-0.03,1.78C169.11,32,169.17,32.23,169.29,32.23L169.29,32.23z M188.27,11.43c-0.2,0.18-0.46,0.26-0.79,0.25
	c-0.32-0.01-0.64-0.1-0.94-0.27c-0.3-0.17-0.54-0.41-0.72-0.72c-0.18-0.31-0.21-0.68-0.1-1.11c0.07-0.22,0.14-0.49,0.22-0.79
	c0.08-0.3,0.17-0.6,0.27-0.9c0.1-0.3,0.21-0.59,0.32-0.86c0.11-0.27,0.22-0.48,0.34-0.64c0.13-0.13,0.27-0.23,0.4-0.3
	c0.14-0.07,0.3-0.11,0.5-0.14c0.34-0.02,0.69,0.03,1.07,0.17c0.38,0.14,0.72,0.32,1.02,0.55c0.3,0.24,0.52,0.5,0.67,0.81
	c0.14,0.3,0.15,0.58,0.02,0.85L188.27,11.43L188.27,11.43z"/>
<polygon class="st1" points="58.63,58.22 240.79,58.22 230.2,71.43 69.22,71.43 58.63,58.22 "/>
<polygon class="st2" points="69.22,71.43 230.2,71.43 205.85,101.79 93.58,101.79 69.22,71.43 "/>
<path class="st3" d="M93.58,101.79h112.27l-52.31,65.22c-1.03,1.22-2.44,1.81-3.83,1.86c-1.39-0.05-2.8-0.64-3.83-1.86L93.58,101.79
	L93.58,101.79z"/>
<polygon class="st4" points="149.23,58.22 240.79,58.22 230.2,71.43 149.23,71.43 149.23,58.22 "/>
<polygon class="st5" points="149.23,71.43 230.2,71.43 205.85,101.79 149.23,101.79 149.23,71.43 "/>
<path class="st6" d="M149.23,101.79h56.62l-52.31,65.22c-1.03,1.22-2.44,1.81-3.83,1.86c-0.16,0-0.32-0.02-0.49-0.04V101.79
	L149.23,101.79z"/>
<path class="st7" d="M58.95,49l46.24,57.66L66.81,49H58.95L58.95,49z M240.52,49l-73.12,95.11L232.59,49H240.52L240.52,49z"/>
<path class="st8" d="M43,45.26c33.74,41.78,67.47,83.57,101.21,125.35l-0.16,71.54c-3.35-0.09-4.17,18.03,0.66,18.04
	c1.47,17.17-47.49,27.47-52.91,29.56c-4.66,1.8-6.48,3.94-5.92,7.25h127.65c0.55-3.31-1.27-5.45-5.92-7.25
	c-5.42-2.09-54.38-12.4-52.91-29.56c4.83-0.01,4.01-18.13,0.66-18.04l-0.16-71.54c33.74-41.78,67.47-83.57,101.21-125.35
	C185.28,45.26,114.14,45.26,43,45.26L43,45.26z M89.82,294.96c-0.18-1.78,2.12-3,6.92-4.31c6.96-1.9,52.95-11.91,51.02-31.86
	c-4.83-0.01-3.69-15.49-0.35-15.4l-0.19-65.9c0-2.27,1.22-3.37,2.49-3.44c1.27,0.07,2.49,1.17,2.49,3.44l-0.19,65.9
	c3.35-0.09,4.49,15.39-0.35,15.4c-1.93,19.95,44.06,29.96,51.02,31.86c4.81,1.32,7.1,2.54,6.92,4.31H89.82L89.82,294.96z
	 M149.71,168.88c-1.39-0.05-2.8-0.64-3.83-1.86L51.23,49c69.87,0,127.09,0,196.96,0l-94.65,118.02
	C152.51,168.24,151.1,168.83,149.71,168.88L149.71,168.88z"/>
<path class="st9" d="M164.2,59.72c-0.08,0.13-0.2,0.31-0.34,0.55c-0.52,0.91-0.67,1.17-1.07,2.15c-0.14,0.34-0.27,0.68-0.38,1
	c-0.11,0.32-0.19,0.59-0.24,0.82c0.1-0.1,0.21-0.23,0.34-0.38c0.13-0.15,0.26-0.31,0.41-0.49c0.14-0.18,0.28-0.38,0.42-0.59
	c0.14-0.21,0.26-0.45,0.38-0.7c0.06-0.12,0.15-0.18,0.26-0.16c0.12,0.02,0.24,0.08,0.36,0.18c0.12,0.1,0.23,0.22,0.33,0.37
	c0.09,0.15,0.15,0.28,0.16,0.41c0.01,0.14-0.03,0.3-0.12,0.46c-0.09,0.17-0.21,0.34-0.36,0.51c-0.15,0.18-0.32,0.36-0.51,0.54
	c-0.19,0.18-0.39,0.36-0.59,0.53c0.24,0.05,0.4,0.14,0.49,0.28c0.09,0.14,0.14,0.29,0.15,0.45c0.01,0.17,0,0.34-0.04,0.51
	c-0.04,0.18-0.06,0.33-0.07,0.46c-0.01,0.13,0.01,0.22,0.05,0.28c0.04,0.06,0.15,0.05,0.34-0.01c0.21-0.08,0.43-0.27,0.66-0.58
	c0.23-0.31,0.46-0.66,0.69-1.05c0.23-0.39,0.44-0.78,0.64-1.18c0.19-0.4,0.36-0.73,0.51-0.98c0.04-0.04,0.09-0.05,0.15-0.05
	c0.06,0,0.11,0.02,0.16,0.05c0.04,0.03,0.07,0.07,0.09,0.12c0.02,0.05,0.01,0.09-0.01,0.13c-0.09,0.17-0.2,0.41-0.35,0.72
	c-0.15,0.31-0.32,0.64-0.51,1c-0.19,0.36-0.41,0.73-0.64,1.1c-0.23,0.38-0.47,0.72-0.71,1.03c-0.24,0.31-0.49,0.56-0.75,0.75
	c-0.26,0.2-0.5,0.29-0.74,0.29c-0.27,0-0.45-0.06-0.56-0.18s-0.16-0.27-0.18-0.45c-0.01-0.18,0-0.37,0.03-0.58
	c0.03-0.2,0.05-0.39,0.06-0.57c0-0.18-0.03-0.32-0.09-0.44c-0.07-0.11-0.21-0.17-0.43-0.16c-0.1,0.1-0.2,0.2-0.27,0.28
	c-0.08,0.08-0.12,0.15-0.14,0.22c-0.05,0.1-0.08,0.23-0.09,0.37c-0.01,0.14-0.03,0.29-0.04,0.44c-0.01,0.15-0.03,0.29-0.06,0.42
	c-0.02,0.13-0.06,0.24-0.12,0.33c-0.08,0.1-0.17,0.18-0.29,0.24c-0.12,0.05-0.24,0.07-0.36,0.06c-0.12-0.01-0.24-0.05-0.35-0.12
	c-0.11-0.07-0.19-0.17-0.24-0.31c-0.03-0.21-0.04-0.46-0.02-0.74l-0.01,0.01c-0.22,0.34-0.45,0.62-0.68,0.84
	c-0.24,0.22-0.48,0.33-0.73,0.33c-0.17,0-0.34-0.02-0.49-0.07c-0.16-0.05-0.29-0.13-0.41-0.24c-0.12-0.11-0.22-0.26-0.29-0.44
	c-0.08-0.19-0.12-0.42-0.13-0.69c-0.01-0.33,0.02-0.71,0.08-1.17c-0.04,0.03-0.08,0.05-0.12,0.07c-0.27,0.15-0.54,0.22-0.79,0.2
	c-0.19,0.71-0.48,1.3-0.86,1.75c-0.39,0.45-0.85,0.68-1.39,0.68c-0.21,0-0.43-0.05-0.67-0.16c-0.32-0.16-0.55-0.42-0.69-0.77
	c-0.09-0.21-0.15-0.43-0.18-0.67c-0.26,0.32-0.53,0.63-0.81,0.92c-0.43,0.44-0.88,0.78-1.33,1c-0.04,0.1-0.08,0.22-0.12,0.34
	c-0.04,0.12-0.08,0.24-0.11,0.34c-0.1,0.27-0.21,0.52-0.35,0.76c-0.14,0.24-0.3,0.46-0.48,0.64c-0.18,0.19-0.38,0.34-0.61,0.45
	c-0.22,0.11-0.47,0.17-0.73,0.17c-0.33,0-0.59-0.1-0.78-0.29c-0.19-0.19-0.29-0.42-0.29-0.68c0-0.29,0.07-0.54,0.2-0.78
	c0.13-0.23,0.31-0.44,0.52-0.62c0.21-0.18,0.45-0.34,0.71-0.47c0.26-0.13,0.52-0.24,0.78-0.31c0.01-0.06,0.03-0.13,0.05-0.21
	c0.02-0.08,0.05-0.15,0.07-0.22c0.02-0.07,0.04-0.12,0.05-0.16c0.01-0.04,0.01-0.05,0-0.03c-0.07,0.14-0.14,0.25-0.22,0.34
	c-0.08,0.08-0.16,0.14-0.23,0.19c-0.07,0.04-0.13,0.07-0.19,0.08c-0.06,0.01-0.1,0.01-0.13,0.01c-0.36,0-0.64-0.12-0.83-0.37
	c-0.2-0.25-0.3-0.58-0.31-1.01c-0.01-0.19,0.01-0.42,0.05-0.69c0.04-0.27,0.1-0.55,0.16-0.85c0.07-0.29,0.14-0.59,0.23-0.89
	c0.09-0.3,0.17-0.58,0.27-0.85c0.09-0.27,0.18-0.5,0.27-0.7c0.09-0.2,0.17-0.35,0.24-0.44c0.06-0.08,0.14-0.13,0.24-0.16
	s0.2-0.03,0.29-0.01c0.14,0.01,0.29,0.04,0.43,0.09c0.14,0.05,0.26,0.11,0.36,0.2c0.1,0.08,0.16,0.17,0.19,0.28s0,0.22-0.09,0.35
	c-0.09,0.14-0.2,0.36-0.34,0.66c-0.14,0.3-0.29,0.63-0.43,0.98c-0.14,0.36-0.27,0.72-0.39,1.08c-0.12,0.36-0.2,0.67-0.25,0.94
	c-0.04,0.19-0.04,0.32,0,0.4c0.04,0.07,0.08,0.11,0.13,0.11c0.14,0,0.28-0.1,0.41-0.3c0.13-0.2,0.27-0.46,0.4-0.78
	c0.13-0.32,0.26-0.67,0.39-1.06s0.25-0.76,0.38-1.12c0.13-0.37,0.25-0.7,0.37-1c0.12-0.3,0.24-0.52,0.36-0.66
	c0.07-0.08,0.15-0.13,0.26-0.15c0.1-0.02,0.21-0.03,0.31-0.01c0.12,0.02,0.26,0.05,0.39,0.1c0.14,0.05,0.26,0.11,0.36,0.2
	c0.1,0.09,0.17,0.19,0.21,0.3c0.03,0.11,0.01,0.24-0.08,0.37c-0.17,0.27-0.33,0.57-0.49,0.91c-0.15,0.34-0.29,0.69-0.43,1.05
	c-0.13,0.36-0.26,0.72-0.39,1.08c-0.12,0.35-0.24,0.68-0.34,0.96c-0.02,0.06-0.05,0.14-0.08,0.24c-0.03,0.1-0.06,0.18-0.08,0.23
	c0.28-0.16,0.57-0.4,0.87-0.73c0.3-0.32,0.61-0.69,0.91-1.12l0.02-0.03c0.03-0.32,0.09-0.64,0.18-0.98c0.13-0.47,0.31-0.9,0.54-1.3
	c0.23-0.39,0.49-0.72,0.79-0.97c0.3-0.25,0.62-0.38,0.96-0.38c0.06,0,0.13,0.01,0.22,0.02c0.09,0.01,0.18,0.04,0.28,0.09
	c0.1,0.05,0.19,0.13,0.29,0.23c0.1,0.1,0.17,0.24,0.23,0.41c0.22,0.1,0.39,0.31,0.51,0.64s0.13,0.81,0.03,1.44
	c0.08,0.01,0.19-0.01,0.34-0.06c0.15-0.05,0.31-0.14,0.49-0.28l0.06-0.05c0.06-0.29,0.12-0.59,0.2-0.9c0.39-1.61,0.6-2.52,1.22-4.06
	c0.15-0.37,0.28-0.63,0.37-0.78c0.08-0.12,0.21-0.19,0.4-0.19c0.15,0,0.31,0.03,0.48,0.09c0.17,0.06,0.31,0.13,0.44,0.22
	c0.12,0.09,0.21,0.2,0.26,0.32c0.05,0.13,0.03,0.26-0.06,0.39c-0.07,0.11-0.2,0.35-0.36,0.73c-0.67,1.55-1,2.51-1.48,4.13
	c-0.17,0.57-0.29,1.07-0.38,1.52c-0.09,0.44-0.1,0.76-0.04,0.95c0.02,0.06,0.05,0.09,0.11,0.1c0.05,0.01,0.1,0,0.15-0.03
	c0.15-0.09,0.33-0.27,0.54-0.53c0.21-0.25,0.43-0.56,0.65-0.92c0.08-0.14,0.17-0.28,0.25-0.43c0.03-0.17,0.07-0.34,0.11-0.51
	c0.14-0.62,0.31-1.26,0.51-1.91c0.36-1.19,0.48-1.64,0.99-2.77c0.22-0.49,0.42-0.89,0.62-1.17c0.04-0.06,0.11-0.1,0.19-0.14
	c0.07-0.03,0.15-0.05,0.23-0.05c0.15,0,0.31,0.03,0.48,0.08c0.17,0.05,0.32,0.13,0.44,0.22c0.12,0.1,0.21,0.2,0.26,0.32
	C164.31,59.46,164.29,59.59,164.2,59.72L164.2,59.72z M134.82,66.41c-0.21,0.26-0.42,0.51-0.65,0.73c-0.3,0.3-0.61,0.54-0.93,0.73
	c-0.32,0.19-0.64,0.29-0.96,0.3c-0.26,0-0.49-0.05-0.7-0.16c-0.21-0.11-0.39-0.26-0.55-0.46c-0.16-0.2-0.28-0.42-0.36-0.69
	c-0.09-0.26-0.13-0.55-0.13-0.86c0-0.4,0.06-0.83,0.18-1.28c0.12-0.45,0.29-0.87,0.52-1.24c0.23-0.38,0.51-0.69,0.83-0.94
	c0.33-0.25,0.71-0.38,1.13-0.38c0.17,0,0.34,0.03,0.52,0.1c0.18,0.06,0.33,0.15,0.46,0.28c0.13,0.12,0.24,0.28,0.34,0.48
	c0.09,0.2,0.13,0.43,0.13,0.69c-0.02,0.5-0.12,0.92-0.32,1.25c-0.19,0.33-0.43,0.6-0.72,0.8c-0.29,0.2-0.59,0.34-0.91,0.42
	c-0.32,0.08-0.61,0.12-0.88,0.12c-0.02,0.12-0.01,0.25,0.02,0.38c0.03,0.13,0.09,0.24,0.16,0.34c0.07,0.1,0.16,0.18,0.27,0.24
	c0.11,0.06,0.24,0.1,0.38,0.1c0.25,0,0.53-0.11,0.84-0.34c0.31-0.23,0.64-0.54,0.96-0.93c0.17-0.2,0.33-0.41,0.5-0.65l0.01-0.04
	c0.1-0.41,0.24-0.81,0.39-1.2c0.16-0.39,0.33-0.74,0.53-1.05c0.2-0.31,0.38-0.54,0.55-0.67c0.15-0.1,0.31-0.18,0.46-0.23
	c0.16-0.05,0.31-0.07,0.45-0.07c0.22,0,0.43,0.05,0.64,0.16c0.21,0.1,0.36,0.27,0.44,0.5c0.02-0.06,0.05-0.11,0.09-0.17
	c0.04-0.06,0.07-0.11,0.09-0.16c0.06-0.09,0.17-0.12,0.34-0.1c0.17,0.01,0.34,0.06,0.51,0.15c0.17,0.09,0.3,0.2,0.41,0.33
	c0.11,0.13,0.13,0.28,0.06,0.43c-0.14,0.29-0.3,0.63-0.46,1.03c-0.17,0.4-0.33,0.82-0.5,1.25c-0.17,0.43-0.32,0.85-0.47,1.27
	c-0.15,0.41-0.27,0.78-0.36,1.09c0.31-0.19,0.62-0.46,0.91-0.82c0.25-0.31,0.5-0.65,0.74-1.02c0.02-0.21,0.07-0.44,0.13-0.69
	c0.1-0.41,0.24-0.81,0.39-1.2c0.16-0.39,0.33-0.74,0.53-1.06c0.2-0.31,0.38-0.54,0.55-0.67c0.15-0.1,0.31-0.18,0.46-0.23
	c0.16-0.05,0.31-0.07,0.45-0.07c0.22,0,0.43,0.05,0.64,0.16c0.21,0.1,0.36,0.27,0.44,0.5c0.02-0.06,0.05-0.11,0.09-0.17
	c0.04-0.06,0.07-0.11,0.09-0.15c0.06-0.09,0.17-0.12,0.34-0.11c0.17,0.01,0.34,0.06,0.51,0.15c0.17,0.09,0.3,0.2,0.41,0.33
	c0.11,0.13,0.13,0.28,0.06,0.43c-0.14,0.29-0.3,0.63-0.46,1.03c-0.17,0.4-0.33,0.82-0.5,1.25c-0.17,0.43-0.32,0.85-0.47,1.27
	c-0.15,0.41-0.27,0.78-0.36,1.09c0.31-0.19,0.62-0.46,0.91-0.82c0.29-0.35,0.58-0.76,0.85-1.2c0.27-0.45,0.52-0.92,0.75-1.42
	c0.23-0.5,0.44-0.99,0.63-1.47c0.02-0.04,0.06-0.06,0.12-0.06c0.06,0,0.12,0,0.18,0.02c0.06,0.02,0.1,0.05,0.14,0.09
	c0.04,0.04,0.05,0.08,0.03,0.11c-0.11,0.29-0.23,0.61-0.37,0.96c-0.14,0.36-0.31,0.72-0.49,1.1c-0.18,0.38-0.39,0.75-0.61,1.12
	c-0.22,0.37-0.45,0.72-0.7,1.03c-0.25,0.32-0.51,0.59-0.78,0.83c-0.28,0.24-0.56,0.41-0.86,0.51c-0.07,0.2-0.16,0.45-0.27,0.74
	c-0.11,0.29-0.26,0.58-0.44,0.85c-0.18,0.27-0.39,0.5-0.64,0.68c-0.24,0.19-0.52,0.27-0.85,0.25c-0.23-0.01-0.42-0.08-0.58-0.2
	c-0.16-0.12-0.27-0.28-0.34-0.46c-0.07-0.19-0.1-0.39-0.09-0.61c0.01-0.22,0.07-0.42,0.17-0.61c0.17-0.32,0.44-0.58,0.8-0.76
	c0.36-0.18,0.73-0.32,1.11-0.41l0.17-0.58c-0.09,0.16-0.21,0.29-0.39,0.38c-0.17,0.1-0.33,0.14-0.47,0.14
	c-0.4-0.02-0.72-0.18-0.95-0.49c-0.14-0.18-0.23-0.38-0.29-0.62c-0.08,0.12-0.16,0.23-0.25,0.34c-0.25,0.32-0.51,0.6-0.78,0.83
	c-0.28,0.24-0.56,0.41-0.86,0.51c-0.07,0.2-0.16,0.45-0.27,0.74c-0.11,0.29-0.26,0.58-0.44,0.85c-0.18,0.27-0.39,0.5-0.63,0.68
	c-0.24,0.19-0.53,0.27-0.85,0.25c-0.23-0.01-0.42-0.08-0.58-0.2c-0.16-0.13-0.27-0.28-0.34-0.47c-0.07-0.19-0.1-0.39-0.09-0.61
	c0.01-0.22,0.07-0.42,0.17-0.61c0.17-0.32,0.44-0.57,0.8-0.75c0.36-0.18,0.73-0.32,1.11-0.41l0.17-0.59
	c-0.09,0.16-0.21,0.29-0.39,0.39c-0.17,0.09-0.33,0.14-0.47,0.14c-0.4-0.02-0.72-0.18-0.96-0.49c-0.24-0.3-0.36-0.71-0.36-1.2V66.41
	L134.82,66.41z M133.1,63.49c-0.09,0.05-0.19,0.14-0.3,0.28c-0.11,0.14-0.23,0.32-0.34,0.52c-0.11,0.2-0.22,0.43-0.31,0.67
	c-0.09,0.24-0.17,0.49-0.21,0.73c0.16-0.02,0.33-0.08,0.49-0.2c0.17-0.11,0.32-0.25,0.46-0.42c0.14-0.17,0.25-0.36,0.35-0.57
	c0.1-0.21,0.15-0.43,0.17-0.65c0.01-0.11,0-0.2-0.02-0.25c-0.02-0.05-0.05-0.09-0.09-0.11c-0.03-0.02-0.07-0.03-0.1-0.03
	C133.16,63.47,133.12,63.48,133.1,63.49L133.1,63.49z M136.54,69.16c-0.22,0.08-0.39,0.17-0.52,0.29c-0.13,0.12-0.22,0.23-0.28,0.35
	c-0.06,0.11-0.08,0.21-0.08,0.3c0,0.09,0.03,0.13,0.09,0.13c0.11,0,0.21-0.03,0.29-0.1c0.08-0.07,0.15-0.15,0.21-0.26
	c0.06-0.1,0.12-0.22,0.16-0.34C136.47,69.41,136.51,69.29,136.54,69.16L136.54,69.16z M137.95,63.65c0-0.03,0-0.07-0.01-0.12
	c0-0.05-0.01-0.11-0.03-0.16c-0.01-0.05-0.03-0.1-0.06-0.14c-0.02-0.04-0.05-0.07-0.09-0.07c-0.1,0-0.22,0.08-0.36,0.24
	c-0.13,0.16-0.27,0.37-0.4,0.63c-0.13,0.26-0.26,0.54-0.39,0.85c-0.13,0.31-0.24,0.61-0.33,0.9c-0.04,0.11-0.08,0.27-0.12,0.46
	c-0.04,0.2-0.07,0.38-0.09,0.56c-0.02,0.18-0.02,0.32,0.01,0.44c0.02,0.12,0.09,0.16,0.19,0.14c0.16-0.04,0.32-0.14,0.46-0.31
	c0.15-0.17,0.28-0.38,0.41-0.61c0.12-0.24,0.24-0.49,0.34-0.78c0.1-0.28,0.19-0.55,0.26-0.81c0.07-0.26,0.13-0.5,0.16-0.72
	C137.93,63.92,137.95,63.76,137.95,63.65L137.95,63.65z M141.48,69.18c-0.22,0.08-0.39,0.17-0.52,0.29
	c-0.13,0.12-0.22,0.23-0.28,0.35c-0.06,0.11-0.08,0.21-0.08,0.3c0,0.09,0.03,0.13,0.09,0.13c0.12,0,0.21-0.03,0.29-0.1
	c0.08-0.07,0.15-0.15,0.21-0.26c0.06-0.1,0.12-0.22,0.16-0.34C141.42,69.42,141.46,69.3,141.48,69.18L141.48,69.18z M142.9,63.66
	c0-0.03,0-0.07-0.01-0.12c0-0.05-0.01-0.1-0.03-0.16c-0.01-0.05-0.03-0.1-0.06-0.14c-0.02-0.04-0.05-0.06-0.09-0.06
	c-0.1,0-0.22,0.08-0.36,0.24c-0.13,0.16-0.27,0.37-0.4,0.63c-0.13,0.26-0.26,0.54-0.39,0.85c-0.13,0.31-0.24,0.61-0.34,0.9
	c-0.04,0.11-0.08,0.27-0.12,0.46c-0.04,0.2-0.07,0.38-0.09,0.56c-0.02,0.18-0.02,0.32,0.01,0.44c0.03,0.12,0.09,0.16,0.19,0.14
	c0.16-0.04,0.32-0.14,0.46-0.31c0.15-0.17,0.28-0.38,0.41-0.61c0.12-0.24,0.24-0.49,0.34-0.78c0.1-0.28,0.18-0.55,0.26-0.81
	c0.07-0.26,0.13-0.5,0.16-0.72C142.88,63.94,142.9,63.77,142.9,63.66L142.9,63.66z M149.03,69.23c-0.2,0.07-0.37,0.15-0.5,0.26
	c-0.13,0.1-0.24,0.2-0.31,0.3c-0.08,0.1-0.12,0.19-0.14,0.26c-0.01,0.08,0.01,0.13,0.06,0.16c0.03,0.02,0.07,0.03,0.14,0.02
	c0.06-0.01,0.13-0.04,0.21-0.1c0.08-0.06,0.17-0.16,0.26-0.31C148.84,69.68,148.94,69.48,149.03,69.23L149.03,69.23z M154.28,67.63
	c0.13,0,0.26-0.07,0.39-0.21c0.12-0.14,0.24-0.32,0.34-0.53c0.1-0.21,0.19-0.44,0.26-0.68c0.07-0.24,0.11-0.46,0.13-0.66
	c-0.09-0.06-0.16-0.14-0.22-0.26c-0.06-0.11-0.11-0.24-0.14-0.38c-0.03-0.14-0.05-0.28-0.06-0.42c0-0.14,0.02-0.27,0.06-0.37
	c-0.13,0.05-0.27,0.17-0.4,0.36c-0.13,0.19-0.26,0.41-0.37,0.68c-0.11,0.26-0.2,0.54-0.28,0.83c-0.08,0.29-0.12,0.56-0.14,0.8
	c-0.01,0.24,0.01,0.44,0.07,0.61C153.99,67.55,154.11,67.63,154.28,67.63L154.28,67.63z"/>
<path class="st9" d="M165.94,122c-0.19-0.01-0.32-0.04-0.39-0.09c-0.07-0.05-0.11-0.11-0.11-0.19c0-0.12,0.04-0.25,0.11-0.39
	c0.07-0.13,0.19-0.19,0.34-0.17c0.09,0.01,0.18,0.02,0.26,0.02c0.08,0.01,0.17,0.01,0.26,0.01c0.17-0.62,0.35-1.22,0.55-1.81
	c0.19-0.59,0.39-1.13,0.57-1.62c0.18-0.49,0.36-0.92,0.51-1.27c0.16-0.35,0.28-0.59,0.37-0.73c0.09-0.15,0.24-0.22,0.45-0.22
	c0.18,0,0.37,0.03,0.56,0.1c0.2,0.07,0.37,0.15,0.51,0.26c0.15,0.11,0.24,0.23,0.3,0.38c0.06,0.15,0.03,0.3-0.07,0.45
	c-0.07,0.09-0.16,0.28-0.29,0.56c-0.13,0.28-0.28,0.63-0.44,1.03c-0.17,0.4-0.35,0.85-0.54,1.35c-0.19,0.5-0.37,1.01-0.55,1.53h0.47
	c0.07,0,0.11,0.04,0.13,0.13c0.02,0.08,0.02,0.18,0.01,0.28c-0.02,0.1-0.06,0.2-0.12,0.29c-0.06,0.09-0.14,0.14-0.24,0.15
	c-0.09,0.01-0.18,0.02-0.27,0.02c-0.09,0-0.18,0.01-0.28,0.02c-0.16,0.46-0.3,0.9-0.42,1.33c-0.12,0.43-0.23,0.83-0.31,1.2
	c-0.08,0.37-0.14,0.69-0.18,0.97c-0.03,0.28-0.03,0.49,0.02,0.64c0.02,0.07,0.07,0.11,0.13,0.12c0.07,0.01,0.13,0,0.19-0.03
	c0.12-0.08,0.27-0.22,0.44-0.43c0.17-0.21,0.35-0.45,0.54-0.73c0.19-0.28,0.38-0.59,0.58-0.92c0.2-0.34,0.38-0.67,0.55-0.99
	c0.17-0.32,0.33-0.63,0.47-0.93c0.14-0.3,0.25-0.55,0.33-0.76c0.02-0.06,0.07-0.09,0.13-0.09c0.07,0,0.14,0.01,0.21,0.03
	c0.07,0.03,0.13,0.07,0.18,0.12c0.05,0.05,0.07,0.1,0.06,0.16c-0.07,0.1-0.17,0.31-0.31,0.63c-0.14,0.32-0.31,0.69-0.5,1.12
	c-0.2,0.43-0.41,0.88-0.65,1.35c-0.23,0.47-0.48,0.91-0.74,1.31c-0.26,0.4-0.51,0.73-0.77,1c-0.26,0.26-0.51,0.4-0.75,0.41
	c-0.47,0.02-0.84-0.1-1.11-0.37c-0.27-0.27-0.43-0.65-0.49-1.16c-0.04-0.37-0.03-0.81,0.02-1.31l-0.13,0.21
	c-0.3,0.46-0.6,0.89-0.91,1.28c-0.31,0.39-0.61,0.72-0.92,0.97c-0.31,0.26-0.6,0.39-0.86,0.39c-0.22,0-0.42-0.06-0.6-0.18
	c-0.18-0.12-0.33-0.28-0.44-0.48c-0.12-0.2-0.21-0.42-0.27-0.67c-0.06-0.25-0.09-0.52-0.09-0.8c0-0.27,0.03-0.55,0.08-0.85
	c0.05-0.3,0.12-0.59,0.2-0.88c0.08-0.29,0.18-0.57,0.29-0.84c0.11-0.27,0.22-0.51,0.34-0.74c-0.19-0.01-0.39-0.04-0.58-0.08
	c-0.1,0.27-0.23,0.55-0.4,0.83c-0.22,0.37-0.46,0.7-0.74,0.99c-0.27,0.29-0.57,0.53-0.89,0.71c-0.32,0.18-0.63,0.26-0.93,0.24
	c-0.22,0.84-0.56,1.53-1.02,2.06c-0.45,0.54-1,0.81-1.63,0.81c-0.25,0-0.51-0.06-0.79-0.19c-0.37-0.19-0.64-0.49-0.81-0.91
	c-0.12-0.28-0.2-0.59-0.24-0.93c-0.17,0.18-0.35,0.35-0.54,0.52c-0.4,0.35-0.84,0.65-1.32,0.9c-0.48,0.24-1.01,0.41-1.58,0.49
	c-0.03,0-0.11,0-0.24,0.01c-0.12,0-0.26-0.01-0.4-0.04c-0.14-0.03-0.29-0.1-0.42-0.18c-0.13-0.09-0.22-0.23-0.25-0.42
	c-0.02-0.11-0.02-0.23,0-0.35c0.02-0.12,0.07-0.23,0.13-0.34c0.07-0.1,0.16-0.18,0.28-0.24c0.12-0.06,0.26-0.08,0.43-0.04
	c0.11,0,0.24-0.1,0.39-0.31c0.15-0.21,0.3-0.46,0.44-0.77c0.15-0.31,0.28-0.64,0.4-1c0.12-0.36,0.22-0.7,0.29-1.01
	c0.07-0.32,0.1-0.59,0.08-0.81c-0.01-0.22-0.08-0.34-0.22-0.38c-0.22-0.06-0.44,0.04-0.64,0.29c-0.2,0.25-0.39,0.57-0.56,0.95
	c-0.17,0.38-0.32,0.78-0.45,1.2c-0.13,0.42-0.23,0.77-0.31,1.05c-0.12,0.48-0.25,0.98-0.37,1.49c-0.12,0.52-0.25,1.02-0.37,1.5
	c-0.12,0.49-0.25,0.93-0.38,1.34c-0.13,0.41-0.26,0.75-0.39,1.01c-0.05,0.11-0.19,0.17-0.4,0.19c-0.21,0.01-0.43-0.01-0.65-0.07
	c-0.22-0.05-0.4-0.14-0.54-0.26c-0.15-0.12-0.18-0.25-0.12-0.41c0.02-0.06,0.05-0.09,0.07-0.09c0.02,0,0.05-0.01,0.08-0.02
	c0.03-0.02,0.08-0.07,0.13-0.15c0.06-0.08,0.12-0.24,0.21-0.46c0.08-0.22,0.19-0.53,0.31-0.92c0.12-0.39,0.27-0.91,0.45-1.56
	c0.18-0.65,0.39-1.44,0.63-2.38c0.24-0.94,0.52-2.06,0.83-3.35c0.01-0.07,0.03-0.14,0.05-0.23c0.02-0.08,0.05-0.16,0.08-0.23
	c0.03-0.07,0.07-0.14,0.12-0.19c0.04-0.06,0.11-0.09,0.18-0.1c0.07-0.01,0.18-0.01,0.35,0.01c0.17,0.02,0.33,0.06,0.48,0.13
	c0.15,0.07,0.27,0.19,0.34,0.34c0.08,0.16,0.07,0.37-0.03,0.64c0.02-0.06,0.08-0.14,0.17-0.24c0.09-0.1,0.2-0.2,0.34-0.3
	c0.14-0.1,0.29-0.19,0.46-0.26c0.17-0.07,0.34-0.11,0.52-0.11c0.5,0,0.9,0.2,1.18,0.59c0.28,0.4,0.34,1,0.18,1.8
	c-0.07,0.29-0.16,0.61-0.28,0.96c-0.12,0.35-0.27,0.68-0.44,1.01c-0.17,0.33-0.36,0.63-0.57,0.91c-0.21,0.29-0.42,0.51-0.63,0.68
	c0.19,0,0.46-0.1,0.81-0.3c0.35-0.2,0.72-0.51,1.13-0.92c0.18-0.18,0.36-0.38,0.54-0.6c0.04-0.34,0.1-0.68,0.2-1.03
	c0.15-0.55,0.36-1.06,0.63-1.53c0.27-0.46,0.58-0.84,0.93-1.14c0.35-0.3,0.73-0.44,1.13-0.44c0.07,0,0.15,0,0.26,0.02
	c0.11,0.01,0.22,0.05,0.33,0.11c0.11,0.06,0.22,0.15,0.34,0.27c0.11,0.12,0.2,0.28,0.27,0.48c0.26,0.11,0.46,0.36,0.6,0.75
	c0.14,0.39,0.16,0.96,0.03,1.69c0.09,0.01,0.22-0.01,0.4-0.07c0.17-0.06,0.36-0.17,0.57-0.33c0.21-0.16,0.42-0.39,0.63-0.69
	c0.18-0.25,0.34-0.55,0.5-0.92l-0.05-0.04c-0.17-0.12-0.32-0.27-0.43-0.45c-0.11-0.19-0.17-0.4-0.19-0.66
	c-0.02-0.38,0.08-0.71,0.29-1c0.22-0.29,0.51-0.42,0.88-0.41c0.2,0,0.36,0.05,0.48,0.15c0.12,0.1,0.2,0.23,0.25,0.39
	c0.05,0.16,0.06,0.33,0.04,0.51c-0.02,0.18-0.07,0.37-0.15,0.54c0.02,0.16,0.12,0.26,0.29,0.32c0.17,0.05,0.34,0.03,0.49-0.08
	c0.16-0.09,0.31-0.14,0.47-0.14c0.17,0,0.34,0.04,0.51,0.12c0.17,0.08,0.31,0.18,0.42,0.3c0.11,0.12,0.17,0.26,0.2,0.42
	c0.03,0.16-0.01,0.32-0.12,0.49c-0.12,0.17-0.27,0.39-0.44,0.68c-0.17,0.29-0.33,0.59-0.49,0.93c-0.16,0.34-0.29,0.68-0.4,1.02
	c-0.11,0.35-0.17,0.66-0.18,0.94c0,0.19,0.02,0.33,0.07,0.42c0.05,0.09,0.18,0.06,0.4-0.1c0.26-0.19,0.55-0.49,0.88-0.9
	c0.33-0.41,0.66-0.84,0.98-1.31c0.22-0.31,0.42-0.61,0.62-0.91c0.07-0.35,0.15-0.71,0.24-1.08L165.94,122L165.94,122z
	 M129.45,125.49c0-0.27,0.03-0.55,0.08-0.85c0.05-0.3,0.12-0.59,0.2-0.88c0.08-0.29,0.18-0.57,0.29-0.84
	c0.11-0.27,0.22-0.51,0.33-0.74c-0.22-0.01-0.45-0.05-0.67-0.1c-0.22-0.06-0.42-0.14-0.6-0.26c-0.17-0.12-0.32-0.27-0.43-0.45
	c-0.11-0.19-0.17-0.4-0.18-0.66c-0.02-0.38,0.08-0.71,0.29-1c0.22-0.29,0.51-0.42,0.88-0.41c0.2,0,0.36,0.05,0.48,0.15
	c0.12,0.1,0.2,0.23,0.25,0.39c0.05,0.16,0.06,0.33,0.04,0.51c-0.02,0.18-0.07,0.37-0.15,0.54c0.02,0.16,0.12,0.26,0.29,0.32
	c0.17,0.05,0.34,0.03,0.49-0.08c0.16-0.09,0.31-0.14,0.47-0.14c0.17,0,0.34,0.04,0.51,0.12c0.17,0.08,0.31,0.18,0.42,0.3
	c0.11,0.12,0.17,0.26,0.2,0.42c0.03,0.16-0.01,0.32-0.12,0.49c-0.12,0.17-0.27,0.39-0.44,0.68c-0.17,0.29-0.33,0.59-0.49,0.93
	c-0.16,0.34-0.29,0.68-0.4,1.02c-0.11,0.35-0.17,0.66-0.18,0.94c0,0.19,0.02,0.33,0.07,0.42c0.05,0.09,0.18,0.06,0.4-0.1
	c0.26-0.19,0.55-0.49,0.88-0.9c0.25-0.31,0.5-0.64,0.75-0.99c0.04-0.24,0.09-0.49,0.15-0.74c0.14-0.53,0.34-1.02,0.61-1.46
	c0.27-0.44,0.6-0.81,0.98-1.11c0.39-0.3,0.83-0.44,1.33-0.44c0.2,0,0.41,0.04,0.61,0.11c0.21,0.07,0.39,0.18,0.54,0.33
	c0.16,0.15,0.29,0.33,0.4,0.56c0.1,0.23,0.16,0.5,0.16,0.82c-0.02,0.59-0.15,1.08-0.38,1.47c-0.23,0.39-0.51,0.7-0.85,0.94
	c-0.34,0.23-0.69,0.4-1.06,0.49c-0.38,0.09-0.72,0.14-1.03,0.14c-0.02,0.14-0.01,0.29,0.03,0.44c0.04,0.15,0.1,0.28,0.19,0.4
	c0.08,0.12,0.19,0.21,0.32,0.29c0.13,0.07,0.28,0.11,0.44,0.11c0.29,0,0.62-0.14,0.99-0.4c0.37-0.27,0.75-0.63,1.13-1.1
	c0.27-0.32,0.53-0.68,0.8-1.08c0.09-0.39,0.21-0.76,0.34-1.13c0.16-0.44,0.35-0.83,0.55-1.18c0.21-0.35,0.42-0.61,0.63-0.78
	c0.18-0.13,0.36-0.23,0.54-0.29c0.18-0.06,0.37-0.09,0.55-0.09c0.27,0,0.51,0.06,0.72,0.18c0.21,0.12,0.37,0.3,0.49,0.56
	c0.18-0.64,0.37-1.27,0.58-1.89c0.21-0.62,0.4-1.18,0.59-1.68c0.18-0.5,0.35-0.93,0.5-1.28c0.15-0.35,0.26-0.58,0.34-0.69
	c0.06-0.08,0.13-0.14,0.21-0.17c0.08-0.03,0.17-0.05,0.24-0.05c0.17,0,0.35,0.03,0.56,0.08c0.21,0.06,0.39,0.14,0.54,0.24
	c0.16,0.1,0.27,0.22,0.34,0.36c0.07,0.14,0.05,0.29-0.05,0.44c-0.11,0.18-0.28,0.5-0.49,0.98c-0.22,0.48-0.46,1.02-0.71,1.64
	c-0.26,0.62-0.52,1.28-0.79,1.99c-0.27,0.7-0.51,1.38-0.72,2.02c-0.21,0.64-0.39,1.22-0.52,1.73c-0.13,0.51-0.19,0.88-0.17,1.12
	c0.02,0.15,0.07,0.2,0.15,0.15c0.15-0.07,0.31-0.21,0.5-0.42c0.19-0.21,0.39-0.47,0.6-0.76c0.21-0.29,0.42-0.62,0.64-0.96
	s0.41-0.68,0.6-1.02c0.19-0.33,0.36-0.64,0.51-0.92c0.15-0.29,0.27-0.52,0.34-0.7c0.02-0.06,0.07-0.08,0.14-0.08
	s0.14,0.01,0.22,0.04c0.07,0.03,0.13,0.07,0.18,0.12c0.05,0.05,0.06,0.1,0.05,0.16c-0.07,0.1-0.18,0.32-0.33,0.64
	c-0.15,0.33-0.33,0.71-0.55,1.14c-0.21,0.43-0.45,0.88-0.7,1.35c-0.26,0.47-0.52,0.9-0.8,1.3c-0.27,0.4-0.55,0.72-0.84,0.98
	c-0.29,0.26-0.56,0.39-0.83,0.39c-0.28,0-0.53-0.1-0.75-0.3c-0.22-0.2-0.37-0.47-0.44-0.8c-0.07,0.12-0.15,0.25-0.25,0.38
	c-0.1,0.13-0.21,0.25-0.34,0.35c-0.12,0.1-0.26,0.2-0.41,0.27c-0.15,0.07-0.32,0.12-0.49,0.13c-0.48,0-0.88-0.16-1.21-0.49
	c-0.32-0.33-0.49-0.82-0.49-1.48c0-0.11,0-0.22,0.01-0.34c-0.3,0.41-0.62,0.78-0.96,1.12c-0.35,0.35-0.72,0.64-1.09,0.86
	c-0.38,0.22-0.75,0.34-1.13,0.35c-0.3,0-0.58-0.06-0.82-0.19c-0.25-0.13-0.46-0.31-0.65-0.54c-0.18-0.23-0.33-0.5-0.43-0.81
	c-0.05-0.15-0.09-0.31-0.11-0.47c-0.15,0.22-0.31,0.43-0.47,0.63c-0.31,0.39-0.61,0.72-0.92,0.97c-0.31,0.26-0.6,0.39-0.86,0.39
	c-0.22,0-0.42-0.06-0.6-0.18c-0.18-0.12-0.33-0.28-0.44-0.48c-0.12-0.2-0.21-0.42-0.27-0.67
	C129.48,126.03,129.45,125.76,129.45,125.49L129.45,125.49z M136.07,122.13c-0.1,0.05-0.22,0.17-0.35,0.34
	c-0.13,0.17-0.27,0.37-0.4,0.61c-0.13,0.24-0.26,0.5-0.37,0.79c-0.11,0.29-0.19,0.57-0.25,0.87c0.19-0.02,0.38-0.1,0.58-0.24
	c0.2-0.13,0.37-0.3,0.54-0.49c0.16-0.2,0.3-0.42,0.41-0.67c0.11-0.25,0.18-0.51,0.2-0.76c0.01-0.13,0-0.23-0.03-0.29
	c-0.03-0.06-0.06-0.11-0.1-0.14c-0.04-0.03-0.08-0.04-0.12-0.03C136.14,122.11,136.1,122.12,136.07,122.13L136.07,122.13z
	 M141.76,122.55c0-0.03,0-0.09-0.01-0.16c-0.01-0.07-0.02-0.14-0.03-0.21c-0.02-0.07-0.04-0.13-0.07-0.19
	c-0.03-0.05-0.06-0.08-0.11-0.08c-0.13,0-0.28,0.1-0.44,0.31c-0.16,0.2-0.32,0.47-0.47,0.78c-0.15,0.31-0.29,0.66-0.43,1.04
	c-0.13,0.38-0.24,0.74-0.32,1.07c-0.02,0.1-0.05,0.24-0.08,0.42c-0.03,0.18-0.05,0.35-0.06,0.53c0,0.17,0.01,0.32,0.04,0.45
	c0.03,0.13,0.11,0.19,0.22,0.19c0.15,0,0.29-0.08,0.44-0.24c0.15-0.16,0.28-0.37,0.41-0.63c0.13-0.26,0.25-0.54,0.36-0.86
	c0.11-0.31,0.21-0.62,0.29-0.93c0.08-0.31,0.15-0.59,0.19-0.86C141.73,122.92,141.76,122.71,141.76,122.55L141.76,122.55z
	 M156.06,126.93c0.16,0,0.31-0.08,0.45-0.25c0.15-0.17,0.28-0.38,0.4-0.63c0.12-0.25,0.22-0.52,0.3-0.8
	c0.08-0.29,0.13-0.54,0.15-0.78c-0.1-0.07-0.19-0.17-0.26-0.3c-0.07-0.13-0.13-0.28-0.17-0.44c-0.04-0.16-0.06-0.33-0.07-0.49
	c-0.01-0.17,0.02-0.31,0.07-0.44c-0.16,0.05-0.31,0.2-0.47,0.42c-0.16,0.22-0.3,0.49-0.43,0.8c-0.13,0.31-0.24,0.64-0.33,0.98
	c-0.09,0.35-0.14,0.66-0.16,0.95c-0.02,0.29,0.01,0.52,0.08,0.71C155.72,126.83,155.86,126.93,156.06,126.93L156.06,126.93z"/>
<path class="st9" d="M145.62,86.28c0-0.03,0-0.09-0.01-0.16c-0.01-0.07-0.02-0.14-0.03-0.21c-0.02-0.07-0.04-0.13-0.07-0.19
	c-0.03-0.05-0.06-0.08-0.11-0.08c-0.13,0-0.28,0.1-0.44,0.31c-0.16,0.21-0.32,0.47-0.47,0.78c-0.15,0.31-0.29,0.66-0.43,1.04
	c-0.13,0.38-0.24,0.74-0.32,1.07c-0.02,0.1-0.05,0.24-0.08,0.42c-0.03,0.18-0.05,0.36-0.06,0.53c-0.01,0.17,0.01,0.33,0.04,0.45
	c0.03,0.13,0.11,0.19,0.22,0.19c0.15,0,0.29-0.08,0.44-0.24c0.15-0.16,0.28-0.37,0.41-0.63c0.13-0.26,0.25-0.54,0.36-0.85
	c0.11-0.31,0.21-0.63,0.29-0.93c0.08-0.31,0.15-0.59,0.19-0.86C145.6,86.64,145.62,86.43,145.62,86.28L145.62,86.28z M131.99,89.88
	c0.02,0.14,0.1,0.23,0.22,0.29c0.12,0.06,0.25,0.06,0.37,0c0.25-0.08,0.5-0.35,0.77-0.81c0.27-0.46,0.49-1.05,0.67-1.75
	c-0.2-0.2-0.35-0.44-0.45-0.73c-0.1-0.28-0.15-0.55-0.15-0.81c0-0.13,0.02-0.28,0.06-0.44c0.04-0.16,0.1-0.3,0.18-0.44
	c0.08-0.13,0.17-0.25,0.29-0.34c0.11-0.09,0.24-0.15,0.39-0.16c0.24-0.01,0.47,0.05,0.68,0.18c0.21,0.13,0.37,0.31,0.5,0.55
	c0.13,0.24,0.22,0.52,0.26,0.84c0.05,0.32,0.03,0.66-0.03,1.01c0.18,0.01,0.38-0.01,0.6-0.07c0.22-0.06,0.43-0.17,0.65-0.33
	c0.21-0.16,0.4-0.36,0.58-0.62c0.14-0.21,0.26-0.47,0.36-0.77c-0.13-0.1-0.24-0.23-0.33-0.38c-0.11-0.18-0.17-0.4-0.19-0.66
	c-0.02-0.38,0.08-0.71,0.29-1c0.22-0.29,0.51-0.42,0.88-0.41c0.2,0,0.36,0.05,0.48,0.15c0.12,0.1,0.2,0.23,0.25,0.39
	c0.05,0.16,0.06,0.33,0.04,0.51c-0.02,0.19-0.07,0.37-0.15,0.54c0.02,0.16,0.12,0.26,0.29,0.32c0.17,0.06,0.34,0.03,0.49-0.08
	c0.16-0.09,0.31-0.14,0.47-0.14c0.17,0,0.34,0.04,0.51,0.12c0.17,0.08,0.31,0.18,0.42,0.3c0.11,0.12,0.17,0.26,0.2,0.42
	c0.03,0.16-0.01,0.32-0.13,0.49c-0.12,0.17-0.27,0.39-0.44,0.68c-0.17,0.29-0.33,0.59-0.49,0.93c-0.16,0.34-0.29,0.68-0.4,1.02
	c-0.11,0.35-0.17,0.66-0.19,0.94c0,0.19,0.02,0.33,0.07,0.42c0.04,0.09,0.18,0.05,0.4-0.1c0.26-0.19,0.55-0.49,0.88-0.9
	c0.33-0.41,0.66-0.84,0.98-1.31l0.12-0.17c0.08-0.29,0.17-0.58,0.27-0.86c0.16-0.44,0.34-0.83,0.54-1.18
	c0.2-0.35,0.41-0.61,0.62-0.78c0.18-0.14,0.36-0.23,0.55-0.29c0.19-0.06,0.37-0.09,0.55-0.09c0.27,0,0.51,0.06,0.72,0.18
	c0.21,0.12,0.37,0.31,0.47,0.56c0.03-0.08,0.06-0.14,0.08-0.17c0.02-0.03,0.05-0.1,0.11-0.18c0.08-0.15,0.23-0.22,0.44-0.21
	c0.22,0.01,0.43,0.05,0.64,0.14c0.21,0.09,0.38,0.2,0.53,0.34s0.18,0.28,0.12,0.41c-0.21,0.47-0.41,0.93-0.59,1.4
	c-0.18,0.46-0.35,0.9-0.49,1.3c-0.14,0.4-0.24,0.76-0.31,1.07c-0.07,0.31-0.09,0.55-0.07,0.72c0.02,0.09,0.06,0.14,0.11,0.14
	c0.05,0,0.11-0.01,0.17-0.05c0.06-0.04,0.12-0.09,0.18-0.15c0.06-0.06,0.1-0.11,0.13-0.15c0.22-0.24,0.46-0.57,0.72-0.98
	c0.26-0.41,0.51-0.83,0.75-1.27l0.01-0.01c0.11-0.43,0.24-0.86,0.37-1.31c0.17-0.55,0.34-1.07,0.5-1.57
	c0.05-0.12,0.17-0.2,0.39-0.24c0.21-0.03,0.43-0.03,0.65,0.02c0.22,0.05,0.4,0.12,0.55,0.24c0.15,0.11,0.19,0.25,0.11,0.42
	c-0.09,0.24-0.19,0.47-0.3,0.7c-0.11,0.24-0.21,0.46-0.29,0.67c0.08-0.12,0.18-0.27,0.31-0.43c0.13-0.16,0.27-0.33,0.42-0.49
	c0.15-0.17,0.31-0.33,0.47-0.49c0.16-0.15,0.33-0.29,0.5-0.4c0.21-0.13,0.42-0.19,0.64-0.17c0.21,0.02,0.39,0.1,0.55,0.24
	c0.15,0.14,0.26,0.34,0.33,0.59c0.07,0.25,0.06,0.54-0.02,0.88c-0.04,0.2-0.12,0.47-0.23,0.81c-0.11,0.34-0.22,0.69-0.34,1.06
	c-0.11,0.37-0.21,0.73-0.3,1.07c-0.09,0.35-0.13,0.62-0.13,0.82c0,0.03,0.01,0.08,0.03,0.13c0.02,0.05,0.05,0.08,0.11,0.08
	c0.09,0,0.24-0.1,0.46-0.3c0.22-0.2,0.47-0.5,0.76-0.91c0.1-0.14,0.21-0.29,0.31-0.46c0.02-0.12,0.05-0.25,0.07-0.38
	c0.1-0.47,0.23-0.92,0.39-1.36c0.16-0.44,0.35-0.83,0.55-1.18c0.21-0.35,0.42-0.61,0.63-0.78c0.18-0.14,0.36-0.23,0.55-0.29
	c0.18-0.06,0.37-0.09,0.54-0.09c0.27,0,0.51,0.06,0.72,0.18c0.21,0.12,0.37,0.31,0.49,0.56c0.18-0.64,0.37-1.27,0.58-1.89
	c0.21-0.62,0.4-1.18,0.59-1.68c0.18-0.5,0.35-0.93,0.5-1.28c0.15-0.35,0.27-0.59,0.34-0.7c0.06-0.08,0.13-0.14,0.21-0.17
	c0.08-0.04,0.17-0.05,0.24-0.05c0.17,0,0.36,0.03,0.56,0.08c0.21,0.06,0.39,0.14,0.55,0.24c0.16,0.1,0.27,0.22,0.33,0.36
	c0.07,0.14,0.05,0.29-0.05,0.44c-0.11,0.18-0.28,0.5-0.5,0.98c-0.22,0.48-0.46,1.02-0.71,1.64c-0.26,0.62-0.52,1.28-0.79,1.99
	c-0.27,0.7-0.51,1.38-0.72,2.02c-0.21,0.64-0.39,1.22-0.52,1.73c-0.13,0.51-0.19,0.88-0.17,1.12c0.02,0.15,0.07,0.2,0.15,0.15
	c0.15-0.07,0.31-0.21,0.5-0.42c0.19-0.21,0.39-0.47,0.6-0.76c0.21-0.3,0.42-0.62,0.64-0.97c0.12-0.2,0.24-0.4,0.36-0.59
	c0.04-0.15,0.08-0.31,0.13-0.47c0.1-0.35,0.2-0.68,0.31-1c0.11-0.31,0.21-0.59,0.32-0.82c0.11-0.24,0.2-0.41,0.28-0.52
	c0.07-0.09,0.16-0.15,0.28-0.19c0.12-0.03,0.23-0.04,0.34-0.02c0.17,0.01,0.34,0.05,0.5,0.1c0.17,0.05,0.31,0.13,0.43,0.23
	c0.12,0.1,0.19,0.2,0.23,0.33c0.03,0.12,0,0.26-0.1,0.42c-0.1,0.17-0.23,0.43-0.4,0.78c-0.17,0.35-0.34,0.74-0.5,1.16
	c-0.17,0.42-0.32,0.84-0.46,1.27c-0.14,0.43-0.24,0.79-0.29,1.11c-0.05,0.23-0.05,0.38,0,0.47c0.05,0.09,0.09,0.13,0.15,0.13
	c0.17,0,0.33-0.12,0.49-0.35c0.16-0.24,0.31-0.54,0.47-0.91c0.16-0.37,0.31-0.79,0.45-1.24c0.15-0.45,0.29-0.89,0.44-1.32
	c0.15-0.43,0.3-0.82,0.44-1.17c0.14-0.35,0.28-0.61,0.43-0.78c0.08-0.09,0.18-0.15,0.3-0.18c0.12-0.03,0.25-0.03,0.37-0.01
	c0.15,0.02,0.3,0.06,0.46,0.12c0.16,0.05,0.3,0.13,0.43,0.23c0.12,0.1,0.2,0.22,0.24,0.35c0.04,0.13,0.01,0.28-0.09,0.44
	c-0.2,0.31-0.39,0.67-0.57,1.07c-0.18,0.4-0.35,0.82-0.5,1.24c-0.16,0.43-0.31,0.85-0.45,1.27c-0.15,0.42-0.28,0.8-0.4,1.13
	c-0.02,0.07-0.05,0.16-0.09,0.29c-0.04,0.12-0.07,0.21-0.09,0.27c0.32-0.19,0.67-0.48,1.02-0.86c0.36-0.38,0.71-0.82,1.06-1.32
	c0.35-0.5,0.69-1.03,1.01-1.59c0.32-0.57,0.6-1.13,0.85-1.7c0.03-0.05,0.09-0.07,0.16-0.08c0.07,0,0.15,0.01,0.22,0.04
	c0.07,0.03,0.13,0.07,0.18,0.12c0.04,0.05,0.06,0.1,0.05,0.14c-0.19,0.47-0.45,1.02-0.79,1.64c-0.34,0.63-0.72,1.24-1.16,1.85
	c-0.44,0.61-0.91,1.17-1.42,1.69c-0.51,0.52-1.03,0.91-1.57,1.18c-0.04,0.12-0.09,0.26-0.14,0.4c-0.05,0.15-0.09,0.28-0.12,0.4
	c-0.11,0.31-0.25,0.61-0.41,0.9c-0.16,0.29-0.35,0.54-0.56,0.75c-0.21,0.22-0.45,0.39-0.71,0.53c-0.26,0.14-0.55,0.2-0.86,0.2
	c-0.39,0-0.7-0.11-0.92-0.34c-0.22-0.22-0.34-0.49-0.34-0.81c0-0.34,0.08-0.64,0.24-0.91c0.16-0.27,0.36-0.52,0.61-0.73
	c0.25-0.21,0.53-0.4,0.84-0.55c0.31-0.16,0.61-0.28,0.91-0.37c0.01-0.07,0.03-0.15,0.06-0.24c0.03-0.1,0.06-0.18,0.08-0.26
	c0.03-0.08,0.05-0.14,0.06-0.19c0.01-0.04,0.01-0.05,0-0.03c-0.08,0.17-0.17,0.3-0.26,0.39c-0.1,0.1-0.18,0.17-0.27,0.22
	c-0.08,0.05-0.16,0.08-0.23,0.09c-0.07,0.01-0.12,0.02-0.15,0.02c-0.42,0-0.75-0.15-0.98-0.44c-0.23-0.29-0.35-0.69-0.36-1.19
	c0-0.06,0-0.13,0-0.2c-0.1,0.15-0.19,0.3-0.29,0.44c-0.27,0.4-0.55,0.72-0.84,0.98c-0.28,0.26-0.56,0.39-0.83,0.39
	c-0.28,0-0.53-0.1-0.75-0.3c-0.22-0.2-0.37-0.47-0.44-0.81c-0.07,0.12-0.15,0.25-0.25,0.38c-0.1,0.13-0.21,0.25-0.34,0.35
	c-0.12,0.11-0.26,0.19-0.41,0.27c-0.15,0.07-0.32,0.11-0.49,0.13c-0.48,0-0.88-0.17-1.21-0.5c-0.25-0.25-0.4-0.6-0.46-1.04
	l-0.04,0.06c-0.28,0.39-0.56,0.72-0.86,0.99c-0.29,0.27-0.58,0.43-0.87,0.47c-0.27,0.02-0.49,0-0.68-0.07
	c-0.18-0.07-0.33-0.17-0.44-0.32c-0.11-0.15-0.19-0.32-0.24-0.52c-0.05-0.2-0.08-0.42-0.08-0.65c0-0.36,0.05-0.75,0.16-1.18
	c0.11-0.43,0.2-0.86,0.29-1.28c0.07-0.3,0.08-0.51,0.04-0.63c-0.04-0.12-0.11-0.16-0.21-0.13c-0.1,0.03-0.22,0.11-0.34,0.26
	c-0.13,0.14-0.24,0.33-0.34,0.55c-0.1,0.22-0.21,0.48-0.34,0.76c-0.12,0.29-0.24,0.58-0.34,0.87c-0.11,0.29-0.21,0.58-0.3,0.86
	c-0.09,0.28-0.17,0.53-0.21,0.74c-0.05,0.2-0.14,0.39-0.29,0.55c-0.14,0.17-0.36,0.23-0.64,0.18c-0.2-0.02-0.35-0.14-0.44-0.34
	c-0.1-0.21-0.14-0.39-0.14-0.56c0-0.15,0.01-0.31,0.03-0.49l-0.02,0.03c-0.26,0.4-0.53,0.72-0.8,0.98
	c-0.27,0.26-0.54,0.39-0.81,0.39c-0.29,0-0.54-0.1-0.76-0.3c-0.22-0.2-0.36-0.47-0.43-0.81c-0.07,0.12-0.15,0.25-0.25,0.38
	c-0.1,0.13-0.21,0.25-0.34,0.35c-0.12,0.11-0.26,0.19-0.41,0.27c-0.15,0.07-0.32,0.11-0.49,0.13c-0.48,0-0.88-0.17-1.21-0.5
	c-0.32-0.33-0.49-0.82-0.49-1.48l0-0.15c-0.19,0.27-0.37,0.53-0.56,0.77c-0.31,0.39-0.61,0.72-0.92,0.97
	c-0.31,0.26-0.6,0.39-0.86,0.39c-0.22,0-0.42-0.06-0.6-0.19c-0.18-0.12-0.33-0.28-0.44-0.48c-0.12-0.2-0.21-0.42-0.27-0.67
	c-0.06-0.25-0.09-0.52-0.09-0.8c0-0.27,0.03-0.55,0.07-0.85c0.05-0.3,0.12-0.59,0.2-0.88c0.08-0.29,0.18-0.57,0.29-0.84
	c0.11-0.27,0.22-0.51,0.34-0.74c-0.22-0.01-0.45-0.05-0.67-0.1l-0.09-0.02c-0.11,0.34-0.27,0.64-0.46,0.91
	c-0.25,0.34-0.52,0.62-0.82,0.84c-0.3,0.22-0.6,0.39-0.9,0.5c-0.3,0.11-0.57,0.16-0.81,0.14c-0.12,0.36-0.28,0.73-0.47,1.1
	c-0.19,0.37-0.41,0.72-0.65,1.02s-0.51,0.56-0.8,0.75c-0.28,0.2-0.58,0.29-0.9,0.29c-0.19,0-0.38-0.04-0.57-0.12
	c-0.19-0.08-0.33-0.2-0.42-0.35c-0.08,0.19-0.17,0.32-0.27,0.38c-0.1,0.06-0.21,0.09-0.32,0.09c-0.22,0-0.43-0.07-0.62-0.2
	c-0.19-0.13-0.27-0.35-0.25-0.64c0.04-0.38,0.14-0.88,0.28-1.52c0.14-0.63,0.31-1.32,0.51-2.07c0.2-0.75,0.42-1.52,0.66-2.3
	c0.24-0.79,0.47-1.53,0.7-2.22c0.23-0.69,0.44-1.3,0.65-1.81c0.2-0.51,0.37-0.87,0.5-1.07c0.09-0.15,0.25-0.22,0.47-0.22
	c0.18,0,0.37,0.03,0.56,0.1c0.2,0.07,0.37,0.15,0.51,0.26c0.15,0.1,0.24,0.23,0.3,0.38c0.06,0.15,0.03,0.3-0.07,0.45
	c-0.05,0.07-0.16,0.32-0.35,0.76c-0.19,0.44-0.41,0.98-0.67,1.61c-0.26,0.63-0.53,1.32-0.81,2.06c-0.28,0.74-0.53,1.45-0.76,2.12
	c-0.23,0.67-0.42,1.27-0.56,1.79C132.03,89.34,131.97,89.69,131.99,89.88L131.99,89.88z M157.86,86.28c0-0.03,0-0.09-0.01-0.16
	c-0.01-0.07-0.02-0.14-0.03-0.21c-0.02-0.07-0.04-0.13-0.07-0.19c-0.03-0.05-0.06-0.08-0.11-0.08c-0.14,0-0.28,0.1-0.44,0.31
	c-0.16,0.21-0.32,0.47-0.47,0.78c-0.15,0.31-0.29,0.66-0.43,1.04c-0.14,0.38-0.24,0.74-0.32,1.07c-0.02,0.1-0.05,0.24-0.08,0.42
	c-0.03,0.18-0.05,0.36-0.06,0.53c0,0.17,0.01,0.33,0.04,0.45c0.03,0.13,0.11,0.19,0.22,0.19c0.15,0,0.29-0.08,0.44-0.24
	c0.15-0.16,0.28-0.37,0.41-0.63c0.13-0.26,0.25-0.54,0.36-0.85c0.11-0.31,0.21-0.63,0.29-0.93c0.08-0.31,0.15-0.59,0.19-0.86
	C157.84,86.64,157.86,86.43,157.86,86.28L157.86,86.28z M162.34,92.55c-0.24,0.08-0.43,0.18-0.59,0.3
	c-0.16,0.12-0.28,0.24-0.37,0.36c-0.09,0.12-0.14,0.22-0.16,0.31c-0.02,0.09,0.01,0.15,0.08,0.19c0.03,0.02,0.09,0.03,0.16,0.02
	c0.07,0,0.16-0.05,0.25-0.12c0.1-0.07,0.2-0.19,0.3-0.36C162.12,93.08,162.23,92.85,162.34,92.55L162.34,92.55z"/>
</svg>
