<?xml version="1.0" encoding="utf-8"?>
<!-- Generator: Adobe Illustrator 23.0.1, SVG Export Plug-In . SVG Version: 6.00 Build 0)  -->
<svg version="1.1" id="Screwdriver" xmlns="http://www.w3.org/2000/svg" xmlns:xlink="http://www.w3.org/1999/xlink" x="0px"
	 y="0px" viewBox="0 0 300 300" style="enable-background:new 0 0 300 300;" xml:space="preserve">
<style type="text/css">
	.st0{fill:#4E4236;}
	.st1{fill-rule:evenodd;clip-rule:evenodd;fill:#F6B855;}
	.st2{fill-rule:evenodd;clip-rule:evenodd;fill:#FFFFFF;}
	.st3{fill-rule:evenodd;clip-rule:evenodd;fill:#D49631;}
	.st4{fill-rule:evenodd;clip-rule:evenodd;fill:#DCDCDC;}
	.st5{fill-rule:evenodd;clip-rule:evenodd;fill:#4E4236;}
</style>
<path class="st0" d="M186.9,11.38c0.56-0.05,1.02,0.11,1.37,0.45s0.57,0.83,0.67,1.45c0.1,0.62,0.07,1.33-0.09,2.14
	c-0.16,0.81-0.46,1.66-0.91,2.56c0.36,0.07,0.74-0.01,1.15-0.22c0.1-0.06,0.21-0.12,0.32-0.19c0.28-1.02,0.68-1.95,1.2-2.81
	c0.54-0.89,1.19-1.63,1.97-2.22c0.78-0.59,1.67-0.89,2.68-0.89c0.4,0,0.81,0.07,1.23,0.22c0.42,0.15,0.78,0.37,1.09,0.66
	c0.32,0.29,0.58,0.67,0.79,1.13c0.22,0.46,0.32,1,0.32,1.63c-0.04,1.19-0.3,2.18-0.76,2.96c-0.46,0.78-1.03,1.41-1.7,1.88
	c-0.67,0.47-1.39,0.8-2.14,0.99c-0.75,0.19-1.44,0.29-2.07,0.29c-0.04,0.29-0.03,0.59,0.05,0.89c0.08,0.3,0.2,0.57,0.37,0.81
	c0.17,0.24,0.38,0.43,0.64,0.57c0.26,0.15,0.55,0.22,0.89,0.22c0.58,0,1.25-0.27,1.99-0.81c0.74-0.54,1.5-1.27,2.27-2.21
	c0.77-0.93,1.54-2.02,2.31-3.27c0.76-1.25,1.46-2.58,2.09-3.99c0.04-0.11,0.13-0.17,0.27-0.19c0.14-0.01,0.27,0.01,0.41,0.07
	c0.13,0.06,0.24,0.14,0.32,0.24c0.08,0.1,0.1,0.2,0.05,0.29c-0.24,0.52-0.58,1.16-0.99,1.93c-0.41,0.78-0.88,1.6-1.41,2.46
	c-0.53,0.86-1.1,1.73-1.73,2.59c-0.63,0.86-1.29,1.65-2,2.36c-0.71,0.71-1.44,1.29-2.19,1.73c-0.75,0.45-1.51,0.69-2.27,0.71
	c-0.61,0-1.16-0.13-1.65-0.39c-0.49-0.26-0.93-0.62-1.29-1.08c-0.37-0.46-0.66-1-0.86-1.62c-0.2-0.62-0.31-1.3-0.31-2.04
	c0-0.31,0.02-0.63,0.05-0.96l-0.08,0.05c-0.72,0.43-1.42,0.53-2.12,0.3c-0.38,0.7-0.79,1.38-1.23,2.05
	c-0.44,0.67-0.9,1.28-1.38,1.82c-0.48,0.54-0.98,0.98-1.48,1.31c-0.51,0.34-1.01,0.5-1.5,0.5c-0.52,0-1.01-0.2-1.47-0.59
	c-0.46-0.39-0.81-0.95-1.06-1.67c-0.1-0.3-0.18-0.61-0.23-0.94c-0.13,0.19-0.26,0.37-0.39,0.55c-0.57,0.77-1.19,1.4-1.84,1.9
	c-0.65,0.5-1.31,0.75-1.99,0.75c-0.56,0-1.03-0.09-1.41-0.26c-0.38-0.18-0.69-0.43-0.93-0.75c-0.23-0.32-0.4-0.7-0.51-1.13
	c-0.1-0.43-0.15-0.91-0.15-1.43c0-0.35,0.02-0.73,0.05-1.12c-0.46,0.7-0.94,1.35-1.42,1.96c-0.62,0.79-1.23,1.44-1.85,1.95
	c-0.62,0.52-1.2,0.77-1.74,0.77c-0.45,0-0.85-0.12-1.21-0.37c-0.36-0.25-0.66-0.57-0.89-0.96c-0.24-0.39-0.42-0.84-0.54-1.35
	c-0.12-0.51-0.19-1.04-0.19-1.6c0-0.54,0.05-1.11,0.15-1.7c0.1-0.59,0.23-1.18,0.41-1.77c0.17-0.59,0.36-1.15,0.59-1.68
	c0.22-0.54,0.45-1.03,0.67-1.48c-0.45-0.02-0.9-0.09-1.35-0.2c-0.06-0.02-0.12-0.03-0.19-0.05c-0.11,0.21-0.23,0.47-0.37,0.78
	c-0.31,0.66-0.67,1.43-1.1,2.29c-0.43,0.86-0.9,1.77-1.41,2.71c-0.52,0.94-1.05,1.81-1.6,2.61c-0.55,0.8-1.11,1.46-1.68,1.97
	c-0.57,0.52-1.13,0.77-1.67,0.77c-0.56,0-1.06-0.2-1.5-0.61c-0.44-0.4-0.74-0.94-0.89-1.62c-0.13,0.25-0.3,0.5-0.51,0.76
	c-0.2,0.26-0.43,0.49-0.67,0.71c-0.24,0.21-0.52,0.39-0.82,0.54c-0.31,0.15-0.64,0.23-0.99,0.25c-0.97,0-1.78-0.33-2.43-0.99
	c-0.65-0.66-0.97-1.66-0.97-2.98c0-0.81,0.1-1.68,0.3-2.63l0.04-0.18c-0.32,0.27-0.65,0.52-1,0.73c-0.71,0.44-1.4,0.57-2.07,0.39
	c-0.34,0.65-0.7,1.29-1.1,1.92c-0.39,0.63-0.81,1.2-1.24,1.72c-0.44,0.52-0.89,0.96-1.37,1.31c-0.47,0.36-0.96,0.58-1.45,0.67
	c-0.38,0.07-0.74,0.04-1.08-0.08c-0.33-0.12-0.64-0.32-0.91-0.61c-0.27-0.28-0.51-0.62-0.71-1.01c-0.21-0.39-0.35-0.81-0.44-1.26
	c-0.2,0.36-0.41,0.71-0.61,1.06c-0.2,0.35-0.42,0.66-0.65,0.94c-0.24,0.28-0.5,0.51-0.78,0.69c-0.28,0.18-0.59,0.28-0.92,0.3
	c-0.59,0.05-1.08-0.04-1.49-0.25c-0.4-0.21-0.72-0.52-0.96-0.91c-0.23-0.39-0.4-0.85-0.49-1.38c-0.09-0.52-0.11-1.08-0.07-1.68
	c-0.51,0.65-1.04,1.26-1.6,1.82c-0.71,0.71-1.44,1.29-2.19,1.73c-0.75,0.45-1.51,0.69-2.27,0.71c-0.61,0-1.16-0.13-1.65-0.39
	c-0.5-0.26-0.93-0.62-1.3-1.08c-0.37-0.46-0.65-1-0.86-1.62c-0.1-0.3-0.17-0.61-0.22-0.94c-0.31,0.44-0.63,0.86-0.94,1.26
	c-0.62,0.79-1.23,1.44-1.85,1.95c-0.62,0.52-1.19,0.77-1.73,0.77c-0.45,0-0.86-0.12-1.21-0.37c-0.36-0.25-0.65-0.57-0.89-0.96
	c-0.24-0.39-0.42-0.84-0.54-1.35c-0.12-0.51-0.19-1.04-0.19-1.6c0-0.54,0.05-1.11,0.15-1.7c0.1-0.59,0.23-1.18,0.4-1.77
	c0.17-0.59,0.37-1.15,0.59-1.68c0.22-0.54,0.45-1.03,0.67-1.48c-0.45-0.02-0.9-0.09-1.35-0.2c-0.08-0.02-0.16-0.04-0.23-0.07
	c-0.26,0.46-0.55,0.97-0.88,1.55c-0.45,0.79-0.94,1.61-1.48,2.48c-0.54,0.86-1.12,1.72-1.73,2.58c-0.62,0.85-1.26,1.62-1.92,2.29
	c-0.66,0.67-1.35,1.23-2.05,1.65c-0.71,0.43-1.41,0.64-2.11,0.64c-0.72,0-1.33-0.14-1.83-0.42c-0.51-0.28-0.93-0.66-1.27-1.13
	c-0.33-0.47-0.58-1.01-0.74-1.6c-0.16-0.59-0.23-1.22-0.23-1.87c0-1.1,0.17-2.23,0.52-3.4s0.83-2.21,1.45-3.13
	c0.62-0.92,1.36-1.64,2.21-2.16c0.86-0.52,1.79-0.67,2.79-0.47c0.5,0.11,0.93,0.32,1.31,0.61c0.38,0.29,0.69,0.66,0.91,1.09
	c0.22,0.44,0.36,0.95,0.4,1.52c0.05,0.57-0.02,1.18-0.2,1.84c-0.18,0.58-0.49,0.94-0.94,1.06c-0.45,0.12-0.86,0.16-1.25,0.12
	c-0.83-0.11-1.18-0.39-1.05-0.84c0.09-0.29,0.19-0.61,0.29-0.96c0.1-0.35,0.16-0.65,0.17-0.91c0.01-0.26-0.03-0.43-0.13-0.52
	c-0.1-0.09-0.32-0.02-0.65,0.2c-0.36,0.25-0.71,0.65-1.05,1.21c-0.33,0.56-0.64,1.19-0.89,1.89c-0.26,0.7-0.46,1.41-0.62,2.14
	c-0.16,0.73-0.24,1.38-0.24,1.94c0,0.7,0.11,1.21,0.31,1.53c0.2,0.33,0.46,0.51,0.79,0.56c0.32,0.05,0.7-0.02,1.13-0.2
	c0.43-0.18,0.86-0.44,1.31-0.77c0.63-0.47,1.25-1.07,1.85-1.8c0.61-0.73,1.19-1.52,1.77-2.36c0.57-0.84,1.13-1.72,1.67-2.64
	c0.45-0.77,0.88-1.51,1.3-2.23c-0.29-0.22-0.53-0.49-0.73-0.82c-0.23-0.37-0.35-0.81-0.37-1.33c-0.04-0.76,0.15-1.43,0.59-2.01
	c0.44-0.57,1.03-0.85,1.77-0.82c0.41,0,0.73,0.1,0.96,0.3c0.24,0.2,0.41,0.46,0.51,0.77c0.1,0.32,0.13,0.66,0.09,1.03
	c-0.05,0.37-0.15,0.74-0.31,1.1c0.05,0.31,0.24,0.53,0.59,0.64c0.35,0.11,0.68,0.06,0.99-0.17c0.32-0.18,0.63-0.27,0.94-0.27
	c0.34,0,0.68,0.08,1.03,0.24c0.35,0.16,0.63,0.36,0.85,0.61c0.21,0.25,0.34,0.53,0.4,0.84c0.06,0.32-0.03,0.64-0.25,0.98
	c-0.24,0.34-0.54,0.79-0.87,1.36c-0.34,0.57-0.66,1.2-0.98,1.87c-0.31,0.67-0.58,1.36-0.81,2.05c-0.22,0.7-0.35,1.33-0.37,1.89
	c0,0.38,0.04,0.66,0.13,0.84c0.09,0.18,0.36,0.11,0.81-0.2c0.52-0.38,1.11-0.98,1.77-1.8c0.51-0.63,1.01-1.29,1.51-1.98
	c0.07-0.48,0.17-0.98,0.31-1.49c0.28-1.07,0.69-2.05,1.23-2.93c0.54-0.89,1.2-1.63,1.97-2.22c0.77-0.59,1.67-0.89,2.68-0.89
	c0.41,0,0.82,0.07,1.23,0.22c0.42,0.15,0.78,0.37,1.09,0.66c0.32,0.29,0.58,0.67,0.79,1.13c0.21,0.46,0.32,1,0.32,1.63
	c-0.04,1.19-0.3,2.18-0.75,2.96c-0.46,0.78-1.03,1.41-1.7,1.88c-0.67,0.47-1.39,0.8-2.14,0.99c-0.75,0.19-1.44,0.29-2.07,0.29
	c-0.04,0.29-0.02,0.59,0.05,0.89c0.08,0.3,0.2,0.57,0.37,0.81c0.17,0.24,0.38,0.43,0.64,0.57c0.26,0.15,0.55,0.22,0.89,0.22
	c0.59,0,1.25-0.27,1.99-0.81c0.74-0.54,1.5-1.27,2.27-2.21c0.39-0.47,0.78-0.97,1.16-1.52l0.05-0.28c0.17-0.9,0.38-1.78,0.64-2.66
	c0.26-0.88,0.54-1.7,0.84-2.46c0.31-0.76,0.63-1.39,0.96-1.89c0.27-0.38,0.66-0.57,1.18-0.57c0.33,0,0.66,0.05,0.97,0.15
	c0.32,0.1,0.58,0.24,0.79,0.42c0.22,0.18,0.35,0.41,0.41,0.69c0.06,0.28-0.02,0.59-0.22,0.93c-0.2,0.38-0.47,0.92-0.79,1.63
	c-0.32,0.71-0.65,1.47-0.96,2.29c-0.31,0.82-0.58,1.64-0.81,2.47c-0.22,0.83-0.33,1.56-0.33,2.19c-0.02,0.76,0.06,1.14,0.25,1.13
	c0.19-0.01,0.46-0.35,0.82-1.03c0.32-0.61,0.66-1.39,1.03-2.36c0.37-0.97,0.74-1.95,1.09-2.96c0.36-1.01,0.7-1.97,1.03-2.86
	c0.33-0.9,0.62-1.58,0.86-2.05c0.27-0.36,0.67-0.54,1.21-0.54c0.33,0,0.66,0.05,0.98,0.15c0.31,0.1,0.57,0.25,0.79,0.45
	c0.22,0.2,0.35,0.44,0.42,0.71c0.07,0.27,0.01,0.57-0.17,0.91c-0.2,0.38-0.45,0.91-0.74,1.6c-0.29,0.69-0.57,1.43-0.83,2.22
	c-0.26,0.8-0.48,1.6-0.67,2.41c-0.19,0.81-0.3,1.53-0.32,2.15c0,0.43,0.03,0.73,0.09,0.91c0.06,0.18,0.14,0.27,0.25,0.27
	c0.11,0,0.25-0.08,0.42-0.25c0.17-0.17,0.35-0.39,0.55-0.66c0.38-0.52,0.76-1.14,1.13-1.88c0.37-0.74,0.73-1.53,1.07-2.36
	c-0.11-0.25-0.21-0.5-0.27-0.76c-0.07-0.26-0.12-0.52-0.17-0.79c-0.07-0.45-0.07-0.98-0.02-1.58c0.06-0.61,0.18-1.18,0.37-1.72
	c0.19-0.54,0.45-1,0.79-1.38c0.33-0.38,0.76-0.59,1.28-0.64c0.56-0.05,1.01,0.11,1.36,0.45c0.35,0.35,0.57,0.83,0.67,1.45
	c0.1,0.62,0.07,1.33-0.09,2.14c-0.15,0.81-0.46,1.66-0.91,2.56c0.36,0.07,0.74-0.01,1.15-0.22c0.4-0.21,0.8-0.53,1.18-0.94
	c0.21-0.22,0.41-0.47,0.6-0.74c0.29-0.73,0.61-1.39,0.96-1.99c0.11-0.18,0.22-0.35,0.32-0.51c0.02-0.13,0.09-0.23,0.22-0.31
	c0.24-0.31,0.48-0.56,0.72-0.75c0.36-0.27,0.72-0.47,1.09-0.59c0.37-0.12,0.74-0.19,1.09-0.19c0.54,0,1.02,0.12,1.45,0.35
	c0.43,0.24,0.75,0.61,0.98,1.13c0.36-1.28,0.75-2.54,1.16-3.79c0.42-1.25,0.81-2.37,1.18-3.38c0.37-1.01,0.71-1.87,1.01-2.58
	c0.31-0.71,0.54-1.17,0.69-1.4c0.11-0.16,0.25-0.27,0.42-0.34c0.17-0.07,0.33-0.1,0.49-0.1c0.34,0,0.71,0.06,1.13,0.17
	c0.42,0.11,0.78,0.27,1.1,0.47c0.31,0.2,0.54,0.44,0.67,0.72c0.14,0.28,0.11,0.58-0.1,0.89c-0.22,0.36-0.55,1.02-0.99,1.97
	c-0.43,0.96-0.91,2.05-1.43,3.3c-0.52,1.25-1.05,2.58-1.59,3.99c-0.54,1.41-1.02,2.77-1.45,4.06c-0.43,1.29-0.77,2.45-1.04,3.47
	c-0.27,1.02-0.38,1.77-0.34,2.24c0.04,0.29,0.15,0.39,0.31,0.3c0.29-0.13,0.63-0.42,1.01-0.84c0.38-0.43,0.79-0.94,1.21-1.53
	c0.43-0.59,0.86-1.24,1.28-1.94c0.43-0.7,0.83-1.37,1.21-2.04c0.38-0.66,0.72-1.28,1.03-1.85c0.19-0.36,0.34-0.67,0.48-0.94
	c-0.31-0.23-0.56-0.51-0.76-0.85c-0.22-0.37-0.35-0.81-0.37-1.33c-0.04-0.76,0.15-1.43,0.59-2.01c0.43-0.57,1.03-0.85,1.77-0.82
	c0.4,0,0.72,0.1,0.96,0.3c0.23,0.2,0.4,0.46,0.5,0.77c0.1,0.32,0.13,0.66,0.09,1.03c-0.04,0.37-0.15,0.74-0.3,1.1
	c0.04,0.31,0.24,0.53,0.59,0.64c0.35,0.11,0.68,0.06,0.99-0.17c0.32-0.18,0.63-0.27,0.94-0.27c0.34,0,0.68,0.08,1.03,0.24
	c0.35,0.16,0.63,0.36,0.85,0.61c0.21,0.25,0.35,0.53,0.4,0.84c0.06,0.32-0.03,0.64-0.25,0.98c-0.24,0.34-0.53,0.79-0.87,1.36
	c-0.33,0.57-0.66,1.2-0.97,1.87c-0.32,0.67-0.59,1.36-0.81,2.05c-0.22,0.7-0.34,1.33-0.37,1.89c0,0.38,0.04,0.66,0.13,0.84
	c0.09,0.18,0.36,0.11,0.81-0.2c0.52-0.38,1.11-0.98,1.77-1.8c0.66-0.82,1.32-1.7,1.97-2.63c0.21-0.3,0.42-0.6,0.62-0.9
	c0.05-0.19,0.11-0.39,0.16-0.58c0.25-0.89,0.51-1.72,0.79-2.51c0.28-0.79,0.55-1.41,0.82-1.88c0.21-0.38,0.56-0.6,1.08-0.66
	c0.52-0.06,1.01,0.02,1.48,0.22c0.47,0.2,0.85,0.5,1.11,0.89c0.27,0.39,0.27,0.84,0,1.33c-0.2,0.4-0.45,0.91-0.76,1.5
	c-0.3,0.59-0.6,1.24-0.89,1.92c-0.3,0.69-0.54,1.39-0.76,2.11c-0.22,0.72-0.35,1.38-0.42,1.99c0,0.11,0,0.24,0,0.39
	c0,0.15,0.01,0.29,0.05,0.44c0.03,0.15,0.09,0.27,0.15,0.39c0.07,0.11,0.17,0.18,0.31,0.2c0.27,0,0.59-0.16,0.97-0.49
	c0.38-0.32,0.78-0.76,1.19-1.31c0.39-0.52,0.79-1.1,1.2-1.76c0.03-0.35,0.08-0.71,0.13-1.09c0.13-0.92,0.32-1.82,0.54-2.69
	c0.22-0.88,0.47-1.68,0.74-2.41c0.27-0.73,0.53-1.28,0.77-1.63c0.13-0.2,0.32-0.35,0.54-0.44c0.22-0.09,0.46-0.13,0.71-0.13
	c0.33,0,0.67,0.05,1.01,0.15c0.34,0.1,0.63,0.24,0.86,0.42c0.23,0.18,0.38,0.41,0.42,0.69c0.05,0.28-0.04,0.59-0.27,0.93
	c-0.27,0.4-0.56,0.98-0.88,1.73c-0.31,0.75-0.6,1.56-0.86,2.42c-0.26,0.86-0.47,1.73-0.63,2.59c-0.16,0.86-0.21,1.61-0.17,2.24
	c0,0.22,0.04,0.38,0.12,0.46c0.08,0.08,0.16,0.12,0.25,0.12c0.09,0,0.18-0.03,0.27-0.08c0.09-0.06,0.17-0.12,0.23-0.18
	c0.45-0.47,0.89-1.14,1.33-2.01c0.44-0.86,0.85-1.85,1.23-2.95c-0.13-0.4-0.23-0.82-0.3-1.24c-0.07-0.45-0.08-0.98-0.02-1.58
	c0.06-0.61,0.18-1.18,0.37-1.72c0.19-0.54,0.45-1,0.79-1.38C185.95,11.64,186.38,11.42,186.9,11.38L186.9,11.38z M194.98,14.78
	c-0.2,0.11-0.43,0.34-0.71,0.67c-0.27,0.34-0.54,0.75-0.81,1.23c-0.27,0.48-0.52,1.01-0.74,1.58c-0.22,0.57-0.39,1.15-0.51,1.73
	c0.38-0.05,0.77-0.2,1.17-0.47c0.39-0.27,0.75-0.6,1.08-0.99c0.32-0.39,0.6-0.84,0.83-1.35c0.22-0.5,0.36-1.02,0.41-1.53
	c0.02-0.27,0-0.47-0.05-0.59c-0.06-0.12-0.12-0.21-0.2-0.27c-0.08-0.06-0.16-0.08-0.24-0.07C195.12,14.74,195.05,14.76,194.98,14.78
	L194.98,14.78z M202.96,21.52c0-0.54,0.05-1.11,0.15-1.7c0.1-0.59,0.24-1.18,0.41-1.77c0.17-0.59,0.36-1.15,0.59-1.68
	c0.22-0.54,0.45-1.03,0.67-1.48c-0.45-0.02-0.9-0.09-1.35-0.2c-0.45-0.11-0.85-0.29-1.19-0.52c-0.35-0.24-0.64-0.54-0.86-0.91
	c-0.22-0.37-0.35-0.81-0.37-1.33c-0.05-0.76,0.15-1.43,0.59-2.01c0.44-0.57,1.03-0.85,1.77-0.82c0.41,0,0.73,0.1,0.96,0.3
	c0.23,0.2,0.41,0.46,0.51,0.77c0.1,0.32,0.13,0.66,0.08,1.03c-0.04,0.37-0.14,0.74-0.3,1.1c0.04,0.31,0.24,0.53,0.59,0.64
	c0.35,0.11,0.68,0.06,0.99-0.17c0.32-0.18,0.63-0.27,0.95-0.27c0.33,0,0.68,0.08,1.03,0.24c0.35,0.16,0.63,0.36,0.84,0.61
	c0.22,0.25,0.35,0.53,0.41,0.84c0.05,0.32-0.03,0.64-0.25,0.98c-0.25,0.34-0.54,0.79-0.88,1.36c-0.33,0.57-0.66,1.2-0.97,1.87
	c-0.32,0.67-0.58,1.36-0.81,2.05c-0.22,0.7-0.35,1.33-0.37,1.89c0,0.38,0.05,0.66,0.13,0.84c0.09,0.18,0.36,0.11,0.81-0.2
	c0.52-0.38,1.1-0.98,1.77-1.8c0.66-0.82,1.32-1.7,1.97-2.63c0.65-0.93,1.25-1.83,1.8-2.69c0.55-0.86,0.97-1.53,1.27-2
	c0.07-0.11,0.17-0.16,0.3-0.15c0.14,0.01,0.27,0.06,0.39,0.13c0.12,0.08,0.22,0.18,0.31,0.3c0.08,0.12,0.09,0.23,0.01,0.32
	c-0.16,0.18-0.42,0.58-0.77,1.19c-0.36,0.62-0.78,1.35-1.28,2.19c-0.49,0.84-1.04,1.73-1.63,2.66c-0.59,0.93-1.2,1.79-1.82,2.58
	c-0.62,0.79-1.24,1.44-1.85,1.95c-0.62,0.52-1.2,0.77-1.73,0.77c-0.45,0-0.86-0.12-1.21-0.37c-0.36-0.25-0.66-0.57-0.89-0.96
	c-0.23-0.39-0.42-0.84-0.54-1.35C203.03,22.61,202.96,22.08,202.96,21.52L202.96,21.52z M89.27,20.2c-0.16,0.11-0.31,0.22-0.45,0.32
	c-0.15,0.1-0.28,0.22-0.39,0.35c-0.34,0.32-0.56,0.69-0.68,1.13c-0.11,0.44-0.11,0.85,0,1.23c0.11,0.38,0.34,0.69,0.68,0.93
	c0.33,0.24,0.81,0.31,1.41,0.22c1.19-0.18,2.04-0.68,2.54-1.5c0.51-0.82,0.6-1.8,0.29-2.95c-0.25-0.79-0.63-1.52-1.13-2.19
	c-0.51-0.67-1.05-1.29-1.63-1.85c-0.45-0.43-0.91-0.86-1.38-1.3c-0.47-0.44-0.91-0.92-1.3-1.45c-0.39-0.53-0.72-1.12-0.99-1.77
	c-0.27-0.65-0.4-1.4-0.4-2.26c0-1.1,0.21-2.11,0.62-3.03c0.42-0.92,0.98-1.72,1.7-2.39c0.72-0.67,1.56-1.2,2.53-1.57
	c0.97-0.37,2-0.56,3.1-0.56c1.1,0,2.12,0.2,3.06,0.61c0.95,0.4,1.72,0.96,2.33,1.67c0.6,0.71,1,1.54,1.18,2.49
	c0.18,0.95,0.05,1.99-0.4,3.12c-0.27,0.65-0.71,1.08-1.31,1.28c-0.61,0.2-1.22,0.27-1.85,0.2c-0.63-0.07-1.19-0.24-1.68-0.51
	c-0.5-0.27-0.75-0.56-0.78-0.88c-0.02-0.2,0.02-0.36,0.12-0.49c0.1-0.12,0.23-0.27,0.39-0.45c0.34-0.38,0.56-0.83,0.67-1.33
	c0.11-0.51,0.11-0.98-0.01-1.43c-0.12-0.45-0.37-0.82-0.74-1.11c-0.37-0.29-0.86-0.42-1.47-0.37c-0.36,0.04-0.71,0.16-1.06,0.34
	c-0.35,0.18-0.66,0.42-0.95,0.72C91,5.73,90.77,6.1,90.6,6.53c-0.17,0.43-0.25,0.89-0.25,1.38c0,0.47,0.09,0.93,0.25,1.38
	c0.17,0.45,0.4,0.89,0.69,1.32c0.29,0.43,0.61,0.84,0.96,1.24c0.35,0.4,0.71,0.8,1.09,1.18c0.41,0.43,0.8,0.89,1.19,1.4
	c0.39,0.5,0.75,1.04,1.08,1.6c0.32,0.56,0.59,1.14,0.79,1.73c0.21,0.59,0.31,1.2,0.31,1.8c0,0.43-0.05,0.88-0.15,1.35
	c-0.1,0.47-0.27,0.97-0.52,1.48c-0.32,0.65-0.71,1.22-1.18,1.7c-0.47,0.48-0.99,0.88-1.57,1.2c-0.57,0.31-1.17,0.55-1.8,0.72
	c-0.63,0.17-1.25,0.25-1.85,0.25c-0.72,0-1.41-0.1-2.07-0.3c-0.66-0.2-1.25-0.49-1.77-0.88c-0.52-0.38-0.95-0.85-1.28-1.4
	c-0.34-0.55-0.54-1.17-0.61-1.87c-0.05-0.52,0-1.14,0.11-1.88c0.12-0.74,0.46-1.4,0.99-1.99c0.38-0.36,0.77-0.56,1.17-0.6
	c0.39-0.05,0.77,0,1.14,0.13c0.37,0.14,0.72,0.34,1.03,0.61c0.32,0.27,0.57,0.54,0.76,0.82c0.19,0.28,0.31,0.54,0.34,0.79
	C89.49,19.94,89.43,20.11,89.27,20.2L89.27,20.2z M125.99,14.78c-0.2,0.11-0.44,0.34-0.71,0.67c-0.27,0.34-0.54,0.75-0.81,1.23
	c-0.27,0.48-0.52,1.01-0.74,1.58c-0.22,0.57-0.4,1.15-0.51,1.73c0.38-0.05,0.77-0.2,1.16-0.47c0.39-0.27,0.75-0.6,1.08-0.99
	c0.32-0.39,0.6-0.84,0.82-1.35c0.22-0.5,0.36-1.02,0.41-1.53c0.02-0.27,0-0.47-0.05-0.59c-0.05-0.12-0.12-0.21-0.2-0.27
	c-0.08-0.06-0.16-0.08-0.23-0.07C126.13,14.74,126.06,14.76,125.99,14.78L125.99,14.78z M154.09,15.62c0-0.07,0-0.17-0.01-0.32
	c-0.01-0.15-0.04-0.29-0.07-0.42c-0.04-0.13-0.08-0.26-0.14-0.37c-0.06-0.11-0.13-0.17-0.22-0.17c-0.27,0-0.56,0.21-0.89,0.62
	c-0.33,0.41-0.64,0.94-0.95,1.56c-0.3,0.63-0.59,1.33-0.86,2.09c-0.27,0.76-0.48,1.48-0.64,2.15c-0.04,0.2-0.1,0.48-0.17,0.84
	c-0.07,0.36-0.1,0.71-0.12,1.06c-0.01,0.35,0.02,0.65,0.09,0.91c0.07,0.26,0.22,0.39,0.44,0.39c0.29,0,0.58-0.16,0.87-0.49
	c0.29-0.32,0.57-0.75,0.83-1.26c0.26-0.52,0.5-1.09,0.72-1.72c0.22-0.63,0.43-1.25,0.59-1.87c0.17-0.62,0.3-1.2,0.39-1.74
	C154.04,16.36,154.09,15.94,154.09,15.62L154.09,15.62z M178.17,10.37c-0.2,0.18-0.46,0.26-0.79,0.25c-0.33-0.01-0.64-0.1-0.95-0.27
	c-0.3-0.17-0.54-0.41-0.72-0.72c-0.18-0.32-0.22-0.69-0.11-1.11c0.07-0.22,0.14-0.49,0.22-0.79c0.08-0.3,0.17-0.61,0.27-0.91
	c0.1-0.3,0.21-0.59,0.32-0.86c0.11-0.27,0.22-0.48,0.33-0.64c0.13-0.14,0.27-0.24,0.41-0.3c0.13-0.07,0.3-0.11,0.5-0.14
	c0.34-0.02,0.7,0.03,1.08,0.17c0.38,0.13,0.73,0.32,1.03,0.56c0.31,0.23,0.53,0.5,0.67,0.81c0.15,0.3,0.15,0.59,0.02,0.86
	L178.17,10.37L178.17,10.37z"/>
<polygon class="st1" points="100.85,71.12 197.98,71.12 197.98,215.16 100.85,215.16 100.85,71.12 "/>
<path class="st2" d="M100.85,215.16h97.13v59.03c0,0.84-0.7,1.54-1.55,1.54c-13.33,0-80.71,0-94.04,0c-0.85,0-1.55-0.7-1.55-1.54
	V215.16L100.85,215.16z"/>
<polygon class="st3" points="149.4,71.12 197.98,71.12 197.98,215.16 149.4,215.16 149.4,71.12 "/>
<path class="st4" d="M149.4,215.16h48.59v59.03c0,0.84-0.7,1.54-1.55,1.54H149.4V215.16L149.4,215.16z"/>
<path class="st2" d="M194.23,48.49v227.24h-3.77V48.49h0.74h1.14h1.07H194.23L194.23,48.49z M104.61,48.49l3.65,136.37l1.88-136.37
	H104.61L104.61,48.49z"/>
<path class="st0" d="M166.7,183c0,0.05,0,0.12,0,0.19c0,0.07,0.01,0.15,0.03,0.22c0.01,0.07,0.04,0.14,0.08,0.19
	c0.03,0.06,0.08,0.09,0.15,0.1c0.14,0,0.3-0.08,0.49-0.24c0.19-0.16,0.39-0.38,0.6-0.66c0.2-0.27,0.41-0.57,0.62-0.92
	c0.04-0.38,0.11-0.78,0.24-1.18c0.17-0.58,0.42-1.11,0.72-1.57c0.31-0.46,0.68-0.82,1.1-1.08c0.43-0.26,0.89-0.34,1.4-0.24
	c0.24,0.06,0.46,0.16,0.65,0.3c0.19,0.15,0.34,0.33,0.45,0.55c0.11,0.22,0.18,0.47,0.21,0.76c0.02,0.28-0.01,0.59-0.11,0.92
	c-0.09,0.29-0.24,0.47-0.47,0.53s-0.43,0.08-0.63,0.06c-0.42-0.06-0.59-0.2-0.52-0.42c0.04-0.15,0.09-0.31,0.14-0.48
	c0.05-0.17,0.08-0.33,0.09-0.46c0-0.13-0.02-0.22-0.07-0.26c-0.05-0.05-0.16-0.01-0.33,0.1c-0.18,0.12-0.35,0.32-0.52,0.61
	c-0.17,0.28-0.32,0.59-0.45,0.94c-0.13,0.35-0.23,0.7-0.31,1.07c-0.08,0.37-0.12,0.69-0.12,0.97c0,0.35,0.05,0.6,0.15,0.77
	c0.1,0.16,0.23,0.26,0.4,0.28c0.16,0.02,0.35-0.01,0.56-0.1c0.21-0.09,0.43-0.22,0.65-0.39c0.32-0.24,0.63-0.54,0.93-0.9
	c0.31-0.36,0.6-0.76,0.88-1.18l0.07-0.1c0.03-0.17,0.07-0.34,0.11-0.52c0.14-0.53,0.34-1.02,0.62-1.46c0.27-0.44,0.6-0.81,0.98-1.11
	c0.39-0.3,0.83-0.45,1.34-0.45c0.21,0,0.41,0.04,0.62,0.11c0.21,0.07,0.39,0.18,0.55,0.33c0.15,0.15,0.29,0.33,0.39,0.56
	c0.11,0.23,0.16,0.5,0.16,0.82c-0.02,0.59-0.15,1.09-0.38,1.48c-0.23,0.39-0.52,0.71-0.86,0.94c-0.33,0.24-0.69,0.4-1.07,0.5
	c-0.38,0.1-0.72,0.14-1.04,0.14c-0.02,0.15-0.01,0.29,0.02,0.45c0.04,0.15,0.1,0.29,0.19,0.4c0.09,0.12,0.19,0.21,0.32,0.29
	c0.13,0.07,0.28,0.11,0.44,0.11c0.29,0,0.63-0.14,0.99-0.4c0.37-0.27,0.75-0.64,1.14-1.1c0.39-0.47,0.77-1.01,1.16-1.63
	c0.38-0.62,0.73-1.29,1.04-2c0.02-0.06,0.07-0.09,0.14-0.09c0.07,0,0.13,0.01,0.2,0.04c0.07,0.03,0.12,0.07,0.16,0.12
	c0.04,0.05,0.05,0.1,0.03,0.14c-0.12,0.26-0.29,0.58-0.5,0.97c-0.21,0.39-0.44,0.8-0.71,1.23c-0.27,0.43-0.55,0.86-0.87,1.3
	c-0.32,0.43-0.65,0.82-1,1.18c-0.35,0.35-0.72,0.64-1.09,0.87c-0.38,0.22-0.75,0.34-1.14,0.35c-0.3,0-0.58-0.06-0.83-0.19
	c-0.24-0.13-0.46-0.31-0.65-0.54c-0.19-0.23-0.33-0.5-0.43-0.81c-0.08-0.24-0.13-0.49-0.14-0.76c-0.31,0.43-0.63,0.81-0.96,1.14
	c-0.33,0.34-0.67,0.61-1.03,0.83c-0.35,0.21-0.71,0.32-1.05,0.32c-0.36,0-0.67-0.07-0.92-0.21c-0.25-0.14-0.46-0.33-0.63-0.56
	c-0.17-0.23-0.29-0.5-0.37-0.8c-0.01-0.04-0.02-0.09-0.03-0.13c-0.09,0.13-0.17,0.26-0.26,0.38c-0.29,0.38-0.59,0.7-0.92,0.95
	c-0.32,0.25-0.66,0.38-0.99,0.38c-0.28,0-0.52-0.05-0.71-0.13c-0.19-0.09-0.35-0.22-0.46-0.38c-0.12-0.16-0.2-0.35-0.25-0.56
	c-0.04-0.17-0.06-0.35-0.07-0.55l-0.1,0.16c-0.26,0.4-0.52,0.74-0.79,1.01c-0.27,0.27-0.53,0.42-0.79,0.45
	c-0.45,0.04-0.79-0.08-1.04-0.37c-0.25-0.29-0.38-0.68-0.39-1.16c-0.1,0.19-0.22,0.38-0.34,0.56s-0.26,0.34-0.4,0.48
	c-0.15,0.14-0.3,0.26-0.46,0.34c-0.16,0.09-0.32,0.13-0.48,0.13c-0.13,0-0.28-0.02-0.43-0.07c-0.16-0.05-0.31-0.13-0.46-0.25
	c-0.14-0.12-0.27-0.3-0.37-0.54c-0.05-0.11-0.08-0.23-0.11-0.37l-0.09,0.11c-0.3,0.4-0.61,0.76-0.94,1.07
	c-0.33,0.31-0.67,0.54-1.02,0.68c-0.08,0.23-0.18,0.53-0.31,0.89c-0.12,0.36-0.28,0.71-0.47,1.05c-0.19,0.34-0.43,0.64-0.71,0.88
	c-0.28,0.25-0.62,0.38-1.01,0.4c-0.38,0.02-0.69-0.11-0.94-0.39c-0.24-0.28-0.36-0.6-0.36-0.96c0-0.39,0.07-0.73,0.21-1
	c0.13-0.27,0.31-0.51,0.53-0.69c0.22-0.19,0.47-0.33,0.75-0.45c0.29-0.11,0.59-0.21,0.9-0.29c0.04-0.2,0.1-0.48,0.17-0.83
	c0.07-0.35,0.14-0.73,0.22-1.13c0.08-0.41,0.16-0.84,0.25-1.28c0.09-0.44,0.17-0.86,0.25-1.26c0.08-0.39,0.15-0.75,0.22-1.06
	c0.07-0.31,0.12-0.55,0.17-0.72c0.08-0.25,0.19-0.46,0.32-0.63c0.13-0.17,0.32-0.25,0.55-0.23c0.17,0.01,0.35,0.04,0.55,0.09
	c0.2,0.05,0.37,0.12,0.51,0.22c0.15,0.1,0.25,0.22,0.31,0.37c0.06,0.15,0.03,0.33-0.09,0.55c-0.13,0.27-0.29,0.64-0.45,1.09
	c-0.17,0.46-0.34,0.96-0.51,1.48c-0.17,0.53-0.32,1.05-0.48,1.57c-0.15,0.52-0.28,0.97-0.38,1.34c0.37-0.25,0.73-0.62,1.09-1.1
	c0.24-0.33,0.47-0.68,0.7-1.05c0.02-0.22,0.05-0.44,0.09-0.67c0.09-0.49,0.21-0.98,0.35-1.46c0.14-0.48,0.29-0.91,0.44-1.3
	c0.16-0.39,0.3-0.69,0.42-0.88c0.16-0.19,0.36-0.29,0.61-0.29c0.17,0,0.34,0.03,0.51,0.08c0.17,0.05,0.31,0.12,0.43,0.21
	c0.11,0.09,0.19,0.21,0.22,0.35c0.03,0.14,0,0.3-0.1,0.48c-0.1,0.19-0.22,0.46-0.38,0.8c-0.15,0.34-0.3,0.71-0.45,1.12
	c-0.14,0.4-0.28,0.81-0.4,1.21c-0.12,0.4-0.21,0.76-0.24,1.08c-0.04,0.29,0,0.47,0.13,0.52c0.13,0.06,0.29-0.08,0.48-0.42
	c0.15-0.25,0.3-0.57,0.46-0.96c0.16-0.39,0.32-0.8,0.49-1.22c0.17-0.42,0.33-0.83,0.47-1.24c0.15-0.4,0.28-0.75,0.38-1.03
	c0.05-0.17,0.11-0.31,0.15-0.44c0.05-0.12,0.09-0.21,0.12-0.25c0.12-0.19,0.32-0.29,0.57-0.29c0.17,0,0.34,0.02,0.51,0.06
	c0.18,0.04,0.32,0.1,0.45,0.18c0.12,0.08,0.21,0.18,0.25,0.3c0.04,0.12,0.02,0.27-0.07,0.45c-0.1,0.18-0.22,0.43-0.36,0.73
	c-0.14,0.31-0.29,0.64-0.43,1.01c-0.15,0.37-0.28,0.74-0.39,1.11c-0.11,0.38-0.19,0.73-0.24,1.05c0,0.03,0,0.1-0.01,0.19
	c-0.01,0.1-0.02,0.19-0.02,0.29c0,0.1,0.01,0.19,0.04,0.27c0.03,0.08,0.08,0.12,0.14,0.14c0.11,0,0.27-0.09,0.47-0.25
	c0.2-0.17,0.43-0.44,0.71-0.82c0.17-0.25,0.35-0.54,0.54-0.87c0.07-0.38,0.16-0.75,0.26-1.12c0.12-0.44,0.26-0.86,0.4-1.25
	c0.14-0.39,0.28-0.71,0.41-0.94c0.11-0.19,0.28-0.3,0.54-0.33c0.26-0.03,0.51,0.01,0.74,0.11c0.24,0.1,0.42,0.25,0.56,0.45
	c0.13,0.2,0.13,0.42,0,0.67c-0.11,0.2-0.23,0.45-0.38,0.75c-0.15,0.3-0.3,0.62-0.44,0.96c-0.15,0.34-0.27,0.69-0.38,1.05
	C166.8,182.36,166.73,182.7,166.7,183L166.7,183z M176.72,179.41c-0.1,0.06-0.22,0.17-0.35,0.34c-0.13,0.17-0.27,0.37-0.41,0.61
	c-0.13,0.24-0.26,0.51-0.37,0.79c-0.11,0.29-0.2,0.58-0.25,0.87c0.19-0.02,0.38-0.1,0.58-0.24c0.2-0.13,0.37-0.3,0.54-0.5
	c0.17-0.2,0.3-0.42,0.42-0.67c0.11-0.25,0.18-0.51,0.2-0.77c0.01-0.13,0-0.23-0.02-0.29c-0.03-0.06-0.06-0.11-0.1-0.13
	c-0.04-0.03-0.08-0.04-0.12-0.04C176.79,179.39,176.76,179.4,176.72,179.41L176.72,179.41z M122.52,181.15
	c0.09,0.01,0.22-0.01,0.39-0.07c0.18-0.06,0.37-0.16,0.57-0.33c0.21-0.16,0.42-0.39,0.63-0.69c0.18-0.25,0.34-0.56,0.5-0.93
	l-0.05-0.03c-0.18-0.12-0.32-0.27-0.43-0.46c-0.11-0.18-0.18-0.41-0.19-0.66c-0.02-0.38,0.08-0.72,0.3-1
	c0.22-0.29,0.51-0.42,0.88-0.41c0.2,0,0.36,0.05,0.48,0.15c0.12,0.1,0.21,0.23,0.25,0.39c0.05,0.16,0.07,0.33,0.04,0.51
	c-0.02,0.19-0.07,0.37-0.15,0.55c0.02,0.16,0.12,0.27,0.3,0.32c0.17,0.06,0.34,0.03,0.5-0.08c0.16-0.09,0.32-0.13,0.47-0.13
	c0.17,0,0.34,0.04,0.51,0.12c0.18,0.08,0.32,0.18,0.42,0.3c0.11,0.12,0.18,0.26,0.21,0.42c0.03,0.16-0.01,0.32-0.13,0.49
	c-0.12,0.17-0.27,0.39-0.43,0.68c-0.17,0.29-0.33,0.6-0.49,0.94c-0.15,0.34-0.29,0.68-0.4,1.02c-0.11,0.35-0.18,0.66-0.19,0.94
	c0,0.19,0.02,0.33,0.07,0.42c0.04,0.09,0.18,0.06,0.41-0.1c0.26-0.19,0.55-0.49,0.88-0.9c0.33-0.41,0.66-0.85,0.98-1.31l0.12-0.17
	c0.08-0.29,0.17-0.58,0.28-0.86c0.16-0.44,0.34-0.83,0.54-1.19c0.21-0.35,0.41-0.62,0.63-0.78c0.18-0.14,0.36-0.23,0.55-0.29
	c0.19-0.06,0.38-0.09,0.56-0.09c0.27,0,0.51,0.06,0.72,0.18c0.22,0.12,0.37,0.31,0.47,0.56c0.03-0.08,0.06-0.14,0.08-0.17
	c0.01-0.03,0.05-0.1,0.11-0.18c0.08-0.15,0.22-0.22,0.44-0.21c0.22,0,0.43,0.05,0.64,0.14c0.21,0.09,0.39,0.21,0.53,0.35
	c0.15,0.14,0.19,0.28,0.12,0.41c-0.21,0.47-0.42,0.94-0.6,1.41c-0.19,0.47-0.35,0.9-0.49,1.3c-0.14,0.4-0.24,0.76-0.31,1.08
	s-0.09,0.56-0.07,0.72c0.02,0.09,0.06,0.14,0.11,0.14c0.05,0.01,0.1-0.01,0.17-0.05c0.06-0.04,0.12-0.09,0.18-0.15
	c0.06-0.06,0.1-0.11,0.13-0.14c0.22-0.25,0.47-0.58,0.73-0.99c0.26-0.41,0.51-0.83,0.75-1.27l0-0.01c0.11-0.43,0.24-0.87,0.37-1.31
	c0.17-0.55,0.34-1.08,0.51-1.57c0.04-0.12,0.17-0.2,0.39-0.23c0.22-0.04,0.43-0.03,0.65,0.02c0.22,0.04,0.4,0.12,0.55,0.23
	c0.15,0.11,0.19,0.25,0.11,0.42c-0.09,0.24-0.19,0.47-0.3,0.71c-0.11,0.23-0.21,0.46-0.29,0.67c0.08-0.12,0.18-0.27,0.31-0.43
	c0.13-0.16,0.27-0.33,0.42-0.5c0.15-0.17,0.31-0.33,0.47-0.49c0.16-0.16,0.32-0.29,0.5-0.4c0.21-0.13,0.43-0.19,0.64-0.17
	c0.21,0.02,0.39,0.1,0.54,0.24c0.15,0.14,0.26,0.34,0.33,0.59c0.07,0.25,0.06,0.55-0.02,0.88c-0.04,0.2-0.12,0.48-0.23,0.82
	c-0.11,0.34-0.22,0.7-0.33,1.07c-0.11,0.37-0.22,0.73-0.31,1.08s-0.13,0.62-0.13,0.82c0,0.03,0.01,0.08,0.02,0.13
	c0.02,0.05,0.05,0.08,0.11,0.08c0.09,0,0.24-0.1,0.46-0.3c0.22-0.2,0.47-0.51,0.76-0.91l0.1-0.14c0.03-0.21,0.08-0.43,0.14-0.67
	c0.12-0.48,0.28-0.96,0.46-1.41c0.18-0.46,0.39-0.88,0.62-1.25c0.23-0.37,0.45-0.64,0.65-0.79c0.18-0.12,0.36-0.21,0.54-0.27
	c0.19-0.06,0.36-0.09,0.54-0.09c0.26,0,0.51,0.06,0.75,0.19c0.25,0.12,0.42,0.32,0.53,0.59c0.02-0.07,0.05-0.14,0.1-0.2
	c0.04-0.07,0.08-0.13,0.1-0.19c0.07-0.1,0.2-0.14,0.4-0.12c0.21,0.02,0.4,0.07,0.6,0.18c0.2,0.1,0.36,0.23,0.49,0.39
	c0.13,0.16,0.15,0.32,0.08,0.5c-0.17,0.34-0.35,0.74-0.55,1.21c-0.2,0.47-0.39,0.96-0.59,1.47c-0.2,0.51-0.38,1.01-0.56,1.5
	c-0.17,0.49-0.32,0.92-0.43,1.29c0.37-0.22,0.73-0.55,1.08-0.97c0.3-0.36,0.58-0.76,0.86-1.2v-0.11c0-0.47,0.07-0.97,0.21-1.51
	c0.14-0.53,0.34-1.02,0.62-1.46c0.27-0.44,0.6-0.81,0.98-1.11c0.39-0.3,0.83-0.45,1.34-0.45c0.2,0,0.41,0.04,0.62,0.11
	c0.21,0.07,0.39,0.18,0.54,0.33c0.16,0.15,0.29,0.33,0.4,0.56c0.11,0.23,0.16,0.5,0.16,0.82c-0.02,0.59-0.15,1.09-0.38,1.48
	c-0.23,0.39-0.51,0.71-0.85,0.94c-0.33,0.24-0.69,0.4-1.07,0.5c-0.37,0.1-0.72,0.14-1.03,0.14c-0.02,0.15-0.01,0.29,0.02,0.45
	c0.04,0.15,0.1,0.29,0.19,0.4c0.08,0.12,0.19,0.21,0.32,0.29c0.13,0.07,0.28,0.11,0.44,0.11c0.29,0,0.63-0.14,0.99-0.4
	c0.37-0.27,0.75-0.64,1.14-1.1c0.39-0.47,0.77-1.01,1.16-1.63c0.38-0.62,0.73-1.29,1.04-2c0.02-0.06,0.07-0.09,0.13-0.09
	c0.07,0,0.14,0.01,0.21,0.04c0.07,0.03,0.12,0.07,0.16,0.12c0.04,0.05,0.05,0.1,0.02,0.14c-0.12,0.26-0.29,0.58-0.5,0.97
	c-0.21,0.39-0.44,0.8-0.71,1.23c-0.26,0.43-0.55,0.86-0.86,1.3c-0.32,0.43-0.65,0.82-1,1.18c-0.35,0.35-0.72,0.64-1.09,0.87
	c-0.38,0.22-0.75,0.34-1.14,0.35c-0.31,0-0.58-0.06-0.83-0.19c-0.24-0.13-0.46-0.31-0.65-0.54c-0.17-0.22-0.31-0.47-0.41-0.76
	c-0.13,0.19-0.26,0.38-0.4,0.56c-0.3,0.38-0.6,0.7-0.93,0.99c-0.33,0.28-0.66,0.48-1.01,0.61c-0.08,0.23-0.19,0.53-0.32,0.87
	c-0.13,0.35-0.31,0.68-0.52,1c-0.22,0.32-0.46,0.59-0.75,0.81c-0.29,0.22-0.62,0.32-1,0.3c-0.27-0.01-0.5-0.09-0.68-0.24
	c-0.18-0.15-0.32-0.33-0.4-0.55c-0.09-0.22-0.12-0.46-0.11-0.72c0.01-0.26,0.08-0.5,0.2-0.72c0.2-0.38,0.52-0.68,0.95-0.89
	c0.43-0.21,0.86-0.38,1.31-0.49l0.2-0.69c-0.1,0.19-0.25,0.34-0.45,0.45c-0.21,0.11-0.39,0.17-0.56,0.17
	c-0.47-0.02-0.85-0.21-1.13-0.57c-0.17-0.21-0.28-0.47-0.35-0.76c-0.25,0.33-0.51,0.62-0.76,0.86c-0.29,0.27-0.58,0.43-0.87,0.47
	c-0.27,0.02-0.5,0-0.68-0.07c-0.18-0.07-0.33-0.17-0.44-0.32c-0.11-0.15-0.2-0.32-0.24-0.52c-0.05-0.2-0.08-0.42-0.08-0.66
	c0-0.36,0.05-0.75,0.16-1.19c0.11-0.43,0.2-0.86,0.29-1.29c0.07-0.31,0.08-0.52,0.04-0.63c-0.04-0.12-0.11-0.16-0.21-0.13
	c-0.1,0.03-0.22,0.11-0.34,0.26s-0.24,0.33-0.35,0.56c-0.1,0.22-0.21,0.48-0.33,0.76c-0.12,0.29-0.24,0.58-0.34,0.88
	c-0.11,0.3-0.21,0.59-0.31,0.87c-0.1,0.28-0.17,0.53-0.21,0.74c-0.04,0.2-0.14,0.39-0.29,0.56c-0.14,0.17-0.36,0.23-0.64,0.18
	c-0.2-0.02-0.35-0.14-0.44-0.34c-0.1-0.21-0.14-0.4-0.14-0.56c0-0.15,0.01-0.31,0.03-0.49l-0.02,0.03c-0.27,0.4-0.53,0.73-0.81,0.99
	c-0.27,0.26-0.54,0.38-0.82,0.38c-0.29,0-0.54-0.1-0.76-0.3c-0.22-0.2-0.36-0.47-0.43-0.81c-0.07,0.12-0.15,0.25-0.25,0.38
	c-0.1,0.13-0.21,0.25-0.33,0.35c-0.12,0.11-0.26,0.2-0.42,0.27c-0.15,0.07-0.32,0.11-0.5,0.13c-0.48,0-0.88-0.17-1.21-0.5
	c-0.32-0.33-0.49-0.83-0.49-1.49l0-0.15c-0.19,0.27-0.38,0.53-0.57,0.77c-0.31,0.39-0.62,0.72-0.93,0.98
	c-0.31,0.26-0.6,0.39-0.86,0.39c-0.22,0-0.43-0.06-0.61-0.19c-0.18-0.12-0.33-0.28-0.45-0.48c-0.11-0.2-0.21-0.42-0.27-0.67
	c-0.06-0.25-0.09-0.52-0.09-0.8c0-0.27,0.02-0.55,0.07-0.85c0.05-0.3,0.12-0.59,0.21-0.88c0.08-0.29,0.18-0.57,0.3-0.84
	c0.11-0.27,0.22-0.52,0.33-0.74c-0.2-0.01-0.39-0.04-0.58-0.08c-0.1,0.27-0.23,0.55-0.4,0.84c-0.22,0.37-0.47,0.7-0.74,0.99
	c-0.28,0.29-0.57,0.53-0.89,0.71c-0.32,0.19-0.63,0.27-0.94,0.24c-0.22,0.84-0.56,1.53-1.02,2.07c-0.45,0.54-1,0.81-1.64,0.81
	c-0.25,0-0.51-0.06-0.79-0.18c-0.37-0.19-0.64-0.49-0.81-0.91c-0.18-0.42-0.26-0.89-0.26-1.41c0-0.52,0.08-1.05,0.22-1.61
	c0.15-0.55,0.36-1.07,0.64-1.53c0.27-0.47,0.58-0.85,0.93-1.15c0.35-0.3,0.74-0.45,1.14-0.45c0.07,0,0.15,0.01,0.26,0.02
	c0.11,0.01,0.22,0.05,0.33,0.11c0.11,0.06,0.22,0.15,0.33,0.27c0.11,0.12,0.2,0.28,0.27,0.48c0.26,0.11,0.46,0.37,0.61,0.76
	C122.63,179.84,122.64,180.41,122.52,181.15L122.52,181.15z M119.54,184.23c0.15,0,0.31-0.09,0.45-0.25
	c0.14-0.17,0.28-0.38,0.4-0.63c0.12-0.25,0.22-0.52,0.31-0.81c0.08-0.29,0.13-0.55,0.15-0.78c-0.11-0.07-0.19-0.17-0.26-0.3
	c-0.07-0.13-0.13-0.28-0.17-0.45c-0.04-0.16-0.06-0.33-0.07-0.5c0-0.17,0.02-0.31,0.08-0.44c-0.16,0.06-0.31,0.2-0.47,0.42
	c-0.16,0.22-0.3,0.49-0.43,0.8c-0.13,0.31-0.24,0.64-0.33,0.99c-0.09,0.35-0.14,0.66-0.16,0.95c-0.02,0.29,0.01,0.53,0.08,0.72
	C119.2,184.14,119.34,184.23,119.54,184.23L119.54,184.23z M132.22,179.83c0-0.03,0-0.09-0.01-0.16c0-0.07-0.01-0.15-0.03-0.21
	c-0.01-0.07-0.04-0.13-0.07-0.18c-0.03-0.06-0.06-0.09-0.11-0.09c-0.13,0-0.28,0.11-0.44,0.31c-0.16,0.21-0.32,0.47-0.47,0.78
	c-0.15,0.31-0.3,0.66-0.43,1.04c-0.13,0.38-0.24,0.74-0.32,1.08c-0.02,0.1-0.05,0.24-0.08,0.42c-0.03,0.18-0.06,0.36-0.06,0.53
	c0,0.17,0.01,0.33,0.04,0.46c0.03,0.13,0.1,0.19,0.22,0.19c0.15,0,0.29-0.08,0.44-0.24c0.14-0.16,0.28-0.37,0.41-0.63
	c0.13-0.26,0.25-0.54,0.36-0.86c0.11-0.32,0.21-0.63,0.29-0.94c0.09-0.31,0.15-0.6,0.2-0.87
	C132.2,180.21,132.22,179.99,132.22,179.83L132.22,179.83z M142.87,186.1c-0.26,0.09-0.46,0.21-0.62,0.35
	c-0.15,0.14-0.26,0.28-0.32,0.41c-0.07,0.14-0.1,0.25-0.1,0.35c0,0.1,0.04,0.15,0.11,0.15c0.13,0,0.25-0.04,0.34-0.12
	c0.1-0.08,0.18-0.18,0.25-0.3c0.08-0.12,0.14-0.26,0.2-0.4C142.79,186.39,142.83,186.24,142.87,186.1L142.87,186.1z M144.53,179.58
	c0-0.04,0-0.08-0.01-0.14c0-0.06-0.01-0.12-0.03-0.19c-0.01-0.06-0.04-0.12-0.07-0.17c-0.03-0.05-0.06-0.08-0.11-0.08
	c-0.12,0-0.26,0.1-0.42,0.29c-0.16,0.19-0.32,0.44-0.47,0.74c-0.15,0.3-0.31,0.64-0.46,1c-0.15,0.36-0.28,0.72-0.39,1.07
	c-0.05,0.13-0.1,0.32-0.14,0.55c-0.05,0.23-0.09,0.45-0.11,0.66c-0.02,0.21-0.02,0.38,0,0.52c0.03,0.14,0.11,0.19,0.23,0.16
	c0.19-0.05,0.37-0.17,0.55-0.37c0.17-0.2,0.33-0.44,0.48-0.72c0.15-0.28,0.28-0.59,0.4-0.92c0.12-0.33,0.22-0.65,0.3-0.96
	c0.09-0.31,0.15-0.59,0.2-0.85C144.51,179.91,144.53,179.72,144.53,179.58L144.53,179.58z M149.72,179.41
	c-0.1,0.06-0.22,0.17-0.35,0.34c-0.13,0.17-0.27,0.37-0.41,0.61c-0.13,0.24-0.26,0.51-0.37,0.79c-0.11,0.29-0.2,0.58-0.25,0.87
	c0.19-0.02,0.38-0.1,0.58-0.24c0.2-0.13,0.38-0.3,0.54-0.5c0.16-0.2,0.3-0.42,0.42-0.67c0.11-0.25,0.18-0.51,0.2-0.77
	c0.01-0.13,0-0.23-0.02-0.29c-0.03-0.06-0.06-0.11-0.1-0.13c-0.04-0.03-0.08-0.04-0.11-0.04
	C149.8,179.39,149.76,179.4,149.72,179.41L149.72,179.41z M155.11,186.15c-0.27,0.08-0.49,0.19-0.65,0.34
	c-0.16,0.15-0.28,0.29-0.34,0.44c-0.07,0.15-0.1,0.27-0.09,0.38c0.01,0.11,0.06,0.16,0.14,0.16c0.27-0.02,0.47-0.17,0.62-0.45
	C154.94,186.73,155.05,186.44,155.11,186.15L155.11,186.15z M159.02,177.21c-0.1,0.09-0.23,0.13-0.4,0.12
	c-0.16,0-0.32-0.05-0.47-0.13c-0.15-0.08-0.27-0.21-0.36-0.36c-0.09-0.16-0.11-0.34-0.05-0.55c0.03-0.11,0.07-0.24,0.11-0.4
	c0.04-0.15,0.08-0.3,0.13-0.45c0.05-0.15,0.11-0.3,0.16-0.43c0.05-0.14,0.11-0.24,0.17-0.32c0.07-0.07,0.13-0.12,0.2-0.15
	c0.07-0.03,0.15-0.06,0.25-0.07c0.17-0.01,0.35,0.02,0.54,0.08c0.19,0.07,0.36,0.16,0.51,0.28c0.15,0.12,0.27,0.25,0.34,0.4
	c0.07,0.15,0.08,0.29,0.01,0.43L159.02,177.21L159.02,177.21z M168.52,177.21c-0.1,0.09-0.23,0.13-0.4,0.12
	c-0.16,0-0.32-0.05-0.47-0.13c-0.15-0.08-0.27-0.21-0.36-0.36c-0.09-0.16-0.11-0.34-0.05-0.55c0.03-0.11,0.07-0.24,0.11-0.4
	c0.04-0.15,0.09-0.3,0.13-0.45c0.05-0.15,0.11-0.3,0.16-0.43c0.06-0.14,0.11-0.24,0.17-0.32c0.07-0.07,0.13-0.12,0.2-0.15
	c0.07-0.03,0.15-0.06,0.25-0.07c0.17-0.01,0.35,0.02,0.54,0.08c0.19,0.07,0.36,0.16,0.52,0.28c0.15,0.12,0.26,0.25,0.33,0.4
	c0.07,0.15,0.08,0.29,0.01,0.43L168.52,177.21L168.52,177.21z"/>
<path class="st0" d="M158.6,234.01c0.18-0.14,0.36-0.23,0.55-0.3c0.19-0.06,0.38-0.09,0.56-0.09c0.27,0,0.51,0.06,0.72,0.18
	c0.22,0.12,0.37,0.31,0.47,0.57c0.03-0.08,0.06-0.14,0.08-0.17c0.01-0.03,0.05-0.1,0.11-0.18c0.08-0.15,0.22-0.22,0.44-0.21
	c0.22,0.01,0.43,0.05,0.64,0.14c0.21,0.09,0.39,0.21,0.53,0.35c0.15,0.14,0.19,0.28,0.12,0.41c-0.22,0.47-0.42,0.94-0.6,1.41
	c-0.19,0.47-0.35,0.9-0.49,1.31c-0.14,0.4-0.25,0.76-0.32,1.08c-0.07,0.31-0.09,0.55-0.07,0.72c0.02,0.09,0.06,0.14,0.11,0.14
	c0.05,0,0.11-0.01,0.17-0.05c0.06-0.04,0.12-0.09,0.18-0.15c0.06-0.06,0.11-0.11,0.13-0.14c0.22-0.25,0.47-0.58,0.73-0.99
	c0.26-0.41,0.51-0.83,0.75-1.27c0.24-0.44,0.46-0.86,0.65-1.25c0.2-0.4,0.35-0.71,0.46-0.94c0.02-0.05,0.07-0.08,0.14-0.08
	c0.08,0,0.14,0.01,0.21,0.04c0.07,0.03,0.13,0.07,0.18,0.12c0.05,0.05,0.07,0.1,0.04,0.16c-0.07,0.1-0.17,0.32-0.31,0.65
	c-0.14,0.33-0.31,0.71-0.51,1.15c-0.2,0.43-0.41,0.88-0.65,1.35c-0.24,0.47-0.49,0.91-0.75,1.31c-0.27,0.4-0.53,0.73-0.81,0.98
	c-0.28,0.26-0.55,0.39-0.82,0.39c-0.3,0-0.55-0.1-0.77-0.3c-0.22-0.2-0.36-0.47-0.43-0.81c-0.07,0.12-0.15,0.25-0.25,0.38
	c-0.1,0.13-0.21,0.25-0.33,0.35c-0.12,0.1-0.26,0.2-0.42,0.27c-0.15,0.07-0.32,0.11-0.5,0.12c-0.48,0-0.88-0.16-1.21-0.49
	c-0.29-0.29-0.44-0.7-0.48-1.24c-0.12,0.17-0.24,0.34-0.37,0.5c-0.29,0.37-0.58,0.66-0.89,0.89c-0.3,0.23-0.59,0.34-0.87,0.34
	c-0.32,0-0.53-0.07-0.65-0.21c-0.12-0.14-0.2-0.32-0.21-0.53c-0.02-0.21-0.01-0.44,0.03-0.68c0.04-0.24,0.06-0.47,0.07-0.67
	c0-0.21-0.03-0.38-0.11-0.51c-0.08-0.14-0.25-0.2-0.51-0.19c-0.12,0.12-0.23,0.23-0.32,0.33c-0.09,0.1-0.14,0.18-0.17,0.26
	c-0.06,0.12-0.1,0.27-0.11,0.44c-0.02,0.17-0.03,0.34-0.05,0.51c-0.01,0.17-0.04,0.34-0.07,0.5c-0.03,0.16-0.08,0.29-0.14,0.39
	c-0.09,0.12-0.21,0.22-0.34,0.28c-0.14,0.06-0.28,0.09-0.43,0.07c-0.14-0.01-0.28-0.06-0.41-0.14c-0.13-0.08-0.22-0.2-0.28-0.36
	c-0.06-0.4-0.05-0.92,0.03-1.55l0.02-0.16c-0.18,0.3-0.35,0.58-0.54,0.84c-0.27,0.4-0.55,0.73-0.84,0.98
	c-0.29,0.26-0.56,0.39-0.84,0.39c-0.28,0-0.53-0.1-0.75-0.3c-0.22-0.2-0.36-0.47-0.44-0.81c-0.07,0.12-0.15,0.25-0.25,0.38
	c-0.1,0.13-0.21,0.25-0.33,0.35c-0.12,0.1-0.26,0.2-0.42,0.27c-0.15,0.07-0.32,0.11-0.5,0.12c-0.48,0-0.88-0.16-1.21-0.49
	c-0.33-0.33-0.49-0.83-0.49-1.49c0-0.32,0.03-0.66,0.1-1.02l-0.03,0.02c-0.32,0.19-0.64,0.27-0.94,0.24
	c-0.22,0.84-0.56,1.53-1.02,2.07c-0.46,0.54-1,0.81-1.64,0.81c-0.25,0-0.51-0.06-0.79-0.19c-0.37-0.19-0.64-0.49-0.82-0.91
	c-0.17-0.41-0.26-0.89-0.26-1.41c0-0.23,0.01-0.47,0.04-0.71c-0.05,0.03-0.1,0.06-0.14,0.09c-0.36,0.22-0.72,0.27-1.07,0.15
	c-0.19,0.35-0.39,0.69-0.61,1.03c-0.22,0.34-0.45,0.64-0.69,0.91c-0.24,0.27-0.49,0.49-0.74,0.65c-0.25,0.17-0.5,0.25-0.75,0.25
	c-0.26,0-0.5-0.1-0.73-0.29c-0.23-0.2-0.41-0.48-0.53-0.83c-0.11-0.34-0.17-0.72-0.17-1.14c0-0.38,0.03-0.81,0.1-1.26
	c0.07-0.46,0.16-0.91,0.27-1.35c0.11-0.44,0.23-0.84,0.37-1.2c0.13-0.37,0.26-0.64,0.39-0.82c0.07-0.1,0.16-0.17,0.27-0.22
	c0.11-0.05,0.23-0.07,0.35-0.07c0.17,0,0.34,0.02,0.51,0.07c0.17,0.05,0.31,0.12,0.43,0.21c0.12,0.09,0.19,0.21,0.21,0.34
	c0.02,0.14-0.02,0.3-0.13,0.46c-0.13,0.2-0.28,0.49-0.44,0.87c-0.16,0.38-0.3,0.78-0.43,1.21c-0.13,0.43-0.23,0.86-0.31,1.3
	c-0.08,0.43-0.11,0.81-0.09,1.12c0,0.11,0.02,0.19,0.06,0.23c0.04,0.04,0.08,0.06,0.12,0.06c0.05,0,0.09-0.01,0.13-0.04
	c0.05-0.03,0.09-0.06,0.12-0.09c0.22-0.24,0.44-0.57,0.66-1c0.22-0.43,0.43-0.92,0.62-1.47c-0.07-0.2-0.12-0.41-0.15-0.62
	c-0.03-0.22-0.03-0.49-0.01-0.79c0.03-0.3,0.09-0.59,0.19-0.86c0.1-0.27,0.23-0.5,0.4-0.69c0.17-0.19,0.38-0.3,0.64-0.32
	c0.28-0.02,0.51,0.05,0.68,0.23c0.17,0.17,0.29,0.42,0.33,0.72c0.05,0.31,0.04,0.67-0.04,1.07c-0.08,0.4-0.23,0.83-0.45,1.28
	c0.18,0.03,0.37,0,0.57-0.11c0.11-0.06,0.22-0.13,0.32-0.21c0.14-0.46,0.33-0.89,0.56-1.29c0.27-0.47,0.58-0.85,0.94-1.14
	c0.35-0.3,0.73-0.45,1.14-0.45c0.07,0,0.15,0.01,0.26,0.02c0.11,0.01,0.22,0.05,0.32,0.11c0.11,0.06,0.22,0.15,0.34,0.27
	c0.11,0.12,0.2,0.28,0.27,0.48c0.26,0.11,0.46,0.36,0.61,0.76c0.15,0.39,0.16,0.96,0.03,1.7c0.09,0.01,0.22-0.01,0.4-0.07
	c0.18-0.06,0.37-0.16,0.57-0.33l0.07-0.05c0.05-0.15,0.1-0.3,0.15-0.44c0.16-0.44,0.35-0.83,0.55-1.19
	c0.21-0.35,0.42-0.61,0.63-0.78c0.18-0.14,0.36-0.23,0.55-0.3c0.19-0.06,0.37-0.09,0.55-0.09c0.27,0,0.51,0.06,0.72,0.18
	c0.22,0.12,0.38,0.31,0.49,0.57c0.18-0.64,0.38-1.27,0.58-1.9c0.21-0.62,0.41-1.19,0.59-1.69c0.19-0.51,0.35-0.94,0.51-1.29
	c0.15-0.35,0.27-0.59,0.34-0.7c0.06-0.08,0.13-0.14,0.21-0.17c0.09-0.03,0.17-0.05,0.25-0.05c0.17,0,0.35,0.03,0.56,0.08
	c0.21,0.06,0.39,0.14,0.54,0.24c0.16,0.1,0.27,0.22,0.34,0.36c0.07,0.14,0.05,0.29-0.05,0.45c-0.11,0.18-0.28,0.51-0.5,0.98
	c-0.22,0.48-0.46,1.03-0.72,1.65c-0.26,0.62-0.52,1.29-0.79,1.99c-0.27,0.71-0.51,1.39-0.73,2.03c-0.22,0.65-0.39,1.22-0.52,1.73
	c-0.13,0.51-0.19,0.88-0.17,1.12c0.02,0.15,0.07,0.2,0.15,0.15c0.15-0.07,0.32-0.21,0.51-0.42c0.19-0.21,0.39-0.47,0.61-0.77
	c0.22-0.3,0.43-0.62,0.64-0.97c0.22-0.35,0.42-0.69,0.61-1.02l0.05-0.09c0.14-0.59,0.31-1.2,0.49-1.82
	c0.23-0.77,0.48-1.51,0.74-2.22c0.27-0.71,0.53-1.35,0.79-1.94c0.26-0.59,0.51-1.04,0.74-1.38c0.05-0.07,0.13-0.12,0.22-0.16
	c0.09-0.04,0.18-0.06,0.27-0.06c0.18,0,0.37,0.03,0.57,0.09c0.2,0.06,0.37,0.15,0.52,0.26c0.14,0.11,0.25,0.24,0.3,0.38
	c0.06,0.14,0.03,0.29-0.07,0.45c-0.1,0.15-0.23,0.36-0.4,0.65c-0.16,0.29-0.33,0.61-0.52,0.98c-0.19,0.37-0.37,0.77-0.56,1.19
	c-0.19,0.42-0.37,0.84-0.54,1.25c-0.17,0.41-0.32,0.8-0.44,1.18c-0.13,0.38-0.22,0.7-0.28,0.97c0.11-0.12,0.24-0.27,0.4-0.45
	c0.15-0.17,0.31-0.37,0.48-0.58c0.17-0.21,0.33-0.45,0.5-0.7c0.16-0.25,0.31-0.53,0.44-0.84c0.07-0.15,0.17-0.21,0.32-0.18
	c0.14,0.02,0.28,0.09,0.43,0.21c0.14,0.12,0.27,0.27,0.39,0.44c0.11,0.17,0.17,0.33,0.18,0.48c0.01,0.17-0.03,0.35-0.14,0.55
	c-0.1,0.2-0.24,0.4-0.42,0.61c-0.17,0.21-0.38,0.42-0.61,0.64c-0.23,0.22-0.46,0.43-0.7,0.63c0.28,0.05,0.47,0.16,0.58,0.33
	c0.11,0.16,0.16,0.34,0.18,0.54c0.01,0.2-0.01,0.4-0.05,0.61c-0.04,0.21-0.07,0.39-0.09,0.54c-0.01,0.15,0.01,0.26,0.06,0.33
	c0.05,0.07,0.18,0.06,0.4-0.02c0.24-0.09,0.51-0.32,0.78-0.68c0.15-0.2,0.29-0.41,0.44-0.63c0.02-0.13,0.04-0.26,0.07-0.39
	c0.1-0.47,0.23-0.92,0.4-1.36c0.16-0.44,0.34-0.83,0.55-1.19C158.18,234.44,158.39,234.18,158.6,234.01L158.6,234.01z
	 M140.88,239.96c0.16,0,0.31-0.08,0.45-0.25c0.15-0.17,0.28-0.38,0.41-0.63c0.12-0.25,0.22-0.52,0.31-0.81
	c0.08-0.29,0.13-0.55,0.15-0.78c-0.1-0.07-0.19-0.17-0.26-0.3c-0.08-0.13-0.13-0.28-0.17-0.45c-0.04-0.16-0.06-0.33-0.07-0.5
	c0-0.17,0.02-0.31,0.08-0.44c-0.16,0.06-0.32,0.2-0.47,0.42c-0.16,0.22-0.3,0.49-0.43,0.8c-0.13,0.31-0.24,0.64-0.33,0.98
	c-0.09,0.35-0.14,0.67-0.16,0.95c-0.01,0.29,0.01,0.53,0.09,0.71C140.54,239.86,140.68,239.96,140.88,239.96L140.88,239.96z
	 M147.99,235.56c0-0.03,0-0.09-0.01-0.16c0-0.07-0.01-0.14-0.03-0.21c-0.01-0.07-0.04-0.13-0.07-0.19
	c-0.03-0.05-0.06-0.08-0.11-0.08c-0.13,0-0.28,0.1-0.44,0.31c-0.16,0.21-0.32,0.47-0.47,0.78c-0.15,0.32-0.3,0.66-0.43,1.05
	c-0.13,0.38-0.24,0.74-0.32,1.08c-0.02,0.1-0.05,0.24-0.08,0.42c-0.04,0.18-0.06,0.36-0.06,0.53c0,0.17,0.01,0.33,0.04,0.46
	c0.03,0.13,0.11,0.19,0.22,0.19c0.14,0,0.29-0.08,0.44-0.25c0.14-0.16,0.28-0.37,0.41-0.63c0.13-0.26,0.25-0.54,0.36-0.86
	c0.11-0.31,0.21-0.63,0.29-0.93c0.09-0.31,0.15-0.6,0.2-0.87C147.97,235.93,147.99,235.72,147.99,235.56L147.99,235.56z
	 M160.4,235.56c0-0.03,0-0.09-0.01-0.16c0-0.07-0.01-0.14-0.03-0.21c-0.01-0.07-0.04-0.13-0.07-0.19c-0.03-0.05-0.06-0.08-0.11-0.08
	c-0.13,0-0.28,0.1-0.44,0.31c-0.16,0.21-0.32,0.47-0.47,0.78c-0.15,0.32-0.29,0.66-0.43,1.05c-0.13,0.38-0.24,0.74-0.32,1.08
	c-0.02,0.1-0.05,0.24-0.08,0.42c-0.03,0.18-0.05,0.36-0.06,0.53c0,0.17,0.01,0.33,0.04,0.46c0.03,0.13,0.11,0.19,0.22,0.19
	c0.15,0,0.29-0.08,0.44-0.25c0.14-0.16,0.28-0.37,0.41-0.63c0.13-0.26,0.25-0.54,0.36-0.86c0.11-0.31,0.21-0.63,0.3-0.93
	c0.08-0.31,0.15-0.6,0.19-0.87C160.38,235.93,160.4,235.72,160.4,235.56L160.4,235.56z"/>
<path class="st5" d="M197.98,48.49c-14.37,0-82.77,0-97.13,0v225.7c0,0.84,0.7,1.54,1.55,1.54c13.33,0,80.71,0,94.04,0
	c0.85,0,1.55-0.7,1.55-1.54V48.49L197.98,48.49z M100.85,278.85v13.23c0,0.84,0.7,1.54,1.55,1.54c13.33,0,80.71,0,94.04,0
	c0.85,0,1.55-0.7,1.55-1.54v-13.23c-0.49,0.16-1.01,0.25-1.55,0.25c-14.35,0-79.69,0-94.04,0
	C101.86,279.1,101.34,279.02,100.85,278.85L100.85,278.85z M102.4,297c-2.7,0-4.92-2.21-4.92-4.91v-17.9V45.12
	c16.61,0,87.26,0,103.87,0v229.07v17.9c0,2.7-2.21,4.91-4.92,4.91C182.09,297,116.75,297,102.4,297L102.4,297z"/>
</svg>
