<?xml version="1.0" encoding="utf-8"?>
<!-- Generator: Adobe Illustrator 23.0.1, SVG Export Plug-In . SVG Version: 6.00 Build 0)  -->
<svg version="1.1" id="Sex_On_The_Beach" xmlns="http://www.w3.org/2000/svg" xmlns:xlink="http://www.w3.org/1999/xlink" x="0px"
	 y="0px" viewBox="0 0 300 300" style="enable-background:new 0 0 300 300;" xml:space="preserve">
<style type="text/css">
	.st0{fill:#4E4236;}
	.st1{fill-rule:evenodd;clip-rule:evenodd;fill:#E7D3A0;}
	.st2{fill-rule:evenodd;clip-rule:evenodd;fill:#F05223;}
	.st3{fill-rule:evenodd;clip-rule:evenodd;fill:#FFFFFF;}
	.st4{fill-rule:evenodd;clip-rule:evenodd;fill:#F7976C;}
	.st5{fill-rule:evenodd;clip-rule:evenodd;fill:#C9B682;}
	.st6{fill-rule:evenodd;clip-rule:evenodd;fill:#D73527;}
	.st7{fill-rule:evenodd;clip-rule:evenodd;fill:#E1E2E1;}
	.st8{fill-rule:evenodd;clip-rule:evenodd;fill:#DD794C;}
	.st9{fill-rule:evenodd;clip-rule:evenodd;fill:#4E4236;}
	.st10{fill:#FFFFFF;}
</style>
<path class="st0" d="M164.55,14.35c0.04-0.11,0.13-0.17,0.27-0.18c0.13-0.01,0.27,0.01,0.4,0.07c0.13,0.06,0.24,0.13,0.32,0.23
	c0.08,0.1,0.09,0.2,0.05,0.29c-0.25,0.52-0.58,1.16-0.99,1.93c-0.41,0.77-0.89,1.59-1.41,2.45c-0.53,0.86-1.1,1.73-1.73,2.59
	c-0.63,0.86-1.29,1.65-2,2.35c-0.71,0.71-1.43,1.28-2.18,1.73c-0.75,0.45-1.51,0.68-2.27,0.71c-0.61,0-1.15-0.13-1.65-0.39
	c-0.49-0.26-0.92-0.62-1.29-1.08c-0.32-0.39-0.57-0.85-0.77-1.36c-0.53,0.71-1.08,1.31-1.65,1.81c-0.62,0.54-1.23,0.85-1.83,0.94
	c-0.58,0.04-1.07,0-1.45-0.13c-0.38-0.13-0.69-0.35-0.92-0.64c-0.23-0.29-0.4-0.64-0.5-1.04c-0.1-0.4-0.15-0.84-0.15-1.31
	c0-0.72,0.1-1.51,0.32-2.37c0.21-0.86,0.42-1.72,0.62-2.57c0.13-0.61,0.16-1.02,0.08-1.26c-0.08-0.24-0.22-0.33-0.42-0.27
	c-0.2,0.05-0.43,0.23-0.69,0.52c-0.26,0.29-0.49,0.66-0.69,1.11s-0.41,0.95-0.64,1.51c-0.22,0.56-0.44,1.14-0.66,1.73
	c-0.21,0.59-0.4,1.17-0.57,1.73c-0.17,0.56-0.3,1.05-0.39,1.48c-0.09,0.43-0.28,0.81-0.57,1.14c-0.29,0.33-0.69,0.46-1.21,0.37
	c-0.18-0.02-0.34-0.1-0.49-0.24c-0.14-0.13-0.26-0.29-0.35-0.47c-0.09-0.18-0.16-0.37-0.2-0.57c-0.04-0.2-0.07-0.39-0.07-0.57
	c0-0.18,0.01-0.38,0.02-0.6c-0.43,0.64-0.87,1.18-1.3,1.63c-0.51,0.53-1.02,0.8-1.51,0.82c-0.94,0.04-1.68-0.2-2.22-0.74
	c-0.54-0.54-0.86-1.31-0.97-2.32c-0.11-0.96-0.05-2.16,0.18-3.58c0.23-1.42,0.54-2.94,0.92-4.55l-0.5-0.03
	c-0.38-0.02-0.64-0.08-0.79-0.18c-0.15-0.1-0.22-0.23-0.22-0.39c0-0.25,0.07-0.5,0.22-0.77c0.15-0.27,0.38-0.38,0.69-0.34
	c0.18,0.02,0.35,0.04,0.52,0.05c0.17,0.01,0.34,0.02,0.52,0.02c0.34-1.23,0.7-2.44,1.09-3.63c0.39-1.19,0.77-2.27,1.14-3.26
	c0.37-0.99,0.71-1.83,1.02-2.54c0.31-0.71,0.56-1.19,0.74-1.46c0.18-0.29,0.48-0.44,0.91-0.44c0.36,0,0.73,0.07,1.12,0.2
	c0.39,0.13,0.73,0.31,1.03,0.52c0.29,0.21,0.49,0.47,0.6,0.76c0.11,0.29,0.07,0.59-0.13,0.91c-0.13,0.18-0.33,0.56-0.59,1.13
	c-0.26,0.57-0.55,1.26-0.89,2.07c-0.33,0.81-0.69,1.71-1.07,2.7c-0.38,1-0.75,2.02-1.11,3.07h0.94c0.13,0,0.22,0.08,0.27,0.25
	c0.04,0.17,0.05,0.35,0.02,0.56c-0.03,0.2-0.11,0.39-0.24,0.57c-0.12,0.18-0.28,0.28-0.49,0.3c-0.18,0.02-0.36,0.04-0.54,0.05
	c-0.18,0.01-0.37,0.03-0.57,0.05c-0.31,0.92-0.59,1.81-0.84,2.67c-0.25,0.86-0.45,1.66-0.62,2.4c-0.17,0.74-0.29,1.39-0.35,1.95
	c-0.07,0.56-0.06,0.99,0.03,1.28c0.05,0.13,0.13,0.21,0.27,0.24c0.13,0.02,0.26,0,0.37-0.07c0.25-0.16,0.54-0.44,0.87-0.86
	c0.34-0.41,0.69-0.9,1.08-1.46c0.36-0.53,0.73-1.11,1.1-1.74c0.16-0.72,0.33-1.47,0.53-2.26c0.37-1.48,0.79-3,1.26-4.57
	c0.47-1.57,0.94-3.04,1.41-4.42c0.47-1.38,0.91-2.59,1.33-3.63c0.41-1.04,0.77-1.77,1.06-2.2c0.18-0.29,0.49-0.44,0.94-0.44
	c0.36,0,0.73,0.07,1.12,0.2c0.39,0.13,0.73,0.31,1.03,0.52c0.29,0.21,0.49,0.46,0.6,0.76c0.11,0.29,0.07,0.59-0.13,0.91
	c-0.13,0.2-0.37,0.67-0.72,1.41c-0.35,0.74-0.74,1.63-1.19,2.67c-0.45,1.04-0.91,2.18-1.39,3.41c-0.48,1.23-0.92,2.44-1.33,3.63
	c0.2-0.29,0.46-0.63,0.77-1.02c0.31-0.39,0.67-0.76,1.08-1.11c0.4-0.35,0.83-0.63,1.29-0.86c0.46-0.22,0.92-0.3,1.4-0.24
	c0.63,0.07,1.13,0.4,1.5,0.99c0.37,0.59,0.4,1.41,0.08,2.44c-0.13,0.43-0.28,0.91-0.45,1.46c-0.17,0.55-0.32,1.04-0.45,1.46
	c-0.31,0.92-0.59,1.79-0.84,2.62c-0.25,0.83-0.37,1.5-0.37,2.02c0,0.07,0.02,0.15,0.07,0.25c0.05,0.1,0.12,0.15,0.23,0.15
	c0.18,0,0.5-0.22,0.97-0.66c0.44-0.41,0.95-0.99,1.51-1.74l0-0.19c0-0.94,0.14-1.94,0.42-3.01c0.28-1.06,0.69-2.04,1.23-2.92
	c0.54-0.89,1.19-1.62,1.97-2.22c0.77-0.59,1.66-0.89,2.67-0.89c0.4,0,0.81,0.07,1.23,0.22c0.41,0.15,0.78,0.36,1.09,0.66
	c0.31,0.29,0.58,0.67,0.79,1.13c0.21,0.46,0.32,1,0.32,1.63c-0.05,1.19-0.3,2.17-0.76,2.96c-0.46,0.78-1.02,1.41-1.7,1.88
	c-0.67,0.47-1.38,0.8-2.13,0.99c-0.75,0.19-1.44,0.29-2.07,0.29c-0.05,0.29-0.03,0.59,0.05,0.89c0.08,0.3,0.2,0.57,0.37,0.81
	c0.17,0.23,0.38,0.43,0.64,0.57c0.26,0.15,0.56,0.22,0.89,0.22c0.58,0,1.24-0.27,1.98-0.81c0.74-0.54,1.5-1.27,2.27-2.2
	c0.77-0.93,1.54-2.02,2.3-3.26C163.23,17.09,163.92,15.76,164.55,14.35L164.55,14.35z M183.26,6.69c-0.11,0.2-0.27,0.6-0.49,1.19
	c-0.21,0.59-0.46,1.32-0.74,2.17c-0.28,0.85-0.59,1.81-0.92,2.89c-0.34,1.08-0.68,2.2-1.04,3.36c0.09,0,0.22,0.01,0.4,0.02
	c0.18,0.01,0.37,0.02,0.57,0.02c0.2,0,0.39-0.01,0.57-0.02c0.18-0.01,0.33-0.03,0.44-0.05c0.99-0.16,1.85-0.53,2.6-1.12
	c0.75-0.59,1.37-1.29,1.86-2.1c0.49-0.81,0.84-1.66,1.06-2.55c0.21-0.9,0.28-1.74,0.18-2.52c-0.11-0.87-0.39-1.65-0.84-2.33
	c-0.45-0.68-1.02-1.24-1.71-1.66c-0.69-0.43-1.48-0.71-2.35-0.84c-0.87-0.14-1.79-0.08-2.76,0.17c-0.92,0.25-1.73,0.69-2.44,1.34
	c-0.71,0.65-1.25,1.44-1.63,2.39c-0.2,0.47-0.34,1-0.42,1.58c-0.08,0.58-0.03,1.08,0.15,1.48c0.11,0.25,0.13,0.49,0.07,0.72
	c-0.07,0.23-0.33,0.46-0.81,0.69c-0.29,0.13-0.67,0.22-1.12,0.25c-0.46,0.03-0.89-0.03-1.29-0.2c-0.4-0.17-0.74-0.47-1.01-0.91
	c-0.27-0.44-0.37-1.05-0.3-1.83c0.13-1.26,0.53-2.35,1.19-3.28c0.66-0.93,1.45-1.71,2.37-2.33c0.92-0.63,1.88-1.11,2.89-1.45
	c1.01-0.34,1.91-0.55,2.72-0.64c1.5-0.18,2.93-0.15,4.3,0.08c1.37,0.23,2.58,0.66,3.63,1.26c1.05,0.61,1.92,1.37,2.6,2.3
	c0.68,0.93,1.1,2,1.26,3.21c0.09,0.78,0.09,1.69,0,2.71c-0.09,1.02-0.36,2-0.82,2.96c-0.46,0.95-1.14,1.81-2.05,2.57
	c-0.91,0.76-2.13,1.28-3.68,1.55c0.25,0.13,0.5,0.31,0.76,0.54c0.26,0.22,0.49,0.49,0.71,0.79c0.21,0.3,0.38,0.65,0.49,1.04
	c0.11,0.39,0.16,0.82,0.14,1.29c-0.07,1.01-0.33,1.86-0.77,2.55c-0.45,0.69-1.01,1.24-1.7,1.65c-0.68,0.4-1.44,0.67-2.28,0.81
	c-0.84,0.13-1.69,0.15-2.54,0.03c-0.76-0.07-1.5-0.26-2.22-0.57c-0.72-0.31-1.3-0.71-1.75-1.18c-0.22,0.34-0.49,0.61-0.81,0.82
	c-0.31,0.21-0.63,0.39-0.96,0.52c-0.32,0.13-0.63,0.23-0.92,0.3c-0.29,0.07-0.54,0.1-0.74,0.1c-0.65,0.07-1.29-0.01-1.92-0.24
	c-0.43-0.18-0.74-0.39-0.94-0.62c-0.2-0.23-0.31-0.47-0.34-0.71c-0.02-0.23,0.02-0.45,0.12-0.66c0.1-0.2,0.23-0.35,0.39-0.45
	c0.16-0.1,0.31-0.14,0.47-0.1c0.16,0.03,0.28,0.16,0.37,0.39c0.07,0.18,0.2,0.31,0.4,0.4c0.2,0.09,0.43,0.12,0.69,0.1
	c0.26-0.02,0.53-0.11,0.81-0.25c0.28-0.15,0.54-0.39,0.79-0.72c0.43-0.56,0.83-1.37,1.21-2.42c0.38-1.05,0.73-2.2,1.06-3.44
	c0.33-1.24,0.63-2.53,0.92-3.85c0.29-1.32,0.54-2.55,0.76-3.68c0.21-1.13,0.4-2.09,0.55-2.87c0.16-0.78,0.28-1.28,0.37-1.48
	c0.16-0.38,0.35-0.71,0.57-0.99c0.22-0.28,0.56-0.44,1.01-0.49c0.4-0.05,0.82-0.02,1.24,0.08c0.43,0.1,0.79,0.26,1.09,0.49
	c0.3,0.22,0.51,0.49,0.64,0.79C183.5,6.04,183.46,6.36,183.26,6.69L183.26,6.69z M183.57,21.37c0.02-0.36-0.05-0.72-0.22-1.07
	c-0.17-0.36-0.43-0.68-0.77-0.97c-0.35-0.29-0.79-0.52-1.33-0.69c-0.54-0.17-1.15-0.23-1.85-0.18c-0.31,1.01-0.62,1.91-0.92,2.7
	c-0.3,0.79-0.58,1.42-0.82,1.86c0.56,0.4,1.17,0.68,1.83,0.82c0.66,0.15,1.28,0.15,1.86,0.02c0.58-0.13,1.08-0.41,1.5-0.82
	C183.26,22.62,183.5,22.07,183.57,21.37L183.57,21.37z M201.32,21.93c-0.58,0.78-1.2,1.5-1.85,2.15c-0.71,0.71-1.43,1.28-2.18,1.73
	c-0.75,0.45-1.51,0.68-2.27,0.71c-0.61,0-1.15-0.13-1.65-0.39c-0.49-0.26-0.92-0.62-1.29-1.08c-0.37-0.46-0.66-1-0.86-1.61
	c-0.2-0.62-0.3-1.29-0.3-2.03c0-0.94,0.14-1.94,0.42-3.01c0.28-1.06,0.69-2.04,1.23-2.92c0.54-0.89,1.19-1.62,1.97-2.22
	c0.77-0.59,1.66-0.89,2.67-0.89c0.4,0,0.81,0.07,1.23,0.22c0.41,0.15,0.78,0.36,1.09,0.66c0.31,0.29,0.58,0.67,0.79,1.13
	c0.21,0.46,0.32,1,0.32,1.63c-0.05,1.19-0.3,2.17-0.76,2.96c-0.46,0.78-1.02,1.41-1.7,1.88c-0.67,0.47-1.38,0.8-2.13,0.99
	c-0.75,0.19-1.44,0.29-2.07,0.29c-0.04,0.29-0.03,0.59,0.05,0.89c0.08,0.3,0.2,0.57,0.37,0.81c0.17,0.23,0.38,0.43,0.64,0.57
	c0.26,0.15,0.55,0.22,0.89,0.22c0.58,0,1.24-0.27,1.98-0.81c0.74-0.54,1.5-1.27,2.27-2.2c0.5-0.6,1-1.27,1.5-2.01
	c0.19-0.83,0.43-1.63,0.72-2.41c0.33-0.87,0.69-1.66,1.09-2.37c0.4-0.71,0.82-1.23,1.24-1.56c0.36-0.27,0.73-0.46,1.11-0.59
	c0.38-0.12,0.75-0.18,1.11-0.18c0.54,0,1.02,0.12,1.44,0.35c0.43,0.23,0.74,0.61,0.94,1.12c0.07-0.16,0.12-0.27,0.15-0.34
	c0.03-0.07,0.11-0.19,0.22-0.37c0.16-0.29,0.45-0.43,0.89-0.42c0.44,0.01,0.86,0.11,1.28,0.29c0.41,0.18,0.77,0.41,1.06,0.69
	c0.29,0.28,0.37,0.55,0.24,0.82c-0.43,0.94-0.82,1.88-1.19,2.81c-0.37,0.93-0.69,1.8-0.97,2.6c-0.28,0.81-0.49,1.52-0.62,2.15
	c-0.13,0.63-0.18,1.11-0.13,1.44c0.04,0.18,0.12,0.28,0.22,0.29c0.1,0.01,0.21-0.02,0.34-0.1c0.12-0.08,0.24-0.18,0.35-0.3
	c0.11-0.12,0.2-0.22,0.27-0.29c0.45-0.49,0.93-1.15,1.45-1.97c0.22-0.35,0.43-0.7,0.65-1.06c0.08-0.69,0.23-1.4,0.44-2.12
	c0.35-1.17,0.83-2.21,1.45-3.13c0.62-0.92,1.35-1.63,2.2-2.15c0.85-0.52,1.78-0.67,2.79-0.47c0.49,0.11,0.93,0.31,1.31,0.6
	c0.38,0.29,0.68,0.66,0.91,1.09c0.22,0.44,0.36,0.94,0.4,1.51c0.05,0.57-0.02,1.18-0.2,1.83c-0.18,0.58-0.49,0.94-0.94,1.06
	c-0.45,0.12-0.86,0.16-1.24,0.12c-0.83-0.11-1.18-0.39-1.04-0.84c0.09-0.29,0.18-0.61,0.28-0.96c0.1-0.35,0.16-0.65,0.17-0.91
	c0.01-0.26-0.03-0.43-0.13-0.52c-0.1-0.09-0.32-0.02-0.66,0.2c-0.36,0.25-0.71,0.65-1.04,1.21c-0.33,0.56-0.63,1.19-0.89,1.88
	c-0.26,0.7-0.46,1.41-0.62,2.13c-0.16,0.73-0.23,1.37-0.23,1.93c0,0.69,0.1,1.2,0.3,1.53c0.2,0.33,0.46,0.51,0.79,0.56
	c0.33,0.04,0.7-0.02,1.13-0.2c0.43-0.18,0.86-0.44,1.31-0.77c0.63-0.47,1.24-1.07,1.85-1.8c0.61-0.73,1.19-1.51,1.76-2.35
	c0.37-0.54,0.72-1.09,1.07-1.66l0.1-0.41c0.37-1.48,0.79-3,1.26-4.57c0.47-1.57,0.94-3.04,1.41-4.42c0.47-1.38,0.91-2.59,1.33-3.63
	c0.41-1.04,0.77-1.77,1.06-2.2c0.18-0.29,0.49-0.44,0.94-0.44c0.36,0,0.73,0.07,1.13,0.2c0.39,0.13,0.73,0.31,1.02,0.52
	c0.29,0.21,0.49,0.46,0.61,0.76c0.11,0.29,0.07,0.59-0.13,0.91c-0.13,0.2-0.38,0.67-0.72,1.41c-0.35,0.74-0.74,1.63-1.19,2.67
	c-0.45,1.04-0.91,2.18-1.39,3.41c-0.48,1.23-0.92,2.44-1.33,3.63c0.2-0.29,0.46-0.63,0.77-1.02c0.31-0.39,0.67-0.76,1.07-1.11
	c0.4-0.35,0.84-0.63,1.29-0.86c0.46-0.22,0.92-0.3,1.39-0.24c0.63,0.07,1.13,0.4,1.5,0.99c0.37,0.59,0.4,1.41,0.08,2.44
	c-0.13,0.43-0.29,0.91-0.45,1.46c-0.17,0.55-0.32,1.04-0.45,1.46c-0.31,0.92-0.59,1.79-0.84,2.62c-0.25,0.83-0.37,1.5-0.37,2.02
	c0,0.07,0.02,0.15,0.07,0.25c0.04,0.1,0.12,0.15,0.23,0.15c0.18,0,0.5-0.22,0.97-0.66c0.47-0.44,1.01-1.07,1.63-1.9
	c0.62-0.83,1.27-1.83,1.96-3.01c0.69-1.18,1.37-2.49,2.01-3.95c0.07-0.11,0.17-0.17,0.3-0.17s0.27,0.03,0.4,0.08
	c0.13,0.06,0.24,0.13,0.31,0.23c0.08,0.1,0.1,0.2,0.05,0.29c-0.11,0.2-0.31,0.62-0.59,1.26c-0.28,0.64-0.62,1.37-1.02,2.18
	c-0.4,0.82-0.87,1.69-1.4,2.6c-0.52,0.92-1.07,1.77-1.64,2.55c-0.57,0.78-1.16,1.45-1.78,1.98c-0.62,0.54-1.23,0.85-1.83,0.94
	c-0.58,0.04-1.06,0-1.44-0.13c-0.38-0.13-0.69-0.35-0.92-0.64c-0.23-0.29-0.4-0.64-0.5-1.04c-0.1-0.4-0.15-0.84-0.15-1.31
	c0-0.72,0.11-1.51,0.32-2.37c0.21-0.86,0.42-1.72,0.62-2.57c0.14-0.61,0.16-1.02,0.08-1.26c-0.08-0.24-0.22-0.33-0.42-0.27
	c-0.2,0.05-0.43,0.23-0.69,0.52c-0.26,0.29-0.49,0.66-0.69,1.11s-0.41,0.95-0.64,1.51c-0.22,0.56-0.44,1.14-0.66,1.73
	c-0.21,0.59-0.4,1.17-0.57,1.73c-0.17,0.56-0.3,1.05-0.39,1.48c-0.09,0.43-0.28,0.81-0.57,1.14c-0.29,0.33-0.69,0.46-1.21,0.37
	c-0.18-0.02-0.34-0.1-0.49-0.24c-0.15-0.13-0.26-0.29-0.35-0.47c-0.09-0.18-0.16-0.37-0.2-0.57c-0.05-0.2-0.07-0.39-0.07-0.57
	c0-0.72,0.12-1.7,0.35-2.94l0.05-0.23c-0.11,0.16-0.23,0.32-0.35,0.49c-0.62,0.85-1.25,1.61-1.92,2.28
	c-0.66,0.67-1.34,1.22-2.05,1.65c-0.71,0.43-1.41,0.64-2.1,0.64c-0.72,0-1.33-0.14-1.83-0.42c-0.5-0.28-0.92-0.66-1.26-1.13
	c-0.34-0.47-0.58-1-0.74-1.6l-0.03-0.13c-0.11,0.17-0.21,0.33-0.32,0.5c-0.53,0.79-1.06,1.45-1.61,1.97
	c-0.55,0.51-1.09,0.77-1.63,0.77c-0.58,0-1.09-0.2-1.53-0.61c-0.44-0.4-0.72-0.94-0.86-1.61c-0.13,0.25-0.3,0.5-0.5,0.76
	c-0.2,0.26-0.43,0.49-0.67,0.71s-0.52,0.39-0.82,0.54c-0.3,0.15-0.63,0.23-0.99,0.25c-0.96,0-1.77-0.33-2.42-0.99
	c-0.65-0.66-0.97-1.65-0.97-2.97C201.3,22.33,201.31,22.13,201.32,21.93L201.32,21.93z M196.94,15.5c-0.2,0.11-0.44,0.34-0.71,0.67
	c-0.27,0.34-0.54,0.74-0.81,1.23c-0.27,0.48-0.51,1.01-0.74,1.58c-0.22,0.57-0.39,1.15-0.5,1.73c0.38-0.04,0.77-0.2,1.16-0.47
	c0.39-0.27,0.75-0.6,1.08-0.99c0.32-0.39,0.6-0.84,0.82-1.34c0.22-0.5,0.36-1.01,0.4-1.53c0.02-0.27,0-0.46-0.05-0.59
	c-0.06-0.12-0.12-0.21-0.2-0.27c-0.08-0.06-0.16-0.08-0.23-0.07C197.08,15.46,197,15.47,196.94,15.5L196.94,15.5z M208.33,16.34
	c0-0.07-0.01-0.17-0.02-0.32c-0.01-0.15-0.03-0.29-0.07-0.42c-0.03-0.13-0.08-0.26-0.13-0.37c-0.06-0.11-0.13-0.17-0.22-0.17
	c-0.27,0-0.56,0.21-0.89,0.62c-0.32,0.41-0.64,0.94-0.94,1.56c-0.3,0.63-0.59,1.32-0.86,2.08c-0.27,0.76-0.48,1.48-0.64,2.15
	c-0.04,0.2-0.1,0.48-0.17,0.84c-0.07,0.36-0.11,0.71-0.12,1.06c-0.01,0.35,0.02,0.65,0.08,0.91c0.07,0.26,0.21,0.39,0.44,0.39
	c0.29,0,0.58-0.16,0.87-0.49c0.29-0.33,0.57-0.74,0.82-1.26c0.26-0.51,0.5-1.09,0.72-1.71c0.22-0.63,0.42-1.25,0.59-1.87
	c0.17-0.61,0.3-1.19,0.39-1.73C208.28,17.07,208.33,16.65,208.33,16.34L208.33,16.34z M64.3,20.9c-0.16,0.11-0.31,0.22-0.45,0.32
	c-0.15,0.1-0.27,0.22-0.39,0.35c-0.34,0.31-0.56,0.69-0.67,1.13c-0.11,0.44-0.11,0.85,0,1.23c0.11,0.38,0.34,0.69,0.67,0.92
	c0.34,0.23,0.81,0.31,1.41,0.22c1.19-0.18,2.03-0.68,2.54-1.5c0.51-0.82,0.6-1.8,0.29-2.94c-0.25-0.78-0.62-1.51-1.12-2.18
	c-0.51-0.67-1.05-1.29-1.63-1.85c-0.45-0.43-0.91-0.86-1.38-1.29c-0.47-0.44-0.9-0.92-1.29-1.45c-0.39-0.53-0.72-1.11-0.99-1.76
	c-0.27-0.65-0.4-1.4-0.4-2.25c0-1.1,0.21-2.11,0.62-3.02c0.41-0.92,0.98-1.71,1.7-2.39c0.72-0.67,1.56-1.19,2.52-1.56
	c0.96-0.37,1.99-0.55,3.09-0.55c1.1,0,2.12,0.2,3.06,0.6c0.94,0.4,1.71,0.96,2.32,1.66c0.61,0.71,1,1.53,1.18,2.49
	c0.18,0.95,0.05,1.99-0.4,3.11c-0.27,0.65-0.71,1.07-1.31,1.28c-0.61,0.2-1.22,0.27-1.85,0.2c-0.63-0.07-1.19-0.24-1.68-0.5
	c-0.49-0.27-0.75-0.56-0.77-0.87c-0.02-0.2,0.02-0.36,0.12-0.49c0.1-0.12,0.23-0.28,0.39-0.45c0.34-0.38,0.56-0.82,0.67-1.33
	c0.11-0.5,0.11-0.98-0.02-1.43c-0.12-0.45-0.37-0.82-0.74-1.11c-0.37-0.29-0.86-0.41-1.46-0.37c-0.36,0.05-0.71,0.16-1.06,0.34
	c-0.35,0.18-0.66,0.42-0.94,0.72c-0.28,0.3-0.5,0.67-0.67,1.09c-0.17,0.43-0.25,0.89-0.25,1.38c0,0.47,0.08,0.93,0.25,1.38
	c0.17,0.45,0.4,0.89,0.69,1.31c0.29,0.43,0.61,0.84,0.96,1.24c0.35,0.4,0.71,0.79,1.09,1.18c0.4,0.43,0.8,0.89,1.19,1.4
	c0.39,0.5,0.75,1.04,1.08,1.6c0.32,0.56,0.59,1.14,0.79,1.73c0.2,0.59,0.3,1.19,0.3,1.8c0,0.43-0.05,0.87-0.15,1.34
	c-0.1,0.47-0.28,0.96-0.52,1.48c-0.31,0.65-0.71,1.22-1.17,1.7c-0.47,0.48-0.99,0.88-1.56,1.19c-0.57,0.31-1.17,0.55-1.8,0.72
	c-0.63,0.17-1.24,0.25-1.85,0.25c-0.72,0-1.41-0.1-2.07-0.3c-0.66-0.2-1.25-0.49-1.76-0.87c-0.51-0.38-0.94-0.84-1.28-1.39
	c-0.34-0.55-0.54-1.17-0.61-1.86c-0.04-0.52,0-1.14,0.12-1.88c0.12-0.74,0.45-1.4,0.99-1.98c0.38-0.36,0.77-0.56,1.16-0.61
	c0.39-0.05,0.77,0,1.14,0.13c0.37,0.13,0.71,0.34,1.02,0.61c0.31,0.27,0.57,0.54,0.76,0.82c0.19,0.28,0.3,0.54,0.34,0.79
	C64.52,20.65,64.45,20.81,64.3,20.9L64.3,20.9z M86.67,17.76c-0.25,0.45-0.53,0.91-0.81,1.38c-0.53,0.86-1.1,1.73-1.73,2.59
	c-0.63,0.86-1.29,1.65-2,2.35c-0.71,0.71-1.43,1.28-2.18,1.73c-0.75,0.45-1.51,0.68-2.27,0.71c-0.6,0-1.15-0.13-1.65-0.39
	c-0.49-0.26-0.92-0.62-1.29-1.08c-0.37-0.46-0.65-1-0.86-1.61c-0.2-0.62-0.3-1.29-0.3-2.03c0-0.94,0.14-1.94,0.42-3.01
	c0.28-1.06,0.69-2.04,1.23-2.92c0.54-0.89,1.19-1.62,1.96-2.22c0.77-0.59,1.66-0.89,2.67-0.89c0.4,0,0.81,0.07,1.23,0.22
	c0.41,0.15,0.78,0.36,1.09,0.66c0.31,0.29,0.58,0.67,0.79,1.13c0.21,0.46,0.32,1,0.32,1.63c-0.05,1.19-0.3,2.17-0.76,2.96
	c-0.46,0.78-1.02,1.41-1.7,1.88c-0.67,0.47-1.38,0.8-2.13,0.99c-0.75,0.19-1.44,0.29-2.07,0.29c-0.04,0.29-0.03,0.59,0.05,0.89
	c0.08,0.3,0.2,0.57,0.37,0.81c0.17,0.23,0.38,0.43,0.64,0.57c0.26,0.15,0.55,0.22,0.89,0.22c0.58,0,1.24-0.27,1.98-0.81
	c0.74-0.54,1.5-1.27,2.27-2.2c0.77-0.93,1.54-2.02,2.3-3.26c0.47-0.77,0.91-1.56,1.33-2.4c-0.02-0.29-0.03-0.56-0.04-0.83
	c-0.01-0.59-0.01-1.05,0.02-1.36c0.02-0.47,0.25-0.82,0.69-1.06c0.44-0.23,0.91-0.35,1.43-0.35c0.56,0,0.97,0.09,1.23,0.28
	c0.26,0.19,0.33,0.56,0.22,1.09c-0.07,0.54-0.08,1.22-0.05,2.03c0.03,0.82,0.07,1.59,0.12,2.3c0.22-0.36,0.48-0.83,0.77-1.41
	c0.29-0.58,0.6-1.15,0.92-1.71c0.33-0.56,0.65-1.06,0.97-1.51c0.33-0.45,0.64-0.73,0.96-0.84c0.2-0.07,0.5-0.07,0.89-0.02
	c0.39,0.06,0.76,0.17,1.09,0.34c0.34,0.17,0.58,0.38,0.72,0.64c0.15,0.26,0.06,0.54-0.25,0.86c-0.29,0.22-0.67,0.62-1.14,1.19
	c-0.47,0.57-0.96,1.2-1.48,1.88c-0.52,0.68-1.03,1.37-1.53,2.05c-0.5,0.68-0.95,1.26-1.33,1.73c0.11,0.38,0.23,0.76,0.35,1.13
	c0.12,0.37,0.24,0.68,0.35,0.92c0.25,0.51,0.48,0.78,0.71,0.81c0.22,0.02,0.59-0.19,1.11-0.64c0.27-0.25,0.59-0.58,0.97-0.99
	c0.38-0.41,0.83-0.97,1.34-1.68c0.51-0.71,1.13-1.58,1.83-2.62c0.71-1.04,1.52-2.3,2.44-3.78c0.07-0.11,0.17-0.17,0.3-0.17
	c0.13,0,0.27,0.03,0.4,0.08c0.13,0.06,0.24,0.14,0.32,0.24c0.08,0.1,0.09,0.21,0.05,0.32c-0.2,0.34-0.49,0.85-0.87,1.53
	c-0.38,0.68-0.83,1.45-1.34,2.3c-0.52,0.85-1.07,1.72-1.66,2.62c-0.59,0.9-1.2,1.72-1.81,2.47c-0.62,0.75-1.22,1.38-1.81,1.88
	c-0.59,0.5-1.14,0.78-1.63,0.82c-0.38,0.02-0.73-0.05-1.04-0.2c-0.31-0.16-0.59-0.36-0.84-0.62c-0.25-0.26-0.48-0.55-0.69-0.89
	c-0.21-0.34-0.41-0.66-0.59-0.97c-0.65,0.72-1.25,1.35-1.81,1.9s-1.06,0.82-1.51,0.82c-0.2,0-0.39-0.05-0.56-0.15
	c-0.17-0.1-0.31-0.23-0.44-0.39c-0.12-0.16-0.22-0.31-0.3-0.47c-0.08-0.16-0.13-0.3-0.15-0.44c-0.05-0.18-0.04-0.32,0.02-0.44
	c0.06-0.11,0.18-0.2,0.39-0.27c0.16-0.05,0.37-0.14,0.64-0.29c0.27-0.15,0.62-0.43,1.04-0.86c0.25-0.25,0.51-0.52,0.79-0.82
	c0.28-0.3,0.56-0.62,0.86-0.96c-0.25-0.67-0.44-1.39-0.59-2.15C86.83,18.77,86.74,18.26,86.67,17.76L86.67,17.76z M79.58,15.5
	c-0.2,0.11-0.44,0.34-0.71,0.67c-0.27,0.34-0.54,0.74-0.81,1.23c-0.27,0.48-0.52,1.01-0.74,1.58c-0.22,0.57-0.39,1.15-0.5,1.73
	c0.38-0.04,0.77-0.2,1.16-0.47c0.39-0.27,0.75-0.6,1.08-0.99c0.32-0.39,0.6-0.84,0.82-1.34c0.22-0.5,0.36-1.01,0.4-1.53
	c0.02-0.27,0-0.46-0.05-0.59c-0.06-0.12-0.12-0.21-0.2-0.27c-0.08-0.06-0.16-0.08-0.24-0.07C79.72,15.46,79.65,15.47,79.58,15.5
	L79.58,15.5z M111.94,18.96c0.18,0.02,0.44-0.02,0.79-0.13c0.35-0.11,0.73-0.33,1.14-0.66c0.08-0.06,0.16-0.13,0.25-0.21
	c0.17-0.62,0.35-1.24,0.54-1.88c0.34-1.11,0.67-2.15,1.01-3.14c0.09-0.25,0.35-0.4,0.77-0.47c0.43-0.07,0.86-0.06,1.29,0.03
	c0.44,0.09,0.81,0.25,1.11,0.47c0.3,0.22,0.38,0.5,0.22,0.84c-0.18,0.47-0.38,0.94-0.61,1.41c-0.22,0.47-0.41,0.92-0.57,1.34
	c0.16-0.25,0.36-0.53,0.62-0.86c0.26-0.33,0.54-0.66,0.84-0.99c0.3-0.34,0.61-0.66,0.94-0.97c0.32-0.31,0.66-0.58,0.99-0.81
	c0.43-0.27,0.85-0.38,1.28-0.34c0.43,0.05,0.79,0.21,1.09,0.49c0.3,0.28,0.52,0.67,0.66,1.18c0.13,0.5,0.12,1.09-0.03,1.76
	c-0.09,0.4-0.25,0.95-0.47,1.63c-0.22,0.68-0.45,1.4-0.67,2.13c-0.22,0.74-0.43,1.46-0.61,2.15c-0.18,0.69-0.27,1.24-0.27,1.65
	c0,0.07,0.02,0.15,0.05,0.25c0.03,0.1,0.11,0.15,0.22,0.15c0.18,0,0.49-0.2,0.92-0.61c0.44-0.4,0.95-1.01,1.53-1.81
	c0.58-0.81,1.21-1.8,1.88-2.99c0.67-1.19,1.34-2.55,2.02-4.1c0.04-0.11,0.13-0.17,0.27-0.19c0.13-0.01,0.27,0.01,0.4,0.07
	c0.14,0.06,0.24,0.14,0.32,0.25c0.08,0.11,0.11,0.21,0.08,0.3c-0.11,0.22-0.3,0.65-0.57,1.28c-0.27,0.63-0.61,1.35-1.01,2.18
	c-0.4,0.83-0.86,1.7-1.36,2.6c-0.5,0.91-1.04,1.75-1.6,2.54c-0.56,0.78-1.13,1.45-1.71,1.98c-0.58,0.54-1.17,0.85-1.75,0.94
	c-0.54,0.04-0.99,0-1.36-0.13c-0.37-0.13-0.67-0.35-0.89-0.64c-0.23-0.29-0.39-0.64-0.49-1.04c-0.1-0.4-0.15-0.84-0.15-1.31
	c0-0.72,0.11-1.51,0.32-2.37c0.21-0.86,0.41-1.72,0.59-2.57c0.13-0.61,0.16-1.02,0.08-1.26c-0.08-0.24-0.22-0.33-0.42-0.27
	c-0.2,0.05-0.43,0.23-0.69,0.52s-0.49,0.66-0.69,1.11c-0.2,0.45-0.43,0.96-0.67,1.53c-0.25,0.57-0.48,1.15-0.69,1.75
	c-0.21,0.59-0.41,1.17-0.6,1.73c-0.19,0.56-0.33,1.05-0.42,1.48c-0.09,0.4-0.28,0.77-0.57,1.11c-0.29,0.33-0.72,0.46-1.28,0.37
	c-0.4-0.05-0.7-0.28-0.89-0.69c-0.19-0.41-0.29-0.79-0.29-1.13c0-0.63,0.08-1.41,0.25-2.34c0.11-0.6,0.24-1.22,0.39-1.87
	c-0.05,0.03-0.1,0.06-0.15,0.09c-0.64,0.37-1.26,0.53-1.87,0.49c-0.45,1.68-1.12,3.06-2.03,4.13c-0.91,1.07-2,1.61-3.28,1.61
	c-0.49,0-1.02-0.12-1.58-0.37c-0.74-0.38-1.28-0.99-1.63-1.81c-0.35-0.83-0.52-1.77-0.52-2.82c0-1.03,0.15-2.1,0.45-3.21
	c0.3-1.11,0.72-2.13,1.26-3.06c0.54-0.93,1.16-1.69,1.86-2.29c0.71-0.59,1.46-0.89,2.27-0.89c0.14,0,0.31,0.01,0.52,0.03
	c0.21,0.02,0.43,0.09,0.66,0.22c0.22,0.12,0.45,0.3,0.67,0.54c0.23,0.23,0.4,0.55,0.54,0.96c0.51,0.22,0.92,0.73,1.21,1.51
	C112.16,16.35,112.18,17.48,111.94,18.96L111.94,18.96z M105.99,25.1c0.31,0,0.61-0.17,0.91-0.51c0.29-0.34,0.56-0.76,0.81-1.26
	c0.25-0.5,0.45-1.04,0.61-1.61c0.16-0.57,0.26-1.09,0.3-1.56c-0.2-0.13-0.37-0.34-0.52-0.61c-0.15-0.27-0.26-0.57-0.33-0.89
	c-0.08-0.33-0.12-0.66-0.13-0.99c-0.01-0.34,0.04-0.63,0.15-0.87c-0.31,0.11-0.63,0.39-0.94,0.84c-0.31,0.45-0.6,0.98-0.86,1.6
	c-0.26,0.62-0.48,1.27-0.66,1.97c-0.18,0.69-0.29,1.33-0.32,1.9c-0.03,0.57,0.02,1.05,0.17,1.43
	C105.31,24.91,105.59,25.1,105.99,25.1L105.99,25.1z M156.92,15.5c-0.2,0.11-0.44,0.34-0.71,0.67c-0.27,0.34-0.54,0.74-0.81,1.23
	c-0.27,0.48-0.52,1.01-0.74,1.58c-0.22,0.57-0.39,1.15-0.5,1.73c0.38-0.04,0.77-0.2,1.16-0.47c0.39-0.27,0.75-0.6,1.07-0.99
	c0.33-0.39,0.6-0.84,0.82-1.34c0.22-0.5,0.36-1.01,0.4-1.53c0.02-0.27,0-0.46-0.05-0.59c-0.06-0.12-0.12-0.21-0.2-0.27
	c-0.08-0.06-0.16-0.08-0.23-0.07C157.06,15.46,156.99,15.47,156.92,15.5L156.92,15.5z"/>
<path class="st1" d="M95.19,165.8h109.28c-0.06,0.13-0.13,0.26-0.19,0.39c-6.29,12.43-14.19,22.4-26.22,29.59
	c-21.68,12.96-35.56,12.5-56.46,0.01c-12.03-7.19-19.93-17.16-26.23-29.59C95.32,166.06,95.26,165.93,95.19,165.8L95.19,165.8z"/>
<path class="st2" d="M100.75,126.28h98.18l1.12,2.8c3.39,8.54,7.71,19.26,6.75,28.59c-0.29,2.86-1.06,5.56-2.31,8.13H95.19
	c-1.25-2.58-2.02-5.27-2.31-8.13c-0.96-9.33,3.36-20.05,6.75-28.59L100.75,126.28L100.75,126.28z"/>
<path class="st3" d="M112.11,86.76h75.45c0.2,1.55,0.41,3.09,0.65,4.65c1.9,12.4,6.16,23.42,10.71,34.88h-98.18
	c4.55-11.46,8.81-22.48,10.71-34.88C111.7,89.85,111.91,88.3,112.11,86.76L112.11,86.76z"/>
<path class="st4" d="M113.59,65.82h72.5l0,0.05c0.13,7.06,0.59,13.94,1.47,20.89h-75.45c0.88-6.94,1.35-13.83,1.48-20.89
	L113.59,65.82L113.59,65.82z"/>
<path class="st5" d="M149.85,165.8h54.62c-0.06,0.13-0.13,0.26-0.19,0.39c-6.29,12.43-14.19,22.4-26.22,29.59
	c-10.72,6.4-19.53,9.53-28.22,9.54V165.8L149.85,165.8z"/>
<path class="st6" d="M149.85,126.28h49.07l1.12,2.8c3.39,8.54,7.71,19.26,6.75,28.59c-0.29,2.86-1.06,5.56-2.31,8.13h-54.62V126.28
	L149.85,126.28z"/>
<path class="st7" d="M149.85,86.76h37.71c0.2,1.55,0.41,3.09,0.65,4.65c1.9,12.4,6.16,23.42,10.71,34.88h-49.07V86.76L149.85,86.76z
	"/>
<path class="st8" d="M149.85,65.82h36.23l0,0.05c0.13,7.06,0.59,13.94,1.47,20.89h-37.71V65.82L149.85,65.82z"/>
<path class="st3" d="M99.31,146.79c-0.79,3.67-0.53,7.41-0.17,10.88c0.31,3,1.14,5.83,2.51,8.52c2.84,5.62,6.02,10.74,9.76,15.33
	c-5.05-4.59-9.43-9.71-12.28-15.33c-1.36-2.69-2.2-5.52-2.51-8.52C96.25,154.11,97.12,150.4,99.31,146.79L99.31,146.79z
	 M144.28,203.78c8.18-0.37,16.56-3.46,26.61-9.42c12.03-7.12,19.93-17,26.22-29.31c1.36-2.66,2.2-5.46,2.51-8.44
	c0.96-9.24-3.36-19.86-6.75-28.32c-4.96-12.36-9.77-24.05-11.83-37.32c-1.31-8.46-1.97-16.74-2.13-25.29
	c-0.11-6.21-0.1-12.43-0.04-18.64h3.36c-0.06,6.21-0.07,12.43,0.04,18.64c0.15,8.55,0.81,16.83,2.13,25.29
	c2.06,13.28,6.87,24.96,11.83,37.32c3.39,8.46,7.71,19.07,6.75,28.32c-0.31,2.97-1.14,5.77-2.5,8.44
	c-6.29,12.31-14.19,22.19-26.22,29.31C162.81,201.14,153.55,204.21,144.28,203.78L144.28,203.78z M110.08,113.16
	c2.49-6.92,4.71-14.31,5.93-22.28c2.8-18.25,1.99-29.67,2.13-47.25h3.36c-0.04,5.2,0.04,9.88,0.08,14.36c0,2.63-0.01,5.26-0.06,7.89
	c-0.04,2.04-0.1,4.08-0.2,6.1c-0.35,5.82-1.1,11.88-2.66,18.91C117.15,97.72,113.8,105.3,110.08,113.16L110.08,113.16z"/>
<path class="st9" d="M148,215.65l-0.09,49.73c-0.02,15.29-13.49,21.35-26.76,24.18c-6.01,1.28-17.82,2.7-21.31,3.9
	c2.56,0,10.08-0.19,20.07-0.38c9.26-0.31,19.68-0.4,29.89-0.36c10.22-0.03,20.64,0.05,29.89,0.36c9.99,0.19,17.51,0.38,20.07,0.38
	c-3.5-1.2-15.31-2.62-21.31-3.9c-12.95-2.76-26.76-8.76-26.76-24.18l-0.03-49.73C151.67,213.94,148,213.9,148,215.65L148,215.65z
	 M206.91,295.73H92.71c-0.11-10.25,51.73-1.7,51.78-30.36l0.14-41.89c0.04-25.95-29.8-11.28-52.3-55.74
	c-10.87-21.46,10.74-44.26,15.74-76.86c2.8-18.25,1.99-29.67,2.13-47.25c26.42,0,52.84,0,79.26,0c0.14,17.59-0.67,29,2.13,47.25
	c5.01,32.6,26.61,55.4,15.74,76.86c-22.5,44.46-52.32,29.78-52.3,55.74l0.09,41.89C155.17,294.01,206.72,285.64,206.91,295.73
	L206.91,295.73z M113.62,47.05c-0.01,6.27,0.08,12.55-0.03,18.82c-0.15,8.63-0.82,16.99-2.13,25.53
	c-2.06,13.4-6.87,25.2-11.82,37.68c-3.39,8.54-7.72,19.25-6.75,28.59c0.31,3,1.14,5.83,2.51,8.52c6.29,12.43,14.19,22.4,26.23,29.59
	c20.9,12.49,34.78,12.95,56.46-0.01c12.03-7.19,19.93-17.16,26.22-29.59c1.36-2.69,2.19-5.52,2.5-8.52
	c0.96-9.33-3.36-20.05-6.75-28.59c-4.96-12.48-9.77-24.28-11.83-37.68c-1.31-8.54-1.97-16.9-2.13-25.53
	c-0.11-6.27-0.1-12.55-0.04-18.82C161.9,47.05,137.76,47.05,113.62,47.05L113.62,47.05z"/>
<path class="st0" d="M160.89,176.97c0.02-0.05,0.06-0.08,0.12-0.08c0.06,0,0.12,0,0.18,0.03c0.06,0.03,0.11,0.06,0.15,0.11
	c0.03,0.05,0.04,0.09,0.02,0.13c-0.11,0.24-0.26,0.53-0.45,0.89c-0.19,0.35-0.41,0.73-0.65,1.12c-0.24,0.39-0.51,0.79-0.79,1.19
	c-0.29,0.39-0.59,0.75-0.91,1.08c-0.32,0.32-0.66,0.59-1,0.79c-0.34,0.2-0.69,0.31-1.04,0.32c-0.28,0-0.53-0.06-0.76-0.18
	c-0.23-0.12-0.42-0.28-0.59-0.49c-0.13-0.16-0.23-0.34-0.32-0.54c-0.22,0.33-0.45,0.61-0.69,0.83c-0.26,0.24-0.52,0.36-0.79,0.36
	c-0.18,0-0.36-0.03-0.53-0.08c-0.17-0.05-0.32-0.13-0.45-0.25c-0.13-0.12-0.23-0.28-0.32-0.48c-0.08-0.2-0.13-0.45-0.14-0.75
	c0-0.11,0-0.22,0-0.34c-0.2,0.22-0.41,0.44-0.64,0.64c-0.36,0.32-0.77,0.6-1.21,0.82c-0.44,0.23-0.92,0.38-1.45,0.45
	c-0.03,0-0.1,0-0.22,0.01c-0.11,0-0.24-0.01-0.37-0.04c-0.13-0.03-0.26-0.09-0.38-0.17c-0.12-0.08-0.2-0.21-0.23-0.38
	c-0.02-0.1-0.02-0.21,0-0.32c0.02-0.11,0.06-0.22,0.12-0.31c0.06-0.09,0.15-0.17,0.25-0.22c0.11-0.06,0.24-0.07,0.39-0.04
	c0.1,0,0.22-0.1,0.36-0.29c0.14-0.19,0.27-0.43,0.41-0.71c0.13-0.28,0.26-0.59,0.37-0.92c0.11-0.33,0.2-0.64,0.26-0.93
	c0.06-0.29,0.09-0.54,0.08-0.74c-0.01-0.2-0.08-0.31-0.2-0.35c-0.21-0.05-0.4,0.04-0.59,0.27c-0.18,0.23-0.36,0.52-0.52,0.87
	c-0.16,0.35-0.3,0.71-0.41,1.1c-0.12,0.38-0.21,0.71-0.29,0.96c-0.11,0.44-0.23,0.9-0.34,1.37c-0.11,0.47-0.23,0.93-0.34,1.38
	c-0.11,0.45-0.23,0.86-0.35,1.23c-0.12,0.37-0.24,0.68-0.36,0.93c-0.05,0.1-0.18,0.16-0.37,0.17c-0.2,0.01-0.39-0.01-0.59-0.06
	c-0.2-0.05-0.37-0.13-0.5-0.24c-0.13-0.11-0.17-0.23-0.11-0.38c0.02-0.05,0.04-0.08,0.06-0.08c0.02,0,0.05-0.01,0.08-0.02
	c0.03-0.02,0.07-0.06,0.12-0.14c0.05-0.08,0.12-0.22,0.19-0.42c0.08-0.2,0.17-0.49,0.28-0.85c0.11-0.36,0.25-0.84,0.42-1.43
	c0.11-0.41,0.24-0.89,0.38-1.42c-0.25,0.32-0.54,0.61-0.85,0.89c-0.36,0.32-0.77,0.6-1.21,0.82c-0.44,0.23-0.92,0.38-1.45,0.45
	c-0.03,0-0.1,0-0.22,0.01c-0.11,0-0.24-0.01-0.37-0.04c-0.13-0.03-0.26-0.09-0.38-0.17c-0.12-0.08-0.2-0.21-0.23-0.38
	c-0.02-0.1-0.02-0.21,0-0.32c0.02-0.11,0.06-0.22,0.12-0.31c0.06-0.09,0.15-0.17,0.25-0.22c0.11-0.06,0.24-0.07,0.39-0.04
	c0.1,0,0.22-0.1,0.36-0.29c0.14-0.19,0.27-0.43,0.41-0.71c0.13-0.28,0.26-0.59,0.37-0.92c0.11-0.33,0.2-0.64,0.26-0.93
	c0.06-0.29,0.09-0.54,0.08-0.74c-0.01-0.2-0.08-0.31-0.2-0.35c-0.2-0.05-0.4,0.04-0.58,0.27c-0.18,0.23-0.36,0.52-0.51,0.87
	c-0.16,0.35-0.3,0.71-0.42,1.1c-0.12,0.38-0.21,0.71-0.28,0.96c-0.11,0.44-0.23,0.9-0.34,1.37c-0.11,0.47-0.22,0.93-0.34,1.38
	c-0.11,0.45-0.23,0.86-0.35,1.23c-0.12,0.37-0.24,0.68-0.36,0.93c-0.05,0.1-0.17,0.16-0.37,0.17c-0.19,0.01-0.39-0.01-0.59-0.06
	c-0.2-0.05-0.37-0.13-0.5-0.24c-0.13-0.11-0.17-0.23-0.11-0.38c0.02-0.05,0.04-0.08,0.06-0.08c0.02,0,0.05-0.01,0.08-0.02
	c0.03-0.02,0.07-0.06,0.12-0.14c0.05-0.08,0.11-0.22,0.19-0.42c0.08-0.2,0.17-0.49,0.28-0.85c0.11-0.36,0.25-0.84,0.42-1.43
	c0.1-0.36,0.21-0.77,0.33-1.23c-0.13,0.24-0.27,0.46-0.41,0.68c-0.24,0.36-0.49,0.66-0.74,0.9c-0.25,0.24-0.5,0.35-0.75,0.35
	c-0.27,0-0.5-0.09-0.7-0.28c-0.2-0.19-0.33-0.43-0.39-0.74c-0.06,0.11-0.14,0.23-0.23,0.35c-0.09,0.12-0.2,0.23-0.31,0.32
	c-0.11,0.1-0.24,0.18-0.38,0.25c-0.14,0.07-0.29,0.11-0.46,0.12c-0.44,0-0.81-0.15-1.11-0.45c-0.3-0.3-0.45-0.76-0.45-1.36
	c0-0.09,0-0.18,0.01-0.27c-0.27,0.36-0.55,0.68-0.85,0.98c-0.32,0.32-0.66,0.59-1,0.79c-0.34,0.2-0.69,0.31-1.04,0.32
	c-0.28,0-0.53-0.06-0.75-0.18c-0.23-0.12-0.42-0.28-0.59-0.49c-0.16-0.2-0.29-0.44-0.38-0.71l-0.01,0.01
	c-0.26,0.36-0.52,0.66-0.79,0.91c-0.27,0.25-0.53,0.39-0.8,0.43c-0.25,0.02-0.45,0-0.62-0.06c-0.17-0.06-0.31-0.16-0.41-0.29
	c-0.1-0.13-0.18-0.29-0.22-0.48c-0.05-0.18-0.07-0.38-0.07-0.6c0-0.33,0.05-0.69,0.15-1.09c0.1-0.39,0.19-0.79,0.27-1.18
	c0.06-0.28,0.07-0.47,0.04-0.58c-0.04-0.11-0.1-0.15-0.19-0.12c-0.09,0.03-0.2,0.11-0.32,0.24c-0.12,0.13-0.22,0.3-0.31,0.51
	c-0.09,0.2-0.2,0.44-0.31,0.7c-0.11,0.26-0.22,0.53-0.31,0.8c-0.1,0.27-0.19,0.54-0.28,0.79c-0.09,0.26-0.15,0.48-0.19,0.68
	c-0.04,0.18-0.13,0.35-0.26,0.51c-0.13,0.15-0.33,0.21-0.59,0.17c-0.18-0.02-0.32-0.13-0.41-0.32c-0.09-0.19-0.13-0.36-0.13-0.52
	c0-0.16,0.01-0.35,0.04-0.55c-0.04,0.06-0.09,0.13-0.14,0.19c-0.26,0.35-0.54,0.64-0.84,0.87c-0.3,0.23-0.6,0.34-0.91,0.34
	c-0.26,0-0.47-0.04-0.65-0.12c-0.17-0.08-0.32-0.2-0.42-0.34c-0.11-0.15-0.19-0.32-0.23-0.52c-0.05-0.2-0.07-0.42-0.07-0.65
	c0-0.08,0-0.17,0.01-0.25c-0.2,0.22-0.4,0.43-0.63,0.63c-0.36,0.32-0.77,0.6-1.21,0.82c-0.44,0.23-0.92,0.38-1.45,0.45
	c-0.03,0-0.1,0-0.22,0.01c-0.11,0-0.24-0.01-0.37-0.04c-0.13-0.03-0.26-0.09-0.38-0.17c-0.12-0.08-0.2-0.21-0.23-0.38
	c-0.02-0.1-0.02-0.21,0-0.32c0.02-0.11,0.06-0.22,0.12-0.31c0.06-0.09,0.15-0.17,0.25-0.22c0.11-0.06,0.24-0.07,0.39-0.04
	c0.1,0,0.22-0.1,0.36-0.29c0.14-0.19,0.27-0.43,0.41-0.71c0.13-0.28,0.26-0.59,0.37-0.92c0.11-0.33,0.2-0.64,0.26-0.93
	c0.06-0.29,0.09-0.54,0.08-0.74c-0.01-0.2-0.08-0.31-0.2-0.35c-0.2-0.05-0.4,0.04-0.58,0.27c-0.18,0.23-0.36,0.52-0.51,0.87
	c-0.16,0.35-0.3,0.71-0.42,1.1c-0.12,0.38-0.21,0.71-0.28,0.96c-0.11,0.44-0.23,0.9-0.34,1.37c-0.11,0.47-0.23,0.93-0.34,1.38
	c-0.11,0.45-0.23,0.86-0.35,1.23c-0.12,0.37-0.24,0.68-0.36,0.93c-0.05,0.1-0.18,0.16-0.37,0.17c-0.19,0.01-0.39-0.01-0.59-0.06
	c-0.2-0.05-0.37-0.13-0.5-0.24c-0.13-0.11-0.17-0.23-0.11-0.38c0.02-0.05,0.04-0.08,0.06-0.08s0.05-0.01,0.08-0.02
	c0.03-0.02,0.07-0.06,0.12-0.14c0.05-0.08,0.12-0.22,0.19-0.42c0.08-0.2,0.17-0.49,0.28-0.85c0.11-0.36,0.25-0.84,0.42-1.43
	c0.16-0.6,0.36-1.32,0.58-2.19c0.22-0.86,0.48-1.89,0.76-3.08c0.01-0.06,0.02-0.13,0.05-0.21c0.02-0.08,0.05-0.15,0.08-0.22
	c0.03-0.07,0.07-0.13,0.11-0.18c0.04-0.05,0.1-0.08,0.17-0.09c0.06-0.01,0.17-0.01,0.32,0.01c0.15,0.02,0.3,0.06,0.44,0.12
	c0.14,0.07,0.24,0.17,0.31,0.32c0.07,0.14,0.06,0.34-0.03,0.59c0.02-0.05,0.07-0.12,0.15-0.22c0.08-0.09,0.19-0.18,0.31-0.28
	c0.13-0.09,0.27-0.17,0.42-0.24c0.15-0.07,0.31-0.1,0.48-0.1c0.46,0,0.82,0.18,1.09,0.55c0.26,0.36,0.31,0.92,0.16,1.65
	c-0.06,0.27-0.15,0.56-0.26,0.88c-0.11,0.32-0.25,0.63-0.41,0.92c-0.16,0.3-0.33,0.58-0.52,0.84c-0.19,0.26-0.38,0.47-0.58,0.62
	c0.18,0,0.42-0.09,0.74-0.28c0.32-0.18,0.66-0.47,1.04-0.85c0.26-0.26,0.52-0.57,0.79-0.92c0.06-0.31,0.14-0.63,0.22-0.93
	c0.11-0.4,0.23-0.79,0.36-1.15c0.13-0.36,0.25-0.65,0.38-0.86c0.09-0.17,0.26-0.28,0.49-0.3c0.24-0.03,0.46,0.01,0.68,0.1
	c0.22,0.09,0.38,0.23,0.51,0.41c0.12,0.18,0.12,0.38,0,0.61c-0.09,0.18-0.21,0.41-0.35,0.69c-0.14,0.27-0.27,0.56-0.41,0.88
	c-0.13,0.31-0.25,0.63-0.35,0.96c-0.1,0.33-0.16,0.63-0.19,0.91c0,0.05,0,0.11,0,0.18c0,0.07,0.01,0.13,0.02,0.2
	c0.02,0.07,0.04,0.13,0.07,0.18c0.03,0.05,0.08,0.08,0.14,0.09c0.12,0,0.27-0.08,0.45-0.22c0.17-0.15,0.36-0.35,0.55-0.6
	c0.19-0.25,0.39-0.54,0.59-0.86c0.12-0.19,0.23-0.38,0.34-0.58c0.12-0.45,0.25-0.92,0.39-1.39c0.15-0.51,0.31-0.99,0.46-1.44
	c0.04-0.11,0.16-0.18,0.35-0.22c0.2-0.03,0.39-0.03,0.59,0.01c0.2,0.04,0.37,0.11,0.51,0.22c0.14,0.1,0.17,0.23,0.1,0.38
	c-0.08,0.22-0.17,0.43-0.28,0.65c-0.1,0.22-0.19,0.42-0.26,0.62c0.07-0.11,0.17-0.24,0.28-0.39c0.12-0.15,0.25-0.3,0.38-0.46
	c0.14-0.15,0.28-0.3,0.43-0.45c0.15-0.14,0.3-0.27,0.45-0.37c0.19-0.12,0.39-0.18,0.59-0.15c0.19,0.02,0.36,0.09,0.5,0.22
	c0.14,0.13,0.24,0.31,0.3,0.54c0.06,0.23,0.06,0.5-0.02,0.81c-0.04,0.18-0.11,0.43-0.22,0.75c-0.1,0.31-0.2,0.64-0.31,0.98
	c-0.1,0.34-0.2,0.67-0.28,0.99c-0.08,0.32-0.12,0.57-0.12,0.75c0,0.03,0.01,0.07,0.02,0.12c0.02,0.05,0.05,0.07,0.1,0.07
	c0.08,0,0.22-0.09,0.42-0.28c0.2-0.19,0.43-0.46,0.7-0.83l0.06-0.09c0-0.43,0.07-0.89,0.19-1.37c0.13-0.49,0.32-0.93,0.56-1.34
	c0.25-0.4,0.55-0.74,0.9-1.01c0.35-0.27,0.76-0.41,1.22-0.41c0.18,0,0.37,0.03,0.56,0.1c0.19,0.07,0.36,0.17,0.5,0.3
	c0.14,0.13,0.26,0.3,0.36,0.52c0.1,0.21,0.15,0.46,0.15,0.75c-0.02,0.55-0.14,1-0.35,1.36c-0.21,0.36-0.47,0.65-0.78,0.86
	c-0.31,0.22-0.63,0.37-0.98,0.46c-0.34,0.09-0.66,0.13-0.95,0.13c-0.02,0.13-0.01,0.27,0.02,0.41c0.04,0.14,0.09,0.26,0.17,0.37
	c0.08,0.11,0.17,0.19,0.29,0.26c0.12,0.07,0.25,0.1,0.41,0.1c0.27,0,0.57-0.12,0.91-0.37c0.34-0.25,0.69-0.58,1.04-1.01
	c0.23-0.28,0.46-0.58,0.69-0.92c0.09-0.38,0.2-0.75,0.33-1.1c0.15-0.4,0.31-0.76,0.5-1.09c0.18-0.32,0.38-0.56,0.57-0.72
	c0.16-0.12,0.33-0.21,0.51-0.27c0.18-0.06,0.34-0.08,0.51-0.08c0.25,0,0.47,0.05,0.66,0.16c0.19,0.11,0.34,0.28,0.43,0.51
	c0.03-0.07,0.05-0.12,0.07-0.15c0.02-0.03,0.05-0.09,0.1-0.17c0.07-0.13,0.21-0.2,0.41-0.19c0.2,0,0.4,0.05,0.59,0.13
	c0.19,0.08,0.35,0.19,0.49,0.32c0.13,0.13,0.17,0.25,0.11,0.38c-0.2,0.43-0.38,0.86-0.55,1.29c-0.17,0.43-0.32,0.82-0.45,1.19
	c-0.13,0.37-0.22,0.7-0.28,0.99c-0.06,0.29-0.08,0.51-0.06,0.66c0.02,0.08,0.05,0.12,0.1,0.13c0.05,0,0.1-0.01,0.15-0.05
	c0.06-0.04,0.11-0.08,0.16-0.14c0.05-0.06,0.09-0.1,0.12-0.13c0.2-0.23,0.43-0.53,0.66-0.9c0.24-0.38,0.46-0.76,0.69-1.16
	c0.22-0.4,0.42-0.78,0.6-1.15l0.07-0.13c0.09-0.37,0.18-0.75,0.28-1.15c0.01-0.06,0.02-0.13,0.05-0.21
	c0.02-0.08,0.05-0.15,0.08-0.22c0.03-0.07,0.07-0.13,0.11-0.18c0.04-0.05,0.1-0.08,0.17-0.09c0.06-0.01,0.17-0.01,0.32,0.01
	c0.15,0.02,0.3,0.06,0.44,0.12c0.14,0.07,0.24,0.17,0.32,0.32c0.07,0.14,0.06,0.34-0.03,0.59c0.02-0.05,0.07-0.12,0.15-0.22
	c0.08-0.09,0.19-0.18,0.32-0.28c0.13-0.09,0.27-0.17,0.42-0.24c0.15-0.07,0.31-0.1,0.48-0.1c0.46,0,0.82,0.18,1.09,0.55
	c0.26,0.36,0.32,0.92,0.16,1.65c-0.06,0.27-0.15,0.56-0.26,0.88c-0.11,0.32-0.25,0.63-0.41,0.92c-0.16,0.3-0.33,0.58-0.52,0.84
	c-0.19,0.26-0.38,0.47-0.58,0.62c0.17,0,0.42-0.09,0.74-0.28c0.32-0.18,0.66-0.47,1.04-0.85c0.38-0.38,0.76-0.86,1.15-1.42
	c0.04-0.05,0.07-0.1,0.11-0.16c0.17-0.67,0.35-1.43,0.56-2.27c0.01-0.06,0.03-0.13,0.05-0.21c0.02-0.08,0.05-0.15,0.08-0.22
	c0.03-0.07,0.07-0.13,0.11-0.18c0.04-0.05,0.1-0.08,0.17-0.09c0.06-0.01,0.17-0.01,0.32,0.01c0.15,0.02,0.3,0.06,0.44,0.12
	c0.14,0.07,0.24,0.17,0.32,0.32c0.07,0.14,0.06,0.34-0.03,0.59c0.02-0.05,0.07-0.12,0.15-0.22c0.08-0.09,0.19-0.18,0.31-0.28
	c0.13-0.09,0.27-0.17,0.42-0.24c0.15-0.07,0.31-0.1,0.48-0.1c0.46,0,0.82,0.18,1.09,0.55c0.26,0.36,0.31,0.92,0.16,1.65
	c-0.06,0.27-0.15,0.56-0.26,0.88c-0.11,0.32-0.25,0.63-0.41,0.92c-0.16,0.3-0.33,0.58-0.52,0.84c-0.19,0.26-0.38,0.47-0.58,0.62
	c0.18,0,0.42-0.09,0.74-0.28c0.32-0.18,0.66-0.47,1.04-0.85c0.25-0.25,0.51-0.55,0.76-0.89c0.09-0.57,0.21-1.17,0.37-1.81
	c0.15-0.64,0.33-1.29,0.52-1.94c0.19-0.65,0.39-1.25,0.58-1.81c0.19-0.55,0.37-1.03,0.54-1.44c0.16-0.4,0.3-0.68,0.4-0.84
	c0.08-0.13,0.23-0.2,0.43-0.2c0.16,0,0.34,0.03,0.51,0.09c0.18,0.06,0.34,0.14,0.47,0.24c0.13,0.1,0.23,0.21,0.28,0.35
	c0.05,0.13,0.03,0.27-0.06,0.42c-0.08,0.11-0.21,0.38-0.39,0.79c-0.18,0.42-0.38,0.91-0.61,1.49c-0.23,0.58-0.46,1.2-0.69,1.86
	c-0.24,0.66-0.44,1.3-0.62,1.91c-0.18,0.61-0.32,1.16-0.41,1.64c-0.09,0.48-0.11,0.83-0.05,1.03c0.02,0.06,0.06,0.1,0.11,0.11
	c0.06,0.01,0.11,0,0.16-0.03c0.16-0.1,0.36-0.29,0.58-0.57c0.14-0.17,0.28-0.37,0.43-0.58v0c0-0.43,0.06-0.89,0.19-1.38
	c0.13-0.49,0.32-0.93,0.56-1.34c0.25-0.4,0.55-0.74,0.9-1.01c0.35-0.27,0.76-0.41,1.22-0.41c0.18,0,0.37,0.03,0.56,0.1
	c0.19,0.07,0.36,0.17,0.5,0.3c0.14,0.13,0.26,0.3,0.36,0.52c0.1,0.21,0.15,0.46,0.15,0.75c-0.02,0.55-0.14,1-0.35,1.36
	c-0.21,0.36-0.47,0.65-0.78,0.86c-0.31,0.22-0.63,0.37-0.98,0.46c-0.34,0.09-0.66,0.13-0.95,0.13c-0.02,0.13-0.01,0.27,0.02,0.41
	c0.04,0.14,0.09,0.26,0.17,0.37c0.08,0.11,0.18,0.19,0.29,0.26c0.12,0.07,0.25,0.1,0.41,0.1c0.27,0,0.57-0.12,0.91-0.37
	c0.34-0.25,0.68-0.58,1.04-1.01c0.35-0.43,0.71-0.92,1.05-1.49C160.28,178.22,160.6,177.62,160.89,176.97L160.89,176.97z
	 M165.75,177.2c-0.12,0.25-0.26,0.58-0.42,1c-0.15,0.42-0.31,0.87-0.46,1.35c-0.15,0.48-0.3,0.96-0.44,1.44
	c-0.14,0.48-0.25,0.89-0.35,1.22c0.34-0.23,0.67-0.56,1-1.01c0.22-0.3,0.43-0.62,0.64-0.96c0.02-0.2,0.05-0.4,0.09-0.62
	c0.08-0.45,0.19-0.9,0.32-1.33c0.13-0.44,0.26-0.83,0.41-1.19c0.14-0.36,0.27-0.63,0.38-0.8c0.14-0.18,0.33-0.26,0.55-0.26
	c0.15,0,0.31,0.02,0.46,0.07c0.15,0.05,0.28,0.11,0.39,0.19c0.11,0.08,0.18,0.19,0.21,0.32c0.03,0.13,0,0.27-0.09,0.44
	c-0.09,0.17-0.21,0.42-0.35,0.73c-0.14,0.31-0.27,0.65-0.41,1.02c-0.13,0.37-0.26,0.74-0.37,1.11c-0.11,0.37-0.18,0.7-0.21,0.99
	c-0.04,0.27,0,0.43,0.11,0.48c0.12,0.05,0.26-0.08,0.44-0.38c0.13-0.23,0.27-0.52,0.42-0.88c0.15-0.36,0.3-0.73,0.45-1.11
	c0.15-0.39,0.29-0.76,0.43-1.13c0.14-0.37,0.25-0.68,0.35-0.94c0.05-0.15,0.1-0.29,0.14-0.4c0.04-0.11,0.08-0.19,0.11-0.23
	c0.11-0.18,0.29-0.26,0.52-0.26c0.15,0,0.31,0.02,0.47,0.05c0.16,0.04,0.3,0.09,0.41,0.16c0.11,0.07,0.19,0.16,0.23,0.28
	c0.04,0.11,0.02,0.25-0.06,0.41c-0.09,0.16-0.2,0.39-0.33,0.67c-0.13,0.28-0.26,0.59-0.39,0.92c-0.13,0.33-0.25,0.67-0.35,1.02
	c-0.1,0.34-0.18,0.66-0.22,0.96c0,0.03-0.01,0.09-0.02,0.18c-0.01,0.09-0.02,0.18-0.02,0.27c0,0.09,0.01,0.18,0.04,0.25
	c0.03,0.07,0.07,0.11,0.13,0.12c0.1,0,0.25-0.08,0.43-0.23c0.18-0.15,0.4-0.41,0.65-0.76c0.16-0.22,0.32-0.49,0.5-0.8
	c0.07-0.35,0.15-0.69,0.24-1.03c0.11-0.4,0.23-0.79,0.36-1.15c0.13-0.36,0.25-0.65,0.38-0.86c0.09-0.17,0.26-0.28,0.49-0.3
	c0.24-0.03,0.46,0.01,0.68,0.1c0.22,0.09,0.38,0.23,0.51,0.41c0.12,0.18,0.12,0.38,0,0.61c-0.09,0.18-0.21,0.41-0.35,0.69
	c-0.14,0.27-0.28,0.56-0.41,0.88c-0.13,0.31-0.25,0.63-0.35,0.96c-0.1,0.33-0.16,0.63-0.19,0.91c0,0.05,0,0.11,0,0.18
	c0,0.07,0.01,0.13,0.02,0.2c0.02,0.07,0.04,0.13,0.07,0.18c0.03,0.05,0.08,0.08,0.14,0.09c0.12,0,0.27-0.08,0.45-0.22
	c0.18-0.15,0.36-0.35,0.55-0.6c0.19-0.24,0.38-0.52,0.57-0.84c0.03-0.35,0.1-0.71,0.21-1.08c0.16-0.53,0.38-1.01,0.66-1.43
	c0.28-0.42,0.62-0.75,1.01-0.99c0.39-0.24,0.81-0.31,1.28-0.22c0.23,0.05,0.43,0.14,0.6,0.28c0.17,0.13,0.31,0.3,0.42,0.5
	c0.1,0.2,0.16,0.43,0.18,0.69c0.02,0.26-0.01,0.54-0.09,0.84c-0.08,0.27-0.23,0.43-0.43,0.48c-0.2,0.06-0.39,0.07-0.57,0.05
	c-0.38-0.05-0.54-0.18-0.48-0.38c0.04-0.13,0.08-0.28,0.13-0.44c0.05-0.16,0.07-0.3,0.08-0.42c0.01-0.12-0.02-0.2-0.06-0.24
	c-0.05-0.04-0.15-0.01-0.3,0.09c-0.16,0.11-0.32,0.3-0.48,0.55c-0.15,0.26-0.29,0.54-0.41,0.86c-0.12,0.32-0.21,0.64-0.28,0.98
	c-0.07,0.33-0.11,0.63-0.11,0.89c0,0.32,0.05,0.55,0.14,0.7c0.09,0.15,0.21,0.23,0.36,0.25c0.15,0.02,0.32-0.01,0.52-0.09
	c0.19-0.08,0.39-0.2,0.6-0.35c0.29-0.22,0.57-0.49,0.85-0.82c0.28-0.33,0.55-0.69,0.81-1.08l0.06-0.09
	c0.03-0.16,0.06-0.31,0.11-0.48c0.13-0.49,0.32-0.93,0.56-1.34c0.25-0.4,0.55-0.74,0.9-1.01c0.35-0.27,0.76-0.41,1.22-0.41
	c0.18,0,0.37,0.03,0.56,0.1c0.19,0.07,0.35,0.17,0.5,0.3c0.14,0.13,0.26,0.3,0.36,0.52c0.1,0.21,0.15,0.46,0.15,0.75
	c-0.02,0.55-0.14,1-0.35,1.36c-0.21,0.36-0.47,0.65-0.78,0.86c-0.31,0.22-0.63,0.37-0.98,0.46c-0.34,0.09-0.66,0.13-0.95,0.13
	c-0.02,0.13-0.01,0.27,0.02,0.41c0.03,0.14,0.09,0.26,0.17,0.37c0.08,0.11,0.17,0.19,0.29,0.26c0.12,0.07,0.25,0.1,0.41,0.1
	c0.27,0,0.57-0.12,0.91-0.37c0.34-0.25,0.69-0.58,1.04-1.01c0.35-0.43,0.71-0.92,1.05-1.49c0.35-0.57,0.67-1.18,0.96-1.82
	c0.02-0.05,0.06-0.08,0.12-0.08c0.06,0,0.12,0,0.18,0.03c0.06,0.03,0.11,0.06,0.15,0.11c0.04,0.05,0.04,0.09,0.02,0.13
	c-0.11,0.24-0.26,0.53-0.45,0.89c-0.19,0.35-0.4,0.73-0.65,1.12c-0.24,0.39-0.51,0.79-0.79,1.19c-0.29,0.39-0.59,0.75-0.92,1.08
	c-0.32,0.32-0.66,0.59-1,0.79c-0.34,0.2-0.69,0.31-1.04,0.32c-0.28,0-0.53-0.06-0.75-0.18c-0.23-0.12-0.42-0.28-0.59-0.49
	c-0.17-0.21-0.3-0.46-0.39-0.74c-0.07-0.22-0.11-0.45-0.13-0.7c-0.28,0.39-0.57,0.74-0.88,1.05c-0.3,0.31-0.62,0.56-0.94,0.75
	c-0.32,0.19-0.64,0.29-0.96,0.29c-0.33,0-0.61-0.06-0.84-0.19c-0.23-0.13-0.42-0.3-0.58-0.51c-0.15-0.22-0.27-0.46-0.34-0.73
	l-0.03-0.12c-0.08,0.12-0.16,0.23-0.24,0.34c-0.26,0.35-0.54,0.64-0.84,0.87c-0.3,0.23-0.6,0.34-0.91,0.34
	c-0.26,0-0.47-0.04-0.65-0.12c-0.18-0.08-0.32-0.2-0.42-0.34c-0.11-0.15-0.19-0.32-0.23-0.52c-0.04-0.15-0.06-0.32-0.07-0.5
	l-0.1,0.15c-0.24,0.36-0.48,0.67-0.72,0.92c-0.25,0.25-0.49,0.39-0.72,0.41c-0.41,0.04-0.73-0.07-0.95-0.34
	c-0.23-0.27-0.34-0.62-0.35-1.06c-0.09,0.17-0.19,0.34-0.31,0.51c-0.11,0.16-0.24,0.31-0.37,0.44c-0.13,0.13-0.27,0.23-0.42,0.32
	c-0.15,0.08-0.29,0.12-0.44,0.12c-0.12,0-0.26-0.02-0.4-0.06c-0.14-0.04-0.28-0.12-0.42-0.23c-0.13-0.11-0.25-0.28-0.34-0.49
	c-0.04-0.1-0.08-0.21-0.1-0.34l-0.08,0.11c-0.27,0.37-0.56,0.7-0.86,0.98c-0.3,0.28-0.61,0.49-0.93,0.62
	c-0.07,0.22-0.16,0.49-0.28,0.82c-0.11,0.33-0.26,0.65-0.43,0.96c-0.17,0.31-0.39,0.58-0.65,0.81c-0.26,0.23-0.56,0.35-0.92,0.37
	c-0.35,0.02-0.63-0.1-0.86-0.35c-0.22-0.26-0.33-0.55-0.33-0.88c0-0.36,0.06-0.66,0.18-0.92c0.12-0.25,0.29-0.46,0.49-0.63
	c0.2-0.17,0.43-0.31,0.69-0.41c0.26-0.1,0.54-0.19,0.82-0.26c0.04-0.18,0.09-0.44,0.15-0.75c0.06-0.32,0.13-0.66,0.2-1.04
	c0.07-0.38,0.15-0.76,0.23-1.17c0.08-0.4,0.16-0.79,0.23-1.15c0.07-0.36,0.14-0.68,0.2-0.97c0.06-0.29,0.11-0.51,0.15-0.66
	c0.07-0.23,0.17-0.42,0.29-0.58c0.12-0.16,0.29-0.23,0.51-0.21c0.15,0.01,0.32,0.04,0.5,0.08c0.18,0.05,0.34,0.11,0.47,0.2
	c0.13,0.09,0.23,0.2,0.28,0.34C165.88,176.84,165.86,177,165.75,177.2L165.75,177.2z M162.32,183.65c-0.25,0.07-0.44,0.17-0.59,0.31
	c-0.15,0.13-0.25,0.27-0.31,0.4c-0.06,0.13-0.09,0.25-0.08,0.35c0.01,0.1,0.05,0.15,0.12,0.15c0.25-0.02,0.44-0.16,0.57-0.42
	C162.16,184.18,162.26,183.92,162.32,183.65L162.32,183.65z M165.89,175.48c-0.09,0.08-0.21,0.12-0.36,0.12
	c-0.15,0-0.29-0.05-0.43-0.12c-0.14-0.08-0.25-0.19-0.33-0.33c-0.08-0.14-0.1-0.31-0.05-0.51c0.03-0.1,0.06-0.22,0.1-0.36
	c0.04-0.14,0.08-0.28,0.12-0.42c0.05-0.14,0.09-0.27,0.15-0.39c0.05-0.12,0.1-0.22,0.15-0.29c0.06-0.06,0.12-0.11,0.18-0.14
	c0.06-0.03,0.14-0.05,0.23-0.06c0.15-0.01,0.32,0.02,0.49,0.08c0.18,0.06,0.33,0.15,0.47,0.25c0.14,0.11,0.24,0.23,0.31,0.37
	c0.07,0.14,0.07,0.27,0.01,0.39L165.89,175.48L165.89,175.48z M174.57,175.48c-0.09,0.08-0.21,0.12-0.36,0.12
	c-0.15,0-0.29-0.05-0.43-0.12c-0.14-0.08-0.25-0.19-0.33-0.33c-0.08-0.14-0.1-0.31-0.05-0.51c0.03-0.1,0.06-0.22,0.1-0.36
	c0.04-0.14,0.08-0.28,0.12-0.42c0.05-0.14,0.1-0.27,0.15-0.39c0.05-0.12,0.1-0.22,0.15-0.29c0.06-0.06,0.12-0.11,0.18-0.14
	c0.06-0.03,0.14-0.05,0.23-0.06c0.15-0.01,0.32,0.02,0.49,0.08c0.18,0.06,0.33,0.15,0.47,0.25c0.14,0.11,0.24,0.23,0.31,0.37
	c0.07,0.14,0.07,0.27,0.01,0.39L174.57,175.48L174.57,175.48z M182.07,177.49c-0.09,0.05-0.2,0.15-0.32,0.31
	c-0.12,0.15-0.25,0.34-0.37,0.56c-0.12,0.22-0.24,0.46-0.34,0.72c-0.1,0.26-0.18,0.53-0.23,0.79c0.17-0.02,0.35-0.09,0.53-0.22
	c0.18-0.12,0.34-0.27,0.49-0.45c0.15-0.18,0.27-0.39,0.38-0.62c0.1-0.23,0.16-0.46,0.18-0.7c0.01-0.12,0-0.21-0.02-0.27
	c-0.03-0.06-0.06-0.1-0.09-0.12c-0.03-0.02-0.07-0.03-0.11-0.03C182.13,177.48,182.1,177.48,182.07,177.49L182.07,177.49z
	 M124.01,175.48c-0.09,0.08-0.21,0.12-0.36,0.12c-0.15,0-0.29-0.05-0.43-0.12c-0.14-0.08-0.25-0.19-0.33-0.33
	c-0.08-0.14-0.1-0.31-0.05-0.51c0.03-0.1,0.06-0.22,0.1-0.36c0.04-0.14,0.08-0.28,0.12-0.42c0.05-0.14,0.1-0.27,0.15-0.39
	c0.05-0.12,0.1-0.22,0.15-0.29c0.06-0.06,0.12-0.11,0.18-0.14c0.06-0.03,0.14-0.05,0.23-0.06c0.15-0.01,0.32,0.02,0.49,0.08
	c0.17,0.06,0.33,0.15,0.47,0.25c0.14,0.11,0.24,0.23,0.31,0.37c0.07,0.14,0.07,0.27,0.01,0.39L124.01,175.48L124.01,175.48z
	 M132.43,177.49c-0.09,0.05-0.2,0.15-0.32,0.31c-0.12,0.15-0.25,0.34-0.37,0.56c-0.12,0.22-0.24,0.46-0.34,0.72
	c-0.1,0.26-0.18,0.53-0.23,0.79c0.18-0.02,0.35-0.09,0.53-0.22c0.18-0.12,0.34-0.27,0.49-0.45c0.15-0.18,0.28-0.39,0.38-0.62
	c0.1-0.23,0.16-0.46,0.18-0.7c0.01-0.12,0-0.21-0.02-0.27c-0.03-0.06-0.06-0.1-0.09-0.12c-0.04-0.02-0.07-0.03-0.11-0.03
	C132.49,177.48,132.46,177.48,132.43,177.49L132.43,177.49z M137.64,177.88c0-0.03,0-0.08-0.01-0.15c-0.01-0.07-0.02-0.13-0.03-0.19
	c-0.01-0.06-0.03-0.12-0.06-0.17c-0.03-0.05-0.06-0.08-0.1-0.08c-0.12,0-0.26,0.09-0.41,0.28c-0.15,0.19-0.29,0.43-0.43,0.72
	c-0.14,0.29-0.27,0.61-0.39,0.95c-0.12,0.35-0.22,0.68-0.29,0.99c-0.02,0.09-0.05,0.22-0.08,0.38c-0.03,0.16-0.05,0.33-0.05,0.48
	c0,0.16,0.01,0.3,0.04,0.42c0.03,0.12,0.1,0.18,0.2,0.18c0.13,0,0.27-0.08,0.4-0.22c0.13-0.15,0.26-0.34,0.38-0.58
	c0.12-0.24,0.23-0.5,0.33-0.78c0.1-0.29,0.19-0.57,0.27-0.85c0.08-0.28,0.14-0.55,0.18-0.79
	C137.62,178.22,137.64,178.02,137.64,177.88L137.64,177.88z M157.39,177.49c-0.09,0.05-0.2,0.15-0.32,0.31
	c-0.12,0.15-0.25,0.34-0.37,0.56c-0.12,0.22-0.24,0.46-0.34,0.72c-0.1,0.26-0.18,0.53-0.23,0.79c0.18-0.02,0.35-0.09,0.53-0.22
	c0.18-0.12,0.34-0.27,0.49-0.45c0.15-0.18,0.27-0.39,0.38-0.62c0.1-0.23,0.16-0.46,0.18-0.7c0.01-0.12,0-0.21-0.02-0.27
	c-0.03-0.06-0.06-0.1-0.09-0.12c-0.04-0.02-0.07-0.03-0.11-0.03C157.46,177.48,157.42,177.48,157.39,177.49L157.39,177.49z"/>
<path class="st10" d="M156.79,150.52c-0.02,0.07-0.05,0.16-0.09,0.29c-0.04,0.12-0.07,0.21-0.09,0.27c0.32-0.19,0.67-0.48,1.02-0.86
	c0.36-0.38,0.71-0.82,1.07-1.32c0.35-0.5,0.69-1.03,1.01-1.6c0.32-0.57,0.6-1.13,0.85-1.7c0.03-0.05,0.09-0.07,0.16-0.08
	c0.07,0,0.15,0.01,0.22,0.03c0.07,0.03,0.13,0.07,0.18,0.12c0.04,0.05,0.06,0.1,0.05,0.14c-0.19,0.47-0.45,1.02-0.79,1.65
	c-0.33,0.63-0.72,1.25-1.16,1.86c-0.44,0.61-0.91,1.18-1.42,1.7c-0.51,0.52-1.03,0.91-1.57,1.18c-0.05,0.12-0.09,0.26-0.14,0.4
	c-0.05,0.15-0.09,0.28-0.12,0.4c-0.11,0.31-0.25,0.61-0.41,0.9c-0.16,0.29-0.35,0.54-0.56,0.76c-0.21,0.22-0.45,0.39-0.71,0.53
	s-0.55,0.2-0.87,0.2c-0.39,0-0.7-0.11-0.92-0.34c-0.22-0.22-0.34-0.49-0.34-0.81c0-0.34,0.08-0.64,0.23-0.92
	c0.16-0.27,0.36-0.52,0.61-0.73c0.25-0.21,0.53-0.4,0.84-0.55c0.31-0.16,0.61-0.28,0.92-0.37c0.01-0.07,0.03-0.15,0.06-0.24
	c0.03-0.1,0.06-0.18,0.08-0.26c0.03-0.08,0.05-0.14,0.06-0.19c0.01-0.04,0.01-0.05,0-0.03c-0.08,0.17-0.17,0.3-0.26,0.4
	c-0.09,0.1-0.18,0.17-0.27,0.22c-0.08,0.05-0.16,0.08-0.23,0.09c-0.07,0.01-0.12,0.02-0.15,0.02c-0.43,0-0.75-0.15-0.98-0.44
	c-0.23-0.29-0.35-0.69-0.36-1.19c-0.01-0.15,0-0.33,0.02-0.53c-0.19,0.28-0.39,0.54-0.58,0.79c-0.31,0.39-0.62,0.72-0.92,0.97
	c-0.31,0.26-0.6,0.39-0.86,0.39c-0.22,0-0.43-0.06-0.61-0.18c-0.18-0.12-0.33-0.28-0.44-0.48c-0.12-0.2-0.21-0.42-0.27-0.67
	c-0.06-0.25-0.09-0.52-0.09-0.8c0-0.27,0.02-0.55,0.08-0.85c0.05-0.3,0.12-0.59,0.2-0.88c0.08-0.29,0.18-0.57,0.29-0.84
	c0.11-0.27,0.22-0.51,0.34-0.74c-0.21-0.01-0.41-0.04-0.62-0.09c-0.07,0.11-0.17,0.26-0.29,0.47c-0.18,0.31-0.39,0.67-0.64,1.09
	c-0.25,0.42-0.52,0.86-0.81,1.33c-0.3,0.46-0.6,0.89-0.91,1.28c-0.31,0.39-0.62,0.72-0.92,0.97c-0.31,0.26-0.6,0.39-0.87,0.39
	c-0.22,0-0.43-0.06-0.6-0.18c-0.18-0.12-0.33-0.28-0.45-0.48c-0.12-0.2-0.21-0.42-0.27-0.67c-0.06-0.25-0.09-0.52-0.09-0.8
	c0-0.27,0.03-0.55,0.08-0.85c0.05-0.3,0.12-0.59,0.2-0.88c0.08-0.29,0.18-0.57,0.29-0.84c0.11-0.27,0.22-0.51,0.33-0.74
	c-0.22-0.01-0.45-0.05-0.67-0.1l-0.03-0.01c-0.1,0.19-0.21,0.41-0.34,0.66c-0.21,0.39-0.44,0.8-0.71,1.23
	c-0.26,0.43-0.55,0.86-0.87,1.29c-0.31,0.43-0.65,0.82-1,1.17c-0.35,0.35-0.72,0.64-1.09,0.87c-0.38,0.22-0.75,0.34-1.13,0.35
	c-0.3,0-0.58-0.06-0.82-0.19c-0.25-0.13-0.46-0.31-0.65-0.54c-0.18-0.23-0.33-0.5-0.43-0.81c-0.1-0.31-0.15-0.65-0.15-1.02
	c0-0.27,0.02-0.56,0.07-0.85c-0.06,0.03-0.13,0.05-0.19,0.08c-0.3,0.11-0.57,0.16-0.81,0.14c-0.12,0.36-0.28,0.72-0.47,1.1
	c-0.19,0.38-0.41,0.72-0.65,1.02c-0.25,0.31-0.51,0.56-0.8,0.76c-0.29,0.2-0.59,0.29-0.9,0.29c-0.19,0-0.38-0.04-0.57-0.12
	c-0.19-0.08-0.33-0.2-0.42-0.35c-0.08,0.19-0.17,0.32-0.27,0.38c-0.1,0.06-0.21,0.09-0.32,0.09c-0.22,0-0.43-0.07-0.62-0.2
	c-0.19-0.13-0.28-0.35-0.25-0.64c0.01-0.07,0.02-0.15,0.03-0.24c-0.18,0.22-0.37,0.42-0.55,0.59c-0.29,0.27-0.58,0.42-0.87,0.47
	c-0.27,0.02-0.5,0-0.68-0.07c-0.18-0.07-0.33-0.17-0.45-0.32c-0.11-0.15-0.19-0.32-0.24-0.52c-0.05-0.2-0.08-0.42-0.08-0.65
	c0-0.36,0.05-0.75,0.16-1.18c0.11-0.43,0.2-0.86,0.29-1.29c0.07-0.3,0.08-0.51,0.04-0.63c-0.04-0.12-0.11-0.16-0.21-0.14
	c-0.1,0.03-0.22,0.11-0.34,0.26c-0.13,0.15-0.24,0.33-0.34,0.56c-0.1,0.22-0.21,0.48-0.34,0.76c-0.12,0.29-0.24,0.58-0.34,0.87
	c-0.11,0.3-0.21,0.59-0.3,0.87c-0.1,0.28-0.17,0.53-0.21,0.74c-0.04,0.2-0.14,0.39-0.28,0.55c-0.15,0.17-0.36,0.23-0.64,0.18
	c-0.2-0.02-0.35-0.14-0.45-0.34c-0.1-0.21-0.14-0.39-0.14-0.56c0-0.15,0.01-0.31,0.03-0.49l-0.02,0.03
	c-0.26,0.4-0.53,0.73-0.81,0.98c-0.28,0.26-0.55,0.39-0.81,0.39c-0.29,0-0.55-0.1-0.76-0.3c-0.22-0.2-0.36-0.47-0.43-0.81
	c-0.07,0.12-0.15,0.25-0.25,0.38c-0.1,0.13-0.21,0.25-0.34,0.35c-0.12,0.11-0.26,0.2-0.41,0.27c-0.15,0.07-0.32,0.12-0.5,0.13
	c-0.48,0-0.89-0.16-1.21-0.5c-0.32-0.33-0.49-0.83-0.49-1.49l0-0.15c-0.19,0.27-0.37,0.53-0.56,0.77c-0.31,0.39-0.62,0.72-0.92,0.97
	c-0.31,0.26-0.6,0.39-0.86,0.39c-0.22,0-0.43-0.06-0.6-0.18c-0.18-0.12-0.33-0.28-0.45-0.48c-0.12-0.2-0.21-0.42-0.27-0.67
	c-0.06-0.25-0.09-0.52-0.09-0.8c0-0.27,0.02-0.55,0.07-0.85c0.05-0.3,0.12-0.59,0.2-0.88c0.08-0.29,0.18-0.57,0.29-0.84
	c0.11-0.27,0.22-0.51,0.34-0.74c-0.22-0.01-0.45-0.05-0.67-0.1c-0.04-0.01-0.08-0.02-0.12-0.03l-0.44,0.77
	c-0.22,0.39-0.47,0.8-0.74,1.23c-0.27,0.43-0.56,0.86-0.87,1.29c-0.31,0.43-0.63,0.81-0.96,1.14c-0.33,0.34-0.67,0.61-1.02,0.82
	c-0.35,0.21-0.7,0.32-1.05,0.32c-0.36,0-0.66-0.07-0.92-0.21c-0.25-0.14-0.46-0.33-0.63-0.56c-0.17-0.24-0.29-0.5-0.37-0.8
	c-0.08-0.3-0.12-0.61-0.12-0.93c0-0.55,0.09-1.11,0.26-1.7c0.17-0.58,0.41-1.1,0.72-1.56c0.31-0.46,0.68-0.82,1.1-1.08
	c0.43-0.26,0.89-0.33,1.39-0.23c0.25,0.06,0.47,0.16,0.66,0.3c0.19,0.15,0.34,0.33,0.45,0.55c0.11,0.22,0.18,0.47,0.2,0.76
	c0.02,0.29-0.01,0.59-0.1,0.92c-0.09,0.29-0.25,0.47-0.47,0.53c-0.22,0.06-0.43,0.08-0.62,0.06c-0.41-0.05-0.59-0.2-0.52-0.42
	c0.05-0.15,0.09-0.3,0.14-0.48c0.05-0.17,0.08-0.32,0.08-0.45c0.01-0.13-0.02-0.22-0.07-0.26c-0.05-0.04-0.16-0.01-0.33,0.1
	c-0.18,0.12-0.35,0.32-0.52,0.6c-0.17,0.28-0.32,0.59-0.45,0.94c-0.13,0.35-0.23,0.7-0.31,1.07c-0.08,0.36-0.12,0.69-0.12,0.97
	c0,0.35,0.05,0.6,0.15,0.76c0.1,0.16,0.23,0.25,0.39,0.28c0.16,0.02,0.35-0.01,0.56-0.1c0.21-0.09,0.43-0.22,0.66-0.39
	c0.31-0.23,0.62-0.53,0.92-0.9c0.3-0.36,0.6-0.76,0.88-1.18c0.29-0.42,0.56-0.86,0.83-1.32c0.22-0.38,0.44-0.75,0.65-1.11
	c-0.14-0.11-0.27-0.25-0.36-0.41c-0.11-0.19-0.17-0.41-0.18-0.66c-0.02-0.38,0.08-0.71,0.29-1c0.22-0.29,0.51-0.42,0.88-0.41
	c0.2,0,0.36,0.05,0.48,0.15c0.12,0.1,0.2,0.23,0.25,0.39c0.05,0.16,0.06,0.33,0.04,0.51c-0.02,0.18-0.07,0.37-0.15,0.55
	c0.02,0.16,0.12,0.26,0.29,0.32c0.17,0.06,0.34,0.03,0.5-0.08c0.16-0.09,0.31-0.13,0.47-0.13c0.17,0,0.34,0.04,0.51,0.12
	c0.17,0.08,0.31,0.18,0.42,0.3c0.11,0.12,0.17,0.26,0.2,0.42c0.03,0.16-0.01,0.32-0.13,0.49c-0.12,0.17-0.27,0.39-0.44,0.68
	c-0.17,0.28-0.33,0.6-0.49,0.93c-0.16,0.34-0.29,0.68-0.4,1.02c-0.11,0.35-0.17,0.66-0.18,0.94c0,0.19,0.02,0.33,0.07,0.42
	c0.04,0.09,0.18,0.06,0.4-0.1c0.26-0.19,0.55-0.49,0.88-0.9c0.33-0.41,0.66-0.85,0.98-1.31l0.12-0.17c0.08-0.29,0.17-0.58,0.27-0.86
	c0.16-0.44,0.34-0.83,0.55-1.18c0.2-0.35,0.41-0.61,0.62-0.78c0.18-0.13,0.36-0.23,0.55-0.29c0.19-0.06,0.38-0.09,0.56-0.09
	c0.27,0,0.51,0.06,0.72,0.18c0.21,0.12,0.37,0.31,0.47,0.56c0.03-0.08,0.06-0.13,0.08-0.17c0.02-0.03,0.05-0.1,0.11-0.19
	c0.08-0.15,0.23-0.21,0.44-0.21c0.22,0.01,0.43,0.05,0.64,0.14c0.21,0.09,0.38,0.2,0.53,0.34c0.15,0.14,0.18,0.28,0.12,0.41
	c-0.21,0.47-0.41,0.94-0.6,1.4c-0.18,0.47-0.35,0.9-0.49,1.3c-0.14,0.4-0.24,0.76-0.31,1.07c-0.07,0.31-0.09,0.56-0.07,0.72
	c0.02,0.09,0.06,0.14,0.11,0.14c0.05,0,0.11-0.01,0.17-0.05c0.06-0.04,0.12-0.09,0.18-0.15c0.06-0.06,0.1-0.11,0.13-0.14
	c0.22-0.25,0.46-0.57,0.72-0.98c0.26-0.41,0.51-0.83,0.75-1.27l0.01-0.01c0.11-0.43,0.24-0.86,0.37-1.31
	c0.17-0.55,0.34-1.08,0.5-1.57c0.04-0.12,0.17-0.2,0.39-0.23c0.21-0.03,0.43-0.03,0.65,0.02c0.22,0.05,0.4,0.12,0.56,0.24
	c0.15,0.11,0.19,0.25,0.11,0.42c-0.09,0.24-0.19,0.47-0.3,0.71c-0.11,0.24-0.21,0.46-0.29,0.67c0.08-0.12,0.18-0.27,0.31-0.43
	c0.13-0.16,0.27-0.33,0.42-0.5c0.15-0.17,0.31-0.33,0.47-0.49c0.16-0.16,0.33-0.29,0.5-0.4c0.21-0.13,0.43-0.19,0.64-0.17
	c0.21,0.02,0.39,0.1,0.55,0.24c0.15,0.14,0.26,0.34,0.33,0.59c0.07,0.25,0.06,0.55-0.02,0.88c-0.05,0.2-0.12,0.47-0.23,0.81
	c-0.11,0.34-0.22,0.7-0.34,1.07c-0.11,0.37-0.21,0.73-0.3,1.07c-0.09,0.35-0.13,0.62-0.13,0.82c0,0.03,0.01,0.08,0.02,0.13
	c0.02,0.05,0.05,0.08,0.11,0.08c0.09,0,0.24-0.1,0.46-0.3c0.22-0.2,0.47-0.5,0.76-0.91c0.09-0.12,0.18-0.25,0.27-0.39
	c0.12-0.5,0.25-1.03,0.4-1.59c0.2-0.75,0.42-1.52,0.66-2.31c0.24-0.79,0.48-1.53,0.71-2.23c0.23-0.69,0.45-1.3,0.65-1.82
	c0.2-0.51,0.37-0.87,0.5-1.07c0.09-0.15,0.25-0.22,0.47-0.22c0.18,0,0.37,0.03,0.56,0.1c0.2,0.07,0.37,0.15,0.51,0.26
	c0.15,0.11,0.25,0.23,0.3,0.38c0.06,0.15,0.03,0.3-0.07,0.45c-0.05,0.07-0.16,0.32-0.35,0.76c-0.19,0.44-0.41,0.98-0.67,1.61
	c-0.26,0.63-0.53,1.32-0.81,2.07c-0.28,0.75-0.53,1.45-0.76,2.13c-0.23,0.67-0.42,1.27-0.56,1.79c-0.15,0.52-0.21,0.88-0.18,1.07
	c0.02,0.13,0.1,0.23,0.22,0.28c0.12,0.06,0.25,0.06,0.37,0c0.25-0.08,0.5-0.35,0.77-0.81c0.27-0.46,0.49-1.05,0.67-1.75
	c-0.2-0.2-0.35-0.45-0.45-0.73c-0.1-0.29-0.15-0.56-0.15-0.81c0-0.13,0.02-0.28,0.06-0.44c0.04-0.16,0.1-0.3,0.18-0.44
	c0.08-0.13,0.17-0.25,0.29-0.34c0.11-0.09,0.24-0.15,0.39-0.16c0.25-0.01,0.47,0.05,0.68,0.18c0.21,0.13,0.38,0.31,0.5,0.56
	c0.13,0.24,0.22,0.52,0.26,0.84c0.04,0.32,0.03,0.66-0.03,1.02c0.18,0.01,0.38-0.01,0.6-0.08c0.13-0.04,0.27-0.1,0.4-0.17
	c0.13-0.42,0.31-0.81,0.53-1.17c0.27-0.44,0.6-0.81,0.98-1.11c0.39-0.3,0.83-0.45,1.33-0.45c0.2,0,0.41,0.04,0.61,0.11
	c0.21,0.07,0.39,0.18,0.55,0.33c0.16,0.15,0.29,0.33,0.39,0.56c0.11,0.23,0.16,0.5,0.16,0.81c-0.02,0.59-0.15,1.09-0.38,1.48
	c-0.23,0.39-0.51,0.71-0.85,0.94c-0.34,0.23-0.69,0.4-1.07,0.49c-0.38,0.1-0.72,0.14-1.03,0.14c-0.02,0.14-0.01,0.29,0.03,0.44
	c0.04,0.15,0.1,0.28,0.18,0.4c0.08,0.12,0.19,0.21,0.32,0.28c0.13,0.07,0.28,0.11,0.45,0.11c0.29,0,0.62-0.13,0.99-0.4
	c0.37-0.27,0.75-0.64,1.13-1.1c0.39-0.47,0.77-1.01,1.15-1.63c0.33-0.53,0.63-1.1,0.91-1.69l-0.06-0.04
	c-0.17-0.12-0.32-0.27-0.43-0.45c-0.11-0.19-0.17-0.41-0.18-0.66c-0.02-0.38,0.08-0.71,0.29-1c0.22-0.29,0.51-0.42,0.88-0.41
	c0.2,0,0.36,0.05,0.48,0.15c0.12,0.1,0.2,0.23,0.25,0.39c0.05,0.16,0.06,0.33,0.04,0.51c-0.02,0.18-0.07,0.37-0.15,0.55
	c0.02,0.16,0.12,0.26,0.29,0.32c0.17,0.06,0.34,0.03,0.5-0.08c0.16-0.09,0.31-0.13,0.47-0.13c0.17,0,0.34,0.04,0.51,0.12
	c0.17,0.08,0.31,0.18,0.42,0.3c0.11,0.12,0.17,0.26,0.2,0.42c0.03,0.16-0.01,0.32-0.13,0.49c-0.12,0.17-0.27,0.39-0.44,0.68
	c-0.17,0.28-0.33,0.6-0.49,0.93c-0.16,0.34-0.29,0.68-0.4,1.02c-0.11,0.35-0.17,0.66-0.18,0.94c0,0.19,0.02,0.33,0.07,0.42
	c0.04,0.09,0.18,0.06,0.4-0.1c0.26-0.19,0.55-0.49,0.88-0.9c0.33-0.41,0.66-0.85,0.98-1.31c0.33-0.46,0.63-0.91,0.9-1.34
	c0.2-0.31,0.36-0.57,0.49-0.78c-0.04-0.02-0.07-0.04-0.1-0.07c-0.17-0.12-0.32-0.27-0.43-0.45c-0.11-0.19-0.17-0.41-0.18-0.66
	c-0.02-0.38,0.08-0.71,0.29-1c0.22-0.29,0.51-0.42,0.88-0.41c0.2,0,0.36,0.05,0.48,0.15c0.12,0.1,0.2,0.23,0.25,0.39
	c0.05,0.16,0.06,0.33,0.04,0.51c-0.02,0.18-0.07,0.37-0.15,0.55c0.02,0.16,0.12,0.26,0.29,0.32c0.17,0.06,0.34,0.03,0.5-0.08
	c0.16-0.09,0.31-0.13,0.47-0.13c0.17,0,0.34,0.04,0.51,0.12c0.17,0.08,0.31,0.18,0.42,0.3c0.11,0.12,0.17,0.26,0.2,0.42
	c0.03,0.16-0.01,0.32-0.13,0.49c-0.12,0.17-0.27,0.39-0.44,0.68c-0.17,0.28-0.33,0.6-0.49,0.93c-0.16,0.34-0.29,0.68-0.4,1.02
	c-0.11,0.35-0.17,0.66-0.18,0.94c0,0.19,0.02,0.33,0.07,0.42c0.05,0.09,0.18,0.06,0.4-0.1c0.26-0.19,0.55-0.49,0.88-0.9
	c0.33-0.41,0.66-0.85,0.98-1.31l0.22-0.32c0.05-0.18,0.1-0.37,0.15-0.56c0.1-0.35,0.2-0.68,0.31-1c0.11-0.31,0.21-0.59,0.32-0.82
	c0.11-0.23,0.2-0.41,0.28-0.52c0.07-0.09,0.16-0.15,0.28-0.18c0.12-0.03,0.23-0.04,0.34-0.02c0.17,0.01,0.33,0.05,0.5,0.1
	c0.17,0.06,0.31,0.13,0.43,0.23c0.12,0.1,0.19,0.2,0.23,0.33c0.03,0.12,0,0.26-0.1,0.42c-0.1,0.17-0.23,0.43-0.4,0.78
	c-0.17,0.35-0.34,0.74-0.51,1.16c-0.17,0.42-0.32,0.84-0.46,1.27c-0.14,0.43-0.24,0.8-0.29,1.11c-0.05,0.23-0.05,0.38,0,0.47
	c0.05,0.09,0.09,0.13,0.15,0.13c0.17,0,0.33-0.12,0.49-0.35c0.16-0.24,0.31-0.54,0.47-0.91c0.16-0.38,0.31-0.79,0.45-1.24
	c0.15-0.45,0.29-0.9,0.45-1.33c0.15-0.43,0.3-0.82,0.44-1.18c0.14-0.35,0.28-0.61,0.43-0.78c0.08-0.09,0.18-0.15,0.3-0.18
	c0.12-0.03,0.25-0.03,0.37-0.01c0.15,0.02,0.3,0.06,0.46,0.12c0.16,0.06,0.3,0.13,0.43,0.23c0.12,0.1,0.2,0.22,0.24,0.35
	c0.04,0.13,0.01,0.28-0.09,0.44c-0.2,0.31-0.39,0.67-0.57,1.08c-0.18,0.4-0.35,0.82-0.5,1.24c-0.16,0.43-0.31,0.85-0.45,1.27
	C157.05,149.81,156.91,150.19,156.79,150.52L156.79,150.52z M189.16,140.76c-0.1,0.14-0.23,0.36-0.39,0.65
	c-0.16,0.28-0.34,0.61-0.52,0.98c-0.19,0.37-0.37,0.76-0.56,1.19c-0.19,0.42-0.37,0.83-0.54,1.24c-0.17,0.41-0.32,0.8-0.44,1.18
	c-0.13,0.38-0.22,0.7-0.28,0.97c0.11-0.12,0.24-0.27,0.39-0.45c0.15-0.17,0.31-0.37,0.48-0.58c0.17-0.21,0.33-0.45,0.5-0.7
	c0.16-0.25,0.31-0.53,0.45-0.83c0.07-0.15,0.17-0.21,0.31-0.18c0.14,0.02,0.28,0.09,0.43,0.21c0.15,0.12,0.28,0.26,0.39,0.44
	c0.11,0.17,0.17,0.33,0.18,0.48c0.01,0.17-0.04,0.35-0.14,0.55c-0.1,0.2-0.25,0.4-0.42,0.6c-0.17,0.21-0.37,0.42-0.6,0.64
	c-0.23,0.22-0.46,0.43-0.7,0.63c0.28,0.06,0.47,0.17,0.58,0.33c0.11,0.16,0.16,0.34,0.18,0.54c0.01,0.2-0.01,0.4-0.05,0.61
	c-0.05,0.21-0.07,0.39-0.08,0.54c-0.01,0.15,0.01,0.26,0.06,0.33c0.05,0.07,0.18,0.06,0.4-0.02c0.25-0.09,0.51-0.32,0.78-0.68
	c0.27-0.36,0.55-0.78,0.81-1.24c0.27-0.46,0.52-0.92,0.75-1.39c0.23-0.47,0.43-0.86,0.6-1.16c0.04-0.05,0.1-0.06,0.18-0.06
	c0.07,0,0.13,0.02,0.18,0.06c0.05,0.03,0.09,0.08,0.11,0.13c0.02,0.06,0.02,0.11-0.02,0.15c-0.1,0.2-0.24,0.48-0.41,0.85
	c-0.17,0.36-0.37,0.76-0.6,1.18c-0.23,0.43-0.48,0.86-0.76,1.3c-0.27,0.44-0.55,0.85-0.84,1.21c-0.29,0.36-0.58,0.66-0.88,0.89
	c-0.3,0.23-0.59,0.34-0.87,0.34c-0.31,0-0.53-0.07-0.66-0.21c-0.12-0.14-0.19-0.32-0.21-0.53c-0.02-0.21-0.01-0.44,0.03-0.68
	s0.06-0.46,0.07-0.67c0.01-0.21-0.03-0.38-0.11-0.51c-0.08-0.13-0.25-0.2-0.5-0.18c-0.12,0.12-0.23,0.23-0.32,0.33
	c-0.09,0.1-0.15,0.18-0.17,0.26c-0.06,0.12-0.09,0.27-0.11,0.44c-0.02,0.17-0.03,0.34-0.05,0.51c-0.02,0.17-0.04,0.34-0.07,0.5
	c-0.03,0.16-0.08,0.28-0.14,0.39c-0.09,0.12-0.2,0.22-0.35,0.28c-0.14,0.06-0.28,0.09-0.43,0.08c-0.15-0.01-0.28-0.06-0.41-0.14
	c-0.13-0.08-0.22-0.2-0.28-0.36c-0.05-0.32-0.05-0.72,0-1.19c-0.05,0.08-0.11,0.16-0.16,0.23c-0.28,0.39-0.57,0.72-0.86,0.99
	c-0.29,0.27-0.58,0.42-0.87,0.47c-0.27,0.02-0.5,0-0.68-0.07c-0.18-0.07-0.33-0.17-0.45-0.32c-0.11-0.15-0.19-0.32-0.24-0.52
	c-0.05-0.2-0.08-0.42-0.08-0.65c0-0.36,0.05-0.75,0.16-1.18c0.11-0.43,0.2-0.86,0.29-1.29c0.07-0.3,0.08-0.51,0.04-0.63
	c-0.04-0.12-0.11-0.16-0.21-0.14c-0.1,0.03-0.22,0.11-0.34,0.26c-0.13,0.15-0.24,0.33-0.34,0.56c-0.1,0.22-0.21,0.48-0.34,0.76
	c-0.12,0.29-0.24,0.58-0.34,0.87c-0.11,0.3-0.21,0.59-0.3,0.87c-0.1,0.28-0.17,0.53-0.21,0.74c-0.04,0.2-0.14,0.39-0.28,0.55
	c-0.15,0.17-0.36,0.23-0.64,0.18c-0.2-0.02-0.35-0.14-0.44-0.34c-0.1-0.21-0.14-0.39-0.14-0.56c0-0.18,0.01-0.38,0.04-0.6
	c-0.05,0.07-0.1,0.14-0.15,0.21c-0.29,0.38-0.59,0.7-0.92,0.95c-0.32,0.25-0.65,0.37-0.99,0.37c-0.28,0-0.51-0.04-0.71-0.13
	c-0.19-0.09-0.34-0.21-0.46-0.38c-0.12-0.16-0.2-0.35-0.25-0.56c-0.05-0.22-0.08-0.45-0.08-0.71c0-0.18,0.01-0.36,0.03-0.56
	c-0.23,0.35-0.47,0.67-0.71,0.98c-0.31,0.39-0.62,0.72-0.93,0.97c-0.31,0.26-0.6,0.39-0.86,0.39c-0.22,0-0.43-0.06-0.61-0.18
	c-0.18-0.12-0.33-0.28-0.45-0.48c-0.12-0.2-0.21-0.42-0.27-0.67c-0.06-0.25-0.09-0.52-0.09-0.8c0-0.27,0.03-0.55,0.08-0.85
	c0.05-0.3,0.12-0.59,0.2-0.88c0.08-0.29,0.18-0.57,0.29-0.84c0.11-0.27,0.23-0.51,0.34-0.74c-0.22-0.01-0.45-0.05-0.67-0.1
	l-0.09-0.03c-0.05,0.1-0.11,0.23-0.18,0.39c-0.15,0.33-0.33,0.71-0.55,1.14c-0.21,0.43-0.45,0.88-0.71,1.35
	c-0.26,0.47-0.52,0.91-0.8,1.3c-0.27,0.4-0.55,0.73-0.84,0.98c-0.29,0.26-0.56,0.39-0.83,0.39c-0.28,0-0.53-0.1-0.75-0.3
	c-0.22-0.2-0.37-0.47-0.45-0.81c-0.07,0.12-0.15,0.25-0.25,0.38c-0.1,0.13-0.21,0.25-0.33,0.35c-0.12,0.11-0.26,0.2-0.41,0.27
	c-0.15,0.07-0.32,0.12-0.5,0.13c-0.48,0-0.88-0.16-1.21-0.5c-0.33-0.33-0.49-0.83-0.49-1.49c0-0.4,0.05-0.84,0.15-1.31
	c0.1-0.47,0.23-0.92,0.39-1.36c0.16-0.44,0.35-0.83,0.56-1.18c0.21-0.35,0.42-0.61,0.63-0.78c0.18-0.13,0.36-0.23,0.55-0.29
	c0.18-0.06,0.37-0.09,0.55-0.09c0.27,0,0.51,0.06,0.72,0.18c0.21,0.12,0.38,0.31,0.49,0.56c0.18-0.64,0.37-1.27,0.58-1.89
	c0.21-0.62,0.4-1.18,0.59-1.69c0.18-0.5,0.35-0.93,0.5-1.29c0.15-0.35,0.27-0.58,0.34-0.7c0.06-0.08,0.13-0.13,0.21-0.17
	c0.08-0.03,0.17-0.05,0.24-0.05c0.17,0,0.36,0.03,0.56,0.08c0.21,0.06,0.39,0.13,0.55,0.24c0.16,0.1,0.27,0.22,0.34,0.36
	c0.07,0.14,0.05,0.29-0.05,0.45c-0.11,0.18-0.28,0.51-0.5,0.98c-0.22,0.48-0.46,1.02-0.71,1.65c-0.26,0.62-0.52,1.28-0.79,1.99
	c-0.27,0.71-0.51,1.38-0.72,2.03c-0.21,0.64-0.39,1.22-0.52,1.73c-0.13,0.51-0.19,0.88-0.17,1.12c0.02,0.15,0.07,0.2,0.15,0.15
	c0.15-0.07,0.31-0.21,0.5-0.42c0.19-0.21,0.39-0.47,0.61-0.76c0.21-0.3,0.43-0.62,0.64-0.96c0.21-0.35,0.41-0.69,0.6-1.02
	c0.19-0.33,0.36-0.64,0.51-0.92c0.09-0.18,0.17-0.33,0.24-0.47c-0.15-0.11-0.28-0.25-0.38-0.42c-0.11-0.19-0.17-0.41-0.19-0.66
	c-0.02-0.38,0.08-0.71,0.29-1c0.22-0.29,0.51-0.42,0.88-0.41c0.2,0,0.36,0.05,0.48,0.15c0.12,0.1,0.2,0.23,0.25,0.39
	c0.05,0.16,0.07,0.33,0.04,0.51c-0.02,0.18-0.07,0.37-0.15,0.55c0.02,0.16,0.12,0.26,0.29,0.32c0.17,0.06,0.34,0.03,0.5-0.08
	c0.16-0.09,0.31-0.13,0.47-0.13c0.17,0,0.34,0.04,0.51,0.12c0.17,0.08,0.31,0.18,0.42,0.3c0.11,0.12,0.17,0.26,0.2,0.42
	c0.03,0.16-0.02,0.32-0.13,0.49c-0.12,0.17-0.27,0.39-0.44,0.68c-0.17,0.28-0.33,0.6-0.49,0.93c-0.16,0.34-0.29,0.68-0.4,1.02
	c-0.11,0.35-0.17,0.66-0.18,0.94c0,0.19,0.02,0.33,0.07,0.42c0.04,0.09,0.18,0.06,0.4-0.1c0.26-0.19,0.55-0.49,0.88-0.9
	c0.33-0.41,0.66-0.85,0.98-1.31c0.11-0.15,0.21-0.3,0.31-0.45c0.02-0.1,0.05-0.2,0.08-0.29c0.12-0.44,0.25-0.86,0.4-1.25
	c0.14-0.39,0.28-0.71,0.41-0.94c0.1-0.19,0.28-0.3,0.54-0.33c0.26-0.03,0.51,0.01,0.74,0.11c0.23,0.1,0.42,0.25,0.55,0.45
	c0.13,0.2,0.13,0.42,0,0.66c-0.1,0.2-0.23,0.45-0.38,0.75c-0.15,0.3-0.3,0.62-0.45,0.96c-0.15,0.34-0.27,0.69-0.38,1.05
	c-0.11,0.36-0.18,0.69-0.21,0.99c0,0.06,0,0.12,0,0.19s0.01,0.15,0.02,0.22c0.02,0.07,0.04,0.14,0.08,0.19
	c0.03,0.06,0.08,0.09,0.15,0.1c0.13,0,0.3-0.08,0.49-0.24c0.19-0.16,0.39-0.38,0.6-0.65c0.21-0.27,0.42-0.59,0.64-0.94
	c0.13-0.21,0.25-0.42,0.37-0.63c0.13-0.49,0.27-1,0.43-1.52c0.17-0.55,0.34-1.08,0.51-1.57c0.04-0.12,0.17-0.2,0.39-0.23
	c0.21-0.03,0.43-0.03,0.65,0.02c0.22,0.05,0.4,0.12,0.56,0.24c0.15,0.11,0.19,0.25,0.11,0.42c-0.09,0.24-0.19,0.47-0.3,0.71
	c-0.11,0.24-0.21,0.46-0.29,0.67c0.08-0.12,0.18-0.27,0.31-0.43c0.13-0.16,0.27-0.33,0.42-0.5c0.15-0.17,0.31-0.33,0.47-0.49
	c0.16-0.16,0.33-0.29,0.5-0.4c0.21-0.13,0.43-0.19,0.64-0.17c0.21,0.02,0.4,0.1,0.55,0.24c0.15,0.14,0.26,0.34,0.33,0.59
	c0.07,0.25,0.06,0.55-0.02,0.88c-0.04,0.2-0.12,0.47-0.23,0.81c-0.11,0.34-0.22,0.7-0.34,1.07c-0.11,0.37-0.21,0.73-0.3,1.07
	c-0.09,0.35-0.13,0.62-0.13,0.82c0,0.03,0.01,0.08,0.02,0.13c0.02,0.05,0.05,0.08,0.11,0.08c0.09,0,0.24-0.1,0.46-0.3
	c0.22-0.2,0.47-0.5,0.76-0.91c0.2-0.28,0.42-0.61,0.65-0.99c0.04-0.21,0.09-0.43,0.14-0.65c0.17-0.73,0.37-1.48,0.6-2.25
	c0.23-0.77,0.48-1.51,0.74-2.22c0.26-0.71,0.53-1.35,0.79-1.93c0.26-0.58,0.51-1.04,0.73-1.38c0.06-0.07,0.13-0.12,0.22-0.16
	c0.09-0.04,0.18-0.06,0.27-0.06c0.18,0,0.37,0.03,0.57,0.09c0.2,0.06,0.38,0.15,0.52,0.26c0.15,0.11,0.25,0.24,0.3,0.38
	C189.28,140.46,189.26,140.6,189.16,140.76L189.16,140.76z M165.58,146.61c0-0.03,0-0.09-0.01-0.16c-0.01-0.07-0.02-0.14-0.03-0.21
	c-0.02-0.07-0.04-0.13-0.07-0.19c-0.03-0.06-0.06-0.08-0.11-0.08c-0.13,0-0.28,0.1-0.45,0.31c-0.16,0.21-0.32,0.47-0.47,0.78
	c-0.15,0.31-0.29,0.66-0.43,1.04c-0.13,0.38-0.24,0.74-0.32,1.07c-0.02,0.1-0.05,0.24-0.08,0.42c-0.03,0.18-0.05,0.36-0.06,0.53
	c-0.01,0.17,0.01,0.33,0.04,0.45c0.03,0.13,0.11,0.19,0.22,0.19c0.15,0,0.29-0.08,0.44-0.24c0.15-0.16,0.28-0.37,0.41-0.63
	c0.13-0.26,0.25-0.54,0.36-0.86c0.11-0.31,0.21-0.63,0.29-0.93c0.08-0.31,0.15-0.6,0.19-0.86
	C165.55,146.98,165.58,146.76,165.58,146.61L165.58,146.61z M177.59,143.99c-0.1,0.09-0.23,0.13-0.39,0.13
	c-0.16-0.01-0.32-0.05-0.47-0.13c-0.15-0.08-0.27-0.2-0.36-0.36c-0.09-0.16-0.11-0.34-0.05-0.55c0.03-0.11,0.07-0.24,0.11-0.4
	c0.04-0.15,0.08-0.3,0.13-0.45c0.05-0.15,0.1-0.29,0.16-0.43c0.06-0.13,0.11-0.24,0.17-0.32c0.07-0.07,0.13-0.12,0.2-0.15
	c0.07-0.03,0.15-0.06,0.25-0.07c0.17-0.01,0.35,0.02,0.54,0.08c0.19,0.07,0.36,0.16,0.51,0.28c0.15,0.12,0.26,0.25,0.34,0.4
	c0.07,0.15,0.08,0.29,0.01,0.43L177.59,143.99L177.59,143.99z M121.75,146.61c0-0.03,0-0.09-0.01-0.16c0-0.07-0.02-0.14-0.03-0.21
	c-0.02-0.07-0.04-0.13-0.07-0.19c-0.03-0.06-0.06-0.08-0.11-0.08c-0.13,0-0.28,0.1-0.44,0.31c-0.16,0.21-0.32,0.47-0.47,0.78
	c-0.15,0.31-0.29,0.66-0.43,1.04c-0.13,0.38-0.24,0.74-0.32,1.07c-0.02,0.1-0.05,0.24-0.08,0.42c-0.03,0.18-0.05,0.36-0.06,0.53
	c-0.01,0.17,0.01,0.33,0.04,0.45c0.03,0.13,0.11,0.19,0.22,0.19c0.15,0,0.29-0.08,0.44-0.24c0.15-0.16,0.28-0.37,0.41-0.63
	c0.13-0.26,0.25-0.54,0.36-0.86c0.11-0.31,0.21-0.63,0.29-0.93c0.08-0.31,0.15-0.6,0.19-0.86
	C121.73,146.98,121.75,146.76,121.75,146.61L121.75,146.61z M139.39,146.19c-0.1,0.06-0.22,0.17-0.35,0.33
	c-0.13,0.17-0.27,0.37-0.4,0.61c-0.13,0.24-0.26,0.5-0.37,0.79c-0.11,0.29-0.2,0.57-0.25,0.86c0.19-0.02,0.38-0.1,0.58-0.23
	c0.2-0.13,0.38-0.3,0.54-0.5c0.16-0.2,0.3-0.42,0.41-0.67c0.11-0.25,0.18-0.51,0.2-0.76c0.01-0.13,0-0.23-0.03-0.29
	c-0.03-0.06-0.06-0.11-0.1-0.13c-0.04-0.03-0.08-0.04-0.12-0.03C139.46,146.17,139.42,146.18,139.39,146.19L139.39,146.19z
	 M154.3,152.89c-0.23,0.08-0.43,0.18-0.59,0.3c-0.16,0.12-0.28,0.24-0.37,0.36c-0.09,0.12-0.14,0.22-0.16,0.31
	c-0.02,0.09,0.01,0.15,0.08,0.18c0.03,0.02,0.09,0.03,0.16,0.03c0.07-0.01,0.16-0.05,0.25-0.12c0.1-0.07,0.2-0.19,0.3-0.36
	C154.08,153.43,154.19,153.19,154.3,152.89L154.3,152.89z"/>
<path class="st0" d="M158.99,105.94c0.18-0.13,0.36-0.23,0.55-0.29c0.19-0.06,0.38-0.09,0.55-0.09c0.27,0,0.51,0.06,0.72,0.18
	c0.21,0.12,0.37,0.3,0.47,0.56c0.03-0.08,0.06-0.13,0.08-0.17c0.02-0.03,0.05-0.1,0.11-0.18c0.08-0.15,0.23-0.22,0.45-0.21
	c0.22,0.01,0.43,0.05,0.64,0.14c0.21,0.09,0.38,0.2,0.53,0.34c0.15,0.14,0.18,0.28,0.12,0.41c-0.21,0.47-0.41,0.94-0.6,1.4
	c-0.19,0.47-0.35,0.9-0.49,1.3c-0.14,0.4-0.24,0.76-0.31,1.08c-0.07,0.31-0.09,0.55-0.07,0.72c0.02,0.09,0.06,0.14,0.11,0.14
	c0.05,0.01,0.11-0.01,0.17-0.05c0.06-0.04,0.12-0.09,0.18-0.15c0.06-0.06,0.1-0.11,0.13-0.14c0.22-0.25,0.46-0.57,0.72-0.98
	c0.26-0.41,0.51-0.83,0.75-1.27c0.24-0.44,0.46-0.85,0.66-1.25c0.2-0.4,0.35-0.71,0.46-0.93c0.02-0.06,0.07-0.08,0.14-0.08
	s0.14,0.01,0.21,0.04c0.07,0.03,0.13,0.07,0.18,0.12c0.05,0.05,0.06,0.1,0.04,0.16c-0.07,0.1-0.17,0.32-0.31,0.65
	c-0.14,0.33-0.31,0.71-0.5,1.14c-0.2,0.43-0.41,0.88-0.65,1.35c-0.24,0.47-0.49,0.91-0.75,1.3c-0.26,0.4-0.53,0.73-0.81,0.98
	c-0.27,0.26-0.55,0.39-0.81,0.39c-0.29,0-0.55-0.1-0.76-0.3c-0.22-0.2-0.36-0.47-0.43-0.81c-0.07,0.12-0.15,0.25-0.25,0.38
	c-0.1,0.13-0.21,0.25-0.34,0.35c-0.12,0.11-0.26,0.2-0.41,0.27c-0.15,0.07-0.32,0.11-0.49,0.13c-0.48,0-0.89-0.17-1.21-0.5
	c-0.28-0.29-0.44-0.7-0.48-1.24c-0.12,0.17-0.25,0.34-0.37,0.5c-0.29,0.36-0.58,0.66-0.88,0.89c-0.3,0.23-0.59,0.34-0.87,0.34
	c-0.31,0-0.53-0.07-0.65-0.21c-0.12-0.14-0.19-0.32-0.21-0.53c-0.02-0.21,0-0.44,0.03-0.68c0.04-0.24,0.06-0.46,0.07-0.67
	c0.01-0.21-0.03-0.38-0.11-0.51c-0.08-0.13-0.25-0.2-0.5-0.18c-0.12,0.12-0.23,0.23-0.32,0.33c-0.09,0.1-0.15,0.18-0.17,0.26
	c-0.06,0.12-0.09,0.27-0.11,0.44c-0.02,0.17-0.03,0.34-0.05,0.51c-0.02,0.17-0.04,0.34-0.07,0.5c-0.03,0.16-0.08,0.29-0.14,0.39
	c-0.09,0.12-0.2,0.22-0.34,0.28c-0.14,0.06-0.28,0.09-0.43,0.08c-0.15-0.01-0.28-0.06-0.41-0.14c-0.13-0.08-0.22-0.2-0.28-0.36
	c-0.06-0.4-0.05-0.92,0.03-1.55l0.02-0.15c-0.17,0.29-0.35,0.57-0.53,0.84c-0.27,0.4-0.55,0.73-0.84,0.98
	c-0.28,0.26-0.56,0.39-0.83,0.39c-0.28,0-0.53-0.1-0.75-0.3c-0.22-0.2-0.37-0.47-0.45-0.81c-0.07,0.12-0.15,0.25-0.25,0.38
	c-0.1,0.13-0.21,0.25-0.34,0.35c-0.12,0.11-0.26,0.2-0.41,0.27c-0.15,0.07-0.32,0.11-0.5,0.13c-0.48,0-0.89-0.17-1.21-0.5
	c-0.33-0.33-0.49-0.83-0.49-1.49c0-0.32,0.03-0.66,0.09-1.02l-0.04,0.02c-0.32,0.18-0.63,0.27-0.93,0.24
	c-0.22,0.84-0.56,1.53-1.02,2.07c-0.45,0.54-1,0.81-1.64,0.81c-0.25,0-0.51-0.06-0.79-0.18c-0.37-0.19-0.64-0.49-0.81-0.91
	c-0.17-0.41-0.26-0.89-0.26-1.41c0-0.23,0.02-0.47,0.05-0.71c-0.05,0.03-0.1,0.06-0.15,0.09c-0.36,0.21-0.71,0.26-1.06,0.15
	c-0.19,0.35-0.39,0.69-0.61,1.02c-0.22,0.34-0.45,0.64-0.69,0.91c-0.24,0.27-0.49,0.49-0.74,0.66c-0.25,0.17-0.5,0.25-0.75,0.25
	c-0.26,0-0.5-0.1-0.73-0.29c-0.23-0.2-0.4-0.47-0.53-0.83c-0.11-0.34-0.17-0.72-0.17-1.14c0-0.38,0.03-0.8,0.1-1.26
	c0.07-0.46,0.16-0.91,0.27-1.34c0.11-0.44,0.24-0.84,0.37-1.2c0.14-0.36,0.26-0.63,0.39-0.81c0.07-0.1,0.16-0.17,0.27-0.22
	c0.11-0.05,0.23-0.07,0.35-0.07c0.17,0,0.33,0.03,0.5,0.08c0.17,0.05,0.31,0.12,0.43,0.21c0.12,0.09,0.19,0.2,0.21,0.34
	c0.02,0.14-0.02,0.29-0.13,0.46c-0.13,0.2-0.28,0.49-0.44,0.86c-0.16,0.38-0.3,0.78-0.43,1.21c-0.13,0.43-0.23,0.86-0.31,1.29
	c-0.08,0.43-0.11,0.8-0.08,1.12c0,0.11,0.02,0.19,0.06,0.23c0.04,0.04,0.08,0.06,0.13,0.06c0.05,0,0.09-0.01,0.13-0.04
	c0.04-0.03,0.08-0.06,0.12-0.09c0.22-0.23,0.44-0.57,0.66-1c0.22-0.43,0.42-0.92,0.61-1.47c-0.07-0.2-0.12-0.41-0.15-0.62
	c-0.03-0.22-0.04-0.49-0.01-0.79c0.03-0.3,0.09-0.59,0.18-0.86c0.1-0.27,0.23-0.5,0.4-0.69c0.17-0.19,0.38-0.3,0.64-0.32
	c0.28-0.02,0.51,0.05,0.68,0.23c0.17,0.17,0.29,0.41,0.34,0.72c0.05,0.31,0.04,0.66-0.04,1.07c-0.08,0.4-0.23,0.83-0.45,1.28
	c0.18,0.03,0.37,0,0.57-0.11c0.11-0.06,0.21-0.13,0.31-0.21c0.14-0.46,0.33-0.89,0.56-1.29c0.27-0.46,0.58-0.84,0.93-1.14
	c0.35-0.3,0.73-0.45,1.13-0.45c0.07,0,0.15,0,0.26,0.02c0.11,0.01,0.22,0.05,0.33,0.11c0.11,0.06,0.22,0.15,0.34,0.27
	c0.11,0.12,0.2,0.28,0.27,0.48c0.26,0.11,0.46,0.36,0.6,0.75c0.15,0.39,0.16,0.96,0.03,1.7c0.09,0.01,0.22-0.01,0.39-0.07
	c0.17-0.06,0.36-0.17,0.57-0.33l0.07-0.05c0.05-0.15,0.1-0.3,0.15-0.44c0.16-0.44,0.35-0.83,0.55-1.18
	c0.21-0.35,0.42-0.61,0.63-0.78c0.18-0.13,0.36-0.23,0.55-0.29c0.18-0.06,0.37-0.09,0.55-0.09c0.27,0,0.51,0.06,0.72,0.18
	c0.21,0.12,0.38,0.3,0.49,0.56c0.18-0.64,0.37-1.27,0.58-1.89c0.21-0.62,0.4-1.18,0.59-1.69c0.18-0.5,0.35-0.93,0.5-1.28
	c0.15-0.35,0.27-0.59,0.34-0.7c0.06-0.08,0.13-0.14,0.21-0.17c0.08-0.03,0.17-0.05,0.24-0.05c0.17,0,0.36,0.03,0.56,0.08
	c0.21,0.06,0.39,0.14,0.55,0.24c0.16,0.1,0.27,0.22,0.33,0.36c0.07,0.14,0.05,0.29-0.05,0.44c-0.11,0.18-0.28,0.51-0.5,0.98
	c-0.22,0.48-0.46,1.02-0.71,1.65c-0.26,0.62-0.52,1.28-0.79,1.99c-0.27,0.71-0.51,1.38-0.72,2.02c-0.21,0.64-0.39,1.22-0.52,1.73
	c-0.13,0.51-0.19,0.88-0.17,1.12c0.02,0.15,0.07,0.2,0.15,0.15c0.15-0.07,0.31-0.21,0.5-0.42c0.19-0.21,0.39-0.47,0.61-0.76
	c0.21-0.3,0.43-0.62,0.64-0.97c0.21-0.35,0.41-0.69,0.6-1.02l0.05-0.09c0.14-0.59,0.31-1.19,0.49-1.81
	c0.23-0.77,0.48-1.51,0.74-2.22c0.26-0.71,0.53-1.35,0.79-1.93c0.26-0.58,0.51-1.04,0.73-1.38c0.06-0.07,0.13-0.12,0.22-0.16
	c0.09-0.04,0.18-0.06,0.27-0.06c0.18,0,0.37,0.03,0.57,0.09c0.2,0.06,0.38,0.15,0.52,0.26c0.14,0.11,0.25,0.24,0.3,0.38
	c0.06,0.14,0.03,0.29-0.07,0.44c-0.1,0.15-0.23,0.36-0.4,0.65c-0.16,0.28-0.34,0.61-0.52,0.98c-0.18,0.37-0.37,0.76-0.56,1.19
	c-0.19,0.42-0.37,0.83-0.54,1.24c-0.17,0.41-0.32,0.8-0.45,1.18c-0.13,0.37-0.22,0.7-0.28,0.96c0.11-0.12,0.24-0.27,0.4-0.44
	c0.15-0.17,0.31-0.37,0.48-0.58c0.17-0.21,0.33-0.45,0.49-0.7c0.16-0.25,0.31-0.53,0.45-0.83c0.07-0.14,0.17-0.21,0.31-0.18
	c0.14,0.02,0.28,0.09,0.43,0.21c0.15,0.12,0.27,0.26,0.39,0.44c0.11,0.17,0.17,0.33,0.18,0.48c0.01,0.17-0.04,0.35-0.14,0.55
	c-0.11,0.2-0.25,0.4-0.42,0.6c-0.17,0.21-0.38,0.42-0.61,0.64c-0.23,0.22-0.46,0.43-0.7,0.63c0.28,0.06,0.47,0.17,0.58,0.33
	c0.11,0.16,0.17,0.34,0.18,0.54c0.01,0.2,0,0.4-0.05,0.61c-0.04,0.21-0.07,0.39-0.08,0.54c-0.01,0.15,0.01,0.26,0.06,0.33
	c0.05,0.07,0.18,0.06,0.39-0.02c0.25-0.09,0.51-0.32,0.78-0.68c0.15-0.2,0.29-0.4,0.44-0.63c0.02-0.13,0.04-0.26,0.07-0.39
	c0.1-0.47,0.23-0.92,0.4-1.36c0.16-0.44,0.34-0.83,0.55-1.18C158.57,106.37,158.78,106.11,158.99,105.94L158.99,105.94z
	 M141.32,111.87c0.16,0,0.31-0.08,0.45-0.25c0.15-0.17,0.28-0.38,0.4-0.63c0.12-0.25,0.22-0.52,0.3-0.81
	c0.08-0.28,0.13-0.55,0.15-0.78c-0.1-0.07-0.19-0.17-0.26-0.3c-0.07-0.13-0.13-0.28-0.17-0.45c-0.04-0.16-0.06-0.33-0.07-0.5
	c-0.01-0.17,0.02-0.31,0.08-0.44c-0.16,0.06-0.31,0.2-0.47,0.42c-0.16,0.22-0.3,0.49-0.43,0.8c-0.13,0.31-0.24,0.64-0.33,0.98
	c-0.09,0.35-0.14,0.66-0.16,0.95c-0.02,0.28,0.01,0.52,0.08,0.71C140.98,111.77,141.12,111.87,141.32,111.87L141.32,111.87z
	 M148.41,107.48c0-0.03,0-0.09-0.01-0.16c-0.01-0.07-0.02-0.14-0.03-0.21c-0.02-0.07-0.04-0.13-0.07-0.19
	c-0.03-0.05-0.06-0.08-0.11-0.08c-0.13,0-0.28,0.1-0.45,0.31c-0.16,0.21-0.32,0.47-0.47,0.78c-0.15,0.31-0.29,0.66-0.43,1.04
	c-0.13,0.38-0.24,0.74-0.32,1.07c-0.02,0.1-0.05,0.24-0.08,0.42c-0.03,0.18-0.05,0.36-0.06,0.53c0,0.17,0.01,0.33,0.04,0.45
	c0.03,0.13,0.11,0.19,0.22,0.19c0.15,0,0.29-0.08,0.44-0.24c0.15-0.16,0.28-0.37,0.41-0.63c0.13-0.26,0.25-0.54,0.36-0.86
	c0.11-0.31,0.21-0.63,0.29-0.93c0.08-0.31,0.15-0.6,0.19-0.86C148.39,107.85,148.41,107.64,148.41,107.48L148.41,107.48z
	 M160.79,107.48c0-0.03,0-0.09-0.01-0.16c0-0.07-0.02-0.14-0.03-0.21c-0.02-0.07-0.04-0.13-0.07-0.19
	c-0.03-0.05-0.06-0.08-0.11-0.08c-0.13,0-0.28,0.1-0.44,0.31c-0.16,0.21-0.32,0.47-0.47,0.78c-0.15,0.31-0.29,0.66-0.43,1.04
	c-0.13,0.38-0.24,0.74-0.32,1.07c-0.02,0.1-0.05,0.24-0.08,0.42c-0.03,0.18-0.05,0.36-0.06,0.53c-0.01,0.17,0.01,0.33,0.04,0.45
	c0.03,0.13,0.11,0.19,0.22,0.19c0.15,0,0.29-0.08,0.44-0.24c0.15-0.16,0.28-0.37,0.41-0.63c0.13-0.26,0.25-0.54,0.36-0.86
	c0.11-0.31,0.21-0.63,0.29-0.93c0.08-0.31,0.15-0.6,0.19-0.86C160.77,107.85,160.79,107.64,160.79,107.48L160.79,107.48z"/>
<path class="st0" d="M140.71,79.04c0-0.28,0.05-0.66,0.14-1.15l0.02-0.09l-0.13,0.19c-0.24,0.33-0.49,0.63-0.75,0.89
	c-0.26,0.26-0.53,0.48-0.8,0.64c-0.28,0.17-0.55,0.25-0.82,0.25c-0.28,0-0.52-0.05-0.72-0.16c-0.2-0.11-0.36-0.26-0.49-0.44
	c-0.13-0.18-0.23-0.39-0.29-0.62l-0.01-0.05c-0.04,0.07-0.08,0.13-0.12,0.19c-0.21,0.31-0.42,0.57-0.63,0.77
	c-0.22,0.2-0.43,0.3-0.64,0.3c-0.23,0-0.43-0.08-0.6-0.24c-0.17-0.16-0.28-0.37-0.34-0.63c-0.05,0.1-0.12,0.2-0.2,0.3
	c-0.08,0.1-0.17,0.19-0.26,0.28c-0.1,0.08-0.2,0.15-0.32,0.21c-0.12,0.06-0.25,0.09-0.39,0.1c-0.38,0-0.69-0.13-0.95-0.39
	c-0.25-0.26-0.38-0.65-0.38-1.16c0-0.07,0-0.15,0.01-0.23c-0.23,0.31-0.47,0.59-0.72,0.84c-0.28,0.28-0.56,0.5-0.86,0.68
	c-0.29,0.18-0.59,0.27-0.89,0.28c-0.24,0-0.45-0.05-0.65-0.15c-0.19-0.1-0.36-0.24-0.51-0.42c-0.15-0.18-0.26-0.39-0.34-0.63
	c-0.03-0.08-0.05-0.17-0.07-0.25c-0.12,0.13-0.25,0.25-0.39,0.37c-0.31,0.28-0.66,0.51-1.03,0.7c-0.38,0.19-0.79,0.32-1.24,0.38
	c-0.03,0-0.09,0-0.18,0.01c-0.1,0-0.2-0.01-0.32-0.03c-0.11-0.03-0.22-0.07-0.33-0.14c-0.1-0.07-0.17-0.18-0.2-0.33
	c-0.02-0.09-0.02-0.18,0-0.28c0.02-0.1,0.05-0.18,0.1-0.26c0.05-0.08,0.12-0.14,0.22-0.19c0.09-0.05,0.2-0.06,0.34-0.03
	c0.09,0,0.19-0.08,0.31-0.24c0.12-0.16,0.23-0.36,0.35-0.61c0.11-0.24,0.22-0.5,0.32-0.78c0.1-0.28,0.17-0.55,0.22-0.8
	c0.05-0.25,0.07-0.46,0.07-0.63c-0.01-0.17-0.07-0.27-0.17-0.3c-0.18-0.04-0.34,0.03-0.5,0.23c-0.16,0.2-0.3,0.45-0.44,0.74
	c-0.14,0.3-0.25,0.61-0.35,0.94c-0.1,0.33-0.18,0.6-0.24,0.82c-0.1,0.38-0.19,0.77-0.29,1.17c-0.1,0.4-0.19,0.8-0.29,1.18
	c-0.1,0.38-0.2,0.73-0.3,1.05c-0.1,0.32-0.2,0.58-0.31,0.8c-0.04,0.09-0.15,0.14-0.32,0.14c-0.17,0.01-0.33-0.01-0.51-0.05
	c-0.17-0.04-0.31-0.11-0.43-0.2c-0.11-0.09-0.14-0.2-0.09-0.32c0.02-0.04,0.03-0.07,0.05-0.07c0.02,0,0.04-0.01,0.07-0.02
	c0.03-0.01,0.06-0.05,0.1-0.12c0.04-0.07,0.1-0.19,0.17-0.36c0.07-0.18,0.15-0.42,0.24-0.72c0.1-0.31,0.21-0.71,0.35-1.22
	c0.14-0.51,0.3-1.13,0.49-1.87c0.19-0.74,0.4-1.61,0.65-2.63c0.01-0.05,0.02-0.11,0.04-0.18c0.02-0.07,0.04-0.13,0.07-0.18
	c0.03-0.06,0.06-0.11,0.09-0.15c0.04-0.04,0.08-0.07,0.15-0.08c0.05-0.01,0.14-0.01,0.28,0.01c0.13,0.01,0.26,0.05,0.37,0.11
	c0.12,0.06,0.21,0.15,0.27,0.27c0.06,0.12,0.05,0.29-0.03,0.5c0.02-0.04,0.06-0.1,0.13-0.18c0.07-0.08,0.16-0.16,0.27-0.24
	s0.23-0.15,0.36-0.2c0.13-0.06,0.27-0.09,0.41-0.09c0.39,0,0.7,0.16,0.93,0.47c0.22,0.31,0.27,0.78,0.14,1.41
	c-0.05,0.23-0.13,0.48-0.22,0.75c-0.1,0.27-0.21,0.53-0.35,0.79c-0.14,0.25-0.28,0.49-0.45,0.72c-0.16,0.22-0.33,0.4-0.49,0.53
	c0.15,0,0.36-0.08,0.63-0.24c0.27-0.16,0.57-0.4,0.89-0.72c0.11-0.11,0.23-0.24,0.34-0.37c0.02-0.3,0.07-0.63,0.16-0.96
	c0.11-0.42,0.27-0.8,0.48-1.14c0.21-0.35,0.47-0.64,0.77-0.87c0.3-0.23,0.65-0.35,1.05-0.35c0.16,0,0.32,0.03,0.48,0.09
	c0.16,0.06,0.3,0.14,0.43,0.26c0.12,0.11,0.23,0.26,0.31,0.44c0.08,0.18,0.13,0.39,0.13,0.64c-0.02,0.47-0.12,0.85-0.3,1.16
	c-0.18,0.31-0.4,0.55-0.66,0.74c-0.26,0.18-0.54,0.31-0.84,0.39c-0.29,0.07-0.56,0.11-0.81,0.11c-0.02,0.11-0.01,0.23,0.02,0.35
	c0.03,0.12,0.08,0.22,0.14,0.32c0.07,0.09,0.15,0.17,0.25,0.22c0.1,0.06,0.22,0.09,0.35,0.09c0.23,0,0.49-0.1,0.78-0.32
	c0.29-0.21,0.58-0.5,0.89-0.86c0.2-0.24,0.39-0.5,0.59-0.79c0.07-0.33,0.17-0.64,0.28-0.94c0.13-0.34,0.27-0.65,0.43-0.93
	c0.16-0.28,0.32-0.48,0.49-0.61c0.14-0.1,0.28-0.18,0.43-0.23c0.15-0.05,0.29-0.07,0.43-0.07c0.21,0,0.4,0.05,0.57,0.14
	c0.17,0.09,0.29,0.24,0.37,0.44c0.03-0.06,0.05-0.1,0.06-0.13c0.01-0.03,0.04-0.08,0.09-0.15c0.06-0.11,0.18-0.17,0.35-0.16
	c0.17,0,0.34,0.04,0.5,0.11c0.16,0.07,0.3,0.16,0.41,0.27c0.11,0.11,0.15,0.22,0.09,0.32c-0.17,0.37-0.32,0.74-0.47,1.1
	c-0.15,0.36-0.27,0.7-0.38,1.02c-0.11,0.32-0.19,0.6-0.24,0.84c-0.05,0.25-0.07,0.43-0.05,0.56c0.02,0.07,0.05,0.11,0.09,0.11
	c0.04,0,0.08-0.01,0.13-0.04c0.05-0.03,0.09-0.07,0.14-0.12c0.04-0.05,0.08-0.09,0.11-0.11c0.17-0.19,0.36-0.45,0.56-0.77
	c0.09-0.14,0.17-0.27,0.25-0.41c0.03-0.27,0.09-0.55,0.17-0.83c0.14-0.46,0.32-0.86,0.57-1.22c0.24-0.36,0.53-0.64,0.86-0.84
	c0.33-0.2,0.7-0.26,1.09-0.18c0.19,0.04,0.36,0.12,0.51,0.24c0.15,0.11,0.27,0.26,0.35,0.43c0.09,0.17,0.14,0.37,0.16,0.59
	c0.02,0.22-0.01,0.46-0.08,0.72c-0.07,0.23-0.19,0.37-0.37,0.41c-0.17,0.05-0.34,0.06-0.49,0.05c-0.33-0.04-0.46-0.15-0.41-0.33
	c0.04-0.11,0.07-0.24,0.11-0.38c0.04-0.14,0.06-0.25,0.07-0.35c0-0.1-0.01-0.17-0.05-0.2c-0.04-0.04-0.13-0.01-0.26,0.08
	c-0.14,0.1-0.28,0.25-0.41,0.47c-0.13,0.22-0.25,0.46-0.35,0.74c-0.1,0.27-0.18,0.55-0.24,0.84c-0.06,0.28-0.09,0.54-0.09,0.76
	c0,0.27,0.04,0.47,0.12,0.6c0.08,0.13,0.18,0.2,0.31,0.22c0.13,0.02,0.27-0.01,0.44-0.08c0.17-0.07,0.34-0.17,0.51-0.3
	c0.25-0.18,0.49-0.42,0.72-0.7c0.24-0.28,0.47-0.59,0.69-0.92c0.14-0.21,0.28-0.43,0.42-0.65l0.04-0.16
	c0.15-0.58,0.31-1.18,0.49-1.79c0.18-0.61,0.37-1.19,0.55-1.73c0.18-0.54,0.36-1.01,0.52-1.42c0.16-0.41,0.3-0.7,0.41-0.86
	c0.07-0.11,0.19-0.17,0.37-0.17c0.14,0,0.29,0.03,0.44,0.08c0.15,0.05,0.29,0.12,0.4,0.2c0.11,0.08,0.19,0.18,0.24,0.3
	c0.04,0.12,0.03,0.23-0.05,0.36c-0.05,0.08-0.15,0.26-0.28,0.55c-0.14,0.29-0.29,0.64-0.47,1.04c-0.18,0.41-0.36,0.85-0.55,1.34
	c-0.19,0.48-0.36,0.96-0.52,1.42c0.08-0.11,0.18-0.25,0.3-0.4c0.12-0.15,0.26-0.3,0.42-0.43c0.16-0.14,0.33-0.25,0.51-0.34
	c0.18-0.09,0.36-0.12,0.55-0.09c0.25,0.03,0.44,0.16,0.59,0.39c0.15,0.23,0.16,0.55,0.03,0.95c-0.05,0.17-0.11,0.36-0.18,0.57
	c-0.07,0.21-0.13,0.4-0.18,0.57c-0.12,0.36-0.23,0.7-0.33,1.03c-0.1,0.33-0.14,0.59-0.14,0.79c0,0.03,0.01,0.06,0.03,0.1
	c0.02,0.04,0.05,0.06,0.09,0.06c0.07,0,0.2-0.09,0.38-0.26c0.18-0.17,0.4-0.42,0.64-0.74c0.24-0.32,0.5-0.72,0.77-1.18
	c0.27-0.46,0.53-0.98,0.79-1.55c0.03-0.04,0.07-0.07,0.12-0.07c0.05,0,0.11,0.01,0.16,0.03c0.05,0.02,0.09,0.05,0.12,0.09
	c0.03,0.04,0.04,0.08,0.02,0.11c-0.04,0.08-0.12,0.24-0.23,0.49c-0.11,0.25-0.24,0.54-0.4,0.86c-0.16,0.32-0.34,0.66-0.55,1.02
	c-0.21,0.36-0.42,0.69-0.64,1c-0.22,0.31-0.46,0.56-0.7,0.78c-0.24,0.21-0.48,0.33-0.72,0.37c-0.23,0.02-0.42,0-0.57-0.05
	c-0.15-0.05-0.27-0.14-0.36-0.25c-0.09-0.11-0.16-0.25-0.2-0.41c-0.04-0.16-0.06-0.33-0.06-0.51c0-0.28,0.04-0.59,0.12-0.93
	c0.08-0.34,0.16-0.67,0.24-1.01c0.05-0.24,0.06-0.4,0.03-0.49c-0.03-0.09-0.09-0.13-0.16-0.1c-0.08,0.02-0.17,0.09-0.27,0.2
	c-0.1,0.11-0.19,0.26-0.27,0.43c-0.08,0.18-0.16,0.37-0.25,0.59c-0.09,0.22-0.17,0.45-0.26,0.68c-0.08,0.23-0.16,0.46-0.22,0.68
	c-0.06,0.22-0.12,0.41-0.15,0.58c-0.04,0.17-0.11,0.32-0.22,0.45c-0.11,0.13-0.27,0.18-0.47,0.14c-0.07-0.01-0.13-0.04-0.19-0.09
	c-0.06-0.05-0.1-0.11-0.14-0.18c-0.03-0.07-0.06-0.14-0.08-0.22C140.72,79.18,140.71,79.11,140.71,79.04L140.71,79.04z
	 M160.54,75.11c-0.08,0.15-0.18,0.36-0.3,0.62c-0.12,0.27-0.23,0.56-0.35,0.87c-0.11,0.32-0.22,0.63-0.32,0.95
	c-0.1,0.31-0.16,0.6-0.18,0.84c-0.03,0.23,0,0.36,0.1,0.41c0.1,0.04,0.23-0.07,0.38-0.33c0.11-0.19,0.23-0.44,0.36-0.75
	c0.13-0.31,0.25-0.63,0.38-0.95c0.13-0.33,0.25-0.65,0.37-0.97c0.12-0.32,0.22-0.58,0.3-0.8c0.04-0.13,0.08-0.25,0.12-0.34
	c0.03-0.1,0.07-0.16,0.09-0.2c0.1-0.15,0.25-0.22,0.45-0.22c0.13,0,0.26,0.02,0.4,0.05c0.14,0.03,0.25,0.08,0.35,0.14
	c0.1,0.06,0.16,0.14,0.2,0.24c0.04,0.1,0.02,0.21-0.05,0.35c-0.08,0.14-0.17,0.33-0.28,0.57c-0.11,0.24-0.22,0.51-0.34,0.79
	c-0.11,0.28-0.21,0.57-0.3,0.87c-0.09,0.29-0.15,0.57-0.18,0.82c0,0.03,0,0.08-0.01,0.15c-0.01,0.08-0.01,0.15-0.01,0.23
	c0,0.08,0.01,0.15,0.03,0.21c0.02,0.06,0.06,0.1,0.11,0.11c0.09,0,0.21-0.07,0.37-0.2c0.16-0.13,0.34-0.35,0.55-0.64
	c0.03-0.05,0.07-0.1,0.1-0.15c0-0.36,0.06-0.75,0.16-1.15c0.11-0.42,0.27-0.8,0.48-1.14c0.21-0.35,0.47-0.64,0.77-0.87
	c0.3-0.23,0.65-0.35,1.04-0.35c0.16,0,0.32,0.03,0.48,0.09c0.16,0.06,0.3,0.14,0.43,0.26c0.12,0.11,0.23,0.26,0.31,0.44
	c0.08,0.18,0.13,0.39,0.13,0.64c-0.02,0.47-0.12,0.85-0.3,1.16c-0.18,0.31-0.4,0.55-0.66,0.74c-0.26,0.18-0.54,0.31-0.84,0.39
	c-0.29,0.07-0.56,0.11-0.81,0.11c-0.02,0.11-0.01,0.23,0.02,0.35c0.03,0.12,0.08,0.22,0.14,0.32c0.07,0.09,0.15,0.17,0.25,0.22
	c0.1,0.06,0.22,0.09,0.35,0.09c0.23,0,0.49-0.1,0.78-0.32c0.29-0.21,0.58-0.5,0.89-0.86c0.14-0.17,0.29-0.36,0.43-0.56l0,0
	c0.07-0.39,0.16-0.77,0.27-1.14c0.11-0.37,0.23-0.71,0.35-1.02c0.12-0.31,0.23-0.53,0.33-0.68c0.12-0.15,0.28-0.22,0.47-0.22
	c0.13,0,0.26,0.02,0.4,0.06c0.13,0.04,0.24,0.09,0.33,0.16c0.09,0.07,0.15,0.16,0.18,0.27c0.03,0.11,0,0.23-0.08,0.37
	c-0.08,0.15-0.18,0.36-0.3,0.62c-0.12,0.27-0.23,0.56-0.35,0.87c-0.11,0.32-0.22,0.63-0.32,0.95c-0.1,0.31-0.16,0.6-0.18,0.84
	c-0.04,0.23,0,0.36,0.1,0.41c0.1,0.04,0.23-0.07,0.38-0.33c0.11-0.19,0.23-0.44,0.36-0.75c0.13-0.31,0.25-0.63,0.38-0.95
	c0.13-0.33,0.25-0.65,0.37-0.97c0.12-0.32,0.22-0.58,0.3-0.8c0.04-0.13,0.08-0.25,0.12-0.34c0.04-0.1,0.07-0.16,0.09-0.2
	c0.1-0.15,0.25-0.22,0.45-0.22c0.13,0,0.27,0.02,0.4,0.05c0.14,0.03,0.25,0.08,0.35,0.14c0.1,0.06,0.16,0.14,0.2,0.24
	c0.03,0.1,0.02,0.21-0.05,0.35c-0.08,0.14-0.17,0.33-0.28,0.57c-0.11,0.24-0.22,0.51-0.33,0.79c-0.11,0.28-0.21,0.57-0.3,0.87
	c-0.09,0.29-0.15,0.57-0.18,0.82c0,0.03,0,0.08-0.01,0.15c-0.01,0.08-0.01,0.15-0.01,0.23c0,0.08,0.01,0.15,0.03,0.21
	c0.02,0.06,0.06,0.1,0.11,0.11c0.09,0,0.21-0.07,0.37-0.2c0.16-0.13,0.34-0.35,0.55-0.64c0.21-0.3,0.44-0.68,0.68-1.16
	c0.22-0.42,0.44-0.93,0.68-1.52l-0.02-0.02c-0.14-0.09-0.25-0.21-0.34-0.35c-0.09-0.14-0.14-0.32-0.14-0.52
	c-0.02-0.3,0.06-0.56,0.23-0.78c0.17-0.22,0.4-0.33,0.69-0.32c0.16,0,0.28,0.04,0.37,0.12c0.09,0.08,0.16,0.18,0.2,0.3
	c0.04,0.12,0.05,0.26,0.03,0.4c-0.02,0.15-0.06,0.29-0.12,0.43c0.02,0.12,0.09,0.21,0.23,0.25c0.14,0.04,0.27,0.02,0.39-0.07
	c0.12-0.07,0.25-0.11,0.37-0.11c0.13,0,0.26,0.03,0.4,0.09c0.14,0.06,0.25,0.14,0.33,0.24c0.08,0.1,0.14,0.21,0.16,0.33
	c0.02,0.12-0.01,0.25-0.1,0.38c-0.1,0.13-0.21,0.31-0.34,0.53c-0.13,0.22-0.26,0.47-0.38,0.73c-0.12,0.26-0.23,0.53-0.31,0.8
	c-0.09,0.27-0.14,0.52-0.15,0.74c0,0.15,0.02,0.26,0.05,0.33c0.03,0.07,0.14,0.04,0.32-0.08c0.2-0.15,0.43-0.38,0.69-0.7
	c0.26-0.32,0.51-0.66,0.77-1.03c0.25-0.36,0.49-0.71,0.7-1.05c0.21-0.34,0.38-0.6,0.49-0.78c0.03-0.04,0.07-0.06,0.12-0.06
	c0.05,0,0.1,0.02,0.15,0.05c0.05,0.03,0.09,0.07,0.12,0.12c0.03,0.05,0.03,0.09,0.01,0.13c-0.06,0.07-0.16,0.22-0.3,0.47
	c-0.14,0.24-0.31,0.53-0.5,0.86c-0.19,0.33-0.4,0.68-0.64,1.04c-0.23,0.36-0.47,0.7-0.71,1.01c-0.24,0.31-0.48,0.56-0.72,0.76
	c-0.24,0.2-0.47,0.3-0.68,0.3c-0.18,0-0.33-0.05-0.47-0.15c-0.14-0.1-0.26-0.22-0.35-0.37c-0.09-0.15-0.16-0.33-0.21-0.53
	c-0.05-0.2-0.07-0.41-0.07-0.63c0-0.21,0.02-0.43,0.06-0.66c0.04-0.23,0.09-0.46,0.16-0.69c0.07-0.23,0.14-0.45,0.23-0.66
	c0.09-0.21,0.18-0.4,0.26-0.58c-0.17-0.01-0.35-0.03-0.53-0.08l-0.03-0.01l-0.1,0.26c-0.1,0.25-0.22,0.55-0.37,0.88
	c-0.15,0.33-0.31,0.68-0.49,1.05c-0.18,0.37-0.38,0.71-0.58,1.02c-0.2,0.31-0.41,0.57-0.62,0.79c-0.21,0.21-0.42,0.33-0.62,0.35
	c-0.35,0.04-0.62-0.06-0.82-0.29c-0.19-0.23-0.29-0.53-0.3-0.91c-0.08,0.15-0.17,0.29-0.26,0.43c-0.1,0.14-0.2,0.26-0.32,0.38
	c-0.11,0.11-0.23,0.2-0.36,0.27c-0.13,0.07-0.25,0.1-0.38,0.1c-0.1,0-0.22-0.02-0.34-0.05c-0.12-0.03-0.24-0.1-0.35-0.2
	c-0.11-0.1-0.21-0.24-0.29-0.42c-0.08-0.18-0.12-0.43-0.13-0.74c0-0.07,0-0.14,0-0.21c-0.2,0.25-0.4,0.48-0.61,0.69
	c-0.28,0.28-0.56,0.5-0.85,0.68c-0.29,0.18-0.59,0.27-0.89,0.28c-0.24,0-0.45-0.05-0.64-0.15c-0.19-0.1-0.36-0.24-0.51-0.42
	c-0.14-0.17-0.25-0.37-0.32-0.6l-0.01,0.02c-0.2,0.31-0.41,0.57-0.62,0.79c-0.21,0.21-0.42,0.33-0.62,0.35
	c-0.35,0.04-0.62-0.06-0.81-0.29c-0.19-0.23-0.29-0.53-0.3-0.91c-0.08,0.15-0.17,0.29-0.26,0.43c-0.1,0.14-0.2,0.26-0.31,0.38
	c-0.11,0.11-0.23,0.2-0.36,0.27c-0.13,0.07-0.25,0.1-0.38,0.1c-0.1,0-0.22-0.02-0.34-0.05c-0.12-0.03-0.24-0.1-0.35-0.2
	c-0.11-0.1-0.21-0.24-0.29-0.42c-0.08-0.18-0.12-0.43-0.13-0.74c0-0.05,0-0.1,0-0.15c-0.06,0.07-0.12,0.15-0.18,0.22
	c-0.18,0.21-0.35,0.38-0.51,0.51c0.04,0.22,0.06,0.43,0.07,0.62c0.01,0.2,0.01,0.38,0.01,0.56c0,0.82-0.1,1.47-0.31,1.95
	c-0.21,0.49-0.52,0.74-0.94,0.74c-0.26,0.01-0.48-0.07-0.64-0.24c-0.17-0.17-0.29-0.4-0.38-0.7c-0.08-0.3-0.13-0.65-0.13-1.05
	c0-0.4,0.04-0.84,0.11-1.3c-0.08,0.06-0.17,0.12-0.28,0.16c-0.1,0.05-0.22,0.08-0.35,0.09c-0.43,0-0.76-0.15-0.99-0.45
	c-0.13-0.17-0.23-0.38-0.28-0.61l-0.03,0.04c-0.22,0.3-0.46,0.55-0.72,0.74c-0.25,0.2-0.51,0.29-0.78,0.29
	c-0.22,0-0.4-0.03-0.55-0.1c-0.15-0.07-0.27-0.17-0.36-0.29c-0.09-0.12-0.16-0.27-0.2-0.44c-0.02-0.07-0.03-0.15-0.04-0.23
	c-0.2,0.31-0.41,0.56-0.62,0.76c-0.22,0.21-0.44,0.31-0.67,0.31c-0.16,0-0.31-0.02-0.45-0.07c-0.15-0.04-0.27-0.12-0.38-0.22
	c-0.11-0.1-0.2-0.24-0.27-0.41c-0.07-0.17-0.11-0.38-0.12-0.64c-0.01-0.34,0.03-0.76,0.11-1.25c0.08-0.49,0.18-1.01,0.32-1.56
	c0.13-0.55,0.28-1.1,0.45-1.66c0.17-0.56,0.33-1.07,0.5-1.55c0.17-0.47,0.32-0.88,0.46-1.23c0.14-0.35,0.25-0.59,0.34-0.72
	c0.07-0.11,0.19-0.17,0.37-0.17c0.14,0,0.29,0.03,0.44,0.08c0.15,0.05,0.29,0.12,0.4,0.2c0.11,0.08,0.19,0.18,0.24,0.3
	c0.04,0.12,0.03,0.23-0.05,0.36c-0.07,0.1-0.18,0.32-0.34,0.68c-0.15,0.36-0.33,0.78-0.52,1.28c-0.19,0.5-0.39,1.03-0.59,1.59
	c-0.2,0.57-0.38,1.11-0.53,1.63c-0.15,0.52-0.27,0.99-0.35,1.4c-0.08,0.41-0.09,0.71-0.04,0.88c0.02,0.05,0.05,0.08,0.1,0.09
	c0.05,0.01,0.09,0,0.14-0.03c0.14-0.09,0.31-0.25,0.5-0.49c0.19-0.24,0.39-0.52,0.6-0.86l0.08-0.13c0.06-0.32,0.13-0.63,0.22-0.94
	c0.1-0.35,0.2-0.67,0.31-0.98c0.11-0.31,0.22-0.55,0.32-0.74c0.08-0.15,0.22-0.23,0.42-0.26c0.2-0.02,0.39,0.01,0.58,0.09
	c0.18,0.08,0.33,0.19,0.43,0.35c0.1,0.15,0.1,0.33,0,0.52c-0.08,0.16-0.18,0.35-0.3,0.58c-0.12,0.23-0.23,0.48-0.35,0.75
	c-0.11,0.27-0.21,0.54-0.3,0.82c-0.08,0.28-0.14,0.54-0.16,0.78c0,0.04,0,0.09,0,0.15c0,0.06,0.01,0.11,0.02,0.17
	c0.01,0.06,0.03,0.11,0.06,0.15c0.03,0.04,0.07,0.07,0.12,0.08c0.1,0,0.23-0.06,0.38-0.19c0.15-0.13,0.3-0.3,0.47-0.51
	c0.11-0.15,0.22-0.31,0.34-0.49c0.02-0.14,0.05-0.3,0.09-0.45c0.09-0.37,0.21-0.73,0.36-1.09c0.15-0.35,0.31-0.67,0.49-0.96
	c0.18-0.28,0.35-0.49,0.53-0.61c0.14-0.1,0.28-0.17,0.43-0.21c0.15-0.04,0.3-0.07,0.45-0.07c0.21,0,0.4,0.04,0.57,0.12
	c0.17,0.08,0.3,0.22,0.38,0.41c0.03-0.07,0.05-0.15,0.07-0.23c0.02-0.08,0.07-0.14,0.14-0.16c0.09-0.04,0.21-0.03,0.38,0.01
	c0.17,0.04,0.32,0.12,0.46,0.23c0.14,0.1,0.24,0.24,0.31,0.4c0.07,0.16,0.05,0.35-0.06,0.56c-0.29,0.57-0.51,1.07-0.66,1.5
	c-0.15,0.43-0.26,0.78-0.32,1.04c0.19-0.06,0.38-0.17,0.57-0.32c0.19-0.15,0.38-0.35,0.59-0.59c0.06-0.08,0.13-0.16,0.2-0.25
	c0.06-0.27,0.12-0.53,0.2-0.79c0.11-0.37,0.23-0.71,0.35-1.02c0.12-0.31,0.23-0.53,0.33-0.68c0.12-0.15,0.28-0.22,0.47-0.22
	c0.13,0,0.26,0.02,0.39,0.06c0.13,0.04,0.24,0.09,0.33,0.16s0.15,0.16,0.18,0.27C160.65,74.84,160.62,74.97,160.54,75.11
	L160.54,75.11z M165.23,75.48c-0.08,0.04-0.17,0.13-0.28,0.26c-0.11,0.13-0.21,0.29-0.32,0.48c-0.1,0.19-0.2,0.4-0.29,0.62
	c-0.09,0.22-0.15,0.45-0.2,0.68c0.15-0.02,0.3-0.08,0.45-0.18c0.15-0.1,0.29-0.23,0.42-0.39c0.13-0.15,0.23-0.33,0.32-0.53
	c0.09-0.2,0.14-0.4,0.16-0.6c0.01-0.1,0-0.18-0.02-0.23c-0.02-0.05-0.05-0.08-0.08-0.1c-0.03-0.02-0.06-0.03-0.09-0.03
	C165.28,75.46,165.25,75.47,165.23,75.48L165.23,75.48z M153.43,73.75c-0.08,0.07-0.18,0.1-0.31,0.1c-0.13,0-0.25-0.04-0.37-0.1
	c-0.12-0.07-0.21-0.16-0.28-0.28c-0.07-0.12-0.08-0.27-0.04-0.43c0.03-0.09,0.05-0.19,0.09-0.31c0.03-0.12,0.07-0.24,0.1-0.35
	c0.04-0.12,0.08-0.23,0.13-0.34c0.04-0.1,0.09-0.19,0.13-0.25c0.05-0.05,0.11-0.09,0.16-0.12c0.05-0.03,0.12-0.04,0.2-0.05
	c0.13-0.01,0.27,0.01,0.42,0.07c0.15,0.05,0.28,0.12,0.4,0.22c0.12,0.09,0.21,0.2,0.26,0.32c0.06,0.12,0.06,0.23,0.01,0.34
	L153.43,73.75L153.43,73.75z M156.26,75.34c-0.04-0.12-0.08-0.18-0.14-0.18c-0.1,0-0.21,0.07-0.33,0.22
	c-0.12,0.15-0.25,0.34-0.37,0.56c-0.12,0.23-0.24,0.48-0.36,0.76c-0.12,0.28-0.22,0.56-0.31,0.83c-0.09,0.27-0.15,0.52-0.2,0.74
	c-0.04,0.22-0.05,0.39-0.03,0.5c0.04,0.2,0.1,0.3,0.2,0.3c0.1,0,0.23-0.08,0.37-0.24c0.14-0.16,0.28-0.36,0.42-0.59
	c0.05-0.1,0.12-0.26,0.22-0.49c0.09-0.23,0.18-0.48,0.26-0.75c0.08-0.27,0.16-0.53,0.22-0.79c0.06-0.26,0.09-0.46,0.09-0.61
	C156.3,75.51,156.28,75.42,156.26,75.34L156.26,75.34z M156.47,81.93c0.1,0,0.18-0.1,0.25-0.3c0.07-0.2,0.12-0.44,0.14-0.73
	c0.03-0.29,0.03-0.59,0.02-0.91c-0.01-0.32-0.06-0.6-0.14-0.84c-0.1,0.39-0.18,0.77-0.24,1.15c-0.05,0.38-0.09,0.69-0.1,0.91
	c-0.01,0.18-0.01,0.34,0.01,0.49C156.42,81.86,156.44,81.93,156.47,81.93L156.47,81.93z M130.31,75.48
	c-0.08,0.04-0.17,0.13-0.28,0.26c-0.11,0.13-0.21,0.29-0.32,0.48c-0.1,0.19-0.2,0.4-0.29,0.62s-0.15,0.45-0.2,0.68
	c0.15-0.02,0.3-0.08,0.46-0.18c0.15-0.1,0.29-0.23,0.42-0.39c0.13-0.15,0.23-0.33,0.32-0.53c0.09-0.2,0.14-0.4,0.16-0.6
	c0.01-0.1,0-0.18-0.02-0.23c-0.02-0.05-0.05-0.08-0.08-0.1c-0.03-0.02-0.06-0.03-0.09-0.03C130.36,75.46,130.33,75.47,130.31,75.48
	L130.31,75.48z M134.77,75.8c0-0.03,0-0.07-0.01-0.12c0-0.06-0.01-0.11-0.03-0.16c-0.01-0.05-0.03-0.1-0.05-0.14
	c-0.02-0.04-0.05-0.07-0.09-0.07c-0.1,0-0.22,0.08-0.35,0.24c-0.13,0.16-0.25,0.37-0.37,0.61c-0.12,0.25-0.23,0.52-0.33,0.82
	c-0.11,0.3-0.19,0.58-0.25,0.84c-0.02,0.08-0.04,0.19-0.07,0.33c-0.03,0.14-0.04,0.28-0.05,0.41c0,0.14,0.01,0.25,0.03,0.35
	c0.03,0.1,0.08,0.15,0.17,0.15c0.11,0,0.23-0.06,0.34-0.19c0.11-0.13,0.22-0.29,0.32-0.49c0.1-0.2,0.2-0.43,0.28-0.67
	c0.09-0.25,0.16-0.49,0.23-0.73c0.07-0.24,0.12-0.47,0.15-0.68C134.75,76.09,134.77,75.93,134.77,75.8L134.77,75.8z"/>
</svg>
