<?xml version="1.0" encoding="utf-8"?>
<!-- Generator: Adobe Illustrator 23.0.1, SVG Export Plug-In . SVG Version: 6.00 Build 0)  -->
<svg version="1.1" id="Tequila_Sunrise" xmlns="http://www.w3.org/2000/svg" xmlns:xlink="http://www.w3.org/1999/xlink" x="0px"
	 y="0px" viewBox="0 0 300 300" style="enable-background:new 0 0 300 300;" xml:space="preserve">
<style type="text/css">
	.st0{fill:#4E4236;}
	.st1{fill-rule:evenodd;clip-rule:evenodd;fill:#F3EBB8;}
	.st2{fill-rule:evenodd;clip-rule:evenodd;fill:#B93C29;}
	.st3{fill-rule:evenodd;clip-rule:evenodd;fill:#F6B855;}
	.st4{fill-rule:evenodd;clip-rule:evenodd;fill:#D6CF9C;}
	.st5{fill-rule:evenodd;clip-rule:evenodd;fill:#9A2120;}
	.st6{fill-rule:evenodd;clip-rule:evenodd;fill:#D99B36;}
	.st7{fill:#FFFFFF;}
	.st8{fill-rule:evenodd;clip-rule:evenodd;fill:#FFFFFF;}
	.st9{fill-rule:evenodd;clip-rule:evenodd;fill:#4E4236;}
</style>
<path class="st0" d="M156.37,19.76c-0.16,0.11-0.31,0.22-0.46,0.32c-0.15,0.1-0.28,0.22-0.39,0.36c-0.34,0.32-0.57,0.7-0.68,1.14
	c-0.11,0.44-0.11,0.86,0,1.24c0.11,0.39,0.34,0.7,0.68,0.93c0.34,0.24,0.82,0.31,1.43,0.22c1.2-0.18,2.05-0.68,2.56-1.51
	c0.51-0.83,0.61-1.82,0.29-2.97c-0.25-0.79-0.63-1.53-1.14-2.21c-0.51-0.68-1.06-1.3-1.65-1.87c-0.45-0.43-0.92-0.87-1.39-1.31
	c-0.48-0.44-0.91-0.93-1.31-1.46c-0.4-0.53-0.73-1.13-1-1.78c-0.27-0.66-0.41-1.41-0.41-2.28c0-1.11,0.21-2.13,0.63-3.05
	c0.42-0.93,0.99-1.73,1.72-2.41c0.72-0.68,1.57-1.21,2.55-1.58c0.97-0.37,2.01-0.56,3.12-0.56c1.11,0,2.14,0.2,3.09,0.61
	c0.95,0.41,1.73,0.97,2.34,1.68c0.61,0.71,1.01,1.55,1.19,2.51c0.18,0.96,0.04,2.01-0.41,3.14c-0.27,0.66-0.71,1.09-1.32,1.29
	c-0.61,0.2-1.23,0.27-1.87,0.2c-0.63-0.07-1.2-0.24-1.7-0.51c-0.5-0.27-0.76-0.57-0.78-0.88c-0.02-0.2,0.02-0.37,0.12-0.49
	c0.1-0.12,0.23-0.28,0.39-0.46c0.34-0.38,0.57-0.83,0.68-1.34c0.11-0.51,0.11-0.99-0.02-1.44c-0.13-0.45-0.37-0.83-0.75-1.12
	c-0.37-0.29-0.87-0.42-1.48-0.37c-0.36,0.04-0.72,0.16-1.07,0.34c-0.35,0.18-0.67,0.42-0.95,0.73c-0.28,0.31-0.51,0.67-0.68,1.1
	c-0.17,0.43-0.26,0.89-0.26,1.39c0,0.48,0.09,0.94,0.26,1.39c0.17,0.45,0.4,0.89,0.69,1.32c0.3,0.43,0.62,0.85,0.97,1.26
	c0.35,0.41,0.72,0.8,1.1,1.19c0.41,0.43,0.81,0.9,1.2,1.41c0.4,0.51,0.76,1.05,1.09,1.61c0.33,0.57,0.59,1.15,0.8,1.75
	c0.2,0.6,0.31,1.21,0.31,1.82c0,0.43-0.05,0.88-0.15,1.36c-0.1,0.48-0.28,0.97-0.53,1.49c-0.32,0.66-0.71,1.23-1.19,1.71
	c-0.48,0.49-1,0.89-1.58,1.21c-0.58,0.32-1.18,0.56-1.82,0.73c-0.63,0.17-1.26,0.25-1.87,0.25c-0.72,0-1.42-0.1-2.09-0.31
	c-0.67-0.2-1.26-0.5-1.78-0.88c-0.52-0.38-0.95-0.85-1.29-1.41s-0.54-1.18-0.61-1.88c-0.04-0.52-0.01-1.15,0.12-1.9
	c0.12-0.75,0.46-1.41,1-2c0.38-0.36,0.78-0.57,1.17-0.61c0.4-0.05,0.78,0,1.15,0.14c0.37,0.13,0.72,0.34,1.04,0.61
	c0.32,0.27,0.57,0.55,0.76,0.83c0.19,0.28,0.3,0.55,0.34,0.8C156.59,19.5,156.53,19.67,156.37,19.76L156.37,19.76z M171.78,13.34
	c-0.2,0.38-0.46,0.92-0.76,1.61c-0.31,0.69-0.61,1.44-0.9,2.26c-0.29,0.81-0.57,1.63-0.81,2.44c-0.25,0.81-0.41,1.54-0.48,2.17
	c-0.09,0.59,0,0.94,0.26,1.05c0.26,0.11,0.58-0.17,0.97-0.85c0.29-0.5,0.61-1.14,0.93-1.94c0.33-0.79,0.66-1.61,0.98-2.46
	c0.33-0.85,0.65-1.68,0.95-2.5c0.31-0.81,0.56-1.5,0.76-2.07c0.11-0.34,0.22-0.63,0.31-0.88c0.09-0.25,0.17-0.42,0.24-0.51
	c0.25-0.39,0.63-0.58,1.16-0.58c0.34,0,0.68,0.04,1.04,0.12c0.35,0.08,0.65,0.2,0.9,0.36c0.25,0.16,0.42,0.36,0.51,0.61
	c0.09,0.25,0.04,0.55-0.13,0.92c-0.2,0.36-0.45,0.85-0.73,1.48c-0.28,0.62-0.57,1.3-0.87,2.04c-0.3,0.74-0.55,1.48-0.78,2.24
	c-0.23,0.76-0.39,1.47-0.48,2.12c0,0.07-0.01,0.2-0.03,0.39c-0.02,0.19-0.03,0.39-0.03,0.59c0,0.2,0.03,0.38,0.08,0.54
	c0.06,0.16,0.15,0.25,0.29,0.27c0.23,0,0.54-0.17,0.95-0.51c0.41-0.34,0.88-0.89,1.43-1.66c0.29-0.41,0.59-0.88,0.9-1.42
	c0.08-0.34,0.16-0.68,0.25-1.03c0.27-1.06,0.58-2.15,0.92-3.28c0.34-1.12,0.68-2.18,1.02-3.17c0.09-0.25,0.35-0.41,0.78-0.48
	c0.43-0.07,0.87-0.06,1.31,0.03c0.44,0.09,0.81,0.25,1.12,0.48c0.31,0.23,0.38,0.51,0.22,0.85c-0.18,0.48-0.39,0.95-0.61,1.43
	c-0.23,0.47-0.42,0.93-0.58,1.36c0.16-0.25,0.37-0.54,0.63-0.87c0.26-0.33,0.54-0.66,0.85-1c0.31-0.34,0.62-0.67,0.95-0.98
	c0.33-0.32,0.66-0.59,1-0.82c0.43-0.27,0.86-0.39,1.29-0.34c0.43,0.05,0.8,0.21,1.1,0.49c0.3,0.28,0.53,0.68,0.66,1.19
	c0.14,0.51,0.12,1.1-0.03,1.78c-0.09,0.41-0.25,0.96-0.48,1.65c-0.23,0.69-0.45,1.41-0.68,2.16c-0.23,0.75-0.43,1.47-0.61,2.17
	c-0.18,0.7-0.27,1.26-0.27,1.66c0,0.07,0.02,0.15,0.05,0.26c0.03,0.1,0.11,0.15,0.22,0.15c0.18,0,0.49-0.2,0.93-0.61
	c0.44-0.41,0.96-1.02,1.54-1.83c0.59-0.82,1.22-1.82,1.9-3.02c0.59-1.04,1.18-2.22,1.77-3.54c-0.13-0.06-0.25-0.14-0.36-0.21
	c-0.35-0.24-0.64-0.54-0.87-0.92c-0.23-0.37-0.35-0.82-0.37-1.34c-0.04-0.77,0.15-1.44,0.59-2.02c0.44-0.58,1.04-0.85,1.78-0.83
	c0.41,0,0.73,0.1,0.97,0.31c0.24,0.2,0.41,0.46,0.51,0.78c0.1,0.32,0.13,0.66,0.09,1.04c-0.05,0.37-0.15,0.74-0.31,1.1
	c0.05,0.32,0.24,0.53,0.6,0.65c0.35,0.11,0.68,0.06,1-0.17c0.32-0.18,0.63-0.27,0.95-0.27c0.34,0,0.68,0.08,1.04,0.24
	c0.35,0.16,0.63,0.36,0.85,0.61c0.22,0.25,0.35,0.53,0.41,0.85c0.06,0.32-0.03,0.64-0.26,0.98c-0.25,0.34-0.54,0.8-0.88,1.37
	c-0.34,0.58-0.67,1.21-0.98,1.88c-0.32,0.68-0.59,1.37-0.82,2.07c-0.23,0.7-0.35,1.34-0.37,1.9c0,0.38,0.04,0.67,0.14,0.85
	c0.09,0.18,0.36,0.11,0.82-0.2c0.52-0.39,1.11-0.99,1.78-1.82c0.67-0.83,1.33-1.71,1.99-2.65c0.21-0.31,0.42-0.61,0.62-0.91
	c0.05-0.2,0.1-0.39,0.16-0.59c0.25-0.89,0.52-1.74,0.8-2.53c0.28-0.79,0.56-1.43,0.83-1.9c0.2-0.38,0.57-0.6,1.09-0.66
	c0.52-0.06,1.02,0.02,1.49,0.22c0.47,0.2,0.85,0.5,1.12,0.9c0.27,0.4,0.27,0.84,0,1.34c-0.2,0.41-0.46,0.91-0.76,1.51
	c-0.31,0.6-0.61,1.24-0.9,1.94c-0.29,0.69-0.55,1.4-0.76,2.12c-0.22,0.72-0.36,1.39-0.42,2c0,0.11,0,0.24,0,0.39
	c0,0.15,0.02,0.29,0.05,0.44c0.03,0.15,0.08,0.28,0.15,0.39c0.07,0.11,0.17,0.18,0.31,0.2c0.27,0,0.6-0.16,0.98-0.49
	c0.39-0.33,0.79-0.77,1.21-1.32c0.42-0.55,0.85-1.19,1.29-1.9c0.44-0.71,0.85-1.43,1.22-2.16c0.24-0.46,0.46-0.91,0.67-1.35
	c-0.07-0.7-0.02-1.31,0.16-1.86c0.29-0.89,0.76-1.58,1.39-2.07c0.63-0.49,1.36-0.78,2.17-0.87c0.81-0.09,1.55,0.01,2.21,0.31
	c0.48,0.2,0.85,0.5,1.14,0.9c0.28,0.4,0.47,0.83,0.58,1.29c0.1,0.46,0.11,0.93,0.03,1.41c-0.08,0.48-0.23,0.89-0.46,1.26
	c-0.14,0.23-0.33,0.37-0.58,0.44c-0.25,0.07-0.51,0.1-0.8,0.09c-0.28-0.01-0.55-0.06-0.82-0.15c-0.26-0.09-0.46-0.18-0.59-0.27
	c-0.16-0.11-0.24-0.25-0.24-0.42c0-0.17,0.04-0.33,0.13-0.49c0.25-0.41,0.26-0.73,0.03-0.95c-0.18-0.18-0.42-0.21-0.71-0.08
	c-0.29,0.12-0.46,0.41-0.51,0.87c0,0.54,0.1,1.12,0.31,1.73c0.2,0.61,0.44,1.23,0.71,1.85c0.27,0.62,0.53,1.22,0.78,1.8
	c0.25,0.58,0.41,1.1,0.48,1.58v0.48c0.83-0.67,1.7-1.6,2.63-2.79c0.04-0.8,0.18-1.64,0.41-2.52c0.28-1.07,0.7-2.06,1.24-2.95
	c0.54-0.89,1.21-1.64,1.99-2.24c0.78-0.6,1.68-0.9,2.7-0.9c0.41,0,0.82,0.07,1.24,0.22c0.42,0.15,0.79,0.37,1.1,0.66
	c0.32,0.29,0.58,0.67,0.8,1.14c0.21,0.46,0.32,1.01,0.32,1.65c-0.05,1.2-0.3,2.2-0.76,2.99c-0.46,0.79-1.04,1.43-1.71,1.9
	c-0.68,0.47-1.4,0.81-2.16,1c-0.76,0.19-1.45,0.29-2.09,0.29c-0.04,0.29-0.03,0.59,0.05,0.9c0.08,0.31,0.2,0.58,0.37,0.82
	c0.17,0.24,0.38,0.43,0.64,0.58c0.26,0.15,0.56,0.22,0.9,0.22c0.59,0,1.26-0.27,2-0.81c0.75-0.54,1.51-1.28,2.29-2.22
	c0.78-0.94,1.56-2.04,2.33-3.29c0.77-1.26,1.47-2.6,2.11-4.02c0.04-0.11,0.13-0.17,0.27-0.19c0.14-0.01,0.27,0.01,0.41,0.07
	c0.14,0.06,0.24,0.13,0.32,0.24c0.08,0.1,0.1,0.2,0.05,0.29c-0.25,0.52-0.58,1.17-1,1.95c-0.42,0.78-0.89,1.61-1.43,2.48
	c-0.53,0.87-1.12,1.74-1.75,2.61c-0.63,0.87-1.31,1.66-2.02,2.38c-0.71,0.71-1.45,1.3-2.21,1.75c-0.76,0.45-1.52,0.69-2.29,0.71
	c-0.61,0-1.17-0.13-1.66-0.39c-0.5-0.26-0.93-0.62-1.31-1.09c-0.37-0.46-0.66-1.01-0.87-1.63c-0.07-0.22-0.13-0.44-0.18-0.68
	c-0.45,0.53-0.92,1.03-1.44,1.53c-1.07,1.03-2.34,1.78-3.78,2.26c-0.48,0.2-1.02,0.34-1.63,0.41c-0.57,0.05-1.05,0.03-1.44-0.03
	c-0.4-0.07-0.72-0.18-0.98-0.34c-0.26-0.16-0.45-0.35-0.58-0.58c-0.12-0.23-0.19-0.46-0.19-0.71c-0.02-0.36,0.07-0.67,0.27-0.93
	c0.2-0.26,0.44-0.44,0.7-0.52c0.26-0.09,0.51-0.08,0.75,0.03c0.24,0.11,0.39,0.37,0.46,0.78c0.05,0.25,0.19,0.37,0.44,0.37
	c0.36,0,0.61-0.14,0.75-0.43c0.13-0.28,0.19-0.65,0.17-1.09c-0.02-0.44-0.1-0.92-0.22-1.44c-0.12-0.52-0.27-1.03-0.43-1.53
	c-0.16-0.5-0.31-0.95-0.44-1.36l-0.11-0.32c-0.36,0.77-0.75,1.56-1.18,2.39c-0.5,0.95-1.04,1.82-1.61,2.59
	c-0.58,0.78-1.19,1.41-1.85,1.92c-0.66,0.5-1.32,0.75-2,0.75c-0.57,0-1.04-0.09-1.43-0.27c-0.38-0.18-0.7-0.43-0.93-0.76
	c-0.24-0.32-0.41-0.7-0.51-1.14c-0.1-0.44-0.15-0.92-0.15-1.44c0-0.36,0.02-0.73,0.05-1.13c-0.47,0.7-0.95,1.36-1.43,1.98
	c-0.62,0.79-1.25,1.45-1.87,1.97c-0.62,0.52-1.21,0.78-1.75,0.78c-0.45,0-0.86-0.12-1.22-0.37c-0.36-0.25-0.66-0.57-0.9-0.97
	c-0.24-0.39-0.42-0.85-0.54-1.36c-0.12-0.51-0.19-1.05-0.19-1.61c0-0.54,0.05-1.11,0.15-1.72c0.1-0.6,0.24-1.19,0.41-1.78
	c0.17-0.59,0.37-1.15,0.59-1.7c0.23-0.54,0.45-1.04,0.68-1.49c-0.37-0.02-0.73-0.07-1.1-0.14c-0.09,0.21-0.2,0.46-0.33,0.76
	c-0.27,0.63-0.61,1.37-1.02,2.21c-0.41,0.84-0.87,1.71-1.37,2.63c-0.51,0.92-1.05,1.77-1.61,2.56c-0.57,0.79-1.14,1.46-1.73,2
	c-0.59,0.54-1.18,0.86-1.76,0.95c-0.54,0.05-1,0-1.37-0.14c-0.37-0.13-0.67-0.35-0.9-0.65c-0.23-0.29-0.39-0.65-0.49-1.05
	c-0.1-0.41-0.15-0.85-0.15-1.32c0-0.72,0.11-1.52,0.32-2.39c0.22-0.87,0.41-1.74,0.59-2.6c0.14-0.61,0.16-1.04,0.08-1.27
	c-0.08-0.24-0.22-0.33-0.42-0.27c-0.2,0.06-0.44,0.23-0.7,0.53c-0.26,0.29-0.49,0.67-0.7,1.12c-0.2,0.45-0.43,0.97-0.68,1.55
	c-0.25,0.58-0.48,1.17-0.7,1.76c-0.21,0.6-0.42,1.18-0.61,1.75c-0.19,0.57-0.33,1.06-0.42,1.49c-0.09,0.41-0.28,0.78-0.58,1.12
	c-0.29,0.34-0.72,0.46-1.29,0.37c-0.41-0.04-0.71-0.28-0.9-0.7c-0.19-0.42-0.29-0.8-0.29-1.14c0-0.19,0.01-0.38,0.02-0.6
	c-0.42,0.6-0.84,1.12-1.28,1.56c-0.54,0.55-1.07,0.85-1.6,0.9c-0.91,0.09-1.61-0.16-2.11-0.75c-0.5-0.59-0.76-1.37-0.78-2.34
	c-0.2,0.39-0.43,0.76-0.68,1.12c-0.25,0.36-0.52,0.68-0.81,0.97c-0.3,0.28-0.61,0.52-0.93,0.7c-0.33,0.18-0.65,0.27-0.97,0.27
	c-0.27,0-0.57-0.04-0.88-0.14c-0.32-0.09-0.62-0.26-0.92-0.51c-0.3-0.25-0.54-0.61-0.75-1.09c-0.2-0.48-0.32-1.11-0.34-1.9
	c-0.02-0.81,0.06-1.72,0.24-2.72c0.18-1,0.41-1.97,0.7-2.94c0.28-0.96,0.58-1.84,0.9-2.63c0.32-0.79,0.6-1.38,0.85-1.76
	c0.32-0.39,0.72-0.58,1.22-0.58c0.34,0,0.68,0.05,1.02,0.15c0.34,0.1,0.63,0.24,0.86,0.42c0.24,0.18,0.39,0.41,0.46,0.7
	C172.05,12.66,171.98,12.98,171.78,13.34L171.78,13.34z M208.89,9.84c-0.2,0.18-0.47,0.27-0.8,0.25c-0.33-0.01-0.65-0.1-0.95-0.27
	c-0.31-0.17-0.55-0.41-0.73-0.73c-0.18-0.32-0.21-0.69-0.1-1.12c0.07-0.23,0.14-0.49,0.22-0.8c0.08-0.31,0.17-0.61,0.27-0.92
	c0.1-0.31,0.21-0.59,0.32-0.87c0.11-0.27,0.23-0.49,0.34-0.65c0.13-0.13,0.27-0.24,0.41-0.3c0.14-0.07,0.31-0.11,0.51-0.14
	c0.34-0.02,0.7,0.03,1.09,0.17c0.38,0.14,0.73,0.32,1.04,0.56c0.31,0.24,0.53,0.51,0.68,0.81c0.15,0.31,0.15,0.59,0.02,0.87
	L208.89,9.84L208.89,9.84z M225.22,14.29c-0.2,0.11-0.44,0.34-0.71,0.68c-0.27,0.34-0.54,0.75-0.82,1.24
	c-0.27,0.49-0.52,1.02-0.75,1.6c-0.23,0.58-0.4,1.16-0.51,1.75c0.38-0.05,0.78-0.2,1.17-0.48c0.4-0.27,0.76-0.61,1.09-1
	c0.33-0.4,0.61-0.85,0.83-1.36c0.23-0.51,0.36-1.02,0.41-1.54c0.02-0.27,0-0.47-0.05-0.59c-0.06-0.12-0.13-0.22-0.2-0.27
	c-0.08-0.06-0.16-0.08-0.24-0.07C225.36,14.25,225.28,14.27,225.22,14.29L225.22,14.29z"/>
<path class="st0" d="M132.98,12.02c0.36-0.27,0.74-0.47,1.12-0.59c0.39-0.12,0.76-0.19,1.12-0.19c0.54,0,1.03,0.12,1.46,0.36
	c0.43,0.24,0.75,0.62,0.95,1.14c0.07-0.16,0.12-0.27,0.15-0.34c0.03-0.07,0.11-0.19,0.22-0.37c0.16-0.29,0.46-0.44,0.9-0.42
	c0.44,0.01,0.87,0.11,1.29,0.29c0.42,0.18,0.78,0.41,1.07,0.7c0.3,0.28,0.37,0.56,0.24,0.83c-0.43,0.95-0.83,1.89-1.2,2.83
	c-0.37,0.94-0.7,1.82-0.98,2.63c-0.28,0.81-0.49,1.54-0.63,2.17c-0.14,0.63-0.18,1.12-0.14,1.46c0.05,0.18,0.12,0.28,0.22,0.29
	c0.1,0.01,0.21-0.02,0.34-0.1c0.12-0.08,0.24-0.18,0.36-0.3c0.11-0.13,0.2-0.22,0.27-0.29c0.45-0.5,0.94-1.16,1.46-1.99
	c0.52-0.83,1.02-1.68,1.51-2.56c0.49-0.88,0.93-1.72,1.32-2.53c0.4-0.8,0.71-1.43,0.93-1.89c0.04-0.11,0.14-0.17,0.29-0.17
	c0.15,0,0.29,0.03,0.43,0.09c0.13,0.06,0.25,0.14,0.36,0.24c0.1,0.1,0.13,0.21,0.08,0.32c-0.14,0.2-0.34,0.64-0.63,1.31
	c-0.28,0.67-0.62,1.44-1.02,2.31c-0.39,0.87-0.83,1.78-1.31,2.73c-0.48,0.95-0.98,1.83-1.51,2.63c-0.53,0.8-1.07,1.47-1.63,1.99
	c-0.55,0.52-1.1,0.78-1.65,0.78c-0.59,0-1.1-0.2-1.54-0.61c-0.44-0.41-0.73-0.95-0.87-1.63c-0.14,0.25-0.31,0.5-0.51,0.76
	c-0.2,0.26-0.43,0.5-0.68,0.71c-0.25,0.21-0.53,0.4-0.83,0.54c-0.31,0.15-0.64,0.23-1,0.25c-0.97,0-1.79-0.33-2.44-1
	c-0.39-0.4-0.67-0.93-0.83-1.57c-0.47,0.7-0.97,1.3-1.48,1.78c-0.57,0.53-1.14,0.8-1.73,0.8c-0.41,0-0.8-0.06-1.17-0.17
	c-0.37-0.11-0.7-0.3-0.98-0.56c-0.28-0.26-0.51-0.61-0.7-1.05c-0.18-0.44-0.28-0.99-0.3-1.65c0-0.13,0-0.27,0-0.41
	c-0.26,0.41-0.52,0.8-0.8,1.17c-0.58,0.78-1.19,1.41-1.85,1.92c-0.66,0.5-1.32,0.75-2,0.75c-0.56,0-1.04-0.09-1.43-0.27
	c-0.39-0.18-0.7-0.43-0.93-0.76c-0.24-0.32-0.41-0.7-0.51-1.14c-0.08-0.34-0.13-0.71-0.14-1.11c-0.07,0.11-0.14,0.22-0.21,0.33
	c-0.52,0.8-1.05,1.48-1.6,2.04c-0.54,0.55-1.08,0.85-1.6,0.9c-0.91,0.09-1.61-0.16-2.11-0.75c-0.5-0.59-0.76-1.37-0.78-2.34
	c-0.2,0.39-0.43,0.76-0.68,1.12c-0.25,0.36-0.52,0.68-0.81,0.97c-0.29,0.28-0.6,0.52-0.93,0.7c-0.33,0.18-0.65,0.27-0.97,0.27
	c-0.27,0-0.57-0.04-0.88-0.14c-0.32-0.09-0.62-0.26-0.92-0.51c-0.29-0.25-0.54-0.61-0.75-1.09c-0.2-0.48-0.32-1.11-0.34-1.9
	c0-0.12,0-0.25,0-0.38c-0.15,0.19-0.3,0.38-0.46,0.56c-0.46,0.55-0.9,0.99-1.31,1.31c0.09,0.57,0.15,1.1,0.17,1.61
	c0.02,0.51,0.03,0.99,0.03,1.44c0,2.11-0.27,3.79-0.8,5.04c-0.53,1.26-1.34,1.9-2.43,1.92c-0.68,0.02-1.23-0.19-1.66-0.63
	c-0.43-0.44-0.75-1.05-0.97-1.82c-0.22-0.77-0.32-1.68-0.32-2.72c0-1.04,0.09-2.16,0.27-3.36c-0.2,0.16-0.44,0.3-0.71,0.42
	c-0.27,0.12-0.58,0.2-0.92,0.22c-1.11,0-1.96-0.39-2.55-1.17c-0.53-0.7-0.82-1.57-0.87-2.6c-0.4,0.49-0.82,0.95-1.25,1.38
	c-0.71,0.71-1.45,1.3-2.21,1.75c-0.76,0.45-1.52,0.69-2.29,0.71c-0.61,0-1.17-0.13-1.66-0.39c-0.5-0.26-0.93-0.62-1.31-1.09
	c-0.37-0.46-0.66-1.01-0.87-1.63c-0.2-0.62-0.3-1.31-0.3-2.05c0-0.95,0.14-1.96,0.42-3.04c0.28-1.07,0.7-2.06,1.24-2.95
	s1.21-1.64,1.99-2.24c0.78-0.6,1.68-0.9,2.7-0.9c0.41,0,0.82,0.07,1.24,0.22c0.42,0.15,0.79,0.37,1.1,0.66
	c0.32,0.29,0.58,0.67,0.8,1.14c0.21,0.46,0.32,1.01,0.32,1.65c-0.05,1.2-0.3,2.2-0.76,2.99c-0.46,0.79-1.04,1.43-1.71,1.9
	c-0.68,0.47-1.4,0.81-2.16,1c-0.76,0.19-1.45,0.29-2.09,0.29c-0.05,0.29-0.03,0.59,0.05,0.9c0.08,0.31,0.2,0.58,0.37,0.82
	c0.17,0.24,0.39,0.43,0.65,0.58c0.26,0.15,0.56,0.22,0.9,0.22c0.59,0,1.26-0.27,2-0.81c0.75-0.54,1.51-1.28,2.29-2.22
	c0.23-0.28,0.46-0.57,0.69-0.88c0.05-0.28,0.11-0.57,0.19-0.87c0.24-0.95,0.55-1.88,0.93-2.8c0.39-0.92,0.8-1.74,1.26-2.48
	c0.45-0.74,0.91-1.26,1.36-1.58c0.36-0.25,0.74-0.43,1.12-0.54c0.38-0.11,0.77-0.17,1.15-0.17c0.54,0,1.04,0.1,1.48,0.31
	c0.44,0.2,0.76,0.55,0.97,1.05c0.07-0.18,0.13-0.38,0.19-0.59c0.06-0.22,0.17-0.36,0.36-0.42c0.23-0.09,0.55-0.08,0.98,0.03
	c0.43,0.11,0.83,0.3,1.19,0.58c0.36,0.27,0.63,0.62,0.8,1.04c0.17,0.42,0.12,0.9-0.15,1.44c-0.75,1.47-1.32,2.76-1.71,3.87
	c-0.4,1.11-0.67,2-0.83,2.68c0.5-0.16,0.99-0.43,1.48-0.81c0.49-0.38,0.99-0.89,1.51-1.53c0.17-0.2,0.34-0.42,0.52-0.66
	c0.15-0.69,0.32-1.37,0.52-2.04c0.28-0.96,0.58-1.84,0.9-2.63c0.32-0.79,0.6-1.38,0.85-1.76c0.32-0.39,0.72-0.58,1.22-0.58
	c0.34,0,0.68,0.05,1.02,0.15c0.34,0.1,0.63,0.24,0.87,0.42c0.24,0.18,0.39,0.41,0.46,0.7c0.07,0.28,0,0.6-0.2,0.97
	c-0.2,0.38-0.46,0.92-0.76,1.61c-0.31,0.69-0.61,1.44-0.9,2.26c-0.29,0.81-0.57,1.63-0.82,2.44c-0.25,0.81-0.41,1.54-0.48,2.17
	c-0.09,0.59,0,0.94,0.25,1.05c0.26,0.11,0.58-0.17,0.97-0.85c0.29-0.5,0.6-1.14,0.93-1.94c0.33-0.79,0.66-1.61,0.98-2.46
	c0.33-0.85,0.65-1.68,0.95-2.5c0.3-0.81,0.56-1.5,0.76-2.07c0.11-0.34,0.21-0.63,0.31-0.88c0.09-0.25,0.17-0.42,0.24-0.51
	c0.25-0.39,0.63-0.58,1.15-0.58c0.34,0,0.68,0.04,1.04,0.12c0.35,0.08,0.65,0.2,0.9,0.36c0.25,0.16,0.42,0.36,0.51,0.61
	c0.09,0.25,0.04,0.55-0.14,0.92c-0.2,0.36-0.45,0.85-0.73,1.48c-0.28,0.62-0.57,1.3-0.87,2.04c-0.29,0.74-0.55,1.48-0.78,2.24
	c-0.23,0.76-0.39,1.47-0.48,2.12c0,0.07-0.01,0.2-0.03,0.39c-0.02,0.19-0.03,0.39-0.03,0.59c0,0.2,0.03,0.38,0.09,0.54
	c0.06,0.16,0.15,0.25,0.29,0.27c0.23,0,0.54-0.17,0.95-0.51c0.41-0.34,0.88-0.89,1.43-1.66c0.35-0.49,0.71-1.08,1.1-1.76
	c0.14-0.76,0.32-1.52,0.53-2.26c0.25-0.89,0.52-1.74,0.8-2.53c0.28-0.79,0.56-1.43,0.83-1.9c0.2-0.38,0.57-0.6,1.09-0.66
	c0.52-0.06,1.02,0.02,1.49,0.22c0.47,0.2,0.85,0.5,1.12,0.9c0.27,0.4,0.27,0.84,0,1.34c-0.2,0.41-0.46,0.91-0.76,1.51
	c-0.31,0.6-0.61,1.24-0.9,1.94c-0.29,0.69-0.55,1.4-0.76,2.12c-0.22,0.72-0.36,1.39-0.42,2c0,0.11,0,0.24,0,0.39
	c0,0.15,0.02,0.29,0.05,0.44c0.03,0.15,0.08,0.28,0.15,0.39c0.07,0.11,0.17,0.18,0.3,0.2c0.27,0,0.6-0.16,0.98-0.49
	c0.39-0.33,0.79-0.77,1.21-1.32c0.42-0.55,0.85-1.19,1.29-1.9c0.27-0.43,0.52-0.87,0.77-1.3c0.18-1.02,0.41-2.09,0.68-3.21
	c0.34-1.41,0.72-2.84,1.15-4.28c0.43-1.44,0.86-2.77,1.29-3.99c0.43-1.22,0.83-2.28,1.19-3.18c0.36-0.89,0.66-1.51,0.88-1.85
	c0.18-0.29,0.5-0.44,0.95-0.44c0.36,0,0.74,0.07,1.14,0.2c0.4,0.14,0.74,0.31,1.04,0.53c0.29,0.22,0.5,0.47,0.61,0.76
	c0.11,0.29,0.07,0.6-0.14,0.92c-0.18,0.25-0.47,0.83-0.87,1.75c-0.4,0.92-0.84,2.02-1.34,3.29c-0.5,1.28-1.01,2.65-1.53,4.11
	c-0.52,1.46-0.98,2.86-1.37,4.21c-0.4,1.35-0.7,2.55-0.9,3.62c-0.2,1.06-0.24,1.82-0.1,2.27c0.05,0.14,0.13,0.22,0.26,0.24
	c0.13,0.02,0.24,0,0.36-0.07c0.36-0.23,0.79-0.65,1.29-1.26c0.44-0.54,0.89-1.18,1.36-1.92c0.04-0.29,0.1-0.59,0.17-0.9
	c0.2-0.95,0.47-1.87,0.8-2.75c0.33-0.88,0.7-1.68,1.1-2.39C132.13,12.88,132.55,12.36,132.98,12.02L132.98,12.02z M75.81,6.14
	C75.9,5.71,76,5.3,76.11,4.89c0.11-0.41,0.39-0.72,0.81-0.95l-0.1-0.04c-1.09-0.41-2.14-0.77-3.17-1.09
	c-1.03-0.32-2.01-0.45-2.94-0.41c-0.66,0.05-1.19,0.19-1.6,0.44c-0.41,0.25-0.72,0.54-0.95,0.87c-0.23,0.33-0.38,0.68-0.46,1.05
	c-0.08,0.37-0.12,0.72-0.12,1.04c0,0.38,0.1,0.75,0.29,1.09c0.19,0.34,0.44,0.63,0.73,0.88c0.29,0.25,0.62,0.45,0.98,0.59
	c0.36,0.15,0.71,0.23,1.05,0.26c0.27,0.02,0.5,0.01,0.68-0.04c0.18-0.04,0.33-0.06,0.44-0.03c0.11,0.02,0.2,0.1,0.26,0.24
	c0.06,0.13,0.11,0.38,0.15,0.75c0.02,0.29-0.01,0.62-0.09,0.98c-0.08,0.36-0.23,0.71-0.46,1.04c-0.23,0.33-0.53,0.59-0.92,0.8
	c-0.39,0.2-0.86,0.29-1.43,0.27c-0.72-0.09-1.37-0.32-1.93-0.68c-0.57-0.36-1.04-0.82-1.43-1.36c-0.39-0.54-0.68-1.15-0.88-1.82
	c-0.2-0.67-0.28-1.35-0.24-2.05c0.04-0.81,0.2-1.62,0.46-2.41c0.26-0.79,0.67-1.49,1.22-2.09c0.55-0.6,1.28-1.07,2.19-1.41
	c0.91-0.34,2.01-0.46,3.33-0.37c0.91,0.07,1.86,0.2,2.85,0.41c1,0.2,2.02,0.41,3.06,0.63c1.04,0.22,2.1,0.41,3.17,0.58
	c1.08,0.17,2.15,0.25,3.21,0.25c1.02,0,1.97-0.08,2.85-0.24c0.88-0.16,1.58-0.51,2.1-1.05c0.2-0.23,0.49-0.21,0.85,0.05
	c0.36,0.26,0.67,0.65,0.93,1.15c0.26,0.51,0.38,1.07,0.36,1.68c-0.02,0.61-0.32,1.15-0.88,1.63c-0.66,0.48-1.4,0.75-2.24,0.83
	c-0.84,0.08-1.71,0.05-2.61-0.08c-0.91-0.14-1.8-0.33-2.68-0.59c-0.88-0.26-1.69-0.49-2.41-0.7h-0.04c0,0.11-0.02,0.21-0.07,0.31
	c-0.05,0.09-0.09,0.19-0.14,0.3c-0.23,0.39-0.65,1.56-1.27,3.51c-0.62,1.96-1.42,4.62-2.39,8c-0.32,1.04-0.67,2.02-1.05,2.94
	c-0.38,0.92-0.83,1.74-1.34,2.48c-0.51,0.74-1.08,1.35-1.7,1.83c-0.62,0.49-1.32,0.82-2.09,1c-0.66,0.14-1.27,0.12-1.85-0.03
	c-0.58-0.16-1.01-0.38-1.31-0.68c-0.36-0.34-0.6-0.67-0.71-0.98c-0.11-0.32-0.15-0.61-0.1-0.87c0.04-0.26,0.15-0.48,0.31-0.66
	c0.16-0.18,0.32-0.3,0.47-0.36c0.16-0.06,0.29-0.03,0.39,0.08c0.1,0.11,0.14,0.32,0.12,0.61c-0.05,0.34,0.03,0.61,0.24,0.82
	c0.2,0.2,0.45,0.32,0.75,0.36c0.29,0.03,0.61-0.01,0.95-0.14c0.34-0.12,0.65-0.32,0.92-0.59c0.27-0.27,0.57-0.71,0.88-1.32
	c0.32-0.61,0.68-1.54,1.09-2.78c0.41-1.24,0.87-2.89,1.39-4.92C74.53,11.85,75.13,9.27,75.81,6.14L75.81,6.14z M86.74,14.29
	c-0.2,0.11-0.44,0.34-0.71,0.68c-0.27,0.34-0.54,0.75-0.82,1.24c-0.27,0.49-0.52,1.02-0.75,1.6c-0.23,0.58-0.4,1.16-0.51,1.75
	c0.38-0.05,0.78-0.2,1.17-0.48c0.4-0.27,0.76-0.61,1.09-1c0.33-0.4,0.6-0.85,0.83-1.36c0.23-0.51,0.36-1.02,0.41-1.54
	c0.02-0.27,0.01-0.47-0.05-0.59c-0.06-0.12-0.13-0.22-0.2-0.27c-0.08-0.06-0.16-0.08-0.24-0.07C86.88,14.25,86.81,14.27,86.74,14.29
	L86.74,14.29z M98.59,30.96c0.25,0,0.46-0.25,0.65-0.76c0.18-0.51,0.31-1.14,0.37-1.88c0.07-0.75,0.09-1.53,0.05-2.36
	c-0.03-0.83-0.15-1.54-0.36-2.16c-0.27,1-0.47,1.99-0.61,2.97c-0.13,0.98-0.23,1.77-0.27,2.36c-0.02,0.45-0.02,0.87,0.02,1.26
	C98.47,30.77,98.52,30.96,98.59,30.96L98.59,30.96z M98.05,13.95c-0.09-0.32-0.22-0.48-0.37-0.48c-0.25,0-0.53,0.19-0.85,0.58
	c-0.32,0.38-0.63,0.87-0.95,1.46c-0.32,0.59-0.63,1.24-0.93,1.97c-0.31,0.72-0.57,1.44-0.8,2.14c-0.23,0.7-0.4,1.33-0.51,1.9
	c-0.11,0.57-0.13,1-0.07,1.29c0.09,0.52,0.26,0.78,0.51,0.78c0.27,0,0.59-0.2,0.95-0.61c0.36-0.41,0.72-0.92,1.09-1.53
	c0.14-0.25,0.32-0.67,0.56-1.27c0.24-0.6,0.46-1.24,0.68-1.93c0.21-0.69,0.4-1.37,0.56-2.04c0.16-0.67,0.24-1.19,0.24-1.58
	C98.15,14.38,98.11,14.15,98.05,13.95L98.05,13.95z M122.62,9.84c-0.2,0.18-0.47,0.27-0.8,0.25c-0.33-0.01-0.65-0.1-0.95-0.27
	c-0.31-0.17-0.55-0.41-0.73-0.73c-0.18-0.32-0.22-0.69-0.1-1.12c0.07-0.23,0.14-0.49,0.22-0.8c0.08-0.31,0.17-0.61,0.27-0.92
	c0.1-0.31,0.21-0.59,0.32-0.87c0.11-0.27,0.23-0.49,0.34-0.65c0.14-0.13,0.27-0.24,0.41-0.3c0.14-0.07,0.31-0.11,0.51-0.14
	c0.34-0.02,0.7,0.03,1.09,0.17c0.38,0.14,0.73,0.32,1.04,0.56c0.31,0.24,0.53,0.51,0.68,0.81c0.15,0.31,0.15,0.59,0.02,0.87
	L122.62,9.84L122.62,9.84z M136.61,15.14c0-0.07-0.01-0.18-0.02-0.32c-0.01-0.15-0.04-0.29-0.07-0.42
	c-0.03-0.14-0.08-0.26-0.14-0.37c-0.06-0.11-0.13-0.17-0.22-0.17c-0.27,0-0.57,0.21-0.9,0.63c-0.33,0.42-0.64,0.94-0.95,1.58
	c-0.31,0.63-0.59,1.33-0.87,2.1c-0.27,0.77-0.49,1.49-0.65,2.17c-0.05,0.2-0.1,0.49-0.17,0.85c-0.07,0.36-0.11,0.72-0.12,1.07
	c-0.01,0.35,0.02,0.66,0.09,0.92c0.07,0.26,0.21,0.39,0.44,0.39c0.3,0,0.59-0.16,0.88-0.49c0.3-0.33,0.57-0.75,0.83-1.27
	c0.26-0.52,0.5-1.1,0.73-1.73c0.23-0.63,0.42-1.26,0.59-1.88c0.17-0.62,0.3-1.2,0.39-1.75C136.57,15.89,136.61,15.46,136.61,15.14
	L136.61,15.14z"/>
<path class="st1" d="M92.76,163.35h113.28c-0.42,1.38-0.96,2.73-1.62,4.04c-6.36,12.56-14.34,22.63-26.49,29.9
	c-21.91,13.09-35.93,12.63-57.05,0.01c-12.16-7.27-20.14-17.34-26.5-29.9C93.71,166.08,93.17,164.73,92.76,163.35L92.76,163.35z"/>
<path class="st2" d="M93.43,144.68h111.93c1.29,4.76,2.05,9.59,1.58,14.1c-0.16,1.57-0.46,3.09-0.91,4.57H92.76
	c-0.45-1.48-0.75-3-0.91-4.57C91.38,154.27,92.14,149.44,93.43,144.68L93.43,144.68z"/>
<path class="st3" d="M112.77,65.94h73.26l0,0.08c0.16,8.72,0.82,17.17,2.15,25.8c2.08,13.54,6.94,25.46,11.95,38.07
	c1.79,4.5,3.83,9.6,5.24,14.78H93.43c1.41-5.19,3.45-10.28,5.24-14.78c5.01-12.61,9.87-24.53,11.95-38.07
	c1.32-8.63,1.99-17.08,2.15-25.8L112.77,65.94L112.77,65.94z"/>
<path class="st4" d="M149.54,163.35h56.5c-0.42,1.38-0.96,2.73-1.62,4.04c-6.36,12.56-14.34,22.63-26.49,29.9
	c-10.78,6.44-19.65,9.6-28.39,9.64V163.35L149.54,163.35z"/>
<path class="st5" d="M149.54,144.68h55.83c1.29,4.76,2.05,9.59,1.58,14.1c-0.16,1.57-0.46,3.09-0.91,4.57h-56.5V144.68
	L149.54,144.68z"/>
<path class="st6" d="M149.54,65.94h36.49l0,0.08c0.16,8.72,0.82,17.17,2.15,25.8c2.08,13.54,6.94,25.46,11.95,38.07
	c1.79,4.5,3.83,9.6,5.24,14.78h-55.83V65.94L149.54,65.94z"/>
<path class="st0" d="M166.82,132.9c0,0.06,0,0.12,0,0.2c0,0.07,0.01,0.15,0.03,0.22c0.02,0.07,0.04,0.14,0.08,0.19
	c0.03,0.06,0.09,0.09,0.15,0.1c0.13,0,0.3-0.08,0.49-0.25c0.19-0.16,0.39-0.39,0.6-0.66c0.2-0.27,0.41-0.58,0.63-0.92
	c0.04-0.39,0.12-0.78,0.24-1.19c0.18-0.59,0.42-1.11,0.73-1.58c0.31-0.46,0.68-0.83,1.11-1.09c0.43-0.26,0.9-0.34,1.41-0.24
	c0.25,0.06,0.47,0.16,0.66,0.3c0.19,0.15,0.35,0.33,0.46,0.55c0.11,0.22,0.18,0.48,0.2,0.77c0.02,0.29-0.01,0.6-0.1,0.92
	c-0.09,0.29-0.25,0.47-0.48,0.53c-0.23,0.06-0.44,0.08-0.63,0.06c-0.42-0.06-0.59-0.2-0.53-0.43c0.05-0.15,0.09-0.31,0.14-0.48
	c0.05-0.18,0.08-0.33,0.09-0.46c0-0.13-0.02-0.22-0.07-0.26c-0.05-0.05-0.16-0.01-0.33,0.1c-0.18,0.13-0.36,0.33-0.53,0.61
	c-0.17,0.28-0.32,0.6-0.45,0.95c-0.13,0.35-0.23,0.71-0.31,1.08c-0.08,0.37-0.12,0.69-0.12,0.98c0,0.35,0.05,0.61,0.15,0.77
	c0.1,0.16,0.23,0.26,0.4,0.28c0.16,0.02,0.35-0.01,0.57-0.1c0.22-0.09,0.44-0.22,0.66-0.39c0.32-0.24,0.63-0.54,0.93-0.91
	c0.3-0.37,0.6-0.76,0.89-1.19l0.07-0.1c0.03-0.17,0.07-0.35,0.12-0.53c0.14-0.54,0.35-1.03,0.62-1.48c0.27-0.45,0.6-0.82,0.99-1.12
	c0.39-0.3,0.84-0.45,1.35-0.45c0.2,0,0.41,0.04,0.62,0.11c0.21,0.07,0.39,0.18,0.55,0.33c0.16,0.15,0.29,0.34,0.4,0.57
	c0.11,0.23,0.16,0.51,0.16,0.82c-0.02,0.6-0.15,1.1-0.38,1.49c-0.23,0.4-0.52,0.71-0.86,0.95c-0.34,0.24-0.7,0.4-1.08,0.5
	c-0.38,0.1-0.73,0.14-1.04,0.14c-0.02,0.15-0.01,0.3,0.03,0.45c0.04,0.15,0.1,0.29,0.19,0.41c0.09,0.12,0.19,0.22,0.32,0.29
	c0.13,0.07,0.28,0.11,0.45,0.11c0.29,0,0.63-0.14,1-0.41c0.37-0.27,0.75-0.64,1.15-1.11c0.39-0.47,0.78-1.02,1.16-1.65
	c0.38-0.63,0.74-1.3,1.05-2.01c0.02-0.06,0.07-0.09,0.14-0.09c0.07,0,0.13,0.01,0.2,0.03c0.07,0.03,0.12,0.07,0.16,0.12
	c0.04,0.05,0.05,0.1,0.03,0.14c-0.13,0.26-0.29,0.59-0.5,0.98c-0.21,0.39-0.45,0.8-0.71,1.24c-0.27,0.44-0.56,0.87-0.87,1.31
	c-0.32,0.44-0.65,0.83-1.01,1.19c-0.36,0.36-0.72,0.65-1.1,0.87c-0.38,0.23-0.76,0.35-1.15,0.36c-0.31,0-0.58-0.07-0.83-0.2
	c-0.25-0.13-0.47-0.31-0.65-0.54c-0.19-0.23-0.33-0.5-0.43-0.82c-0.08-0.24-0.13-0.5-0.15-0.77c-0.31,0.43-0.63,0.82-0.97,1.15
	c-0.33,0.34-0.68,0.62-1.04,0.83c-0.36,0.22-0.71,0.32-1.06,0.32c-0.36,0-0.67-0.07-0.93-0.21c-0.26-0.14-0.47-0.33-0.64-0.57
	c-0.17-0.24-0.29-0.51-0.37-0.81c-0.01-0.04-0.02-0.09-0.03-0.13c-0.09,0.13-0.18,0.26-0.26,0.38c-0.29,0.39-0.6,0.71-0.93,0.96
	c-0.33,0.25-0.66,0.38-1,0.38c-0.28,0-0.52-0.04-0.71-0.13c-0.19-0.09-0.35-0.22-0.47-0.38c-0.12-0.16-0.2-0.35-0.26-0.57
	c-0.04-0.17-0.06-0.36-0.07-0.55l-0.11,0.17c-0.26,0.4-0.53,0.74-0.8,1.02c-0.27,0.28-0.54,0.43-0.8,0.45
	c-0.45,0.05-0.8-0.08-1.05-0.37c-0.25-0.29-0.38-0.68-0.39-1.17c-0.1,0.19-0.22,0.38-0.34,0.56c-0.12,0.18-0.26,0.34-0.41,0.48
	c-0.15,0.14-0.3,0.26-0.47,0.35c-0.16,0.09-0.32,0.14-0.48,0.14c-0.14,0-0.28-0.02-0.44-0.07c-0.16-0.04-0.31-0.13-0.46-0.25
	c-0.15-0.12-0.27-0.31-0.37-0.54c-0.05-0.11-0.08-0.23-0.11-0.37l-0.09,0.12c-0.3,0.41-0.62,0.77-0.95,1.08
	c-0.33,0.31-0.68,0.54-1.03,0.69c-0.08,0.24-0.18,0.54-0.3,0.9c-0.13,0.36-0.28,0.72-0.48,1.06c-0.19,0.34-0.43,0.64-0.71,0.89
	c-0.28,0.25-0.62,0.39-1.02,0.41c-0.38,0.02-0.7-0.11-0.94-0.39c-0.24-0.28-0.37-0.61-0.37-0.97c0-0.4,0.07-0.73,0.2-1.01
	c0.13-0.28,0.31-0.51,0.53-0.7c0.22-0.19,0.48-0.34,0.76-0.45c0.29-0.11,0.59-0.21,0.91-0.29c0.05-0.2,0.1-0.48,0.17-0.83
	c0.07-0.35,0.14-0.73,0.22-1.14c0.08-0.41,0.16-0.84,0.26-1.29c0.09-0.45,0.18-0.87,0.25-1.27c0.08-0.4,0.15-0.75,0.22-1.07
	c0.07-0.32,0.12-0.56,0.17-0.73c0.08-0.25,0.19-0.46,0.32-0.64c0.14-0.17,0.32-0.25,0.56-0.23c0.17,0.01,0.35,0.04,0.55,0.09
	c0.2,0.05,0.37,0.13,0.52,0.22c0.15,0.1,0.25,0.22,0.31,0.37c0.06,0.15,0.03,0.34-0.09,0.55c-0.13,0.27-0.29,0.64-0.46,1.1
	c-0.17,0.46-0.34,0.96-0.51,1.49c-0.17,0.53-0.33,1.06-0.48,1.59s-0.28,0.98-0.38,1.35c0.37-0.25,0.74-0.62,1.1-1.11
	c0.24-0.33,0.48-0.69,0.7-1.06c0.02-0.22,0.05-0.44,0.09-0.68c0.09-0.5,0.21-0.99,0.35-1.47c0.14-0.48,0.29-0.92,0.45-1.31
	c0.16-0.4,0.3-0.69,0.42-0.88c0.16-0.19,0.36-0.29,0.61-0.29c0.17,0,0.34,0.03,0.51,0.08c0.17,0.05,0.31,0.12,0.43,0.21
	c0.12,0.09,0.19,0.21,0.23,0.35c0.03,0.14,0,0.3-0.1,0.48c-0.1,0.19-0.23,0.46-0.38,0.81c-0.15,0.35-0.3,0.72-0.45,1.13
	c-0.15,0.41-0.28,0.81-0.41,1.22c-0.12,0.41-0.2,0.77-0.24,1.09c-0.05,0.29,0,0.47,0.13,0.53c0.13,0.06,0.29-0.09,0.48-0.43
	c0.15-0.25,0.3-0.57,0.47-0.97c0.16-0.4,0.33-0.81,0.49-1.23c0.16-0.42,0.32-0.84,0.48-1.25c0.15-0.41,0.28-0.75,0.38-1.03
	c0.06-0.17,0.11-0.32,0.15-0.44c0.04-0.12,0.08-0.21,0.12-0.26c0.12-0.19,0.32-0.29,0.58-0.29c0.17,0,0.34,0.02,0.52,0.06
	c0.18,0.04,0.33,0.1,0.45,0.18c0.12,0.08,0.21,0.18,0.26,0.31c0.04,0.12,0.02,0.28-0.07,0.46c-0.1,0.18-0.22,0.43-0.36,0.74
	c-0.14,0.31-0.29,0.65-0.43,1.02c-0.15,0.37-0.28,0.74-0.39,1.12c-0.11,0.38-0.19,0.73-0.24,1.06c0,0.03,0,0.1-0.02,0.2
	c-0.01,0.1-0.02,0.2-0.02,0.3c0,0.1,0.01,0.19,0.04,0.27c0.03,0.08,0.08,0.13,0.14,0.14c0.11,0,0.27-0.08,0.48-0.25
	c0.2-0.17,0.44-0.45,0.71-0.83c0.17-0.25,0.36-0.54,0.55-0.88c0.07-0.38,0.16-0.76,0.26-1.13c0.13-0.45,0.26-0.87,0.4-1.26
	c0.14-0.4,0.28-0.71,0.42-0.95c0.1-0.19,0.28-0.3,0.54-0.33c0.26-0.03,0.51,0.01,0.75,0.11c0.24,0.1,0.42,0.25,0.56,0.45
	c0.14,0.2,0.14,0.42,0,0.67c-0.1,0.2-0.23,0.46-0.38,0.75c-0.15,0.3-0.3,0.62-0.45,0.97c-0.15,0.35-0.27,0.7-0.38,1.06
	C166.92,132.26,166.85,132.6,166.82,132.9L166.82,132.9z M176.92,129.29c-0.1,0.06-0.22,0.17-0.36,0.34
	c-0.14,0.17-0.27,0.38-0.41,0.62c-0.14,0.24-0.26,0.51-0.37,0.8c-0.11,0.29-0.2,0.58-0.26,0.87c0.19-0.02,0.39-0.1,0.59-0.24
	c0.2-0.13,0.38-0.3,0.54-0.5c0.16-0.2,0.3-0.42,0.42-0.68c0.11-0.26,0.18-0.51,0.2-0.77c0.01-0.13,0-0.23-0.03-0.3
	c-0.03-0.06-0.06-0.11-0.1-0.14c-0.04-0.03-0.08-0.04-0.12-0.03C176.99,129.27,176.95,129.28,176.92,129.29L176.92,129.29z
	 M122.29,131.03c0.09,0.01,0.22-0.01,0.4-0.07c0.17-0.06,0.37-0.17,0.58-0.33c0.21-0.16,0.42-0.4,0.64-0.7
	c0.18-0.25,0.35-0.56,0.5-0.93l-0.05-0.04c-0.18-0.12-0.32-0.27-0.43-0.46c-0.11-0.19-0.18-0.41-0.19-0.67
	c-0.02-0.38,0.08-0.72,0.3-1.01c0.22-0.29,0.52-0.43,0.89-0.42c0.2,0,0.36,0.05,0.48,0.15c0.12,0.1,0.2,0.23,0.26,0.39
	c0.05,0.16,0.07,0.33,0.04,0.52c-0.02,0.19-0.07,0.37-0.15,0.55c0.02,0.16,0.12,0.27,0.3,0.32c0.18,0.06,0.34,0.03,0.5-0.08
	c0.16-0.09,0.32-0.14,0.48-0.14c0.17,0,0.34,0.04,0.52,0.12c0.18,0.08,0.32,0.18,0.42,0.31c0.11,0.12,0.18,0.27,0.2,0.42
	c0.03,0.16-0.01,0.32-0.13,0.49c-0.13,0.17-0.27,0.4-0.44,0.69c-0.17,0.29-0.33,0.6-0.49,0.94c-0.16,0.34-0.3,0.68-0.41,1.04
	c-0.11,0.35-0.18,0.67-0.19,0.95c0,0.19,0.02,0.33,0.07,0.42c0.05,0.09,0.18,0.06,0.41-0.1c0.26-0.19,0.56-0.5,0.89-0.91
	c0.33-0.41,0.66-0.85,0.99-1.32l0.12-0.18c0.08-0.3,0.17-0.59,0.28-0.87c0.16-0.44,0.35-0.84,0.55-1.2c0.2-0.36,0.41-0.62,0.63-0.79
	c0.18-0.14,0.37-0.24,0.56-0.3c0.19-0.06,0.38-0.09,0.56-0.09c0.27,0,0.52,0.06,0.73,0.18c0.22,0.12,0.37,0.31,0.48,0.57
	c0.03-0.08,0.06-0.14,0.08-0.17c0.02-0.03,0.05-0.1,0.11-0.19c0.08-0.15,0.23-0.22,0.45-0.21c0.22,0.01,0.44,0.05,0.65,0.14
	c0.21,0.09,0.39,0.21,0.53,0.35c0.15,0.14,0.19,0.28,0.12,0.42c-0.22,0.48-0.42,0.95-0.6,1.42c-0.19,0.47-0.35,0.91-0.49,1.32
	c-0.14,0.41-0.25,0.77-0.31,1.09c-0.07,0.32-0.09,0.56-0.07,0.73c0.02,0.09,0.06,0.14,0.11,0.15c0.05,0,0.11-0.01,0.17-0.05
	c0.06-0.04,0.12-0.09,0.18-0.15c0.06-0.06,0.1-0.11,0.13-0.14c0.23-0.25,0.47-0.58,0.73-0.99c0.26-0.41,0.51-0.84,0.75-1.28
	l0.01-0.01c0.11-0.43,0.24-0.87,0.38-1.32c0.17-0.56,0.34-1.09,0.51-1.59c0.04-0.12,0.17-0.2,0.39-0.24
	c0.21-0.03,0.43-0.03,0.65,0.02c0.22,0.04,0.41,0.13,0.56,0.24c0.15,0.11,0.19,0.26,0.11,0.43c-0.09,0.24-0.19,0.48-0.31,0.71
	c-0.11,0.24-0.21,0.46-0.29,0.68c0.08-0.12,0.18-0.27,0.31-0.43c0.13-0.16,0.27-0.33,0.43-0.5c0.15-0.17,0.31-0.33,0.48-0.49
	c0.16-0.16,0.33-0.29,0.5-0.41c0.21-0.13,0.43-0.19,0.65-0.17c0.21,0.02,0.4,0.1,0.55,0.25c0.15,0.14,0.26,0.34,0.33,0.59
	c0.07,0.25,0.06,0.55-0.02,0.89c-0.04,0.2-0.12,0.48-0.24,0.82c-0.11,0.34-0.23,0.7-0.34,1.08c-0.11,0.37-0.21,0.74-0.31,1.09
	c-0.09,0.35-0.13,0.63-0.13,0.83c0,0.03,0.01,0.08,0.02,0.13c0.02,0.05,0.05,0.08,0.11,0.08c0.09,0,0.25-0.1,0.47-0.31
	c0.22-0.2,0.48-0.51,0.77-0.92l0.1-0.14c0.03-0.21,0.08-0.43,0.14-0.68c0.12-0.49,0.28-0.96,0.47-1.43c0.19-0.46,0.4-0.88,0.63-1.26
	c0.23-0.37,0.45-0.64,0.65-0.8c0.18-0.13,0.36-0.22,0.55-0.27c0.19-0.06,0.36-0.08,0.53-0.08c0.26,0,0.52,0.06,0.76,0.19
	c0.25,0.12,0.42,0.32,0.53,0.59c0.02-0.07,0.06-0.14,0.1-0.2c0.05-0.07,0.08-0.13,0.1-0.19c0.07-0.1,0.2-0.14,0.41-0.13
	c0.2,0.02,0.4,0.08,0.6,0.18c0.2,0.1,0.36,0.23,0.49,0.39c0.13,0.16,0.16,0.33,0.08,0.51c-0.17,0.34-0.35,0.75-0.55,1.22
	c-0.2,0.48-0.4,0.97-0.59,1.49c-0.2,0.52-0.39,1.02-0.56,1.51c-0.18,0.49-0.32,0.92-0.43,1.3c0.37-0.23,0.73-0.55,1.09-0.97
	c0.3-0.36,0.59-0.76,0.87-1.2l0-0.11c0-0.48,0.07-0.98,0.21-1.52c0.14-0.54,0.35-1.03,0.62-1.48c0.27-0.45,0.6-0.82,0.99-1.12
	c0.39-0.3,0.84-0.45,1.35-0.45c0.2,0,0.41,0.04,0.62,0.11c0.21,0.07,0.39,0.18,0.55,0.33c0.16,0.15,0.29,0.34,0.4,0.57
	c0.11,0.23,0.16,0.51,0.16,0.82c-0.02,0.6-0.15,1.1-0.38,1.49c-0.23,0.4-0.52,0.71-0.86,0.95c-0.34,0.24-0.7,0.4-1.08,0.5
	c-0.38,0.1-0.73,0.14-1.04,0.14c-0.02,0.15-0.02,0.3,0.03,0.45c0.04,0.15,0.1,0.29,0.19,0.41c0.09,0.12,0.19,0.22,0.32,0.29
	c0.13,0.07,0.28,0.11,0.45,0.11c0.29,0,0.63-0.14,1-0.41c0.37-0.27,0.76-0.64,1.15-1.11c0.39-0.47,0.78-1.02,1.16-1.65
	c0.39-0.63,0.74-1.3,1.05-2.01c0.02-0.06,0.07-0.09,0.14-0.09c0.07,0,0.14,0.01,0.2,0.03c0.07,0.03,0.12,0.07,0.16,0.12
	c0.04,0.05,0.05,0.1,0.02,0.14c-0.12,0.26-0.29,0.59-0.5,0.98c-0.21,0.39-0.45,0.8-0.71,1.24c-0.27,0.44-0.56,0.87-0.87,1.31
	c-0.32,0.44-0.65,0.83-1.01,1.19c-0.36,0.36-0.72,0.65-1.1,0.87c-0.38,0.23-0.76,0.35-1.14,0.36c-0.31,0-0.58-0.07-0.83-0.2
	c-0.25-0.13-0.47-0.31-0.65-0.54c-0.18-0.22-0.32-0.47-0.42-0.76c-0.13,0.19-0.27,0.38-0.41,0.56c-0.29,0.38-0.61,0.71-0.93,0.99
	c-0.33,0.28-0.67,0.49-1.02,0.61c-0.08,0.24-0.19,0.53-0.32,0.88c-0.14,0.35-0.31,0.69-0.53,1.01c-0.22,0.32-0.47,0.59-0.76,0.81
	c-0.29,0.22-0.62,0.32-1.01,0.3c-0.27-0.01-0.5-0.09-0.69-0.24c-0.19-0.15-0.32-0.33-0.41-0.55c-0.08-0.22-0.12-0.46-0.11-0.72
	c0.01-0.26,0.08-0.5,0.2-0.73c0.2-0.39,0.52-0.68,0.95-0.9c0.43-0.21,0.87-0.38,1.32-0.49l0.2-0.7c-0.1,0.19-0.25,0.35-0.46,0.46
	c-0.2,0.11-0.39,0.17-0.56,0.17c-0.47-0.02-0.85-0.22-1.14-0.58c-0.17-0.22-0.29-0.47-0.35-0.76c-0.25,0.34-0.51,0.63-0.77,0.87
	c-0.29,0.27-0.59,0.43-0.88,0.48c-0.27,0.02-0.5,0-0.69-0.07c-0.19-0.07-0.34-0.17-0.45-0.32c-0.11-0.15-0.2-0.32-0.25-0.53
	c-0.05-0.2-0.08-0.42-0.08-0.66c0-0.36,0.05-0.76,0.16-1.2c0.11-0.43,0.21-0.87,0.3-1.3c0.07-0.31,0.08-0.52,0.04-0.64
	c-0.04-0.12-0.11-0.16-0.21-0.14c-0.1,0.03-0.22,0.12-0.35,0.26c-0.13,0.15-0.25,0.33-0.35,0.56c-0.1,0.23-0.22,0.48-0.34,0.77
	c-0.13,0.29-0.24,0.58-0.35,0.88c-0.11,0.3-0.21,0.59-0.31,0.87c-0.09,0.28-0.17,0.53-0.21,0.75c-0.04,0.2-0.14,0.39-0.29,0.56
	c-0.15,0.17-0.36,0.23-0.65,0.19c-0.2-0.02-0.35-0.14-0.45-0.35c-0.1-0.21-0.14-0.4-0.14-0.57c0-0.15,0.01-0.32,0.03-0.5l-0.02,0.03
	c-0.27,0.4-0.54,0.73-0.82,0.99c-0.28,0.26-0.55,0.39-0.82,0.39c-0.29,0-0.55-0.1-0.77-0.31c-0.22-0.2-0.36-0.48-0.43-0.82
	c-0.07,0.13-0.15,0.25-0.25,0.38c-0.1,0.13-0.22,0.25-0.34,0.36c-0.13,0.11-0.26,0.2-0.42,0.27c-0.15,0.07-0.32,0.12-0.5,0.13
	c-0.49,0-0.89-0.17-1.22-0.5c-0.33-0.33-0.49-0.83-0.49-1.5l0-0.15c-0.19,0.27-0.38,0.53-0.57,0.78c-0.31,0.4-0.62,0.72-0.93,0.98
	c-0.31,0.26-0.6,0.39-0.88,0.39c-0.23,0-0.43-0.06-0.61-0.19c-0.18-0.12-0.33-0.29-0.45-0.48c-0.12-0.2-0.21-0.42-0.27-0.68
	c-0.06-0.26-0.09-0.52-0.09-0.81c0-0.27,0.03-0.56,0.08-0.86c0.05-0.3,0.12-0.6,0.2-0.89c0.08-0.3,0.18-0.58,0.3-0.85
	c0.11-0.27,0.23-0.52,0.34-0.75c-0.2-0.01-0.39-0.04-0.59-0.08c-0.1,0.27-0.23,0.55-0.4,0.84c-0.22,0.37-0.47,0.71-0.75,1
	c-0.28,0.29-0.58,0.53-0.9,0.72c-0.32,0.19-0.64,0.27-0.94,0.24c-0.23,0.85-0.57,1.55-1.03,2.09c-0.46,0.54-1.01,0.81-1.66,0.81
	c-0.25,0-0.51-0.06-0.8-0.19c-0.37-0.19-0.65-0.5-0.82-0.92c-0.18-0.42-0.26-0.89-0.26-1.43c0-0.52,0.08-1.06,0.23-1.62
	c0.15-0.56,0.37-1.07,0.64-1.54c0.27-0.47,0.59-0.85,0.94-1.15c0.36-0.3,0.74-0.45,1.15-0.45c0.07,0,0.16,0,0.26,0.02
	c0.11,0.01,0.22,0.05,0.33,0.11c0.11,0.06,0.23,0.15,0.34,0.27c0.11,0.12,0.2,0.28,0.27,0.48c0.26,0.11,0.46,0.37,0.61,0.76
	C122.41,129.72,122.42,130.29,122.29,131.03L122.29,131.03z M119.29,134.14c0.16,0,0.31-0.08,0.46-0.25
	c0.15-0.17,0.28-0.38,0.41-0.64c0.12-0.26,0.23-0.53,0.31-0.82c0.08-0.29,0.13-0.55,0.15-0.79c-0.1-0.07-0.19-0.17-0.26-0.31
	c-0.07-0.13-0.13-0.29-0.17-0.45c-0.04-0.16-0.06-0.33-0.07-0.5c-0.01-0.17,0.02-0.32,0.08-0.44c-0.16,0.06-0.32,0.2-0.47,0.42
	c-0.16,0.23-0.3,0.5-0.43,0.81c-0.13,0.31-0.24,0.64-0.33,0.99c-0.09,0.35-0.14,0.67-0.16,0.96c-0.02,0.29,0.01,0.53,0.08,0.72
	C118.95,134.05,119.08,134.14,119.29,134.14L119.29,134.14z M132.07,129.71c0-0.03,0-0.09-0.01-0.16c0-0.07-0.02-0.14-0.03-0.21
	c-0.02-0.07-0.04-0.13-0.07-0.19c-0.03-0.06-0.07-0.09-0.11-0.09c-0.14,0-0.29,0.1-0.45,0.31c-0.16,0.21-0.32,0.47-0.48,0.79
	c-0.15,0.32-0.3,0.67-0.43,1.05c-0.14,0.39-0.24,0.75-0.32,1.09c-0.02,0.1-0.05,0.24-0.09,0.42c-0.03,0.18-0.05,0.36-0.06,0.54
	c-0.01,0.17,0.01,0.33,0.04,0.46c0.03,0.13,0.11,0.19,0.22,0.19c0.15,0,0.29-0.08,0.44-0.25c0.15-0.16,0.29-0.38,0.42-0.64
	c0.13-0.26,0.25-0.55,0.36-0.87c0.11-0.32,0.21-0.63,0.3-0.94c0.09-0.31,0.15-0.6,0.2-0.87
	C132.05,130.08,132.07,129.87,132.07,129.71L132.07,129.71z M142.8,136.03c-0.26,0.09-0.47,0.21-0.62,0.35
	c-0.15,0.14-0.26,0.28-0.33,0.42c-0.07,0.14-0.1,0.25-0.09,0.36c0,0.1,0.04,0.15,0.11,0.15c0.14,0,0.25-0.04,0.35-0.12
	c0.1-0.08,0.18-0.18,0.25-0.3c0.07-0.13,0.14-0.26,0.2-0.41C142.72,136.32,142.76,136.17,142.8,136.03L142.8,136.03z M144.48,129.46
	c0-0.03,0-0.08-0.01-0.14c0-0.06-0.02-0.13-0.03-0.19c-0.02-0.06-0.04-0.12-0.07-0.17c-0.03-0.05-0.07-0.08-0.11-0.08
	c-0.12,0-0.27,0.1-0.43,0.29c-0.16,0.19-0.32,0.44-0.47,0.75c-0.16,0.31-0.32,0.64-0.47,1.01c-0.15,0.37-0.29,0.73-0.4,1.08
	c-0.04,0.14-0.09,0.32-0.14,0.55c-0.05,0.23-0.09,0.45-0.11,0.66c-0.02,0.21-0.02,0.39,0.01,0.53c0.03,0.14,0.1,0.2,0.23,0.16
	c0.19-0.05,0.38-0.17,0.55-0.37c0.18-0.2,0.34-0.45,0.48-0.73c0.15-0.28,0.28-0.59,0.4-0.93c0.12-0.33,0.22-0.66,0.3-0.97
	c0.09-0.31,0.15-0.6,0.2-0.86C144.46,129.79,144.48,129.59,144.48,129.46L144.48,129.46z M149.71,129.29
	c-0.1,0.06-0.22,0.17-0.36,0.34c-0.13,0.17-0.27,0.38-0.41,0.62c-0.14,0.24-0.26,0.51-0.37,0.8c-0.11,0.29-0.2,0.58-0.26,0.87
	c0.19-0.02,0.39-0.1,0.58-0.24c0.2-0.13,0.38-0.3,0.54-0.5c0.16-0.2,0.3-0.42,0.42-0.68c0.11-0.26,0.18-0.51,0.2-0.77
	c0.01-0.13,0-0.23-0.03-0.3c-0.03-0.06-0.06-0.11-0.1-0.14c-0.04-0.03-0.08-0.04-0.12-0.03
	C149.78,129.27,149.74,129.28,149.71,129.29L149.71,129.29z M155.14,136.08c-0.27,0.08-0.49,0.19-0.65,0.34
	c-0.16,0.15-0.28,0.29-0.35,0.44c-0.07,0.15-0.1,0.27-0.08,0.38c0.01,0.11,0.06,0.16,0.13,0.16c0.27-0.02,0.48-0.18,0.63-0.46
	C154.96,136.66,155.07,136.37,155.14,136.08L155.14,136.08z M159.08,127.06c-0.1,0.09-0.23,0.13-0.4,0.13
	c-0.16,0-0.32-0.05-0.48-0.13c-0.15-0.08-0.27-0.21-0.36-0.36c-0.09-0.16-0.11-0.35-0.05-0.56c0.03-0.11,0.07-0.25,0.11-0.4
	c0.04-0.15,0.08-0.31,0.13-0.46c0.05-0.15,0.1-0.3,0.16-0.43c0.06-0.14,0.11-0.24,0.17-0.32c0.07-0.07,0.14-0.12,0.2-0.15
	c0.07-0.04,0.15-0.06,0.26-0.07c0.17-0.01,0.35,0.02,0.54,0.09c0.19,0.07,0.36,0.16,0.52,0.28c0.15,0.12,0.27,0.25,0.34,0.41
	c0.07,0.15,0.08,0.3,0.01,0.43L159.08,127.06L159.08,127.06z M168.65,127.06c-0.1,0.09-0.23,0.13-0.4,0.13
	c-0.16,0-0.32-0.05-0.48-0.13c-0.15-0.08-0.27-0.21-0.37-0.36c-0.09-0.16-0.11-0.35-0.05-0.56c0.03-0.11,0.07-0.25,0.11-0.4
	c0.04-0.15,0.09-0.31,0.14-0.46c0.05-0.15,0.1-0.3,0.16-0.43c0.06-0.14,0.11-0.24,0.17-0.32c0.07-0.07,0.14-0.12,0.2-0.15
	c0.07-0.04,0.15-0.06,0.25-0.07c0.17-0.01,0.35,0.02,0.54,0.09c0.19,0.07,0.36,0.16,0.52,0.28c0.15,0.12,0.27,0.25,0.34,0.41
	c0.07,0.15,0.08,0.3,0.01,0.43L168.65,127.06L168.65,127.06z"/>
<path class="st7" d="M162.23,150.62c-0.1,0.09-0.23,0.13-0.4,0.13c-0.16-0.01-0.32-0.05-0.48-0.14c-0.15-0.08-0.27-0.21-0.36-0.36
	c-0.09-0.16-0.11-0.34-0.05-0.56c0.04-0.11,0.07-0.25,0.11-0.4c0.04-0.15,0.08-0.3,0.14-0.46c0.05-0.15,0.1-0.3,0.16-0.43
	c0.06-0.14,0.11-0.24,0.17-0.32c0.07-0.07,0.14-0.12,0.2-0.15c0.07-0.03,0.15-0.06,0.26-0.07c0.17-0.01,0.35,0.02,0.54,0.08
	c0.19,0.07,0.36,0.16,0.52,0.28c0.15,0.12,0.27,0.25,0.34,0.41c0.07,0.15,0.08,0.3,0.01,0.43L162.23,150.62L162.23,150.62z"/>
<path class="st7" d="M130.86,156.24c0-0.27,0.03-0.56,0.08-0.86c0.05-0.3,0.12-0.6,0.2-0.89c0.08-0.29,0.18-0.58,0.3-0.85
	c0.11-0.27,0.23-0.52,0.34-0.75c-0.22-0.01-0.44-0.04-0.66-0.1c-0.09,0.25-0.2,0.52-0.31,0.8c-0.17,0.43-0.36,0.86-0.59,1.31
	c-0.22,0.45-0.46,0.89-0.72,1.33c-0.26,0.44-0.54,0.85-0.83,1.23c-0.29,0.38-0.61,0.71-0.93,0.99c-0.33,0.28-0.67,0.49-1.02,0.61
	c-0.08,0.24-0.19,0.53-0.32,0.88c-0.14,0.35-0.31,0.69-0.53,1.01c-0.22,0.32-0.47,0.59-0.76,0.82c-0.29,0.22-0.63,0.32-1.01,0.3
	c-0.27-0.01-0.5-0.09-0.69-0.24c-0.19-0.15-0.32-0.33-0.41-0.55c-0.09-0.22-0.12-0.46-0.11-0.72c0.01-0.26,0.08-0.5,0.2-0.73
	c0.2-0.39,0.52-0.68,0.95-0.9c0.43-0.21,0.87-0.38,1.32-0.49l0.2-0.7c-0.1,0.19-0.26,0.35-0.46,0.46c-0.2,0.11-0.39,0.17-0.56,0.17
	c-0.48-0.02-0.85-0.21-1.14-0.58c-0.28-0.36-0.43-0.84-0.43-1.43c0-0.36,0.06-0.79,0.19-1.27c0.13-0.49,0.28-0.96,0.47-1.43
	c0.19-0.46,0.4-0.88,0.63-1.26c0.23-0.37,0.45-0.64,0.65-0.8c0.18-0.12,0.36-0.22,0.55-0.27c0.19-0.06,0.36-0.08,0.53-0.08
	c0.26,0,0.52,0.06,0.76,0.19c0.25,0.12,0.43,0.32,0.53,0.59c0.02-0.07,0.06-0.14,0.1-0.2c0.05-0.07,0.08-0.13,0.1-0.19
	c0.07-0.1,0.2-0.15,0.41-0.13c0.2,0.02,0.4,0.08,0.6,0.18c0.2,0.1,0.36,0.23,0.49,0.39c0.13,0.16,0.16,0.33,0.08,0.51
	c-0.17,0.34-0.35,0.75-0.55,1.22c-0.2,0.47-0.4,0.97-0.59,1.48c-0.2,0.52-0.38,1.02-0.56,1.51c-0.18,0.49-0.32,0.93-0.43,1.3
	c0.37-0.23,0.74-0.55,1.09-0.98c0.35-0.42,0.69-0.9,1.01-1.43c0.32-0.53,0.62-1.1,0.89-1.69c0.22-0.49,0.43-0.97,0.62-1.45
	c-0.02-0.02-0.05-0.03-0.07-0.05c-0.18-0.12-0.32-0.27-0.43-0.46c-0.11-0.19-0.18-0.41-0.19-0.67c-0.02-0.38,0.08-0.72,0.3-1.01
	c0.22-0.29,0.52-0.43,0.89-0.42c0.2,0,0.37,0.05,0.48,0.15c0.12,0.1,0.2,0.23,0.26,0.39c0.05,0.16,0.06,0.33,0.04,0.52
	c-0.02,0.19-0.07,0.37-0.15,0.55c0.02,0.16,0.12,0.27,0.3,0.32c0.17,0.06,0.34,0.03,0.5-0.09c0.16-0.09,0.32-0.14,0.48-0.14
	c0.17,0,0.34,0.04,0.52,0.12c0.18,0.08,0.32,0.18,0.42,0.31c0.11,0.12,0.18,0.26,0.2,0.42c0.03,0.16-0.01,0.32-0.13,0.49
	c-0.12,0.17-0.27,0.4-0.44,0.69c-0.17,0.29-0.33,0.6-0.49,0.94c-0.16,0.34-0.29,0.68-0.41,1.04c-0.11,0.35-0.18,0.67-0.19,0.95
	c0,0.19,0.02,0.33,0.07,0.42c0.04,0.09,0.18,0.06,0.41-0.1c0.26-0.19,0.56-0.49,0.89-0.91c0.26-0.32,0.51-0.65,0.76-1
	c0.03-0.24,0.09-0.49,0.15-0.75c0.14-0.54,0.35-1.03,0.62-1.48c0.27-0.45,0.6-0.82,0.99-1.12c0.39-0.3,0.84-0.45,1.35-0.45
	c0.2,0,0.41,0.04,0.62,0.11c0.21,0.07,0.39,0.18,0.55,0.33c0.16,0.15,0.29,0.34,0.4,0.57c0.11,0.23,0.16,0.51,0.16,0.82
	c-0.02,0.6-0.15,1.1-0.38,1.49c-0.23,0.4-0.52,0.71-0.86,0.95c-0.34,0.24-0.7,0.4-1.08,0.5c-0.38,0.1-0.73,0.14-1.04,0.14
	c-0.02,0.15-0.01,0.3,0.03,0.45c0.04,0.15,0.1,0.29,0.19,0.41c0.08,0.12,0.19,0.21,0.32,0.29c0.13,0.07,0.28,0.11,0.45,0.11
	c0.29,0,0.63-0.14,1-0.41c0.37-0.27,0.76-0.64,1.15-1.11c0.3-0.36,0.6-0.77,0.89-1.22c0.13-0.51,0.28-1.03,0.44-1.56
	c0.17-0.56,0.34-1.09,0.51-1.59c0.05-0.12,0.18-0.2,0.39-0.24c0.22-0.03,0.43-0.03,0.65,0.02c0.22,0.05,0.41,0.13,0.56,0.24
	c0.15,0.11,0.19,0.25,0.11,0.42c-0.09,0.24-0.19,0.48-0.3,0.71c-0.11,0.24-0.21,0.46-0.29,0.68c0.08-0.13,0.18-0.27,0.31-0.43
	c0.13-0.16,0.27-0.33,0.42-0.5c0.15-0.17,0.31-0.33,0.48-0.49c0.16-0.16,0.33-0.29,0.5-0.41c0.22-0.14,0.43-0.19,0.65-0.17
	c0.22,0.02,0.4,0.1,0.55,0.25c0.15,0.14,0.26,0.34,0.33,0.59c0.07,0.25,0.06,0.55-0.02,0.89c-0.05,0.2-0.13,0.48-0.24,0.82
	c-0.11,0.35-0.23,0.7-0.34,1.08c-0.11,0.37-0.22,0.74-0.31,1.09c-0.09,0.35-0.14,0.63-0.14,0.83c0,0.03,0.01,0.08,0.03,0.13
	c0.02,0.05,0.05,0.08,0.11,0.08c0.09,0,0.25-0.1,0.47-0.31c0.22-0.2,0.48-0.51,0.77-0.92c0.09-0.12,0.18-0.26,0.27-0.4
	c0.02-0.15,0.05-0.3,0.08-0.45c0.1-0.48,0.23-0.93,0.4-1.38c0.16-0.44,0.35-0.84,0.55-1.2c0.2-0.36,0.41-0.62,0.63-0.79
	c0.18-0.14,0.37-0.23,0.56-0.3c0.19-0.06,0.38-0.09,0.56-0.09c0.27,0,0.51,0.06,0.73,0.18c0.22,0.12,0.37,0.31,0.48,0.57
	c0.04-0.08,0.06-0.14,0.08-0.17c0.02-0.03,0.05-0.1,0.11-0.19c0.08-0.15,0.23-0.22,0.45-0.21c0.22,0,0.44,0.05,0.65,0.14
	c0.21,0.09,0.39,0.21,0.53,0.35c0.15,0.14,0.19,0.28,0.12,0.42c-0.22,0.48-0.42,0.95-0.6,1.42c-0.19,0.47-0.35,0.91-0.49,1.31
	c-0.14,0.41-0.25,0.77-0.31,1.09c-0.07,0.32-0.09,0.56-0.07,0.73c0.02,0.09,0.06,0.14,0.11,0.14c0.05,0.01,0.11-0.01,0.17-0.05
	c0.06-0.04,0.12-0.09,0.18-0.15c0.06-0.06,0.1-0.11,0.13-0.14c0.23-0.25,0.47-0.58,0.73-0.99c0.23-0.36,0.45-0.73,0.66-1.11
	c0.08-0.33,0.18-0.64,0.3-0.95c0.16-0.44,0.35-0.84,0.56-1.2c0.21-0.36,0.42-0.62,0.64-0.79c0.18-0.14,0.36-0.23,0.55-0.3
	c0.19-0.06,0.37-0.09,0.55-0.09c0.27,0,0.51,0.06,0.73,0.18c0.22,0.12,0.38,0.31,0.49,0.57c0.18-0.65,0.38-1.28,0.59-1.91
	c0.21-0.63,0.41-1.2,0.59-1.7c0.19-0.51,0.36-0.94,0.51-1.3c0.15-0.36,0.27-0.59,0.35-0.7c0.06-0.08,0.13-0.14,0.21-0.17
	c0.08-0.03,0.17-0.05,0.25-0.05c0.17,0,0.36,0.03,0.57,0.08c0.21,0.06,0.39,0.14,0.55,0.24c0.16,0.1,0.27,0.22,0.34,0.37
	c0.07,0.14,0.05,0.29-0.05,0.45c-0.11,0.18-0.28,0.51-0.5,0.99c-0.22,0.48-0.46,1.04-0.72,1.66c-0.26,0.63-0.53,1.3-0.8,2.01
	c-0.27,0.71-0.52,1.39-0.73,2.05c-0.22,0.65-0.39,1.23-0.53,1.75c-0.13,0.52-0.19,0.89-0.17,1.13c0.02,0.15,0.07,0.2,0.15,0.15
	c0.15-0.07,0.32-0.21,0.51-0.43c0.19-0.21,0.39-0.47,0.61-0.77c0.22-0.3,0.43-0.62,0.65-0.98c0.16-0.26,0.32-0.52,0.46-0.77
	l0.05-0.17c0.12-0.45,0.26-0.87,0.4-1.27c0.14-0.4,0.28-0.71,0.42-0.95c0.1-0.19,0.28-0.3,0.54-0.33c0.26-0.03,0.51,0.01,0.75,0.11
	c0.24,0.1,0.42,0.25,0.56,0.45c0.14,0.2,0.14,0.42,0,0.67c-0.1,0.2-0.23,0.46-0.38,0.76c-0.15,0.3-0.3,0.62-0.45,0.97
	c-0.15,0.35-0.27,0.7-0.38,1.06c-0.11,0.36-0.18,0.7-0.21,1c0,0.06,0,0.12,0,0.19c0,0.07,0.01,0.15,0.03,0.22
	c0.02,0.07,0.04,0.14,0.08,0.19c0.03,0.06,0.08,0.09,0.15,0.1c0.14,0,0.3-0.08,0.49-0.25c0.19-0.16,0.39-0.39,0.6-0.66
	c0.21-0.28,0.42-0.59,0.65-0.95c0.13-0.21,0.26-0.42,0.37-0.63c0.13-0.5,0.27-1.01,0.43-1.54c0.17-0.56,0.34-1.09,0.51-1.59
	c0.04-0.12,0.18-0.2,0.39-0.24c0.22-0.03,0.43-0.03,0.65,0.02c0.22,0.05,0.41,0.13,0.56,0.24c0.15,0.11,0.19,0.25,0.11,0.42
	c-0.09,0.24-0.19,0.48-0.3,0.71c-0.11,0.24-0.21,0.46-0.29,0.68c0.08-0.13,0.18-0.27,0.31-0.43c0.13-0.16,0.27-0.33,0.42-0.5
	c0.15-0.17,0.31-0.33,0.48-0.49c0.16-0.16,0.33-0.29,0.5-0.41c0.22-0.14,0.43-0.19,0.65-0.17c0.22,0.02,0.4,0.1,0.55,0.25
	c0.15,0.14,0.26,0.34,0.33,0.59c0.07,0.25,0.06,0.55-0.02,0.89c-0.05,0.2-0.12,0.48-0.24,0.82c-0.11,0.35-0.23,0.7-0.34,1.08
	c-0.11,0.37-0.22,0.74-0.31,1.09c-0.09,0.35-0.14,0.63-0.14,0.83c0,0.03,0.01,0.08,0.03,0.13c0.02,0.05,0.05,0.08,0.11,0.08
	c0.09,0,0.25-0.1,0.47-0.31c0.22-0.2,0.48-0.51,0.77-0.92l0.07-0.1c0-0.47,0.07-0.98,0.21-1.51c0.14-0.54,0.35-1.03,0.62-1.48
	c0.27-0.45,0.6-0.82,0.99-1.12c0.39-0.3,0.84-0.45,1.35-0.45c0.2,0,0.41,0.04,0.62,0.11c0.21,0.07,0.39,0.18,0.55,0.33
	c0.16,0.15,0.29,0.34,0.4,0.57c0.11,0.23,0.16,0.51,0.16,0.82c-0.02,0.6-0.15,1.1-0.38,1.49c-0.23,0.4-0.52,0.71-0.86,0.95
	c-0.34,0.24-0.7,0.4-1.08,0.5c-0.38,0.1-0.73,0.14-1.04,0.14c-0.02,0.15-0.01,0.3,0.03,0.45c0.04,0.15,0.1,0.29,0.19,0.41
	c0.08,0.12,0.19,0.21,0.32,0.29c0.13,0.07,0.28,0.11,0.45,0.11c0.3,0,0.63-0.14,1-0.41c0.37-0.27,0.75-0.64,1.14-1.11
	c0.39-0.47,0.78-1.02,1.16-1.65c0.39-0.63,0.74-1.3,1.05-2.01c0.02-0.06,0.07-0.09,0.13-0.09c0.07-0.01,0.14,0.01,0.2,0.03
	c0.07,0.03,0.12,0.07,0.16,0.12c0.04,0.05,0.05,0.1,0.03,0.15c-0.13,0.26-0.29,0.59-0.5,0.98c-0.21,0.39-0.45,0.8-0.71,1.24
	c-0.27,0.44-0.56,0.87-0.87,1.31c-0.32,0.43-0.65,0.83-1.01,1.19c-0.36,0.36-0.72,0.65-1.1,0.87c-0.38,0.23-0.76,0.34-1.15,0.36
	c-0.31,0-0.58-0.07-0.83-0.2c-0.25-0.13-0.47-0.31-0.65-0.54c-0.18-0.22-0.32-0.49-0.42-0.79l-0.01,0.01c-0.28,0.4-0.57,0.73-0.87,1
	c-0.29,0.27-0.59,0.43-0.88,0.47c-0.27,0.02-0.5,0-0.69-0.07c-0.19-0.07-0.34-0.18-0.45-0.32c-0.11-0.15-0.19-0.32-0.25-0.53
	c-0.05-0.2-0.08-0.42-0.08-0.66c0-0.36,0.05-0.76,0.16-1.2c0.11-0.44,0.21-0.87,0.3-1.3c0.07-0.31,0.08-0.52,0.04-0.64
	c-0.04-0.12-0.11-0.16-0.21-0.14c-0.1,0.03-0.22,0.12-0.35,0.26c-0.13,0.15-0.25,0.33-0.35,0.56c-0.1,0.23-0.22,0.48-0.34,0.77
	c-0.12,0.29-0.24,0.58-0.35,0.88c-0.11,0.3-0.21,0.59-0.31,0.87c-0.1,0.28-0.17,0.53-0.21,0.75c-0.05,0.2-0.14,0.39-0.29,0.56
	c-0.15,0.17-0.36,0.23-0.65,0.19c-0.2-0.02-0.35-0.14-0.45-0.35c-0.1-0.21-0.15-0.4-0.15-0.57c0-0.18,0.01-0.38,0.04-0.61
	c-0.05,0.07-0.1,0.14-0.15,0.21c-0.29,0.39-0.6,0.71-0.93,0.96c-0.33,0.25-0.66,0.38-1,0.38c-0.28,0-0.52-0.05-0.71-0.13
	c-0.19-0.09-0.35-0.21-0.47-0.38c-0.12-0.16-0.2-0.35-0.25-0.57c-0.05-0.22-0.08-0.46-0.08-0.72c0-0.08,0-0.17,0.01-0.25
	c-0.14,0.23-0.28,0.44-0.42,0.65c-0.28,0.4-0.56,0.73-0.85,0.99c-0.29,0.26-0.57,0.39-0.84,0.39c-0.28,0-0.54-0.1-0.76-0.31
	c-0.22-0.2-0.37-0.47-0.45-0.81c-0.07,0.13-0.15,0.25-0.26,0.38c-0.1,0.13-0.21,0.25-0.34,0.36c-0.12,0.11-0.26,0.2-0.42,0.27
	c-0.15,0.07-0.32,0.12-0.5,0.13c-0.49,0-0.89-0.17-1.22-0.5c-0.28-0.28-0.44-0.68-0.48-1.2c-0.06,0.1-0.13,0.2-0.19,0.3
	c-0.27,0.4-0.54,0.73-0.81,0.99c-0.28,0.26-0.55,0.39-0.82,0.39c-0.29,0-0.55-0.1-0.77-0.31c-0.22-0.2-0.36-0.47-0.43-0.81
	c-0.07,0.13-0.15,0.25-0.25,0.38s-0.22,0.25-0.34,0.36c-0.12,0.11-0.26,0.2-0.42,0.27c-0.15,0.07-0.32,0.12-0.5,0.13
	c-0.49,0-0.89-0.17-1.22-0.5c-0.24-0.25-0.4-0.59-0.46-1.01l-0.02,0.02c-0.28,0.4-0.57,0.73-0.87,1c-0.29,0.27-0.59,0.43-0.88,0.47
	c-0.27,0.02-0.5,0-0.69-0.07c-0.19-0.07-0.34-0.18-0.45-0.32c-0.11-0.15-0.2-0.32-0.25-0.53c-0.05-0.2-0.08-0.42-0.08-0.66
	c0-0.36,0.05-0.76,0.16-1.2c0.11-0.44,0.21-0.87,0.3-1.3c0.07-0.31,0.08-0.52,0.04-0.64c-0.04-0.12-0.11-0.16-0.21-0.14
	c-0.1,0.03-0.22,0.12-0.35,0.26c-0.13,0.15-0.25,0.33-0.35,0.56c-0.1,0.23-0.22,0.48-0.34,0.77c-0.13,0.29-0.24,0.58-0.35,0.88
	c-0.11,0.3-0.21,0.59-0.31,0.87c-0.1,0.28-0.17,0.53-0.21,0.75c-0.04,0.2-0.14,0.39-0.29,0.56c-0.15,0.17-0.36,0.23-0.65,0.19
	c-0.2-0.02-0.35-0.14-0.45-0.35c-0.1-0.21-0.14-0.4-0.14-0.57c0-0.32,0.04-0.71,0.13-1.18l0.04-0.19c-0.29,0.39-0.61,0.76-0.93,1.08
	c-0.36,0.36-0.72,0.65-1.1,0.87c-0.38,0.23-0.76,0.34-1.15,0.36c-0.3,0-0.58-0.07-0.83-0.2c-0.25-0.13-0.47-0.31-0.65-0.54
	c-0.19-0.23-0.33-0.5-0.43-0.81c-0.05-0.15-0.09-0.31-0.11-0.48c-0.16,0.22-0.31,0.43-0.47,0.64c-0.31,0.4-0.62,0.72-0.93,0.98
	c-0.31,0.26-0.6,0.39-0.87,0.39c-0.23,0-0.43-0.06-0.61-0.19c-0.18-0.12-0.33-0.29-0.45-0.48c-0.12-0.2-0.21-0.43-0.27-0.68
	C130.89,156.79,130.86,156.52,130.86,156.24L130.86,156.24z M137.56,152.84c-0.1,0.06-0.22,0.17-0.36,0.34
	c-0.13,0.17-0.27,0.38-0.41,0.62c-0.14,0.24-0.26,0.51-0.37,0.8c-0.11,0.29-0.2,0.58-0.26,0.87c0.19-0.02,0.39-0.1,0.59-0.24
	c0.2-0.14,0.38-0.3,0.54-0.5c0.16-0.2,0.3-0.43,0.42-0.68c0.11-0.26,0.18-0.51,0.2-0.77c0.01-0.14,0-0.23-0.03-0.3
	c-0.03-0.06-0.06-0.11-0.1-0.13c-0.04-0.03-0.08-0.04-0.12-0.03C137.63,152.82,137.6,152.83,137.56,152.84L137.56,152.84z
	 M149.5,153.27c0-0.03,0-0.09-0.01-0.16c-0.01-0.07-0.02-0.14-0.03-0.21c-0.02-0.07-0.04-0.13-0.07-0.19
	c-0.03-0.06-0.07-0.09-0.11-0.09c-0.14,0-0.29,0.1-0.45,0.31c-0.16,0.21-0.32,0.47-0.48,0.79c-0.15,0.32-0.3,0.67-0.43,1.05
	c-0.14,0.39-0.24,0.75-0.32,1.09c-0.02,0.1-0.05,0.24-0.08,0.42c-0.03,0.18-0.05,0.36-0.06,0.53c0,0.18,0.01,0.33,0.04,0.46
	c0.03,0.13,0.11,0.19,0.22,0.19c0.15,0,0.29-0.08,0.44-0.25c0.15-0.16,0.29-0.38,0.42-0.64c0.13-0.26,0.25-0.55,0.36-0.87
	c0.11-0.32,0.21-0.63,0.3-0.94c0.08-0.31,0.15-0.6,0.2-0.87C149.47,153.64,149.5,153.42,149.5,153.27L149.5,153.27z M155.71,153.27
	c0-0.03,0-0.09-0.01-0.16c0-0.07-0.02-0.14-0.03-0.21c-0.02-0.07-0.04-0.13-0.07-0.19c-0.03-0.06-0.07-0.09-0.11-0.09
	c-0.14,0-0.29,0.1-0.45,0.31c-0.16,0.21-0.32,0.47-0.48,0.79c-0.15,0.32-0.3,0.67-0.43,1.05c-0.14,0.39-0.24,0.75-0.32,1.09
	c-0.02,0.1-0.05,0.24-0.08,0.42c-0.03,0.18-0.05,0.36-0.06,0.53c0,0.18,0.01,0.33,0.04,0.46c0.03,0.13,0.11,0.19,0.22,0.19
	c0.15,0,0.29-0.08,0.44-0.25c0.15-0.16,0.29-0.38,0.42-0.64c0.13-0.26,0.25-0.55,0.36-0.87c0.11-0.32,0.21-0.63,0.3-0.94
	c0.08-0.31,0.15-0.6,0.2-0.87C155.68,153.64,155.71,153.42,155.71,153.27L155.71,153.27z M171.51,152.84
	c-0.1,0.06-0.22,0.17-0.36,0.34c-0.14,0.17-0.27,0.38-0.41,0.62c-0.13,0.24-0.26,0.51-0.37,0.8c-0.11,0.29-0.2,0.58-0.26,0.87
	c0.19-0.02,0.39-0.1,0.59-0.24c0.2-0.14,0.38-0.3,0.54-0.5c0.16-0.2,0.3-0.43,0.42-0.68c0.11-0.26,0.18-0.51,0.2-0.77
	c0.01-0.14,0-0.23-0.03-0.3c-0.03-0.06-0.06-0.11-0.1-0.13c-0.04-0.03-0.08-0.04-0.12-0.03
	C171.58,152.82,171.55,152.83,171.51,152.84L171.51,152.84z M126.72,153.01c0-0.03,0-0.08-0.01-0.14c0-0.06-0.02-0.13-0.03-0.19
	c-0.02-0.06-0.04-0.12-0.07-0.17c-0.03-0.05-0.06-0.08-0.11-0.08c-0.13,0-0.27,0.1-0.43,0.29c-0.16,0.19-0.32,0.44-0.47,0.75
	c-0.16,0.3-0.31,0.64-0.47,1.01c-0.15,0.37-0.29,0.73-0.4,1.08c-0.04,0.14-0.09,0.32-0.14,0.55c-0.05,0.23-0.09,0.45-0.11,0.66
	c-0.02,0.21-0.02,0.39,0.01,0.53c0.03,0.14,0.1,0.19,0.23,0.16c0.19-0.04,0.38-0.17,0.55-0.37c0.18-0.2,0.34-0.45,0.49-0.73
	c0.15-0.28,0.28-0.59,0.4-0.92c0.12-0.33,0.22-0.66,0.31-0.97c0.08-0.31,0.15-0.6,0.2-0.86
	C126.69,153.34,126.72,153.15,126.72,153.01L126.72,153.01z M125.04,159.58c-0.26,0.09-0.47,0.21-0.62,0.35
	c-0.15,0.14-0.26,0.28-0.33,0.42c-0.07,0.14-0.1,0.26-0.09,0.36c0.01,0.1,0.04,0.15,0.11,0.15c0.14,0,0.25-0.04,0.35-0.12
	c0.1-0.08,0.18-0.18,0.26-0.31c0.07-0.13,0.14-0.26,0.19-0.41C124.96,159.87,125,159.73,125.04,159.58L125.04,159.58z"/>
<path class="st0" d="M160.81,175.82c0.18-0.13,0.37-0.23,0.56-0.3s0.38-0.09,0.56-0.09c0.27,0,0.52,0.06,0.73,0.18
	c0.21,0.12,0.37,0.31,0.48,0.57c0.03-0.08,0.06-0.13,0.08-0.17c0.02-0.03,0.05-0.09,0.11-0.19c0.08-0.15,0.23-0.22,0.45-0.21
	c0.22,0.01,0.44,0.05,0.65,0.14c0.21,0.09,0.39,0.21,0.54,0.35c0.15,0.14,0.19,0.28,0.12,0.42c-0.21,0.48-0.42,0.95-0.6,1.42
	c-0.19,0.47-0.35,0.91-0.49,1.32c-0.14,0.41-0.25,0.77-0.31,1.09c-0.07,0.32-0.09,0.56-0.07,0.73c0.02,0.09,0.06,0.14,0.11,0.14
	c0.05,0.01,0.11-0.01,0.17-0.05c0.06-0.04,0.12-0.09,0.18-0.15c0.06-0.06,0.1-0.11,0.14-0.14c0.23-0.25,0.47-0.58,0.73-0.99
	c0.26-0.41,0.51-0.84,0.76-1.28c0.24-0.44,0.46-0.86,0.66-1.27c0.2-0.4,0.35-0.71,0.47-0.94c0.02-0.06,0.07-0.08,0.14-0.08
	c0.07,0,0.14,0.01,0.21,0.04c0.07,0.03,0.13,0.07,0.18,0.12c0.05,0.05,0.07,0.1,0.04,0.16c-0.07,0.1-0.17,0.32-0.31,0.65
	c-0.14,0.33-0.31,0.72-0.51,1.15c-0.2,0.44-0.42,0.89-0.65,1.37c-0.24,0.48-0.49,0.91-0.75,1.32c-0.27,0.4-0.54,0.73-0.81,0.99
	c-0.28,0.26-0.55,0.39-0.82,0.39c-0.3,0-0.55-0.1-0.77-0.31c-0.22-0.2-0.36-0.47-0.43-0.81c-0.07,0.12-0.15,0.25-0.26,0.38
	c-0.1,0.13-0.22,0.25-0.34,0.36c-0.12,0.11-0.26,0.2-0.42,0.27c-0.15,0.07-0.32,0.12-0.5,0.13c-0.49,0-0.89-0.17-1.22-0.5
	c-0.2-0.2-0.34-0.46-0.42-0.78c-0.24,0.35-0.48,0.65-0.74,0.89c-0.28,0.27-0.57,0.4-0.87,0.4c-0.2,0-0.4-0.03-0.59-0.08
	c-0.19-0.06-0.35-0.15-0.49-0.28c-0.14-0.13-0.26-0.31-0.35-0.53c-0.09-0.22-0.14-0.49-0.15-0.82c0-0.07,0-0.13,0-0.2
	c-0.13,0.2-0.26,0.4-0.4,0.58c-0.29,0.39-0.6,0.71-0.92,0.96c-0.33,0.25-0.66,0.38-1,0.38c-0.28,0-0.52-0.04-0.71-0.13
	c-0.19-0.09-0.35-0.22-0.47-0.38c-0.12-0.16-0.2-0.35-0.26-0.57c-0.04-0.17-0.06-0.36-0.07-0.55l-0.11,0.17
	c-0.26,0.4-0.53,0.74-0.8,1.02c-0.27,0.28-0.54,0.43-0.8,0.45c-0.45,0.05-0.8-0.08-1.05-0.37c-0.25-0.29-0.38-0.68-0.39-1.17
	c-0.1,0.19-0.22,0.38-0.34,0.56c-0.13,0.18-0.26,0.34-0.41,0.48c-0.15,0.14-0.3,0.26-0.47,0.35c-0.16,0.09-0.33,0.14-0.48,0.14
	c-0.14,0-0.28-0.02-0.44-0.07c-0.16-0.05-0.31-0.13-0.46-0.26c-0.15-0.12-0.27-0.3-0.37-0.54c-0.1-0.24-0.16-0.55-0.17-0.95
	c0-0.06,0-0.12,0-0.19c-0.08,0.1-0.15,0.19-0.23,0.28c-0.23,0.28-0.45,0.49-0.65,0.65c0.04,0.28,0.07,0.55,0.08,0.81
	c0.01,0.25,0.02,0.49,0.02,0.72c0,1.05-0.13,1.89-0.4,2.52c-0.27,0.63-0.67,0.95-1.21,0.96c-0.34,0.01-0.62-0.09-0.83-0.31
	c-0.22-0.22-0.38-0.52-0.48-0.91c-0.11-0.38-0.16-0.84-0.16-1.36c0-0.52,0.05-1.08,0.14-1.68c-0.1,0.08-0.22,0.15-0.36,0.21
	c-0.14,0.06-0.29,0.1-0.46,0.11c-0.55,0-0.98-0.19-1.27-0.59c-0.26-0.35-0.41-0.78-0.44-1.3c-0.2,0.24-0.41,0.47-0.62,0.69
	c-0.36,0.36-0.72,0.65-1.1,0.87c-0.38,0.23-0.76,0.35-1.14,0.36c-0.31,0-0.58-0.07-0.83-0.2c-0.25-0.13-0.47-0.31-0.65-0.54
	c-0.18-0.23-0.32-0.49-0.43-0.79l-0.04,0.07c-0.26,0.41-0.52,0.74-0.78,1.01c-0.26,0.27-0.51,0.4-0.76,0.42
	c-0.48,0.02-0.85-0.1-1.12-0.37c-0.27-0.27-0.44-0.66-0.49-1.17c-0.06-0.49-0.03-1.09,0.09-1.81c0.12-0.72,0.27-1.48,0.47-2.3
	l-0.26-0.02c-0.19-0.01-0.32-0.04-0.4-0.09c-0.07-0.05-0.11-0.12-0.11-0.2c0-0.13,0.04-0.26,0.11-0.39
	c0.07-0.14,0.19-0.19,0.35-0.17c0.09,0.01,0.18,0.02,0.26,0.03c0.08,0.01,0.17,0.01,0.26,0.01c0.17-0.62,0.35-1.23,0.55-1.83
	c0.2-0.6,0.39-1.15,0.58-1.65c0.19-0.5,0.36-0.93,0.52-1.28c0.16-0.36,0.28-0.6,0.37-0.74c0.09-0.15,0.24-0.22,0.46-0.22
	c0.18,0,0.37,0.03,0.57,0.1c0.2,0.07,0.37,0.16,0.52,0.26c0.15,0.11,0.25,0.23,0.31,0.38c0.06,0.15,0.03,0.3-0.07,0.46
	c-0.07,0.09-0.17,0.28-0.3,0.57c-0.13,0.29-0.28,0.64-0.45,1.04c-0.17,0.41-0.35,0.86-0.54,1.37c-0.19,0.5-0.38,1.02-0.56,1.55h0.48
	c0.07,0,0.11,0.04,0.14,0.13c0.02,0.09,0.03,0.18,0.01,0.28c-0.02,0.1-0.06,0.2-0.12,0.29c-0.06,0.09-0.14,0.14-0.25,0.15
	c-0.09,0.01-0.18,0.02-0.27,0.03c-0.09,0.01-0.19,0.01-0.29,0.03c-0.16,0.46-0.3,0.91-0.42,1.35c-0.13,0.44-0.23,0.84-0.31,1.21
	c-0.08,0.37-0.14,0.7-0.18,0.98c-0.03,0.28-0.03,0.5,0.02,0.65c0.02,0.07,0.07,0.11,0.14,0.12c0.07,0.01,0.13,0,0.19-0.03
	c0.13-0.08,0.27-0.22,0.44-0.43c0.17-0.21,0.35-0.46,0.54-0.74c0.07-0.1,0.14-0.21,0.21-0.32c0.02-0.41,0.09-0.84,0.21-1.29
	c0.14-0.54,0.35-1.03,0.62-1.48c0.27-0.45,0.6-0.82,0.99-1.12c0.39-0.3,0.84-0.45,1.35-0.45c0.2,0,0.41,0.04,0.62,0.11
	c0.21,0.07,0.39,0.18,0.55,0.33c0.16,0.15,0.29,0.34,0.4,0.57c0.11,0.23,0.16,0.51,0.16,0.82c-0.02,0.6-0.15,1.1-0.38,1.49
	c-0.23,0.4-0.52,0.71-0.86,0.95c-0.34,0.24-0.7,0.41-1.08,0.5c-0.38,0.1-0.73,0.14-1.04,0.14c-0.02,0.15-0.01,0.3,0.03,0.45
	c0.04,0.15,0.1,0.29,0.19,0.41c0.08,0.12,0.19,0.21,0.32,0.29c0.13,0.07,0.28,0.11,0.45,0.11c0.29,0,0.63-0.13,1-0.41
	c0.37-0.27,0.75-0.64,1.14-1.11c0.12-0.14,0.23-0.29,0.35-0.44c0.03-0.14,0.06-0.29,0.1-0.44c0.12-0.48,0.27-0.94,0.47-1.4
	c0.19-0.46,0.4-0.87,0.63-1.24c0.23-0.37,0.45-0.63,0.68-0.79c0.18-0.12,0.37-0.22,0.56-0.27c0.19-0.06,0.38-0.08,0.58-0.08
	c0.27,0,0.52,0.05,0.74,0.15c0.22,0.1,0.38,0.28,0.48,0.53c0.03-0.09,0.07-0.19,0.09-0.3c0.03-0.11,0.09-0.18,0.18-0.21
	c0.11-0.05,0.28-0.04,0.49,0.02c0.22,0.06,0.41,0.15,0.59,0.29c0.18,0.13,0.31,0.31,0.4,0.52c0.09,0.21,0.06,0.45-0.08,0.72
	c-0.37,0.74-0.66,1.38-0.86,1.94c-0.2,0.55-0.34,1-0.42,1.34c0.25-0.08,0.49-0.22,0.74-0.41c0.24-0.19,0.49-0.45,0.76-0.76
	c0.08-0.1,0.17-0.21,0.26-0.33c0.07-0.34,0.16-0.68,0.26-1.02c0.14-0.48,0.29-0.92,0.45-1.32c0.16-0.4,0.3-0.69,0.43-0.88
	c0.16-0.19,0.36-0.29,0.61-0.29c0.17,0,0.34,0.03,0.51,0.08c0.17,0.05,0.31,0.12,0.43,0.21c0.12,0.09,0.2,0.21,0.23,0.35
	c0.03,0.14,0,0.3-0.1,0.48c-0.1,0.19-0.23,0.46-0.38,0.81c-0.15,0.35-0.3,0.72-0.45,1.13c-0.15,0.41-0.28,0.81-0.41,1.22
	c-0.13,0.41-0.2,0.77-0.24,1.09c-0.04,0.29,0,0.47,0.13,0.53c0.13,0.06,0.29-0.09,0.48-0.43c0.15-0.25,0.3-0.57,0.47-0.97
	c0.16-0.4,0.33-0.81,0.49-1.23c0.16-0.42,0.32-0.84,0.48-1.25c0.15-0.41,0.28-0.75,0.38-1.04c0.06-0.17,0.11-0.32,0.15-0.44
	c0.04-0.12,0.08-0.21,0.12-0.26c0.12-0.19,0.32-0.29,0.58-0.29c0.17,0,0.34,0.02,0.52,0.06s0.32,0.1,0.45,0.18
	c0.12,0.08,0.21,0.18,0.25,0.31c0.05,0.12,0.02,0.28-0.07,0.46c-0.1,0.18-0.22,0.43-0.36,0.74c-0.14,0.31-0.29,0.65-0.43,1.02
	c-0.15,0.37-0.28,0.74-0.39,1.12c-0.11,0.38-0.19,0.73-0.24,1.06c0,0.04-0.01,0.1-0.02,0.19c-0.01,0.1-0.02,0.2-0.02,0.3
	c0,0.1,0.01,0.19,0.04,0.27c0.03,0.08,0.08,0.12,0.14,0.13c0.11,0,0.27-0.08,0.48-0.25c0.2-0.17,0.44-0.45,0.71-0.83
	c0.17-0.25,0.36-0.54,0.55-0.88c0.07-0.38,0.16-0.76,0.26-1.13c0.13-0.45,0.26-0.87,0.4-1.26c0.14-0.4,0.28-0.71,0.42-0.95
	c0.1-0.19,0.28-0.3,0.54-0.33c0.26-0.03,0.51,0.01,0.75,0.11c0.24,0.1,0.42,0.25,0.56,0.45c0.14,0.2,0.14,0.42,0,0.67
	c-0.1,0.2-0.23,0.46-0.38,0.76c-0.15,0.3-0.3,0.62-0.45,0.97c-0.15,0.35-0.27,0.7-0.38,1.06c-0.11,0.36-0.18,0.7-0.21,1
	c0,0.06,0,0.12,0,0.2c0,0.07,0.01,0.15,0.03,0.22c0.02,0.07,0.04,0.14,0.08,0.2c0.04,0.06,0.09,0.09,0.15,0.1
	c0.14,0,0.3-0.08,0.49-0.25c0.19-0.16,0.39-0.38,0.6-0.66c0.21-0.28,0.42-0.59,0.65-0.95c0.13-0.22,0.26-0.43,0.38-0.65
	c0.09-0.51,0.2-1.05,0.34-1.61c0.17-0.71,0.36-1.42,0.58-2.14c0.22-0.72,0.43-1.38,0.65-1.99c0.22-0.61,0.41-1.14,0.59-1.59
	c0.18-0.45,0.33-0.76,0.44-0.93c0.09-0.15,0.25-0.22,0.48-0.22c0.18,0,0.37,0.03,0.57,0.1c0.2,0.07,0.37,0.16,0.52,0.26
	c0.15,0.11,0.25,0.23,0.31,0.38c0.06,0.15,0.03,0.3-0.07,0.46c-0.09,0.12-0.23,0.42-0.43,0.87c-0.2,0.46-0.42,1.01-0.67,1.65
	c-0.25,0.64-0.5,1.32-0.76,2.05c-0.26,0.73-0.49,1.43-0.69,2.11c-0.2,0.67-0.35,1.27-0.45,1.81c-0.1,0.53-0.12,0.91-0.05,1.14
	c0.02,0.07,0.07,0.11,0.13,0.12c0.06,0.01,0.12,0,0.18-0.03c0.18-0.11,0.4-0.32,0.65-0.63c0.22-0.27,0.45-0.59,0.68-0.96
	c0.02-0.15,0.05-0.3,0.08-0.45c0.1-0.48,0.23-0.93,0.4-1.38c0.16-0.44,0.35-0.84,0.55-1.2
	C160.38,176.26,160.59,175.99,160.81,175.82L160.81,175.82z M137.69,176.96c-0.1,0.06-0.22,0.17-0.36,0.34
	c-0.13,0.17-0.27,0.38-0.41,0.62c-0.14,0.24-0.26,0.51-0.37,0.8c-0.11,0.29-0.2,0.58-0.26,0.87c0.19-0.02,0.39-0.1,0.59-0.24
	c0.2-0.14,0.38-0.3,0.54-0.5c0.16-0.2,0.3-0.42,0.42-0.68c0.11-0.26,0.18-0.51,0.2-0.77c0.01-0.14,0-0.23-0.02-0.3
	c-0.03-0.06-0.06-0.11-0.1-0.14c-0.04-0.03-0.08-0.04-0.12-0.03C137.76,176.94,137.72,176.95,137.69,176.96L137.69,176.96z
	 M143.34,176.79c-0.04-0.16-0.11-0.24-0.19-0.24c-0.12,0-0.27,0.1-0.43,0.29c-0.16,0.19-0.32,0.43-0.47,0.73
	c-0.16,0.29-0.31,0.62-0.47,0.98c-0.15,0.36-0.29,0.72-0.4,1.07c-0.11,0.35-0.2,0.67-0.26,0.95c-0.06,0.28-0.07,0.5-0.03,0.65
	c0.04,0.26,0.13,0.39,0.25,0.39c0.14,0,0.3-0.1,0.48-0.31c0.18-0.2,0.36-0.46,0.54-0.76c0.07-0.13,0.16-0.34,0.28-0.64
	c0.12-0.3,0.23-0.62,0.34-0.97c0.11-0.34,0.2-0.68,0.28-1.02c0.08-0.33,0.12-0.6,0.12-0.79
	C143.39,177.01,143.38,176.89,143.34,176.79L143.34,176.79z M143.61,185.3c0.13,0,0.23-0.13,0.32-0.38
	c0.09-0.26,0.15-0.57,0.19-0.94c0.03-0.37,0.04-0.77,0.03-1.18c-0.02-0.41-0.08-0.77-0.18-1.08c-0.14,0.5-0.24,0.99-0.31,1.48
	c-0.07,0.49-0.11,0.89-0.14,1.18c-0.01,0.23-0.01,0.43,0.01,0.63C143.55,185.2,143.58,185.3,143.61,185.3L143.61,185.3z
	 M155.63,174.74c-0.1,0.09-0.23,0.13-0.4,0.13c-0.16-0.01-0.32-0.05-0.48-0.14c-0.15-0.09-0.27-0.21-0.36-0.36
	c-0.09-0.16-0.11-0.35-0.05-0.56c0.03-0.11,0.07-0.25,0.11-0.4s0.08-0.31,0.13-0.46c0.05-0.15,0.1-0.3,0.16-0.43
	c0.06-0.14,0.11-0.24,0.17-0.32c0.07-0.07,0.14-0.12,0.2-0.15c0.07-0.03,0.15-0.06,0.26-0.07c0.17-0.01,0.35,0.02,0.54,0.09
	c0.19,0.07,0.36,0.16,0.52,0.28c0.15,0.12,0.26,0.25,0.34,0.41c0.07,0.15,0.08,0.3,0.01,0.43L155.63,174.74L155.63,174.74z
	 M162.63,177.39c0-0.03,0-0.09-0.01-0.16c-0.01-0.07-0.02-0.14-0.03-0.21c-0.02-0.07-0.04-0.13-0.07-0.19
	c-0.03-0.06-0.06-0.08-0.11-0.08c-0.13,0-0.29,0.1-0.45,0.31c-0.16,0.21-0.32,0.47-0.48,0.79c-0.15,0.32-0.3,0.67-0.43,1.05
	c-0.13,0.39-0.24,0.75-0.32,1.09c-0.02,0.1-0.05,0.24-0.08,0.42c-0.03,0.18-0.05,0.36-0.06,0.53c0,0.18,0.01,0.33,0.04,0.46
	c0.03,0.13,0.11,0.2,0.22,0.2c0.15,0,0.29-0.08,0.44-0.25c0.15-0.16,0.29-0.38,0.42-0.64c0.13-0.26,0.25-0.55,0.36-0.87
	c0.11-0.32,0.21-0.63,0.3-0.94c0.09-0.31,0.15-0.6,0.2-0.87C162.6,177.76,162.63,177.54,162.63,177.39L162.63,177.39z"/>
<path class="st8" d="M98.35,147.79c-0.79,3.71-0.54,7.49-0.17,11c0.31,3.04,1.16,5.89,2.53,8.61c2.88,5.68,6.08,10.86,9.86,15.49
	c-5.11-4.63-9.53-9.81-12.41-15.49c-1.38-2.72-2.22-5.57-2.53-8.61C95.25,155.19,96.14,151.44,98.35,147.79L98.35,147.79z
	 M143.78,205.38c8.26-0.38,16.73-3.5,26.89-9.52c12.16-7.2,20.14-17.18,26.49-29.62c1.38-2.69,2.22-5.52,2.53-8.52
	c0.97-9.34-3.4-20.07-6.82-28.61c-5.01-12.49-9.87-24.3-11.95-37.71c-1.32-8.55-1.99-16.92-2.15-25.55
	c-0.11-6.28-0.1-12.56-0.04-18.83h3.39c-0.06,6.27-0.07,12.56,0.04,18.83c0.16,8.64,0.82,17.01,2.15,25.55
	c2.08,13.42,6.94,25.22,11.95,37.71c3.43,8.54,7.8,19.27,6.82,28.61c-0.31,3-1.15,5.83-2.53,8.52
	c-6.36,12.44-14.34,22.42-26.49,29.62C162.51,202.71,153.15,205.81,143.78,205.38L143.78,205.38z M109.22,113.81
	c2.52-6.99,4.76-14.46,5.99-22.51c2.83-18.44,2.01-29.98,2.16-47.75h3.4c-0.04,5.25,0.04,9.98,0.08,14.51
	c0,2.66-0.01,5.31-0.06,7.97c-0.04,2.07-0.1,4.12-0.2,6.16c-0.35,5.88-1.11,12.01-2.68,19.11
	C116.38,98.2,112.98,105.87,109.22,113.81L109.22,113.81z"/>
<path class="st9" d="M147.55,217.37l-0.09,50.25c-0.02,15.45-13.63,21.58-27.04,24.44c-6.07,1.29-18,2.73-21.54,3.94
	c2.59,0,10.19-0.19,20.28-0.39c9.35-0.31,19.89-0.4,30.21-0.37c10.32-0.03,20.85,0.05,30.21,0.37c10.09,0.19,17.69,0.39,20.28,0.39
	c-3.53-1.21-15.47-2.65-21.54-3.94c-13.08-2.79-27.04-8.86-27.04-24.44l-0.03-50.25C151.25,215.64,147.55,215.6,147.55,217.37
	L147.55,217.37z M207.07,298.29H91.68c-0.11-10.36,52.28-1.71,52.32-30.67l0.14-42.33c0.04-26.22-30.11-11.4-52.85-56.33
	c-10.98-21.69,10.85-44.72,15.91-77.66c2.83-18.44,2.01-29.98,2.16-47.75c26.7,0,53.39,0,80.09,0c0.14,17.77-0.68,29.31,2.15,47.75
	c5.06,32.94,26.89,55.98,15.91,77.66c-22.74,44.92-52.87,30.09-52.85,56.33l0.09,42.33C154.79,296.55,206.88,288.1,207.07,298.29
	L207.07,298.29z M112.8,47.01c-0.01,6.34,0.08,12.68-0.03,19.01c-0.16,8.72-0.83,17.17-2.15,25.8
	c-2.08,13.54-6.94,25.46-11.95,38.07c-3.43,8.63-7.8,19.45-6.82,28.89c0.31,3.03,1.16,5.89,2.53,8.61
	c6.36,12.56,14.34,22.64,26.5,29.9c21.12,12.62,35.14,13.09,57.05-0.01c12.16-7.26,20.14-17.34,26.49-29.9
	c1.38-2.72,2.22-5.57,2.53-8.61c0.97-9.43-3.4-20.26-6.82-28.89c-5.01-12.61-9.87-24.53-11.95-38.07
	c-1.32-8.63-1.99-17.08-2.15-25.8c-0.11-6.34-0.1-12.68-0.04-19.01C161.59,47.01,137.2,47.01,112.8,47.01L112.8,47.01z"/>
</svg>
